<svg width="24" height="24" viewBox="0 0 24 24" fill="none" xmlns="http://www.w3.org/2000/svg">
<path fill-rule="evenodd" clip-rule="evenodd" d="M18.3957 2.99034H5.60434C5.13564 2.99034 4.72983 3.31273 4.62816 3.76584L3.24662 9.92272H20.7534L19.3718 3.76584C19.2702 3.31273 18.8644 2.99034 18.3957 2.99034ZM20.348 3.55101C20.1447 2.64477 19.3331 2 18.3957 2H5.60434C4.66695 2 3.85532 2.64477 3.65197 3.55101L2 10.9131H22L20.348 3.55101Z" fill="#222222"/>
<path fill-rule="evenodd" clip-rule="evenodd" d="M22 10.9131H2C1.44772 10.9131 1 11.3564 1 11.9034V20.0154C1 20.8976 2.07714 21.3395 2.70711 20.7156L3.70711 18.7349C4.26972 18.1778 5.03278 17.8648 5.82843 17.8648H18.1716C18.9672 17.8648 19.7303 18.1778 20.2929 18.7349L21.2929 20.7156C21.9229 21.3395 23 20.8976 23 20.0154V11.9034C23 11.3564 22.5523 10.9131 22 10.9131ZM2 9.92272C0.895431 9.92272 0 10.8095 0 11.9034V20.0154C0 21.7799 2.15429 22.6637 3.41422 21.4159L4.41421 19.4352C4.78929 19.0638 5.29799 18.8551 5.82843 18.8551H18.1716C18.702 18.8551 19.2107 19.0638 19.5858 19.4352L20.5858 21.4159C21.8457 22.6637 24 21.7799 24 20.0154V11.9034C24 10.8095 23.1046 9.92272 22 9.92272H2Z" fill="#222222"/>
<path d="M3 14.3889C3 14.1154 3.22386 13.8937 3.5 13.8937C3.77614 13.8937 4 14.1154 4 14.3889C4 14.6624 3.77614 14.8841 3.5 14.8841C3.22386 14.8841 3 14.6624 3 14.3889Z" fill="#222222"/>
<path d="M20 14.3889C20 14.1154 20.2239 13.8937 20.5 13.8937C20.7761 13.8937 21 14.1154 21 14.3889C21 14.6624 20.7761 14.8841 20.5 14.8841C20.2239 14.8841 20 14.6624 20 14.3889Z" fill="#222222"/>
<path d="M6 14.3889C6 14.1154 6.22386 13.8937 6.5 13.8937H17.5C17.7761 13.8937 18 14.1154 18 14.3889C18 14.6624 17.7761 14.8841 17.5 14.8841H6.5C6.22386 14.8841 6 14.6624 6 14.3889Z" fill="#222222"/>
</svg>
