<svg width="24" height="24" fill="none" xmlns="http://www.w3.org/2000/svg"><path d="M12 23c-.687 0-1.383-.155-1.926-.476l-5.635-3.279C2.143 17.683 2 17.445 2 14.993V9.014c0-2.451.133-2.69 2.387-4.23l5.676-3.31c1.076-.632 2.767-.632 3.843 0l5.655 3.289C21.857 6.325 22 6.563 22 9.014v5.97c0 2.45-.133 2.689-2.387 4.23l-5.676 3.31c-.554.32-1.25.476-1.937.476zm0-20.44c-.43 0-.85.082-1.148.258l-5.635 3.29c-1.67 1.137-1.67 1.137-1.67 2.906v5.97c0 1.768 0 1.768 1.711 2.937l5.594 3.258c.605.352 1.701.352 2.306 0l5.635-3.29c1.66-1.137 1.66-1.137 1.66-2.906V9.014c0-1.769 0-1.769-1.711-2.937l-5.595-3.259c-.297-.176-.717-.259-1.147-.259z" fill="#7B61FF"/><path d="M12 15.883c-2.12 0-3.842-1.737-3.842-3.879 0-2.141 1.722-3.879 3.842-3.879 2.121 0 3.843 1.738 3.843 3.88 0 2.14-1.722 3.878-3.843 3.878zm0-6.206c-1.27 0-2.305 1.044-2.305 2.327S10.73 14.332 12 14.332c1.27 0 2.306-1.045 2.306-2.328S13.27 9.677 12 9.677z" fill="#7B61FF"/></svg>