<svg width="24" height="24" viewBox="0 0 24 24" fill="none" xmlns="http://www.w3.org/2000/svg">
<path d="M4.46154 23H18.3077C18.4913 23 18.6674 22.9323 18.7972 22.8117C18.9271 22.6912 19 22.5276 19 22.3571C19 22.1866 18.9271 22.0231 18.7972 21.9026C18.6674 21.782 18.4913 21.7143 18.3077 21.7143H4.46154C3.91093 21.7136 3.38308 21.5102 2.99374 21.1487C2.6044 20.7871 2.38535 20.297 2.38462 19.7857V5.64286C2.38462 5.47236 2.31168 5.30885 2.18184 5.18829C2.05201 5.06773 1.87592 5 1.69231 5C1.5087 5 1.33261 5.06773 1.20277 5.18829C1.07294 5.30885 1 5.47236 1 5.64286V19.7857C1.00073 20.638 1.36567 21.4552 2.01467 22.0578C2.66368 22.6605 3.54371 22.9993 4.46154 23Z" fill="#7B61FF"/>
<path d="M20.9231 1H7.07692C6.52631 1.00073 5.99847 1.21979 5.60913 1.60913C5.21979 1.99847 5.00073 2.52631 5 3.07692V16.9231C5.00073 17.4737 5.21979 18.0015 5.60913 18.3909C5.99847 18.7802 6.52631 18.9993 7.07692 19H20.9231C21.4737 18.9993 22.0015 18.7802 22.3909 18.3909C22.7802 18.0015 22.9993 17.4737 23 16.9231V3.07692C22.9993 2.52631 22.7802 1.99847 22.3909 1.60913C22.0015 1.21979 21.4737 1.00073 20.9231 1ZM21.6154 16.9231C21.615 17.1066 21.542 17.2825 21.4122 17.4122C21.2825 17.542 21.1066 17.615 20.9231 17.6154H7.07692C6.89342 17.615 6.71755 17.542 6.58779 17.4122C6.45804 17.2825 6.38498 17.1066 6.38462 16.9231V3.07692C6.38498 2.89342 6.45804 2.71755 6.58779 2.58779C6.71755 2.45804 6.89342 2.38498 7.07692 2.38462H20.9231C21.1066 2.38498 21.2825 2.45804 21.4122 2.58779C21.542 2.71755 21.615 2.89342 21.6154 3.07692V16.9231Z" fill="#7B61FF"/>
<path d="M18.1538 9.30769H14.6923V5.84615C14.6923 5.66254 14.6194 5.48645 14.4895 5.35662C14.3597 5.22679 14.1836 5.15385 14 5.15385C13.8164 5.15385 13.6403 5.22679 13.5105 5.35662C13.3806 5.48645 13.3077 5.66254 13.3077 5.84615V9.30769H9.84615C9.66254 9.30769 9.48645 9.38063 9.35662 9.51046C9.22679 9.6403 9.15385 9.81639 9.15385 10C9.15385 10.1836 9.22679 10.3597 9.35662 10.4895C9.48645 10.6194 9.66254 10.6923 9.84615 10.6923H13.3077V14.1538C13.3077 14.3375 13.3806 14.5135 13.5105 14.6434C13.6403 14.7732 13.8164 14.8462 14 14.8462C14.1836 14.8462 14.3597 14.7732 14.4895 14.6434C14.6194 14.5135 14.6923 14.3375 14.6923 14.1538V10.6923H18.1538C18.3375 10.6923 18.5135 10.6194 18.6434 10.4895C18.7732 10.3597 18.8462 10.1836 18.8462 10C18.8462 9.81639 18.7732 9.6403 18.6434 9.51046C18.5135 9.38063 18.3375 9.30769 18.1538 9.30769Z" fill="#7B61FF"/>
</svg>
