<svg width="60" height="60" viewBox="0 0 60 60" fill="none" xmlns="http://www.w3.org/2000/svg">
<g clip-path="url(#clip0_1241_12488)">
<path d="M55.3942 2.3852L53.7585 1.4909C53.4591 1.32602 53.1299 1.2222 52.79 1.18545C52.4501 1.14871 52.1064 1.17977 51.7786 1.27684C51.4503 1.37205 51.1442 1.53143 50.8779 1.74575C50.6117 1.96008 50.3906 2.22509 50.2275 2.52545L49.2444 4.32332C48.7685 4.13628 48.2438 4.11364 47.7536 4.25899C47.1607 4.43263 46.6711 4.82688 46.3747 5.36888C46.0783 5.91087 46.0108 6.53594 46.1844 7.12878C46.3537 7.71141 46.7467 8.20338 47.2775 8.49725L40.7955 20.3524C40.7568 20.4232 40.6998 20.4822 40.6304 20.5234C40.561 20.5645 40.4818 20.5862 40.4011 20.5862H38.5706C38.7942 20.0623 38.9093 19.4985 38.9087 18.9289V12.9772C40.085 12.708 40.9655 11.6537 40.9655 10.397V4.65957C40.9655 2.82585 39.4737 1.3339 37.6398 1.3339H34.3787C34.012 1.3339 33.6566 1.41252 33.3326 1.55674C32.8187 0.629283 31.8295 0 30.6963 0H27.628C27.1426 0 26.7493 0.393316 26.7493 0.878723C26.7493 1.36413 27.1426 1.75745 27.628 1.75745H30.6963C31.3877 1.75745 31.9503 2.32006 31.9503 3.01144V3.20968C31.9503 3.41024 32.0188 3.60476 32.1447 3.76095C32.2705 3.91714 32.4459 4.0256 32.6419 4.06831C32.8378 4.11101 33.0425 4.0854 33.2219 3.99573C33.4013 3.90606 33.5446 3.75772 33.628 3.57535C33.6938 3.43139 33.7995 3.30928 33.9325 3.22349C34.0655 3.13769 34.2203 3.0918 34.3786 3.09123H37.6397C38.5045 3.09123 39.2079 3.79468 39.2079 4.65946V10.3969C39.2078 10.5225 39.1811 10.6466 39.1295 10.761C39.0779 10.8755 39.0026 10.9777 38.9086 11.0609V9.70555C38.9086 9.57269 38.8784 9.44157 38.8204 9.32205C38.7624 9.20252 38.6781 9.0977 38.5737 9.01547C38.4694 8.93324 38.3477 8.87573 38.218 8.84728C38.0882 8.81883 37.9537 8.82017 37.8245 8.8512C36.2917 9.21956 35.0299 9.03714 34.0741 8.30885C33.3565 7.76205 33.061 7.08567 33.0511 7.06259C32.9927 6.91959 32.8975 6.79454 32.7753 6.70003C32.6531 6.60551 32.5082 6.54487 32.3551 6.52422C32.2008 6.5032 32.0437 6.52365 31.9 6.58347C31.7563 6.64329 31.6311 6.74032 31.5373 6.86458C31.5067 6.905 28.4088 10.8803 22.2144 9.08611C22.0835 9.04821 21.9456 9.04127 21.8115 9.06585C21.6775 9.09042 21.551 9.14583 21.442 9.22769C21.3331 9.30956 21.2447 9.41564 21.1838 9.53755C21.1229 9.65947 21.0912 9.79387 21.0911 9.93015V11.2869H21.0409C20.9748 11.2868 20.9115 11.2605 20.8648 11.2138C20.8181 11.1671 20.7919 11.1038 20.7918 11.0378V4.47762C20.7918 2.9777 22.012 1.75745 23.5121 1.75745H24.1146C24.6 1.75745 24.9934 1.36413 24.9934 0.878723C24.9934 0.393316 24.6 0 24.1146 0H23.5121C21.0431 0 19.0343 2.00864 19.0343 4.47762V11.0379C19.0343 12.1443 19.9345 13.0445 21.0409 13.0445H21.0911V18.9289C21.0906 19.4985 21.2056 20.0623 21.4293 20.5862H19.5987C19.5181 20.5862 19.4389 20.5645 19.3695 20.5234C19.3001 20.4823 19.2431 20.4233 19.2043 20.3525L12.7222 8.49725C13.2529 8.20334 13.6458 7.71138 13.8151 7.12878C13.9013 6.83743 13.9289 6.53187 13.8962 6.22979C13.8636 5.9277 13.7714 5.63509 13.6249 5.36888C13.4799 5.10187 13.2833 4.86629 13.0466 4.67575C12.8099 4.48522 12.5377 4.34353 12.2459 4.25888C11.7488 4.11301 11.2293 4.13703 10.7551 4.32332L9.77213 2.52545C9.60897 2.22508 9.38786 1.96006 9.12159 1.74571C8.85532 1.53137 8.54918 1.37197 8.22089 1.27673C7.89315 1.17963 7.54939 1.14855 7.20954 1.18527C6.86969 1.222 6.54051 1.3258 6.24107 1.49067L4.60524 2.38509C3.34644 3.0733 2.88224 4.65746 3.57046 5.91626L5.75836 9.91761C6.14605 10.6267 6.8966 11.0369 7.68511 11.0049L16.7859 27.6493C17.1952 28.3992 17.41 29.2398 17.4106 30.0941V35.713H17.199C15.822 35.713 14.7016 36.8335 14.7016 38.2104V52.8069C14.7016 53.0754 14.7455 53.3337 14.8242 53.5762C13.7979 53.7399 13.0102 54.6287 13.0102 55.7005V57.8461C13.0102 59.0338 13.9763 59.9999 15.164 59.9999H31.3496C31.835 59.9999 32.2283 59.6066 32.2283 59.1212C32.2283 58.6358 31.835 58.2424 31.3496 58.2424H15.1641C15.059 58.2423 14.9583 58.2005 14.884 58.1262C14.8097 58.0519 14.7679 57.9512 14.7677 57.8461V55.7005C14.7679 55.5954 14.8097 55.4946 14.884 55.4203C14.9583 55.346 15.059 55.3042 15.1641 55.3041H44.8356C44.9407 55.3042 45.0415 55.346 45.1158 55.4203C45.1901 55.4946 45.2319 55.5954 45.232 55.7005V57.8461C45.2319 57.9512 45.1901 58.0519 45.1158 58.1262C45.0415 58.2005 44.9407 58.2423 44.8356 58.2424H34.8631C34.3777 58.2424 33.9843 58.6358 33.9843 59.1212C33.9843 59.6066 34.3777 59.9999 34.8631 59.9999H44.8356C46.0233 59.9999 46.9894 59.0338 46.9894 57.8461V55.7005C46.9894 54.6287 46.2017 53.7399 45.1754 53.5762C45.2564 53.3278 45.2978 53.0682 45.2979 52.8069V38.2106C45.2979 36.8336 44.1775 35.7133 42.8006 35.7133H42.589V34.7442C42.589 34.2588 42.1957 33.8655 41.7103 33.8655C41.2249 33.8655 40.8316 34.2588 40.8316 34.7442V35.7133H19.1681V30.0944C19.1681 28.9485 18.8777 27.8115 18.328 26.8064L9.33137 10.3524L11.1805 9.34129L17.6622 21.1956C17.8522 21.5432 18.1322 21.8332 18.4729 22.0352C18.8136 22.2372 19.2024 22.3438 19.5985 22.3437H22.825C23.5497 22.8772 24.4261 23.1646 25.326 23.1638H26.0144V25.0937C26.0144 27.2913 27.8022 29.079 29.9997 29.079C32.1971 29.079 33.9849 27.2913 33.9849 25.0937V23.1638H34.6734C35.6083 23.1638 36.473 22.8587 37.1743 22.3437H40.4009C40.797 22.3438 41.1858 22.2372 41.5265 22.0352C41.8672 21.8332 42.1472 21.5431 42.3371 21.1955L48.8188 9.34129L50.668 10.3524L41.6714 26.8063C41.121 27.8149 40.8321 28.9453 40.8312 30.0943V31.2306C40.8312 31.716 41.2245 32.1093 41.7099 32.1093C42.1954 32.1093 42.5887 31.716 42.5887 31.2306V30.0943C42.5893 29.2399 42.8041 28.3992 43.2135 27.6493L52.314 11.005C53.104 11.037 53.8539 10.6253 54.241 9.91761L56.4288 5.91638C57.1172 4.65758 56.653 3.07342 55.3942 2.3852ZM43.5405 38.2106V52.8071C43.5403 53.0033 43.4622 53.1913 43.3235 53.33C43.1848 53.4687 42.9968 53.5467 42.8006 53.5469H17.1991C17.003 53.5467 16.8149 53.4687 16.6762 53.33C16.5375 53.1913 16.4595 53.0033 16.4592 52.8071V38.2106C16.4594 38.0144 16.5374 37.8264 16.6762 37.6877C16.8149 37.549 17.0029 37.4709 17.1991 37.4707H42.8005C42.9967 37.4709 43.1848 37.5489 43.3236 37.6876C43.4623 37.8263 43.5403 38.0144 43.5405 38.2106ZM5.11268 5.07339C5.05941 4.97612 5.02584 4.8693 5.01389 4.75905C5.00193 4.64879 5.01182 4.53726 5.043 4.43084C5.07417 4.32441 5.12602 4.22517 5.19557 4.13879C5.26512 4.05241 5.35102 3.98058 5.44835 3.92742L7.0843 3.03288C7.18158 2.97961 7.28841 2.94604 7.39868 2.93409C7.50894 2.92215 7.62049 2.93206 7.72692 2.96325C7.83336 2.99445 7.9326 3.04633 8.01896 3.11591C8.10533 3.1855 8.17714 3.27143 8.23027 3.36879L9.62591 5.92118C9.8579 6.34555 10.3918 6.5043 10.8185 6.27045L11.3291 5.99125C11.3931 5.95621 11.4634 5.93413 11.5359 5.92626C11.6084 5.9184 11.6818 5.92491 11.7518 5.94542C11.8218 5.96593 11.8871 6.00004 11.9439 6.0458C12.0007 6.09156 12.048 6.14807 12.0829 6.2121C12.118 6.27608 12.14 6.34634 12.1479 6.41885C12.1557 6.49136 12.1492 6.56471 12.1286 6.6347C12.1081 6.70468 12.074 6.76994 12.0283 6.82674C11.9825 6.88353 11.926 6.93075 11.862 6.96569L7.77485 9.20046L7.74966 9.21241C7.74791 9.21323 7.74638 9.2144 7.74463 9.21522C7.6667 9.25332 7.57711 9.25997 7.49441 9.2338C7.41172 9.20762 7.34227 9.15063 7.30046 9.07463L5.11268 5.07339ZM32.2276 25.0937C32.2276 26.3221 31.2282 27.3216 29.9997 27.3216C28.7713 27.3216 27.772 26.3222 27.772 25.0937V23.1638H32.2275V25.0937H32.2276ZM25.3262 21.4064C23.96 21.4064 22.8486 20.295 22.8486 18.9289V11.0518C26.0986 11.7142 28.5422 10.9765 30.0739 10.1874C30.9374 9.74246 31.6063 9.23666 32.0799 8.81617C32.9731 9.92207 34.6269 11.0163 37.1513 10.7492V18.9287C37.1513 20.2949 36.0398 21.4063 34.6736 21.4063L25.3262 21.4064ZM54.8869 5.07339L52.6993 9.07451C52.6183 9.22237 52.432 9.29935 52.2499 9.21241L48.1374 6.96558C47.872 6.82064 47.7674 6.48462 47.9167 6.21198C47.9516 6.14797 47.9988 6.09148 48.0556 6.04573C48.1124 5.99999 48.1777 5.96588 48.2477 5.94537C48.3177 5.92486 48.391 5.91834 48.4635 5.9262C48.536 5.93405 48.6063 5.95611 48.6702 5.99113L49.181 6.27045C49.6087 6.5043 50.1419 6.34473 50.3736 5.92118L51.7693 3.36867C51.8225 3.27133 51.8943 3.18542 51.9807 3.11586C52.0671 3.0463 52.1663 2.99445 52.2727 2.96327C52.3792 2.9321 52.4907 2.92221 52.601 2.93417C52.7112 2.94614 52.818 2.97972 52.9153 3.033L54.5511 3.92742C54.6485 3.98056 54.7344 4.05237 54.804 4.13875C54.8735 4.22512 54.9254 4.32436 54.9566 4.43079C54.9878 4.53723 54.9977 4.64877 54.9857 4.75903C54.9738 4.86929 54.9402 4.97612 54.8869 5.07339Z" fill="#DF1F26"/>
<path d="M27.7719 14.8396V13.699C27.7719 13.2136 27.3786 12.8203 26.8932 12.8203C26.4078 12.8203 26.0145 13.2136 26.0145 13.699V14.8396C26.0145 15.325 26.4078 15.7183 26.8932 15.7183C27.3786 15.7183 27.7719 15.325 27.7719 14.8396ZM33.1061 12.8203C32.9907 12.8203 32.8764 12.843 32.7698 12.8872C32.6632 12.9313 32.5663 12.996 32.4847 13.0776C32.4031 13.1592 32.3384 13.2561 32.2942 13.3627C32.2501 13.4694 32.2274 13.5836 32.2274 13.699V14.8396C32.2274 15.325 32.6207 15.7183 33.1061 15.7183C33.5915 15.7183 33.9848 15.325 33.9848 14.8396V13.699C33.9848 13.466 33.8923 13.2425 33.7275 13.0777C33.5627 12.9129 33.3392 12.8203 33.1061 12.8203ZM29.0104 50.1066L29.0107 50.107C29.1237 50.2636 29.2723 50.3911 29.4442 50.4792C29.6161 50.5672 29.8064 50.6132 29.9995 50.6135C30.3905 50.6135 30.7602 50.4241 30.9887 50.1066L33.7853 46.2199C33.9345 46.0126 34.0148 45.7636 34.0148 45.5082C34.0147 45.2528 33.9344 45.0038 33.7852 44.7966L30.9887 40.91C30.8757 40.7533 30.7271 40.6257 30.5551 40.5376C30.3832 40.4495 30.1928 40.4034 29.9995 40.4032C29.8063 40.4034 29.6159 40.4495 29.444 40.5376C29.2721 40.6257 29.1235 40.7533 29.0104 40.91L26.2136 44.7971C26.0645 45.0044 25.9843 45.2533 25.9844 45.5087C25.9844 45.764 26.0648 46.0129 26.214 46.2201L29.0104 50.1066ZM29.9997 42.5443L32.1323 45.5083L29.9997 48.4724L27.8669 45.5083L29.9997 42.5443ZM32.3292 16.7783C32.2138 16.7783 32.0995 16.801 31.9929 16.8452C31.8863 16.8893 31.7894 16.9541 31.7078 17.0357C31.6262 17.1173 31.5615 17.2141 31.5173 17.3207C31.4732 17.4274 31.4505 17.5416 31.4505 17.657C31.4505 17.8969 30.8997 18.3373 29.9997 18.3373C29.0996 18.3373 28.5487 17.8969 28.5487 17.657C28.5487 17.1716 28.1554 16.7783 27.67 16.7783C27.1846 16.7783 26.7913 17.1716 26.7913 17.657C26.7913 19.024 28.2005 20.0947 29.9997 20.0947C31.7986 20.0947 33.2079 19.024 33.2079 17.657C33.2079 17.1716 32.8146 16.7783 32.3292 16.7783Z" fill="#DF1F26"/>
</g>
<defs>
<clipPath id="clip0_1241_12488">
<rect width="60" height="60" fill="white"/>
</clipPath>
</defs>
</svg>
