<svg width="60" height="60" viewBox="0 0 60 60" fill="none" xmlns="http://www.w3.org/2000/svg">
<g clip-path="url(#clip0_2012_25449)">
<path d="M24.3912 48.2445L20.8011 44.6545L24.3912 41.0644M35.6088 48.2445L39.1989 44.6545L35.6088 41.0644M28.3857 49.1257L31.6144 40.1833M43.5029 46.7264H53.1206M53.1206 42.5826H43.5029M9.0334 46.7264H16.3481M12.5939 42.5826H16.3481M47.2714 18.9116L55.0277 18.9152C55.998 18.9152 56.7855 19.7027 56.7844 20.673L56.7691 52.7824M3.22617 27.9492L3.22969 20.6484C3.23086 19.6781 4.01719 18.8917 4.98867 18.8917L12.8332 18.8953M3.22383 32.0507L3.22031 39.9761M3.21469 52.7582L3.21668 48.3834M19.8305 57.5753H55.6055C56.5758 57.5753 57.4547 57.1816 58.091 56.5453C58.4182 56.2194 58.6776 55.832 58.8544 55.4054C59.0312 54.9788 59.1218 54.5215 59.1211 54.0597C59.1211 53.4128 58.5961 52.8878 57.9492 52.8878H2.05078C1.72734 52.8878 1.43438 53.0191 1.22227 53.2312C1.01016 53.4433 0.878906 53.7363 0.878906 54.0597C0.878906 56.0015 2.45273 57.5753 4.39453 57.5753H15.7289M13.0984 31.7322L16.1686 29.0757M14.9467 39.5394L8.42203 47.0796C6.79008 48.9655 3.90047 49.0696 2.13703 47.3062C0.373594 45.5428 0.477773 42.653 2.36367 41.0212L10.011 34.4039M20.3637 33.2792L17.7796 36.2655M43.1754 30.1289C45.5766 27.2027 47.018 23.4585 47.018 19.3781C47.018 10.0148 39.4277 2.42456 30.0645 2.42456C20.7012 2.42456 13.1109 10.0148 13.1109 19.3781C13.1109 22.9875 14.2383 26.3332 16.1613 29.0824C17.3039 30.716 18.7277 32.1398 20.3613 33.2824C23.1105 35.2042 26.4562 36.3316 30.0645 36.3316C33.866 36.3316 37.3758 35.08 40.2035 32.9671M15.2842 39.4763L9.96691 34.1591C9.90656 34.0987 9.85868 34.0271 9.82601 33.9482C9.79334 33.8694 9.77653 33.7849 9.77653 33.6996C9.77653 33.6142 9.79334 33.5297 9.82601 33.4509C9.85868 33.372 9.90656 33.3004 9.96691 33.2401L11.6736 31.5333C11.734 31.473 11.8056 31.4251 11.8844 31.3924C11.9633 31.3598 12.0478 31.343 12.1331 31.343C12.2185 31.343 12.303 31.3598 12.3818 31.3924C12.4607 31.4251 12.5323 31.473 12.5926 31.5333L17.9099 36.8506C17.9702 36.9109 18.0181 36.9826 18.0508 37.0614C18.0835 37.1403 18.1003 37.2248 18.1003 37.3101C18.1003 37.3954 18.0835 37.48 18.0508 37.5588C18.0181 37.6376 17.9702 37.7093 17.9099 37.7696L16.2032 39.4763C16.1428 39.5367 16.0712 39.5846 15.9924 39.6172C15.9135 39.6499 15.829 39.6667 15.7437 39.6667C15.6583 39.6667 15.5738 39.6499 15.495 39.6172C15.4161 39.5846 15.3445 39.5367 15.2842 39.4763Z" stroke="#7B61FF" stroke-width="2" stroke-miterlimit="10" stroke-linecap="round" stroke-linejoin="round"/>
<path d="M24.0821 7.47185C25.8809 6.56482 27.9129 6.05505 30.0645 6.05505C37.4227 6.05505 43.3887 12.0199 43.3887 19.3781C43.3887 26.7363 37.4227 32.7023 30.0645 32.7023C22.7063 32.7023 16.7415 26.7363 16.7415 19.3781C16.7415 15.6469 18.2743 12.2754 20.7458 9.85779" stroke="#7B61FF" stroke-width="2" stroke-miterlimit="10" stroke-linecap="round" stroke-linejoin="round"/>
<path d="M32.6336 19.3783L35.8328 16.1791C36.5422 15.4698 36.5422 14.3197 35.8328 13.6104C35.1235 12.901 33.9734 12.901 33.2641 13.6104L30.0649 16.8096L26.8656 13.6104C26.1563 12.901 25.0062 12.901 24.2969 13.6104C23.5876 14.3197 23.5876 15.4698 24.2969 16.1791L27.4961 19.3783L24.2969 22.5776C23.5876 23.2869 23.5876 24.437 24.2969 25.1463C24.6515 25.5009 25.1164 25.6783 25.5813 25.6783C26.0462 25.6783 26.511 25.5009 26.8656 25.1463L30.0649 21.9471L33.2641 25.1463C33.6187 25.5009 34.0836 25.6783 34.5485 25.6783C35.0133 25.6783 35.4782 25.5009 35.8328 25.1463C36.5422 24.437 36.5422 23.2869 35.8328 22.5776L32.6336 19.3783Z" stroke="#7B61FF" stroke-width="2" stroke-miterlimit="10" stroke-linecap="round" stroke-linejoin="round"/>
</g>
<defs>
<clipPath id="clip0_2012_25449">
<rect width="60" height="60" fill="white"/>
</clipPath>
</defs>
</svg>
