<svg width="48" height="38" viewBox="0 0 48 38" fill="none" xmlns="http://www.w3.org/2000/svg">
<path d="M45.3001 0.455078H37.6451C37.4586 0.455078 37.2798 0.529157 37.1479 0.661018C37.0161 0.79288 36.942 0.971722 36.942 1.1582C36.942 1.34468 37.0161 1.52353 37.1479 1.65539C37.2798 1.78725 37.4586 1.86133 37.6451 1.86133H45.3001C46.0134 1.86133 46.5938 2.44164 46.5938 3.15498V29.9587C46.5938 30.672 46.0134 31.2523 45.3001 31.2523H28.1253C27.8544 31.2527 27.5883 31.3243 27.3537 31.4597C27.119 31.5952 26.9241 31.7899 26.7882 32.0243L24.4664 36.0458C24.4219 36.1228 24.3541 36.139 24.305 36.139C24.2559 36.139 24.1881 36.1228 24.1436 36.0459L21.8218 32.0244C21.686 31.7899 21.491 31.5953 21.2564 31.4598C21.0217 31.3244 20.7557 31.2528 20.4848 31.2524H9.07313C8.88665 31.2524 8.7078 31.3265 8.57594 31.4584C8.44408 31.5902 8.37 31.7691 8.37 31.9555C8.37 32.142 8.44408 32.3209 8.57594 32.4527C8.7078 32.5846 8.88665 32.6587 9.07313 32.6587H20.4848C20.5338 32.6587 20.5794 32.685 20.6039 32.7275L22.9257 36.749C23.2135 37.2475 23.7292 37.5453 24.3049 37.5453C24.8806 37.5453 25.3962 37.2475 25.6841 36.749L28.0059 32.7275C28.0181 32.7066 28.0354 32.6892 28.0564 32.6771C28.0773 32.6651 28.101 32.6587 28.1252 32.6587H45.2999C46.7887 32.6587 47.9998 31.4475 47.9998 29.9588V3.15498C48 1.66623 46.7888 0.455078 45.3001 0.455078ZM5.79188 31.2523H2.69991C1.98656 31.2523 1.40625 30.672 1.40625 29.9587V3.15498C1.40625 2.44164 1.98656 1.86133 2.69991 1.86133H34.3639C34.5504 1.86133 34.7292 1.78725 34.8611 1.65539C34.9929 1.52353 35.067 1.34468 35.067 1.1582C35.067 0.971722 34.9929 0.79288 34.8611 0.661018C34.7292 0.529157 34.5504 0.455078 34.3639 0.455078H2.69991C1.21116 0.455078 0 1.66623 0 3.15498V29.9587C0 31.4474 1.21116 32.6586 2.69991 32.6586H5.79188C5.97836 32.6586 6.1572 32.5845 6.28906 32.4526C6.42092 32.3208 6.495 32.1419 6.495 31.9555C6.495 31.769 6.42092 31.5901 6.28906 31.4583C6.1572 31.3264 5.97836 31.2523 5.79188 31.2523Z" fill="#DF1F26"/>
<path d="M4.76172 19.6888C4.76172 19.8753 4.8358 20.0541 4.96766 20.186C5.09952 20.3179 5.27836 20.3919 5.46484 20.3919H31.641C31.8274 20.3919 32.0063 20.3179 32.1382 20.186C32.27 20.0541 32.3441 19.8753 32.3441 19.6888C32.3441 19.5023 32.27 19.3235 32.1382 19.1916C32.0063 19.0598 31.8274 18.9857 31.641 18.9857H5.46484C5.27836 18.9857 5.09952 19.0598 4.96766 19.1916C4.8358 19.3235 4.76172 19.5023 4.76172 19.6888ZM42.5345 18.9857H34.8322C34.6457 18.9857 34.4669 19.0598 34.335 19.1916C34.2032 19.3235 34.1291 19.5023 34.1291 19.6888C34.1291 19.8753 34.2032 20.0541 34.335 20.186C34.4669 20.3179 34.6457 20.3919 34.8322 20.3919H42.5345C42.721 20.3919 42.8999 20.3179 43.0317 20.186C43.1636 20.0541 43.2377 19.8753 43.2377 19.6888C43.2377 19.5023 43.1636 19.3235 43.0317 19.1916C42.8999 19.0598 42.721 18.9857 42.5345 18.9857ZM42.5345 25.8219H5.46484C5.27836 25.8219 5.09952 25.896 4.96766 26.0279C4.8358 26.1597 4.76172 26.3386 4.76172 26.5251C4.76172 26.7115 4.8358 26.8904 4.96766 27.0223C5.09952 27.1541 5.27836 27.2282 5.46484 27.2282H42.5345C42.721 27.2282 42.8999 27.1541 43.0317 27.0223C43.1636 26.8904 43.2377 26.7115 43.2377 26.5251C43.2377 26.3386 43.1636 26.1597 43.0317 26.0279C42.8999 25.896 42.721 25.8219 42.5345 25.8219ZM42.5345 22.4038H5.46484C5.27836 22.4038 5.09952 22.4779 4.96766 22.6098C4.8358 22.7416 4.76172 22.9205 4.76172 23.1069C4.76172 23.2934 4.8358 23.4723 4.96766 23.6041C5.09952 23.736 5.27836 23.8101 5.46484 23.8101H42.5345C42.721 23.8101 42.8999 23.736 43.0317 23.6041C43.1636 23.4723 43.2377 23.2934 43.2377 23.1069C43.2377 22.9205 43.1636 22.7416 43.0317 22.6098C42.8999 22.4779 42.721 22.4038 42.5345 22.4038ZM30.4956 7.80638C30.4268 7.59427 30.3071 7.40223 30.147 7.24701C29.9869 7.09178 29.7913 6.97809 29.5772 6.91585L26.7733 6.09957L25.1305 3.68523C24.8756 3.31051 24.4529 3.08691 23.9997 3.08691C23.5465 3.08691 23.1238 3.3106 22.8689 3.68523L21.2261 6.09966L18.4222 6.91595C17.9871 7.0426 17.6438 7.37551 17.5037 7.80657C17.3637 8.23763 17.4458 8.70873 17.7234 9.06685L19.512 11.3753L19.4219 14.2943C19.4079 14.7473 19.6185 15.1766 19.985 15.443C20.3516 15.7093 20.825 15.7768 21.2515 15.6236L23.9997 14.6357L26.7479 15.6234C26.9577 15.699 27.1828 15.722 27.4036 15.6905C27.6244 15.659 27.8341 15.574 28.0144 15.4428C28.1949 15.3118 28.3406 15.1386 28.4387 14.9384C28.5369 14.7382 28.5846 14.517 28.5776 14.2941L28.4875 11.3751L30.2762 9.06666C30.4128 8.89043 30.5042 8.68345 30.5424 8.46378C30.5807 8.24411 30.5646 8.01842 30.4956 7.80638ZM27.3671 10.525C27.1728 10.7764 27.0718 11.0873 27.0813 11.4048L27.1701 14.2809L24.4621 13.3076C24.163 13.2005 23.8361 13.2005 23.537 13.3076L20.8291 14.2809L20.9178 11.4048C20.9273 11.0872 20.8263 10.7762 20.632 10.5249L18.8696 8.25029L21.6323 7.44601C21.9373 7.357 22.2019 7.16475 22.3808 6.90216L23.9997 4.52307L25.6184 6.90198C25.7973 7.16458 26.0619 7.35684 26.367 7.44582L29.1298 8.2502L27.3671 10.525ZM16.0704 10.0147C16.0122 9.83515 15.9109 9.67262 15.7754 9.54125C15.6399 9.40988 15.4743 9.31367 15.2931 9.26101L13.4533 8.72541L12.3753 7.14132C12.2693 6.98523 12.1266 6.85748 11.9598 6.7692C11.793 6.68093 11.6071 6.63481 11.4183 6.63488C11.0349 6.63488 10.6772 6.82426 10.4614 7.14123L9.3835 8.72541L7.54366 9.26101C7.36246 9.31371 7.1969 9.40994 7.06142 9.54131C6.92594 9.67267 6.82465 9.83518 6.76638 10.0147C6.70801 10.1941 6.69442 10.3851 6.72681 10.571C6.7592 10.7569 6.83657 10.932 6.95219 11.0812L8.12584 12.5959L8.06669 14.5112C8.0608 14.6998 8.10114 14.887 8.1842 15.0564C8.26726 15.2259 8.39052 15.3724 8.54322 15.4833C8.69582 15.5943 8.87326 15.6662 9.06006 15.6929C9.24686 15.7195 9.43734 15.7 9.61487 15.6361L11.4182 14.988L13.2214 15.6361C13.399 15.7 13.5895 15.7195 13.7763 15.6928C13.9631 15.6662 14.1406 15.5943 14.2933 15.4834C14.446 15.3725 14.5692 15.2259 14.6522 15.0565C14.7353 14.887 14.7756 14.6998 14.7697 14.5112L14.7106 12.5959L15.8842 11.0812C16 10.9321 16.0775 10.757 16.1099 10.5711C16.1424 10.3852 16.1288 10.1941 16.0704 10.0147ZM13.5445 11.8053C13.38 12.0179 13.2945 12.2811 13.3026 12.5499L13.3532 14.189L11.81 13.6343C11.5569 13.5436 11.2802 13.5436 11.027 13.6343L9.48381 14.189L9.53444 12.5501C9.54258 12.2813 9.45704 12.018 9.29247 11.8052L8.28813 10.5089L9.86247 10.0506C10.1206 9.97526 10.3446 9.81258 10.496 9.59035L11.4185 8.23454L12.341 9.59035C12.4925 9.8125 12.7163 9.97514 12.9744 10.0505L14.5488 10.5088L13.5445 11.8053ZM32.7062 9.26101C32.525 9.31371 32.3594 9.40994 32.2239 9.54131C32.0884 9.67267 31.9871 9.83518 31.9289 10.0147C31.8705 10.1941 31.8569 10.3851 31.8893 10.571C31.9217 10.7569 31.9991 10.932 32.1147 11.0812L33.2883 12.5959L33.2292 14.5112C33.2233 14.6998 33.2636 14.887 33.3467 15.0564C33.4298 15.2259 33.553 15.3724 33.7057 15.4833C33.8583 15.5943 34.0358 15.6662 34.2226 15.6929C34.4094 15.7195 34.5998 15.7 34.7774 15.6361L36.5807 14.988L38.3839 15.6361C38.5615 15.7 38.752 15.7195 38.9388 15.6928C39.1256 15.6662 39.3031 15.5943 39.4558 15.4834C39.6085 15.3725 39.7317 15.2259 39.8147 15.0565C39.8978 14.887 39.9381 14.6998 39.9322 14.5112L39.8731 12.5959L41.0467 11.0812C41.2816 10.7781 41.351 10.3794 41.2325 10.0147C41.114 9.64998 40.8235 9.36816 40.4552 9.26101L38.6154 8.72541L37.5375 7.14132C37.4314 6.98525 37.2887 6.85751 37.1219 6.76923C36.9551 6.68096 36.7693 6.63483 36.5806 6.63488C36.1971 6.63488 35.8394 6.82426 35.6237 7.14123L34.5457 8.72541L32.7062 9.26101ZM35.6583 9.59045L36.5808 8.23463L37.5033 9.59045C37.6548 9.81259 37.8786 9.97523 38.1367 10.0506L39.7112 10.5089L38.7067 11.8053C38.5423 12.018 38.4568 12.2811 38.4648 12.5499L38.5155 14.189L36.9722 13.6343C36.7191 13.5436 36.4424 13.5436 36.1892 13.6343L34.646 14.189L34.6967 12.5501C34.7048 12.2813 34.6193 12.018 34.4547 11.8052L33.4503 10.5089L35.0248 10.0506C35.2829 9.97528 35.5069 9.81263 35.6583 9.59045Z" fill="#DF1F26"/>
</svg>
