<svg width="144" height="13" viewBox="0 0 144 13" fill="none" xmlns="http://www.w3.org/2000/svg">
<path d="M73.6744 0C74.1076 0 74.4586 0.32335 74.4586 0.722222V12.2778C74.4586 12.6766 74.1076 13 73.6744 13H72.5934C72.1603 13 71.8092 12.6766 71.8092 12.2778V5.52299C71.8092 5.35049 71.8122 5.16312 71.8181 4.96088C71.8251 4.8424 71.6393 4.79613 71.5841 4.90334L68.4308 11.0281C68.3241 11.2363 68.1789 11.394 67.9951 11.501C67.8173 11.6081 67.6128 11.6616 67.3817 11.6616H66.9727C66.7415 11.6616 66.5341 11.6081 66.3504 11.501C66.1725 11.394 66.0303 11.2363 65.9236 11.0281L62.7776 4.90128C62.7172 4.78363 62.52 4.83091 62.5274 4.96088C62.5392 5.16312 62.5451 5.35049 62.5451 5.52299V12.2778C62.5451 12.6766 62.194 13 61.7609 13H60.6799C60.2468 13 59.8957 12.6766 59.8957 12.2778V0.722223C59.8957 0.32335 60.2468 0 60.6799 0H62.1895C62.3199 0 62.4325 0.00297393 62.5274 0.0089218C62.6281 0.0148704 62.717 0.0327154 62.7941 0.0624568C62.8711 0.0921983 62.9393 0.139785 62.9986 0.205216C63.0638 0.264699 63.126 0.350949 63.1853 0.463966L66.5193 7.05765C66.6378 7.28369 66.7504 7.51864 66.8571 7.76252C66.9723 8.01197 67.3754 8.00972 67.4829 7.7574C67.4847 7.75316 67.4865 7.74892 67.4884 7.74468C67.601 7.49485 67.7195 7.25692 67.844 7.03088L71.1691 0.463966C71.2284 0.350949 71.2876 0.264699 71.3469 0.205216C71.4121 0.139785 71.4832 0.0921983 71.5603 0.0624568C71.6373 0.0327154 71.7233 0.0148704 71.8181 0.0089218C71.9189 0.00297393 72.0345 0 72.1649 0H73.6744Z" fill="url(#paint0_linear_4116_26372)"/>
<path d="M96.7592 6.11187C97.1666 6.11187 97.5119 6.06131 97.7952 5.96019C98.0845 5.85312 98.3206 5.70739 98.5036 5.52299C98.6866 5.33859 98.8194 5.12446 98.9021 4.88058C98.9847 4.63075 99.026 4.36307 99.026 4.07756C99.026 3.50652 98.8401 3.0604 98.4682 2.73919C98.1022 2.41798 97.5326 2.25738 96.7592 2.25738H96.3392C95.9061 2.25738 95.555 2.58073 95.555 2.9796V5.38965C95.555 5.78852 95.9061 6.11187 96.3392 6.11187H96.7592ZM102.465 11.9255C102.757 12.4069 102.379 13 101.78 13H100.407C99.9056 13 99.5455 12.8097 99.3271 12.429L97.1843 8.65477C97.0839 8.49417 96.9718 8.37817 96.8478 8.30679C96.7238 8.22947 96.5467 8.1908 96.3165 8.1908C95.8959 8.1908 95.555 8.50479 95.555 8.89212V12.2778C95.555 12.6766 95.2039 13 94.7708 13H93.3463C92.9132 13 92.5621 12.6766 92.5621 12.2778V0.722223C92.5621 0.32335 92.9132 0 93.3463 0H96.7592C97.6919 0 98.4859 0.0981468 99.1412 0.294441C99.8023 0.484786 100.339 0.752459 100.753 1.09746C101.172 1.44246 101.476 1.84992 101.665 2.31983C101.854 2.78975 101.948 3.3013 101.948 3.85449C101.948 4.27682 101.892 4.67536 101.78 5.0501C101.668 5.42484 101.502 5.77282 101.284 6.09403C101.066 6.40929 100.794 6.69183 100.469 6.94166C100.317 7.06103 100.153 7.17022 99.9781 7.26922C99.7387 7.40447 99.711 7.75985 99.9115 7.94097C100.083 8.08968 100.236 8.26813 100.372 8.47632L102.465 11.9255Z" fill="url(#paint1_linear_4116_26372)"/>
<path d="M125.633 2.31983C125.199 2.31983 124.848 2.64318 124.848 3.04206V4.63124C124.848 5.03011 125.199 5.35347 125.633 5.35347H128.141C128.574 5.35347 128.926 5.67681 128.926 6.07569V6.86185C128.926 7.26073 128.574 7.58408 128.141 7.58408H125.633C125.199 7.58408 124.848 7.90743 124.848 8.3063V9.95794C124.848 10.3568 125.199 10.6802 125.633 10.6802H129.388C129.821 10.6802 130.172 11.0035 130.172 11.4024V12.2778C130.172 12.6766 129.821 13 129.388 13H122.606C122.173 13 121.822 12.6766 121.822 12.2778V0.722223C121.822 0.32335 122.173 0 122.606 0H129.388C129.821 0 130.172 0.32335 130.172 0.722222V1.59761C130.172 1.99649 129.821 2.31983 129.388 2.31983H125.633Z" fill="url(#paint2_linear_4116_26372)"/>
<path d="M141.142 2.39121H143.216C143.649 2.39121 144 2.06787 144 1.66899V0.722222C144 0.32335 143.649 0 143.216 0H134.497C134.064 0 133.712 0.32335 133.712 0.722222V1.66899C133.712 2.06786 134.064 2.39121 134.497 2.39121H136.571C137.004 2.39121 137.355 2.71456 137.355 3.11344V12.2778C137.355 12.6766 137.706 13 138.139 13H139.573C140.006 13 140.358 12.6766 140.358 12.2778V3.11344C140.358 2.71456 140.709 2.39121 141.142 2.39121Z" fill="url(#paint3_linear_4116_26372)"/>
<path d="M80.6349 12.4865L82.056 8.15179L82.8987 5.57209C83.1222 4.88762 84.174 4.88615 84.3999 5.56998L85.6571 9.37889C85.81 9.84277 85.4331 10.3109 84.9067 10.3109H83.6972C83.3553 10.3109 83.0529 10.5147 82.9497 10.8149L82.4564 12.25C82.3642 12.5 82.3133 13 82.8477 13H88.6532C89.4524 13 89.4067 12.3333 89.284 12L85.0462 0.489188C84.9383 0.196078 84.64 0 84.304 0H82.988C82.6515 0 82.3524 0.197764 82.2449 0.491461L78.0141 12.047C77.8427 12.5151 78.2208 13 78.7572 13H79.8841C80.2299 13 80.5349 12.7914 80.6349 12.4865Z" fill="url(#paint4_linear_4116_26372)"/>
<path d="M56.8896 11.9278C56.8896 12.52 56.4111 13 55.8208 13C55.2305 13 54.7519 12.52 54.7519 11.9278C54.7519 11.3357 55.2305 10.8557 55.8208 10.8557C56.4111 10.8557 56.8896 11.3357 56.8896 11.9278Z" fill="url(#paint5_linear_4116_26372)"/>
<path d="M53.1487 6.78676C53.1487 8.03231 52.9242 9.12433 52.4752 10.0628C52.0262 11.0013 51.3823 11.7255 50.5434 12.2353C49.7105 12.7451 48.7534 13 47.6723 13C46.6031 13 45.649 12.748 44.8101 12.244C43.9713 11.74 43.3214 11.0216 42.8606 10.0889C42.3998 9.1504 42.1665 8.07286 42.1606 6.85628V6.23062C42.1606 4.98507 42.388 3.89015 42.8429 2.94586C43.3037 1.99577 43.9506 1.26872 44.7835 0.764706C45.6224 0.254902 46.5794 0 47.6546 0C48.7298 0 49.6839 0.254902 50.5168 0.764706C51.3557 1.26872 52.0026 1.99577 52.4575 2.94586C52.9183 3.89015 53.1487 4.98217 53.1487 6.22192V6.78676ZM50.4548 6.21323C50.4548 4.88659 50.2126 3.87856 49.7282 3.18917C49.2438 2.49978 48.5526 2.15508 47.6546 2.15508C46.7626 2.15508 46.0744 2.49688 45.5899 3.18048C45.1055 3.85829 44.8603 4.85472 44.8544 6.16979V6.78676C44.8544 8.07865 45.0967 9.08088 45.5811 9.79345C46.0655 10.506 46.7626 10.8623 47.6723 10.8623C48.5644 10.8623 49.2497 10.5205 49.7282 9.8369C50.2067 9.1475 50.4489 8.14528 50.4548 6.83021V6.21323Z" fill="url(#paint6_linear_4116_26372)"/>
<path d="M33.4493 8.6183C33.1743 8.20424 32.5431 8.15278 32.1935 8.51593L31.6498 9.08065C31.5226 9.21276 31.4524 9.38321 31.4524 9.55978V12.2778C31.4524 12.6766 31.1013 13 30.6682 13H29.4595C29.0264 13 28.6753 12.6766 28.6753 12.2778V0.722223C28.6753 0.32335 29.0264 0 29.4595 0H30.6682C31.1013 0 31.4524 0.32335 31.4524 0.722222V3.92357C31.4524 4.52868 32.2988 4.77336 32.6743 4.27679L35.8735 0.292781C36.0214 0.108635 36.2553 0 36.504 0H37.9397C38.5889 0 38.957 0.684976 38.5632 1.16031L35.0684 5.3787C34.87 5.61813 34.8538 5.94579 35.0277 6.20085L38.9091 11.8937C39.237 12.3747 38.8616 13 38.2449 13H36.7982C36.5251 13 36.2717 12.8691 36.1292 12.6546L33.4493 8.6183Z" fill="url(#paint7_linear_4116_26372)"/>
<path d="M111.765 8.6183C111.491 8.20424 110.859 8.15278 110.51 8.51593L109.966 9.08065C109.839 9.21276 109.769 9.38321 109.769 9.55978V12.2778C109.769 12.6766 109.417 13 108.984 13H107.776C107.343 13 106.991 12.6766 106.991 12.2778V0.722223C106.991 0.32335 107.343 0 107.776 0H108.984C109.417 0 109.769 0.32335 109.769 0.722222V3.92357C109.769 4.52868 110.615 4.77336 110.99 4.27679L114.19 0.292781C114.338 0.108635 114.572 0 114.82 0H116.256C116.905 0 117.273 0.684976 116.879 1.16031L113.385 5.3787C113.186 5.61813 113.17 5.94579 113.344 6.20085L117.225 11.8937C117.553 12.3747 117.178 13 116.561 13H115.114C114.841 13 114.588 12.8691 114.445 12.6546L111.765 8.6183Z" fill="url(#paint8_linear_4116_26372)"/>
<path d="M16.6612 12.4865L18.0824 8.15179L18.925 5.57209C19.1486 4.88762 20.2004 4.88615 20.4262 5.56998L21.6834 9.37889C21.8363 9.84277 21.4594 10.3109 20.933 10.3109H19.7235C19.3816 10.3109 19.0792 10.5147 18.976 10.8149L18.4828 12.25C18.3905 12.5 18.3396 13 18.874 13H24.6796C25.4787 13 25.4331 12.3333 25.3103 12L21.0726 0.489188C20.9647 0.196078 20.6664 0 20.3303 0H19.0143C18.6778 0 18.3788 0.197764 18.2712 0.491461L14.0404 12.047C13.869 12.5151 14.2471 13 14.7835 13H15.9105C16.2563 13 16.5613 12.7914 16.6612 12.4865Z" fill="url(#paint9_linear_4116_26372)"/>
<path d="M4.93368 7.29594C5.14709 7.9991 6.22923 7.99989 6.44385 7.29704L8.51124 0.5267C8.60635 0.215212 8.91482 0 9.26616 0H10.6143C11.1471 0 11.5248 0.478771 11.3601 0.945413L7.28305 12.501C7.17806 12.7985 6.87696 13 6.53723 13H4.84578C4.50571 13 4.2044 12.7981 4.09968 12.5002L0.038681 0.944616C-0.125256 0.478133 0.252393 0 0.784779 0H2.12423C2.47603 0 2.78478 0.215765 2.87948 0.527799L4.93368 7.29594Z" fill="url(#paint10_linear_4116_26372)"/>
<defs>
<linearGradient id="paint0_linear_4116_26372" x1="-0.294076" y1="6.5" x2="143.999" y2="6.5" gradientUnits="userSpaceOnUse">
<stop/>
<stop offset="1" stop-color="#5442AD"/>
</linearGradient>
<linearGradient id="paint1_linear_4116_26372" x1="-0.294076" y1="6.5" x2="143.999" y2="6.5" gradientUnits="userSpaceOnUse">
<stop/>
<stop offset="1" stop-color="#5442AD"/>
</linearGradient>
<linearGradient id="paint2_linear_4116_26372" x1="-0.294076" y1="6.5" x2="143.999" y2="6.5" gradientUnits="userSpaceOnUse">
<stop/>
<stop offset="1" stop-color="#5442AD"/>
</linearGradient>
<linearGradient id="paint3_linear_4116_26372" x1="-0.294076" y1="6.5" x2="143.999" y2="6.5" gradientUnits="userSpaceOnUse">
<stop/>
<stop offset="1" stop-color="#5442AD"/>
</linearGradient>
<linearGradient id="paint4_linear_4116_26372" x1="-0.294076" y1="6.5" x2="143.999" y2="6.5" gradientUnits="userSpaceOnUse">
<stop/>
<stop offset="1" stop-color="#5442AD"/>
</linearGradient>
<linearGradient id="paint5_linear_4116_26372" x1="-0.294076" y1="6.5" x2="143.999" y2="6.5" gradientUnits="userSpaceOnUse">
<stop/>
<stop offset="1" stop-color="#5442AD"/>
</linearGradient>
<linearGradient id="paint6_linear_4116_26372" x1="-0.294076" y1="6.5" x2="143.999" y2="6.5" gradientUnits="userSpaceOnUse">
<stop/>
<stop offset="1" stop-color="#5442AD"/>
</linearGradient>
<linearGradient id="paint7_linear_4116_26372" x1="-0.294076" y1="6.5" x2="143.999" y2="6.5" gradientUnits="userSpaceOnUse">
<stop/>
<stop offset="1" stop-color="#5442AD"/>
</linearGradient>
<linearGradient id="paint8_linear_4116_26372" x1="-0.294076" y1="6.5" x2="143.999" y2="6.5" gradientUnits="userSpaceOnUse">
<stop/>
<stop offset="1" stop-color="#5442AD"/>
</linearGradient>
<linearGradient id="paint9_linear_4116_26372" x1="-0.294076" y1="6.5" x2="143.999" y2="6.5" gradientUnits="userSpaceOnUse">
<stop/>
<stop offset="1" stop-color="#5442AD"/>
</linearGradient>
<linearGradient id="paint10_linear_4116_26372" x1="-0.294076" y1="6.5" x2="143.999" y2="6.5" gradientUnits="userSpaceOnUse">
<stop/>
<stop offset="1" stop-color="#5442AD"/>
</linearGradient>
</defs>
</svg>
