<svg width="108" height="40" viewBox="0 0 108 40" fill="none" xmlns="http://www.w3.org/2000/svg">
<g clip-path="url(#clip0_4902_16012)">
<path d="M28 38.5C28 37.6716 28.6716 37 29.5 37H50.5C51.3284 37 52 37.6716 52 38.5C52 39.3284 51.3284 40 50.5 40H29.5C28.6716 40 28 39.3284 28 38.5Z" fill="#493A6C"/>
<path d="M56 38.5C56 37.6716 56.6716 37 57.5 37H78.5C79.3284 37 80 37.6716 80 38.5C80 39.3284 79.3284 40 78.5 40H57.5C56.6716 40 56 39.3284 56 38.5Z" fill="#493A6C"/>
<path d="M84 38.5C84 37.6716 84.6716 37 85.5 37H106.5C107.328 37 108 37.6716 108 38.5C108 39.3284 107.328 40 106.5 40H85.5C84.6716 40 84 39.3284 84 38.5Z" fill="#493A6C"/>
<rect y="37" width="24" height="3" rx="1.5" fill="#DF1F26"/>
<path d="M107 13.5735C107 16.0646 106.551 18.2487 105.652 20.1257C104.753 22.0027 103.463 23.451 101.784 24.4706C100.116 25.4902 98.2 26 96.0355 26C93.8946 26 91.9844 25.496 90.3048 24.488C88.6253 23.4799 87.3242 22.0432 86.4016 20.1778C85.479 18.3008 85.0118 16.1457 85 13.7126V12.4612C85 9.97014 85.4554 7.7803 86.3661 5.89171C87.2887 3.99153 88.5839 2.53743 90.2516 1.52941C91.9312 0.509804 93.8473 0 96 0C98.1527 0 100.063 0.509804 101.731 1.52941C103.41 2.53743 104.705 3.99153 105.616 5.89171C106.539 7.7803 107 9.96435 107 12.4438V13.5735ZM101.606 12.4265C101.606 9.77317 101.122 7.75713 100.152 6.37834C99.1817 4.99955 97.7978 4.31016 96 4.31016C94.214 4.31016 92.836 4.99376 91.8661 6.36096C90.8962 7.71658 90.4054 9.70945 90.3935 12.3396V13.5735C90.3935 16.1573 90.8785 18.1618 91.8484 19.5869C92.8183 21.012 94.214 21.7246 96.0355 21.7246C97.8215 21.7246 99.1936 21.041 100.152 19.6738C101.11 18.295 101.595 16.2906 101.606 13.6604V12.4265Z" fill="white"/>
<path d="M67.1406 16.6081C66.7868 16.0758 66.0313 16.0075 65.5878 16.4677L63.8402 18.2809C63.6606 18.4673 63.5602 18.716 63.5602 18.9749V25C63.5602 25.5523 63.1125 26 62.5602 26H59C58.4477 26 58 25.5523 58 25V1C58 0.447716 58.4477 0 59 0H62.5602C63.1125 0 63.5602 0.447715 63.5602 1V8.80767C63.5602 9.76644 64.7789 10.1757 65.3576 9.4112L66.0067 8.55357L72.5827 0.373456C72.7725 0.137339 73.0591 0 73.3621 0H77.5935C78.4402 0 78.9037 0.986627 78.3632 1.63838L70.6208 10.9737C70.336 11.317 70.3131 11.8074 70.5646 12.1758L78.9327 24.4363C79.3857 25.1 78.9104 26 78.1067 26H73.9194C73.5845 26 73.2719 25.8324 73.0866 25.5536L67.1406 16.6081Z" fill="white"/>
<path d="M33.8346 25.3118L36.7912 16.3036L39.0284 9.46211C39.3284 8.54476 40.6253 8.54264 40.9283 9.45901L43.1912 16.3036L44.1829 19.3085C44.3964 19.9554 43.9146 20.6218 43.2333 20.6218H39.6407C39.2138 20.6218 38.8343 20.8919 38.6954 21.2956L37.5929 24.5C37.4082 25 37.3063 26 38.3762 26H46.3912H47.2111H50C51.6 26 51.5086 24.6667 51.2629 24L42.6575 0.650837C42.5126 0.257766 42.1393 0 41.7204 0H38.2282C37.8086 0 37.4337 0.261918 37.2893 0.655862L28.4927 24.6559C28.2535 25.3085 28.7365 26 29.4316 26H32.8845C33.3166 26 33.6999 25.7224 33.8346 25.3118Z" fill="white"/>
<path d="M11.0189 16.4141C11.306 17.3589 12.6434 17.3601 12.9321 16.4157L17.7339 0.707662C17.8624 0.287189 18.2505 0 18.6902 0H22.5862C23.2763 0 23.759 0.682383 23.5292 1.33304L15.0522 25.333C14.911 25.7327 14.5332 26 14.1093 26H9.85544C9.43109 26 9.05295 25.7322 8.91211 25.3319L0.468572 1.33187C0.239734 0.681423 0.722365 0 1.4119 0H5.2904C5.7307 0 6.1192 0.287994 6.24721 0.709284L11.0189 16.4141Z" fill="white"/>
</g>
<defs>
<clipPath id="clip0_4902_16012">
<rect width="108" height="40" fill="white"/>
</clipPath>
</defs>
</svg>
