<svg width="148" height="14" viewBox="0 0 148 14" fill="none" xmlns="http://www.w3.org/2000/svg">
<g clip-path="url(#clip0_4116_26371)">
<path d="M75.721 0C76.1661 0 76.5269 0.348223 76.5269 0.777778V13.2222C76.5269 13.6518 76.1661 14 75.721 14H74.6099C74.1648 14 73.8039 13.6518 73.8039 13.2222V5.94784C73.8039 5.76207 73.807 5.56028 73.8131 5.34248C73.8202 5.21489 73.6293 5.16506 73.5726 5.28052L70.3316 11.8765C70.222 12.1007 70.0727 12.2704 69.8839 12.3857C69.7011 12.501 69.491 12.5587 69.2534 12.5587H68.8331C68.5955 12.5587 68.3823 12.501 68.1934 12.3857C68.0107 12.2704 67.8645 12.1007 67.7548 11.8765L64.5214 5.2783C64.4593 5.1516 64.2566 5.20252 64.2642 5.34248C64.2764 5.56028 64.2825 5.76207 64.2825 5.94784V13.2222C64.2825 13.6518 63.9217 14 63.4765 14H62.3655C61.9203 14 61.5595 13.6518 61.5595 13.2222V0.777778C61.5595 0.348223 61.9203 0 62.3655 0H63.917C64.051 0 64.1668 0.00320269 64.2642 0.00960809C64.3678 0.0160142 64.4592 0.0352319 64.5384 0.0672612C64.6176 0.0992904 64.6876 0.150537 64.7485 0.221002C64.8155 0.285061 64.8795 0.377945 64.9404 0.499656L68.367 7.60055C68.4889 7.84397 68.6046 8.097 68.7143 8.35964C68.8327 8.62828 69.2469 8.62585 69.3575 8.35413C69.3593 8.34956 69.3612 8.34499 69.363 8.34042C69.4788 8.07138 69.6006 7.81514 69.7285 7.57172L73.146 0.499656C73.2069 0.377945 73.2679 0.285061 73.3288 0.221002C73.3958 0.150537 73.4689 0.0992904 73.5481 0.0672612C73.6273 0.0352319 73.7156 0.0160142 73.8131 0.00960809C73.9166 0.00320269 74.0354 0 74.1694 0H75.721Z" fill="url(#paint0_linear_4116_26371)"/>
<path d="M99.447 6.58202C99.8656 6.58202 100.221 6.52757 100.512 6.41867C100.809 6.30336 101.052 6.14642 101.24 5.94784C101.428 5.74926 101.564 5.51865 101.649 5.256C101.734 4.98696 101.777 4.6987 101.777 4.39122C101.777 3.77625 101.586 3.29581 101.203 2.9499C100.827 2.60398 100.242 2.43102 99.447 2.43102H99.0153C98.5702 2.43102 98.2093 2.77924 98.2093 3.2088V5.80424C98.2093 6.23379 98.5702 6.58202 99.0153 6.58202H99.447ZM105.311 12.8428C105.611 13.3612 105.223 14 104.608 14H103.196C102.681 14 102.311 13.795 102.086 13.385L99.8838 9.32052C99.7807 9.14756 99.6654 9.02265 99.538 8.94578C99.4106 8.8625 99.2286 8.82086 98.992 8.82086C98.5597 8.82086 98.2093 9.15901 98.2093 9.57613V13.2222C98.2093 13.6518 97.8485 14 97.4033 14H95.9393C95.4941 14 95.1333 13.6518 95.1333 13.2222V0.777778C95.1333 0.348223 95.4941 0 95.9393 0H99.447C100.406 0 101.222 0.105697 101.895 0.31709C102.575 0.522077 103.127 0.81034 103.551 1.18188C103.982 1.55342 104.295 1.99222 104.489 2.49828C104.683 3.00435 104.78 3.55525 104.78 4.15099C104.78 4.60581 104.722 5.035 104.607 5.43857C104.492 5.84214 104.322 6.21688 104.097 6.5628C103.873 6.90231 103.594 7.20659 103.26 7.47563C103.104 7.60419 102.935 7.72177 102.755 7.82839C102.509 7.97405 102.481 8.35676 102.687 8.55182C102.863 8.71196 103.021 8.90414 103.16 9.12835L105.311 12.8428Z" fill="url(#paint1_linear_4116_26371)"/>
<path d="M129.122 2.49828C128.677 2.49828 128.316 2.84651 128.316 3.27606V4.98749C128.316 5.41705 128.677 5.76527 129.122 5.76527H131.701C132.146 5.76527 132.507 6.11349 132.507 6.54305V7.38969C132.507 7.81924 132.146 8.16747 131.701 8.16747H129.122C128.677 8.16747 128.316 8.51569 128.316 8.94524V10.7239C128.316 11.1535 128.677 11.5017 129.122 11.5017H132.982C133.427 11.5017 133.788 11.8499 133.788 12.2795V13.2222C133.788 13.6518 133.427 14 132.982 14H126.012C125.566 14 125.206 13.6518 125.206 13.2222V0.777778C125.206 0.348223 125.566 0 126.012 0H132.982C133.427 0 133.788 0.348223 133.788 0.777778V1.72051C133.788 2.15006 133.427 2.49828 132.982 2.49828H129.122Z" fill="url(#paint2_linear_4116_26371)"/>
<path d="M145.062 2.57515H147.194C147.639 2.57515 148 2.22693 148 1.79738V0.777778C148 0.348223 147.639 0 147.194 0H138.233C137.788 0 137.427 0.348223 137.427 0.777778V1.79738C137.427 2.22693 137.788 2.57515 138.233 2.57515H140.364C140.809 2.57515 141.17 2.92338 141.17 3.35293V13.2222C141.17 13.6518 141.531 14 141.976 14H143.45C143.896 14 144.256 13.6518 144.256 13.2222V3.35293C144.256 2.92338 144.617 2.57515 145.062 2.57515Z" fill="url(#paint3_linear_4116_26371)"/>
<path d="M82.8747 13.447L84.3353 8.77885L85.2014 6.00071C85.4312 5.26359 86.5122 5.262 86.7443 5.99844L88.0364 10.1003C88.1936 10.5999 87.8062 11.1041 87.2652 11.1041H86.0221C85.6707 11.1041 85.3599 11.3235 85.2538 11.6468L84.7469 13.1923C84.6521 13.4615 84.5997 14 85.149 14H91.1158C91.9372 14 91.8902 13.2821 91.7641 12.9231L87.4086 0.526818C87.2977 0.211161 86.9912 0 86.6458 0H85.2932C84.9473 0 84.64 0.212976 84.5295 0.529266L80.1811 12.9737C80.005 13.4778 80.3936 14 80.9449 14H82.1031C82.4585 14 82.772 13.7754 82.8747 13.447Z" fill="url(#paint4_linear_4116_26371)"/>
<path d="M58.4699 12.8454C58.4699 13.483 57.978 14 57.3713 14C56.7646 14 56.2728 13.483 56.2728 12.8454C56.2728 12.2077 56.7646 11.6907 57.3713 11.6907C57.978 11.6907 58.4699 12.2077 58.4699 12.8454Z" fill="url(#paint5_linear_4116_26371)"/>
<path d="M54.625 7.30882C54.625 8.65018 54.3943 9.8262 53.9328 10.8369C53.4714 11.8476 52.8096 12.6275 51.9474 13.1765C51.0913 13.7255 50.1077 14 48.9966 14C47.8976 14 46.917 13.7286 46.0549 13.1858C45.1927 12.643 44.5248 11.8694 44.0512 10.865C43.5776 9.85428 43.3378 8.69385 43.3317 7.38369V6.70989C43.3317 5.36854 43.5655 4.18939 44.033 3.17246C44.5066 2.14929 45.1714 1.36631 46.0275 0.823529C46.8897 0.27451 47.8733 0 48.9784 0C50.0834 0 51.064 0.27451 51.9201 0.823529C52.7823 1.36631 53.4471 2.14929 53.9146 3.17246C54.3882 4.18939 54.625 5.36542 54.625 6.70053V7.30882ZM51.8563 6.69118C51.8563 5.26248 51.6074 4.17692 51.1095 3.43449C50.6116 2.69207 49.9013 2.32086 48.9784 2.32086C48.0615 2.32086 47.3542 2.68895 46.8563 3.42513C46.3584 4.15508 46.1065 5.22816 46.1004 6.64439V7.30882C46.1004 8.70009 46.3493 9.77941 46.8472 10.5468C47.3451 11.3142 48.0615 11.6979 48.9966 11.6979C49.9134 11.6979 50.6177 11.3298 51.1095 10.5936C51.6013 9.85116 51.8503 8.77184 51.8563 7.35561V6.69118Z" fill="url(#paint6_linear_4116_26371)"/>
<path d="M34.3784 9.28124C34.0958 8.83533 33.447 8.77992 33.0877 9.171L32.5289 9.77916C32.3982 9.92144 32.326 10.105 32.326 10.2952V13.2222C32.326 13.6518 31.9652 14 31.5201 14H30.2778C29.8326 14 29.4718 13.6518 29.4718 13.2222V0.777778C29.4718 0.348223 29.8326 0 30.2778 0H31.5201C31.9652 0 32.326 0.348223 32.326 0.777778V4.22538C32.326 4.87704 33.196 5.14054 33.5819 4.60577L36.87 0.315303C37.022 0.116992 37.2624 0 37.518 0H38.9936C39.6609 0 40.0391 0.737667 39.6344 1.24957L36.0425 5.79245C35.8387 6.0503 35.822 6.40316 36.0007 6.67783L39.9899 12.8086C40.3269 13.3266 39.9411 14 39.3073 14H37.8204C37.5397 14 37.2792 13.8591 37.1328 13.628L34.3784 9.28124Z" fill="url(#paint7_linear_4116_26371)"/>
<path d="M114.87 9.28124C114.587 8.83533 113.939 8.77992 113.579 9.171L113.021 9.77916C112.89 9.92144 112.818 10.105 112.818 10.2952V13.2222C112.818 13.6518 112.457 14 112.012 14H110.769C110.324 14 109.963 13.6518 109.963 13.2222V0.777778C109.963 0.348223 110.324 0 110.769 0H112.012C112.457 0 112.818 0.348223 112.818 0.777778V4.22538C112.818 4.87704 113.688 5.14054 114.074 4.60577L117.362 0.315303C117.514 0.116992 117.754 0 118.01 0H119.485C120.152 0 120.531 0.737667 120.126 1.24957L116.534 5.79245C116.33 6.0503 116.314 6.40316 116.492 6.67783L120.482 12.8086C120.819 13.3266 120.433 14 119.799 14H118.312C118.031 14 117.771 13.8591 117.624 13.628L114.87 9.28124Z" fill="url(#paint8_linear_4116_26371)"/>
<path d="M17.124 13.447L18.5846 8.77885L19.4507 6.00071C19.6805 5.26359 20.7615 5.262 20.9936 5.99844L22.2857 10.1003C22.4429 10.5999 22.0555 11.1041 21.5145 11.1041H20.2714C19.92 11.1041 19.6092 11.3235 19.5031 11.6468L18.9962 13.1923C18.9014 13.4615 18.849 14 19.3983 14H25.3651C26.1865 14 26.1395 13.2821 26.0134 12.9231L21.6579 0.526818C21.547 0.211161 21.2405 0 20.8951 0H19.5425C19.1966 0 18.8893 0.212976 18.7788 0.529266L14.4304 12.9737C14.2543 13.4778 14.6429 14 15.1942 14H16.3524C16.7078 14 17.0213 13.7754 17.124 13.447Z" fill="url(#paint9_linear_4116_26371)"/>
<path d="M5.07072 7.85717C5.29006 8.61441 6.40226 8.61526 6.62284 7.85836L8.74766 0.567215C8.84542 0.231766 9.16245 0 9.52355 0H10.9092C11.4567 0 11.8449 0.515599 11.6757 1.01814L7.48536 13.4626C7.37745 13.783 7.06799 14 6.71882 14H4.98038C4.63087 14 4.32119 13.7826 4.21356 13.4617L0.0397555 1.01728C-0.128736 0.514912 0.259404 0 0.806578 0H2.18324C2.54481 0 2.86213 0.232362 2.95947 0.568398L5.07072 7.85717Z" fill="url(#paint10_linear_4116_26371)"/>
</g>
<defs>
<linearGradient id="paint0_linear_4116_26371" x1="-0.302245" y1="7" x2="147.999" y2="7" gradientUnits="userSpaceOnUse">
<stop/>
<stop offset="1" stop-color="#5442AD"/>
</linearGradient>
<linearGradient id="paint1_linear_4116_26371" x1="-0.302245" y1="7" x2="147.999" y2="7" gradientUnits="userSpaceOnUse">
<stop/>
<stop offset="1" stop-color="#5442AD"/>
</linearGradient>
<linearGradient id="paint2_linear_4116_26371" x1="-0.302245" y1="7" x2="147.999" y2="7" gradientUnits="userSpaceOnUse">
<stop/>
<stop offset="1" stop-color="#5442AD"/>
</linearGradient>
<linearGradient id="paint3_linear_4116_26371" x1="-0.302245" y1="7" x2="147.999" y2="7" gradientUnits="userSpaceOnUse">
<stop/>
<stop offset="1" stop-color="#5442AD"/>
</linearGradient>
<linearGradient id="paint4_linear_4116_26371" x1="-0.302245" y1="7" x2="147.999" y2="7" gradientUnits="userSpaceOnUse">
<stop/>
<stop offset="1" stop-color="#5442AD"/>
</linearGradient>
<linearGradient id="paint5_linear_4116_26371" x1="-0.302245" y1="7" x2="147.999" y2="7" gradientUnits="userSpaceOnUse">
<stop/>
<stop offset="1" stop-color="#5442AD"/>
</linearGradient>
<linearGradient id="paint6_linear_4116_26371" x1="-0.302245" y1="7" x2="147.999" y2="7" gradientUnits="userSpaceOnUse">
<stop/>
<stop offset="1" stop-color="#5442AD"/>
</linearGradient>
<linearGradient id="paint7_linear_4116_26371" x1="-0.302245" y1="7" x2="147.999" y2="7" gradientUnits="userSpaceOnUse">
<stop/>
<stop offset="1" stop-color="#5442AD"/>
</linearGradient>
<linearGradient id="paint8_linear_4116_26371" x1="-0.302245" y1="7" x2="147.999" y2="7" gradientUnits="userSpaceOnUse">
<stop/>
<stop offset="1" stop-color="#5442AD"/>
</linearGradient>
<linearGradient id="paint9_linear_4116_26371" x1="-0.302245" y1="7" x2="147.999" y2="7" gradientUnits="userSpaceOnUse">
<stop/>
<stop offset="1" stop-color="#5442AD"/>
</linearGradient>
<linearGradient id="paint10_linear_4116_26371" x1="-0.302245" y1="7" x2="147.999" y2="7" gradientUnits="userSpaceOnUse">
<stop/>
<stop offset="1" stop-color="#5442AD"/>
</linearGradient>
<clipPath id="clip0_4116_26371">
<rect width="148" height="14" fill="white"/>
</clipPath>
</defs>
</svg>
