<svg width="108" height="44" viewBox="0 0 108 44" fill="none" xmlns="http://www.w3.org/2000/svg">
<g clip-path="url(#clip0_4807_38741)">
<path d="M28 42.5C28 41.6716 28.6716 41 29.5 41H50.5C51.3284 41 52 41.6716 52 42.5C52 43.3284 51.3284 44 50.5 44H29.5C28.6716 44 28 43.3284 28 42.5Z" fill="#EBEBEB"/>
<path d="M56 42.5C56 41.6716 56.6716 41 57.5 41H78.5C79.3284 41 80 41.6716 80 42.5C80 43.3284 79.3284 44 78.5 44H57.5C56.6716 44 56 43.3284 56 42.5Z" fill="#EBEBEB"/>
<path d="M84 42.5C84 41.6716 84.6716 41 85.5 41H106.5C107.328 41 108 41.6716 108 42.5C108 43.3284 107.328 44 106.5 44H85.5C84.6716 44 84 43.3284 84 42.5Z" fill="#EBEBEB"/>
<rect y="41" width="24" height="3" rx="1.5" fill="#DF1F26"/>
<path d="M107 17.5735C107 20.0646 106.551 22.2487 105.652 24.1257C104.753 26.0027 103.463 27.451 101.784 28.4706C100.116 29.4902 98.2 30 96.0355 30C93.8946 30 91.9844 29.496 90.3048 28.488C88.6253 27.4799 87.3242 26.0432 86.4016 24.1778C85.479 22.3008 85.0118 20.1457 85 17.7126V16.4612C85 13.9701 85.4554 11.7803 86.3661 9.89171C87.2887 7.99153 88.5839 6.53743 90.2516 5.52941C91.9312 4.5098 93.8473 4 96 4C98.1527 4 100.063 4.5098 101.731 5.52941C103.41 6.53743 104.705 7.99153 105.616 9.89171C106.539 11.7803 107 13.9643 107 16.4438V17.5735ZM101.606 16.4265C101.606 13.7732 101.122 11.7571 100.152 10.3783C99.1817 8.99955 97.7978 8.31016 96 8.31016C94.214 8.31016 92.836 8.99376 91.8661 10.361C90.8962 11.7166 90.4054 13.7094 90.3935 16.3396V17.5735C90.3935 20.1573 90.8785 22.1618 91.8484 23.5869C92.8183 25.012 94.214 25.7246 96.0355 25.7246C97.8215 25.7246 99.1936 25.041 100.152 23.6738C101.11 22.295 101.595 20.2906 101.606 17.6604V16.4265Z" fill="#222222"/>
<path d="M67.1406 20.6081C66.7868 20.0758 66.0313 20.0075 65.5878 20.4677L63.8402 22.2809C63.6606 22.4673 63.5602 22.716 63.5602 22.9749V29C63.5602 29.5523 63.1125 30 62.5602 30H59C58.4477 30 58 29.5523 58 29V5C58 4.44772 58.4477 4 59 4H62.5602C63.1125 4 63.5602 4.44772 63.5602 5V12.8077C63.5602 13.7664 64.7789 14.1757 65.3576 13.4112L66.0067 12.5536L72.5827 4.37346C72.7725 4.13734 73.0591 4 73.3621 4H77.5935C78.4402 4 78.9037 4.98663 78.3632 5.63838L70.6208 14.9737C70.336 15.317 70.3131 15.8074 70.5646 16.1758L78.9327 28.4363C79.3857 29.1 78.9104 30 78.1067 30H73.9194C73.5845 30 73.2719 29.8324 73.0866 29.5536L67.1406 20.6081Z" fill="#222222"/>
<path d="M37.0073 21.0495L34.1756 29.3648C34.0466 29.7438 33.6795 30 33.2657 30H29.9586C29.2929 30 28.8303 29.3616 29.0593 28.7593L32.2038 20.4907C32.3514 20.1027 32.7234 19.8462 33.1385 19.8462H36.1449C36.7685 19.8462 37.2077 20.4589 37.0073 21.0495Z" fill="#37A735"/>
<path d="M42.805 18C42.3778 18 41.9978 17.7286 41.8591 17.3245L40.9696 14.7314C40.6795 13.8855 39.4373 13.8875 39.15 14.7343L38.2722 17.3213C38.1345 17.727 37.7537 18 37.3252 18H34.6012C33.901 18 33.4176 17.299 33.6665 16.6445L37.4843 6.60541C37.6226 6.24177 37.9817 6 38.3836 6H41.7282C42.1295 6 42.487 6.23794 42.6257 6.60077L46.4658 16.6428C46.7162 17.2975 46.2327 18 45.5318 18H42.805Z" fill="#37A735"/>
<path d="M44.1238 19.8462C43.4378 19.8462 42.9554 20.5212 43.1778 21.1703L44.0867 23.8232C44.2912 24.4204 43.8297 25.0356 43.1772 25.0356H39.7364C39.3276 25.0356 38.9641 25.2849 38.8311 25.6575L37.7751 28.6154C37.5982 29.0769 37.5006 30 38.5254 30H49.6581C51.1905 30 51.1029 28.7692 50.8676 28.1538L47.9366 20.489C47.7885 20.1018 47.417 19.8462 47.0025 19.8462H44.1238Z" fill="#37A735"/>
<path d="M38.9522 0.789184C39.282 -0.263061 40.718 -0.263061 41.0478 0.789184L41.2368 1.39207C41.3843 1.86264 41.8073 2.18125 42.2846 2.18125H42.8961C43.9634 2.18125 44.4072 3.59704 43.5437 4.24736L43.049 4.61996C42.6629 4.9108 42.5013 5.42631 42.6488 5.89689L42.8377 6.49977C43.1676 7.55202 42.0058 8.42702 41.1423 7.7767L40.6476 7.4041C40.2614 7.11326 39.7386 7.11326 39.3524 7.4041L38.8577 7.7767C37.9942 8.42702 36.8324 7.55202 37.1623 6.49977L37.3512 5.89689C37.4987 5.42631 37.3371 4.9108 36.951 4.61996L36.4563 4.24736C35.5928 3.59704 36.0366 2.18125 37.1039 2.18125H37.7154C38.1927 2.18125 38.6157 1.86264 38.7632 1.39207L38.9522 0.789184Z" fill="#FFC800"/>
<path d="M11.0189 20.4141C11.306 21.3589 12.6434 21.3601 12.9321 20.4157L17.7339 4.70766C17.8624 4.28719 18.2505 4 18.6902 4H22.5862C23.2763 4 23.759 4.68238 23.5292 5.33304L15.0522 29.333C14.911 29.7327 14.5332 30 14.1093 30H9.85544C9.43109 30 9.05295 29.7322 8.91211 29.3319L0.468572 5.33187C0.239734 4.68142 0.722365 4 1.4119 4H5.2904C5.7307 4 6.1192 4.28799 6.24721 4.70928L11.0189 20.4141Z" fill="#222222"/>
</g>
<defs>
<clipPath id="clip0_4807_38741">
<rect width="108" height="44" fill="white"/>
</clipPath>
</defs>
</svg>
