<svg width="88" height="40" viewBox="0 0 88 40" fill="none" xmlns="http://www.w3.org/2000/svg">
<g clip-path="url(#clip0_1237_11618)">
<path d="M84 10.4412C84 12.3574 83.664 14.0374 82.9919 15.4813C82.3198 16.9251 81.3559 18.0392 80.1001 18.8235C78.8532 19.6078 77.4206 20 75.8022 20C74.2016 20 72.7734 19.6123 71.5176 18.8369C70.2619 18.0615 69.2891 16.9563 68.5993 15.5214C67.9096 14.0775 67.5603 12.4198 67.5514 10.5481V9.58556C67.5514 7.66934 67.8919 5.98485 68.5728 4.53209C69.2626 3.07041 70.2309 1.95187 71.4778 1.17647C72.7336 0.392157 74.1662 0 75.7757 0C77.3852 0 78.8134 0.392157 80.0603 1.17647C81.3161 1.95187 82.2844 3.07041 82.9653 4.53209C83.6551 5.98485 84 7.66488 84 9.57219V10.4412ZM79.9674 9.55882C79.9674 7.51782 79.6049 5.96702 78.8797 4.90642C78.1546 3.84581 77.1199 3.31551 75.7757 3.31551C74.4404 3.31551 73.4101 3.84135 72.685 4.89305C71.9598 5.93583 71.5928 7.46881 71.584 9.49198V10.4412C71.584 12.4287 71.9465 13.9706 72.6717 15.0668C73.3969 16.1631 74.4404 16.7112 75.8022 16.7112C77.1376 16.7112 78.1634 16.1854 78.8797 15.1337C79.596 14.0731 79.9586 12.5312 79.9674 10.508V9.55882Z" fill="white"/>
<path d="M54.378 13.0532C54.0251 12.507 53.2529 12.4376 52.8083 12.9122L51.7919 13.9973C51.6183 14.1826 51.5217 14.427 51.5217 14.6809V19C51.5217 19.5523 51.074 20 50.5217 20H48.3645C47.8122 20 47.3645 19.5523 47.3645 19V1C47.3645 0.447716 47.8122 0 48.3645 0H50.5217C51.074 0 51.5217 0.447715 51.5217 1V6.01924C51.5217 6.98492 52.7549 7.38969 53.3272 6.61184L53.3508 6.57967L58.1916 0.384305C58.3811 0.141756 58.6718 0 58.9796 0H61.5147C62.3549 0 62.8205 0.973434 62.2932 1.62759L56.9006 8.31721C56.627 8.65667 56.6048 9.13429 56.8459 9.49762L62.783 18.4472C63.2239 19.1119 62.7473 20 61.9497 20H59.4105C59.0711 20 58.7548 19.8278 58.5706 19.5427L54.378 13.0532Z" fill="white"/>
<path d="M29.3501 19.3039L31.5074 12.5412L32.939 8.03698C33.234 7.10907 34.5462 7.10698 34.8441 8.03395L36.2925 12.5412L36.9393 14.5575C37.1463 15.2029 36.6648 15.863 35.987 15.863H33.8245C33.3944 15.863 33.0127 16.1374 32.8763 16.5453L32.1068 18.8462C31.9687 19.2308 31.8925 20 32.6925 20H38.685H39.298H41.3832C42.5794 20 42.5111 18.9744 42.3274 18.4615L35.9497 0.657763C35.8073 0.260237 35.4323 0 35.0101 0H32.7649C32.342 0 31.9648 0.26603 31.8229 0.664409L25.4104 18.6644C25.1784 19.3155 25.6612 20 26.3524 20H28.3974C28.8326 20 29.2179 19.7185 29.3501 19.3039Z" fill="white"/>
<path d="M11.9955 11.8036C12.2775 12.7584 13.6296 12.7596 13.9131 11.8052L17.2082 0.715185C17.3343 0.290929 17.7242 0 18.1668 0H20.5433C21.2297 0 21.712 0.675565 21.4891 1.3247L15.3097 19.3247C15.171 19.7287 14.791 20 14.3639 20H11.5539C11.1263 20 10.746 19.7281 10.6077 19.3236L4.45259 1.32356C4.23069 0.674634 4.71298 0 5.3988 0H7.76231C8.2055 0 8.59583 0.291721 8.72136 0.716773L11.9955 11.8036Z" fill="white"/>
</g>
<path d="M0 26H88V36C88 38.2091 86.2091 40 84 40H4C1.79086 40 0 38.2091 0 36V26Z" fill="#DF1F26"/>
<path d="M11.6363 37H10.0117V30.3462H7.62457V37H6V29H11.6363V37Z" fill="white"/>
<path d="M18.7526 35.3626H16.5368L16.1058 37H14.3873L16.9015 29H18.3879L20.9187 37H19.1836L18.7526 35.3626ZM16.8905 34.0165H18.3935L17.642 31.1648L16.8905 34.0165Z" fill="white"/>
<path d="M25.2612 34.1868V37H23.6366V29H26.3774C27.1731 29 27.8067 29.2454 28.2782 29.7363C28.7534 30.2271 28.991 30.8645 28.991 31.6484C28.991 32.4322 28.7571 33.0513 28.2893 33.5055C27.8214 33.9597 27.1731 34.1868 26.3442 34.1868H25.2612ZM25.2612 32.8407H26.3774C26.6868 32.8407 26.9263 32.7399 27.0957 32.5385C27.2652 32.337 27.3499 32.044 27.3499 31.6593C27.3499 31.2601 27.2633 30.9432 27.0902 30.7088C26.9171 30.4707 26.685 30.3498 26.3939 30.3462H25.2612V32.8407Z" fill="white"/>
<path d="M37.2512 30.3462H35.262V37H33.6319V30.3462H31.6758V29H37.2512V30.3462Z" fill="white"/>
<path d="M46.7877 37H45.1687V33.5769H42.7705V37H41.146V29H42.7705V32.2363H45.1687V29H46.7877V37Z" fill="white"/>
<path d="M55.2135 33.5385H52.6828V35.6593H55.6777V37H51.0582V29H55.6667V30.3462H52.6828V32.2363H55.2135V33.5385Z" fill="white"/>
<path d="M60.2025 34.1868V37H58.5779V29H61.3187C62.1144 29 62.748 29.2454 63.2196 29.7363C63.6948 30.2271 63.9324 30.8645 63.9324 31.6484C63.9324 32.4322 63.6985 33.0513 63.2306 33.5055C62.7628 33.9597 62.1144 34.1868 61.2856 34.1868H60.2025ZM60.2025 32.8407H61.3187C61.6281 32.8407 61.8676 32.7399 62.0371 32.5385C62.2065 32.337 62.2912 32.044 62.2912 31.6593C62.2912 31.2601 62.2047 30.9432 62.0315 30.7088C61.8584 30.4707 61.6263 30.3498 61.3353 30.3462H60.2025V32.8407Z" fill="white"/>
<path d="M69.8386 35.3626H67.6228L67.1918 37H65.4733L67.9875 29H69.4739L72.0047 37H70.2696L69.8386 35.3626ZM67.9765 34.0165H69.4795L68.728 31.1648L67.9765 34.0165Z" fill="white"/>
<path d="M76.8445 29L78.3641 34.7857L79.8781 29H82V37H80.3699V34.8352L80.5191 31.5L78.9111 37H77.806L76.198 31.5L76.3472 34.8352V37H74.7226V29H76.8445Z" fill="white"/>
<defs>
<clipPath id="clip0_1237_11618">
<rect width="80" height="20" fill="white" transform="translate(4)"/>
</clipPath>
</defs>
</svg>
