<svg width="160" height="88" viewBox="0 0 160 88" fill="none" xmlns="http://www.w3.org/2000/svg">
<path fill-rule="evenodd" clip-rule="evenodd" d="M104.554 46.3253C104.741 46.513 104.847 46.7674 104.847 47.0327C104.846 47.298 104.741 47.5523 104.553 47.7398C104.365 47.9272 104.111 48.0325 103.846 48.0323C103.58 48.0321 103.326 47.9266 103.139 47.7389L100.6 45.2003V53.2354C100.6 53.5006 100.495 53.755 100.307 53.9425C100.12 54.1301 99.8652 54.2354 99.6 54.2354C99.3348 54.2354 99.0804 54.1301 98.8929 53.9425C98.7054 53.755 98.6 53.5006 98.6 53.2354V45.2003L96.0612 47.7385C95.8717 47.9155 95.6209 48.0119 95.3617 48.0074C95.1025 48.003 94.8551 47.898 94.6718 47.7147C94.4885 47.5314 94.3835 47.2841 94.379 47.0249C94.3745 46.7656 94.4709 46.5148 94.6478 46.3253L98.8926 42.0793C99.0804 41.8918 99.3349 41.7865 99.6003 41.7865C99.8657 41.7865 100.12 41.8918 100.308 42.0793L104.554 46.3253ZM109.923 49.2639C110.087 47.9083 109.983 46.5336 109.617 45.2182C109.25 43.9029 108.628 42.6726 107.785 41.5978C106.943 40.5229 105.897 39.6245 104.708 38.9538C103.518 38.2831 102.208 37.8533 100.853 37.6889C100.43 37.6375 100.005 37.6115 99.5791 37.611C97.5769 37.6151 95.6185 38.1972 93.9391 39.2873C92.2596 40.3773 90.9306 41.9291 90.1116 43.7562C89.2927 45.5832 89.0186 47.6079 89.3224 49.5869C89.6261 51.5659 90.4948 53.4151 91.8239 54.9125C93.1531 56.4098 94.8863 57.4916 96.8154 58.0279C98.7444 58.5641 100.787 58.532 102.699 57.9355C104.61 57.3389 106.308 56.2033 107.59 54.6649C108.871 53.1266 109.681 51.251 109.923 49.2634V49.2639ZM55.8665 53.3764H88.4204C87.4111 51.274 87.0154 48.9295 87.2788 46.6123C87.5422 44.2951 88.454 42.0992 89.9094 40.277C91.3648 38.4547 93.3048 37.08 95.5064 36.3108C97.708 35.5416 100.082 35.4092 102.355 35.9287V28.0477L95.7701 21.461L82.1091 31.3088L86.1818 34.1637C86.2921 34.2378 86.3866 34.3333 86.4597 34.4444C86.5327 34.5555 86.5829 34.6801 86.6072 34.8108C86.6315 34.9415 86.6295 35.0758 86.6013 35.2058C86.5731 35.3357 86.5193 35.4587 86.443 35.5676C86.3666 35.6765 86.2694 35.7691 86.1568 35.84C86.0443 35.9108 85.9188 35.9585 85.7876 35.9802C85.6564 36.002 85.5222 35.9974 85.3928 35.9666C85.2634 35.9359 85.1415 35.8796 85.0341 35.8012L64.5091 21.4137L50 33.6837V47.5087C50.0017 49.064 50.6202 50.5552 51.7199 51.6551C52.8196 52.755 54.3106 53.3738 55.866 53.3758L55.8665 53.3764ZM55.8665 5.59766H96.489C98.0444 5.59928 99.5356 6.21786 100.635 7.31766C101.735 8.41746 102.354 9.90866 102.355 11.464V25.2188L96.5827 19.4465C96.4148 19.2784 96.1925 19.1756 95.9557 19.1563C95.7188 19.1371 95.4829 19.2027 95.29 19.3415L80.375 30.094L65.0263 19.3339C64.8452 19.2073 64.6274 19.1441 64.4067 19.1543C64.186 19.1644 63.9748 19.2473 63.8061 19.3899L50 31.0653V11.464C50.0016 9.90863 50.6202 8.41738 51.72 7.31754C52.8199 6.21771 54.3111 5.59924 55.8665 5.59766ZM109.359 40.3652C108.048 38.6871 106.324 37.3779 104.355 36.5652V11.464C104.353 9.37846 103.523 7.37896 102.049 5.90423C100.574 4.4295 98.5746 3.59997 96.489 3.59766H55.8665C53.7809 3.59991 51.7813 4.4294 50.3066 5.90414C48.8318 7.37888 48.0023 9.37842 48 11.464V47.5092C48.0023 49.5948 48.8318 51.5944 50.3065 53.0693C51.7812 54.5442 53.7807 55.374 55.8664 55.3767H89.6289C89.6979 55.4704 89.7692 55.5642 89.8414 55.6562C91.8691 58.2444 94.8419 59.9211 98.1059 60.3174C101.37 60.7137 104.658 59.7972 107.246 57.7695C109.834 55.7418 111.511 52.769 111.907 49.505C112.303 46.2411 111.387 42.9534 109.359 40.3652ZM79.5303 12.7037C80.4369 12.7036 81.3232 12.9725 82.077 13.4761C82.8309 13.9798 83.4184 14.6957 83.7654 15.5333C84.1124 16.3709 84.2032 17.2926 84.0263 18.1818C83.8495 19.071 83.4129 19.8878 82.7718 20.5289C82.1308 21.17 81.314 21.6067 80.4248 21.7836C79.5356 21.9604 78.6139 21.8697 77.7763 21.5228C76.9386 21.1758 76.2227 20.5883 75.719 19.8345C75.2153 19.0807 74.9464 18.1944 74.9464 17.2878C74.9481 16.0726 75.4315 14.9076 76.2908 14.0484C77.1501 13.1891 78.315 12.7056 79.5303 12.7039V12.7037ZM79.5303 23.8713C78.2281 23.8713 76.9552 23.4852 75.8725 22.7618C74.7898 22.0384 73.9459 21.0101 73.4476 19.8071C72.9492 18.6041 72.8188 17.2803 73.0729 16.0032C73.3269 14.7261 73.9539 13.5529 74.8747 12.6322C75.7954 11.7114 76.9685 11.0843 78.2457 10.8303C79.5228 10.5763 80.8466 10.7066 82.0496 11.2049C83.2526 11.7032 84.2809 12.5471 85.0043 13.6298C85.7277 14.7125 86.1139 15.9854 86.1139 17.2875C86.1119 19.033 85.4176 20.7064 84.1834 21.9407C82.9491 23.1749 81.2757 23.8692 79.5303 23.8713Z" fill="#CCCCCC"/>
<path d="M58.8299 72.878V83H56.9399V78.576H52.1869V83H50.2969V72.878H52.1869V77.232H56.9399V72.878H58.8299ZM65.2193 78.583C65.2193 78.359 65.1866 78.149 65.1213 77.953C65.0606 77.7523 64.9673 77.5773 64.8413 77.428C64.7153 77.2787 64.5543 77.162 64.3583 77.078C64.1669 76.9893 63.9429 76.945 63.6863 76.945C63.1869 76.945 62.7926 77.0873 62.5033 77.372C62.2186 77.6567 62.0366 78.0603 61.9573 78.583H65.2193ZM61.9223 79.626C61.9503 79.9947 62.0156 80.3143 62.1183 80.585C62.2209 80.851 62.3563 81.0727 62.5243 81.25C62.6923 81.4227 62.8906 81.5533 63.1193 81.642C63.3526 81.726 63.6093 81.768 63.8893 81.768C64.1693 81.768 64.4096 81.7353 64.6103 81.67C64.8156 81.6047 64.9929 81.5323 65.1423 81.453C65.2963 81.3737 65.4293 81.3013 65.5413 81.236C65.6579 81.1707 65.7699 81.138 65.8773 81.138C66.0219 81.138 66.1293 81.1917 66.1993 81.299L66.6963 81.929C66.5049 82.153 66.2903 82.342 66.0523 82.496C65.8143 82.6453 65.5646 82.7667 65.3033 82.86C65.0466 82.9487 64.7829 83.0117 64.5123 83.049C64.2463 83.0863 63.9873 83.105 63.7353 83.105C63.2359 83.105 62.7716 83.0233 62.3423 82.86C61.9129 82.692 61.5396 82.447 61.2223 82.125C60.9049 81.7983 60.6553 81.397 60.4733 80.921C60.2913 80.4403 60.2003 79.885 60.2003 79.255C60.2003 78.765 60.2796 78.3053 60.4383 77.876C60.5969 77.442 60.8233 77.0663 61.1173 76.749C61.4159 76.427 61.7776 76.1727 62.2023 75.986C62.6316 75.7993 63.1146 75.706 63.6513 75.706C64.1039 75.706 64.5216 75.7783 64.9043 75.923C65.2869 76.0677 65.6159 76.28 65.8913 76.56C66.1666 76.8353 66.3813 77.176 66.5353 77.582C66.6939 77.9833 66.7733 78.443 66.7733 78.961C66.7733 79.2223 66.7453 79.3997 66.6893 79.493C66.6333 79.5817 66.5259 79.626 66.3673 79.626H61.9223ZM74.1761 77.099H71.6141V83H69.8851V77.099H67.3301V75.818H74.1761V77.099ZM83.6171 81.817C84.3125 81.7657 84.8491 81.5323 85.2271 81.117C85.6098 80.7017 85.8011 80.1323 85.8011 79.409C85.8011 78.6857 85.6098 78.1163 85.2271 77.701C84.8491 77.281 84.3125 77.0453 83.6171 76.994V81.817ZM82.1051 76.994C81.7598 77.022 81.4518 77.0967 81.1811 77.218C80.9151 77.3347 80.6865 77.4957 80.4951 77.701C80.3085 77.9063 80.1661 78.1537 80.0681 78.443C79.9701 78.7277 79.9211 79.0497 79.9211 79.409C79.9211 79.7683 79.9701 80.0927 80.0681 80.382C80.1661 80.6667 80.3085 80.9117 80.4951 81.117C80.6865 81.3177 80.9151 81.4787 81.1811 81.6C81.4518 81.7167 81.7598 81.789 82.1051 81.817V76.994ZM83.6731 75.713C84.2471 75.7457 84.7698 75.8553 85.2411 76.042C85.7171 76.224 86.1231 76.4737 86.4591 76.791C86.7998 77.1083 87.0635 77.4863 87.2501 77.925C87.4368 78.3637 87.5301 78.8537 87.5301 79.395C87.5301 79.941 87.4368 80.4357 87.2501 80.879C87.0635 81.3177 86.7998 81.6957 86.4591 82.013C86.1231 82.3303 85.7171 82.5823 85.2411 82.769C84.7698 82.9557 84.2471 83.0653 83.6731 83.098V85.408H82.0491V83.098C81.4751 83.0653 80.9501 82.9557 80.4741 82.769C80.0028 82.5823 79.5968 82.3303 79.2561 82.013C78.9201 81.6957 78.6588 81.3177 78.4721 80.879C78.2855 80.4357 78.1921 79.941 78.1921 79.395C78.1921 78.8537 78.2855 78.3637 78.4721 77.925C78.6588 77.4863 78.9201 77.1083 79.2561 76.791C79.5968 76.4737 80.0028 76.224 80.4741 76.042C80.9501 75.8553 81.4751 75.7457 82.0491 75.713V72.878H83.6731V75.713ZM92.0164 75.706C92.5484 75.706 93.0314 75.7923 93.4654 75.965C93.904 76.1377 94.2774 76.3827 94.5854 76.7C94.898 77.0173 95.1384 77.4047 95.3064 77.862C95.4744 78.3193 95.5584 78.8303 95.5584 79.395C95.5584 79.9643 95.4744 80.4777 95.3064 80.935C95.1384 81.3923 94.898 81.782 94.5854 82.104C94.2774 82.426 93.904 82.6733 93.4654 82.846C93.0314 83.0187 92.5484 83.105 92.0164 83.105C91.4797 83.105 90.992 83.0187 90.5534 82.846C90.1147 82.6733 89.739 82.426 89.4264 82.104C89.1184 81.782 88.878 81.3923 88.7054 80.935C88.5374 80.4777 88.4534 79.9643 88.4534 79.395C88.4534 78.8303 88.5374 78.3193 88.7054 77.862C88.878 77.4047 89.1184 77.0173 89.4264 76.7C89.739 76.3827 90.1147 76.1377 90.5534 75.965C90.992 75.7923 91.4797 75.706 92.0164 75.706ZM92.0164 81.775C92.6137 81.775 93.0547 81.5743 93.3394 81.173C93.6287 80.7717 93.7734 80.1837 93.7734 79.409C93.7734 78.6343 93.6287 78.044 93.3394 77.638C93.0547 77.232 92.6137 77.029 92.0164 77.029C91.4097 77.029 90.9594 77.2343 90.6654 77.645C90.376 78.051 90.2314 78.639 90.2314 79.409C90.2314 80.179 90.376 80.767 90.6654 81.173C90.9594 81.5743 91.4097 81.775 92.0164 81.775ZM102.832 77.099H100.27V83H98.5414V77.099H95.9864V75.818H102.832V77.099ZM106.823 75.706C107.355 75.706 107.838 75.7923 108.272 75.965C108.711 76.1377 109.084 76.3827 109.392 76.7C109.705 77.0173 109.945 77.4047 110.113 77.862C110.281 78.3193 110.365 78.8303 110.365 79.395C110.365 79.9643 110.281 80.4777 110.113 80.935C109.945 81.3923 109.705 81.782 109.392 82.104C109.084 82.426 108.711 82.6733 108.272 82.846C107.838 83.0187 107.355 83.105 106.823 83.105C106.286 83.105 105.799 83.0187 105.36 82.846C104.921 82.6733 104.546 82.426 104.233 82.104C103.925 81.782 103.685 81.3923 103.512 80.935C103.344 80.4777 103.26 79.9643 103.26 79.395C103.26 78.8303 103.344 78.3193 103.512 77.862C103.685 77.4047 103.925 77.0173 104.233 76.7C104.546 76.3827 104.921 76.1377 105.36 75.965C105.799 75.7923 106.286 75.706 106.823 75.706ZM106.823 81.775C107.42 81.775 107.861 81.5743 108.146 81.173C108.435 80.7717 108.58 80.1837 108.58 79.409C108.58 78.6343 108.435 78.044 108.146 77.638C107.861 77.232 107.42 77.029 106.823 77.029C106.216 77.029 105.766 77.2343 105.472 77.645C105.183 78.051 105.038 78.639 105.038 79.409C105.038 80.179 105.183 80.767 105.472 81.173C105.766 81.5743 106.216 81.775 106.823 81.775Z" fill="#ADADAD"/>
</svg>
