<svg width="180" height="120" viewBox="0 0 180 120" fill="none" xmlns="http://www.w3.org/2000/svg">
<rect width="180" height="120" rx="6" fill="#F5F5F5"/>
<path d="M70.3202 92.878V103H68.4302V98.576H63.6772V103H61.7872V92.878H63.6772V97.232H68.4302V92.878H70.3202ZM76.7095 98.583C76.7095 98.359 76.6768 98.149 76.6115 97.953C76.5508 97.7523 76.4575 97.5773 76.3315 97.428C76.2055 97.2787 76.0445 97.162 75.8485 97.078C75.6572 96.9893 75.4332 96.945 75.1765 96.945C74.6772 96.945 74.2828 97.0873 73.9935 97.372C73.7088 97.6567 73.5268 98.0603 73.4475 98.583H76.7095ZM73.4125 99.626C73.4405 99.9947 73.5058 100.314 73.6085 100.585C73.7112 100.851 73.8465 101.073 74.0145 101.25C74.1825 101.423 74.3808 101.553 74.6095 101.642C74.8428 101.726 75.0995 101.768 75.3795 101.768C75.6595 101.768 75.8998 101.735 76.1005 101.67C76.3058 101.605 76.4832 101.532 76.6325 101.453C76.7865 101.374 76.9195 101.301 77.0315 101.236C77.1482 101.171 77.2602 101.138 77.3675 101.138C77.5122 101.138 77.6195 101.192 77.6895 101.299L78.1865 101.929C77.9952 102.153 77.7805 102.342 77.5425 102.496C77.3045 102.645 77.0548 102.767 76.7935 102.86C76.5368 102.949 76.2732 103.012 76.0025 103.049C75.7365 103.086 75.4775 103.105 75.2255 103.105C74.7262 103.105 74.2618 103.023 73.8325 102.86C73.4032 102.692 73.0298 102.447 72.7125 102.125C72.3952 101.798 72.1455 101.397 71.9635 100.921C71.7815 100.44 71.6905 99.885 71.6905 99.255C71.6905 98.765 71.7698 98.3053 71.9285 97.876C72.0872 97.442 72.3135 97.0663 72.6075 96.749C72.9062 96.427 73.2678 96.1727 73.6925 95.986C74.1218 95.7993 74.6048 95.706 75.1415 95.706C75.5942 95.706 76.0118 95.7783 76.3945 95.923C76.7772 96.0677 77.1062 96.28 77.3815 96.56C77.6568 96.8353 77.8715 97.176 78.0255 97.582C78.1842 97.9833 78.2635 98.443 78.2635 98.961C78.2635 99.2223 78.2355 99.3997 78.1795 99.493C78.1235 99.5817 78.0162 99.626 77.8575 99.626H73.4125ZM85.6663 97.099H83.1043V103H81.3753V97.099H78.8203V95.818H85.6663V97.099ZM96.7524 103H95.0234V97.141H93.2594C93.2034 98.023 93.117 98.7837 93.0004 99.423C92.8837 100.058 92.7437 100.597 92.5804 101.04C92.4217 101.483 92.242 101.84 92.0414 102.111C91.8454 102.377 91.6354 102.585 91.4114 102.734C91.1874 102.883 90.9564 102.981 90.7184 103.028C90.4804 103.079 90.24 103.105 89.9974 103.105C89.7407 103.105 89.5517 103.082 89.4304 103.035C89.3137 102.993 89.2554 102.932 89.2554 102.853V101.775H89.6684C89.8224 101.775 89.9764 101.752 90.1304 101.705C90.2844 101.658 90.4337 101.563 90.5784 101.418C90.723 101.273 90.8607 101.068 90.9914 100.802C91.122 100.531 91.241 100.177 91.3484 99.738C91.4604 99.2947 91.5584 98.7533 91.6424 98.114C91.7264 97.4747 91.7917 96.7093 91.8384 95.818H96.7524V103ZM101.634 95.706C102.166 95.706 102.649 95.7923 103.083 95.965C103.521 96.1377 103.895 96.3827 104.203 96.7C104.515 97.0173 104.756 97.4047 104.924 97.862C105.092 98.3193 105.176 98.8303 105.176 99.395C105.176 99.9643 105.092 100.478 104.924 100.935C104.756 101.392 104.515 101.782 104.203 102.104C103.895 102.426 103.521 102.673 103.083 102.846C102.649 103.019 102.166 103.105 101.634 103.105C101.097 103.105 100.609 103.019 100.171 102.846C99.7319 102.673 99.3562 102.426 99.0436 102.104C98.7356 101.782 98.4952 101.392 98.3226 100.935C98.1546 100.478 98.0706 99.9643 98.0706 99.395C98.0706 98.8303 98.1546 98.3193 98.3226 97.862C98.4952 97.4047 98.7356 97.0173 99.0436 96.7C99.3562 96.3827 99.7319 96.1377 100.171 95.965C100.609 95.7923 101.097 95.706 101.634 95.706ZM101.634 101.775C102.231 101.775 102.672 101.574 102.957 101.173C103.246 100.772 103.391 100.184 103.391 99.409C103.391 98.6343 103.246 98.044 102.957 97.638C102.672 97.232 102.231 97.029 101.634 97.029C101.027 97.029 100.577 97.2343 100.283 97.645C99.9932 98.051 99.8486 98.639 99.8486 99.409C99.8486 100.179 99.9932 100.767 100.283 101.173C100.577 101.574 101.027 101.775 101.634 101.775ZM111.36 97.099H108.224V103H106.495V95.818H111.36V97.099ZM115.333 95.706C115.865 95.706 116.348 95.7923 116.782 95.965C117.22 96.1377 117.594 96.3827 117.902 96.7C118.214 97.0173 118.455 97.4047 118.623 97.862C118.791 98.3193 118.875 98.8303 118.875 99.395C118.875 99.9643 118.791 100.478 118.623 100.935C118.455 101.392 118.214 101.782 117.902 102.104C117.594 102.426 117.22 102.673 116.782 102.846C116.348 103.019 115.865 103.105 115.333 103.105C114.796 103.105 114.308 103.019 113.87 102.846C113.431 102.673 113.055 102.426 112.743 102.104C112.435 101.782 112.194 101.392 112.022 100.935C111.854 100.478 111.77 99.9643 111.77 99.395C111.77 98.8303 111.854 98.3193 112.022 97.862C112.194 97.4047 112.435 97.0173 112.743 96.7C113.055 96.3827 113.431 96.1377 113.87 95.965C114.308 95.7923 114.796 95.706 115.333 95.706ZM115.333 101.775C115.93 101.775 116.371 101.574 116.656 101.173C116.945 100.772 117.09 100.184 117.09 99.409C117.09 98.6343 116.945 98.044 116.656 97.638C116.371 97.232 115.93 97.029 115.333 97.029C114.726 97.029 114.276 97.2343 113.982 97.645C113.692 98.051 113.548 98.639 113.548 99.409C113.548 100.179 113.692 100.767 113.982 101.173C114.276 101.574 114.726 101.775 115.333 101.775Z" fill="#ADADAD"/>
<path fill-rule="evenodd" clip-rule="evenodd" d="M114.554 66.3253C114.741 66.513 114.847 66.7674 114.847 67.0327C114.846 67.298 114.741 67.5523 114.553 67.7398C114.365 67.9272 114.111 68.0325 113.846 68.0323C113.58 68.0321 113.326 67.9266 113.139 67.7389L110.6 65.2003V73.2354C110.6 73.5006 110.495 73.755 110.307 73.9425C110.12 74.1301 109.865 74.2354 109.6 74.2354C109.335 74.2354 109.08 74.1301 108.893 73.9425C108.705 73.755 108.6 73.5006 108.6 73.2354V65.2003L106.061 67.7385C105.872 67.9155 105.621 68.0119 105.362 68.0074C105.102 68.003 104.855 67.898 104.672 67.7147C104.488 67.5314 104.383 67.2841 104.379 67.0249C104.375 66.7656 104.471 66.5148 104.648 66.3253L108.893 62.0793C109.08 61.8918 109.335 61.7865 109.6 61.7865C109.866 61.7865 110.12 61.8918 110.308 62.0793L114.554 66.3253ZM119.923 69.2639C120.087 67.9083 119.983 66.5336 119.617 65.2182C119.25 63.9029 118.628 62.6726 117.785 61.5978C116.943 60.5229 115.897 59.6245 114.708 58.9538C113.518 58.2831 112.208 57.8533 110.853 57.6889C110.43 57.6375 110.005 57.6115 109.579 57.611C107.577 57.6151 105.618 58.1972 103.939 59.2873C102.26 60.3773 100.931 61.9291 100.112 63.7562C99.2927 65.5832 99.0186 67.6079 99.3224 69.5869C99.6261 71.5659 100.495 73.4151 101.824 74.9125C103.153 76.4098 104.886 77.4916 106.815 78.0279C108.744 78.5641 110.787 78.532 112.699 77.9355C114.61 77.3389 116.308 76.2033 117.59 74.6649C118.871 73.1266 119.681 71.251 119.923 69.2634V69.2639ZM65.8665 73.3764H98.4204C97.4111 71.274 97.0154 68.9295 97.2788 66.6123C97.5422 64.2951 98.454 62.0992 99.9094 60.277C101.365 58.4547 103.305 57.08 105.506 56.3108C107.708 55.5416 110.082 55.4092 112.355 55.9287V48.0477L105.77 41.461L92.1091 51.3088L96.1818 54.1637C96.2921 54.2378 96.3866 54.3333 96.4597 54.4444C96.5327 54.5555 96.5829 54.6801 96.6072 54.8108C96.6315 54.9415 96.6295 55.0758 96.6013 55.2058C96.5731 55.3357 96.5193 55.4587 96.443 55.5676C96.3666 55.6765 96.2694 55.7691 96.1568 55.84C96.0443 55.9108 95.9188 55.9585 95.7876 55.9802C95.6564 56.002 95.5222 55.9974 95.3928 55.9666C95.2634 55.9359 95.1415 55.8796 95.0341 55.8012L74.5091 41.4137L60 53.6837V67.5087C60.0017 69.064 60.6202 70.5552 61.7199 71.6551C62.8196 72.755 64.3106 73.3738 65.866 73.3758L65.8665 73.3764ZM65.8665 25.5977H106.489C108.044 25.5993 109.536 26.2179 110.635 27.3177C111.735 28.4175 112.354 29.9087 112.355 31.464V45.2188L106.583 39.4465C106.415 39.2784 106.193 39.1756 105.956 39.1563C105.719 39.1371 105.483 39.2027 105.29 39.3415L90.375 50.094L75.0263 39.3339C74.8452 39.2073 74.6274 39.1441 74.4067 39.1543C74.186 39.1644 73.9748 39.2473 73.8061 39.3899L60 51.0653V31.464C60.0016 29.9086 60.6202 28.4174 61.72 27.3175C62.8199 26.2177 64.3111 25.5992 65.8665 25.5977ZM119.359 60.3652C118.048 58.6871 116.324 57.3779 114.355 56.5652V31.464C114.353 29.3785 113.523 27.379 112.049 25.9042C110.574 24.4295 108.575 23.6 106.489 23.5977H65.8665C63.7809 23.5999 61.7813 24.4294 60.3066 25.9041C58.8318 27.3789 58.0023 29.3784 58 31.464V67.5092C58.0023 69.5948 58.8318 71.5944 60.3065 73.0693C61.7812 74.5442 63.7807 75.374 65.8664 75.3767H99.6289C99.6979 75.4704 99.7692 75.5642 99.8414 75.6562C101.869 78.2444 104.842 79.9211 108.106 80.3174C111.37 80.7137 114.658 79.7972 117.246 77.7695C119.834 75.7418 121.511 72.769 121.907 69.505C122.303 66.2411 121.387 62.9534 119.359 60.3652ZM89.5303 32.7037C90.4369 32.7036 91.3232 32.9725 92.077 33.4761C92.8309 33.9798 93.4184 34.6957 93.7654 35.5333C94.1124 36.3709 94.2032 37.2926 94.0263 38.1818C93.8495 39.071 93.4129 39.8878 92.7718 40.5289C92.1308 41.17 91.314 41.6067 90.4248 41.7836C89.5356 41.9604 88.6139 41.8697 87.7763 41.5228C86.9386 41.1758 86.2227 40.5883 85.719 39.8345C85.2153 39.0807 84.9464 38.1944 84.9464 37.2878C84.9481 36.0726 85.4315 34.9076 86.2908 34.0484C87.1501 33.1891 88.315 32.7056 89.5303 32.7039V32.7037ZM89.5303 43.8713C88.2281 43.8713 86.9552 43.4852 85.8725 42.7618C84.7898 42.0384 83.9459 41.0101 83.4476 39.8071C82.9492 38.6041 82.8188 37.2803 83.0729 36.0032C83.3269 34.7261 83.9539 33.5529 84.8747 32.6322C85.7954 31.7114 86.9685 31.0843 88.2457 30.8303C89.5228 30.5763 90.8466 30.7066 92.0496 31.2049C93.2526 31.7032 94.2809 32.5471 95.0043 33.6298C95.7277 34.7125 96.1139 35.9854 96.1139 37.2875C96.1119 39.033 95.4176 40.7064 94.1834 41.9407C92.9491 43.1749 91.2757 43.8692 89.5303 43.8713Z" fill="#CCCCCC"/>
</svg>
