<svg width="52" height="12" viewBox="0 0 52 12" fill="none" xmlns="http://www.w3.org/2000/svg">
<g clip-path="url(#clip0_4116_26396)">
<path d="M51.9991 6.26471C51.9991 7.41444 51.7807 8.42246 51.3438 9.28877C50.907 10.1551 50.2804 10.8235 49.4642 11.2941C48.6537 11.7647 47.7225 12 46.6706 12C45.6301 12 44.7018 11.7674 43.8856 11.3021C43.0693 10.8369 42.437 10.1738 41.9887 9.31283C41.5403 8.44652 41.3133 7.45187 41.3075 6.32888V5.75134C41.3075 4.6016 41.5288 3.59091 41.9714 2.71925C42.4198 1.84225 43.0492 1.17112 43.8597 0.705882C44.6759 0.235294 45.6071 0 46.6533 0C47.6995 0 48.6278 0.235294 49.4383 0.705882C50.2545 1.17112 50.884 1.84225 51.3266 2.71925C51.7749 3.59091 51.9991 4.59893 51.9991 5.74332V6.26471ZM49.3779 5.73529C49.3779 4.51069 49.1423 3.58021 48.6709 2.94385C48.1996 2.30749 47.527 1.9893 46.6533 1.9893C45.7853 1.9893 45.1157 2.30481 44.6443 2.93583C44.173 3.5615 43.9344 4.48128 43.9287 5.69519V6.26471C43.9287 7.45722 44.1644 8.38235 44.6357 9.04011C45.1071 9.69786 45.7853 10.0267 46.6706 10.0267C47.5385 10.0267 48.2053 9.71123 48.6709 9.08021C49.1365 8.44385 49.3722 7.51872 49.3779 6.30481V5.73529Z" fill="url(#paint0_linear_4116_26396)"/>
<path d="M32.7448 7.83194C32.5154 7.50418 32.0135 7.46256 31.7245 7.74734L31.0638 8.39837C30.951 8.50956 30.8882 8.65621 30.8882 8.80856V11.4C30.8882 11.7314 30.5972 12 30.2382 12H28.836C28.477 12 28.186 11.7314 28.186 11.4V0.6C28.186 0.268629 28.477 0 28.836 0H30.2382C30.5972 0 30.8882 0.268629 30.8882 0.6V3.61154C30.8882 4.19095 31.6898 4.43382 32.0618 3.96711L32.0771 3.9478L35.2237 0.230583C35.3468 0.0850536 35.5358 0 35.7358 0H37.3836C37.9298 0 38.2325 0.58406 37.8897 0.976556L34.3845 4.99033C34.2066 5.194 34.1922 5.48057 34.3489 5.69857L38.208 11.0683C38.4947 11.4671 38.1849 12 37.6664 12H36.0159C35.7953 12 35.5897 11.8967 35.47 11.7256L32.7448 7.83194Z" fill="url(#paint1_linear_4116_26396)"/>
<path d="M16.4767 11.5823L17.879 7.52473L18.8095 4.82219C19.0012 4.26544 19.8542 4.26419 20.0478 4.82037L21.4096 8.73451C21.5442 9.12175 21.2313 9.51778 20.7907 9.51778H19.385C19.1055 9.51778 18.8574 9.68244 18.7687 9.92715L18.2686 11.3077C18.1788 11.5385 18.1293 12 18.6492 12H24.2982C25.0757 12 25.0313 11.3846 24.9119 11.0769L20.7664 0.394658C20.6739 0.156142 20.4301 0 20.1557 0H18.6963C18.4214 0 18.1762 0.159618 18.084 0.398646L13.9159 11.1986C13.7651 11.5893 14.0789 12 14.5282 12H15.8574C16.1403 12 16.3907 11.8311 16.4767 11.5823Z" fill="url(#paint2_linear_4116_26396)"/>
<path d="M5.19619 7.08215C5.37949 7.65507 6.25833 7.65574 6.44266 7.0831L8.58444 0.429111C8.66638 0.174557 8.91984 0 9.20752 0H10.7523C11.1984 0 11.5119 0.405339 11.3671 0.794822L7.35039 11.5948C7.26024 11.8372 7.01325 12 6.73561 12H4.90915C4.63122 12 4.38404 11.8369 4.29411 11.5941L0.293294 0.794135C0.149059 0.40478 0.462549 0 0.908329 0H2.44461C2.73269 0 2.9864 0.175033 3.06799 0.430064L5.19619 7.08215Z" fill="url(#paint3_linear_4116_26396)"/>
</g>
<defs>
<linearGradient id="paint0_linear_4116_26396" x1="0.152147" y1="6" x2="51.9988" y2="6" gradientUnits="userSpaceOnUse">
<stop/>
<stop offset="1" stop-color="#5442AD"/>
</linearGradient>
<linearGradient id="paint1_linear_4116_26396" x1="0.152147" y1="6" x2="51.9988" y2="6" gradientUnits="userSpaceOnUse">
<stop/>
<stop offset="1" stop-color="#5442AD"/>
</linearGradient>
<linearGradient id="paint2_linear_4116_26396" x1="0.152147" y1="6" x2="51.9988" y2="6" gradientUnits="userSpaceOnUse">
<stop/>
<stop offset="1" stop-color="#5442AD"/>
</linearGradient>
<linearGradient id="paint3_linear_4116_26396" x1="0.152147" y1="6" x2="51.9988" y2="6" gradientUnits="userSpaceOnUse">
<stop/>
<stop offset="1" stop-color="#5442AD"/>
</linearGradient>
<clipPath id="clip0_4116_26396">
<rect width="52" height="12" fill="white"/>
</clipPath>
</defs>
</svg>
