<svg width="24" height="24" viewBox="0 0 24 24" fill="none" xmlns="http://www.w3.org/2000/svg">
<path fill-rule="evenodd" clip-rule="evenodd" d="M4 2C4 0.89543 4.89543 0 6 0H18C19.1046 0 20 0.895431 20 2V22C20 23.1046 19.1046 24 18 24H6C4.89543 24 4 23.1046 4 22V2ZM5 2C5 1.44772 5.44771 1 6 1H9C9 1.55228 9.44772 2 10 2H14C14.5523 2 15 1.55228 15 1H18C18.5523 1 19 1.44772 19 2V22C19 22.5523 18.5523 23 18 23H6C5.44772 23 5 22.5523 5 22V2Z" fill="#222222"/>
<path d="M10 20.5C10 20.2239 10.2239 20 10.5 20H13.5C13.7761 20 14 20.2239 14 20.5C14 20.7761 13.7761 21 13.5 21H10.5C10.2239 21 10 20.7761 10 20.5Z" fill="#222222"/>
</svg>
