<svg width="24" height="24" viewBox="0 0 24 24" fill="none" xmlns="http://www.w3.org/2000/svg">
<path fill-rule="evenodd" clip-rule="evenodd" d="M20.3181 4H4.31812C3.76583 4 3.31812 4.44772 3.31812 5V14H21.3181V5C21.3181 4.44772 20.8704 4 20.3181 4ZM4.31812 3C3.21355 3 2.31812 3.89543 2.31812 5V15H22.3181V5C22.3181 3.89543 21.4227 3 20.3181 3H4.31812Z" fill="#222222"/>
<path fill-rule="evenodd" clip-rule="evenodd" d="M3.15035 15L2.04298 18.7143C1.8518 19.3555 2.33215 20 3.0013 20H21.6348C22.3039 20 22.7843 19.3555 22.5931 18.7143L21.4857 15H3.15035ZM22.2311 14H2.40499L1.08467 18.4286C0.702302 19.7111 1.663 21 3.0013 21H21.6348C22.9731 21 23.9338 19.7111 23.5514 18.4286L22.2311 14Z" fill="#222222"/>
<path d="M10.3181 6.5C10.3181 6.22386 10.542 6 10.8181 6H13.8181C14.0943 6 14.3181 6.22386 14.3181 6.5C14.3181 6.77614 14.0943 7 13.8181 7H10.8181C10.542 7 10.3181 6.77614 10.3181 6.5Z" fill="#222222"/>
</svg>
