<svg width="24" height="24" viewBox="0 0 24 24" fill="none" xmlns="http://www.w3.org/2000/svg">
<path d="M19.8294 2.76739C19.3595 2.26379 18.7553 2 18.084 2C17.435 2 16.8085 2.26379 16.3386 2.76739L3.06888 17.012C3.00175 17.0839 2.97937 17.1559 2.95699 17.2278L2.01715 21.3046C1.9724 21.4724 2.01715 21.6403 2.12904 21.7602C2.21854 21.8561 2.33043 21.9041 2.44232 21.9041C2.48707 21.9041 2.50945 21.9041 2.5542 21.8801L6.35833 20.8729C6.44784 20.8489 6.51497 20.801 6.55972 20.753L19.8294 6.48441C20.7916 5.45324 20.7916 3.79856 19.8294 2.76739ZM4.00872 17.3477L14.1456 6.48441L16.3609 8.85851L6.22407 19.7218L4.00872 17.3477ZM14.7722 5.81295L15.712 4.80576L17.9273 7.17986L16.9875 8.18705L14.7722 5.81295ZM3.62831 18.283L5.35135 20.1295L3.0465 20.753L3.62831 18.283ZM19.2028 5.81295L18.5763 6.48441L16.3609 4.11031L16.9875 3.43885C17.2784 3.1271 17.6812 2.95923 18.1064 2.95923C18.5315 2.95923 18.9119 3.1271 19.2028 3.43885C19.807 4.08633 19.807 5.16547 19.2028 5.81295ZM22 21.5204C22 21.7842 21.7986 22 21.5525 22H9.02122C8.77507 22 8.57367 21.7842 8.57367 21.5204C8.57367 21.2566 8.77507 21.0408 9.02122 21.0408H21.5525C21.821 21.0408 22 21.2566 22 21.5204Z" fill="#222222"/>
</svg>
