<svg width="56" height="56" viewBox="0 0 56 56" fill="none" xmlns="http://www.w3.org/2000/svg">
<rect width="56" height="56" rx="6" fill="white"/>
<path fill-rule="evenodd" clip-rule="evenodd" d="M26.2619 8.66188C27.2483 7.77937 28.7518 7.77937 29.7381 8.66188C29.7445 8.66753 29.7507 8.6733 29.7567 8.67919L34.9035 13.6668H40.2901C41.7344 13.6668 42.9049 14.8228 42.9049 16.2483V17.6347C42.9049 17.9843 42.6177 18.2678 42.2634 18.2678C41.9091 18.2678 41.6219 17.9843 41.6219 17.6347V16.2483C41.6219 15.5217 41.0254 14.9331 40.2901 14.9331H15.7099C14.9747 14.9331 14.3781 15.5217 14.3781 16.2483L14.3781 21.6855C14.3781 21.6861 14.3781 21.6868 14.3781 21.6875V26.3185L25.0942 36.8804L26.7533 35.9802C26.7533 35.9802 26.7534 35.9802 26.7533 35.9802C27.1353 35.7729 27.5641 35.6642 28 35.6642C28.4359 35.6642 28.8647 35.7729 29.2466 35.9802C29.2466 35.9802 29.2466 35.9802 29.2466 35.9802L30.9057 36.8804L41.6219 26.3185L41.6219 21.6879C41.6219 21.6869 41.6219 21.6859 41.6219 21.6849V20.1227C41.6219 19.7731 41.9091 19.4896 42.2634 19.4896C42.6177 19.4896 42.9049 19.7731 42.9049 20.1227V21.4208L45.2169 23.6612C45.4649 23.9015 45.6619 24.1883 45.7963 24.5046C45.9308 24.8209 46 25.1605 46 25.5035V45.4447C46 46.8557 44.8415 47.9999 43.4118 47.9999H37.0245C36.6702 47.9999 36.3829 47.7165 36.3829 47.3668C36.3829 47.0171 36.6702 46.7336 37.0245 46.7336H43.4118C44.0102 46.7336 44.5149 46.3358 44.6688 45.793L28.6285 37.0899C28.436 36.9853 28.2197 36.9305 28 36.9305C27.7803 36.9305 27.5641 36.9853 27.3716 37.0898L11.3312 45.793C11.4851 46.3358 11.9898 46.7337 12.5882 46.7337H34.4445C34.7988 46.7337 35.086 47.0172 35.086 47.3669C35.086 47.7165 34.7988 48 34.4445 48H12.5882C11.1585 48 10 46.8556 10 45.4447L10 34.7211C10 34.3714 10.2872 34.0879 10.6415 34.0879C10.9958 34.0879 11.283 34.3714 11.283 34.7211L11.283 44.3741L23.9231 37.5158L11.3422 25.1159C11.3031 25.2412 11.283 25.3719 11.283 25.5036C11.283 25.5036 11.283 25.5036 11.283 25.5036V32.1736C11.283 32.5233 10.9958 32.8068 10.6415 32.8068C10.2872 32.8068 10 32.5233 10 32.1736V25.5036C10 25.1606 10.0693 24.821 10.2037 24.5047C10.3381 24.1884 10.5351 23.9016 10.7831 23.6612L13.0951 21.4208L13.0951 16.2483C13.0951 14.8228 14.2656 13.6668 15.7099 13.6668H21.0965L26.2434 8.67919C26.2494 8.6733 26.2556 8.66753 26.2619 8.66188ZM22.9278 13.6668H33.0722L28.8679 9.59247C28.3732 9.15757 27.6269 9.15757 27.1322 9.59247L22.9278 13.6668ZM13.0951 23.1954L12.1443 24.1168L13.0951 25.054V23.1954ZM44.717 44.3741V25.5035C44.717 25.3718 44.697 25.2412 44.6578 25.1158L32.0768 37.5158L44.717 44.3741ZM43.8557 24.1168L42.9049 23.1954V25.054L43.8557 24.1168ZM32.5641 22.7566C31.7979 20.2692 29.1192 18.8731 26.6002 19.6649C24.2173 20.4138 22.8238 22.9125 23.4597 25.3C24.0113 27.3705 25.868 28.7326 27.9056 28.7882C28.2598 28.7979 28.5389 29.0891 28.5291 29.4387C28.5193 29.7882 28.2242 30.0637 27.8701 30.054C25.2815 29.9833 22.92 28.2539 22.2189 25.622C21.4091 22.5819 23.1777 19.4116 26.2109 18.4583C29.4171 17.4505 32.8268 19.2318 33.7955 22.4007C33.7964 22.4037 33.7973 22.4068 33.7982 22.4099C33.7992 22.4133 33.8002 22.4168 33.8011 22.4203C34.1538 23.7246 33.9378 24.8541 33.4992 25.9431C33.3127 26.4061 32.6251 27.677 31.0311 27.677C30.3283 27.677 29.7624 27.2595 29.4576 26.6961C28.9984 27.1378 28.4085 27.409 27.729 27.409C26.0993 27.409 24.8961 25.849 24.8961 24.0591C24.8961 22.2091 26.2087 20.8219 27.7862 20.8219C28.3381 20.8219 28.8276 20.9858 29.2338 21.272L29.2348 21.0744C29.2366 20.7247 29.5252 20.4427 29.8795 20.4444C30.2338 20.4461 30.5196 20.731 30.5178 21.0806L30.5035 23.9344C30.5044 23.9704 30.5049 24.0065 30.5049 24.0428C30.5049 24.092 30.504 24.1411 30.5023 24.19L30.4945 25.7348C30.4924 26.1611 30.8136 26.4107 31.0311 26.4107C31.7977 26.4107 32.1715 25.8113 32.3069 25.4754C32.6785 24.5526 32.8204 23.7138 32.5641 22.7566ZM29.2205 23.9431C29.1845 22.6736 28.4624 22.0882 27.7862 22.0882C27.0377 22.0882 26.1791 22.7834 26.1791 24.0591C26.1791 25.3947 27.0329 26.1427 27.729 26.1427C28.3801 26.1427 29.1689 25.4539 29.2193 24.1734L29.2205 23.9431Z" fill="#7B61FF"/>
</svg>
