<svg width="56" height="56" viewBox="0 0 56 56" fill="none" xmlns="http://www.w3.org/2000/svg">
<path d="M45.3724 16.011C45.3724 22.4909 43.5733 28.6166 40.1678 33.7249C40.0863 33.8427 40.029 33.9756 39.9992 34.1158C39.9695 34.2561 39.9678 34.4009 39.9944 34.5418C40.0209 34.6827 40.0751 34.8169 40.1539 34.9365C40.2326 35.0562 40.3343 35.1589 40.453 35.2386C40.5716 35.3184 40.7049 35.3736 40.8451 35.401C40.9852 35.4285 41.1294 35.4276 41.2693 35.3985C41.4091 35.3694 41.5417 35.3126 41.6594 35.2314C41.7772 35.1503 41.8776 35.0464 41.955 34.9258C45.5971 29.4611 47.523 22.9207 47.523 16.011V12.339C47.5233 12.146 47.4719 11.9565 47.3743 11.7903C47.2767 11.6241 47.1364 11.4872 46.9682 11.394L28.5186 1.13522C28.3592 1.04653 28.1799 1 27.9976 1C27.8154 1 27.6361 1.04653 27.4766 1.13522L9.02604 11.394C8.85794 11.4874 8.71782 11.6243 8.62024 11.7905C8.52266 11.9567 8.47118 12.1461 8.47117 12.339V16.011C8.47117 22.9142 10.4003 29.4546 14.05 34.9269C14.1284 35.0451 14.2293 35.1465 14.3469 35.2253C14.4645 35.3042 14.5964 35.3589 14.7351 35.3864C14.8738 35.4139 15.0165 35.4136 15.1551 35.3855C15.2936 35.3575 15.4253 35.3022 15.5426 35.2228C15.6599 35.144 15.7607 35.0427 15.839 34.9247C15.9173 34.8067 15.9717 34.6743 15.9991 34.5352C16.0265 34.3961 16.0263 34.2529 15.9985 34.1139C15.9707 33.9748 15.9159 33.8427 15.8372 33.7249C12.4263 28.6101 10.6218 22.4855 10.6218 16.012V12.9762L27.9971 3.31572L45.3724 12.9762V16.011Z" fill="#7B61FF"/>
<path d="M24.6485 30.1037C24.9335 30.1037 25.2077 29.9903 25.4088 29.7873L36.746 18.3999C36.8459 18.2996 36.9251 18.1806 36.9791 18.0496C37.0331 17.9186 37.0609 17.7781 37.0609 17.6363C37.0609 17.4945 37.0331 17.3541 36.9791 17.2231C36.9251 17.0921 36.8459 16.9731 36.746 16.8728C36.6462 16.7725 36.5277 16.693 36.3972 16.6387C36.2668 16.5844 36.127 16.5565 35.9858 16.5565C35.8446 16.5565 35.7048 16.5844 35.5743 16.6387C35.4439 16.693 35.3253 16.7725 35.2255 16.8728L24.6485 27.4966L20.7719 23.6033C20.5703 23.4008 20.2968 23.287 20.0117 23.287C19.7265 23.287 19.453 23.4008 19.2514 23.6033C19.0498 23.8058 18.9365 24.0804 18.9365 24.3668C18.9365 24.6532 19.0498 24.9279 19.2514 25.1304L23.8882 29.7873C23.9879 29.8878 24.1064 29.9674 24.2369 30.0218C24.3674 30.0761 24.5073 30.1039 24.6485 30.1037ZM37.4364 43.6511C37.3743 43.4595 37.2601 43.2891 37.1068 43.1592C36.9535 43.0293 36.7671 42.9449 36.5686 42.9156L31.3134 42.1488L28.9638 37.3666C28.6014 36.629 27.3971 36.629 27.0347 37.3666L24.6851 42.1488L19.4288 42.9156C19.2307 42.9453 19.0447 43.0299 18.8918 43.16C18.7388 43.29 18.6251 43.4603 18.5632 43.6516C18.5013 43.843 18.4938 44.048 18.5414 44.2434C18.5891 44.4389 18.6901 44.6171 18.8331 44.758L22.6366 48.4808L21.7397 53.7371C21.7058 53.9357 21.728 54.1398 21.8036 54.3265C21.8792 54.5131 22.0053 54.6748 22.1676 54.7932C22.33 54.9117 22.5221 54.9821 22.7222 54.9966C22.9223 55.0111 23.1225 54.9691 23.3 54.8754L27.9982 52.3936L32.6985 54.8754C32.8759 54.9695 33.0762 55.0117 33.2763 54.9972C33.4765 54.9827 33.6686 54.912 33.8308 54.7933C33.9931 54.6749 34.1193 54.5132 34.1949 54.3265C34.2705 54.1399 34.2927 53.9357 34.2588 53.7371L33.3619 48.4808L37.1643 44.758C37.4568 44.4708 37.5622 44.042 37.4364 43.6511ZM31.4554 47.3306C31.3307 47.4529 31.2374 47.6037 31.1835 47.7702C31.1295 47.9367 31.1166 48.1138 31.1457 48.2864L31.7705 51.9454L28.4993 50.2174C28.3449 50.136 28.1731 50.0935 27.9987 50.0935C27.8243 50.0935 27.6526 50.136 27.4981 50.2174L24.2259 51.9454L24.8507 48.2864C24.88 48.1138 24.8671 47.9366 24.8132 47.7701C24.7592 47.6036 24.6658 47.4528 24.541 47.3306L21.8935 44.7397L25.5529 44.2051C25.7254 44.1799 25.8893 44.113 26.0303 44.0101C26.1714 43.9072 26.2854 43.7714 26.3626 43.6143L27.9982 40.2847L29.6338 43.6143C29.7109 43.7714 29.825 43.9072 29.966 44.0101C30.1071 44.113 30.2709 44.1799 30.4435 44.2051L34.1029 44.7397L31.4554 47.3306ZM52.947 39.6983C52.8848 39.5066 52.7705 39.3361 52.617 39.2062C52.4635 39.0762 52.2768 38.992 52.0782 38.9628L48.0983 38.3818L46.3187 34.7595C45.9552 34.0219 44.753 34.0219 44.3895 34.7595L42.6098 38.3818L38.63 38.9628C38.4318 38.9924 38.2457 39.0769 38.0926 39.2069C37.9395 39.3368 37.8256 39.5071 37.7636 39.6985C37.7016 39.8899 37.694 40.0949 37.7416 40.2904C37.7892 40.4859 37.8902 40.6642 38.0332 40.8053L40.914 43.6251L40.2344 47.607C40.2005 47.8057 40.2227 48.0098 40.2983 48.1965C40.3739 48.3831 40.5 48.5448 40.6623 48.6632C40.8247 48.7817 41.0167 48.8521 41.2169 48.8666C41.417 48.8811 41.6171 48.8391 41.7947 48.7454L45.3552 46.8651L48.9156 48.7454C49.0931 48.8395 49.2933 48.8817 49.4935 48.8672C49.6936 48.8527 49.8858 48.782 50.0479 48.6633C50.2103 48.5449 50.3364 48.3832 50.412 48.1965C50.4877 48.0099 50.5098 47.8057 50.4759 47.607L49.7963 43.6251L52.6771 40.8053C52.9685 40.5191 53.0739 40.0893 52.947 39.6983ZM47.8887 42.476C47.764 42.5984 47.6707 42.7492 47.6167 42.9157C47.5628 43.0821 47.5498 43.2592 47.579 43.4318L47.9865 45.8164L45.8541 44.6911C45.7 44.6095 45.5283 44.5668 45.3541 44.5668C45.1798 44.5668 45.0082 44.6095 44.8541 44.6911L42.7217 45.8164L43.1292 43.4318C43.1585 43.2592 43.1456 43.0821 43.0917 42.9156C43.0378 42.7491 42.9444 42.5983 42.8195 42.476L41.0947 40.7869L43.4776 40.4392C43.6502 40.414 43.814 40.3471 43.9551 40.2442C44.0962 40.1413 44.2102 40.0054 44.2874 39.8484L45.3541 37.6787L46.4208 39.8484C46.498 40.0054 46.612 40.1413 46.7531 40.2442C46.8941 40.3471 47.058 40.414 47.2305 40.4392L49.6135 40.7869L47.8887 42.476ZM5.94951 48.6644C6.11184 48.7828 6.30391 48.8532 6.50401 48.8677C6.70411 48.8822 6.90426 48.8402 7.08184 48.7464L10.6423 46.8662L14.2027 48.7464C14.3802 48.8406 14.5804 48.8828 14.7806 48.8683C14.9808 48.8538 15.1729 48.7831 15.335 48.6644C15.4974 48.5459 15.6235 48.3843 15.6991 48.1976C15.7748 48.0109 15.7969 47.8068 15.763 47.6081L15.0834 43.6262L17.9642 40.8064C18.108 40.6657 18.2097 40.4874 18.2578 40.2916C18.3059 40.0958 18.2985 39.8905 18.2364 39.6987C18.1743 39.507 18.06 39.3365 17.9064 39.2067C17.7528 39.0768 17.5661 38.9927 17.3674 38.9639L13.3876 38.3829L11.6079 34.7606C11.2445 34.023 10.0422 34.023 9.67877 34.7606L7.89909 38.3829L3.91928 38.9639C3.72103 38.9935 3.53491 39.078 3.38185 39.2079C3.2288 39.3379 3.11486 39.5081 3.05286 39.6996C2.99085 39.891 2.98324 40.096 3.03087 40.2915C3.07849 40.487 3.17948 40.6653 3.32247 40.8064L6.20329 43.6262L5.52368 47.6081C5.48905 47.8066 5.51061 48.0108 5.58589 48.1975C5.66118 48.3843 5.78717 48.546 5.94951 48.6644ZM8.76581 40.4392C8.93835 40.414 9.10222 40.3471 9.24328 40.2442C9.38434 40.1413 9.49837 40.0054 9.57554 39.8484L10.6423 37.6787L11.709 39.8484C11.7862 40.0054 11.9002 40.1413 12.0413 40.2442C12.1823 40.3471 12.3462 40.414 12.5187 40.4392L14.9017 40.7869L13.1768 42.476C13.0522 42.5984 12.9589 42.7492 12.9049 42.9157C12.851 43.0821 12.838 43.2592 12.8671 43.4318L13.2747 45.8164L11.1423 44.6911C10.9882 44.6095 10.8165 44.5668 10.6423 44.5668C10.468 44.5668 10.2964 44.6095 10.1422 44.6911L8.00985 45.8164L8.4174 43.4318C8.44671 43.2592 8.43383 43.0821 8.37988 42.9156C8.32594 42.7491 8.23253 42.5983 8.10771 42.476L6.38287 40.7869L8.76581 40.4392Z" fill="#7B61FF"/>
</svg>
