<svg width="24" height="24" viewBox="0 0 24 24" fill="none" xmlns="http://www.w3.org/2000/svg">
<path fill-rule="evenodd" clip-rule="evenodd" d="M2 4.06355C2 2.92746 2.92743 2 4.06347 2H19.9365C21.0725 2 22 2.92743 22 4.06355V15.6912C22 16.8273 21.0724 17.7547 19.9365 17.7547H14.834L13.1357 21.1511C12.9059 21.6106 12.5217 22 12 22C11.4783 22 11.094 21.6107 10.8642 21.1511L9.16597 17.7547H4.06347C2.92744 17.7547 2 16.8273 2 15.6912V4.06355ZM4.06347 2.95238C3.45345 2.95238 2.95238 3.45341 2.95238 4.06355V15.6912C2.95238 16.3013 3.45343 16.8023 4.06347 16.8023H9.46027C9.64063 16.8023 9.80551 16.9042 9.88618 17.0656L11.7161 20.7252C11.7919 20.8768 11.8664 20.9628 11.9209 21.0069C11.9716 21.0478 11.9975 21.0476 11.9999 21.0476C11.9999 21.0476 12.0276 21.0484 12.079 21.0069C12.1336 20.9628 12.2081 20.8768 12.2838 20.7252L14.1137 17.0656C14.1944 16.9042 14.3593 16.8023 14.5397 16.8023H19.9365C20.5465 16.8023 21.0476 16.3013 21.0476 15.6912V4.06355C21.0476 3.45345 20.5465 2.95238 19.9365 2.95238H4.06347Z" fill="#222222"/>
<path fill-rule="evenodd" clip-rule="evenodd" d="M13.0315 6.80899C12.8249 6.37398 12.477 6 12 6C11.5229 6 11.175 6.37399 10.9684 6.80899L10.3923 8.02156L9.1042 8.21619C8.64215 8.28597 8.19232 8.51418 8.04492 8.98551C7.8975 9.45689 8.13238 9.9162 8.46678 10.2548L9.39884 11.1987L9.17879 12.5317C9.09988 13.0098 9.1697 13.5248 9.55562 13.8161C9.94154 14.1074 10.4346 14.0172 10.8478 13.7915L12 13.1622L13.1521 13.7915C13.5654 14.0172 14.0584 14.1074 14.4443 13.8161C14.8303 13.5248 14.9001 13.0098 14.8212 12.5317L14.6012 11.1987L15.5333 10.2547C15.8677 9.91616 16.1025 9.45686 15.9551 8.98552C15.8077 8.51419 15.3579 8.28597 14.8958 8.21618L13.6077 8.02156L13.0315 6.80899ZM11.9335 6.94084C11.8845 6.98244 11.8171 7.06423 11.7484 7.20891L11.0711 8.63449C11.0077 8.76782 10.8853 8.86023 10.7437 8.88163L9.22938 9.11043C9.0757 9.13364 8.97995 9.17499 8.92674 9.21051C8.90101 9.22769 8.88727 9.24206 8.8805 9.25066C8.8741 9.25877 8.87213 9.26475 8.87213 9.26475C8.87213 9.26475 8.87034 9.27079 8.87093 9.28125C8.87155 9.29232 8.87452 9.31233 8.88562 9.34193C8.90857 9.40313 8.96261 9.49501 9.07382 9.60761L10.1697 10.7175C10.2722 10.8213 10.3189 10.9708 10.2947 11.1174L10.0361 12.6844C10.0098 12.8435 10.0181 12.9508 10.0341 13.0143C10.0419 13.0451 10.0508 13.0631 10.0566 13.0724C10.062 13.0812 10.0669 13.085 10.0669 13.085C10.0669 13.085 10.0718 13.0886 10.0815 13.0913C10.0919 13.0941 10.1111 13.0973 10.1416 13.0955C10.2047 13.0917 10.3055 13.0667 10.443 12.9916L11.7977 12.2518C11.9244 12.1826 12.0757 12.1826 12.2024 12.2518L13.5568 12.9916C13.6943 13.0667 13.7952 13.0917 13.8583 13.0955C13.8889 13.0973 13.9081 13.0941 13.9184 13.0913C13.9282 13.0886 13.9331 13.085 13.9331 13.085C13.9331 13.085 13.938 13.0812 13.9434 13.0724C13.9492 13.0631 13.9581 13.0451 13.9659 13.0143C13.9819 12.9508 13.9902 12.8435 13.9639 12.6844L13.7052 11.1174C13.6811 10.9708 13.7278 10.8213 13.8303 10.7175L14.9262 9.60765C15.0374 9.49505 15.0914 9.40317 15.1144 9.34196C15.1255 9.31236 15.1285 9.29235 15.1291 9.28126C15.1297 9.27079 15.1279 9.26474 15.1279 9.26474C15.1279 9.26474 15.1259 9.25876 15.1195 9.25064C15.1127 9.24205 15.099 9.22767 15.0733 9.2105C15.0201 9.17498 14.9244 9.13364 14.7707 9.11043L13.2564 8.88163C13.1148 8.86023 12.9924 8.76783 12.929 8.63452L12.2516 7.20897C12.1829 7.06429 12.1154 6.98244 12.0665 6.94084C12.0428 6.92073 12.0254 6.9116 12.0154 6.90757C12.006 6.90376 12 6.90365 12 6.90365C12 6.90365 11.9939 6.90376 11.9845 6.90757C11.9745 6.9116 11.9571 6.92073 11.9335 6.94084Z" fill="#222222"/>
</svg>
