<svg width="56" height="56" viewBox="0 0 56 56" fill="none" xmlns="http://www.w3.org/2000/svg">
<rect width="56" height="56" rx="6" fill="white"/>
<path fill-rule="evenodd" clip-rule="evenodd" d="M15.691 14.2556C18.9796 11.003 23.349 9.213 28 9.213C32.1076 9.213 35.9946 10.6092 39.1113 13.1744C39.3717 13.3887 39.7583 13.3537 39.975 13.0962C40.1916 12.8387 40.1562 12.4563 39.8959 12.2421C36.5582 9.49506 32.3935 8 28 8C23.0238 8 18.3424 9.9178 14.8237 13.3979C13.3736 14.8322 12.1935 16.451 11.3012 18.2297C10.9793 18.8714 10.9388 19.5725 11.1266 20.2043C10.3862 22.1705 10 24.2714 10 26.4293V34.6696C10 37.4815 12.3048 39.761 15.1479 39.761H17.7815C19.3391 39.761 20.602 38.5122 20.602 36.9715V27.9596C20.602 26.419 19.3391 25.1702 17.7815 25.1702H16.8821L16.8723 25.1701L16.8625 25.1702H15.1479C14.8664 25.1702 14.5903 25.1925 14.3211 25.2355C14.4246 24.0659 14.6789 22.9389 15.064 21.8728C15.5715 21.6136 16.0019 21.198 16.2743 20.6568C17.1947 18.828 18.5417 17.2404 20.2396 16.0006C22.5031 14.3479 25.1849 13.475 28 13.475C30.8665 13.475 33.5877 14.3769 35.8748 16.085C37.5656 17.3479 38.9334 19.0172 39.8395 20.8986C40.1024 21.4442 40.5251 21.8667 41.0273 22.1344C41.367 23.1398 41.5856 24.1807 41.679 25.2355C41.4098 25.1925 41.1336 25.1702 40.8521 25.1702H39.1374L39.1276 25.1701L39.1178 25.1702H38.2185C36.6609 25.1702 35.3981 26.419 35.3981 27.9596V36.9715C35.3981 38.5122 36.6609 39.761 38.2185 39.761H40.8521C41.2626 39.761 41.6619 39.7135 42.0446 39.6237C41.0568 41.9599 38.7214 43.6054 36.0069 43.6054H35.4677C34.9655 42.9795 34.1897 42.578 33.3191 42.578H29.3143C27.8004 42.578 26.5732 43.7919 26.5732 45.289C26.5732 46.7863 27.8004 48 29.3143 48H33.3191C34.1678 48 34.9264 47.6185 35.4292 47.0195H36.0069C41.5176 47.0195 45.9999 42.5863 45.9999 37.1361L46 34.6696V30.2613L45.9999 26.4292C45.9999 24.3928 45.6554 22.4076 44.9945 20.5383C45.1951 19.9059 45.1664 19.1991 44.8563 18.5491C44.1052 16.9751 43.1315 15.5217 41.9458 14.2044C41.7206 13.9542 41.333 13.9319 41.08 14.1546C40.827 14.3774 40.8045 14.7607 41.0297 15.0109C42.1385 16.2428 43.0468 17.5992 43.7471 19.0668C43.9374 19.4657 43.9376 19.9032 43.7861 20.2816C43.7791 20.2965 43.7727 20.3117 43.767 20.3272C43.612 20.681 43.3222 20.9783 42.9305 21.1359L42.9295 21.1363L42.9261 21.1377C42.5447 21.2912 42.1357 21.2833 41.7784 21.1443C41.7637 21.1377 41.7488 21.1316 41.7336 21.1261C41.3996 20.9841 41.1148 20.7258 40.9467 20.3769C39.9569 18.3216 38.4636 16.4986 36.6139 15.117C34.1139 13.2499 31.1332 12.262 28 12.262C24.9228 12.262 21.9857 13.2179 19.5111 15.0248C17.6586 16.3774 16.1842 18.1137 15.1763 20.1163C15.0021 20.4625 14.7125 20.7163 14.3754 20.8525C14.3609 20.8575 14.3465 20.863 14.3324 20.8691C13.9778 21.0004 13.5749 21.0033 13.2001 20.8499C12.8 20.6861 12.5077 20.3774 12.3571 20.0136C12.3522 19.9998 12.3467 19.9862 12.3408 19.9728C12.1965 19.5937 12.2038 19.1596 12.3998 18.7688C13.2317 17.1106 14.3329 15.5988 15.691 14.2556ZM11.2265 26.4293C11.2265 24.7348 11.4815 23.0804 11.9729 21.5082C12.193 21.6969 12.4471 21.8544 12.7311 21.9707C13.0388 22.0967 13.3568 22.1638 13.6722 22.1772C13.3393 23.2721 13.1313 24.4199 13.065 25.6041C12.3525 25.9163 11.7251 26.3836 11.2265 26.9628V26.4293ZM42.9351 25.6041C42.8758 24.5409 42.7001 23.4878 42.4114 22.4632C42.7381 22.4554 43.0686 22.3899 43.3885 22.2612L43.3894 22.2608L43.3928 22.2595C43.6645 22.1501 43.909 22.0032 44.1226 21.8274C44.5513 23.3037 44.7735 24.849 44.7735 26.4292L44.7735 26.9628C44.2749 26.3836 43.6475 25.9163 42.9351 25.6041ZM43.5394 39.0131C43.985 38.7429 44.3858 38.4075 44.7282 38.0203C44.279 42.3859 40.5404 45.8048 36.0103 45.8065C36.043 45.639 36.0602 45.466 36.0602 45.289C36.0602 45.1285 36.0461 44.9713 36.019 44.8184C39.6438 44.8129 42.6913 42.3407 43.5394 39.0131ZM34.8337 45.289C34.8337 45.5751 34.7526 45.8425 34.6119 46.0699C34.6032 46.0824 34.5949 46.0953 34.5872 46.1085C34.3167 46.5171 33.8498 46.787 33.3191 46.787H29.3143C28.4778 46.787 27.7996 46.1163 27.7996 45.289C27.7996 44.4618 28.4778 43.791 29.3143 43.791H33.3191C33.8659 43.791 34.345 44.0776 34.6113 44.5072C34.6171 44.5174 34.6232 44.5275 34.6295 44.5374C34.7593 44.7583 34.8337 45.0151 34.8337 45.289ZM11.2265 30.2615C11.2265 28.5773 12.312 27.1438 13.8288 26.608C13.8513 26.6017 13.8732 26.5942 13.8946 26.5855C14.2881 26.4543 14.7096 26.3832 15.1479 26.3832H16.2591H17.4855H17.7815C18.6618 26.3832 19.3755 27.089 19.3755 27.9596V36.9715C19.3755 37.8422 18.6618 38.548 17.7815 38.548H17.4855H16.2591H15.1479C12.9821 38.548 11.2265 36.8116 11.2265 34.6696V30.2615ZM44.7735 30.2613C44.7735 28.5773 43.6881 27.144 42.1715 26.6082C42.1488 26.6018 42.1266 26.5941 42.105 26.5853C41.7116 26.4542 41.2903 26.3832 40.8521 26.3832H39.7408H38.5144H38.2185C37.3382 26.3832 36.6245 27.089 36.6245 27.9596V36.9715C36.6245 37.8422 37.3382 38.548 38.2185 38.548H38.5144H39.7408H40.8521C41.5204 38.548 42.1497 38.3827 42.7003 38.0911L42.7086 38.0865L42.7232 38.0789C43.9445 37.4218 44.7734 36.1416 44.7735 34.6699V30.2613Z" fill="#7B61FF"/>
</svg>
