<svg width="56" height="56" viewBox="0 0 56 56" fill="none" xmlns="http://www.w3.org/2000/svg">
<path d="M45.7082 17.3571H10.2917C6.27079 17.3571 3 20.6488 3 24.6953V45.6617C3 49.7082 6.27079 53 10.2917 53H45.7083C49.7291 53 53 49.7083 53 45.6617V24.6953C52.9999 20.6488 49.7291 17.3571 45.7082 17.3571ZM50.9166 45.6618C50.9166 48.5509 48.5812 50.9034 45.7083 50.9034H10.2917C7.41874 50.9034 5.08339 48.5509 5.08339 45.6618V24.6953C5.08339 21.8061 7.41884 19.4537 10.2917 19.4537H45.7083C48.5813 19.4537 50.9166 21.8061 50.9166 24.6953V45.6618Z" fill="#7B61FF"/>
<path d="M43.6249 32.0336C41.902 32.0336 40.4999 33.4446 40.4999 35.1785C40.4999 36.9125 41.902 38.3235 43.6249 38.3235C45.3479 38.3235 46.7499 36.9125 46.7499 35.1785C46.7499 33.4446 45.3479 32.0336 43.6249 32.0336ZM43.6249 36.2269C43.052 36.2269 42.5832 35.7572 42.5832 35.1785C42.5832 34.5999 43.052 34.1302 43.6249 34.1302C44.1979 34.1302 44.6666 34.5999 44.6666 35.1785C44.6666 35.7572 44.1979 36.2269 43.6249 36.2269Z" fill="#7B61FF"/>
<path d="M51.9582 27.8402H43.6249C39.6041 27.8402 36.3332 31.1319 36.3332 35.1785C36.3332 39.225 39.604 42.5168 43.6249 42.5168H51.9582C52.5332 42.5168 52.9999 42.0471 52.9999 41.4685V28.8886C52.9999 28.3099 52.5332 27.8402 51.9582 27.8402ZM50.9166 40.4201H43.6249C40.752 40.4201 38.4166 38.0677 38.4166 35.1785C38.4166 32.2894 40.7521 29.9369 43.6249 29.9369H50.9166V40.4201ZM45.5979 17.9357L41.1874 9.05847C40.2979 7.2679 38.7624 5.94918 36.8666 5.34534C34.9708 4.74357 32.9624 4.93227 31.2083 5.87999L9.79794 17.4829C9.29169 17.7554 9.10214 18.3928 9.37499 18.9023C9.64794 19.4118 10.2812 19.6026 10.7854 19.328L32.1999 7.72923C33.4499 7.04992 34.8895 6.9136 36.2395 7.34554C37.5937 7.77532 38.6895 8.71882 39.3249 9.99784L43.7354 18.875C43.8219 19.0489 43.9549 19.1952 44.1194 19.2974C44.2838 19.3996 44.4733 19.4537 44.6666 19.4537C44.8229 19.4537 44.9812 19.418 45.1312 19.3425C45.6457 19.0826 45.8541 18.4536 45.5979 17.9357Z" fill="#7B61FF"/>
<path d="M41.4187 9.52393C41.1437 9.01238 40.5104 8.82368 40.0062 9.09621L24.5292 17.4828C24.0229 17.7575 23.8334 18.3927 24.1062 18.9022C24.2937 19.2545 24.652 19.4537 25.0229 19.4537C25.1896 19.4537 25.3604 19.4139 25.5187 19.3299L40.9957 10.9434C41.502 10.6687 41.6916 10.0334 41.4187 9.52393ZM21.75 11.0671H14.4583C8.14169 11.0671 3 16.2395 3 22.5986V24.6953C3 25.2739 3.4667 25.7436 4.0417 25.7436C4.6167 25.7436 5.08339 25.2739 5.08339 24.6953V22.5986C5.08339 17.3969 9.28964 13.1637 14.4584 13.1637H21.75C22.325 13.1637 22.7917 12.6941 22.7917 12.1154C22.7917 11.5367 22.325 11.0671 21.75 11.0671ZM41.5416 11.0671C40.9666 11.0671 40.4999 11.5368 40.4999 12.1155C40.4999 12.6942 40.9666 13.1638 41.5416 13.1638C46.7104 13.1638 50.9166 17.397 50.9166 22.5988V24.6953C50.9166 25.2739 51.3833 25.7437 51.9583 25.7437C52.5333 25.7437 53 25.2739 53 24.6953V22.5988C52.9999 16.2395 47.8582 11.0671 41.5416 11.0671Z" fill="#7B61FF"/>
</svg>
