<svg width="56" height="56" viewBox="0 0 56 56" fill="none" xmlns="http://www.w3.org/2000/svg">
<rect width="56" height="56" rx="6" fill="white"/>
<path d="M41.0225 25.378C40.6109 25.3114 40.2194 25.5777 40.1505 25.9702C40.0565 26.5034 39.9454 27.0337 39.8175 27.5605C39.7952 27.6527 39.7922 27.7482 39.8087 27.8416C39.8252 27.9349 39.8608 28.0243 39.9136 28.1045C39.9664 28.1848 40.0353 28.2543 40.1163 28.3092C40.1974 28.3641 40.289 28.4033 40.386 28.4245C40.4419 28.4369 40.4992 28.4432 40.5566 28.4432C40.7279 28.4429 40.8941 28.3875 41.028 28.2859C41.1619 28.1844 41.2558 28.0426 41.2942 27.8838C41.4288 27.3285 41.5457 26.7695 41.6449 26.2076C41.6613 26.1142 41.6582 26.0187 41.6358 25.9265C41.6134 25.8342 41.5722 25.7471 41.5144 25.6701C41.4566 25.593 41.3834 25.5276 41.299 25.4775C41.2146 25.4273 41.1206 25.3935 41.0225 25.378ZM41.5166 18.6529C41.412 18.2675 40.998 18.0351 40.5937 18.1348C40.3992 18.1826 40.2326 18.3019 40.1305 18.4666C40.0284 18.6312 39.9991 18.8277 40.0492 19.0128C40.3392 20.0843 40.4856 21.1864 40.485 22.2929C40.485 22.691 40.8241 23.0135 41.2425 23.0135C41.661 23.0135 42 22.691 42 22.2929C42.0006 21.065 41.8382 19.842 41.5166 18.6529ZM39.9538 15.0142C37.8846 11.5985 34.3904 9.05088 30.3677 8.02466C29.9647 7.92188 29.5481 8.14974 29.4398 8.53392C29.4139 8.62532 29.4073 8.72067 29.4203 8.81451C29.4332 8.90836 29.4654 8.99885 29.5151 9.08084C29.5649 9.16282 29.6311 9.23468 29.71 9.29232C29.7889 9.34995 29.8789 9.39223 29.975 9.41673C33.6128 10.3446 36.7713 12.647 38.6408 15.7337C38.6905 15.8157 38.7566 15.8876 38.8355 15.9453C38.9144 16.0031 39.0044 16.0454 39.1005 16.07C39.1966 16.0946 39.2968 16.1009 39.3954 16.0887C39.4941 16.0764 39.5893 16.0458 39.6755 15.9985C39.7617 15.9513 39.8373 15.8883 39.8979 15.8133C39.9586 15.7383 40.0031 15.6526 40.029 15.5612C40.0548 15.4698 40.0615 15.3744 40.0486 15.2806C40.0357 15.1867 40.0035 15.0962 39.9538 15.0142Z" fill="#7B61FF"/>
<path d="M26.7983 46.3334C27.2746 45.8239 38.4645 33.7192 38.4645 22.2929C38.4645 15.9957 32.9771 10.8723 26.2323 10.8723C19.4872 10.8723 14 15.9956 14 22.2929C14 25.042 14.6608 28.0715 15.9646 31.2974C16.1146 31.669 16.5525 31.8555 16.9433 31.7113C17.0362 31.6773 17.1211 31.6264 17.1933 31.5612C17.2654 31.4961 17.3234 31.418 17.3638 31.3316C17.4042 31.2451 17.4263 31.1519 17.4289 31.0573C17.4314 30.9627 17.4144 30.8685 17.3787 30.7802C16.1421 27.7198 15.515 24.8645 15.515 22.293C15.515 16.7906 20.3226 12.314 26.2321 12.314C32.1415 12.314 36.9491 16.7906 36.9491 22.293C36.9491 31.7404 28.5182 42.1034 26.2313 44.7398C25.2048 43.5595 22.9431 40.8314 20.7755 37.3497C20.6716 37.1881 20.5051 37.072 20.3119 37.0263C20.1187 36.9806 19.9144 37.0091 19.7431 37.1056C19.5718 37.2021 19.4473 37.3589 19.3965 37.542C19.3457 37.7251 19.3727 37.9199 19.4717 38.0842C22.4612 42.8858 25.5362 46.1949 25.6658 46.3333C25.7534 46.4268 25.865 46.497 25.9897 46.537L23.4529 46.5431C23.2536 46.5456 23.0633 46.6228 22.9234 46.7579C22.7835 46.893 22.7052 47.0751 22.7054 47.2647C22.7057 47.4544 22.7846 47.6363 22.9249 47.7711C23.0652 47.9058 23.2557 47.9825 23.455 47.9845H37.3991C37.5985 47.982 37.7887 47.9048 37.9287 47.7697C38.0686 47.6345 38.147 47.4524 38.1467 47.2627C38.1464 47.073 38.0676 46.891 37.9272 46.7563C37.7869 46.6215 37.5964 46.5448 37.397 46.5428L26.4777 46.5359C26.6012 46.4959 26.7117 46.4262 26.7983 46.3334Z" fill="#7B61FF"/>
<path d="M19.0322 34.3201C18.8255 33.9285 18.6252 33.5339 18.4311 33.1365C18.2551 32.7754 17.8045 32.6187 17.425 32.7858C17.2427 32.8663 17.1014 33.0123 17.0324 33.1919C16.9633 33.3714 16.9719 33.5697 17.0565 33.7432C17.2571 34.154 17.4642 34.5619 17.6778 34.9667C17.7224 35.0514 17.7841 35.1268 17.8593 35.1888C17.9346 35.2507 18.022 35.298 18.1164 35.3278C18.2109 35.3576 18.3106 35.3694 18.4098 35.3625C18.5091 35.3556 18.6059 35.3302 18.6948 35.2877C18.8744 35.2019 19.0107 35.0518 19.074 34.8703C19.1373 34.6889 19.1222 34.491 19.0322 34.3201ZM26.232 28.6305C29.7788 28.6305 32.6646 25.8849 32.6646 22.5104C32.6647 19.1355 29.7789 16.39 26.232 16.39C22.6848 16.39 19.7993 19.1356 19.7993 22.5104C19.7992 25.885 22.6851 28.6305 26.232 28.6305ZM26.232 17.8315C28.9474 17.8315 31.1493 19.9264 31.1493 22.5104C31.1493 25.0942 28.9474 27.189 26.232 27.189C23.5162 27.189 21.3144 25.0941 21.3144 22.5104C21.3144 19.9263 23.5164 17.8315 26.232 17.8315ZM20.8789 46.5539H20.8769L19.1597 46.5583C18.9588 46.5589 18.7663 46.6354 18.6246 46.7709C18.4829 46.9065 18.4036 47.09 18.4041 47.2812C18.4048 47.472 18.4849 47.6548 18.6269 47.7895C18.7689 47.9242 18.9613 47.9999 19.1618 48H19.1639L20.881 47.9954C20.9805 47.9953 21.079 47.9765 21.1709 47.9402C21.2627 47.9038 21.3462 47.8506 21.4164 47.7836C21.4867 47.7166 21.5423 47.6371 21.5803 47.5496C21.6182 47.4621 21.6377 47.3683 21.6376 47.2737C21.6374 47.179 21.6177 47.0853 21.5795 46.9979C21.5413 46.9105 21.4854 46.8311 21.4149 46.7643C21.3445 46.6975 21.2609 46.6445 21.1689 46.6084C21.077 46.5723 20.9784 46.5538 20.8789 46.5539ZM16.8154 46.5543L16.6635 46.5585C16.4627 46.5645 16.2726 46.6461 16.135 46.7854C15.9974 46.9247 15.9235 47.1102 15.9296 47.3013C15.9357 47.4885 16.0181 47.666 16.1594 47.7964C16.3006 47.9268 16.4896 47.9997 16.6864 47.9999C16.6944 47.9999 16.7024 47.9999 16.7103 47.9996L16.8621 47.9952C17.0629 47.9892 17.253 47.9076 17.3907 47.7683C17.5283 47.629 17.6022 47.4434 17.5961 47.2524C17.5831 46.8549 17.2333 46.544 16.8154 46.5543Z" fill="#7B61FF"/>
</svg>
