<svg width="20" height="19" viewBox="0 0 20 19"   xmlns="http://www.w3.org/2000/svg">
<path fill-rule="evenodd" clip-rule="evenodd" d="M4 5.86667V16.1333H7V5.86667H4ZM3 4C2.44772 4 2 4.41787 2 4.93333V17.0667C2 17.5821 2.44772 18 3 18H8C8.55228 18 9 17.5821 9 17.0667V4.93333C9 4.41787 8.55228 4 8 4H3Z"  />
<path fill-rule="evenodd" clip-rule="evenodd" d="M13 2.88889V16.1111H16V2.88889H13ZM12 1C11.4477 1 11 1.42284 11 1.94444V17.0556C11 17.5772 11.4477 18 12 18H17C17.5523 18 18 17.5772 18 17.0556V1.94444C18 1.42284 17.5523 1 17 1H12Z"  />
</svg>
