<svg width="24" height="24" viewBox="0 0 24 24" fill="none" xmlns="http://www.w3.org/2000/svg">
<path d="M7.1 14.1H6.4C6.0287 14.1 5.6726 13.9525 5.41005 13.6899C5.1475 13.4274 5 13.0713 5 12.7V6.4C5 6.0287 5.1475 5.6726 5.41005 5.41005C5.6726 5.1475 6.0287 5 6.4 5H12.7C13.0713 5 13.4274 5.1475 13.6899 5.41005C13.9525 5.6726 14.1 6.0287 14.1 6.4V7.1M11.3 9.9H17.6C18.3732 9.9 19 10.5268 19 11.3V17.6C19 18.3732 18.3732 19 17.6 19H11.3C10.5268 19 9.9 18.3732 9.9 17.6V11.3C9.9 10.5268 10.5268 9.9 11.3 9.9Z" stroke="#222222" stroke-width="2" stroke-linecap="round" stroke-linejoin="round"/>
</svg>
