<svg width="24" height="24" xmlns="http://www.w3.org/2000/svg"><path fill-rule="evenodd" clip-rule="evenodd" d="M8.889 4.5a.5.5 0 01.5.5v.9h5.222V5a.5.5 0 011 0v.9h1.833c1.085 0 2.056.802 2.056 1.9v9.8c0 1.098-.971 1.9-2.056 1.9H6.556c-1.085 0-2.056-.802-2.056-1.9V7.8c0-1.098.971-1.9 2.056-1.9h1.833V5a.5.5 0 01.5-.5zm-.5 2.4H6.556c-.634 0-1.056.451-1.056.9v2.3h13V7.8c0-.449-.422-.9-1.056-.9h-1.833v.9a.5.5 0 11-1 0v-.9H9.39v.9a.5.5 0 01-1 0v-.9zM18.5 11.1h-13v6.5c0 .449.422.9 1.056.9h10.888c.634 0 1.056-.451 1.056-.9v-6.5z"/></svg>