<svg width="17" height="15" xmlns="http://www.w3.org/2000/svg">
<path fill-rule="evenodd" clip-rule="evenodd" d="M2.5 0a.5.5 0 01.5.5v6a.5.5 0 11-1 0v-6a.5.5 0 01.5-.5zM8.5 7a.5.5 0 01.5.5v7a.5.5 0 01-1 0v-7a.5.5 0 01.5-.5zM8.5 0a.5.5 0 01.5.5v4a.5.5 0 11-1 0v-4a.5.5 0 01.5-.5zM14.5 9a.5.5 0 01.5.5v5a.5.5 0 11-1 0v-5a.5.5 0 01.5-.5zM14.5 0a.5.5 0 01.5.5v6a.5.5 0 11-1 0v-6a.5.5 0 01.5-.5zM2.5 9a.5.5 0 01.5.5v5a.5.5 0 01-1 0v-5a.5.5 0 01.5-.5z" />
<path fill-rule="evenodd" clip-rule="evenodd" d="M0 9.5A.5.5 0 01.5 9h4a.5.5 0 010 1h-4a.5.5 0 01-.5-.5zM6 4.5a.5.5 0 01.5-.5h4a.5.5 0 110 1h-4a.5.5 0 01-.5-.5zM12 9.5a.5.5 0 01.5-.5h4a.5.5 0 110 1h-4a.5.5 0 01-.5-.5z" /></svg>