<svg width="24" height="24" fill="none" xmlns="http://www.w3.org/2000/svg"><path d="M11.25 22.2v-1.73c-2.083-.214-3.836-1.033-5.26-2.458-1.425-1.424-2.244-3.178-2.458-5.261H1.8v-1.5h1.73c.215-2.084 1.034-3.837 2.458-5.262 1.425-1.424 3.178-2.243 5.262-2.457V1.8h1.5v1.73c2.083.215 3.837 1.034 5.261 2.458 1.425 1.425 2.244 3.178 2.458 5.262h1.73v1.5h-1.73c-.214 2.083-1.033 3.837-2.458 5.261-1.424 1.425-3.178 2.244-5.261 2.458v1.73h-1.5zM12 19c1.934 0 3.584-.683 4.95-2.05C18.318 15.585 19 13.935 19 12c0-1.933-.683-3.583-2.05-4.95C15.585 5.685 13.935 5 12 5c-1.933 0-3.583.684-4.95 2.05C5.685 8.418 5 10.068 5 12c0 1.934.684 3.584 2.05 4.95C8.418 18.318 10.068 19 12 19zm0-3.5c-.962 0-1.786-.342-2.471-1.027C8.843 13.787 8.5 12.963 8.5 12c0-.963.342-1.787 1.028-2.472C10.214 8.843 11.039 8.5 12 8.5s1.786.342 2.472 1.028c.685.685 1.028 1.51 1.028 2.472s-.343 1.786-1.028 2.472c-.686.685-1.51 1.028-2.472 1.028z" fill="#7B61FF"/></svg>