<svg width="20" height="20"  xmlns="http://www.w3.org/2000/svg"><path fill-rule="evenodd" clip-rule="evenodd" d="M11.874 1.925a5.268 5.268 0 014.144 0c.655.28 1.25.69 1.748 1.205a5.538 5.538 0 011.16 1.792 5.65 5.65 0 010 4.21 5.537 5.537 0 01-1.16 1.79l-7.049 7.274a1 1 0 01-1.436 0l-7.048-7.273A5.6 5.6 0 01.666 7.027 5.6 5.6 0 012.233 3.13a5.319 5.319 0 013.82-1.63c1.438 0 2.939.59 3.946 1.63.499-.514 1.22-.924 1.875-1.205zM13.946 3.5c-.44 0-.877.09-1.286.264a3.378 3.378 0 00-1.097.758l-.846.872a1 1 0 01-1.436 0l-.845-.872A3.319 3.319 0 006.052 3.5c-.887 0-1.745.364-2.383 1.022a3.6 3.6 0 00-1.003 2.505A3.6 3.6 0 003.669 9.53l6.33 6.532 6.33-6.532c.316-.326.569-.715.742-1.145a3.65 3.65 0 000-2.719 3.537 3.537 0 00-.741-1.145 3.38 3.38 0 00-1.099-.758 3.267 3.267 0 00-1.285-.264z"  /></svg>