<svg width="16" height="16" viewBox="0 0 16 16"   xmlns="http://www.w3.org/2000/svg">
<path d="M11.6689 0H4.33105C1.94287 0 0 1.94287 0 4.33105V11.669C0 14.0571 1.94287 16 4.33105 16H11.669C14.0571 16 16 14.0571 16 11.669V4.33105C16 1.94287 14.0571 0 11.6689 0V0ZM7.99998 12.3749C5.58764 12.3749 3.62511 10.4123 3.62511 7.99998C3.62511 5.58764 5.58764 3.62511 7.99998 3.62511C10.4123 3.62511 12.3749 5.58764 12.3749 7.99998C12.3749 10.4123 10.4123 12.3749 7.99998 12.3749ZM12.4795 4.65685C11.7666 4.65685 11.1867 4.07702 11.1867 3.36413C11.1867 2.65124 11.7666 2.07128 12.4795 2.07128C13.1924 2.07128 13.7723 2.65124 13.7723 3.36413C13.7723 4.07702 13.1924 4.65685 12.4795 4.65685Z"  />
<path d="M8 5C6.34587 5 5 6.34576 5 8C5 9.65413 6.34587 11 8 11C9.65424 11 11 9.65413 11 8C11 6.34576 9.65424 5 8 5Z"  />
</svg>
