<svg width="15" height="19" viewBox="0 0 15 19" xmlns="http://www.w3.org/2000/svg">
<path fill-rule="evenodd" clip-rule="evenodd" d="M7.5 1.5C5.85875 1.5 4.28094 2.17553 3.11475 3.38412C1.94798 4.59333 1.28947 6.23705 1.28947 7.95455C1.28947 10.4647 2.85732 12.8563 4.51378 14.6683C5.33283 15.5643 6.15344 16.2968 6.76973 16.8054C7.07106 17.0541 7.32262 17.2485 7.5 17.3815C7.67738 17.2485 7.92894 17.0541 8.23027 16.8054C8.84656 16.2968 9.66717 15.5643 10.4862 14.6683C12.1427 12.8563 13.7105 10.4647 13.7105 7.95455C13.7105 6.23705 13.052 4.59333 11.8852 3.38412C10.7191 2.17553 9.14126 1.5 7.5 1.5ZM7.5 18L7.78422 18.4114C7.61317 18.5295 7.38683 18.5295 7.21579 18.4114L7.5 18ZM2.39513 2.68975C3.74588 1.28989 5.58177 0.5 7.5 0.5C9.41823 0.5 11.2541 1.28989 12.6049 2.68975C13.955 4.08901 14.7105 5.98312 14.7105 7.95455C14.7105 10.8534 12.9231 13.4847 11.2243 15.343C10.3657 16.2823 9.5087 17.0469 8.86677 17.5767C8.54543 17.8419 8.27701 18.049 8.08796 18.1905C7.9934 18.2613 7.91863 18.3157 7.86692 18.3528C7.84107 18.3714 7.82097 18.3856 7.80705 18.3954L7.79085 18.4068L7.78632 18.4099L7.78422 18.4114C7.78422 18.4114 7.78422 18.4114 7.5 18C7.21579 18.4114 7.21579 18.4114 7.21579 18.4114L7.21368 18.4099L7.20915 18.4068L7.19295 18.3954C7.17903 18.3856 7.15894 18.3714 7.13308 18.3528C7.08138 18.3157 7.0066 18.2613 6.91205 18.1905C6.72299 18.049 6.45457 17.8419 6.13323 17.5767C5.4913 17.0469 4.63428 16.2823 3.77569 15.343C2.0769 13.4847 0.289474 10.8534 0.289474 7.95455C0.289475 5.98312 1.04497 4.08901 2.39513 2.68975ZM7.5 5.97368C6.54077 5.97368 5.76316 6.7513 5.76316 7.71053C5.76316 8.66976 6.54077 9.44737 7.5 9.44737C8.45923 9.44737 9.23684 8.66976 9.23684 7.71053C9.23684 6.7513 8.45923 5.97368 7.5 5.97368ZM4.76316 7.71053C4.76316 6.19901 5.98848 4.97368 7.5 4.97368C9.01152 4.97368 10.2368 6.19901 10.2368 7.71053C10.2368 9.22204 9.01152 10.4474 7.5 10.4474C5.98848 10.4474 4.76316 9.22204 4.76316 7.71053Z" />
</svg>
