<svg width="20" height="20" viewBox="0 0 20 20" fill="none" xmlns="http://www.w3.org/2000/svg">
<path d="M16.8318 3.51041C16.8149 3.42571 16.7732 3.34793 16.7121 3.28686C16.6511 3.22579 16.5733 3.18416 16.4886 3.16722C14.1116 2.69189 11.6278 3.24097 9.67376 4.67342C9.63268 4.7038 9.5971 4.74099 9.56857 4.78338C9.47126 4.92913 9.49491 5.01806 9.49491 5.55967L9.37985 5.4446C9.21166 5.27634 8.93983 5.27336 8.76801 5.43787C8.71083 5.49259 8.92788 5.27628 5.63624 8.56813C5.06473 9.13969 4.74998 9.89954 4.74998 10.7077V14.6311L3.12815 16.2531C2.95728 16.424 2.95728 16.701 3.12815 16.8718C3.29902 17.0427 3.57601 17.0427 3.74686 16.8718L5.36868 15.2499H9.29186C10.1 15.2499 10.8598 14.9351 11.4312 14.3636L12.0401 13.7547C12.3527 13.6609 12.4594 13.2624 12.2234 13.0263L11.8721 12.675C13.0174 12.675 13.0028 12.6896 13.1228 12.6337C13.2999 12.6092 13.4427 12.479 13.486 12.3087C14.5762 11.2184 15.5908 10.3424 16.3469 8.50688C17.0247 6.86127 17.1538 5.12006 16.8318 3.51041ZM13.8455 10.7116L12.7939 11.7633H10.8723C10.7325 11.7283 10.5792 11.7631 10.4672 11.8679C10.2288 12.0186 10.1945 12.3499 10.3914 12.5469L11.2009 13.3564L10.8125 13.7448C10.4064 14.1511 9.86629 14.3749 9.29188 14.3749H6.24368L13.8093 6.80865C13.9802 6.6378 13.9802 6.36076 13.8093 6.1899C13.6384 6.01905 13.3614 6.01905 13.1906 6.1899L5.62497 13.7561V10.7077C5.62497 10.1333 5.84873 9.59316 6.25494 9.18688L9.06969 6.37197C9.65823 6.96053 9.69206 7.03467 9.89497 7.05162C10.1177 7.07104 10.3215 6.91812 10.3624 6.69544C10.3732 6.63662 10.3699 6.72443 10.3699 5.25195C12.0167 4.11529 14.0512 3.656 16.0262 3.97296C16.4165 6.40323 15.6534 8.90364 13.8455 10.7116Z" fill="#8F8F8F"/>
</svg>
