<svg width="24" height="24" viewBox="0 0 24 24"  xmlns="http://www.w3.org/2000/svg">
<path fill-rule="evenodd" clip-rule="evenodd" d="M12 2C12.2701 2 12.5287 2.10926 12.717 2.30292L16.217 5.90292C16.602 6.29891 16.5931 6.93201 16.1971 7.31699C15.8011 7.70198 15.168 7.69306 14.783 7.29708L13 5.46313V14.7C13 15.2523 12.5523 15.7 12 15.7C11.4477 15.7 11 15.2523 11 14.7V5.46313L9.21699 7.29708C8.83201 7.69306 8.19891 7.70198 7.80292 7.31699C7.40694 6.93201 7.39802 6.29891 7.783 5.90292L11.283 2.30292C11.4713 2.10926 11.7299 2 12 2ZM5 11C5.55228 11 6 11.4477 6 12V19.2C6 19.4211 6.08566 19.6277 6.22956 19.7757C6.37252 19.9228 6.56032 20 6.75 20H17.25C17.4397 20 17.6275 19.9228 17.7704 19.7757C17.9143 19.6277 18 19.4211 18 19.2V12C18 11.4477 18.4477 11 19 11C19.5523 11 20 11.4477 20 12V19.2C20 19.9337 19.7169 20.6427 19.2044 21.1699C18.691 21.698 17.9886 22 17.25 22H6.75C6.01142 22 5.30898 21.698 4.79557 21.1699C4.28308 20.6427 4 19.9337 4 19.2V12C4 11.4477 4.44772 11 5 11Z" />
</svg>
