<svg width="24" height="24" viewBox="0 0 24 24" fill="none" xmlns="http://www.w3.org/2000/svg">
<path d="M22.8319 15.2664C22.648 15.2714 22.4682 15.3194 22.3078 15.4063C22.1475 15.4931 22.0116 15.6162 21.9117 15.7648L18.0085 21.396L15.5604 19.8183C15.4365 19.7303 15.2953 19.6673 15.1453 19.6333C14.9954 19.5993 14.8399 19.595 14.6881 19.6205C14.5364 19.6461 14.3916 19.701 14.2626 19.782C14.1335 19.8629 14.0229 19.9683 13.9374 20.0916C13.8519 20.2149 13.7933 20.3537 13.7651 20.4994C13.7369 20.6452 13.7397 20.7949 13.7734 20.9396C13.8071 21.0843 13.871 21.2209 13.9611 21.3411C14.0513 21.4613 14.1658 21.5627 14.2979 21.6391L17.7003 23.8182C17.9507 23.978 18.2567 24.0356 18.5512 23.9785C18.8457 23.9213 19.1046 23.7541 19.271 23.5134L23.8034 16.9718C23.9211 16.8055 23.9886 16.611 23.9987 16.41C24.0087 16.209 23.9608 16.0092 23.8603 15.8327C23.7598 15.6562 23.6105 15.51 23.429 15.41C23.2475 15.3101 23.0409 15.2604 22.8319 15.2664Z" fill="#DF1F26"/>
<path fill-rule="evenodd" clip-rule="evenodd" d="M11.9524 8.72727C13.767 8.72727 15.2381 7.26202 15.2381 5.45454C15.2381 3.64707 13.767 2.18182 11.9524 2.18182C10.1377 2.18182 8.66667 3.64707 8.66667 5.45454C8.66667 7.26202 10.1377 8.72727 11.9524 8.72727ZM11.9524 10.9091C14.9768 10.9091 17.4286 8.467 17.4286 5.45454C17.4286 2.44208 14.9768 0 11.9524 0C8.92796 0 6.47619 2.44208 6.47619 5.45454C6.47619 8.467 8.92796 10.9091 11.9524 10.9091Z" fill="#DF1F26"/>
<path d="M3.96587 17.2967C3.28949 17.8956 3.19048 18.3318 3.19048 18.5005C3.19048 18.7355 3.32057 19.3093 3.74007 19.9779C4.14274 20.6197 4.67987 21.1341 5.24339 21.4069C5.78595 21.6697 6.55951 21.8021 7.76707 21.8167C8.3566 21.8239 8.98661 21.8039 9.69803 21.7796L9.7939 21.7763C10.1338 21.7647 10.4901 21.7525 10.8573 21.7433C11.4619 21.7282 11.9524 22.2168 11.9524 22.8192C11.9524 23.4217 11.462 23.9102 10.8573 23.9259C10.5197 23.9346 10.1866 23.946 9.85872 23.9572C7.71118 24.0306 5.78738 24.0963 4.28571 23.3692C2.25803 22.3874 1 20.0138 1 18.5005C1 16.4982 3.20252 14.5672 6.47619 13.6319C8.08714 13.1716 9.95747 13.0909 11.9524 13.0909C13.9473 13.0909 15.8176 13.1716 17.4286 13.6319C17.9376 13.7773 18.0834 14.4031 17.7196 14.7863L17.3037 15.2244C17.0094 15.5344 16.5671 15.6501 16.147 15.566C14.9863 15.3336 13.6026 15.2727 11.9524 15.2727C9.96823 15.2727 8.36951 15.3607 7.08018 15.7291C5.68162 16.1287 4.627 16.7112 3.96587 17.2967Z" fill="#DF1F26"/>
</svg>
