<svg width="35" height="28" viewBox="0 0 35 28" fill="none" xmlns="http://www.w3.org/2000/svg">
<path d="M22.0862 19.9563C22.0089 20.0336 20.7713 19.4148 20.6939 19.4922C20.6166 19.5695 20.7713 20.8845 20.6939 20.9618C20.6166 21.0392 19.5337 20.4977 19.5337 20.5751L26.3403 26.9175C26.5723 27.1495 26.8817 27.0721 27.1138 26.7628L28.4287 25.3705C28.6608 25.1385 28.6608 24.7518 28.4287 24.5197L22.1635 18.7188C22.0861 18.7188 22.1635 19.8789 22.0862 19.9563Z" fill="#935656"/>
<path d="M5.53397 14.9282L7.46768 12.9171C7.77707 12.6077 7.69972 12.0663 7.39033 11.7569L7.15829 11.5249L11.9539 6.41989L10.0202 4.56354C10.7163 2.62984 12.4179 1.39227 13.8876 0.928174C13.5782 0.618784 13.2688 0.309392 12.9594 0C11.4125 0.38674 9.4787 1.62431 8.16381 3.09392L3.52292 8.0442L3.29088 7.81216C2.98149 7.50277 2.44005 7.50277 2.13066 7.81216L0.196959 9.82319C-0.112433 10.1326 -0.0350853 10.674 0.274307 10.9834L4.4511 14.9282C4.68315 15.2376 5.22458 15.2376 5.53397 14.9282Z" fill="#935656"/>
<path d="M3.83221 5.87894C4.06425 6.11097 4.45099 6.03363 4.68304 5.80159L5.99795 4.40937C6.22999 4.17734 6.22999 3.7906 5.99795 3.55857L5.45652 3.17184C5.22448 2.93981 4.83774 3.01715 4.60569 3.24919L3.36813 4.56406C3.13608 4.87344 3.13608 5.18283 3.36813 5.41487L3.83221 5.87894Z" fill="#935656"/>
<path d="M11.4128 8.74069C11.1808 8.50865 10.794 8.586 10.562 8.81802L9.24701 10.2103C9.01496 10.4424 9.01496 10.8291 9.24701 11.0612L12.573 14.2324L14.7388 12.0666L11.4128 8.74069Z" fill="#935656"/>
<path d="M21.9314 16.1665L16.9038 11.2163L3.9093 24.3655L7.38996 27.6914L7.62201 27.5367L8.9369 28.0008V26.6085L9.01425 26.5312L10.3292 26.9953L10.4066 25.603V25.5257L11.7215 25.9897L11.7988 24.5975L13.1911 24.9843V23.592H13.2684L14.5834 24.0561V22.5864H14.6607L15.9756 23.0505V21.6583L16.0529 21.5809L17.3679 22.045V20.6527L17.4452 20.5754L18.7601 21.0395V19.6472L18.8374 19.5698L20.1524 20.0339V18.6416H20.2297L21.5447 19.0284V17.6362H21.622L22.9369 18.0229L23.0143 16.6306L21.9314 16.1665Z" fill="#935656"/>
<path d="M34.1528 9.82362L26.9595 2.78489C26.3407 2.16611 25.2578 2.16611 24.639 2.78489L18.4511 9.12747C17.8323 9.74627 17.8323 10.8292 18.4511 11.448L22.0865 15.0833L27.4236 16.6303C28.2743 16.8624 29.1252 17.249 29.744 16.6303L34.1528 12.144C34.7716 11.448 34.7716 10.4424 34.1528 9.82362ZM20.4622 11.68C19.9981 11.68 19.6114 11.2159 19.6887 10.7518C19.6887 10.2877 20.1528 9.90097 20.6169 9.97832C21.081 10.0557 21.4677 10.4424 21.3903 10.9065C21.313 11.2933 20.9263 11.68 20.4622 11.68ZM23.5561 14.5419C23.092 14.5419 22.7053 14.0778 22.7826 13.6137C22.7826 13.1496 23.2467 12.7628 23.7108 12.8402C24.1749 12.8402 24.5617 13.3043 24.4843 13.7684C24.407 14.2325 24.0202 14.6192 23.5561 14.5419ZM31.4457 11.2159L29.0478 13.6137C28.5064 14.1551 27.733 14.1551 27.1915 13.6137L22.86 9.35952C22.3185 8.81807 22.3185 8.0446 22.86 7.50316L25.2578 5.10535C25.7992 4.56391 26.5727 4.56391 27.1142 5.10535L31.4457 9.35952C31.987 9.82362 31.987 10.6745 31.4457 11.2159Z" fill="#935656"/>
</svg>
