<svg width="25" height="28" viewBox="0 0 25 28" fill="none" xmlns="http://www.w3.org/2000/svg">
<g clip-path="url(#clip0_61_601)">
<path d="M10.2225 11.2364H9.30294C4.70505 11.2364 1.02672 14.8412 1.02672 19.3471V20.4736H0.260406V22.1258H7.38716V20.4736H6.5442V19.3471C6.5442 17.8451 7.77031 16.6436 9.30294 16.6436H10.2225V17.5447H11.9084V10.5605H10.2225V11.2364Z" fill="#3CADDE"/>
<path d="M17.2724 5.90381V7.55598H18.1154V8.68247C18.1154 10.1844 16.8893 11.386 15.3565 11.386H14.437V10.4849H12.7511V17.469H14.437V16.7932H15.3565C19.9545 16.7932 23.6329 13.1884 23.6329 8.68247V7.55598H24.3992V5.90381H17.2724Z" fill="#3CADDE"/>
<path d="M24.3225 3.50083H23.5562V0.722168H18.0387V3.50083H17.2724V5.15301H24.3225V3.50083Z" fill="#3CADDE"/>
<path d="M0.260406 24.5287H1.02672V27.3073H6.5442V24.5287H7.31053V22.8765H0.260406V24.5287Z" fill="#3CADDE"/>
</g>
<defs>
<clipPath id="clip0_61_601">
<rect width="25" height="28" fill="white"/>
</clipPath>
</defs>
</svg>
