<svg width="27" height="28" viewBox="0 0 27 28" fill="none" xmlns="http://www.w3.org/2000/svg">
<g clip-path="url(#clip0_61_606)">
<path fill-rule="evenodd" clip-rule="evenodd" d="M18.6318 21.1977L23.586 22.3051C23.8219 22.3842 23.9792 22.6215 23.9792 22.8588L23.9005 23.3334L26.8888 23.9661C26.9674 23.9661 27.046 24.0452 26.9674 24.1243L26.7315 24.9944C26.7315 25.0735 26.6529 25.1525 26.5742 25.0735L23.586 24.5198L23.2714 25.9435L26.2597 26.5763C26.3383 26.5763 26.4169 26.6554 26.3383 26.7345L26.1024 27.6836C26.1024 27.7627 26.0238 27.8418 25.9451 27.7627L22.9569 27.13L22.8783 27.6045C22.7996 27.8418 22.5637 28 22.3277 28L17.3735 26.8926C16.5085 26.6554 15.958 25.7853 16.1153 24.9153L16.1939 24.4407L16.5871 22.7796L16.6658 22.4633C16.9017 21.5141 17.7667 20.9605 18.6318 21.1977ZM18.789 0.790959L26.0238 8.85879C26.0238 9.2542 26.0238 9.64969 26.0238 10.0452C25.6306 10.1243 25.1587 10.2034 24.7656 10.2825C24.7656 12.8136 24.7656 15.3446 24.7656 17.8757C20.5977 18.904 16.3512 19.8531 12.1833 20.8814L4.79135 17.0056V10.1243L3.92633 9.72884V8.70056L10.532 11.3107L18.789 0.790959ZM3.92633 8.06782L10.8465 0L18.0813 0.711862L10.3747 10.5989L3.92633 8.06782ZM16.9017 18.7458V12.1017L20.5191 11.4689V17.8757L23.9005 17.0847C23.9005 14.5536 23.9005 12.0226 23.9005 9.49152C24.2937 9.41244 24.7656 9.33336 25.1587 9.2542L18.8677 2.21469L11.5542 11.6271L13.0484 11.3899V19.774L16.9017 18.7458ZM9.74558 13.209L7.22912 12.1808V15.1074L9.74558 16.3729V13.209ZM15.5648 24.4407C15.2503 24.4407 14.8571 24.5198 14.5425 24.678C13.9134 24.9944 13.2843 25.2316 12.6552 25.548C9.66695 26.9718 6.60004 27.13 4.16224 26.0226C-1.0279 23.4915 -1.73565 16.3729 4.16224 13.6836V15.7401C0.544868 17.9548 1.33126 22.6215 5.02727 24.3616C6.91457 25.2316 9.43103 25.0735 11.8688 23.887C12.4979 23.5706 13.1271 23.3334 13.7562 23.017C14.4639 22.7006 15.2503 22.6215 15.958 22.6215L15.5648 24.4407Z" fill="#EBA51C"/>
</g>
<defs>
<clipPath id="clip0_61_606">
<rect width="27" height="28" fill="white"/>
</clipPath>
</defs>
</svg>
