<svg width="26" height="28" viewBox="0 0 26 28" fill="none" xmlns="http://www.w3.org/2000/svg">
<g clip-path="url(#clip0_61_608)">
<path d="M25.2671 2.91559V0H0V2.91559C0 3.38839 0.388724 3.78238 0.855197 3.78238H6.0641V7.48597C6.0641 7.56477 6.0641 7.56477 6.0641 7.64356C6.0641 7.72237 6.0641 7.72237 6.14185 7.80117V7.87997C6.21959 7.95877 6.29734 8.03756 6.37508 8.11637L6.45283 8.19516L10.0291 10.5591C10.1846 10.6379 10.34 10.7168 10.4956 10.7168C10.8066 10.7168 11.0398 10.5591 11.1953 10.3228C11.4285 9.92872 11.3508 9.3772 10.962 9.06195L7.77449 7.01317V3.86118H17.6481V7.01317L14.4606 9.14076C14.0718 9.3772 13.9163 9.92872 14.2273 10.4016C14.3828 10.6379 14.6938 10.7956 14.927 10.7956C15.0825 10.7956 15.238 10.7168 15.3935 10.6379L18.9698 8.274L19.0475 8.19516C19.1253 8.11637 19.203 8.03756 19.2807 7.95877V7.87997C19.2807 7.80117 19.2807 7.80117 19.3585 7.72237C19.3585 7.72237 19.3585 7.72237 19.3585 7.64356C19.3585 7.56477 19.3585 7.56477 19.3585 7.48597V3.78238H24.3341C24.8783 3.78238 25.2671 3.38839 25.2671 2.91559Z" fill="#197A72"/>
<path d="M13.9168 19.7784C13.9168 19.148 12.7507 17.0205 12.7507 17.0205C12.7507 17.0205 11.5845 19.148 11.5845 19.7784C11.5845 20.4088 12.1287 20.9604 12.7507 20.9604C13.3726 20.9604 13.9168 20.4088 13.9168 19.7784Z" fill="#197A72"/>
<path d="M6.21985 17.9662C5.75338 18.439 5.75338 19.1481 6.21985 19.621C6.68631 20.0938 7.38602 20.0938 7.85249 19.621C8.31894 19.1481 8.94091 16.7842 8.94091 16.7842C8.94091 16.7842 6.68631 17.4933 6.21985 17.9662Z" fill="#197A72"/>
<path d="M19.2805 17.9662C18.8141 17.4933 16.5595 16.7842 16.5595 16.7842C16.5595 16.7842 17.1814 19.1481 17.6479 19.621C18.1144 20.0938 18.8141 20.0938 19.2805 19.621C19.747 19.1481 19.747 18.439 19.2805 17.9662Z" fill="#197A72"/>
<path d="M12.7507 27.9743C13.4504 27.9743 13.9168 27.4227 13.9168 26.7923C13.9168 26.1618 12.7507 24.0342 12.7507 24.0342C12.7507 24.0342 11.5845 26.1618 11.5845 26.7923C11.5845 27.4227 12.1287 27.9743 12.7507 27.9743Z" fill="#197A72"/>
<path d="M6.53062 25.3739C6.29739 26.0043 6.60837 26.6347 7.23033 26.8711C7.85229 27.1075 8.47421 26.7923 8.70748 26.1619C8.94075 25.5315 8.62973 23.1675 8.62973 23.1675C8.62973 23.1675 6.76386 24.7436 6.53062 25.3739Z" fill="#197A72"/>
<path d="M0.933261 24.7431C1.32199 25.2159 2.02169 25.3735 2.56591 24.9795C3.03237 24.5855 4.04306 22.3003 4.04306 22.3003C4.04306 22.3003 1.63296 22.6943 1.1665 23.0883C0.62228 23.5611 0.544535 24.2703 0.933261 24.7431Z" fill="#197A72"/>
<path d="M16.9485 23.1675C16.9485 23.1675 16.6375 25.6103 16.8707 26.1619C17.1039 26.7923 17.8037 27.0288 18.3479 26.8711C18.9698 26.6347 19.2031 25.9255 19.0476 25.3739C18.7366 24.7436 16.9485 23.1675 16.9485 23.1675Z" fill="#197A72"/>
<path d="M21.5352 22.3003C21.5352 22.3003 22.4681 24.5068 23.0123 24.9796C23.4788 25.3736 24.2563 25.2948 24.645 24.7432C25.0338 24.2704 24.956 23.4824 24.4118 23.0883C23.8676 22.6944 21.5352 22.3003 21.5352 22.3003Z" fill="#197A72"/>
<path d="M17.4147 13.2382C17.4147 12.7654 17.026 12.3715 16.5596 12.3715H13.683V8.19495C13.683 7.72213 13.2943 7.32812 12.8278 7.32812C12.3613 7.32812 11.9726 7.72213 11.9726 8.19495V12.3715H9.09603C8.62958 12.3715 8.24088 12.7654 8.24088 13.2382V14.9719H17.5702V13.2382H17.4147Z" fill="#197A72"/>
</g>
<defs>
<clipPath id="clip0_61_608">
<rect width="26" height="28" fill="white"/>
</clipPath>
</defs>
</svg>
