<svg width="28" height="28" viewBox="0 0 28 28" fill="none" xmlns="http://www.w3.org/2000/svg">
<g clip-path="url(#clip0_61_619)">
<path d="M20.4881 0H13.396C13.1597 0 12.9232 0.236402 12.9232 0.472805V6.30406L0.551602 2.36402C0.472801 2.36402 0.315201 2.36402 0.1576 2.44283C0.0788002 2.52162 0 2.67923 0 2.75802V6.30406C0 6.54046 0.1576 6.69806 0.315201 6.69806L10.0076 9.37728L5.04322 12.0566H4.96442V11.0321C4.96442 10.8745 4.88561 10.7169 4.64922 10.6381C4.49161 10.5593 4.25522 10.6381 4.17641 10.7957L3.46722 11.5837L0.551602 10.6381C0.394001 10.5593 0.236401 10.6381 0.1576 10.7169C0.0788002 10.7957 0 10.8745 0 11.0321V14.5781C0 14.7357 0.1576 14.9722 0.315201 14.9722L0.472801 15.0509L0.0788002 15.445C0 15.6026 0 15.7601 0 15.9178C0.0788002 16.0754 0.1576 16.1542 0.315201 16.2329L5.67362 17.3362H5.75242C5.98882 17.3362 6.22522 17.1786 6.22522 16.8633C6.22522 16.7846 6.22522 16.7058 6.14642 16.627L6.06762 16.5482L10.0076 17.6514L4.96442 20.3306V19.3062C4.96442 19.1485 4.88561 18.991 4.64922 18.9122C4.49161 18.8334 4.25522 18.9122 4.17641 19.0698L0.0788002 23.7979C0 23.7979 0 23.9554 0 24.113C0.0788002 24.2706 0.1576 24.3495 0.315201 24.4283L5.59482 25.6103H5.67362C5.91002 25.6103 6.14642 25.4527 6.14642 25.1374C6.14642 25.0586 6.14642 24.9799 6.06762 24.9011L5.67362 23.6402L12.9232 20.0154V27.5014C12.9232 27.7379 13.1597 27.9743 13.396 27.9743H20.4881C20.7244 27.9743 20.9609 27.7379 20.9609 27.5014V0.472805C20.8821 0.236402 20.7244 0 20.4881 0ZM12.9232 14.5781L9.53482 13.4749L12.9232 11.7413V14.5781ZM0.866806 5.98885V3.38843L12.9232 7.24967V7.80127L11.1108 8.74687L0.866806 5.98885ZM0.866806 14.263V11.6625L2.83681 12.2929L1.1032 14.3418L0.866806 14.263ZM4.72801 15.2873L5.04322 16.3117L1.26081 15.445L4.09761 12.2141V12.7657C4.09761 12.9233 4.17641 13.0809 4.33401 13.1598C4.49161 13.2386 4.64922 13.2386 4.80682 13.1598L13.002 8.82568V9.29847V10.7957L4.96442 14.7357C4.72801 14.8934 4.64922 15.0509 4.72801 15.2873ZM5.75242 15.5238L5.67362 15.3662L8.35281 14.0265L12.9232 15.445V15.9966L11.1108 16.9421L5.75242 15.5238ZM4.96442 23.0098C4.72801 23.0886 4.64922 23.325 4.72801 23.5614L5.04322 24.5858L1.26081 23.719L4.09761 20.4882V21.0398C4.09761 21.1974 4.17641 21.355 4.33401 21.4338C4.49161 21.5126 4.64922 21.5126 4.80682 21.4338L13.002 17.0998V17.5726V19.0698L4.96442 23.0098ZM20.0153 27.1075H13.8688V19.3062V18.1242V16.3905V15.2085V11.0321V9.85007V8.11648V6.93446V0.866806H20.0153V27.1075Z" fill="#41527C"/>
<path d="M20.0153 27.1075H13.8688V19.3062V18.1242V16.3905V15.2085V11.0321V9.85007V8.11648V6.93446V0.866806H20.0153V27.1075Z" fill="#41527C"/>
<path d="M15.7604 17.9662C15.9968 17.9662 16.2332 17.7299 16.2332 17.4934V13.9474C16.2332 13.711 15.9968 13.4746 15.7604 13.4746C15.524 13.4746 15.2876 13.711 15.2876 13.9474V17.4934C15.2876 17.7299 15.524 17.9662 15.7604 17.9662Z" fill="#41527C"/>
<path d="M15.7604 10.3232C15.9968 10.3232 16.2332 10.0868 16.2332 9.85033V6.30435C16.2332 6.06795 15.9968 5.83154 15.7604 5.83154C15.524 5.83154 15.2876 6.06795 15.2876 6.30435V9.85033C15.2876 10.0868 15.524 10.3232 15.7604 10.3232Z" fill="#41527C"/>
<path d="M15.7604 12.6871C15.9968 12.6871 16.2332 12.4508 16.2332 12.2143V11.6627C16.2332 11.4263 15.9968 11.1899 15.7604 11.1899C15.524 11.1899 15.2876 11.4263 15.2876 11.6627V12.2143C15.2876 12.4508 15.524 12.6871 15.7604 12.6871Z" fill="#41527C"/>
<path d="M15.7604 20.3306C15.9967 20.3306 16.2332 20.0942 16.2332 19.8578V19.3063C16.2332 19.0699 15.9967 18.8335 15.7604 18.8335C15.524 18.8335 15.2876 19.0699 15.2876 19.3063V19.8578C15.2876 20.0942 15.524 20.3306 15.7604 20.3306Z" fill="#41527C"/>
<path d="M15.7604 25.6108C15.9968 25.6108 16.2332 25.3744 16.2332 25.138V21.5919C16.2332 21.3556 15.9968 21.1191 15.7604 21.1191C15.524 21.1191 15.2876 21.3556 15.2876 21.5919V25.138C15.2876 25.3744 15.524 25.6108 15.7604 25.6108Z" fill="#41527C"/>
<path d="M18.124 8.51073C18.3604 8.51073 18.5968 8.2743 18.5968 8.03789V7.48629C18.5179 7.24989 18.3604 7.09229 18.124 7.09229C17.8876 7.09229 17.6512 7.32869 17.6512 7.56509V8.11669C17.6512 8.35311 17.8876 8.51073 18.124 8.51073Z" fill="#41527C"/>
<path d="M18.124 6.1467C18.3604 6.1467 18.5968 5.9103 18.5968 5.6739V2.20669C18.5968 1.97029 18.3604 1.73389 18.124 1.73389C17.8876 1.73389 17.6512 1.97029 17.6512 2.20669V5.7527C17.6512 5.9891 17.8876 6.1467 18.124 6.1467Z" fill="#41527C"/>
<path d="M18.124 21.5121C18.3604 21.5121 18.5968 21.2757 18.5968 21.0393V17.4933C18.5968 17.2569 18.3604 17.0205 18.124 17.0205C17.8876 17.0205 17.6512 17.2569 17.6512 17.4933V21.0393C17.6512 21.2757 17.8876 21.5121 18.124 21.5121Z" fill="#41527C"/>
<path d="M18.124 13.79C18.3604 13.79 18.5968 13.5536 18.5968 13.3172V9.77113C18.5968 9.53477 18.3604 9.29834 18.124 9.29834C17.8876 9.29834 17.6512 9.53477 17.6512 9.77113V13.396C17.6512 13.6323 17.8876 13.79 18.124 13.79Z" fill="#41527C"/>
<path d="M18.124 16.1542C18.3604 16.1542 18.5968 15.9179 18.5968 15.6815V15.1299C18.5968 14.8936 18.3604 14.6572 18.124 14.6572C17.8875 14.6572 17.6512 14.8936 17.6512 15.1299V15.7603C17.6512 15.9967 17.8875 16.1542 18.124 16.1542Z" fill="#41527C"/>
<path d="M23.9555 10.5596C23.719 10.5596 23.4826 10.7959 23.4826 11.0323V11.5839C23.4826 11.8202 23.719 12.0566 23.9555 12.0566C24.1918 12.0566 24.4283 11.8202 24.4283 11.5839V11.0323C24.4283 10.7959 24.1918 10.5596 23.9555 10.5596Z" fill="#41527C"/>
<path d="M23.9555 15.9175C23.719 15.9175 23.4826 16.1539 23.4826 16.3903V16.9418C23.4826 17.1782 23.719 17.4146 23.9555 17.4146C24.1918 17.4146 24.4283 17.1782 24.4283 16.9418V16.3903C24.4283 16.0751 24.1918 15.9175 23.9555 15.9175Z" fill="#41527C"/>
<path d="M23.9555 21.1973C23.719 21.1973 23.4826 21.4336 23.4826 21.6701V22.2217C23.4826 22.458 23.719 22.6944 23.9555 22.6944C24.1918 22.6944 24.4283 22.458 24.4283 22.2217V21.6701C24.4283 21.3548 24.1918 21.1973 23.9555 21.1973Z" fill="#41527C"/>
<path d="M23.9555 0C23.719 0 23.4826 0.236401 23.4826 0.472801V1.0244C23.4826 1.26081 23.719 1.49721 23.9555 1.49721C24.1918 1.49721 24.4283 1.26081 24.4283 1.0244V0.472801C24.4283 0.236401 24.1918 0 23.9555 0Z" fill="#41527C"/>
<path d="M23.9555 5.27979C23.719 5.27979 23.4826 5.51619 23.4826 5.75259V6.30419C23.4826 6.54059 23.719 6.77699 23.9555 6.77699C24.1918 6.77699 24.4283 6.54059 24.4283 6.30419V5.75259C24.4283 5.51619 24.1918 5.27979 23.9555 5.27979Z" fill="#41527C"/>
<path d="M23.9555 26.4766C23.719 26.4766 23.4826 26.713 23.4826 26.9494V27.501C23.4826 27.7374 23.719 27.9737 23.9555 27.9737C24.1918 27.9737 24.4283 27.7374 24.4283 27.501V26.9494C24.4283 26.713 24.1918 26.4766 23.9555 26.4766Z" fill="#41527C"/>
<path d="M27.5013 10.5596C27.2649 10.5596 27.0285 10.7959 27.0285 11.0323V11.5839C27.0285 11.8202 27.2649 12.0566 27.5013 12.0566C27.7377 12.0566 27.9741 11.8202 27.9741 11.5839V11.0323C27.9741 10.7959 27.7377 10.5596 27.5013 10.5596Z" fill="#41527C"/>
<path d="M27.5013 0C27.2649 0 27.0285 0.236401 27.0285 0.472801V1.0244C27.0285 1.26081 27.2649 1.49721 27.5013 1.49721C27.7377 1.49721 27.9741 1.26081 27.9741 1.0244V0.472801C27.9741 0.236401 27.7377 0 27.5013 0Z" fill="#41527C"/>
<path d="M27.5013 15.9175C27.2649 15.9175 27.0285 16.1539 27.0285 16.3903V16.9418C27.0285 17.1782 27.2649 17.4146 27.5013 17.4146C27.7377 17.4146 27.9741 17.1782 27.9741 16.9418V16.3903C27.9741 16.0751 27.7377 15.9175 27.5013 15.9175Z" fill="#41527C"/>
<path d="M27.5013 26.4766C27.2649 26.4766 27.0285 26.713 27.0285 26.9494V27.501C27.0285 27.7374 27.2649 27.9737 27.5013 27.9737C27.7377 27.9737 27.9741 27.7374 27.9741 27.501V26.9494C27.9741 26.713 27.7377 26.4766 27.5013 26.4766Z" fill="#41527C"/>
<path d="M27.5013 21.1973C27.2649 21.1973 27.0285 21.4336 27.0285 21.6701V22.2217C27.0285 22.458 27.2649 22.6944 27.5013 22.6944C27.7377 22.6944 27.9741 22.458 27.9741 22.2217V21.6701C27.9741 21.3548 27.7377 21.1973 27.5013 21.1973Z" fill="#41527C"/>
<path d="M27.5013 5.27979C27.2649 5.27979 27.0285 5.51619 27.0285 5.75259V6.30419C27.0285 6.54059 27.2649 6.77699 27.5013 6.77699C27.7377 6.77699 27.9741 6.54059 27.9741 6.30419V5.75259C27.9741 5.51619 27.7377 5.27979 27.5013 5.27979Z" fill="#41527C"/>
</g>
<defs>
<clipPath id="clip0_61_619">
<rect width="28" height="28" fill="white"/>
</clipPath>
</defs>
</svg>
