<svg width="20" height="28" viewBox="0 0 20 28" fill="none" xmlns="http://www.w3.org/2000/svg">
<g clip-path="url(#clip0_61_643)">
<path d="M18.2601 2.99414H16.0274V4.57015H18.1006V26.2402H1.59477V4.64895H3.66797V3.07294H1.43529C0.637907 2.99414 0 3.62454 0 4.49135V26.4766C0 27.2647 0.637907 27.895 1.43529 27.895H18.1803C18.9778 27.895 19.6157 27.2647 19.6157 26.4766V4.49135C19.6954 3.62454 19.0575 2.99414 18.2601 2.99414Z" fill="#D82216"/>
<path d="M6.61835 5.35842H13.0772C14.1138 5.35842 14.9111 4.57042 14.9111 3.54601V2.83681C14.9111 2.52161 14.6719 2.36401 14.4327 2.36401H12.2798C12.2798 1.0244 11.1634 0 9.8876 0C8.5321 0 7.49547 1.10321 7.49547 2.36401H5.2628C5.02358 2.28521 4.78436 2.52161 4.78436 2.83681V3.54601C4.78436 4.49162 5.58175 5.35842 6.61835 5.35842ZM9.8876 1.3396C10.4458 1.3396 10.8445 1.81241 10.8445 2.28521C10.8445 2.75801 10.366 3.30962 9.8876 3.30962C9.32944 3.30962 8.93077 2.83681 8.93077 2.36401C8.93077 1.89121 9.32944 1.3396 9.8876 1.3396Z" fill="#D82216"/>
<path d="M8.45215 23.2458H16.107V22.1426H8.45215V23.2458Z" fill="#D82216"/>
<path d="M7.01674 20.3308C6.937 20.252 6.85725 20.252 6.77752 20.252C6.69778 20.252 6.61805 20.252 6.53831 20.3308L4.8638 21.9856L4.14615 21.2763C4.06641 21.1975 3.98667 21.1975 3.90694 21.1975C3.8272 21.1975 3.74746 21.1975 3.66772 21.2763L3.42851 21.5128C3.26903 21.6703 3.26903 21.8279 3.42851 21.9856L4.70432 23.2464C4.78406 23.3252 4.8638 23.3252 4.94354 23.3252C5.02327 23.3252 5.10301 23.3252 5.18275 23.2464L7.33569 21.1187C7.41543 21.04 7.41543 20.9612 7.41543 20.8824C7.41543 20.8036 7.41543 20.7247 7.33569 20.6459L7.01674 20.3308Z" fill="#D82216"/>
<path d="M16.107 17.73H8.45215V18.8332H16.107V17.73Z" fill="#D82216"/>
<path d="M7.25595 16.2327L7.01674 15.9963C6.937 15.9175 6.85725 15.9175 6.77752 15.9175C6.69778 15.9175 6.61805 15.9175 6.53831 15.9963L4.8638 17.6511L4.14615 16.9419C4.06641 16.8631 3.98667 16.8631 3.90694 16.8631C3.8272 16.8631 3.74746 16.8631 3.66772 16.9419L3.42851 17.1783C3.26903 17.3359 3.26903 17.4935 3.42851 17.6511L4.62458 18.8331C4.70432 18.9119 4.78406 18.9119 4.8638 18.9119C4.94354 18.9119 5.02327 18.9119 5.10301 18.8331L7.25595 16.7055C7.33569 16.6267 7.33569 16.5479 7.33569 16.4691C7.33569 16.3903 7.33569 16.3115 7.25595 16.2327Z" fill="#D82216"/>
<path d="M16.107 13.3174H8.45215V14.4206H16.107V13.3174Z" fill="#D82216"/>
<path d="M7.25595 11.8206L7.01673 11.5842C6.93699 11.5054 6.85726 11.5054 6.77751 11.5054C6.69778 11.5054 6.61804 11.5054 6.5383 11.5842L4.8638 13.2391L4.14615 12.5298C4.06641 12.451 3.98667 12.451 3.90694 12.451C3.8272 12.451 3.74746 12.451 3.66772 12.5298L3.42851 12.7663C3.26903 12.9238 3.26903 13.0814 3.42851 13.2391L4.70432 14.4999C4.78405 14.5787 4.8638 14.5787 4.94353 14.5787C5.02327 14.5787 5.10301 14.5787 5.18275 14.4999L7.33568 12.3722C7.41542 12.2934 7.41542 12.2146 7.41542 12.1358C7.33568 11.9782 7.33568 11.8994 7.25595 11.8206Z" fill="#D82216"/>
<path d="M16.107 8.9834H8.45215V10.0078H16.107V8.9834Z" fill="#D82216"/>
<path d="M3.34959 8.3524C3.19011 8.51002 3.19011 8.66756 3.34959 8.82518L4.6254 10.0861C4.70514 10.0861 4.78488 10.1649 4.86462 10.1649C4.94435 10.1649 5.02409 10.1649 5.10383 10.0861L7.25677 7.95835C7.3365 7.80074 7.3365 7.72193 7.3365 7.64313C7.3365 7.56433 7.3365 7.48552 7.25677 7.40672L7.01755 7.17031C6.93781 7.09151 6.85808 7.0127 6.77833 7.0127C6.6986 7.0127 6.61886 7.0127 6.53912 7.09151L4.86462 8.74637L4.14697 8.03716C4.06723 7.95835 3.98749 7.95835 3.90776 7.95835C3.82802 7.95835 3.74828 7.95835 3.66854 8.03716L3.34959 8.3524Z" fill="#D82216"/>
</g>
<defs>
<clipPath id="clip0_61_643">
<rect width="20" height="28" fill="white"/>
</clipPath>
</defs>
</svg>
