<svg width="30" height="28" viewBox="0 0 30 28" fill="none" xmlns="http://www.w3.org/2000/svg">
<g clip-path="url(#clip0_61_656)">
<path d="M25.0594 6.54042L20.8699 0L10.4737 8.19523L0 16.4693L5.19808 22.2217L25.0594 6.54042Z" fill="#BD3AA8"/>
<path d="M25.8355 22.5365C25.0597 21.1181 21.3356 20.1724 20.9477 18.2025L29.2491 11.662L25.8355 7.17041L15.7496 15.1292L5.66382 23.0881L9.07745 27.5797L17.3789 21.0393C19.1633 21.9849 19.1633 25.7672 20.327 26.9493C22.1115 28.7617 24.5942 26.7129 24.5942 26.7129C24.5942 26.7129 27.0768 24.7429 25.8355 22.5365ZM22.4218 25.2156C22.1891 24.9005 22.2667 24.4277 22.577 24.1913C22.8873 23.9549 23.3528 24.0336 23.5855 24.3489C23.8183 24.664 23.7407 25.1369 23.4304 25.3733C23.12 25.6097 22.6546 25.5309 22.4218 25.2156Z" fill="#BD3AA8"/>
</g>
<defs>
<clipPath id="clip0_61_656">
<rect width="30" height="28" fill="white"/>
</clipPath>
</defs>
</svg>
