<svg width="28" height="28" viewBox="0 0 28 28" fill="none" xmlns="http://www.w3.org/2000/svg">
<g clip-path="url(#clip0_61_683)">
<path d="M27.2649 24.2705L20.0941 17.0997L17.0997 20.094L24.2705 27.2649C25.0585 28.0529 26.3981 28.0529 27.2649 27.2649C28.1317 26.4769 28.1317 25.1373 27.2649 24.2705ZM18.2029 17.336L16.9421 16.0753C15.9965 15.1296 14.2629 15.3661 13.0809 16.5481L6.06762 23.5613C5.35842 24.2705 4.17641 24.2705 3.46722 23.5613L2.44281 22.5369C1.81241 21.9065 1.7336 20.9609 2.20641 20.2517L1.3396 19.3849C0.394001 20.5669 0.472801 22.3005 1.576 23.4037L2.67921 24.4281C3.86122 25.6101 5.83122 25.6101 7.01323 24.4281L14.0264 17.4148C14.8145 16.6269 15.76 16.5481 16.154 16.9421L17.4148 18.2029L18.2029 17.336ZM20.7244 1.65481L19.8577 0.788003L19.3061 1.3396L20.1728 2.20641L20.7244 1.65481ZM6.14642 21.1185L21.1185 6.14642C21.7489 5.51602 21.7489 4.57042 21.1185 3.94001L19.7001 2.67921L18.8333 1.81241L17.4937 0.472801C16.8632 -0.157601 15.9177 -0.157601 15.2873 0.472801L0.472801 15.3661C-0.157601 15.9965 -0.157601 16.9421 0.472801 17.5725L4.01882 21.1185C4.64922 21.6701 5.59482 21.6701 6.14642 21.1185Z" fill="#296E8B"/>
</g>
<defs>
<clipPath id="clip0_61_683">
<rect width="28" height="28" fill="white"/>
</clipPath>
</defs>
</svg>
