<svg width="23" height="28" viewBox="0 0 23 28" fill="none" xmlns="http://www.w3.org/2000/svg">
<g clip-path="url(#clip0_61_688)">
<path d="M22.3222 0H0.471595C0.235798 0 0 0.236401 0 0.472801V2.52161V6.77682V23.7977C0 24.1129 0.235798 24.2705 0.471595 24.2705H0.707394V24.7433H0.471595C0.157198 24.7433 0 24.9797 0 25.2161V27.3437C0 27.6589 0.235798 27.8165 0.471595 27.8165H22.3222C22.6366 27.8165 22.7938 27.5801 22.7938 27.3437V25.2161C22.7938 24.9009 22.558 24.7433 22.3222 24.7433H22.0864V24.2705H22.3222C22.6366 24.2705 22.7938 24.0341 22.7938 23.7977V6.77682V2.52161V0.472801C22.8724 0.236401 22.6366 0 22.3222 0ZM21.8506 23.3249H21.6148H11.9471V7.32842H21.8506V23.3249ZM1.25759 23.3249H1.02179V7.32842H10.9253V23.3249H1.25759ZM11.3969 6.30403H1.02179V3.07321H21.8506V6.30403H11.3969ZM1.02179 1.0244H21.8506V2.04881H1.02179V1.0244ZM21.8506 26.8709H1.02179V25.7677H1.25759H21.6148H21.8506V26.8709ZM21.1432 24.8221H1.72918V24.3493H11.3969H21.0646V24.8221H21.1432Z" fill="#79578D"/>
<path d="M8.6458 8.58936C8.33136 8.58936 8.17419 8.82579 8.17419 9.06214V11.9778C8.17419 12.293 8.40997 12.4506 8.6458 12.4506C8.88155 12.4506 9.11738 12.2142 9.11738 11.9778V9.06214C9.11738 8.82579 8.96016 8.58936 8.6458 8.58936Z" fill="#79578D"/>
<path d="M14.2265 12.5291C14.5409 12.5291 14.6982 12.2927 14.6982 12.0563V9.14076C14.6982 8.82559 14.4623 8.66797 14.2265 8.66797C13.9121 8.66797 13.7549 8.90432 13.7549 9.14076V12.0563C13.6763 12.2927 13.9121 12.5291 14.2265 12.5291Z" fill="#79578D"/>
<path d="M12.8903 3.70361H9.98214C9.66778 3.70361 9.51056 3.94002 9.51056 4.17642C9.51056 4.49162 9.74639 4.64921 9.98214 4.64921H12.8903C13.1262 4.72802 13.3619 4.49162 13.3619 4.25521C13.3619 3.94002 13.1262 3.70361 12.8903 3.70361Z" fill="#79578D"/>
</g>
<defs>
<clipPath id="clip0_61_688">
<rect width="23" height="28" fill="white"/>
</clipPath>
</defs>
</svg>
