<svg width="28" height="28" viewBox="0 0 28 28" fill="none" xmlns="http://www.w3.org/2000/svg">
<g clip-path="url(#clip0_61_715)">
<path fill-rule="evenodd" clip-rule="evenodd" d="M13.9476 0C21.6701 0 27.8953 6.22522 27.8953 13.9476C27.8953 21.6701 21.6701 27.8953 13.9476 27.8953C9.77126 27.8953 5.98882 26.0041 3.38841 23.0885L4.88562 22.2217C7.09203 24.6645 10.3229 26.1617 13.8688 26.1617C20.6457 26.1617 26.0829 20.7244 26.0829 13.9476C26.0829 7.17082 20.6457 1.7336 13.8688 1.7336C7.17082 1.7336 1.7336 7.17082 1.7336 13.9476C1.7336 15.76 2.1276 17.4148 2.75801 18.9121C2.91561 19.3061 3.15201 19.3849 3.54601 19.1485L5.04322 18.2817L5.98882 20.0153L3.70362 21.3549C2.83681 21.8276 2.1276 21.5913 1.65481 20.7244C1.3396 20.094 1.0244 19.4637 0.788003 18.8333C0.315201 17.336 0 15.6812 0 13.9476C0 6.22522 6.22522 0 13.9476 0ZM18.9908 13.0809L21.5125 11.5837C21.5913 11.5049 21.7489 11.5837 21.8276 11.6624L22.3792 12.6869C22.4581 12.7656 22.3792 12.9232 22.3005 13.002L19.7789 14.4992L18.9908 13.0809ZM16.7844 9.14085L19.3061 7.64363C19.3849 7.56483 19.5424 7.64363 19.6212 7.72243L20.1728 8.74687C20.2517 8.8256 20.1728 8.98322 20.094 9.06203L17.5725 10.5592L16.7844 9.14085ZM11.2684 9.85007L14.8933 7.80123C15.0508 7.72242 15.3661 7.72243 15.4449 7.95883L17.8876 12.1353L20.3305 16.3116C20.4093 16.4693 20.4093 16.7844 20.1728 16.8632L16.4693 18.9121C16.3116 18.9908 16.0753 18.9121 15.9177 18.7545C15.6812 18.3605 15.2873 18.1241 14.8933 18.2817L9.9288 19.3061L8.74687 17.336L7.64363 15.3661L11.0321 11.5049C11.3472 11.1896 11.3472 10.7956 11.1108 10.3229C11.0321 10.1652 11.0321 9.9288 11.2684 9.85007ZM7.40723 16.0753L5.59482 17.0997C5.51602 17.1785 5.43722 17.2572 5.51602 17.4148L7.09203 20.1728C7.17082 20.2517 7.24963 20.3305 7.40723 20.2517L9.21966 19.2273L7.40723 16.0753Z" fill="#EBA51C"/>
</g>
<defs>
<clipPath id="clip0_61_715">
<rect width="28" height="28" fill="white"/>
</clipPath>
</defs>
</svg>
