<svg width="28" height="28" viewBox="0 0 28 28" fill="none" xmlns="http://www.w3.org/2000/svg">
<g clip-path="url(#clip0_61_717)">
<path d="M0 0V27.9741H27.9741V0H0ZM1.0244 18.9121V1.0244H2.99441V18.9121H1.0244ZM1.0244 26.9497V19.7001H2.99441V26.9497H1.0244ZM3.70362 8.274V1.0244H8.274V8.274H3.70362ZM3.70362 26.9497V9.06203H8.274V26.9497H3.70362ZM9.06203 18.9121V1.0244H13.6325V18.9121H9.06203ZM9.06203 26.9497V19.7001H13.6325V26.9497H9.06203ZM14.3417 8.274V1.0244H18.9121V8.274H14.3417ZM14.3417 26.9497V9.06203H18.9121V26.9497H14.3417ZM19.7001 18.9121V1.0244H24.2705V18.9121H19.7001ZM19.7001 26.9497V19.7001H24.2705V26.9497H19.7001ZM25.0585 8.274V1.0244H27.0285V8.274H25.0585ZM25.0585 26.9497V9.06203H27.0285V26.9497H25.0585Z" fill="#B69679"/>
</g>
<defs>
<clipPath id="clip0_61_717">
<rect width="28" height="28" fill="white"/>
</clipPath>
</defs>
</svg>
