<svg width="28" height="28" viewBox="0 0 28 28" fill="none" xmlns="http://www.w3.org/2000/svg">
<g clip-path="url(#clip0_61_708)">
<path d="M5.74132 11.0419C5.28202 11.5012 4.97583 12.1136 4.97583 12.8025C4.97583 13.4915 5.20547 14.1038 5.74132 14.5632L9.26253 18.0844L10.6404 19.4623L12.7072 21.5291C13.7024 22.5242 15.2334 22.5242 16.2285 21.5291L17.3002 20.4574L6.813 9.97021L5.74132 11.0419Z" fill="#296E8B"/>
<path d="M7.50179 17.625L0.459293 24.6676C-0.153098 25.28 -0.153098 26.1985 0.459293 26.8109C1.07169 27.3468 1.99027 27.3468 2.60266 26.8109L9.64512 19.7684L8.57344 18.6968L7.50179 17.625ZM1.99027 25.8923C1.99027 25.9688 1.91372 25.9688 1.91372 26.0454C1.83718 26.122 1.68407 26.1985 1.60753 26.1985C1.45443 26.1985 1.37788 26.122 1.22478 26.0454C1.14823 25.9688 1.14823 25.9688 1.14823 25.8923C1.14823 25.8158 1.14823 25.7392 1.14823 25.7392C1.14823 25.5861 1.22478 25.5096 1.30133 25.433C1.30133 25.3564 1.30133 25.28 1.37788 25.28C1.45443 25.2034 1.53098 25.2034 1.68407 25.28H1.76062C1.76062 25.28 1.83718 25.28 1.83718 25.3564L1.91372 25.433C1.99027 25.5096 2.06682 25.6627 2.06682 25.7392C2.06682 25.7392 2.06682 25.8158 1.99027 25.8923Z" fill="#296E8B"/>
<path d="M24.6483 11.0422L22.1987 13.4918C21.5863 14.1042 20.6678 14.1042 20.1319 13.4918C19.5195 12.8794 19.5195 11.9607 20.1319 11.4249L21.8925 9.66432C22.1222 9.43464 22.1222 9.12848 21.8925 8.97536C21.6629 8.74568 21.3567 8.74568 21.2036 8.97536L20.8208 9.35808C20.4381 9.74088 19.9023 9.89392 19.3664 9.74088C18.8306 9.58776 18.4479 9.20504 18.2947 8.66912C18.1416 8.13328 18.2947 7.59747 18.6775 7.21473L21.5098 4.38242L17.2996 0.172235C17.0699 -0.0574117 16.7638 -0.0574117 16.6107 0.172235L11.0226 5.7603L21.5098 16.2475L26.1027 11.6546L25.3372 11.0422C25.1841 10.8126 24.8779 10.8126 24.6483 11.0422Z" fill="#296E8B"/>
<path d="M27.0986 9.97043L22.1995 5.07129L19.3672 7.90359C19.2141 8.05667 19.2141 8.20979 19.2141 8.36291C19.2907 8.51595 19.3672 8.66907 19.5968 8.74563C19.75 8.82219 19.9796 8.74563 20.0561 8.59251L20.4389 8.20979C20.8216 7.82705 21.3575 7.67395 21.8933 7.82705C22.4292 7.98014 22.8119 8.36291 22.965 8.89875C23.1181 9.43459 22.965 9.97043 22.5823 10.3532L20.8216 12.1138C20.7451 12.1904 20.6685 12.3434 20.6685 12.4965C20.6685 12.6496 20.7451 12.7262 20.8216 12.8792C21.0512 13.1089 21.3575 13.1089 21.5106 12.8792L23.9601 10.4297C24.2664 10.1235 24.6491 9.97043 25.0318 9.97043C25.4145 9.97043 25.7973 10.1235 26.1035 10.4297L26.7924 11.1187L27.1752 10.7359C27.3283 10.5063 27.3283 10.1235 27.0986 9.97043Z" fill="#296E8B"/>
<path d="M17.9887 19.7685L7.50159 9.28123L8.87947 7.90332L19.4432 18.3907L17.9887 19.7685Z" fill="#296E8B"/>
<path d="M20.1325 17.7019L9.56873 7.13816L10.2577 6.44922L20.7449 16.9364L20.1325 17.7019Z" fill="#296E8B"/>
</g>
<defs>
<clipPath id="clip0_61_708">
<rect width="28" height="28" fill="white"/>
</clipPath>
</defs>
</svg>
