<svg width="31" height="28" viewBox="0 0 31 28" fill="none" xmlns="http://www.w3.org/2000/svg">
<g clip-path="url(#clip0_61_719)">
<path fill-rule="evenodd" clip-rule="evenodd" d="M29.4285 13.396H1.01478C0.468358 13.396 0 13.8688 0 14.4204C0 14.972 0.468358 15.4448 1.01478 15.4448H2.02955H28.3356H29.3505C29.8969 15.4448 30.3652 14.972 30.3652 14.4204C30.3652 13.8688 30.0529 13.396 29.4285 13.396Z" fill="#3CADDE"/>
<path fill-rule="evenodd" clip-rule="evenodd" d="M2.34216 19.0703C2.34216 21.7495 3.74724 24.0347 5.85485 25.2955C5.93291 25.2955 5.93291 25.3743 6.01097 25.4531C6.01097 25.5319 6.01097 25.6107 6.01097 25.6895L5.54261 26.4776C5.30843 26.9503 5.46456 27.5808 5.93291 27.8171C6.40127 28.0535 7.02575 27.8959 7.25993 27.4231L7.96246 26.2411C8.04053 26.1623 8.11858 26.0835 8.27467 26.0835C8.66503 26.1623 9.13337 26.1623 9.52365 26.1623H21.0765C21.4668 26.1623 21.9352 26.1623 22.3254 26.0835C22.4035 26.0835 22.5596 26.0835 22.6377 26.2411L23.3402 27.4231C23.5744 27.8959 24.1989 28.0535 24.6672 27.8171C25.1356 27.5808 25.2917 26.9503 25.0575 26.4776L24.5892 25.6895C24.5892 25.6107 24.5111 25.5319 24.5892 25.4531C24.5892 25.3743 24.6672 25.2955 24.7453 25.2955C26.8529 24.0347 28.258 21.7495 28.258 19.0703V15.9971H2.34216V19.0703Z" fill="#3CADDE"/>
<path fill-rule="evenodd" clip-rule="evenodd" d="M3.35623 3.30962C3.35623 1.7336 4.60519 0.551602 6.08832 0.551602C7.57146 0.551602 8.74237 1.65481 8.82044 3.07321C8.43008 3.15201 8.03981 3.23081 7.64951 3.46722C6.7128 4.01882 6.16638 4.96442 6.16638 6.06762C6.16638 6.22522 6.3225 6.30403 6.40056 6.30403H9.13264H11.8647C12.0209 6.30403 12.0989 6.14642 12.0989 6.06762C12.0989 4.96442 11.5525 4.01882 10.6157 3.46722C10.2255 3.23081 9.8352 3.15201 9.36685 3.07321C9.28878 1.3396 7.88369 0 6.16638 0C4.29294 0 2.80981 1.49721 2.80981 3.30962V12.8444H3.35623V3.30962Z" fill="#3CADDE"/>
<path fill-rule="evenodd" clip-rule="evenodd" d="M8.19604 7.80083C8.19604 7.72204 8.19604 7.64324 8.11795 7.64324C8.0399 7.56445 7.96183 7.56445 7.96183 7.56445C7.80572 7.56445 7.72766 7.72204 7.72766 7.80083V8.74634C7.72766 8.82515 7.80572 8.90396 7.88378 8.98269C7.96183 9.06151 8.0399 9.06151 8.11795 8.98269C8.19604 8.90396 8.27411 8.82515 8.27411 8.74634V7.80083H8.19604Z" fill="#3CADDE"/>
<path fill-rule="evenodd" clip-rule="evenodd" d="M7.64966 10.3229V11.2684C7.64966 11.3472 7.72772 11.4261 7.80578 11.5049C7.88384 11.5837 7.9619 11.5837 8.03996 11.5049C8.11802 11.4261 8.19611 11.3472 8.19611 11.2684V10.3229C8.19611 10.244 8.19611 10.1652 8.11802 10.1652C8.03996 10.0864 7.9619 10.0864 7.9619 10.0864C7.80578 10.0864 7.64966 10.244 7.64966 10.3229Z" fill="#3CADDE"/>
<path fill-rule="evenodd" clip-rule="evenodd" d="M10.6164 7.80083C10.6164 7.72204 10.6164 7.64324 10.5383 7.64324C10.4603 7.56445 10.3822 7.56445 10.3822 7.56445C10.2261 7.56445 10.1481 7.72204 10.1481 7.80083V8.74634C10.1481 8.82515 10.2261 8.90396 10.3041 8.98269C10.3822 9.06151 10.4603 9.06151 10.5383 8.98269C10.6164 8.90396 10.6945 8.82515 10.6945 8.74634V7.80083H10.6164Z" fill="#3CADDE"/>
<path fill-rule="evenodd" clip-rule="evenodd" d="M10.1481 10.3229V11.2684C10.1481 11.3472 10.2261 11.4261 10.3041 11.5049C10.3822 11.5837 10.4603 11.5837 10.5383 11.5049C10.6164 11.4261 10.6945 11.3472 10.6945 11.2684V10.3229C10.6945 10.244 10.6945 10.1652 10.6164 10.1652C10.5383 10.1652 10.4603 10.0864 10.4603 10.0864C10.2261 10.0864 10.1481 10.244 10.1481 10.3229Z" fill="#3CADDE"/>
</g>
<defs>
<clipPath id="clip0_61_719">
<rect width="31" height="28" fill="white"/>
</clipPath>
</defs>
</svg>
