<svg width="32" height="28" viewBox="0 0 32 28" fill="none" xmlns="http://www.w3.org/2000/svg">
<g clip-path="url(#clip0_61_727)">
<path fill-rule="evenodd" clip-rule="evenodd" d="M3.07345 0H28.9266C30.644 0 32 1.18629 32 2.68892V25.3075C32 26.8102 30.644 27.9965 28.9266 27.9965H3.07345C1.35593 28.0756 0 26.8102 0 25.3075V2.68892C0 1.18629 1.35593 0 3.07345 0ZM11.9322 12.4165C12.9266 12.4165 13.7401 13.1283 13.7401 13.9982C13.7401 14.8682 12.9266 15.5799 11.9322 15.5799C10.9379 15.5799 10.1243 14.8682 10.1243 13.9982C10.1243 13.1283 10.9379 12.4165 11.9322 12.4165ZM20.1582 12.4165C21.1526 12.4165 21.9661 13.1283 21.9661 13.9982C21.9661 14.8682 21.1526 15.5799 20.1582 15.5799C19.1639 15.5799 18.3503 14.8682 18.3503 13.9982C18.2599 13.1283 19.0734 12.4165 20.1582 12.4165ZM17.7176 5.6942C22.2373 6.40597 25.6723 9.88577 25.6723 13.9982C25.6723 18.1107 22.2373 21.5905 17.7176 22.3023V19.8506H14.3729V22.3023C9.85308 21.6696 6.32768 18.1898 6.32768 13.9982C6.32768 9.80672 9.76273 6.40597 14.2824 5.6942V8.14587H17.6271V5.6942H17.7176ZM1.53672 9.49032V3.16344C1.53672 2.13533 2.44068 1.34447 3.61582 1.34447H23.6836V2.68892H3.61582C3.34463 2.68892 3.07345 2.8471 3.07345 3.16344V9.49032H1.53672Z" fill="#EBA51C"/>
</g>
<defs>
<clipPath id="clip0_61_727">
<rect width="32" height="28" fill="white"/>
</clipPath>
</defs>
</svg>
