<svg width="45" height="28" viewBox="0 0 45 28" fill="none" xmlns="http://www.w3.org/2000/svg">
<g clip-path="url(#clip0_61_742)">
<path fill-rule="evenodd" clip-rule="evenodd" d="M6.24706 18.168L8.57647 15.8168C9 15.9237 9.42353 16.0305 9.84706 16.2443L7.2 18.9161C7.2 19.4504 7.41177 19.8778 7.8353 20.3054C8.25882 20.7329 8.78823 20.9466 9.42353 20.9466H9.52941C10.1647 20.9466 10.8 20.7329 11.2235 20.3054C11.647 19.8778 11.9647 19.3435 11.9647 18.7023V18.5954C11.9647 17.6336 11.5412 16.7786 10.9059 16.1374C10.2706 15.4961 9.42353 15.0687 8.3647 15.0687H8.15295C7.09412 15.0687 6.0353 15.4961 5.29412 16.1374C4.55295 16.7786 4.12941 17.7405 4.02353 18.8092V19.0229C4.2353 20.1985 4.7647 21.4809 5.71765 22.3359C6.5647 23.1908 7.8353 23.832 9.21177 23.832C9.21177 23.832 9.31765 23.832 9.42353 23.832C10.6941 23.832 11.8588 23.4046 12.8118 22.6565C13.1294 22.3359 13.553 22.0153 13.8706 21.5878C14.5059 20.7329 14.9294 19.6641 15.0353 18.4885C15.0353 18.4885 15.0353 18.3817 15.0353 18.2748C15.0353 16.5649 14.4 14.9619 13.2353 13.8931C12.0706 12.7176 10.4823 11.9695 8.68235 11.9695C8.57647 11.9695 8.57647 11.9695 8.3647 11.9695C6.45882 11.9695 4.7647 12.7176 3.49412 13.8931C3.49412 13.8931 3.49412 13.8931 3.38823 14C2.11765 15.1756 1.27059 16.8855 1.1647 18.7023C1.1647 18.8092 1.1647 18.9161 1.1647 19.0229C1.1647 21.1603 2.01177 22.9771 3.38823 24.4732C4.7647 25.8626 6.67059 26.7176 8.89412 26.8244C9 26.8244 9.10588 26.8244 9.21177 26.8244H29.4353L42.0353 14.1069C36.2118 14.1069 30.3882 14.1069 24.4588 14.1069L25.7294 12.8244H45L30.0706 28H9.31765C9.21177 28 9.10588 28 8.89412 28C6.35294 27.8931 4.12941 26.8244 2.54118 25.2214C0.952941 23.6183 0 21.4809 0 19.0229C0 18.9161 0 18.8092 0 18.7023C0.105882 16.5649 1.05882 14.6412 2.54118 13.2519L2.64706 13.1451L13.1294 2.56488C13.2353 2.45802 13.447 2.24427 13.553 2.13741C15.1412 0.748091 17.153 0 19.1647 0C20.2235 0 21.2823 0.213741 22.2353 0.534351C24.1412 1.28244 25.6235 2.67176 26.3647 4.70229C26.6823 5.55725 26.8941 6.51908 26.7882 7.58778C26.7882 9.40458 26.047 11.3283 24.6706 12.7176C24.5647 12.8244 24.353 13.0381 24.247 13.1451L14.9294 22.5496C14.5059 22.9771 14.0823 23.4046 13.553 23.832C12.3882 24.687 10.9059 25.2214 9.31765 25.2214C9.21177 25.2214 9.21177 25.2214 9 25.2214C7.30588 25.1145 5.71765 24.4732 4.65882 23.2977C3.6 22.229 2.85882 20.6259 2.85882 18.9161C2.85882 18.9161 2.85882 18.8092 2.85882 18.7023C2.9647 17.313 3.49412 16.0305 4.55295 15.1756C5.50588 14.3207 6.77647 13.6793 8.25882 13.6793H8.47058C9.84706 13.6793 11.0118 14.3207 11.8588 15.1756C12.7059 16.0305 13.2353 17.2061 13.2353 18.4885V18.7023C13.2353 19.6641 12.7059 20.5191 12.0706 21.1603C11.4353 21.8015 10.4823 22.229 9.52941 22.229H9.42353C8.47058 22.229 7.62353 21.8015 6.98823 21.1603C6.35294 20.5191 6.0353 19.6641 6.0353 18.8092V18.7023C6.0353 18.5954 6.0353 18.4885 6.14118 18.3817C6.14118 18.2748 6.24706 18.168 6.24706 18.168ZM6.35295 11.0076C6.98823 10.7939 7.72941 10.7939 8.3647 10.7939C8.47058 10.7939 8.57647 10.7939 8.68235 10.7939C10.8 10.9007 12.7059 11.7557 13.9765 13.1451C15.353 14.5344 16.2 16.3512 16.2 18.4885C16.2 18.5954 16.2 18.7023 16.2 18.8092C16.2 19.0229 16.2 19.2366 16.0941 19.5573L23.2941 12.29C23.4 12.1832 23.6118 12.0763 23.7177 11.8626C24.247 11.3283 24.7765 10.5802 24.9882 9.83206C25.3059 9.08397 25.4118 8.33588 25.4118 7.58778C25.4118 6.73283 25.3059 5.98473 25.0941 5.23664C24.4588 3.63359 23.1882 2.45802 21.6 1.8168C20.753 1.49619 19.9059 1.28244 19.0588 1.28244C17.3647 1.28244 15.6706 1.8168 14.2941 2.99237C14.1882 3.09924 14.0823 3.2061 13.8706 3.31298L6.35295 11.0076Z" fill="#72AC8D"/>
<path d="M6.35295 11.0076C6.98823 10.7939 7.72941 10.7939 8.3647 10.7939H8.68235C10.8 10.9007 12.7059 11.7557 13.9765 13.1451C15.353 14.5344 16.2 16.3512 16.2 18.4885V18.8092C16.2 19.0229 16.2 19.2366 16.0941 19.5573L23.2941 12.29C23.4 12.1832 23.6118 12.0763 23.7177 11.8626C24.247 11.3283 24.7765 10.5802 24.9882 9.83206C25.3059 9.08397 25.4118 8.33588 25.4118 7.58778C25.4118 6.73283 25.3059 5.98473 25.0941 5.23664C24.4588 3.63359 23.1882 2.45802 21.6 1.8168C20.753 1.49619 19.9059 1.28244 19.0588 1.28244C17.3647 1.28244 15.6706 1.8168 14.2941 2.99237C14.1882 3.09924 14.0823 3.2061 13.8706 3.31298L6.35295 11.0076Z" fill="#72AC8D"/>
</g>
<defs>
<clipPath id="clip0_61_742">
<rect width="45" height="28" fill="white"/>
</clipPath>
</defs>
</svg>
