<svg width="32" height="28" viewBox="0 0 32 28" fill="none" xmlns="http://www.w3.org/2000/svg">
<g clip-path="url(#clip0_61_744)">
<path d="M11.2533 20.0601C10.9956 19.7149 10.7379 19.3697 10.4802 19.1108C10.2225 18.852 9.96474 18.6793 9.79294 18.593C9.62113 18.5067 9.53523 18.4204 9.53523 18.4204C9.01981 18.3342 8.50439 18.3342 7.98898 18.5067C7.47356 18.593 6.95814 18.852 6.52862 19.1971C6.0132 19.456 5.58369 19.8875 5.24008 20.4916C4.81056 21.0957 4.46695 21.7861 4.12334 22.5629C3.77973 23.2532 3.43612 23.9437 3.00661 24.5478C2.57708 25.0656 2.14757 25.4971 1.71806 25.9286C1.28855 26.3601 0.85903 26.5327 0.60132 26.7052C0.343612 26.7916 0.085903 26.8779 0 26.8779V27.0505C0.944932 27.3957 1.80396 27.6545 2.66299 27.8272C3.43612 27.9998 4.12334 27.9998 4.81056 27.9998C5.32598 27.9998 5.7555 27.9998 6.18501 27.9135C7.55946 27.6545 8.67619 27.1367 9.62113 26.1874C10.7379 25.0656 11.511 23.5122 11.9405 21.4409C11.7687 20.9231 11.511 20.4053 11.2533 20.0601Z" fill="#296E8B"/>
<path d="M31.1831 0.0385944C31.0972 -0.0477055 31.0113 -0.134005 28.5201 1.50569C27.0598 2.54129 25.084 4.0084 23.0223 5.5618C20.7888 7.28779 18.6413 9.01379 16.8373 10.5672C14.6897 12.3795 13.1435 13.8466 12.1985 14.8822C12.0267 15.0548 11.9408 15.2274 11.8549 15.4C11.769 15.5726 11.6831 15.6588 11.5113 15.9178C11.4254 16.0041 11.4254 16.0904 11.3395 16.263C11.2536 16.3493 11.2536 16.4356 11.1676 16.5219C11.0817 16.6945 10.91 16.9534 10.6522 17.2986V17.3849L10.7382 17.4712C10.91 17.5575 10.9959 17.7301 11.1676 17.8164C11.3395 17.989 11.5113 18.1616 11.6831 18.3342C11.8549 18.593 12.1127 18.7657 12.2844 19.0245C12.4562 19.2835 12.6281 19.6287 12.7998 19.9739V20.0602L12.8857 19.9739C13.1435 19.8013 13.4871 19.6287 13.7448 19.5423C13.9165 19.4561 14.0884 19.3698 14.1743 19.2835C14.2602 19.2835 14.3461 19.1972 14.432 19.1972C14.6038 19.1109 14.7756 19.0245 15.0333 18.852C15.2051 18.7657 15.377 18.593 15.5487 18.5068C16.6654 17.5575 18.1259 16.0904 20.0157 14.0192C21.6478 12.2931 23.4518 10.222 25.2558 7.9782C26.888 5.9933 28.4342 4.09469 29.5509 2.62759C31.4409 0.297495 31.269 0.124894 31.1831 0.0385944Z" fill="#296E8B"/>
</g>
<defs>
<clipPath id="clip0_61_744">
<rect width="32" height="28" fill="white"/>
</clipPath>
</defs>
</svg>
