<svg width="29" height="28" viewBox="0 0 29 28" fill="none" xmlns="http://www.w3.org/2000/svg">
<g clip-path="url(#clip0_61_747)">
<path d="M27.3795 23.887L21.0306 17.5593C20.5545 17.0848 19.9989 16.8474 19.2847 16.8474C19.2053 16.8474 19.126 16.8474 19.126 16.8474L17.9356 15.661C19.2847 13.8418 19.9196 11.6271 19.8403 9.41243C19.7609 6.96045 18.7292 4.66667 16.9832 2.92655C15.0786 1.02825 12.5391 0 9.92008 0C7.3012 0 4.76165 1.02825 2.93635 2.92655C1.11105 4.82486 0 7.27684 0 9.88698C0 12.4972 1.03169 15.0282 2.93635 16.8474C4.76165 18.7457 7.3012 19.7741 9.92008 19.7741C11.9835 19.7741 14.0469 19.1413 15.7135 17.8757L16.9038 19.0621C16.8245 19.7741 17.0626 20.4859 17.6181 20.9604L23.967 27.2882C24.4432 27.7627 24.9986 28 25.7129 28C26.3478 28 26.9827 27.7627 27.4588 27.2882C28.3318 26.339 28.3318 24.8362 27.3795 23.887ZM15.7929 14.6328L14.6818 15.7402C13.3327 16.7684 11.6661 17.4011 9.92008 17.4011C7.85672 17.4011 5.95207 16.6101 4.52357 15.1865C3.09507 13.7627 2.30147 11.8644 2.30147 9.80795C2.30147 7.75141 3.09507 5.85311 4.52357 4.42937C5.95207 3.00565 7.85672 2.21469 9.92008 2.21469C11.9835 2.21469 13.8882 3.00565 15.3166 4.42937C16.6658 5.77402 17.4594 7.51413 17.5387 9.41243C17.6181 11.3107 16.9832 13.1299 15.7929 14.6328C15.8722 14.6328 15.7929 14.6328 15.7929 14.6328Z" fill="#D82216"/>
<path d="M13.7296 6.48535C13.6502 6.40625 13.5709 6.40625 13.4915 6.40625C13.4121 6.40625 13.3327 6.40625 13.2534 6.48535L8.57111 11.0729L6.42836 8.93732C6.349 8.85823 6.26964 8.85823 6.19028 8.85823C6.11092 8.85823 6.03156 8.85823 5.9522 8.93732L4.5237 10.2819C4.36498 10.4402 4.36498 10.6775 4.5237 10.7566L8.41239 14.6322C8.49175 14.7113 8.57111 14.7113 8.65047 14.7113C8.72983 14.7113 8.80919 14.7113 8.88855 14.6322L15.1581 8.38365C15.3168 8.22546 15.3168 7.98818 15.1581 7.90907L13.7296 6.48535Z" fill="#D82216"/>
</g>
<defs>
<clipPath id="clip0_61_747">
<rect width="29" height="28" fill="white"/>
</clipPath>
</defs>
</svg>
