<svg width="926" height="328" viewBox="0 0 926 328" fill="none" xmlns="http://www.w3.org/2000/svg">
<g clip-path="url(#clip0_2012_24806)">
<path d="M809.63 220.521C810.201 218.751 812.49 218.006 814.257 218.596C816.025 219.179 817.314 220.718 818.265 222.319C819.807 224.911 820.659 227.602 821.42 230.446C821.878 227.686 822.434 224.946 823.075 222.235C823.498 220.437 823.962 218.653 824.47 216.875C820.483 215.569 816.905 213.047 814.342 209.725C813.37 208.467 812.511 206.866 813.004 205.356C813.581 203.592 815.87 202.855 817.631 203.431C819.399 204.007 820.68 205.538 821.631 207.133C823.23 209.809 824.075 212.584 824.857 215.534C826.47 210.076 828.47 204.723 830.921 199.589C827.266 197.657 824.195 194.643 822.223 191.019C821.462 189.621 820.871 187.907 821.596 186.495C822.441 184.845 824.822 184.479 826.47 185.329C828.118 186.179 829.146 187.893 829.829 189.614C830.942 192.41 831.35 195.184 831.646 198.099C834.315 192.726 837.576 187.394 842.049 183.369C842.14 183.285 842.239 183.208 842.33 183.124C838.936 180.693 836.288 177.23 834.837 173.318C834.287 171.829 833.942 170.044 834.865 168.752C835.942 167.242 838.344 167.214 839.858 168.288C841.372 169.363 842.14 171.203 842.57 173.009C843.33 176.184 843.274 179.225 843.119 182.442C848.415 177.926 854.564 174.364 859.698 169.679C856.219 167.242 853.5 163.729 852.028 159.754C851.479 158.265 851.134 156.48 852.057 155.188C853.134 153.678 855.536 153.65 857.05 154.724C858.564 155.799 859.332 157.639 859.761 159.445C860.543 162.704 860.459 165.823 860.297 169.138C861.557 167.944 862.755 166.673 863.846 165.296C866.065 162.5 867.657 159.262 868.685 155.82C864.579 154.38 860.938 151.648 858.43 148.1C857.515 146.801 856.719 145.164 857.275 143.682C857.923 141.947 860.24 141.301 861.98 141.954C863.72 142.607 864.938 144.188 865.818 145.817C867.438 148.81 868.164 151.887 868.868 155.174C870.41 149.59 870.488 143.514 869.312 137.971C865.776 136.222 862.734 133.476 860.67 130.118C859.839 128.762 859.149 127.084 859.797 125.63C860.557 123.937 862.91 123.438 864.607 124.204C866.304 124.962 867.417 126.62 868.192 128.306C869.431 130.989 869.988 133.701 870.439 136.552C870.509 136.637 870.565 136.735 870.593 136.862C871.706 141.554 871.84 146.457 871.136 151.219C870.981 152.273 870.784 153.319 870.551 154.366C872.742 151.219 875.798 148.676 879.306 147.117C880.756 146.471 882.524 146.014 883.876 146.843C885.461 147.812 885.644 150.208 884.665 151.781C883.686 153.355 881.897 154.24 880.123 154.788C876.812 155.806 873.594 155.904 870.15 155.961C869.565 158.124 868.776 160.231 867.699 162.198C866.072 165.176 863.931 167.712 861.529 170.002C864.994 168.085 869.002 167.15 872.96 167.361C874.552 167.445 876.326 167.846 877.15 169.201C878.115 170.789 877.186 173.002 875.594 173.957C874.002 174.912 872.002 174.884 870.171 174.568C866.664 173.95 863.691 172.517 860.508 170.95C856.437 174.61 851.718 177.666 847.394 180.939C846.035 181.972 844.711 183.032 843.457 184.156C847.105 181.887 851.465 180.756 855.761 180.988C857.353 181.072 859.128 181.466 859.959 182.822C860.924 184.402 859.994 186.622 858.409 187.577C856.818 188.539 854.817 188.511 852.993 188.195C849.408 187.57 846.373 186.088 843.112 184.479C841.788 185.694 840.534 186.994 839.408 188.42C837.337 191.04 835.569 193.885 833.992 196.821C833.569 197.601 833.168 198.387 832.773 199.181C835.872 196.814 839.633 195.318 843.514 194.931C845.098 194.777 846.915 194.889 847.943 196.105C849.141 197.523 848.563 199.848 847.141 201.043C845.718 202.23 843.739 202.511 841.88 202.476C838.443 202.405 835.386 201.513 832.139 200.495C829.745 205.51 827.822 210.764 826.258 216.096C828.787 212.914 832.245 210.469 836.104 209.177C837.612 208.671 839.415 208.383 840.682 209.338C842.168 210.455 842.119 212.857 840.992 214.333C839.865 215.808 837.999 216.517 836.182 216.896C832.731 217.606 829.463 217.381 825.963 217.1C825.758 217.81 825.561 218.519 825.371 219.229C824.329 223.127 823.462 227.089 822.814 231.086C825.322 228.023 828.702 225.67 832.463 224.412C833.97 223.907 835.773 223.619 837.041 224.574C838.527 225.691 838.478 228.093 837.351 229.568C836.224 231.043 834.358 231.753 832.541 232.132C829.181 232.828 825.998 232.631 822.61 232.357C821.927 236.923 821.547 241.531 821.54 246.139C821.54 247.101 820.047 247.031 820.047 246.075C820.047 241.418 820.448 236.768 821.138 232.16C817.138 230.84 813.539 228.297 810.961 224.946C809.989 223.682 809.123 222.066 809.616 220.556L809.63 220.521Z" fill="#FDCFFF"/>
<path d="M372.724 233.945C371.872 232.287 372.971 230.152 374.633 229.316C376.295 228.487 378.295 228.662 380.105 229.126C383.035 229.871 385.535 231.177 388.092 232.652C386.465 230.376 384.915 228.044 383.443 225.67C382.472 224.104 381.535 222.509 380.633 220.894C376.887 222.776 372.562 223.514 368.407 222.973C366.829 222.769 365.083 222.242 364.364 220.823C363.519 219.173 364.618 217.037 366.273 216.201C367.935 215.365 369.921 215.541 371.724 215.998C374.745 216.763 377.316 218.133 379.957 219.671C377.232 214.67 374.858 209.479 372.95 204.119C368.998 205.328 364.688 205.363 360.723 204.183C359.195 203.733 357.561 202.932 357.075 201.422C356.504 199.659 357.927 197.72 359.695 197.158C361.463 196.596 363.399 197.088 365.111 197.826C367.872 199.02 370.132 200.699 372.407 202.553C370.492 196.87 369.02 190.801 369.329 184.796C369.329 184.669 369.351 184.543 369.358 184.423C365.231 185.091 360.906 184.515 357.11 182.766C355.666 182.098 354.159 181.08 353.891 179.513C353.582 177.687 355.265 175.973 357.096 175.664C358.927 175.362 360.779 176.121 362.357 177.09C365.146 178.804 367.259 180.995 369.428 183.377C369.977 176.451 371.809 169.595 372.118 162.662C367.928 163.386 363.519 162.824 359.66 161.039C358.216 160.372 356.709 159.354 356.441 157.787C356.131 155.961 357.814 154.247 359.645 153.938C361.477 153.636 363.329 154.394 364.907 155.364C367.773 157.12 369.921 159.389 372.154 161.84C372.203 160.105 372.147 158.363 371.942 156.621C371.534 153.081 370.365 149.667 368.653 146.506C364.73 148.382 360.216 149.014 355.927 148.269C354.356 147.995 352.638 147.398 351.976 145.958C351.201 144.272 352.391 142.186 354.082 141.421C355.772 140.655 357.758 140.915 359.533 141.449C362.801 142.425 365.491 144.09 368.322 145.923C365.456 140.88 361.209 136.532 356.448 133.441C352.708 134.698 348.609 134.895 344.771 133.975C343.221 133.602 341.545 132.9 340.975 131.418C340.313 129.683 341.63 127.674 343.362 127.021C345.102 126.367 347.06 126.754 348.806 127.393C351.588 128.419 353.898 129.943 356.237 131.643C356.342 131.65 356.455 131.685 356.568 131.755C360.681 134.298 364.245 137.67 367.125 141.533C367.759 142.383 368.365 143.268 368.942 144.167C368.259 140.395 368.625 136.44 369.999 132.865C370.569 131.383 371.492 129.816 373.041 129.451C374.851 129.023 376.675 130.589 377.098 132.387C377.52 134.193 376.879 136.082 376.013 137.719C374.393 140.774 372.182 143.113 369.787 145.572C370.907 147.518 371.844 149.562 372.471 151.711C373.428 154.963 373.71 158.265 373.633 161.58C374.724 157.78 376.901 154.296 379.852 151.662C381.035 150.601 382.577 149.632 384.12 150.004C385.923 150.447 386.831 152.666 386.387 154.465C385.937 156.263 384.507 157.654 382.986 158.714C380.07 160.751 376.943 161.826 373.583 162.964C373.295 168.429 372.118 173.915 371.379 179.275C371.147 180.96 370.963 182.646 370.872 184.325C371.844 180.146 374.126 176.275 377.33 173.409C378.513 172.349 380.049 171.372 381.598 171.751C383.401 172.194 384.317 174.414 383.866 176.212C383.422 178.01 381.986 179.401 380.464 180.469C377.485 182.555 374.288 183.644 370.837 184.803C370.759 186.601 370.794 188.392 371.006 190.204C371.393 193.513 372.161 196.772 373.126 199.961C373.379 200.811 373.654 201.654 373.936 202.49C374.45 198.633 376.055 194.925 378.528 191.911C379.535 190.682 380.908 189.488 382.493 189.621C384.345 189.783 385.584 191.834 385.422 193.681C385.261 195.529 384.056 197.123 382.718 198.402C380.239 200.776 377.436 202.293 374.421 203.867C376.281 209.1 378.64 214.171 381.309 219.053C380.838 215.021 381.563 210.849 383.38 207.217C384.091 205.798 385.162 204.323 386.732 204.105C388.571 203.853 390.24 205.581 390.493 207.421C390.74 209.261 389.923 211.074 388.902 212.626C386.965 215.562 384.486 217.704 381.817 219.966C382.176 220.613 382.535 221.252 382.908 221.891C384.937 225.382 387.127 228.803 389.5 232.083C389.106 228.15 389.831 224.104 391.606 220.563C392.318 219.144 393.388 217.669 394.959 217.452C396.797 217.199 398.466 218.927 398.719 220.767C398.966 222.6 398.149 224.42 397.128 225.972C395.24 228.831 392.853 230.931 390.261 233.13C393.015 236.839 396.008 240.372 399.269 243.631C399.945 244.313 398.846 245.317 398.163 244.636C394.867 241.341 391.853 237.766 389.078 234.022C385.31 235.911 380.964 236.642 376.767 236.087C375.182 235.876 373.428 235.343 372.703 233.931L372.724 233.945Z" fill="#FDCFFF"/>
<path d="M270.201 78.342C270.257 76.5228 269.046 74.8088 267.426 73.9729C265.806 73.137 263.862 73.1019 262.101 73.5585C260.341 74.0151 258.735 74.9352 257.221 75.9538C254.72 77.6396 252.361 79.6977 250.854 82.2686C249.819 77.9768 249.121 73.6006 248.755 69.1964C248.72 68.796 248.699 68.3956 248.671 67.9952C251.826 67.9601 254.988 67.925 258.143 67.8899C260.249 67.8688 262.418 67.8337 264.362 67.0259C266.306 66.2181 268.003 64.448 268.074 62.3407C268.13 60.5214 266.919 58.8074 265.299 57.9716C263.679 57.1357 261.735 57.1005 259.974 57.5571C258.214 58.0137 256.608 58.9339 255.094 59.9524C252.516 61.6874 250.086 63.8228 248.586 66.5131C248.333 61.6101 248.495 56.6931 249.065 51.8253C252.262 51.6637 255.46 51.5092 258.657 51.3476C260.763 51.2423 262.925 51.1229 264.841 50.2448C266.757 49.3668 268.384 47.5264 268.37 45.4261C268.355 43.6068 267.081 41.9421 265.433 41.1694C263.785 40.3967 261.841 40.4319 260.094 40.9587C258.348 41.4855 256.777 42.4689 255.312 43.5366C252.96 45.2576 250.748 47.3227 249.326 49.8374C249.819 46.3252 250.523 42.8412 251.453 39.4063C251.727 38.3948 252.023 37.3833 252.34 36.3788C255.622 36.1049 258.904 35.838 262.186 35.564C264.285 35.3884 266.447 35.1987 268.327 34.2575C270.208 33.3162 271.778 31.4267 271.694 29.3264C271.623 27.5071 270.292 25.8845 268.616 25.168C266.94 24.4516 265.003 24.5499 263.278 25.1329C261.552 25.7159 260.017 26.7485 258.58 27.8724C256.53 29.4739 254.608 31.3494 253.27 33.5551C254.446 30.1904 255.84 26.903 257.446 23.714C260.136 21.965 262.82 20.2089 265.51 18.4528C267.278 17.3008 269.081 16.1137 270.292 14.3857C271.504 12.6577 271.983 10.2554 270.905 8.45019C269.975 6.88377 268.031 6.09002 266.214 6.25861C264.404 6.42017 262.742 7.43869 261.503 8.76628C260.263 10.1009 259.404 11.7376 258.671 13.4023C257.333 16.479 256.39 19.8506 256.77 23.1591C256.77 23.1661 256.756 23.1802 256.749 23.1872C255.037 26.5729 253.558 30.078 252.326 33.6674C252.284 30.9631 251.481 28.2587 250.41 25.7511C249.699 24.0793 248.847 22.4356 247.621 21.0939C246.396 19.7523 244.741 18.7268 242.931 18.5511C241.121 18.3755 239.17 19.1552 238.226 20.7146C237.134 22.5129 237.592 24.9222 238.789 26.6572C239.98 28.3922 241.783 29.5934 243.536 30.7594C246.206 32.5295 248.882 34.2996 251.551 36.0698C250.171 40.5021 249.149 45.0468 248.502 49.6477C247.832 46.8802 246.318 44.3163 244.572 42.0404C243.466 40.6004 242.233 39.2167 240.712 38.2192C239.191 37.2218 237.332 36.6458 235.536 36.9197C233.733 37.1937 232.042 38.437 231.514 40.179C230.901 42.195 231.951 44.4146 233.535 45.7984C235.12 47.1822 237.162 47.9057 239.156 48.5941C242.184 49.6477 245.213 50.7014 248.241 51.748C248.227 51.8955 248.206 52.036 248.185 52.1835C247.656 56.946 247.516 61.7506 247.755 66.5342C246.614 63.5559 244.396 61.0482 241.966 58.9479C240.585 57.7608 239.106 56.651 237.409 55.9907C235.712 55.3234 233.782 55.1337 232.07 55.7659C230.366 56.3981 228.958 57.9575 228.788 59.7698C228.598 61.863 230.07 63.8298 231.908 64.8624C233.74 65.895 235.888 66.19 237.979 66.4639C241.261 66.8924 244.543 67.3279 247.825 67.7564C247.825 67.8196 247.832 67.8899 247.84 67.9531L247.762 68.0093C247.762 68.0093 247.811 68.0093 247.84 68.0093C248.156 72.6594 248.833 77.2814 249.889 81.8261C247.896 79.768 245.276 78.2999 242.6 77.1971C240.881 76.4876 239.092 75.8976 237.24 75.7992C235.388 75.7009 233.451 76.1294 232.007 77.2884C230.563 78.4474 229.697 80.4072 230.127 82.2054C230.62 84.2916 232.676 85.7105 234.782 86.125C236.888 86.5324 239.057 86.125 241.17 85.7246C244.163 85.1486 247.156 84.5796 250.157 84.0036C250.248 84.0036 250.34 84.0036 250.431 84.0036C251.72 88.9768 253.467 93.8236 255.65 98.4737C255.882 98.9654 256.692 98.6985 256.46 98.1998C254.312 93.6269 252.593 88.8645 251.312 83.9896C254.305 83.9545 257.305 83.9193 260.298 83.8912C262.404 83.8702 264.573 83.8351 266.517 83.0273C268.461 82.2195 270.158 80.4493 270.229 78.342H270.201Z" fill="#FDCFFF"/>
<path d="M585.927 122.385C586.927 120.86 586.786 118.767 585.835 117.215C584.891 115.662 583.25 114.623 581.504 114.096C579.757 113.576 577.905 113.527 576.088 113.611C573.073 113.752 569.989 114.286 567.355 115.698C568.714 111.497 570.397 107.395 572.383 103.447C572.566 103.089 572.749 102.731 572.94 102.372C575.651 103.981 578.37 105.59 581.081 107.198C582.891 108.273 584.758 109.369 586.842 109.685C588.927 110.008 591.3 109.376 592.455 107.613C593.456 106.088 593.315 103.995 592.364 102.443C591.42 100.89 589.779 99.8507 588.032 99.3238C586.286 98.804 584.434 98.7549 582.616 98.8392C579.511 98.9796 576.32 99.5486 573.637 101.059C575.975 96.7459 578.68 92.6297 581.708 88.7593C584.518 90.2836 587.335 91.8078 590.145 93.3321C591.998 94.3366 593.906 95.3551 595.998 95.601C598.09 95.8398 600.442 95.1163 601.527 93.3181C602.463 91.7587 602.245 89.6724 601.238 88.1552C600.231 86.6379 598.555 85.6616 596.787 85.205C595.026 84.7484 593.174 84.7695 591.357 84.924C588.448 85.1699 585.483 85.788 582.962 87.1999C585.215 84.4534 587.638 81.8474 590.216 79.3959C590.976 78.6724 591.758 77.9629 592.547 77.2745C595.491 78.7496 598.435 80.2177 601.379 81.6928C603.259 82.6341 605.203 83.5964 607.302 83.765C609.401 83.9406 611.725 83.1398 612.753 81.2995C613.64 79.712 613.352 77.6328 612.295 76.1507C611.239 74.6685 609.527 73.7483 607.753 73.3479C605.978 72.9476 604.125 73.0319 602.315 73.2496C599.731 73.5517 597.111 74.1557 594.815 75.3429C597.576 73.081 600.484 71.0018 603.513 69.1123C606.724 69.014 609.936 68.9086 613.14 68.8102C615.246 68.747 617.415 68.6627 619.345 67.8198C621.275 66.9769 622.944 65.1717 622.965 63.0644C622.986 61.2451 621.74 59.5592 620.106 58.7585C618.472 57.9577 616.521 57.9577 614.767 58.4564C613.014 58.9481 611.422 59.9034 609.929 60.95C607.182 62.8817 604.618 65.27 603.21 68.2975C603.203 68.2975 603.189 68.3045 603.182 68.3115C599.949 70.3134 596.864 72.5402 593.934 74.9635C595.308 72.6315 596.033 69.906 596.428 67.2087C596.688 65.4105 596.822 63.5631 596.477 61.7859C596.125 60.0018 595.251 58.2738 593.794 57.178C592.336 56.0822 590.265 55.738 588.645 56.5809C586.772 57.5503 585.913 59.8472 586.025 61.9475C586.138 64.0478 587.046 66.0075 587.941 67.9111C589.3 70.8122 590.659 73.7062 592.019 76.6072C588.525 79.6768 585.286 83.0274 582.335 86.6169C583.208 83.9055 583.25 80.9342 582.948 78.0753C582.757 76.2701 582.426 74.4508 581.645 72.8071C580.863 71.1634 579.581 69.7094 577.898 69.0069C576.214 68.3115 574.123 68.4871 572.763 69.7023C571.193 71.1072 570.925 73.5446 571.559 75.5466C572.193 77.5485 573.559 79.2273 574.897 80.8499C576.933 83.3225 578.968 85.788 581.011 88.2606C580.919 88.3729 580.828 88.4853 580.736 88.6047C577.799 92.3979 575.172 96.4228 572.883 100.637C573.468 97.5045 572.883 94.2101 571.897 91.1475C571.341 89.4196 570.651 87.7056 569.552 86.2586C568.453 84.8116 566.904 83.6386 565.115 83.2944C563.326 82.9502 561.312 83.5472 560.227 85.0153C558.973 86.7082 559.206 89.1456 560.227 90.979C561.255 92.8123 562.939 94.175 564.573 95.4956C567.15 97.5678 569.728 99.6399 572.306 101.712C572.277 101.768 572.242 101.832 572.214 101.888H572.123C572.123 101.888 572.165 101.923 572.193 101.937C570.038 106.067 568.207 110.373 566.735 114.798C566.108 112.003 564.636 109.39 562.925 107.058C561.826 105.561 560.607 104.128 559.079 103.082C557.551 102.035 555.67 101.396 553.832 101.642C551.994 101.881 550.233 103.103 549.656 104.866C548.987 106.903 550.001 109.186 551.585 110.626C553.17 112.073 555.234 112.853 557.248 113.604C560.107 114.672 562.96 115.733 565.819 116.8C565.897 116.849 565.981 116.892 566.059 116.941C564.566 121.858 563.523 126.901 562.967 132.008C562.91 132.549 563.742 132.745 563.798 132.198C564.347 127.175 565.368 122.223 566.812 117.39C569.39 118.915 571.961 120.439 574.538 121.97C576.348 123.045 578.215 124.141 580.299 124.457C582.384 124.78 584.758 124.148 585.913 122.385H585.927Z" fill="#FDCFFF"/>
<path d="M162.98 117.32C170.389 117.447 183.017 108.343 189.757 111.595C187.94 120.074 176.206 115.41 169.846 118.156C164.177 121.38 180.129 131.369 189.63 129.662C197.441 128.587 198.652 118.585 211.047 108.196C221.513 99.1623 225.809 100.574 229.218 93.9363C235.451 81.7983 227.359 64.8627 225.626 65.0804C224.929 65.1717 225.584 67.9885 223.844 73.9029C224.14 74.5773 214.548 96.6828 211.942 86.9541C211.886 76.0383 225.309 73.7203 222.781 60.2898C220.886 50.217 207.223 44.6678 206.512 45.5107C212.702 50.0484 209.512 69.5127 203.497 75.3289C199.603 78.5179 199.384 74.3384 200.561 69.9412C202.504 54.9584 204.575 47.1965 197.011 37.6364C187.735 25.9129 173.312 33.3516 156.916 29.4531C156.916 29.4531 145.372 46.5643 148.492 60.051C151.493 73.0319 165.586 67.9533 172.572 73.6992C175.84 75.8908 174.805 80.8219 171.649 82.0933C166.642 85.2753 159.261 82.6412 153.958 80.6814C145.175 77.4291 142.886 74.3033 141.231 75.4904C136.752 78.4758 145.344 95.5589 153.739 96.0155C162.649 100.609 179.474 89.3986 187.059 97.3009C184.207 104.705 162.444 105.133 154.352 102.358C150.26 100.413 148.225 97.3501 147.556 97.8277C147.816 102.71 156.338 116.758 162.98 117.32Z" fill="#FCA1FF"/>
<path d="M179.073 122.441C181.298 123.066 183.658 123.136 185.918 122.665C188.116 122.209 190.116 121.211 191.898 119.877C193.849 118.409 195.532 116.625 197.25 114.904C199.117 113.042 201.089 111.265 203.166 109.635C204.103 108.898 205.047 108.139 206.068 107.514C206.913 106.994 207.906 106.573 208.906 106.882C208.92 106.882 208.928 106.882 208.935 106.882C209.047 107.029 209.16 107.17 209.273 107.317C209.639 107.816 209.991 108.329 210.322 108.856C210.385 108.792 210.449 108.736 210.519 108.68C209.914 107.732 209.252 106.819 208.54 105.948C208.54 105.941 208.54 105.934 208.54 105.927C208.343 105.484 208.237 104.992 208.181 104.508C208.125 104.051 208.089 103.531 208.28 103.11C208.568 102.478 209.104 101.944 209.59 101.452C210.083 100.967 210.597 100.49 211.111 100.033C214.745 96.7809 218.844 93.9993 222.048 90.2975C224.682 87.2489 226.753 83.5261 226.908 79.4309C226.908 79.2693 226.654 79.2693 226.647 79.4449C226.549 81.8332 225.788 84.1301 224.626 86.2164C222.358 90.2975 218.766 93.346 215.196 96.2752C213.217 97.8908 211.216 99.4923 209.399 101.291C208.73 101.951 207.949 102.723 207.885 103.714C207.85 104.269 207.927 104.859 208.082 105.414C206.019 103.019 203.589 100.96 201.187 98.9163C201.075 98.818 200.962 98.7267 200.849 98.6283C200.061 96.4508 200.004 94.0906 200.427 91.8288C201.279 87.2208 204.061 83.4277 206.92 79.8383C207.702 78.8549 208.491 77.8715 209.259 76.874C209.977 75.9398 210.702 74.9845 211.287 73.9519C212.273 72.1958 212.843 70.0394 212.055 68.0936C211.991 67.9391 211.738 68.0094 211.808 68.1639C212.801 70.6084 211.611 73.1582 210.202 75.1741C207.399 79.171 203.828 82.6761 201.702 87.1225C200.068 90.5433 199.3 94.6315 200.476 98.3052C198.222 96.3805 195.99 94.4137 194.116 92.1098C193.088 90.8524 192.208 89.4967 191.426 88.0919C191.426 88.0778 191.426 88.0708 191.419 88.0567C191.405 88.0427 191.398 88.0286 191.384 88.0146C190.679 86.7362 190.053 85.4156 189.468 84.0739C188.503 81.8402 187.637 79.5643 186.693 77.3166C186.665 74.7527 187.292 72.2239 188.066 69.8006C189.454 65.4455 191.637 61.252 192.018 56.637C192.349 52.5278 190.841 47.7864 186.869 45.9109C186.714 45.8406 186.595 46.0654 186.749 46.1357C188.961 47.1753 190.447 49.2404 191.208 51.5233C192.665 55.9416 191.201 60.5636 189.63 64.736C188.186 68.5783 186.552 72.5681 186.454 76.7265C186.334 76.4385 186.214 76.1505 186.087 75.8625C184.82 73.0107 183.277 70.3204 181.418 67.8057C177.608 62.6639 172.833 58.3509 168.093 54.0872C167.973 53.9748 167.79 54.1644 167.917 54.2768C168.501 54.7966 169.079 55.3164 169.656 55.8433C174.206 59.9665 178.721 64.2514 182.193 69.337C180.826 68.3887 179.08 68.0656 177.474 67.7635C175.46 67.3772 173.143 66.8433 172.023 64.9397C171.938 64.7922 171.72 64.9327 171.804 65.0732C172.847 66.8574 174.967 67.5247 176.875 67.911C178.868 68.3114 181.115 68.5783 182.65 70.0394C182.658 70.0394 182.665 70.0394 182.672 70.0394C184.362 72.6384 185.665 75.413 186.834 78.2719C187.954 81.0113 188.982 83.7789 190.285 86.4411C190.412 86.694 190.539 86.9469 190.672 87.1998C188.94 85.5701 186.418 84.9169 184.066 84.8888C181.341 84.8536 178.699 85.7106 176.136 86.5254C173.586 87.3332 171.03 88.0005 168.367 88.2885C163.247 88.8435 158.014 88.2183 153.169 86.4692C153.014 86.406 152.951 86.6659 153.113 86.7221C155.754 87.6774 158.507 88.2956 161.303 88.5765C163.811 88.8294 166.339 88.8013 168.839 88.4993C171.424 88.1761 173.896 87.5088 176.368 86.7291C178.946 85.9143 181.601 85.0714 184.341 85.1557C186.869 85.233 189.616 86.0688 191.194 88.1691C192.349 90.2272 193.708 92.1449 195.335 93.8799C197.567 96.2611 200.117 98.3122 202.589 100.434C202.8 100.616 203.004 100.799 203.216 100.981C201.476 100.532 199.617 100.602 197.863 100.981C195.983 101.389 194.215 102.197 192.482 103.004C190.686 103.84 188.883 104.655 187.003 105.308C183.362 106.573 179.566 107.352 175.72 107.626C175.551 107.64 175.558 107.9 175.72 107.886C177.826 107.732 179.925 107.437 181.988 106.987C183.841 106.587 185.665 106.06 187.44 105.428C189.264 104.775 191.017 103.967 192.771 103.152C194.532 102.337 196.328 101.536 198.236 101.171C200.011 100.834 201.892 100.82 203.631 101.375C203.638 101.375 203.638 101.368 203.645 101.375C205.469 102.99 207.216 104.69 208.723 106.594C207.815 106.418 206.906 106.755 206.117 107.226C204.962 107.9 203.906 108.771 202.857 109.6C200.835 111.202 198.913 112.93 197.088 114.756C195.328 116.519 193.616 118.353 191.602 119.828C189.771 121.169 187.714 122.125 185.482 122.532C183.383 122.911 181.207 122.806 179.157 122.23C178.995 122.188 178.939 122.441 179.101 122.483L179.073 122.441Z" fill="white"/>
<path d="M576.729 143.303C576.665 150.693 585.898 163.21 582.694 169.96C574.179 168.218 578.757 156.481 575.947 150.159C572.665 144.532 562.791 160.527 564.58 169.988C565.721 177.771 575.764 178.888 586.286 191.16C595.435 201.52 594.054 205.819 600.738 209.156C612.964 215.267 629.874 207.056 629.642 205.328C629.543 204.632 626.719 205.314 620.782 203.628C620.113 203.93 597.864 194.552 607.598 191.869C618.542 191.722 620.979 205.082 634.424 202.455C644.509 200.474 649.954 186.805 649.101 186.102C644.608 192.319 625.064 189.298 619.183 183.349C615.95 179.492 620.141 179.239 624.557 180.37C639.593 182.183 647.397 184.177 656.919 176.549C668.589 167.2 661.011 152.877 664.779 136.489C664.779 136.489 647.531 125.124 634.03 128.348C621.043 131.453 626.247 145.467 620.549 152.484C618.38 155.764 613.429 154.767 612.126 151.634C608.886 146.668 611.471 139.278 613.387 133.975C616.57 125.187 619.683 122.876 618.486 121.24C615.45 116.8 598.4 125.51 598.019 133.89C593.491 142.818 604.872 159.501 597.019 167.137C589.575 164.355 588.955 142.657 591.667 134.565C593.582 130.47 596.632 128.411 596.146 127.744C591.258 128.046 577.236 136.665 576.736 143.296L576.729 143.303Z" fill="#FCA1FF"/>
<path d="M571.735 159.396C571.122 161.622 571.08 163.969 571.573 166.223C572.052 168.408 573.066 170.396 574.418 172.166C575.912 174.105 577.708 175.762 579.454 177.462C581.342 179.31 583.131 181.255 584.786 183.313C585.532 184.248 586.3 185.182 586.934 186.186C587.462 187.029 587.892 188.013 587.596 189.017C587.596 189.031 587.596 189.038 587.596 189.045C587.448 189.158 587.307 189.277 587.159 189.382C586.659 189.748 586.152 190.106 585.624 190.443C585.687 190.506 585.743 190.57 585.8 190.633C586.744 190.022 587.659 189.347 588.525 188.631C588.532 188.631 588.539 188.631 588.547 188.631C588.99 188.434 589.483 188.322 589.962 188.259C590.413 188.195 590.934 188.16 591.371 188.343C592.012 188.624 592.547 189.151 593.04 189.635C593.526 190.127 594.012 190.626 594.477 191.139C597.773 194.735 600.59 198.795 604.337 201.963C607.414 204.562 611.161 206.592 615.274 206.718C615.443 206.718 615.436 206.466 615.26 206.459C612.866 206.381 610.556 205.644 608.457 204.506C604.351 202.279 601.259 198.718 598.294 195.185C596.653 193.225 595.033 191.244 593.216 189.446C592.547 188.785 591.765 188.006 590.772 187.957C590.216 187.928 589.624 188.006 589.075 188.167C591.462 186.088 593.498 183.651 595.533 181.234C595.632 181.122 595.723 181.009 595.822 180.897H595.829C597.998 180.089 600.365 180.019 602.632 180.412C607.26 181.22 611.084 183.967 614.711 186.783C615.704 187.556 616.697 188.336 617.704 189.087C618.648 189.797 619.606 190.513 620.648 191.089C622.423 192.059 624.585 192.607 626.529 191.799C626.684 191.736 626.606 191.483 626.451 191.553C624.008 192.564 621.437 191.398 619.409 190.008C615.38 187.247 611.837 183.714 607.351 181.635C603.907 180.04 599.801 179.303 596.132 180.511C598.04 178.249 599.998 176.008 602.287 174.112C603.541 173.079 604.886 172.187 606.295 171.393C606.309 171.393 606.316 171.393 606.33 171.386C606.344 171.372 606.358 171.365 606.372 171.351C607.647 170.635 608.971 169.995 610.309 169.405C612.542 168.422 614.817 167.544 617.056 166.582C619.627 166.532 622.169 167.136 624.606 167.888C628.987 169.237 633.206 171.379 637.84 171.716C641.96 172.011 646.7 170.466 648.552 166.49C648.622 166.336 648.397 166.216 648.32 166.371C647.291 168.583 645.242 170.087 642.953 170.859C638.537 172.356 633.889 170.93 629.691 169.398C625.825 167.986 621.81 166.399 617.641 166.329C617.929 166.202 618.218 166.083 618.507 165.956C621.359 164.664 624.043 163.105 626.543 161.229C631.663 157.387 635.952 152.582 640.178 147.82C640.291 147.7 640.101 147.525 639.988 147.644C639.474 148.227 638.953 148.81 638.438 149.393C634.347 153.966 630.086 158.504 625.015 162.009C625.951 160.632 626.261 158.89 626.557 157.288C626.923 155.279 627.437 152.954 629.339 151.831C629.48 151.746 629.346 151.528 629.205 151.613C627.423 152.666 626.775 154.788 626.409 156.698C626.022 158.686 625.775 160.934 624.324 162.472C624.324 162.479 624.324 162.486 624.324 162.493C621.74 164.2 618.965 165.528 616.112 166.722C613.38 167.86 610.612 168.914 607.95 170.234C607.696 170.361 607.443 170.494 607.196 170.628C608.816 168.886 609.45 166.371 609.457 164.018C609.471 161.299 608.584 158.672 607.745 156.122C606.914 153.587 606.224 151.044 605.907 148.389C605.309 143.289 605.886 138.063 607.598 133.216C607.661 133.062 607.4 133.005 607.344 133.16C606.407 135.801 605.809 138.555 605.555 141.343C605.323 143.844 605.372 146.366 605.703 148.859C606.048 151.43 606.738 153.896 607.541 156.354C608.379 158.918 609.246 161.559 609.182 164.292C609.126 166.813 608.309 169.56 606.224 171.154C604.168 172.32 602.259 173.697 600.534 175.334C598.167 177.582 596.132 180.138 594.026 182.625C593.843 182.836 593.66 183.047 593.484 183.257C593.92 181.522 593.829 179.661 593.434 177.919C593.012 176.05 592.181 174.294 591.364 172.566C590.504 170.782 589.673 168.991 589.011 167.122C587.715 163.505 586.899 159.719 586.589 155.891C586.575 155.722 586.314 155.729 586.328 155.891C586.497 157.991 586.814 160.084 587.286 162.135C587.708 163.976 588.244 165.795 588.899 167.558C589.575 169.37 590.392 171.112 591.23 172.854C592.061 174.603 592.885 176.388 593.265 178.291C593.617 180.061 593.653 181.937 593.11 183.672C593.11 183.679 593.117 183.679 593.11 183.686C591.505 185.519 589.821 187.275 587.92 188.799C588.089 187.893 587.737 186.987 587.265 186.207C586.582 185.063 585.694 184.016 584.856 182.976C583.229 180.974 581.483 179.071 579.637 177.266C577.855 175.531 576.003 173.831 574.51 171.836C573.151 170.023 572.172 167.979 571.749 165.753C571.355 163.666 571.439 161.496 571.996 159.445C572.038 159.283 571.784 159.227 571.742 159.389L571.735 159.396Z" fill="white"/>
<path d="M242.895 279.294H115.003V221.701L242.895 70.0747H304.084V224.968H335.798V279.294H304.084V326.399H242.895V279.294ZM242.895 224.968V145.656L175.319 224.968H242.895Z" fill="#A294FE"/>
<path d="M335.798 224.967H322.635V279.293H335.798V224.967Z" fill="#7767E0"/>
<path d="M304.084 70.0815H290.921V224.975H304.084V70.0815Z" fill="#7767E0"/>
<path d="M175.319 224.968L242.895 147.525V132.078L162.156 224.968H175.319Z" fill="#7767E0"/>
<path d="M304.084 279.293H290.921V326.398H304.084V279.293Z" fill="#7767E0"/>
<path d="M761.133 279.294H633.241V221.701L761.133 70.0747H822.321V224.968H854.036V279.294H822.321V326.399H761.133V279.294ZM761.133 224.968V145.656L693.556 224.968H761.133Z" fill="#A294FE"/>
<path d="M854.043 224.967H840.88V279.293H854.043V224.967Z" fill="#7767E0"/>
<path d="M822.321 70.0815H809.158V224.975H822.321V70.0815Z" fill="#7767E0"/>
<path d="M693.556 224.968L761.133 147.525V132.078L680.393 224.968H693.556Z" fill="#7767E0"/>
<path d="M822.321 279.293H809.158V326.398H822.321V279.293Z" fill="#7767E0"/>
<path d="M384.915 189.818C384.915 139.945 393.916 105.048 411.925 85.1204C429.927 65.1924 457.352 55.2319 494.2 55.2319C511.906 55.2319 526.435 57.4095 537.803 61.7645C549.17 66.1196 558.438 71.7882 565.615 78.7704C572.792 85.7525 578.447 93.0859 582.574 100.785C586.701 108.483 590.019 117.46 592.533 127.723C597.435 147.292 599.893 167.698 599.893 188.933C599.893 236.536 591.822 271.377 575.665 293.454C559.516 315.532 531.703 326.567 492.221 326.567C470.085 326.567 452.203 323.048 438.568 316.009C424.933 308.971 413.742 298.652 405.009 285.046C398.663 275.381 393.733 262.168 390.205 245.401C386.676 228.641 384.908 210.118 384.908 189.832L384.915 189.818ZM457.408 189.993C457.408 223.401 460.366 246.223 466.289 258.452C472.212 270.681 480.79 276.8 492.038 276.8C499.454 276.8 505.884 274.208 511.328 269.017C516.773 263.826 520.78 255.621 523.351 244.411C525.921 233.2 527.21 215.716 527.21 191.974C527.21 157.134 524.252 133.722 518.329 121.731C512.406 109.741 503.525 103.742 491.679 103.742C479.833 103.742 470.86 109.86 465.479 122.089C460.098 134.319 457.401 156.958 457.401 190.007L457.408 189.993Z" fill="#A294FE"/>
<path d="M483.727 104.76C481.248 104.079 478.6 103.735 475.79 103.735C463.704 103.735 454.971 109.853 449.59 122.082C444.209 134.312 441.512 156.951 441.512 190C441.512 223.05 444.47 246.23 450.393 258.459C456.316 270.689 464.894 276.807 476.142 276.807C478.966 276.807 481.642 276.427 484.178 275.676C476.712 273.4 470.754 267.661 466.296 258.459C460.373 246.23 457.415 223.415 457.415 190C457.415 156.586 460.105 134.312 465.493 122.082C469.613 112.733 475.691 106.966 483.727 104.767V104.76Z" fill="#7767E0"/>
<path d="M592.533 127.716C590.019 117.453 586.701 108.476 582.574 100.778C578.447 93.0791 572.792 85.7457 565.615 78.7635C558.438 71.7814 549.163 66.1198 537.803 61.7577C526.435 57.4026 511.899 55.2251 494.2 55.2251C491.524 55.2251 488.897 55.2813 486.319 55.3867C500.44 55.9556 512.307 58.077 521.9 61.7577C533.267 66.1128 542.535 71.7814 549.712 78.7635C556.889 85.7457 562.544 93.0791 566.671 100.778C570.798 108.476 574.116 117.453 576.63 127.716C581.532 147.286 583.99 167.691 583.99 188.926C583.99 236.529 575.912 271.37 559.762 293.447C544.719 314.008 519.554 324.987 484.269 326.398C486.861 326.504 489.509 326.56 492.228 326.56C531.703 326.56 559.523 315.525 575.672 293.447C591.822 271.377 599.9 236.536 599.9 188.926C599.9 167.691 597.449 147.286 592.54 127.716H592.533Z" fill="#7767E0"/>
<path d="M489.312 48.1519C489.312 48.1519 478.875 49.6902 479.051 49.5918C479.227 49.4865 498.151 59.166 498.151 59.166L516.801 50.8351L507.553 48.1519H489.305H489.312Z" fill="#2E2180"/>
<path d="M493.32 62.3546C493.27 62.3546 493.214 62.3546 493.165 62.3546C493.129 62.3546 493.101 62.3546 493.066 62.3546C490.411 62.3827 488.678 62.3195 488.678 62.3195C488.678 62.3195 488.552 62.3476 488.319 62.3968C486.051 62.8674 473.811 65.1924 474.853 60.5915C475.769 56.5525 483.114 57.0513 486.058 57.4235C486.072 57.4235 486.079 57.4235 486.087 57.4235C486.819 57.5149 487.277 57.5992 487.277 57.5992C487.277 57.5992 488.735 56.974 491.045 56.0819C491.136 56.0468 491.235 56.0046 491.334 55.9695C498.933 53.0263 514.906 47.4561 519.047 50.8067C519.09 50.8418 519.139 50.8839 519.181 50.919C519.181 50.919 519.181 50.919 519.188 50.919C519.23 50.9612 519.273 51.0033 519.315 51.0455C519.35 51.0806 519.385 51.1227 519.421 51.1649C519.435 51.1789 519.449 51.193 519.463 51.207C519.505 51.2632 519.554 51.3265 519.59 51.3826C519.632 51.4459 519.674 51.5161 519.709 51.5864C519.745 51.6566 519.78 51.7198 519.808 51.7901C519.878 51.9446 519.928 52.1061 519.963 52.2747C519.998 52.4503 520.033 52.6189 520.054 52.7805C520.09 53.0755 520.111 53.3705 520.097 53.6515C519.766 61.0832 501.989 62.2211 493.334 62.3335L493.32 62.3546Z" fill="#F7C1CE"/>
<path d="M493.461 63.2188L493.165 62.3548L493.038 61.9755L491.038 56.0891L490.749 55.2462C498.355 52.3031 514.829 47.3088 519.033 50.8069C519.083 50.849 519.125 50.8841 519.167 50.9263C519.167 50.9263 519.167 50.9263 519.174 50.9263C519.216 50.9684 519.259 51.0106 519.301 51.0527C519.336 51.0878 519.371 51.13 519.407 51.1721C519.421 51.1862 519.435 51.2002 519.449 51.2143C519.491 51.2705 519.54 51.3337 519.576 51.3899C519.618 51.4531 519.66 51.5233 519.695 51.5936C519.731 51.6638 519.766 51.7271 519.794 51.7973C519.864 51.9518 519.914 52.1134 519.949 52.282C519.984 52.4576 520.019 52.6262 520.04 52.7877C520.076 53.0827 520.097 53.3778 520.083 53.6587C519.78 61.1818 502.116 63.0924 493.453 63.2048L493.461 63.2188Z" fill="#3C2E8F"/>
<path d="M487.27 57.6276C487.27 57.6276 473.423 54.9303 472.818 60.7675C472.17 67.0402 488.678 62.3409 488.678 62.3409C488.678 62.3409 482.312 63.7317 482.614 60.1704C482.91 56.7215 487.27 57.6276 487.27 57.6276Z" fill="#3C2E8F"/>
<path d="M507.842 33.9272C505.124 37.7344 507.553 48.1515 507.553 48.1515H489.312C489.819 47.442 491.235 38.4579 488.037 33.5058C482.875 25.5192 488.439 19.3097 488.439 19.3097L496.024 17.9329L496.51 15.5236L496.841 13.8658L496.919 13.4795H500.334L500.461 14.203L500.729 15.7835L501.123 18.1085L508.096 19.6187C508.096 19.6187 514.068 25.2031 507.849 33.9202L507.842 33.9272Z" fill="#F7C1CE"/>
<path d="M507.842 33.9273C505.124 37.7344 507.56 48.1515 507.56 48.1515H489.312C489.742 47.5474 490.834 40.9375 489.171 35.9362C488.883 35.0582 488.509 34.2363 488.037 33.5058C482.875 25.5192 488.439 19.3167 488.439 19.3167L496.031 17.9399C496.32 19.6328 500.461 19.5345 501.123 18.1155L508.096 19.6258C508.096 19.6258 514.068 25.2101 507.849 33.9343L507.842 33.9273Z" fill="#FFD182"/>
<path d="M489.312 48.1518C489.742 47.5477 490.833 40.9379 489.171 35.9366C492.77 34.897 492.165 44.8504 498.151 48.1518H489.305H489.312Z" fill="#C4626E"/>
<path d="M517.765 41.844C517.575 43.0241 516.744 44.3025 515.512 45.5669C512.357 48.798 505.94 48.6505 501.539 49.8236L501.081 47.4845C501.081 47.4845 508.941 45.2718 510.631 42.5253C510.807 42.2303 510.934 41.9564 510.983 41.7175C511.554 38.9781 508.377 35.5502 508.377 35.5502L508.039 19.6401C508.039 19.6401 518.73 35.8593 517.773 41.858L517.765 41.844Z" fill="#F7C1CE"/>
<path d="M517.871 41.8436C517.667 42.9534 516.998 44.3442 515.892 45.5594C515.772 45.6859 515.582 45.7069 515.434 45.6156L514.082 44.7376L510.54 42.4477C510.723 42.1526 510.814 41.8576 510.863 41.6188C511.434 38.8793 506.342 34.6366 506.342 34.6366L507.567 19.5273C509.208 19.4571 511.906 23.194 514.145 27.7739C514.145 27.7739 514.145 27.7739 514.145 27.7879C516.568 32.7471 518.449 38.6826 517.871 41.8365V41.8436Z" fill="#FFD182"/>
<path d="M495.728 47.5266L495.806 49.086C495.947 49.0368 495.933 48.8331 495.792 48.805C491.869 47.9973 485.418 49.1141 482.276 46.4519C480.34 44.8082 479.283 42.7922 479.037 41.2328C478.079 35.2411 488.502 19.3311 488.502 19.3311L488.115 35.2271C488.115 35.2271 484.932 38.6549 485.509 41.3944C485.608 41.8791 485.995 42.4832 486.558 43.1435C488.911 45.897 495.728 47.5336 495.728 47.5336V47.5266Z" fill="#F7C1CE"/>
<path d="M485.502 41.387C485.601 41.8717 486.27 42.3002 486.833 42.9605L483.544 45.6929L482.22 46.7887C480.283 45.145 479.149 43.0447 478.72 41.5275C478.065 39.1884 479.001 35.1986 480.579 31.2299C480.579 31.2088 480.593 31.1947 480.593 31.1947C482.974 25.21 486.812 19.3026 488.812 19.2534L489.967 35.3812C489.967 35.3812 484.932 38.6546 485.509 41.394L485.502 41.387Z" fill="#FFD182"/>
<path d="M521.533 60.0787C522.632 64.7569 510.145 62.488 507.828 62.0315C507.588 61.9823 507.462 61.9542 507.462 61.9542C507.462 61.9542 505.652 62.0385 502.891 62.0244C502.835 62.0244 502.785 62.0244 502.729 62.0244C498.721 62.0034 492.798 61.7856 487.488 60.8373C480.973 59.6783 475.381 57.4376 475.395 53.1317C475.395 53.1246 475.395 53.1176 475.395 53.1106C475.395 52.935 475.409 52.7594 475.431 52.5767V52.5697C475.452 52.3801 475.487 52.1904 475.522 52.0007C475.557 51.8251 475.607 51.6636 475.677 51.509C475.705 51.4388 475.74 51.3686 475.776 51.2983C475.811 51.2281 475.853 51.1578 475.895 51.0876C475.938 51.0244 475.98 50.9611 476.029 50.905C476.043 50.8909 476.057 50.8698 476.072 50.8558C476.107 50.8136 476.142 50.7715 476.177 50.7364C476.219 50.6942 476.262 50.6451 476.304 50.6029C476.304 50.6029 476.304 50.5959 476.311 50.6029C476.818 50.1323 477.522 49.8162 478.389 49.6265C484.347 48.306 497.862 52.928 504.715 55.5129C504.814 55.548 504.912 55.5902 505.011 55.6253C507.37 56.5174 508.863 57.1425 508.863 57.1425C508.863 57.1425 509.321 57.0512 510.075 56.9529C510.082 56.9529 510.096 56.9529 510.103 56.9529C513.096 56.5525 520.576 55.9765 521.54 60.0857L521.533 60.0787Z" fill="#F7C1CE"/>
<path d="M505.293 54.7614L505.011 55.6254L502.898 62.0245L502.609 62.9096C498.975 62.8956 493.777 62.5795 488.904 61.6733C481.804 60.3598 475.381 57.81 475.402 53.1388C475.402 53.1318 475.402 53.1247 475.402 53.1177C475.402 52.9421 475.417 52.7595 475.438 52.5839V52.5769C475.459 52.3872 475.494 52.1975 475.529 52.0079C475.564 51.8323 475.614 51.6707 475.684 51.5162C475.712 51.4459 475.748 51.3757 475.783 51.3055C475.818 51.2352 475.86 51.165 475.902 51.0947C475.945 51.0315 475.987 50.9683 476.036 50.9121C476.05 50.898 476.064 50.877 476.079 50.8629C476.114 50.8208 476.149 50.7786 476.184 50.7435C476.226 50.7014 476.269 50.6522 476.311 50.61C476.311 50.61 476.311 50.603 476.318 50.61C476.839 50.1113 477.579 49.7601 478.494 49.5423C484.622 48.0532 498.461 52.1905 505.3 54.7684L505.293 54.7614Z" fill="#45359E"/>
<path d="M508.863 57.1635C508.863 57.1635 522.942 54.2976 523.611 60.2402C524.322 66.6252 507.476 61.9752 507.476 61.9752C507.476 61.9752 513.631 63.1412 513.293 59.5166C512.969 56.0115 508.87 57.1635 508.87 57.1635H508.863Z" fill="#45359E"/>
<path d="M509.73 32.6558H486.784C485.979 32.6558 485.326 33.3068 485.326 34.1098V49.0505C485.326 49.8535 485.979 50.5045 486.784 50.5045H509.73C510.535 50.5045 511.187 49.8535 511.187 49.0505V34.1098C511.187 33.3068 510.535 32.6558 509.73 32.6558Z" fill="#A294FE"/>
<path d="M495.975 41.5767C495.975 40.3193 496.996 39.3008 498.257 39.3008C499.517 39.3008 500.539 40.3193 500.539 41.5767C500.539 42.834 499.517 43.8525 498.257 43.8525C496.996 43.8525 495.975 42.834 495.975 41.5767Z" fill="white"/>
<path d="M511.187 34.1098V49.0435C511.187 49.8442 510.532 50.4975 509.73 50.4975H486.784C485.981 50.4975 485.326 49.8442 485.326 49.0435C508.532 50.1041 511.187 46.7114 509.73 32.6558C510.532 32.6558 511.187 33.309 511.187 34.1098Z" fill="#9789F5"/>
<path d="M517.871 41.8437C517.667 42.9536 516.998 44.3444 515.892 45.5596C515.772 45.686 515.582 45.7071 515.434 45.6158L514.082 44.7377C514.793 43.5085 515.843 42.5321 516.329 40.6355C517.646 35.5429 514.322 28.2306 514.145 27.7881C516.568 32.7472 518.449 38.6828 517.871 41.8367V41.8437Z" fill="#F0BF6C"/>
<path d="M493.925 9.34935C493.925 9.34935 491.193 6.42724 493.411 2.5428C493.411 2.5428 494.08 3.75098 494.876 3.42084C494.876 3.42084 494.918 0.583017 500.694 0C500.694 0 500.278 1.12389 500.482 1.41891C502.384 0.583017 504.236 2.65519 506.088 1.87549C506.088 1.87549 506.603 5.16287 504.469 7.0805C504.469 7.0805 504.792 8.21844 504.039 9.34233C503.285 10.4662 493.925 9.34233 493.925 9.34233V9.34935Z" fill="#45359E"/>
<path d="M494.785 8.46418C494.785 8.46418 493.538 7.24898 493.418 8.42906C493.277 9.8269 494.947 10.8665 494.947 10.8665C494.947 10.8665 495.355 15.1864 499.01 15.1864C502.666 15.1864 503.243 10.8524 503.243 10.8524C503.243 10.8524 505.152 10.3326 504.743 8.68896C504.553 7.90926 503.56 8.70301 503.56 8.70301V6.65191C503.56 6.65191 502.546 7.16469 500.581 6.32879C499.158 5.71768 498.651 4.87476 497.44 4.92393C496.059 4.98013 494.728 6.49035 494.785 8.46418Z" fill="#F7C1CE"/>
<path d="M306.929 171.59C306.929 171.59 310.24 169.187 308.063 165.647C305.887 162.107 301.063 163.097 300.154 164.952C298.365 164.65 296.971 165.851 296.189 166.968C295.576 167.846 294.844 169.609 295.738 173.051C296.64 176.493 291.703 178.459 291.034 180.784C290.604 182.281 291.273 183.896 294.323 184.254C297.372 184.613 305.535 181.304 305.535 181.304C306.5 181.304 310.113 177.715 306.929 171.59Z" fill="#45359E"/>
<path d="M330.403 251.617C328.981 244.432 328.206 238.559 328.403 233.382C328.544 229.589 328.917 226.105 329.227 222.6L307.155 209.998L300.14 205.995H313.578C313.578 205.995 332.749 212.197 336.002 217.599C338.186 221.237 337.735 229.428 336.707 236.866C335.622 244.663 333.904 251.625 333.904 251.625H330.403V251.617Z" fill="#E3C0C1"/>
<path d="M330.347 251.463L329.213 255.151L329.924 260.889L331.065 260.946L332.101 255.923L333.939 259.26C334.432 260.159 335.178 260.889 336.193 261.023C338.883 261.367 344.13 261.458 344.348 259.702C344.574 257.897 339.482 257.82 337.996 255.832C336.559 253.907 334.826 251.393 334.826 251.393L330.347 251.47V251.463Z" fill="#3C2E8F"/>
<path d="M336.714 236.86L332.143 237.611L328.41 233.383L311.909 214.719L307.162 209.992L303.14 205.988H313.592C313.592 205.988 332.763 212.19 336.017 217.592C338.2 221.231 337.749 229.421 336.721 236.86H336.714Z" fill="#3C2E8F"/>
<path d="M334.369 251.835C330.354 248.4 327.685 244.052 325.6 239.093C324.248 235.883 323.199 232.434 322.318 228.859C322.318 228.859 301.866 227.138 296.485 219.327C292.823 214.002 295.759 205.995 295.759 205.995C299.253 206.1 303.838 205.341 306.732 206.275C317.642 209.795 329.354 214.424 332.073 221.954C333.678 226.4 334.791 231.31 335.897 236.761C336.812 241.264 337.643 246.497 338.855 251.758L334.369 251.835Z" fill="#F7C1CE"/>
<path d="M335.897 236.761L329.072 238.307L325.6 239.093C324.248 235.883 323.198 232.434 322.318 228.859C322.318 228.859 310.275 227.84 302.239 223.851C299.802 222.635 297.731 221.146 296.485 219.327C293.132 214.459 295.309 207.329 295.703 206.156C295.738 206.051 295.759 205.988 295.759 205.988H295.788C299.281 206.086 304.253 205.004 307.141 205.939C318.05 209.458 329.875 214.269 332.601 221.792C334.214 226.239 334.791 231.303 335.904 236.754L335.897 236.761Z" fill="#45359E"/>
<path d="M309.007 191.883C311.303 194.651 315.409 197.854 317.754 200.579C318.916 199.575 320.262 199.083 321.234 197.804C317.282 191.834 312.895 185.807 307.845 180.679C308.789 184.578 307.908 188.041 309.007 191.883Z" fill="#FCA1FF"/>
<path d="M314.55 206.318C309.141 205.601 304.704 207.835 299.196 207.414C298.534 207.364 297.851 207.273 297.154 207.14C295.872 206.887 294.978 205.714 295.111 204.421L296.929 186.748L298.527 181.311L298.894 180.068L301.76 178.537L304.908 178.642C309.606 180.679 312.845 186.186 310 192.269C307.232 198.184 314.543 206.325 314.543 206.325L314.55 206.318Z" fill="#FB78FF"/>
<path d="M305.056 178.684C305.056 180.461 303.401 180.461 301.739 178.684L302.126 176.535L302.366 175.2L304.866 176.444L305.049 178.635V178.684H305.056Z" fill="#F7C1CE"/>
<path d="M315.987 200.263C314.55 202.44 313.677 202.047 311.754 202.159C309.247 202.019 306.563 202.398 304.035 202.201C300.978 201.962 296.492 202.946 294.006 200.923C291.52 198.9 294.668 188.911 295.407 186.664C296.379 183.678 297.471 182.379 298.908 180.019C298.267 182.308 297.619 184.486 296.971 186.734C297.372 190.211 297.717 193.709 298.077 197.186C300.549 197.516 302.401 197.741 305.007 198.176C307.31 198.57 310.451 199.104 312.845 199.757C314.958 198.612 317.423 198.078 315.987 200.249V200.263Z" fill="#F7C1CE"/>
<path d="M305.084 197.882C304.824 199.272 304.359 201.127 304 202.567C300.767 202.721 296.879 203.353 293.872 200.825C290.858 198.296 292.886 188.055 294.104 185.252C295.407 182.245 296.499 181.283 298.915 180.012C303.528 184.641 298.682 191.061 298.091 197.2C300.373 197.488 302.823 197.516 305.091 197.882H305.084Z" fill="#FCA1FF"/>
<path d="M306.986 167.101C306.986 167.101 305.718 169.778 301.471 170.768C301.471 170.768 300.147 169.328 299.57 170.227C298.999 171.126 300.387 172.721 300.387 172.721C300.549 175.341 302.436 177.42 304.394 176.928C308.852 175.811 306.986 167.094 306.986 167.094V167.101Z" fill="#F7C1CE"/>
<path d="M334.369 251.835L333.235 255.523L333.946 261.262L335.087 261.318L336.122 256.296L337.96 259.632C338.453 260.531 339.2 261.262 340.214 261.395C342.905 261.74 348.151 261.831 348.37 260.075C348.595 258.27 343.503 258.192 342.017 256.204C340.58 254.28 338.848 251.765 338.848 251.765L334.361 251.842L334.369 251.835Z" fill="#45359E"/>
<path d="M308.5 208.446L312.233 197.277C312.613 196.589 313.338 196.167 314.127 196.167H330.791C332.361 196.167 333.404 197.776 332.77 199.202L328.438 208.931C328.065 209.774 327.227 210.314 326.311 210.314H309.852C308.88 210.314 308.197 209.366 308.507 208.453L308.5 208.446Z" fill="#8370FE"/>
<path d="M320.219 205.095C319.6 204.477 319.6 203.48 320.219 202.862C320.839 202.243 321.839 202.243 322.459 202.862C323.079 203.48 323.079 204.477 322.459 205.095C321.839 205.713 320.839 205.713 320.219 205.095Z" fill="white"/>
<path d="M598.498 292.439L600.083 293.061L604.723 281.302L603.137 280.68L598.498 292.439Z" fill="#1F1C80"/>
<path d="M585.701 287.589L585.497 298.168C585.497 298.168 587.983 301.785 588.504 302.804L594.406 295.878C592.301 293.314 587.511 285.791 584.751 284.583L585.701 287.582V287.589Z" fill="#FCA1FF"/>
<path d="M588.821 278.261C588.821 278.261 590.984 275.732 589.23 272.592C587.659 269.79 582.504 269.544 580.792 271.061C577.581 273.899 578.447 278.851 582.145 280.881L588.821 278.261Z" fill="#45359E"/>
<path d="M574.306 290.638C577.32 296.341 575.989 299.327 576.75 304.075C577.193 307.763 579.173 313.446 581.722 317.449C584.905 316.276 591.322 313.923 594.512 312.75L597.421 315.096C595.949 314.197 583.934 305.761 585.201 300.711C587.469 291.186 584.758 284.59 584.758 284.59C584.941 284.014 585.596 281.899 585.786 281.288L582.609 280.094C582.074 281.014 580.884 283.037 580.335 283.972C579.898 284.913 574.778 290.357 574.313 290.645L574.306 290.638Z" fill="#F7C1CE"/>
<path d="M580.729 315.715C580.828 315.904 580.933 316.094 581.046 316.291C581.264 316.67 581.511 317.33 581.75 317.724C583.103 317.752 584.427 317.429 585.786 317.295C586.723 317.204 587.666 317.077 588.603 316.909C594.139 315.918 595.857 316.747 599.879 313.088C595.723 308.564 589.878 308.213 589.92 300.219C589.983 287.681 584.758 284.59 584.758 284.59C584.983 287.674 583.187 286.845 580.328 283.965C580.088 284.126 575.715 285.897 574.63 288.98C572.249 295.731 574.482 304.3 580.736 315.715H580.729Z" fill="#FB78FF"/>
<path d="M581.659 281.703C582.772 282.82 584.152 283.431 585.025 283.726L585.786 281.288L582.61 280.094L581.666 281.703H581.659Z" fill="#E3BABB"/>
<path d="M581.307 277.376C581.307 277.376 579.912 276.09 580.602 275.114C581.384 274.004 583.06 276.104 583.06 276.104C584.927 276.385 586.286 275.732 588.061 274.306C588.469 273.976 589.082 274.271 589.075 274.798C589.033 276.982 588.758 281.169 587.223 282.215C586.37 282.798 585.406 282.784 584.49 282.517C582.49 281.92 581.335 277.565 581.307 277.376Z" fill="#F7C1CE"/>
<path d="M581.659 270.548C581.659 270.548 580.384 267.464 578.046 269.178C575.665 270.92 577.503 273.484 579.306 273.372C581.102 273.259 581.666 270.548 581.666 270.548H581.659Z" fill="#45359E"/>
<path d="M588.821 278.261C588.821 278.261 588.406 275.388 588.385 274.123C588.385 274.123 588.181 276.217 585.208 277.228C582.941 278.001 583.194 280.403 583.194 280.403C582.483 278.507 582.75 277.615 583.06 276.111L583.821 274.173C583.821 274.173 585.377 273.477 585.377 273.372C585.377 273.267 588.504 272.705 588.504 272.705L589.498 274.292L588.821 278.254V278.261Z" fill="#45359E"/>
<path d="M594.406 324.192C614.619 324.368 633.283 323.778 650.362 325.288C653.715 325.583 657.116 325.253 660.272 325.408C660.272 325.408 660.307 321.699 660.377 321.291C657.222 320.624 653.94 319.746 650.714 319.142C635.643 316.311 619.761 314.141 603.287 312.483L594.406 324.192Z" fill="#F7C1CE"/>
<path d="M590.998 323.89C600.104 331.849 622.733 321.453 650.552 325.984L651.017 318.587C635.945 315.756 619.754 314.141 603.28 312.483L590.991 323.897L590.998 323.89Z" fill="#3C2E8F"/>
<path d="M659.581 325.436L662.934 326.96L668.455 327.002L668.646 325.934L664.018 324.333L667.406 323.012C668.315 322.654 669.103 322.05 669.357 321.102C670.019 318.615 670.758 313.677 669.117 313.255C667.434 312.82 666.73 317.604 664.659 318.763C662.659 319.879 660.06 321.2 660.06 321.2L659.574 325.436H659.581Z" fill="#3C2E8F"/>
<path d="M581.469 317.203C602.816 343.685 614.739 307.847 621.148 309.104C627.557 310.362 636.403 318.763 637.847 319.634C639.53 320.111 642.862 320.716 642.362 318.735C641.206 317.519 640.692 316.536 640.136 314.675C640.136 314.675 640.418 316.424 639.995 314.085C639.573 311.745 628.853 300.647 625.036 300.134C614.486 298.729 606.429 308.655 598.822 312.019C591.209 315.391 587.737 314.457 581.476 317.203H581.469Z" fill="#F7C1CE"/>
<path d="M581.448 317.105C585.173 325.885 593.47 327.599 598.372 327.255C609.908 326.447 617.542 309.758 622.493 310.748C623.55 310.959 632.586 315.932 634.959 318.369C636.734 317.435 640.566 314.731 640.622 314.492C638.312 310.6 629.903 299.741 625.55 298.982C614.831 297.107 591.744 313.459 581.448 317.098V317.105Z" fill="#45359E"/>
<path d="M637.699 319.605C637.692 320.757 637.446 321.095 637.53 322.436C637.608 323.778 638.037 326.124 638.199 327.648C638.572 327.697 638.925 327.683 639.291 327.704C639.601 326.11 639.896 324.508 640.22 322.928C640.721 323.89 641.537 325.126 641.981 326.04C642.432 326.953 643.418 327.571 644.129 327.69C645.996 328.013 651.327 328.519 651.686 326.398C652.045 324.277 646.932 324.185 645.848 322.766C644.763 321.347 643.615 319.971 642.502 318.608C640.897 318.931 639.305 319.275 637.706 319.598L637.699 319.605Z" fill="#45359E"/>
<path d="M580.969 288.544L581.476 290.02L575.975 292.583C575.975 292.583 584.891 307.419 590.498 305.831C594.491 304.7 601.358 294.41 601.358 294.41C602.731 293.419 604.569 288.959 603.787 286.838C602.111 282.335 602.59 288.861 600.498 290.631C600.111 290.954 600.062 288.657 599.041 289.535C598.449 290.041 598.752 292.043 598.386 292.794C597.195 295.225 590.11 299.559 589.913 299.573C589.857 299.573 589.441 298.638 588.772 297.318C587.385 294.557 584.87 290.069 582.117 288.861C581.75 288.685 581.356 288.587 580.976 288.552L580.969 288.544Z" fill="#F7C1CE"/>
<path d="M582.124 301.645L588.42 295.288C588.42 295.288 580.49 282.096 576.088 287.814C573.052 291.762 577.419 297.648 582.117 301.652L582.124 301.645Z" fill="#FCA1FF"/>
<path d="M837.802 194.145C837.71 202.405 838.943 209.879 841.556 217.29C842.042 218.681 842.584 220.071 843.168 221.462L842.492 225.944H855.465L847.091 220.964C846.901 219.776 846.746 218.54 846.605 217.29C845.725 208.826 846.098 199.469 846.352 195.255C846.443 193.73 846.204 192.206 845.655 190.78C843.401 184.915 837.337 168.654 835.386 158.595H821.145C818.708 174.694 825.279 181.627 837.802 194.152V194.145Z" fill="#F9CBCB"/>
<path d="M827.456 183.032C830.181 186.481 833.668 190.014 837.809 194.145C837.717 202.405 838.288 211.79 840.901 219.2L847.387 218.863C846.507 210.399 847.993 196.259 846.669 190.907C845.155 184.809 837.344 168.654 835.393 158.595H821.152C819.518 169.37 821.927 176.05 827.463 183.032H827.456Z" fill="#45359E"/>
<path d="M827.449 183.004V183.032C830.181 186.481 833.667 190.014 837.809 194.145C837.717 202.405 838.288 211.79 840.901 219.2L842.823 219.102C840.119 212.127 839.365 202.981 839.675 193.667C825.533 182.175 834.921 178.038 830.519 169.707L827.449 183.004Z" fill="#37288F"/>
<path d="M847.091 220.963C850.211 222.558 855.656 222.115 855.979 225.944H842.492C842.337 224.138 842.429 222.453 842.957 220.963C844.253 221.195 845.633 221.188 847.091 220.963Z" fill="#45359E"/>
<path d="M808.933 220.373C808.369 221.588 807.841 222.712 807.299 223.892C810.919 224.756 814.546 225.62 818.166 226.484C815.976 224.672 813.771 222.888 811.588 221.048C812.426 219.362 813.44 216.973 814.349 215.449C817.976 209.324 822.082 203.894 826.237 198.176C827.223 196.814 827.864 195.5 828.167 193.73C830.104 182.47 829.857 170.852 831.893 159.564C828.674 159.065 825.469 158.58 822.258 158.096C813.306 172.046 815.201 179.485 818.955 194.453C814.497 200.466 812.039 207.266 810.257 214.529C809.89 216.025 809.264 218.708 808.94 220.373H808.933Z" fill="#F9CBCB"/>
<path d="M828.153 193.744C827.836 195.521 827.322 196.666 826.202 198.233C821.49 204.807 817.8 212.288 813.659 219.263C811.87 218.856 810.109 218.434 808.327 218.02C810.384 209.886 813.842 201.267 818.948 194.461C815.201 179.478 813.299 172.06 822.251 158.11C822.251 158.11 822.251 158.103 822.251 158.096C825.906 158.651 829.554 159.206 833.21 159.767C833.16 160.041 833.111 160.322 833.055 160.596V160.617C831.111 171.617 830.097 182.758 828.146 193.751L828.153 193.744Z" fill="#45359E"/>
<path d="M830.998 161.046C829.822 162.69 830.928 165.991 829.646 167.782C826.315 172.425 821.836 168.983 818.955 170.859C814.053 174.041 819.497 188.553 820.575 192.487C820.61 192.606 821.364 195.219 821.864 195.17C819.603 195.444 820.406 193.85 817.511 198.738C816.208 200.944 809.461 213.827 809.208 217.915C808.63 218.477 808.665 217.915 808.334 218.027C810.398 209.879 813.849 201.274 818.962 194.461C815.215 179.485 813.314 172.06 822.265 158.11C825.822 158.925 830.273 158.377 833.745 159.185C834.154 159.283 831.766 159.985 831.005 161.053L830.998 161.046Z" fill="#37288F"/>
<path d="M812.152 219.959C815.201 222.087 819.427 222.72 819.701 226.85C815.497 225.845 811.292 224.841 807.088 223.836C807.447 222.137 808.179 220.704 809.144 219.25C810.067 220.043 810.947 220.219 812.144 219.952L812.152 219.959Z" fill="#45359E"/>
<path d="M855.564 125.377C855.486 125.496 855.134 126.234 855.064 126.479C854.205 125.967 853.451 125.32 852.634 124.744C852.873 124.513 853.331 123.902 853.324 123.614C853.289 122.658 852.676 121.324 853.388 120.642C854.106 119.968 854.437 121.577 854.486 122.033C855.606 120.776 855.606 120.375 856.564 118.725C859.113 114.327 856.367 124.07 855.564 125.377Z" fill="#F9CBCB"/>
<path d="M855.641 126.009C853.93 130.223 852.042 135.864 847.739 137.803C842.844 140.008 838.696 137.585 833.801 137.613C833.055 133.953 832.181 130.434 831.4 126.824C836.752 127.568 840.844 130.476 845.507 132.977C848.324 130.294 850.373 127.154 852.5 123.916C853.55 124.611 854.599 125.257 855.634 126.009H855.641Z" fill="#FFD182"/>
<path d="M854.585 125.342C852.873 129.64 849.19 136.384 847.436 137.592C846.035 138.561 838.372 137.339 833.815 137.557C833.794 137.48 833.815 137.543 833.808 137.606C838.703 137.585 845.69 140.24 847.979 138.919C850.852 137.262 853.923 130.216 855.641 126.002C855.317 125.7 854.937 125.51 854.585 125.334V125.342Z" fill="#F0BF6C"/>
<path d="M839.337 141.231L835.386 158.609H821.145C821.145 158.609 818.786 141.905 822.406 133.153C824.033 129.212 829.378 127.505 829.709 127.4H829.724L833.696 127.625L839.337 141.231Z" fill="#F9CBCB"/>
<path d="M839.168 141.94L835.837 156.593C835.569 157.773 834.534 158.609 833.336 158.609C831.273 159.557 828.336 159.234 825.195 158.609C822.85 158.609 820.899 156.789 820.702 154.422C820.251 148.894 819.92 139.151 822.406 133.146C823.681 130.062 827.23 128.348 828.871 127.695C829.385 127.491 829.935 127.386 830.491 127.386H833.562C834.034 127.393 839.267 140.5 839.267 140.5C839.309 140.985 839.281 141.469 839.168 141.94Z" fill="white"/>
<path d="M838.738 157.281H823.624V159.515H838.738V157.281Z" fill="#182F57"/>
<path d="M832.78 167.221C832.97 167.923 833.541 168.464 834.245 168.668C835.118 168.92 836.041 168.949 837.013 168.815C837.055 168.815 837.09 168.801 837.126 168.794C837.837 168.682 838.576 168.478 839.323 168.204V146.534C839.323 146.534 839.422 142.551 839.323 141.231C838.914 135.386 839.492 128.517 833.928 127.421C833.66 127.365 833.541 127.393 833.541 127.393C837.788 145.326 830.752 159.775 832.766 167.221H832.78Z" fill="#FFD182"/>
<path d="M816.927 169.363C819.913 170.009 823.258 169.714 825.829 169.349C827.991 169.047 829.526 167.094 829.364 164.888C828.47 152.561 832.027 140.479 829.716 127.393H829.702C829.364 127.505 823.998 129.198 822.399 133.145C819.385 140.577 818.208 157.042 815.912 167.747C815.757 168.471 816.208 169.208 816.927 169.363Z" fill="#FFD182"/>
<path d="M819.251 159.199C821.406 159.613 823.653 159.634 825.998 159.199V158.166C823.962 158.482 821.702 158.468 819.251 158.166V159.199Z" fill="#F0BF6C"/>
<path d="M817.187 160.309C817.187 160.309 816.941 159.508 816.49 158.686L819.216 157.611C819.216 157.611 819.434 158.974 819.786 159.206C820.371 159.585 821.659 160.028 822.174 160.878C822.695 161.728 820.49 161.025 820.49 161.025C820.49 161.025 820.842 163.182 822.019 164.601C823.195 166.012 819.047 167.368 817.18 160.323L817.187 160.309Z" fill="#F9CBCB"/>
<path d="M819.638 158.236L816.314 159.648C814.617 156.523 810.729 147.974 810.468 144.609C810.144 140.346 824.153 130.61 824.153 130.61L827.681 137.037C824.012 141.715 817.772 145.115 817.772 145.115L819.645 158.243L819.638 158.236Z" fill="#FFD182"/>
<path d="M827.456 137.009C821.314 142.284 817.011 144.827 817.025 144.412L818.73 158.63L819.638 158.243L817.765 145.115C821.117 143.148 824.35 140.458 827.456 137.009Z" fill="#F0BF6C"/>
<path d="M831.245 124.625C831.245 124.625 827.843 124.611 827.026 120.67C826.209 116.723 829.456 115.325 831.583 115.346C834.541 115.381 836.062 113.225 836.062 113.225C836.062 113.225 837.95 115.796 836.865 118.05C835.921 120.003 831.245 124.632 831.245 124.632V124.625Z" fill="#45359E"/>
<path d="M833.872 122.764L833.794 123.902L833.597 126.957L833.569 127.421C833.506 129.844 829.914 128.84 829.731 127.393L830.322 124.983L830.759 123.213L830.914 122.595L831.174 121.542L833.886 122.764H833.872Z" fill="#F9CBCB"/>
<path d="M833.794 123.902L833.597 126.957C832.696 126.775 831.322 126.353 830.625 125.412C830.519 125.264 830.414 125.124 830.315 124.983L830.752 123.213L830.907 122.595L833.801 123.909L833.794 123.902Z" fill="#F0B4B4"/>
<path d="M835.168 117.58C835.752 117.221 836.506 117.643 836.541 118.338C836.661 120.825 836.548 124.864 834.597 125.524C831.745 126.486 829.702 122.728 829.702 122.728C829.702 122.728 828.477 120.986 829.343 120.389C830.202 119.792 831.019 121.26 831.019 121.26C831.16 118.493 833.463 118.64 835.168 117.587V117.58Z" fill="#F9CBCB"/>
<path d="M901.068 115.128V124.344L896.286 124.141L895.413 124.105L893.243 124.014L892.377 123.979L873.671 123.178L841.732 121.816V117.657L873.671 116.294L892.448 115.494L893.321 115.459L895.49 115.367L896.363 115.325L901.068 115.128Z" fill="#B194FF"/>
<path d="M895.413 122.918L893.243 122.827L892.377 122.785L873.671 121.991L841.732 120.628V121.816L873.671 123.178L892.377 123.979L893.243 124.014L895.413 124.105L896.286 124.141L901.068 124.344V123.157L896.286 122.953L895.413 122.918Z" fill="#9C7FEB"/>
<path d="M840.809 116.589C840.302 116.589 839.886 116.997 839.886 117.51V121.829C839.886 122.335 840.295 122.75 840.809 122.75C841.323 122.75 841.732 122.342 841.732 121.829V117.51C841.732 117.004 841.323 116.589 840.809 116.589Z" fill="#45359E"/>
<path d="M902.139 119.736C902.139 122.279 901.448 124.344 900.596 124.344C899.744 124.344 899.054 122.279 899.054 119.736C899.054 117.194 899.744 115.128 900.596 115.128C901.448 115.128 902.139 117.194 902.139 119.736Z" fill="white"/>
<path d="M900.596 124.773C899.3 124.773 898.624 122.237 898.624 119.736C898.624 117.235 899.3 114.7 900.596 114.7C901.892 114.7 902.568 117.235 902.568 119.736C902.568 122.237 901.892 124.773 900.596 124.773ZM900.596 115.557C900.265 115.557 899.483 116.983 899.483 119.736C899.483 122.49 900.265 123.916 900.596 123.916C900.927 123.916 901.709 122.49 901.709 119.736C901.709 116.983 900.927 115.557 900.596 115.557Z" fill="#45359E"/>
<path d="M896.286 124.141L895.42 124.105C895.046 121.204 895.075 118.261 895.497 115.367L896.37 115.332C895.927 118.247 895.906 121.225 896.293 124.148L896.286 124.141Z" fill="white"/>
<path d="M893.243 124.014L892.377 123.979C892.025 121.162 892.053 118.303 892.455 115.5L893.328 115.465C892.912 118.296 892.884 121.183 893.25 124.021L893.243 124.014Z" fill="white"/>
<path d="M873.671 116.042V123.438L844.788 122.111L843.598 122.061L841.732 121.977V117.503L843.598 117.411L844.788 117.362L873.671 116.042Z" fill="#8B60FF"/>
<path d="M841.964 120.558V117.488L841.732 117.502V121.977L873.671 123.438V122.012L841.964 120.558Z" fill="#7D52F0"/>
<path d="M874.397 115.29C873.995 115.29 873.678 115.571 873.678 115.922V123.831C873.678 124.182 874.002 124.463 874.397 124.463C874.791 124.463 875.115 124.182 875.115 123.831V115.922C875.115 115.571 874.791 115.29 874.397 115.29Z" fill="white"/>
<path d="M844.788 117.362V122.11L843.598 122.061V117.411L844.788 117.362Z" fill="white"/>
<path d="M101.58 228.002C101.58 228.002 104.305 243.301 108.285 244.354C110.088 244.832 112.398 244.432 114.609 243.687C118.342 242.43 121.779 240.182 121.898 239.571L125.688 228.1C123.504 229.034 111.081 236.101 110.066 236.775C108.425 234.317 104.855 227.911 104.742 227.44C104.742 227.44 105.51 223.991 104.834 223.015C104.228 222.158 104.01 224.974 103.756 224.63C103.481 224.251 101.833 220.261 100.735 221.427C98.3048 224.026 101.594 227.988 101.594 227.988L101.58 228.002Z" fill="#F9CBCB"/>
<path d="M112.158 235.153C112.44 238.145 114.187 242.191 114.363 244.067C118.095 242.809 122.603 242.388 122.715 241.77L125.673 228.093C123.49 229.027 116.483 232.582 112.151 235.146L112.158 235.153Z" fill="#EBB457"/>
<path d="M126.681 293.328C127.462 296.243 127.948 298.856 128.209 301.286C128.871 307.496 128.681 317.063 127.547 323.111L124.356 322.795C124.356 322.795 119.842 306.456 117.715 298.097C117.166 295.976 116.743 294.08 116.518 292.654C115.229 284.498 120.004 261.395 120.307 259.899L120.321 259.843V259.822L133.174 258.031C139.999 274.236 131.899 278.31 126.688 293.321L126.681 293.328Z" fill="#F1CCCD"/>
<path d="M132.738 280.017C130.927 283.74 128.603 287.786 126.681 293.335C127.392 295.976 128.202 298.715 129.139 301.918L118.025 303.464C117.476 301.342 116.736 294.093 116.511 292.66C115.222 284.505 119.997 261.402 120.3 259.906L120.314 259.85V259.829L133.167 258.038C137.477 268.258 135.843 273.653 132.738 280.017Z" fill="#37288F"/>
<path d="M132.738 280.017C130.928 283.74 128.603 287.786 126.681 293.335C127.392 295.976 128.202 298.716 129.139 301.919L127.089 302.207C126.737 299.039 123.934 293.841 122.99 294.002C123.821 293.798 131.463 278.879 132.047 273.709L132.745 280.024L132.738 280.017Z" fill="#2A1C80"/>
<path d="M140.133 326.848L147.964 317.793C147.964 317.793 142.217 308.837 137.562 302.881C136.456 301.455 135.414 300.211 134.526 299.284C128.153 292.702 124.828 259.534 124.828 259.534H135.365C143.619 267.106 141.541 277.53 141.788 287.828C141.872 291.396 143.02 294.838 144.957 297.844C145.344 298.448 145.711 299.059 146.056 299.692C148.464 304.075 149.894 309.217 151.211 317.667L152.845 323.146L140.14 326.841L140.133 326.848Z" fill="#F1CCCD"/>
<path d="M146.584 299.516L143.541 300.907L137.358 303.731C136.252 302.305 135.421 300.212 134.526 299.292C128.153 292.71 124.04 259.415 124.04 259.415L134.914 259.541H135.365C143.344 266.867 141.668 276.849 141.767 286.809C141.809 290.876 143.126 294.838 145.612 298.062C145.978 298.533 146.309 299.018 146.591 299.53L146.584 299.516Z" fill="#45359E"/>
<path d="M146.584 299.516L143.541 300.907C142.555 299.362 141.069 296.432 140.287 294.459C138.217 289.232 139.492 282.131 138.992 272.149C138.625 264.795 132.392 261.22 132.392 261.22L134.914 259.534H135.364C143.344 266.86 141.668 276.842 141.766 286.802C141.809 290.869 143.126 294.831 145.612 298.055C145.978 298.526 146.309 299.01 146.591 299.523L146.584 299.516Z" fill="#37288F"/>
<path d="M140.71 238.131C140.619 244.755 138.985 256.239 138.365 260.37C138.273 260.967 137.942 261.487 137.477 261.81C137.224 261.985 136.921 262.112 136.597 262.161C133.625 262.604 130.709 262.842 127.871 262.835C125.314 262.835 122.828 262.646 120.405 262.224C119.462 262.056 118.736 261.304 118.631 260.349C118.293 257.223 119.279 250.367 119.117 243.694C119.011 239.472 120.342 228.669 128.244 226.976L132.871 226.934C138.062 228.276 140.238 232.237 140.597 235.005C140.71 235.827 140.745 236.902 140.724 238.138L140.71 238.131Z" fill="#FFD182"/>
<path d="M123.976 321.889C119.06 323.771 113.609 323.575 113.264 328L128.73 327.459C128.913 325.584 128.596 323.729 127.793 321.882H123.976V321.889Z" fill="#37288F"/>
<path d="M147.964 317.794C144.027 321.285 138.146 323.743 139.386 328.007L153.669 323.244C153.176 321.425 152.514 318.503 151.112 317.063L147.964 317.794Z" fill="#45359E"/>
<path d="M129.681 222.895C131.188 223.359 131.794 224.11 133.724 223.239C136.653 221.919 139.132 216.854 135.238 214.564C134.97 213.763 134.695 213.447 133.674 213.23C132.646 213.005 131.597 213.454 130.181 213.426C128.765 213.405 126.765 211.951 125.533 214.002C124.3 216.053 127.357 217.648 128.892 218.659C130.427 219.671 129.927 221.413 129.688 222.888L129.681 222.895Z" fill="#45359E"/>
<path d="M132.928 226.941C131.244 228.62 129.653 228.943 128.23 226.969L128.632 223.731L128.801 222.368H132.526L132.597 223.211L132.928 226.941Z" fill="#F9CBCB"/>
<path d="M132.653 223.815C131.73 224.918 129.195 225.241 128.505 224.764L128.801 222.361L132.547 220.795L132.653 223.815Z" fill="#F0B4B4"/>
<path d="M126.892 215.871C126.209 217.802 125.533 222.059 127.174 223.647C128.209 224.651 131.984 224.265 132.752 221.504C133.66 220.851 134.329 219.249 133.491 218.519C132.892 217.999 132.132 219.369 131.089 219.144C130.695 219.06 131.906 216.426 130.674 215.969C129.441 215.513 128.138 216.503 126.892 215.871Z" fill="#F9CBCB"/>
<path d="M134.414 243.504C134.414 243.504 130.272 248.477 126.519 251.21C125.617 251.856 124.751 252.376 123.955 252.678C118.483 254.75 105.848 253.12 105.848 253.12C101.868 255.143 96.8399 253.942 95.8468 252.446C94.0931 249.77 100.608 252.292 101.242 250.697C101.242 250.697 98.2414 249.067 99.0866 247.88C99.9247 246.686 105.15 249.868 105.15 249.868C110.433 247.698 115.757 246.504 120.786 246.159C121.187 245.597 121.596 245.028 122.011 244.473C125.026 240.477 128.526 236.845 133.28 234.429C135.583 237.435 135.512 240.47 134.421 243.504H134.414Z" fill="#F9CBCB"/>
<path d="M127.688 251.343L121.152 244.059C124.166 240.062 129.942 231.31 133.97 234.801C139.33 239.451 131.442 248.604 127.688 251.343Z" fill="#EBB457"/>
<path d="M90.2406 220.036C91.2689 219.418 92.3394 218.997 93.4381 218.73C93.6071 218.688 93.7762 218.653 93.9452 218.617C95.7059 218.266 97.5441 218.273 99.4246 218.491C99.5936 218.512 99.7626 218.533 99.9246 218.554C100.143 218.582 100.361 218.617 100.587 218.653C100.678 218.667 100.763 218.681 100.854 218.695C100.946 218.709 101.044 218.723 101.136 218.744C101.221 218.758 101.305 218.772 101.39 218.786C101.523 218.484 101.65 218.182 101.777 217.88C102.439 216.222 102.918 214.473 103.2 212.619C103.249 212.296 103.291 211.965 103.333 211.635C103.256 211.607 103.171 211.586 103.094 211.558C103.002 211.53 102.911 211.502 102.826 211.474C102.735 211.446 102.65 211.417 102.559 211.389C102.326 211.312 102.094 211.235 101.861 211.158C101.699 211.101 101.544 211.045 101.382 210.989C99.6922 210.378 98.0935 209.619 96.7905 208.355C96.6637 208.228 96.537 208.102 96.4172 207.969C95.6637 207.14 95.0228 206.114 94.5509 204.808L90.2336 220.036H90.2406Z" fill="white"/>
<path d="M90.6491 218.596L94.5509 204.808C94.6002 204.955 94.6565 205.096 94.7129 205.229L90.6421 218.589L90.6491 218.596Z" fill="#D8DAEB"/>
<path d="M90.2407 220.036C93.2902 218.21 96.7131 218.084 100.277 218.61C100.382 218.624 100.481 218.639 100.587 218.66C100.608 218.66 100.629 218.66 100.65 218.667C100.72 218.681 100.791 218.688 100.854 218.702C100.904 218.709 100.953 218.716 101.002 218.723C101.052 218.73 101.094 218.737 101.143 218.744C101.206 218.758 101.277 218.765 101.34 218.779C101.361 218.779 101.375 218.779 101.397 218.786C101.53 218.484 101.657 218.182 101.784 217.88C101.735 217.978 101.692 218.084 101.643 218.182C101.643 218.182 101.629 218.182 101.622 218.182C101.545 218.168 101.467 218.147 101.39 218.133C101.347 218.126 101.305 218.112 101.27 218.105C101.213 218.091 101.164 218.084 101.108 218.07C101.044 218.056 100.981 218.041 100.918 218.034C100.89 218.034 100.868 218.027 100.84 218.02C100.742 217.999 100.65 217.985 100.551 217.964C97.0089 217.311 93.5931 217.311 90.5224 219.032L90.2407 220.036Z" fill="#D4C4FF"/>
<path d="M85.5008 210.462C84.2753 214.979 85.6064 219.271 88.4799 220.05C91.3534 220.823 94.6777 217.796 95.9031 213.272C97.1286 208.755 95.7975 204.464 92.924 203.684C90.0505 202.911 86.7263 205.939 85.5008 210.462Z" fill="#8B60FF"/>
<path d="M107.693 213.405L106.059 219.425C106.791 219.573 108.468 220.205 109.207 220.092C111.116 220.008 112.567 217.971 111.989 216.124C111.56 214.199 109.306 213.813 107.693 213.405Z" fill="white"/>
<path d="M106.172 219.011L106.059 219.425C106.791 219.572 108.468 220.205 109.207 220.092C111.116 220.008 112.567 217.971 111.989 216.124C111.898 215.807 111.757 215.505 111.574 215.231C112.44 217.065 111.024 219.432 109.017 219.558C108.278 219.685 106.897 219.165 106.172 219.003V219.011Z" fill="#CFD2EB"/>
<path d="M86.2614 210.673C85.2121 214.529 86.2474 218.168 88.5715 218.793C89.4237 219.025 90.3322 218.814 91.1915 218.266C91.8112 217.873 92.4029 217.304 92.9381 216.594C93.1283 216.342 93.3043 216.075 93.4734 215.794C93.4804 215.78 93.4945 215.759 93.5015 215.745C93.9875 214.923 94.3889 213.974 94.6707 212.942C94.896 212.12 95.0228 211.312 95.0651 210.539C95.0651 210.413 95.0792 210.294 95.0792 210.174V210.16C95.0932 209.31 95.0017 208.509 94.8115 207.8C94.403 206.269 93.5508 205.152 92.3606 204.829C90.0364 204.204 87.3038 206.817 86.2544 210.673H86.2614Z" fill="#E3D9FF"/>
<path d="M99.812 225.86C99.9317 225.895 100.051 225.832 100.101 225.719C100.629 224.392 101.453 223.724 102.038 222.65C102.756 221.322 102.749 219.369 104.256 218.33L106.946 219.053L103.094 226.422C103.024 226.562 103.094 226.738 103.249 226.78C103.383 226.815 103.46 226.948 103.425 227.082L103.193 227.932C103.157 228.065 103.024 228.143 102.89 228.1L99.4598 227.173C99.326 227.138 99.2485 227.005 99.2908 226.871L99.5232 226.021C99.5584 225.888 99.6922 225.81 99.8261 225.846L99.812 225.86Z" fill="#8B60FF"/>
<path d="M102.354 227.58C102.488 227.616 102.622 227.538 102.657 227.412L102.89 226.562C102.925 226.428 102.847 226.295 102.721 226.26C102.566 226.218 102.488 226.042 102.566 225.902L106.249 218.863L106.946 219.053L103.094 226.421C103.024 226.562 103.094 226.738 103.249 226.78C103.383 226.815 103.46 226.948 103.425 227.082L103.193 227.932C103.157 228.065 103.024 228.142 102.89 228.1L99.4598 227.173C99.326 227.138 99.2485 227.004 99.2908 226.871L99.326 226.752L102.369 227.573L102.354 227.58Z" fill="#7549EB"/>
<path d="M89.3814 217.887C90.0012 217.494 90.5928 216.925 91.1281 216.215C91.3182 215.963 91.4943 215.696 91.6633 215.415C91.6704 215.401 91.6845 215.38 91.6915 215.366C92.1775 214.544 92.5789 213.595 92.8606 212.563C93.086 211.741 93.2128 210.933 93.255 210.16C93.255 210.034 93.2691 209.915 93.2691 209.795V209.781C93.2832 208.931 93.1916 208.13 93.0015 207.421C92.6846 206.22 92.0859 205.272 91.2689 204.766C91.6422 204.717 92.0084 204.731 92.3676 204.829C93.5579 205.152 94.4171 206.269 94.8186 207.8C95.0087 208.51 95.1003 209.311 95.0862 210.16V210.175C95.0862 210.294 95.0862 210.42 95.0721 210.54C95.0298 211.312 94.9031 212.12 94.6777 212.942C94.396 213.982 93.9945 214.93 93.5086 215.745C93.5015 215.759 93.4874 215.78 93.4804 215.794C93.3114 216.075 93.1283 216.342 92.9451 216.595C92.4169 217.304 91.8183 217.873 91.1985 218.267C90.3393 218.814 89.4307 219.018 88.5785 218.793C88.325 218.723 88.0855 218.618 87.8602 218.477C88.3743 218.407 88.8884 218.203 89.3814 217.887Z" fill="#CFC2F5"/>
<path d="M108.545 213.174C109.313 213.497 109.693 214.459 109.44 215.407L108.559 218.638C108.299 219.587 107.482 220.226 106.658 220.121C105.334 219.945 103.742 219.797 102.453 219.629C101.559 219.509 100.96 218.681 101.256 217.95C102.052 216.004 102.566 213.995 102.833 211.923C102.911 211.354 103.573 211.045 104.179 211.284C105.686 211.888 107.08 212.548 108.545 213.174Z" fill="#8B60FF"/>
<path d="M89.3181 213.335L93.5086 215.744C93.9945 214.923 94.396 213.974 94.6777 212.942C94.9031 212.12 95.0298 211.312 95.0721 210.539C95.0721 210.413 95.0862 210.294 95.0862 210.174V210.16L90.128 210.469L89.3181 213.342V213.335Z" fill="white"/>
<path d="M92.2902 214.417C92.8395 214.733 93.5438 214.508 93.8044 213.939C94.0509 213.392 94.2692 212.801 94.4312 212.176C94.6143 211.495 94.734 210.828 94.7974 210.174L95.0862 210.153V210.167C95.0862 210.287 95.0862 210.413 95.0721 210.533C95.0298 211.305 94.9031 212.12 94.6777 212.935C94.396 213.975 93.9945 214.923 93.5086 215.738L89.3181 213.328L89.466 212.787L92.2831 214.41L92.2902 214.417Z" fill="#E6E7F5"/>
<path d="M88.5926 211.649C88.3673 212.478 88.6279 213.272 89.1772 213.419C89.7265 213.567 90.3534 213.012 90.5787 212.183C90.8041 211.354 90.5435 210.56 89.9942 210.413C89.4448 210.265 88.818 210.82 88.5926 211.649Z" fill="#8B60FF"/>
<path d="M88.7194 211.684C88.5222 212.408 88.7194 213.089 89.1631 213.209C89.6068 213.328 90.1209 212.836 90.3181 212.113C90.5153 211.389 90.3181 210.708 89.8744 210.589C89.4307 210.469 88.9166 210.961 88.7194 211.684Z" fill="#7549EB"/>
<path d="M89.712 212.008C89.7753 211.783 89.7331 211.579 89.6135 211.551C89.5009 211.523 89.3602 211.678 89.2969 211.902C89.2336 212.127 89.2758 212.331 89.3954 212.359C89.5079 212.387 89.6486 212.233 89.712 212.008Z" fill="white"/>
<path d="M102.284 218.723C103.573 218.891 105.165 219.039 106.489 219.215C107.313 219.32 108.13 218.688 108.39 217.732L109.271 214.501C109.32 214.326 109.341 214.15 109.348 213.981C109.531 214.396 109.58 214.902 109.44 215.4L108.559 218.632C108.299 219.58 107.482 220.219 106.658 220.114C105.334 219.938 103.742 219.791 102.453 219.622C101.615 219.51 101.037 218.772 101.214 218.077C101.432 218.407 101.819 218.66 102.277 218.723H102.284Z" fill="#7549EB"/>
<path d="M105.862 214.319L107.707 214.817C107.982 214.888 108.256 214.733 108.334 214.459C108.404 214.185 108.249 213.911 107.975 213.834L106.136 213.335C105.862 213.265 105.587 213.42 105.51 213.693C105.439 213.967 105.594 214.241 105.869 214.319H105.862Z" fill="white"/>
<path d="M105.481 213.989L107.77 214.607C107.918 214.649 108.073 214.558 108.108 214.41L108.228 213.961C108.228 213.961 108.235 213.925 108.235 213.904C108.355 213.96 108.418 214.094 108.383 214.227L108.263 214.677C108.221 214.824 108.073 214.909 107.925 214.874L105.636 214.256C105.51 214.22 105.425 214.101 105.432 213.968C105.446 213.968 105.46 213.982 105.481 213.982V213.989Z" fill="#CFD2EB"/>
<path d="M107.249 215.864L107.538 215.941C107.742 215.998 107.947 215.878 108.003 215.674C108.059 215.471 107.939 215.267 107.735 215.211L107.446 215.134C107.242 215.077 107.038 215.197 106.982 215.4C106.925 215.604 107.045 215.808 107.249 215.864Z" fill="white"/>
<path d="M107.01 215.71L107.665 215.885C107.763 215.913 107.869 215.85 107.897 215.752L107.996 215.387C107.996 215.387 108.003 215.33 107.996 215.302C108.045 215.351 108.066 215.422 108.052 215.492L107.954 215.857C107.925 215.955 107.82 216.019 107.721 215.991L107.066 215.815C106.989 215.794 106.939 215.738 106.925 215.66C106.946 215.682 106.975 215.696 107.003 215.71H107.01Z" fill="#CFD2EB"/>
<path d="M106.241 215.197C106.304 214.958 106.164 214.712 105.925 214.642C105.685 214.578 105.439 214.719 105.369 214.958C105.305 215.197 105.446 215.442 105.685 215.513C105.925 215.583 106.171 215.435 106.241 215.197Z" fill="white"/>
<path d="M105.65 215.442C105.889 215.506 106.136 215.365 106.206 215.126C106.234 215.028 106.22 214.93 106.185 214.845C106.248 214.951 106.276 215.077 106.241 215.203C106.178 215.442 105.932 215.583 105.685 215.52C105.545 215.484 105.439 215.379 105.383 215.253C105.439 215.344 105.531 215.421 105.643 215.449L105.65 215.442Z" fill="#CFD2EB"/>
<path d="M108.552 220.078C108.771 220.107 108.996 220.114 109.207 220.1C110.658 218.709 111.264 216.082 110.975 214.578C110.792 214.424 110.588 214.29 110.362 214.185C110.919 215.773 110.179 218.526 108.552 220.071V220.078Z" fill="#6431EB"/>
<path d="M696.359 53.4551C694.542 53.4551 692.824 53.8274 691.31 54.4806C692.211 52.7105 692.718 50.7578 692.718 48.6996C692.718 40.7481 685.203 34.2998 675.935 34.2998C666.666 34.2998 659.152 40.7481 659.152 48.6996C659.152 48.8823 659.152 49.0719 659.166 49.2546C658.166 48.8963 657.074 48.6996 655.926 48.6996C652.214 48.6996 649.066 50.7507 647.925 53.6026C647.277 53.5043 646.608 53.4481 645.925 53.4481C639.713 53.4481 634.685 57.768 634.685 63.0995C634.685 68.4309 639.72 72.7509 645.925 72.7509C649.559 72.7509 652.792 71.2687 654.849 68.9718C656.898 71.3249 660.173 72.8492 663.856 72.8492C666.85 72.8492 669.568 71.8447 671.582 70.2081C673.597 71.8447 676.315 72.8492 679.309 72.8492C682.745 72.8492 685.823 71.5216 687.887 69.4424C689.95 71.4724 692.986 72.7579 696.366 72.7579C702.578 72.7579 707.607 68.4379 707.607 63.1065C707.607 57.775 702.571 53.4551 696.366 53.4551H696.359Z" fill="#EAE8FF"/>
<path d="M117.905 126.262C116.088 126.262 114.37 126.634 112.855 127.287C113.757 125.517 114.264 123.564 114.264 121.506C114.264 113.555 106.749 107.106 97.4807 107.106C88.2123 107.106 80.6975 113.555 80.6975 121.506C80.6975 121.689 80.6975 121.879 80.7116 122.061C79.7115 121.703 78.6198 121.506 77.4718 121.506C73.7602 121.506 70.6121 123.557 69.4711 126.409C68.8232 126.311 68.1541 126.255 67.4709 126.255C61.2591 126.255 56.2305 130.575 56.2305 135.906C56.2305 141.238 61.2661 145.558 67.4709 145.558C71.1051 145.558 74.3378 144.075 76.3943 141.778C78.4438 144.132 81.7187 145.656 85.4021 145.656C88.3954 145.656 91.1139 144.651 93.1282 143.015C95.1425 144.651 97.861 145.656 100.854 145.656C104.291 145.656 107.369 144.328 109.433 142.249C111.496 144.279 114.532 145.565 117.912 145.565C124.124 145.565 129.153 141.245 129.153 135.913C129.153 130.582 124.117 126.262 117.912 126.262H117.905Z" fill="#EAE8FF"/>
<path d="M48.6171 326.096H832.358C832.836 326.096 833.231 326.49 833.231 326.967V327.136C833.231 327.613 832.836 328.007 832.358 328.007H48.6171C48.1382 328.007 47.7438 327.613 47.7438 327.136V326.967C47.7438 326.49 48.1382 326.096 48.6171 326.096Z" fill="#2D2148"/>
<path d="M0.873319 326.096H34.2637C34.7426 326.096 35.137 326.49 35.137 326.967V327.136C35.137 327.613 34.7426 328.007 34.2637 328.007H0.873319C0.394402 328 0 327.613 0 327.129V326.96C0 326.483 0.394402 326.096 0.873319 326.096Z" fill="#2D2148"/>
<path d="M846.746 326.096H859.557C860.036 326.096 860.431 326.49 860.431 326.967V327.136C860.431 327.613 860.036 328.007 859.557 328.007H846.746C846.267 328.007 845.873 327.613 845.873 327.136V326.967C845.873 326.49 846.267 326.096 846.746 326.096Z" fill="#2D2148"/>
<path d="M925.127 326.096H871.03C870.548 326.096 870.157 326.486 870.157 326.967V327.136C870.157 327.617 870.548 328.007 871.03 328.007H925.127C925.609 328.007 926 327.617 926 327.136V326.967C926 326.486 925.609 326.096 925.127 326.096Z" fill="#2D2148"/>
</g>
<defs>
<clipPath id="clip0_2012_24806">
<rect width="926" height="328" fill="white"/>
</clipPath>
</defs>
</svg>
