<svg width="96" height="94" viewBox="0 0 96 94" fill="none" xmlns="http://www.w3.org/2000/svg">
<path d="M85.7676 45.6197H10.2327C9.78704 45.6197 9.42578 45.9819 9.42578 46.4288V61.1356C9.42578 61.5825 9.78704 61.9448 10.2327 61.9448H85.7676C86.2132 61.9448 86.5745 61.5825 86.5745 61.1356V46.4288C86.5745 45.9819 86.2132 45.6197 85.7676 45.6197Z" fill="#FCDA6E"/>
<path d="M44.27 19.9609L46.8393 18.087L49.4015 19.9609L48.4247 16.9301L50.994 15.0633H47.816L46.8393 12.0325L45.8554 15.0633H42.6846L45.2538 16.9301L44.27 19.9609Z" fill="black"/>
<path d="M35.1255 18.1083L36.4915 17.1146L37.8646 18.1083L37.3408 16.4971L38.7069 15.4963H37.0152L36.4915 13.8851L35.9748 15.4963H34.2832L35.6493 16.4971L35.1255 18.1083Z" fill="black"/>
<path d="M55.8069 18.1083L57.18 17.1146L58.546 18.1083L58.0223 16.4971L59.3953 15.4963H57.7037L57.18 13.8851L56.6562 15.4963H54.9646L56.3307 16.4971L55.8069 18.1083Z" fill="black"/>
<path d="M20.2547 41.8507V16.5183C20.2562 16.3919 20.2963 16.2689 20.3697 16.1661C20.4431 16.0633 20.5463 15.9856 20.6652 15.9434L46.8533 6.71616C47.5406 6.47487 48.2893 6.47487 48.9766 6.71616L75.1647 15.9434C75.2829 15.9858 75.3851 16.0639 75.4573 16.1668C75.5295 16.2697 75.5682 16.3925 75.5681 16.5183V41.8365H80.098V16.5183C80.0988 15.4519 79.7689 14.4117 79.1538 13.5418C78.5387 12.6719 77.669 12.0154 76.6652 11.6634L50.4771 2.43614C48.8158 1.85462 47.007 1.85462 45.3457 2.43614L19.1576 11.6634C18.1538 12.0154 17.2841 12.6719 16.669 13.5418C16.054 14.4117 15.724 15.4519 15.7249 16.5183V41.8365L20.2547 41.8507Z" fill="black"/>
<path fill-rule="evenodd" clip-rule="evenodd" d="M50.9756 1.0214C48.9934 0.327576 46.8323 0.326554 44.8501 1.02037L44.8472 1.0214L18.6612 10.2479L18.66 10.2483C18.66 10.2483 16.5191 10.9413 15.5 12.5C14.5343 13.9771 14.2249 16.5189 14.2249 16.5189V43.3318L21.7547 43.3554V17.1499L47.3501 8.13149L46.8533 6.7162L47.3512 8.13113C47.7164 8.00319 48.1146 8.00347 48.4798 8.13149L48.4781 8.13092L48.9766 6.7162L48.4798 8.13149L74.0681 17.1474V43.3365H81.598V16.5196C81.5991 15.1429 81.1731 13.7996 80.3786 12.6758C79.5842 11.5523 78.4605 10.7037 77.1628 10.2483L50.9756 1.0214ZM45.8412 3.85192L45.8426 3.85145C47.1824 3.38283 48.6407 3.38286 49.9805 3.85154L49.9816 3.85192L76.1688 13.0789C76.8781 13.3276 77.4935 13.7918 77.929 14.4078C78.3646 15.0238 78.5986 15.761 78.598 16.5171V16.5183V40.3365H77.0681V16.5183C77.0682 16.0849 76.9349 15.6611 76.6851 15.3052C76.4354 14.9493 76.0816 14.6789 75.6718 14.5317L49.4735 5.30084C48.4645 4.94666 47.3654 4.94666 46.3564 5.30084L20.164 14.5296C19.7551 14.6746 19.4009 14.9417 19.149 15.2945C18.8969 15.6475 18.7599 16.0687 18.7548 16.5007L18.7547 16.5095V40.346L17.2249 40.3412L17.2249 16.5171C17.2244 15.9075 17.3764 15.3101 17.6636 14.7787C17.7326 14.651 17.8094 14.5271 17.8938 14.4078C18.3293 13.7918 18.9447 13.3276 19.654 13.0789L24.1589 11.4916L45.8412 3.85192Z" fill="#93C227"/>
<path d="M68.9788 67.0694C67.1861 69.8576 65.0268 72.3907 62.5591 74.6003L47.9221 87.5823L33.2851 74.6003C30.8136 72.3945 28.6538 69.8609 26.8655 67.0694H21.5713C23.8405 71.1794 26.7863 74.8751 30.2841 78.0002L44.7088 90.7764C45.5946 91.5646 46.7378 92 47.9221 92C49.1065 92 50.2497 91.5646 51.1355 90.7764L65.5602 78.0002C69.0538 74.8729 71.9969 71.1776 74.2659 67.0694H68.9788Z" fill="black"/>
<path fill-rule="evenodd" clip-rule="evenodd" d="M19.0297 65.5694H27.686L28.1286 66.2603C29.8429 68.9363 31.9132 71.3651 34.2821 73.4796C34.2827 73.4801 34.2833 73.4806 34.2839 73.4812L47.9222 85.5773L61.5585 73.4828C61.5594 73.482 61.5602 73.4813 61.5611 73.4805C63.9272 71.3615 65.9979 68.9322 67.7171 66.2582L68.1599 65.5694H76.808L75.579 67.7946C73.2286 72.0501 70.1799 75.8781 66.5607 79.1178L66.5548 79.123L52.1327 91.8969C52.1323 91.8973 52.1319 91.8977 52.1314 91.8981C50.9715 92.9297 49.4741 93.5 47.9222 93.5C46.3703 93.5 44.8728 92.9297 43.7129 91.8981C43.7125 91.8977 43.712 91.8973 43.7116 91.8969L29.2895 79.123L29.2847 79.1187C25.6608 75.8809 22.609 72.0522 20.2582 67.7944L19.0297 65.5694ZM24.2081 68.5694C26.1754 71.6462 28.5543 74.4428 31.2812 76.8795C31.2819 76.8802 31.2827 76.8809 31.2835 76.8816L45.706 89.6558C46.3175 90.2 47.106 90.5 47.9222 90.5C48.7383 90.5 49.5268 90.2 50.1383 89.6558L50.141 89.6535L64.5598 76.8825C64.5607 76.8817 64.5617 76.8808 64.5626 76.88C67.2861 74.4416 69.6625 71.6451 71.6289 68.5694H69.7871C68.0147 71.2003 65.9231 73.6016 63.5597 75.7178L63.5544 75.7225L47.9222 89.5873L32.2898 75.7225L32.2863 75.7194C29.9184 73.6061 27.8254 71.2038 26.0557 68.5694H24.2081Z" fill="#93C227"/>
<path d="M87.9899 43.0645H8.01009C7.47632 43.0663 6.96506 43.2803 6.5883 43.6594C6.21153 44.0386 6 44.5521 6 45.0874V63.5773C6 64.1126 6.21153 64.6261 6.5883 65.0052C6.96506 65.3844 7.47632 65.5984 8.01009 65.6002H87.9899C88.5237 65.5984 89.0349 65.3844 89.4117 65.0052C89.7885 64.6261 90 64.1126 90 63.5773V45.0874C90 44.5521 89.7885 44.0386 89.4117 43.6594C89.0349 43.2803 88.5237 43.0663 87.9899 43.0645V43.0645ZM87.82 62.0087C87.8182 62.4034 87.6609 62.7815 87.3826 63.0606C87.1043 63.3398 86.7273 63.4974 86.3337 63.4993H9.73704C9.34407 63.4974 8.96787 63.3395 8.69066 63.0602C8.41344 62.7809 8.25779 62.4028 8.2578 62.0087V46.3295C8.25966 45.9366 8.41615 45.5604 8.69316 45.2826C8.97018 45.0048 9.34529 44.8479 9.73704 44.846H86.3266C86.7196 44.846 87.0965 45.0021 87.3751 45.2801C87.6536 45.5581 87.8111 45.9354 87.813 46.3295L87.82 62.0087Z" fill="black"/>
<path fill-rule="evenodd" clip-rule="evenodd" d="M8.00833 42.5645L8.01009 42.5645L87.9899 42.5645V43.0655L87.9917 42.5645C88.6582 42.5668 89.2963 42.834 89.7664 43.307C90.2364 43.78 90.5 44.4202 90.5 45.0874V63.5773C90.5 64.2445 90.2364 64.8847 89.7664 65.3577C89.2963 65.8307 88.6582 66.0979 87.9917 66.1002L87.9899 66.1002H8.01009L8.00833 66.1002C7.3418 66.0979 6.70367 65.8307 6.23362 65.3577C5.76362 64.8847 5.5 64.2445 5.5 63.5773V45.0874C5.5 44.4202 5.76361 43.78 6.23362 43.307C6.70367 42.834 7.3418 42.5668 8.00833 42.5645ZM87.989 43.5645H8.01103C7.61032 43.5661 7.22626 43.7268 6.94297 44.0119C6.65944 44.2972 6.5 44.6839 6.5 45.0874V63.5773C6.5 63.9808 6.65944 64.3675 6.94297 64.6528C7.22633 64.938 7.61051 65.0987 8.01133 65.1002C8.0115 65.1002 8.01116 65.1002 8.01133 65.1002L87.9882 65.1002C87.9883 65.1002 87.988 65.1002 87.9882 65.1002C88.389 65.0987 88.7737 64.938 89.057 64.6528C89.3406 64.3675 89.5 63.9808 89.5 63.5773V45.0874C89.5 44.6839 89.3406 44.2972 89.057 44.0119C88.7737 43.7268 88.3897 43.5661 87.989 43.5645ZM9.73704 44.346H86.3266C86.8523 44.346 87.3562 44.5548 87.7283 44.9262C88.1004 45.2975 88.3105 45.8013 88.313 46.3271L88.313 46.3293L88.32 62.0085L88.32 62.0111C88.3176 62.5372 88.108 63.0413 87.7367 63.4137C87.3652 63.7861 86.862 63.9968 86.3361 63.9993L86.3337 63.9993H9.73704L9.73466 63.9993C9.20901 63.9967 8.70611 63.7856 8.33576 63.4124C7.96547 63.0393 7.75779 62.5346 7.7578 62.0087V46.3271C7.76028 45.8029 7.96909 45.3006 8.33911 44.9295C8.70919 44.5584 9.21065 44.3485 9.73466 44.346L9.73704 44.346ZM9.73839 45.346C9.47927 45.3475 9.23093 45.4514 9.04722 45.6356C8.86346 45.8199 8.75932 46.0697 8.7578 46.3308V62.0087C8.75779 62.271 8.86142 62.5224 9.04555 62.708C9.22939 62.8932 9.47844 62.9977 9.73836 62.9993H86.3324C86.5934 62.9977 86.8435 62.8931 87.0286 62.7076C87.2135 62.5221 87.3184 62.2707 87.32 62.0078C87.32 62.0073 87.3201 62.0068 87.3201 62.0063L87.313 46.3319C87.3117 46.0695 87.2069 45.8186 87.0219 45.634C86.8369 45.4494 86.587 45.346 86.3266 45.346H9.73839Z" fill="#93C227"/>
<path d="M19.4054 58.0552L19.3559 58.112H17.7776C17.0698 58.112 16.3619 58.112 15.7603 58.112L15.7108 58.0552V57.6861L15.7674 57.6151H16.2771C16.4965 57.6151 16.6026 57.5299 16.6026 57.388C16.5725 57.1971 16.5178 57.011 16.4398 56.8343L15.9585 55.5851H14.3023H12.9292L12.6744 56.2949C12.5354 56.6226 12.4357 56.9657 12.3772 57.317C12.3772 57.4732 12.4692 57.5583 12.6532 57.5867L13.2548 57.6293L13.3114 57.6932V58.0694L13.2548 58.1262H11.8392H10.643L10.5793 58.0765V57.6861L10.6501 57.6222C11.0535 57.6222 11.3013 57.5228 11.3579 57.3809C11.4145 57.2389 11.7967 56.4227 12.3983 54.9179L13.9342 51.0567L14.458 49.7081H15.2932L18.4145 57.0757C18.5348 57.3596 18.6481 57.5157 18.7472 57.5512C18.9289 57.6033 19.1174 57.6273 19.3063 57.6222L19.3559 57.6861L19.4054 58.0552ZM15.6683 54.8753L14.4085 51.7806L13.1981 54.8753C13.5237 54.8753 13.9413 54.8753 14.458 54.8753C14.9747 54.8753 15.3639 54.8895 15.6683 54.8469V54.8753Z" fill="black"/>
<path d="M25.9809 49.7862L25.903 50.4605C25.903 50.6095 25.903 50.8083 25.8534 51.0496V51.5251L25.7898 51.589H25.45L25.3934 51.5322C25.4142 51.2264 25.3831 50.9192 25.3014 50.6237C25.2094 50.496 24.6573 50.4392 23.6522 50.4392C23.4894 50.4392 23.2417 50.4392 22.8949 50.4747C22.8525 50.8721 22.8312 51.5961 22.8312 52.604V53.4274H23.4965C23.6947 53.4274 24.0698 53.4274 24.6077 53.4274C24.6473 53.4313 24.6873 53.4257 24.7243 53.4108C24.7612 53.396 24.7941 53.3725 24.8201 53.3422C24.902 53.0905 24.938 52.826 24.9263 52.5614L24.9829 52.4976H25.3509L25.4075 52.5614C25.4075 53.0015 25.4075 53.4061 25.4075 53.7681C25.4075 54.1301 25.4075 54.6056 25.4075 55.0741L25.3509 55.1309H24.9545L24.8979 55.0741C24.9125 54.836 24.8934 54.597 24.8413 54.3643C24.7776 54.2294 24.5724 54.1443 24.2397 54.1159C23.9071 54.0875 23.7797 54.1159 23.532 54.1159C23.2842 54.1159 23.0224 54.1159 22.8242 54.1159V55.5354C22.808 56.1468 22.8316 56.7585 22.8949 57.3667C22.9034 57.4197 22.9275 57.4689 22.9641 57.5081C23.0006 57.5473 23.048 57.5747 23.1001 57.5867C23.1001 57.5867 23.4045 57.5867 23.9424 57.6435L23.999 57.7003V58.0978L23.9354 58.1546H21.5643C21.2246 58.1546 20.7574 58.1546 20.1487 58.1546L20.092 58.1049V57.6861L20.1487 57.6293C20.3855 57.6236 20.6218 57.6046 20.8565 57.5725C20.9091 57.5614 20.957 57.5343 20.9937 57.495C21.0304 57.4556 21.0541 57.4059 21.0617 57.3525C21.1287 56.7445 21.1548 56.1327 21.1396 55.5212V52.3627C21.1548 51.7512 21.1287 51.1394 21.0617 50.5314C21.0541 50.4781 21.0304 50.4283 20.9937 50.389C20.957 50.3496 20.9091 50.3225 20.8565 50.3114C20.6218 50.2793 20.3855 50.2603 20.1487 50.2546L20.092 50.1978V49.7933L20.1487 49.7365C20.5238 49.7365 21.1325 49.7791 21.9606 49.7791L25.9384 49.7365L25.9809 49.7862Z" fill="black"/>
<path d="M34.2406 49.7791C34.1889 50.0768 34.1628 50.3784 34.1627 50.6805V51.6671L34.1061 51.7239H33.731L33.6673 51.6742C33.6631 51.3775 33.6419 51.0812 33.6036 50.787C33.5773 50.7076 33.527 50.6384 33.4598 50.5888C33.3927 50.5392 33.3118 50.5118 33.2285 50.5102C33.1506 50.5102 32.7755 50.5102 32.1173 50.5102H31.3315C31.3315 50.6521 31.3315 51.22 31.3315 52.1569V55.5142C31.3161 56.1257 31.3421 56.7375 31.4095 57.3454C31.4166 57.3979 31.4393 57.4469 31.4746 57.4862C31.51 57.5254 31.5563 57.5531 31.6076 57.5655C31.8423 57.5972 32.0786 57.6162 32.3154 57.6222L32.3791 57.679V58.0765L32.3154 58.1333C31.9332 58.1333 31.3245 58.1333 30.5035 58.1333C29.6825 58.1333 29.0879 58.1333 28.6915 58.1333L28.6349 58.0836V57.6861L28.6915 57.6293C28.9283 57.6228 29.1645 57.6038 29.3993 57.5726C29.4506 57.5602 29.497 57.5325 29.5324 57.4933C29.5677 57.454 29.5904 57.4049 29.5975 57.3525C29.6648 56.7446 29.6908 56.1327 29.6754 55.5213V52.164C29.6754 51.1916 29.6754 50.6379 29.6754 50.5173H28.826C28.4144 50.4972 28.0019 50.5186 27.5945 50.5811C27.5438 50.5985 27.4994 50.6306 27.4671 50.6734C27.4174 50.7934 27.3864 50.9202 27.375 51.0496C27.375 51.2625 27.3326 51.4755 27.3255 51.6955L27.2689 51.7523H26.8938L26.83 51.6955V50.6805C26.827 50.3882 26.8034 50.0964 26.7593 49.8075L26.8159 49.7436C27.0494 49.7862 27.8918 49.8075 29.3498 49.8075H31.735C33.0798 49.8075 33.9221 49.8075 34.2689 49.7436L34.2406 49.7791Z" fill="black"/>
<path d="M41.3468 56.1033C41.2571 56.75 41.2146 57.4023 41.2194 58.0552L41.1557 58.112H36.909C36.2012 58.112 35.6845 58.112 35.3943 58.112L35.3377 58.0552V57.8919V57.821C35.509 57.7277 35.6663 57.6106 35.8049 57.4732C35.859 57.2142 35.8828 56.9498 35.8756 56.6853V55.358V52.3627C35.8911 51.7512 35.8651 51.1394 35.7978 50.5314C35.7907 50.479 35.768 50.43 35.7326 50.3907C35.6973 50.3514 35.6509 50.3238 35.5996 50.3114C35.3648 50.2801 35.1286 50.2612 34.8918 50.2546L34.8352 50.1978V49.7933L34.8918 49.7365C35.2952 49.7365 35.9039 49.7791 36.732 49.7791C37.5601 49.7791 38.8554 49.7791 40.9787 49.7365L41.0425 49.7862L40.9647 50.4463C40.9647 50.6521 40.9221 50.8295 40.908 50.9715V51.5252L40.8443 51.589H40.5046L40.4479 51.5322C40.4731 51.224 40.4419 50.9137 40.3559 50.6166C40.1569 50.5226 39.9388 50.4765 39.7189 50.4818C39.3367 50.4534 39.0041 50.4392 38.7209 50.4392C38.3812 50.4392 38.0132 50.4392 37.6805 50.4747C37.6381 50.8958 37.6168 51.4707 37.6168 52.1994V53.4274C37.9282 53.4274 38.176 53.4274 38.3741 53.4274H39.1456C39.5066 53.4274 39.7118 53.3919 39.7543 53.3351C39.8546 53.0827 39.8981 52.8113 39.8817 52.5401L39.9383 52.4763H40.3064L40.363 52.5401C40.363 52.9802 40.363 53.3848 40.363 53.7468C40.363 54.1088 40.363 54.5843 40.363 55.0528L40.3064 55.1096H39.8605L39.8039 55.0528C39.8314 54.779 39.7975 54.5026 39.7048 54.2436C39.6411 54.1585 39.457 54.1017 39.1385 54.0733C38.82 54.0449 38.6431 54.0733 38.3671 54.0733C38.091 54.0733 37.815 54.0733 37.5672 54.0733V55.8761C37.5672 56.3943 37.5672 56.8911 37.5672 57.3809H38.3671C39.0776 57.415 39.7898 57.3698 40.4904 57.246C40.5264 57.2303 40.558 57.2059 40.5824 57.1751C40.6399 57.0665 40.6782 56.9489 40.6957 56.8273L40.8372 56.1175L40.8938 56.0536H41.2548L41.3468 56.1033Z" fill="black"/>
<path d="M50.2436 58.0552L50.1799 58.112H49.9605H48.9483C48.7502 58.112 48.4317 58.112 47.9928 58.112C47.9466 57.9445 47.8724 57.7861 47.7735 57.6435L46.3083 55.1948L45.6571 54.194C45.5602 54.0586 45.4433 53.9389 45.3103 53.8391L45.3741 53.6332H45.5722C45.885 53.6516 46.1973 53.588 46.4782 53.4487C46.7116 53.3095 46.9044 53.1112 47.0373 52.8737C47.2101 52.5745 47.2959 52.2327 47.2851 51.8871C47.3174 51.6169 47.2671 51.3431 47.1407 51.1023C47.0143 50.8614 46.8177 50.6648 46.5773 50.5385C46.2488 50.4088 45.8965 50.3507 45.5439 50.3682C45.3542 50.3697 45.1648 50.3863 44.9777 50.4179C44.9352 50.8012 44.9211 51.4613 44.9211 52.3911V55.4858C44.9045 56.0971 44.9281 56.7088 44.9918 57.317C45.0003 57.37 45.0244 57.4193 45.061 57.4585C45.0975 57.4977 45.145 57.525 45.1971 57.537C45.4319 57.5688 45.6681 57.5877 45.9049 57.5938L45.9615 57.6506V58.0481L45.912 58.1049C45.5156 58.1049 44.914 58.1049 44.0929 58.1049C43.2719 58.1049 42.6774 58.1049 42.281 58.1049L42.2244 58.0552V57.6861L42.281 57.6293C42.5178 57.6236 42.7541 57.6046 42.9888 57.5725C43.041 57.5605 43.0883 57.5331 43.1249 57.4939C43.1615 57.4547 43.1855 57.4055 43.194 57.3525C43.2614 56.7446 43.2874 56.1327 43.2719 55.5213V52.3627C43.2874 51.7512 43.2614 51.1394 43.194 50.5314C43.1855 50.4784 43.1615 50.4292 43.1249 50.39C43.0883 50.3508 43.041 50.3234 42.9888 50.3114C42.7541 50.2793 42.5178 50.2603 42.281 50.2546L42.2244 50.1978V49.7933L42.281 49.7365C42.6632 49.7365 43.2719 49.7791 44.0929 49.7791C44.5648 49.7791 44.9541 49.7791 45.2608 49.7791C45.8553 49.7791 46.3013 49.7436 46.5985 49.7436C47.1033 49.7172 47.6087 49.7797 48.0919 49.9281C48.2883 49.9957 48.4674 50.1057 48.6166 50.2505C48.7659 50.3952 48.8815 50.5711 48.9554 50.7657C49.0332 50.9939 49.0691 51.2344 49.0616 51.4755C49.0616 52.5449 48.4599 53.3044 47.2567 53.7539C47.4549 54.0875 47.6602 54.4211 47.8796 54.7618L48.7856 56.1814C49.0748 56.7017 49.4345 57.1794 49.8543 57.6009C49.9691 57.6635 50.099 57.693 50.2295 57.6861L50.2931 57.75L50.2436 58.0552Z" fill="black"/>
<path d="M58.7512 57.0473L58.4823 57.6506C57.6307 58.1214 56.6731 58.3657 55.7007 58.3604C53.6481 58.3604 52.2325 57.6199 51.454 56.1388C51.1041 55.4486 50.9245 54.6842 50.9302 53.91C50.9052 53.332 51.0077 52.7556 51.2303 52.2219C51.453 51.6882 51.7903 51.2104 52.2183 50.8225C53.2203 49.9828 54.5031 49.5565 55.8069 49.63C56.7746 49.6308 57.734 49.8088 58.638 50.1552L58.7158 50.2475C58.5687 50.8739 58.4858 51.5136 58.4681 52.1569L58.4115 52.2136H58.0646L58.0081 52.1498C58.0064 51.8173 57.9828 51.4854 57.9373 51.1561C57.6659 50.8698 57.3349 50.647 56.9679 50.5034C56.6009 50.3599 56.207 50.2992 55.8139 50.3256C55.3962 50.3014 54.9784 50.3703 54.5904 50.5274C54.2025 50.6845 53.854 50.9258 53.5702 51.2341C52.9969 51.9245 52.706 52.8072 52.7563 53.7042C52.7183 54.3177 52.8269 54.9315 53.0731 55.4945C53.3193 56.0574 53.696 56.5533 54.1718 56.9408C54.7755 57.3706 55.5064 57.5832 56.2457 57.5441C57.0529 57.5391 57.8461 57.3317 58.5531 56.9408L58.7512 57.0473Z" fill="black"/>
<path d="M68.2284 58.0552L68.1789 58.112H66.6006C65.8928 58.112 65.185 58.112 64.5834 58.112L64.5267 58.0552V57.6861L64.5904 57.6151H65.1001C65.3195 57.6151 65.4256 57.5299 65.4256 57.388C65.3955 57.1971 65.3408 57.011 65.2628 56.8343L64.7815 55.5851H63.1182H61.7522L61.4974 56.2949C61.3584 56.6226 61.2587 56.9657 61.2001 57.317C61.2001 57.4732 61.2922 57.5583 61.4762 57.5867L62.0778 57.6293L62.1344 57.6932V58.0694L62.0778 58.1262H60.6622H59.466L59.4023 58.0765V57.6861L59.4731 57.6222C59.8765 57.6222 60.1243 57.5228 60.1809 57.3809C60.2375 57.2389 60.6198 56.4227 61.2214 54.9179L62.7572 51.0567C62.8705 50.7586 63.0474 50.3114 63.2739 49.7081H64.1162L67.2376 57.0757C67.3579 57.3596 67.4711 57.5157 67.5702 57.5512C67.7519 57.6033 67.9404 57.6273 68.1293 57.6222L68.1789 57.6861L68.2284 58.0552ZM64.4914 54.8469L63.2315 51.7523L62.0212 54.8469C62.3468 54.8469 62.7289 54.8469 63.281 54.8469C63.8331 54.8469 64.187 54.8895 64.4914 54.8469Z" fill="black"/>
<path d="M76.9626 58.0552L76.9059 58.112H76.6653H75.6531C75.4549 58.112 75.1364 58.112 74.6976 58.112C74.6481 57.9458 74.5742 57.7879 74.4782 57.6435L73.0131 55.1948L72.3619 54.194C72.2651 54.0586 72.1481 53.9389 72.0151 53.8391L72.0788 53.6332H72.277C72.5898 53.651 72.9018 53.5874 73.1829 53.4487C73.4156 53.3109 73.6065 53.1122 73.735 52.8737C73.9099 52.5751 73.9981 52.2334 73.9898 51.8871C74.0222 51.6169 73.9719 51.3431 73.8454 51.1023C73.719 50.8614 73.5225 50.6648 73.282 50.5385C72.956 50.4087 72.6061 50.3506 72.2558 50.3682C72.066 50.3697 71.8766 50.3863 71.6895 50.4179C71.647 50.8012 71.6258 51.4613 71.6258 52.3911V55.4858C71.6103 56.0972 71.6363 56.7091 71.7037 57.317C71.7108 57.3694 71.7335 57.4185 71.7688 57.4578C71.8042 57.497 71.8506 57.5247 71.9019 57.537C72.1367 57.5683 72.3729 57.5873 72.6097 57.5938L72.6662 57.6506V58.0481L72.6167 58.1049C72.2204 58.1049 71.6187 58.1049 70.7977 58.1049C69.9767 58.1049 69.3468 58.1049 68.9858 58.1049L68.9221 58.0552V57.6861L68.9858 57.6293C69.2226 57.6232 69.4588 57.6043 69.6936 57.5725C69.7457 57.5605 69.7931 57.5331 69.8297 57.4939C69.8662 57.4547 69.8903 57.4055 69.8988 57.3525C69.9625 56.7443 69.9862 56.1326 69.9696 55.5213V52.3627C69.9862 51.7514 69.9625 51.1396 69.8988 50.5314C69.8903 50.4784 69.8662 50.4292 69.8297 50.39C69.7931 50.3508 69.7457 50.3234 69.6936 50.3114C69.4588 50.2797 69.2226 50.2607 68.9858 50.2546L68.9221 50.1978V49.7933L68.9858 49.7365C69.368 49.7365 69.9767 49.7791 70.7977 49.7791C71.2695 49.7791 71.6588 49.7791 71.9655 49.7791C72.5601 49.7791 73.006 49.7436 73.2962 49.7436C73.8032 49.7173 74.311 49.7797 74.7967 49.9281C74.9932 49.9939 75.1723 50.1034 75.3206 50.2484C75.4689 50.3935 75.5826 50.5703 75.6531 50.7657C75.7345 50.993 75.7705 51.2342 75.7593 51.4755C75.7593 52.5472 75.1648 53.3067 73.9616 53.7539C74.1527 54.0875 74.365 54.4211 74.5844 54.7618L75.4903 56.1814C75.7796 56.7017 76.1392 57.1794 76.5591 57.6009C76.6739 57.6635 76.8037 57.693 76.9342 57.6861L76.9908 57.75L76.9626 58.0552Z" fill="black"/>
<path d="M84.005 56.1033C83.9153 56.75 83.8727 57.4023 83.8776 58.0552L83.8139 58.112H79.5672C78.8594 58.112 78.3427 58.112 78.0525 58.112L77.9959 58.0552V57.8919V57.821C78.1672 57.7277 78.3245 57.6106 78.4631 57.4732C78.5171 57.2142 78.5384 56.9496 78.5268 56.6853V55.358V52.3627C78.5422 51.7512 78.5162 51.1394 78.4489 50.5314C78.4418 50.479 78.4191 50.43 78.3838 50.3907C78.3484 50.3514 78.302 50.3238 78.2507 50.3114C78.0159 50.2801 77.7797 50.2612 77.5429 50.2546L77.4863 50.1978V49.7933L77.5429 49.7365C77.9393 49.7365 78.555 49.7791 79.3831 49.7791C80.2113 49.7791 81.5065 49.7791 83.6299 49.7365L83.6936 49.7862L83.6157 50.4463C83.6157 50.6521 83.5733 50.8295 83.5591 50.9715V51.5252L83.4954 51.589H83.1557L83.099 51.5322C83.1279 51.2235 83.0942 50.912 82.9999 50.6166C82.9575 50.5598 82.7452 50.5172 82.3701 50.4818C81.9949 50.4463 81.6623 50.4392 81.3721 50.4392C81.0819 50.4392 80.6643 50.4392 80.3316 50.4747C80.2892 50.8958 80.2679 51.4707 80.2679 52.1994V53.4274C80.5793 53.4274 80.8271 53.4274 81.0182 53.4274H81.7967C82.1577 53.4274 82.3629 53.3919 82.4054 53.3351C82.5057 53.0827 82.5492 52.8113 82.5328 52.5401L82.5894 52.4763H82.9575L83.0141 52.5401C83.0141 52.9802 83.0141 53.3848 83.0141 53.7468C83.0141 54.1088 83.0141 54.5843 83.0141 55.0528L82.9575 55.1096H82.5611L82.5045 55.0528C82.532 54.779 82.4982 54.5026 82.4054 54.2436C82.3417 54.1585 82.1507 54.1017 81.8392 54.0733C81.5278 54.0449 81.3437 54.0733 81.0677 54.0733C80.7916 54.0733 80.5156 54.0733 80.2679 54.0733V55.8761C80.2679 56.3943 80.2679 56.8911 80.2679 57.3809H81.0677C81.7783 57.4161 82.4906 57.3708 83.191 57.246C83.2299 57.2319 83.2642 57.2073 83.2901 57.1751C83.3476 57.0665 83.386 56.9489 83.4034 56.8273L83.5449 56.1175L83.6016 56.0536H83.9626L84.005 56.1033Z" fill="black"/>
<path d="M64.371 32.446C64.0991 32.5957 63.8731 32.8169 63.7172 33.0858C63.5613 33.3547 63.4815 33.6611 63.4863 33.9721V37.7269H65.093V31.9989L64.371 32.446Z" fill="#93C227"/>
<path d="M46.6693 34.7812C46.2718 35.4954 45.7762 36.1501 45.1971 36.726C44.746 37.1789 44.2338 37.5659 43.6753 37.8759L43.2436 38.0959C43.1587 38.0959 43.0666 38.174 42.9746 38.2024C42.2778 38.4737 41.535 38.6063 40.7876 38.5928C39.7406 38.6128 38.7111 38.3213 37.829 37.7552C36.94 37.1453 36.2466 36.2897 35.8331 35.2922C34.8614 32.7466 34.8614 29.9308 35.8331 27.3852C36.2467 26.3897 36.9402 25.5364 37.829 24.9293C38.7082 24.3555 39.7387 24.0588 40.7876 24.0776C41.4164 24.0722 42.0421 24.1656 42.642 24.3544H42.7057C42.862 24.2702 43.0226 24.1944 43.1869 24.1273L43.3639 24.0563H43.4559H43.3639C42.57 23.7953 41.7429 23.6495 40.9079 23.6233C39.6106 23.5688 38.318 23.8116 37.1283 24.3331C35.8894 24.8925 34.8552 25.8254 34.1697 27.0019C33.3708 28.3307 32.9612 29.8583 32.9878 31.4097C32.9908 32.9093 33.3966 34.3805 34.1626 35.6684C34.8507 36.8454 35.8873 37.7783 37.1283 38.3372C38.318 38.8588 39.6106 39.1015 40.9079 39.047C41.6713 39.0614 42.4312 38.9388 43.1516 38.685L43.6117 38.5005C43.6338 38.4859 43.6575 38.474 43.6824 38.465C43.9089 38.3657 44.1287 38.2519 44.3406 38.1243L44.4115 38.0817C44.5743 37.9823 44.7228 37.8759 44.8785 37.7694C45.3301 37.4249 45.743 37.0322 46.1101 36.5983C46.4016 36.257 46.66 35.8886 46.8816 35.4981C47.0222 35.2597 47.1384 35.0076 47.2284 34.7457L46.6693 34.7812Z" fill="black"/>
<path d="M33.0375 35.5833C32.4405 34.2433 32.132 32.7922 32.132 31.3245C32.132 29.8569 32.4405 28.4058 33.0375 27.0658C33.5964 25.8131 34.4256 24.7004 35.4652 23.8079C34.5001 24.23 33.6253 24.8349 32.8889 25.5895C32.1567 26.3386 31.5688 27.2169 31.1547 28.1802C30.7391 29.1724 30.5251 30.2377 30.5251 31.3139C30.5251 32.3901 30.7391 33.4554 31.1547 34.4476C31.5681 35.4092 32.1561 36.2853 32.8889 37.0312C33.6306 37.7813 34.5041 38.3877 35.4652 38.8199C34.4287 37.933 33.5997 36.8279 33.0375 35.5833V35.5833Z" fill="#93C227"/>
<path d="M61.4973 32.5382C60.9736 32.6802 60.4498 32.815 59.919 32.9215C58.732 33.161 57.5072 33.1367 56.3305 32.8505V33.4609C57.9948 33.816 59.7217 33.7402 61.3487 33.2409V37.7339C60.4135 38.3061 59.337 38.6037 58.2415 38.5927C57.1931 38.6158 56.1621 38.3214 55.283 37.7481C54.5832 37.2789 54.0056 36.6486 53.5985 35.9097C53.5985 35.9097 53.5985 35.9097 53.5985 35.9452C53.3754 36.2819 53.1142 36.5916 52.8199 36.8679L52.6642 37.017C53.2137 37.5776 53.8647 38.028 54.5823 38.3443C55.7724 38.8728 57.0689 39.1158 58.369 39.0541C59.7056 39.0752 61.0159 38.6809 62.1202 37.9255C62.4234 37.7113 62.7098 37.474 62.9767 37.2157V34.263C62.9491 33.9356 62.9889 33.606 63.0936 33.2947C63.1984 32.9833 63.3657 32.6969 63.5853 32.453C63.7405 32.2828 63.9222 32.139 64.1233 32.0272C63.2363 32.1304 62.3584 32.3013 61.4973 32.5382V32.5382ZM63.9887 26.5334L63.9109 26.4128L63.6915 26.1004C63.6594 26.0708 63.6309 26.0374 63.6066 26.0011L63.5217 25.9159C62.8305 25.1775 61.9909 24.5944 61.0585 24.2053C60.1923 23.8125 59.2557 23.6 58.3053 23.5807C57.1779 23.5521 56.0549 23.7326 54.9928 24.113C53.4446 24.6807 52.1761 25.8281 51.4539 27.3142C51.0558 28.0674 50.7718 28.876 50.6116 29.7133L50.9655 29.8552L51.0363 29.8907L51.3973 30.0469L51.7228 30.1959C52.0372 30.3631 52.3317 30.5655 52.6005 30.7992V30.7141C52.6399 29.7023 52.8112 28.7001 53.1101 27.733C53.4833 26.6361 54.1823 25.68 55.1132 24.9932C56.0178 24.3504 57.1048 24.0169 58.2133 24.0421C58.9121 24.038 59.6025 24.1959 60.2304 24.5034C60.8744 24.807 61.4611 25.22 61.9645 25.7243C62.6668 26.4117 63.2484 27.2132 63.6844 28.0949C63.9368 28.521 64.1163 28.9864 64.2153 29.4719C64.2153 29.5713 64.2152 29.7913 64.2577 30.1817H64.4276V27.4703C64.3851 27.4064 64.0029 26.5689 63.9887 26.5334V26.5334Z" fill="black"/>
<path d="M51.5461 37.3719C51.3975 37.159 51.2559 36.939 51.1214 36.7189C50.9348 36.4064 50.7646 36.0842 50.6118 35.7536C50.4381 35.366 50.2892 34.9677 50.1659 34.5612C49.9654 33.8949 49.8325 33.21 49.7695 32.517C49.7695 32.2047 49.72 31.8853 49.72 31.5588V31.4949C49.7197 30.8526 49.7741 30.2114 49.8828 29.5785C50.021 28.7782 50.2588 27.9984 50.5906 27.2575C51.1561 26.0047 51.9869 24.8906 53.0253 23.9924C52.324 24.3037 51.6671 24.707 51.0718 25.192L50.6684 25.554L50.4986 25.7243C49.7576 26.465 49.1663 27.3423 48.7574 28.3079C48.6441 28.5824 48.5451 28.8592 48.4601 29.1384V29.2165C48.2875 29.8026 48.1899 30.4085 48.1699 31.0193C48.1661 31.0452 48.1661 31.0715 48.1699 31.0974C48.1699 31.211 48.1699 31.3245 48.1699 31.4452C48.1699 31.5659 48.1699 31.7717 48.1699 31.9279C48.1657 31.9513 48.1657 31.9754 48.1699 31.9988C48.1987 32.5959 48.3009 33.1872 48.4743 33.7591V33.8372C48.5522 34.0856 48.6513 34.3411 48.7504 34.5825C49.161 35.5493 49.752 36.4286 50.4915 37.1732C50.5156 37.201 50.5416 37.2271 50.5693 37.2513L50.6897 37.3648C50.7959 37.4713 50.9162 37.5707 51.0365 37.6701C51.0754 37.7097 51.118 37.7453 51.1639 37.7765C51.746 38.2505 52.3888 38.6443 53.0749 38.9477C52.5003 38.49 51.9865 37.9605 51.5461 37.3719V37.3719Z" fill="black"/>
<path d="M48.4247 33.8088H48.3256C47.9151 33.7023 47.455 33.603 46.91 33.5036L46.2022 33.3758C45.6218 33.2836 45.0061 33.1629 44.3407 33.0351C43.6827 32.9002 43.0347 32.7199 42.4014 32.4957C41.7867 32.2801 41.1998 31.9918 40.6532 31.6368C40.144 31.2922 39.7143 30.842 39.3933 30.3166C39.0644 29.7381 38.9005 29.0801 38.9192 28.4144C38.9176 27.8291 39.0637 27.2528 39.3438 26.7393C39.7188 26.0781 40.2246 25.5009 40.8302 25.0429C40.4296 25.7225 40.2013 26.4902 40.1649 27.2787C40.1565 27.8223 40.3038 28.3569 40.5895 28.819C41.2759 29.7665 42.2375 30.478 43.3428 30.8561C44.5007 31.3173 45.7106 31.6344 46.9454 31.8001C47.3064 31.8569 47.6532 31.9066 47.9859 31.9775H48.1133C48.1091 32.001 48.1091 32.0251 48.1133 32.0485C48.1443 32.6459 48.2489 33.2372 48.4247 33.8088V33.8088Z" fill="#93C227"/>
<path d="M53.2447 31.5233C53.0328 31.2637 52.7957 31.0259 52.5369 30.8135V30.8135C52.2681 30.5797 51.9736 30.3773 51.6592 30.2101C51.3028 30.0257 50.9338 29.8668 50.5551 29.7346C50.5392 29.8001 50.5275 29.8664 50.5197 29.9333C50.5197 29.9972 50.5197 30.0682 50.5197 30.1321V30.3379V30.5296C50.5162 30.565 50.5162 30.6006 50.5197 30.636C50.5166 30.6904 50.5166 30.7449 50.5197 30.7993C50.5197 30.927 50.5197 31.0477 50.5197 31.1755C50.5197 31.3032 50.5197 31.3174 50.5197 31.3884V31.5446C50.5197 31.6297 50.5197 31.7078 50.5197 31.793C50.7179 31.8782 50.9019 31.9704 51.0788 32.0627C51.8511 32.4051 52.4796 33.0078 52.8554 33.7662C52.9768 34.0358 53.0534 34.3235 53.0819 34.6179C53.0819 34.7102 53.0819 34.8025 53.0819 34.8948C53.0551 35.577 52.8812 36.2453 52.5722 36.8538L52.6855 36.9673L52.8483 36.8183C53.1419 36.5426 53.3989 36.2301 53.6127 35.8885V35.8885C53.7529 35.6625 53.8735 35.4251 53.9736 35.1787C54.1192 34.8032 54.1913 34.4032 54.186 34.0004C54.143 33.0953 53.8133 32.2275 53.2447 31.5233V31.5233Z" fill="#93C227"/>
<path d="M50.541 37.301C50.1406 37.6966 49.6569 37.9974 49.1254 38.1811C48.4413 38.4123 47.724 38.5298 47.0021 38.5289C46.1531 38.5257 45.3092 38.399 44.4966 38.1527H44.4257C44.2123 38.2776 43.9927 38.3913 43.7675 38.4934L43.6968 38.5289H43.7675C44.8037 38.9102 45.8983 39.1071 47.0021 39.1109C47.7953 39.1143 48.584 38.9897 49.3378 38.7418C49.8477 38.5675 50.3258 38.311 50.7534 37.9824L51.086 37.6914L50.7321 37.379C50.6189 37.3719 50.5764 37.3365 50.541 37.301Z" fill="#93C227"/>
<path d="M51.0153 33.1203C50.8737 33.0209 50.718 32.9216 50.5552 32.8293C50.6392 33.3677 50.7791 33.8958 50.9727 34.405C51.2201 35.0637 51.5533 35.6866 51.9637 36.2576C52.0586 35.9398 52.1064 35.6098 52.1053 35.2781C52.122 34.8551 52.0305 34.4348 51.8398 34.0572C51.649 33.6795 51.3652 33.357 51.0153 33.1203V33.1203Z" fill="#93C227"/>
<path d="M51.093 25.1564V25.1919L50.6896 25.5539L50.5339 25.4758C49.9006 25.1165 49.2286 24.8308 48.5309 24.6241C47.684 24.3536 46.8009 24.2148 45.9121 24.2124C45.19 24.2096 44.4724 24.3271 43.7887 24.5602L43.64 24.6099L43.4985 24.6738C43.1837 24.804 42.8956 24.9918 42.6491 25.2274C42.5267 25.3423 42.4286 25.4807 42.3605 25.6343C42.2925 25.7879 42.2558 25.9537 42.2528 26.1217C42.2788 26.4114 42.3725 26.6908 42.5262 26.9375C42.6799 27.1841 42.8893 27.3909 43.1375 27.5413C43.8406 28.1186 45.1264 28.5729 46.9949 28.9041L47.7027 29.039L48.2902 29.1383H48.4388V29.2164C48.2662 29.8026 48.1686 30.4084 48.1486 31.0193H48.0071C47.6815 30.9554 47.2993 30.8915 46.9808 30.8418C45.4165 30.6749 43.902 30.192 42.5288 29.4222C42.0822 29.1975 41.7044 28.8559 41.4353 28.4337C41.1662 28.0114 41.0158 27.5241 41 27.0232C41.0043 26.747 41.0448 26.4725 41.1204 26.2069C41.2461 25.8153 41.4486 25.4528 41.716 25.1408C41.9834 24.8287 42.3103 24.5734 42.6774 24.3898H42.7411C42.8974 24.3056 43.0581 24.2298 43.2225 24.1627L43.3994 24.0917H43.4914L43.5834 24.0562C44.335 23.8102 45.1215 23.688 45.9121 23.6943C46.8552 23.6973 47.7926 23.8408 48.6936 24.1201C49.4855 24.3952 50.2547 24.7322 50.9939 25.128L51.093 25.1564Z" fill="#93C227"/>
</svg>
