<svg width="97" height="94" viewBox="0 0 97 94" fill="none" xmlns="http://www.w3.org/2000/svg">
<path d="M90.9307 36.7131H6.90926C5.09932 36.7131 3.63208 38.1878 3.63208 40.0069V53.2814C3.63208 55.1006 5.09932 56.5753 6.90926 56.5753H90.9307C92.7407 56.5753 94.2079 55.1006 94.2079 53.2814V40.0069C94.2079 38.1878 92.7407 36.7131 90.9307 36.7131Z" fill="#FCDA6E"/>
<path d="M48.5331 14.8813C55.083 14.8817 61.4776 16.886 66.8668 20.6276C72.2559 24.3692 76.3844 29.6708 78.7031 35.8276H80.5063C78.1499 29.1998 73.8124 23.4662 68.0878 19.4124C62.3633 15.3585 55.5318 13.1825 48.529 13.1825C41.5262 13.1825 34.6946 15.3585 28.9701 19.4124C23.2456 23.4662 18.908 29.1998 16.5515 35.8276H18.3548C20.6751 29.6701 24.8049 24.3682 30.1955 20.6267C35.5861 16.8852 41.982 14.8812 48.5331 14.8813Z" fill="black"/>
<path fill-rule="evenodd" clip-rule="evenodd" d="M28.6811 19.0043C34.49 14.8907 41.4225 12.6825 48.529 12.6825C55.6355 12.6825 62.5679 14.8907 68.3768 19.0043C74.1856 23.1179 78.5866 28.9355 80.9774 35.6601L81.2148 36.3276H78.3571L78.2352 36.0038C75.9521 29.9416 71.8873 24.7219 66.5816 21.0383C61.276 17.3548 54.9809 15.3817 48.5331 15.3813M48.529 13.6825C41.6299 13.6825 34.8993 15.8262 29.2591 19.8204C23.8119 23.6779 19.6389 29.0792 17.2679 35.3276H18.0109C20.3883 29.2134 24.531 23.9497 29.9104 20.2159C35.3845 16.4164 41.8799 14.3812 48.5331 14.3813C55.1851 14.3817 61.6792 16.4173 67.1519 20.2169C72.5299 23.9507 76.6712 29.2141 79.0471 35.3276H79.7899C77.419 29.0792 73.2461 23.6779 67.7989 19.8204C62.1587 15.8262 55.428 13.6825 48.529 13.6825ZM48.5331 15.3813C42.0841 15.3812 35.7876 17.3539 30.4806 21.0374C25.1735 24.721 21.1073 29.941 18.8227 36.0039L18.7008 36.3276H15.8431L16.0804 35.6601C18.4712 28.9355 22.8723 23.1179 28.6811 19.0043" fill="#93C227"/>
<path d="M48.533 79.7478C41.9654 79.7487 35.5538 77.735 30.1553 73.9758C24.7568 70.2166 20.6283 64.8908 18.3218 58.7104H16.5186C18.8615 65.3609 23.1975 71.1183 28.9299 75.1902C34.6623 79.2622 41.5093 81.4486 48.5289 81.4486C55.5484 81.4486 62.3955 79.2622 68.1278 75.1902C73.8602 71.1183 78.1963 65.3609 80.5392 58.7104H78.7441C76.4366 64.8902 72.3079 70.2152 66.9096 73.9743C61.5113 77.7334 55.1004 79.7476 48.533 79.7478Z" fill="black"/>
<path fill-rule="evenodd" clip-rule="evenodd" d="M15.8123 58.2104H18.6689L18.7902 58.5356C21.0613 64.6211 25.1262 69.8645 30.441 73.5655C35.7558 77.2664 42.0677 79.2487 48.533 79.2478C54.998 79.2476 61.3093 77.2648 66.6239 73.564C71.9385 69.8632 76.0036 64.6203 78.2757 58.5355L78.3971 58.2104H81.2455L81.0108 58.8765C78.6337 65.6241 74.2342 71.466 68.4174 75.5979C62.6006 79.7298 55.6524 81.9486 48.5289 81.9486C41.4054 81.9486 34.4572 79.7298 28.6404 75.5979C22.8236 71.466 18.4241 65.6241 16.047 58.8765L15.8123 58.2104ZM17.2327 59.2104C19.5914 65.482 23.7637 70.9072 29.2195 74.7826C34.8674 78.7946 41.6133 80.9486 48.5289 80.9486C55.4445 80.9486 62.1903 78.7946 67.8383 74.7826C73.294 70.9072 77.4664 65.482 79.8251 59.2104H79.0892C76.724 65.3468 72.5824 70.6334 67.1953 74.3846C61.7133 78.202 55.2028 80.2475 48.5331 80.2478M17.2327 59.2104H17.9767C20.3409 65.3474 24.4823 70.6347 29.8696 74.3861C35.3518 78.2036 41.8631 80.2487 48.5331 80.2478" fill="#93C227"/>
<path d="M48.533 66.2333C45.6161 66.2333 42.7392 65.5514 40.1297 64.2414C37.5202 62.9315 35.2496 61.0295 33.4974 58.6857H31.1589C33.0409 61.594 35.6158 63.9839 38.6499 65.6383C41.684 67.2926 45.0812 68.1592 48.533 68.1592C51.9848 68.1592 55.382 67.2926 58.4161 65.6383C61.4502 63.9839 64.0251 61.594 65.9071 58.6857H63.5686C61.8151 61.028 59.5442 62.9291 56.935 64.2388C54.3258 65.5486 51.4496 66.2314 48.533 66.2333Z" fill="black"/>
<path fill-rule="evenodd" clip-rule="evenodd" d="M30.2398 58.1857H33.7479L33.8979 58.3863C35.6037 60.6681 37.814 62.5196 40.354 63.7946C42.894 65.0696 45.6941 65.7333 48.533 65.7333C51.3716 65.7314 54.171 65.0669 56.7107 63.792C59.2505 62.5171 61.4612 60.6665 63.1683 58.386L63.3183 58.1857H66.8262L66.3269 58.9573C64.3997 61.9354 61.7629 64.3829 58.6555 66.0772C55.548 67.7716 52.0686 68.6592 48.533 68.6592C44.9974 68.6592 41.518 67.7716 38.4105 66.0772C35.3031 64.3829 32.6663 61.9354 30.7392 58.9573L30.2398 58.1857ZM48.533 66.7333C45.5381 66.7333 42.5844 66.0331 39.9054 64.6883C37.3012 63.381 35.026 61.4995 33.249 59.1857H32.1035C33.8825 61.6763 36.2013 63.7336 38.8893 65.1993C41.85 66.8137 45.1649 67.6592 48.533 67.6592C51.9011 67.6592 55.216 66.8137 58.1768 65.1993C60.8647 63.7336 63.1836 61.6763 64.9625 59.1857H63.8169C62.0386 61.4981 59.7632 63.3786 57.1594 64.6857C54.4807 66.0303 51.5274 66.7313 48.533 66.7333Z" fill="#93C227"/>
<path d="M48.5331 28.3792C51.4281 28.3785 54.2841 29.0504 56.878 30.3424C59.4719 31.6345 61.7335 33.5117 63.4863 35.8275H65.8413C63.9524 32.9543 61.3842 30.5966 58.3665 28.9653C55.3489 27.3341 51.976 26.4803 48.5496 26.4803C45.1231 26.4803 41.7501 27.3341 38.7325 28.9653C35.7148 30.5966 33.1467 32.9543 31.2578 35.8275H33.6128C35.363 33.5171 37.6195 31.6433 40.2071 30.3515C42.7948 29.0598 45.6439 28.3848 48.5331 28.3792Z" fill="black"/>
<path fill-rule="evenodd" clip-rule="evenodd" d="M38.4947 28.5255C41.5853 26.8548 45.04 25.9803 48.5496 25.9803C52.0591 25.9803 55.5137 26.8548 58.6043 28.5255C61.6949 30.1961 64.3249 32.6107 66.2591 35.5529L66.7684 36.3275H63.2376L63.0876 36.1293C61.3813 33.8748 59.1798 32.0476 56.6551 30.79C54.1305 29.5325 51.351 28.8786 48.5336 28.8792C45.7218 28.8848 42.949 29.5416 40.4305 30.7989C37.9118 32.0562 35.7152 33.8802 34.0113 36.1295L33.8613 36.3275H30.3307L30.84 35.5529C32.7742 32.6107 35.4041 30.1961 38.4947 28.5255ZM48.533 27.8792C51.5055 27.8785 54.4378 28.5684 57.101 29.8949C59.6897 31.1843 61.9557 33.0414 63.7329 35.3275H64.8882C63.1065 32.873 60.7977 30.8479 58.1288 29.4052C55.1841 27.8134 51.8929 26.9803 48.5496 26.9803C45.2063 26.9803 41.915 27.8134 38.9703 29.4052C36.3014 30.8479 33.9926 32.873 32.211 35.3275H33.3663C35.1407 33.0468 37.4016 31.1932 39.9838 29.9042C42.6404 28.578 45.5665 27.885 48.533 27.8792Z" fill="#93C227"/>
<path d="M8.10338 33.4027H8.828L8.50685 29.9103C8.48976 29.4637 8.57691 29.0192 8.76135 28.6125C8.9458 28.2058 9.22236 27.8482 9.56899 27.5682L12.7063 25.3089C13.4384 24.7159 13.9585 23.8997 14.1883 22.9833L14.9294 19.1764C15.0378 18.7473 15.2426 18.3489 15.5281 18.0117C15.8136 17.6746 16.1722 17.4077 16.5763 17.2316L20.2158 15.9571C21.0859 15.597 21.8148 14.9604 22.2908 14.1447L24.0693 10.7019C24.2974 10.3182 24.611 9.99288 24.9853 9.75162C25.3597 9.51036 25.7846 9.35974 26.2267 9.31156L30.0803 9.11292C31.0058 9.01387 31.8735 8.6127 32.5506 7.97084L35.2267 5.1736C35.553 4.86642 35.9465 4.64048 36.3756 4.51399C36.8046 4.3875 37.2572 4.36399 37.6969 4.44532L41.4518 5.34739C42.3755 5.51907 43.3297 5.38247 44.169 4.95842L47.5121 3.03012C47.9095 2.82989 48.3479 2.72563 48.7925 2.72563C49.237 2.72563 49.6755 2.82989 50.0729 3.03012L53.4242 4.95842C54.2633 5.38306 55.2178 5.51969 56.1415 5.34739L59.8962 4.44532C60.336 4.36399 60.7885 4.3875 61.2176 4.51399C61.6466 4.64048 62.0401 4.86642 62.3665 5.1736L65.0343 7.97084C65.7124 8.61117 66.5796 9.01209 67.5046 9.11292L71.3582 9.31156C71.7992 9.35972 72.223 9.51042 72.5961 9.75174C72.9691 9.99307 73.2811 10.3184 73.5073 10.7019L75.2859 14.1447C75.7639 14.9589 76.4921 15.595 77.361 15.9571L81.0086 17.2316C81.4138 17.4061 81.7733 17.6725 82.059 18.0099C82.3447 18.3473 82.5488 18.7465 82.6555 19.1764L83.3966 22.9833C83.6297 23.9003 84.1527 24.7164 84.887 25.3089L88.0242 27.5682C88.3708 27.8482 88.6475 28.2058 88.8319 28.6125C89.0163 29.0192 89.1035 29.4637 89.0864 29.9103L88.7653 33.4027H89.4899L89.8028 29.9765C89.8283 29.4035 89.7185 28.8326 89.4823 28.3104C89.2462 27.7883 88.8904 27.3298 88.4441 26.9723L85.3068 24.713C84.7209 24.2332 84.3026 23.578 84.1129 22.8426L83.3718 19.0357C83.2321 18.4817 82.9648 17.9683 82.5915 17.5371C82.2183 17.1058 81.7494 16.7688 81.2227 16.553L77.5751 15.2785C76.891 14.9734 76.3163 14.4651 75.9282 13.8219L74.1496 10.3791C73.8639 9.88332 73.4645 9.46323 72.9847 9.15376C72.505 8.84428 71.9587 8.65437 71.3912 8.59981L67.5376 8.4012C66.7881 8.31015 66.0857 7.9861 65.5285 7.4743L62.8524 4.67704C62.1867 4.03795 61.3027 3.67956 60.3821 3.67564C60.1604 3.67447 59.9393 3.69949 59.7233 3.75014L55.9686 4.65222C55.7879 4.69504 55.6025 4.71448 55.4169 4.71013C54.8464 4.71804 54.2822 4.59045 53.77 4.33773L50.4269 2.40943C49.9192 2.14052 49.354 2 48.7801 2C48.2062 2 47.641 2.14052 47.1333 2.40943L43.782 4.33773C43.2701 4.59105 42.7057 4.71867 42.1352 4.71013C41.9468 4.71447 41.7587 4.69503 41.5752 4.65222L37.8205 3.75014C37.6074 3.69898 37.389 3.67394 37.1699 3.67564C36.25 3.6829 35.3672 4.04081 34.6997 4.67704L32.0318 7.4743C31.4723 7.98766 30.7668 8.31182 30.0145 8.4012L26.1691 8.59981C25.6007 8.65508 25.0535 8.8452 24.5725 9.15454C24.0915 9.46388 23.6905 9.88359 23.4024 10.3791L21.6238 13.8219C21.2395 14.4682 20.6637 14.9775 19.977 15.2785L16.3376 16.553C15.8098 16.7671 15.34 17.1036 14.9664 17.5351C14.5929 17.9666 14.3263 18.4808 14.1883 19.0357L13.4474 22.8426C13.2545 23.5766 12.8368 24.2309 12.2533 24.713L9.11617 26.9723C8.66885 27.3293 8.31178 27.7876 8.07424 28.3097C7.83669 28.8318 7.72536 29.4029 7.74927 29.9765L8.10338 33.4027Z" fill="black"/>
<path fill-rule="evenodd" clip-rule="evenodd" d="M46.4312 1.08387C47.1549 0.700542 47.9612 0.5 48.7801 0.5C49.599 0.5 50.4052 0.700542 51.129 1.08387L51.1529 1.09655L54.4718 3.01087C54.7612 3.14656 55.0771 3.2147 55.3961 3.21027L55.4241 3.20988L55.4521 3.21054C55.509 3.21188 55.5658 3.20598 55.6211 3.19302L55.6227 3.19264L59.3729 2.29165L59.3807 2.28979C59.7112 2.21227 60.0497 2.17393 60.3892 2.17566C61.6956 2.18141 62.9487 2.69016 63.8912 3.59501L63.9142 3.61708L66.5744 6.39767C66.8847 6.67159 67.2668 6.84792 67.6737 6.90623L71.5016 7.10352L71.5347 7.1067C72.3412 7.18422 73.117 7.45407 73.7978 7.89324C74.4786 8.33239 75.0446 8.92803 75.4492 9.63017L75.4665 9.66003L77.2352 13.0837C77.455 13.4323 77.7679 13.71 78.1367 13.8858L81.7548 15.15L81.7914 15.165C82.5363 15.4701 83.1987 15.9466 83.7257 16.5554C84.2526 17.1641 84.6294 17.8882 84.8263 18.6689L84.8363 18.7088L85.5755 22.5058C85.6865 22.9049 85.9136 23.2603 86.2263 23.5267L89.3518 25.7775L89.3817 25.8015C90.0131 26.3071 90.5157 26.9552 90.8491 27.6923C91.1824 28.4294 91.3373 29.2349 91.3013 30.0433L91.2997 30.0782L90.8591 34.9027H87.121L87.5884 29.8201C87.5913 29.6172 87.5494 29.4164 87.4658 29.2321C87.3825 29.0483 87.26 28.8861 87.1077 28.7567L83.977 26.502L83.945 26.4762C82.9577 25.6795 82.2556 24.5832 81.9428 23.3529L81.9323 23.3117L81.1917 19.5074C81.1387 19.3125 81.0439 19.1323 80.9143 18.9792C80.7874 18.8294 80.6305 18.7095 80.4546 18.6269L76.8246 17.3586L76.7838 17.3416C75.6137 16.8539 74.6345 15.9979 73.9923 14.9041L73.9719 14.8691L72.1975 11.4346C72.091 11.264 71.9488 11.1195 71.7813 11.0112C71.6141 10.903 71.4259 10.8335 71.2301 10.8069L67.3846 10.6087L67.342 10.6041C66.0912 10.4677 64.9197 9.92568 64.0045 9.06142L63.9759 9.03449L61.314 6.24349C61.1636 6.10865 60.9858 6.00947 60.7934 5.95276C60.6009 5.89602 60.3986 5.88313 60.2009 5.9148L56.4544 6.81489L56.4165 6.82196C55.1687 7.0547 53.8796 6.87003 52.7469 6.2968L52.711 6.27863L49.3675 4.35483C49.1875 4.26971 48.9911 4.22563 48.7925 4.22563C48.5941 4.22563 48.398 4.26959 48.2181 4.35454L44.8825 6.27852L44.8454 6.29724C43.713 6.86938 42.4249 7.05394 41.1777 6.82213L41.1393 6.815L37.3923 5.9148C37.1946 5.88313 36.9922 5.89602 36.7997 5.95276C36.6071 6.00956 36.429 6.10896 36.2784 6.24413L33.6091 9.03423L33.5826 9.05942C32.6674 9.92703 31.4934 10.4703 30.24 10.6044L30.1988 10.6088L26.3545 10.807C26.1568 10.8337 25.9668 10.9036 25.7979 11.0125C25.6292 11.1212 25.4857 11.2661 25.3779 11.4371L23.6058 14.8674L23.5864 14.9008C22.9455 15.9989 21.9635 16.8572 20.7894 17.3431L20.7509 17.3591L17.1341 18.6255C16.9578 18.7095 16.8004 18.8304 16.6728 18.9811C16.5426 19.1349 16.4468 19.3156 16.3925 19.5109L15.653 23.3093L15.6433 23.3482C15.3347 24.5788 14.6358 25.6764 13.6503 26.4745L13.6173 26.5013L10.4855 28.7567C10.3333 28.886 10.2108 29.0482 10.1274 29.2321C10.0438 29.4164 10.002 29.6173 10.0049 29.8201L10.4723 34.9027H6.75042L6.25249 30.0849L6.25057 30.039C6.21687 29.2304 6.37377 28.4251 6.70892 27.6885C7.04409 26.9518 7.5482 26.3046 8.1805 25.7999L8.20948 25.7768L11.3309 23.5288C11.6437 23.2594 11.8718 22.9025 11.9855 22.5021L12.7233 18.7113L12.7326 18.6739C12.9274 17.8904 13.304 17.1637 13.8323 16.5534C14.3607 15.943 15.0259 15.4664 15.7737 15.163L15.8074 15.1493L19.42 13.8842C19.7876 13.7126 20.0987 13.4365 20.3144 13.0884L22.0869 9.65751L22.1056 9.62525C22.5128 8.92494 23.0799 8.33102 23.7611 7.89293C24.4424 7.45481 25.2179 7.18523 26.0239 7.10686L26.0578 7.10357L29.8805 6.90612C30.2893 6.849 30.6735 6.67276 30.9854 6.39806L33.6389 3.61592L33.6648 3.59126C34.6075 2.69268 35.8559 2.18596 37.1581 2.17569C37.4991 2.17305 37.8393 2.21202 38.1708 2.29162L41.916 3.19145L41.9195 3.19226C41.9788 3.20579 42.0396 3.21193 42.1006 3.21053L42.1291 3.20987L42.1576 3.2103C42.4761 3.21506 42.7915 3.14695 43.0801 3.01102L46.408 1.09618L46.4312 1.08387Z" fill="#93C227"/>
<path d="M89.5721 60.5724H88.8475L89.1687 64.0815C89.1858 64.5281 89.0986 64.9725 88.9141 65.3792C88.7297 65.7859 88.453 66.1435 88.1064 66.4235L84.9692 68.6829C84.235 69.2754 83.7119 70.0914 83.4788 71.0084L82.7377 74.8153C82.6311 75.2452 82.427 75.6444 82.1413 75.9818C81.8556 76.3192 81.4961 76.5856 81.0909 76.7601L77.4432 78.0346C76.5744 78.3968 75.8461 79.0328 75.3682 79.847L73.5896 83.2815C73.3648 83.667 73.0534 83.9943 72.6802 84.2372C72.307 84.48 71.8824 84.6317 71.4405 84.6802L67.5869 84.8705C66.6621 84.9777 65.796 85.381 65.1167 86.0209L62.4488 88.8181C62.1225 89.1253 61.7289 89.3512 61.2998 89.4777C60.8708 89.6042 60.4183 89.6277 59.9786 89.5464L56.2237 88.6443C55.3 88.472 54.3455 88.6087 53.5064 89.0333L50.1552 90.9616C49.7577 91.1618 49.3193 91.2661 48.8747 91.2661C48.4301 91.2661 47.9918 91.1618 47.5943 90.9616L44.2512 89.0333C43.4119 88.6093 42.4577 88.4727 41.534 88.6443L37.7792 89.5464C37.3395 89.6277 36.8869 89.6042 36.4578 89.4777C36.0288 89.3512 35.6353 89.1253 35.3089 88.8181L32.6328 86.0209C31.9542 85.38 31.0878 84.9766 30.1626 84.8705L26.309 84.6802C25.8658 84.6323 25.4399 84.4809 25.0653 84.2381C24.6907 83.9952 24.3778 83.6677 24.1517 83.2815L22.3731 79.847C21.897 79.0313 21.1682 78.3947 20.2981 78.0346L16.6585 76.7601C16.2544 76.584 15.8958 76.3171 15.6104 75.98C15.3249 75.6428 15.1201 75.2444 15.0117 74.8153L14.2707 71.0084C14.0409 70.0921 13.5206 69.2758 12.7885 68.6829L9.65134 66.4235C9.30471 66.1435 9.02805 65.7859 8.8436 65.3792C8.65915 64.9725 8.572 64.5281 8.5891 64.0815L8.91024 60.5724H8.18563L7.7492 64.0235C7.72462 64.5972 7.83566 65.1686 8.07326 65.6908C8.31085 66.213 8.66827 66.6711 9.1161 67.0277L12.2533 69.2787C12.8352 69.7656 13.2524 70.422 13.4473 71.1573L14.1883 74.9643C14.3262 75.5192 14.5928 76.0334 14.9664 76.4649C15.3399 76.8964 15.8098 77.233 16.3375 77.447L19.9769 78.7215C20.6636 79.0225 21.2395 79.5318 21.6238 80.1781L23.4024 83.6209C23.6904 84.1164 24.0915 84.5361 24.5725 84.8454C25.0534 85.1548 25.6006 85.3449 26.169 85.4002L30.0144 85.5988C30.7668 85.6882 31.4722 86.0124 32.0317 86.5257L34.6996 89.323C35.3671 89.9592 36.25 90.3171 37.1699 90.3243C37.3889 90.326 37.6074 90.301 37.8204 90.2499L41.5751 89.3478C41.7586 89.305 41.9468 89.2855 42.1351 89.2899C42.7056 89.2813 43.27 89.409 43.7819 89.6623L47.1332 91.5906C47.6409 91.8595 48.2061 92 48.78 92C49.3539 92 49.9191 91.8595 50.4269 91.5906L53.8605 89.6788C54.3727 89.4261 54.9369 89.2985 55.5074 89.3064C55.6957 89.3026 55.8838 89.322 56.0673 89.3643L59.8138 90.2664C60.0297 90.3171 60.2509 90.3421 60.4726 90.3409C61.3931 90.337 62.2772 89.9786 62.9428 89.3395L65.619 86.5423C66.1762 86.0305 66.8786 85.7064 67.628 85.6154L71.4817 85.4167C72.0492 85.3622 72.5955 85.1723 73.0752 84.8628C73.555 84.5533 73.9544 84.1332 74.2401 83.6374L76.0187 80.1946C76.4068 79.5515 76.9815 79.0432 77.6655 78.7381L81.3132 77.4636C81.8402 77.2484 82.3094 76.9115 82.6827 76.4801C83.0561 76.0488 83.3232 75.5352 83.4623 74.9808L84.2034 71.1822C84.3952 70.4455 84.813 69.7882 85.3974 69.3035L88.5346 67.0525C88.9809 66.6951 89.3368 66.2366 89.5729 65.7144C89.8091 65.1923 89.9188 64.6213 89.8933 64.0483L89.5721 60.5724Z" fill="black"/>
<path d="M10.2097 64.7597C10.1261 64.5753 10.0842 64.3743 10.0871 64.1713L10.5538 59.0724H7L6.25324 63.8971L6.25057 63.9593C6.2159 64.7685 6.3725 65.5747 6.70794 66.312C7.0434 67.0493 7.54834 67.6968 8.18179 68.2012C8.81524 68.7055 9.78303 68.7861 10.5678 69.5C11.2759 70.1441 11.5671 70.6386 11.9857 71.4995C12.645 72.8552 12.7233 75.2887 12.7233 75.2887L12.7326 75.3261C12.9273 76.1096 13.304 76.8363 13.8322 77.4466C14.3606 78.057 15.0258 78.5337 15.7736 78.837L15.8073 78.8507L19.4199 80.1158C19.7875 80.2874 20.0987 80.5635 20.3143 80.9116L22.0868 84.3425L22.1056 84.3747C22.5127 85.075 23.0799 85.669 23.7611 86.1071C24.4423 86.5452 25.2178 86.8148 26.0239 86.8931L26.0577 86.8964L29.8804 87.0939C30.2893 87.151 30.6735 87.3272 30.9854 87.602L33.6388 90.3841L33.6647 90.4088C34.6074 91.3074 35.8558 91.814 37.158 91.8243C37.4989 91.8269 37.8392 91.788 38.1707 91.7084L41.916 90.8086L41.9194 90.8078C41.9788 90.7942 42.0397 90.7881 42.1005 90.7895L42.129 90.7901L42.1575 90.7897C42.4759 90.7849 42.7913 90.853 43.08 90.989L46.4079 92.9038L46.4311 92.9161C47.1549 93.2994 47.9611 93.5 48.78 93.5C49.5989 93.5 50.4052 93.2994 51.1289 92.9161L51.1428 92.9088L54.5534 91.0099C54.8452 90.8714 55.1643 90.8018 55.4866 90.8063L55.5122 90.8066L55.5379 90.8061C55.6008 90.8048 55.6637 90.8111 55.7252 90.8248L59.4627 91.7247L59.4712 91.7268C59.8015 91.8042 60.14 91.8426 60.4792 91.8409C61.7857 91.8353 63.0391 91.3265 63.9817 90.4215L64.0047 90.3995L66.6649 87.6189C66.9752 87.345 67.3573 87.1686 67.7642 87.1103L71.5921 86.913L71.6252 86.9099C72.4317 86.8323 73.2075 86.5625 73.8883 86.1233C74.5691 85.6842 75.1351 85.0885 75.5397 84.3864L75.5569 84.3565L77.3257 80.9329C77.5455 80.5843 77.8584 80.3065 78.2272 80.1308L81.8445 78.8669L81.8803 78.8522C82.6262 78.5476 83.2895 78.0711 83.8169 77.4618C84.3442 76.8526 84.721 76.1277 84.9172 75.346L84.9269 75.3073L85.6656 71.5211C85.7785 71.1185 86.0067 70.7592 86.3203 70.4876L89.4413 68.2481L89.4722 68.2234C90.1035 67.7178 90.6062 67.0698 90.9397 66.3325C91.273 65.5953 91.4278 64.7897 91.3918 63.9815L91.3902 63.9459L90.9399 59.0724H87.204L87.6706 64.1713C87.6736 64.3743 87.6317 64.5753 87.5481 64.7597C87.4647 64.9434 87.3422 65.1056 87.1899 65.235L84.0593 67.4897L84.0273 67.5155C83.04 68.3122 82.3378 69.4085 82.0251 70.6388L82.0146 70.68L81.274 74.4844C81.221 74.6792 81.1261 74.8595 80.9965 75.0125C80.8697 75.1623 80.7127 75.2823 80.5369 75.3648L76.9068 76.6331L76.8661 76.6501C75.696 77.1378 74.7167 77.9938 74.0746 79.0877L74.0545 79.122L72.2781 82.5522C72.1722 82.7247 72.03 82.8707 71.862 82.98C71.6958 83.0881 71.5084 83.1578 71.3133 83.1846L67.4635 83.3748L67.4142 83.3805C66.1679 83.5249 65.0019 84.0683 64.0882 84.929L64.059 84.9565L61.3964 87.7482C61.2461 87.883 61.0681 87.9822 60.8757 88.039C60.6832 88.0957 60.4809 88.1086 60.2832 88.0769L56.5367 87.1768L56.4988 87.1698C55.251 86.937 53.9619 87.1217 52.8291 87.6949L52.7932 87.7131L49.4498 89.6369C49.2697 89.722 49.0733 89.7661 48.8747 89.7661C48.6764 89.7661 48.4803 89.7221 48.3003 89.6371L44.9647 87.7132L44.9277 87.6945C43.7952 87.1223 42.5071 86.9378 41.2599 87.1696L41.2216 87.1767L37.4745 88.0769C37.2768 88.1086 37.0745 88.0957 36.882 88.039C36.6894 87.9822 36.5112 87.8828 36.3607 87.7476L33.6904 84.9564L33.6627 84.9303C32.7489 84.0674 31.5814 83.5233 30.3334 83.3803L30.2851 83.3748L26.4347 83.1846C26.238 83.1581 26.049 83.0882 25.8813 82.9795C25.7123 82.8699 25.5691 82.7236 25.4625 82.5508L23.6877 79.1237L23.6686 79.091C23.0277 77.9929 22.0458 77.1345 20.8716 76.6486L20.8331 76.6327L17.2164 75.3662C17.04 75.2823 16.8826 75.1613 16.7551 75.0107C16.6249 74.8569 16.5291 74.6761 16.4747 74.4808L15.7354 70.6824L15.7256 70.6435C15.417 69.4129 14.7179 68.3153 13.7326 67.5172L13.6996 67.4905L10.5678 65.235C10.4155 65.1056 10.293 64.9434 10.2097 64.7597Z" fill="#93C227"/>
<path d="M50.7398 31.3668L49.5871 32.4923L49.8588 34.0896L48.4343 33.3365L47.0015 34.0896L47.2815 32.4923L46.1287 31.3668L47.7179 31.1351L48.4343 29.6785L49.1424 31.1351L50.7398 31.3668Z" fill="black"/>
<path d="M54.7581 32.5172L54.2065 31.3834L53.6465 32.5172L52.4114 32.691L53.3089 33.5765L53.0948 34.8097L54.2065 34.2303L55.3098 34.8097L55.0957 33.5765L55.9932 32.691L54.7581 32.5172Z" fill="black"/>
<path d="M43.2137 32.5834L42.662 31.4496L42.1103 32.5834L40.8669 32.7572L41.7645 33.6427L41.5504 34.8758L42.662 34.2882L43.7736 34.8758L43.5595 33.6427L44.457 32.7572L43.2137 32.5834Z" fill="black"/>
<path d="M46.1287 63.3532L47.2815 62.2277L47.0015 60.6304L48.4343 61.3835L49.8588 60.6304L49.5871 62.2277L50.7398 63.3532L49.1424 63.5849L48.4343 65.0415L47.7179 63.5849L46.1287 63.3532Z" fill="black"/>
<path d="M42.1103 62.2112L42.662 63.3367L43.2137 62.2112L44.457 62.0291L43.5595 61.1518L43.7736 59.9105L42.662 60.498L41.5504 59.9105L41.7645 61.1518L40.8669 62.0291L42.1103 62.2112Z" fill="black"/>
<path d="M53.6465 62.1449L54.2065 63.2704L54.7581 62.1449L55.9932 61.9628L55.104 61.0856L55.3181 59.8442L54.2065 60.4318L53.0948 59.8442L53.3089 61.0856L52.4114 61.9628L53.6465 62.1449Z" fill="black"/>
<path d="M35.2433 28.2219L34.4528 27.1709L32.2872 28.8178L28.9441 24.3654L27.709 25.3005L31.8426 30.7958L35.2433 28.2219Z" fill="black"/>
<path d="M34.7881 20.7303L33.408 21.4349L36.5107 27.5738L37.8909 26.8692L34.7881 20.7303Z" fill="black"/>
<path d="M40.8178 25.6565L40.2084 23.1737C40.2084 23.0165 40.1178 22.8344 40.0602 22.6358L39.8626 22.0482C39.7967 21.8496 39.7308 21.6592 39.6567 21.4689C39.5826 21.2785 39.525 21.1047 39.4673 20.9475L40.3813 22.3627L42.0282 24.6965L42.6292 24.5475L43.008 21.7006L43.1727 20.0454H43.2138C43.2138 20.2109 43.2139 20.4013 43.288 20.5999C43.3621 20.7985 43.3374 20.9972 43.3703 21.2041L43.4691 21.8165C43.4691 22.0234 43.5433 22.2054 43.5844 22.371L44.1855 24.8537L45.5853 24.5061L43.9384 17.8192L42.3575 18.2164L42.0199 21.5268L41.9129 22.8013L41.2212 21.7337L39.3685 19.0027L37.7793 19.3999L39.4261 26.0868L40.8178 25.6565Z" fill="black"/>
<path d="M48.8686 17.6101L47.3208 17.6389L47.4477 24.5315L48.9955 24.5027L48.8686 17.6101Z" fill="black"/>
<path d="M52.1562 24.6965L53.6877 24.953L54.6017 19.4495L56.4544 19.7557L56.6685 18.4647L51.4233 17.5875L51.2092 18.8785L53.0619 19.193L52.1562 24.6965Z" fill="black"/>
<path d="M61.2385 26.1695L58.6201 25.0606L59.2294 23.604L61.3785 24.5143L61.8808 23.3143L59.7317 22.404L60.2669 21.1295L62.7947 22.1971L63.3053 20.9888L59.3529 19.3171L56.6851 25.6647L60.7362 27.3778L61.2385 26.1695Z" fill="black"/>
<path d="M63.6428 29.3309C64.0109 29.616 64.4224 29.8396 64.8614 29.993C65.2568 30.1222 65.6746 30.1673 66.0883 30.1254C66.5155 30.0667 66.9238 29.911 67.2823 29.6702C67.7182 29.3804 68.0977 29.013 68.4021 28.5861C68.7249 28.1794 68.9705 27.7165 69.1267 27.2206C69.2537 26.8112 69.2847 26.3778 69.2173 25.9543C69.1386 25.5391 68.97 25.1463 68.7233 24.804C68.4414 24.4129 68.0995 24.0693 67.7104 23.7861L66.2118 22.644L62.0947 28.1392L63.6428 29.3309ZM66.6482 24.5474L66.8788 24.7295C67.098 24.8869 67.2923 25.0766 67.4552 25.2923C67.5979 25.4844 67.6912 25.709 67.7269 25.9461C67.7603 26.2055 67.7321 26.4693 67.6445 26.7157C67.5265 27.0459 67.3539 27.3536 67.134 27.6261C66.9302 27.9143 66.6797 28.166 66.3929 28.3709C66.1819 28.5291 65.9363 28.6341 65.6766 28.6771C65.4361 28.717 65.1894 28.6942 64.9602 28.6109C64.7046 28.5173 64.4656 28.3832 64.2521 28.2137L64.0215 28.0399L66.6482 24.5474Z" fill="black"/>
<path d="M31.1591 63.6925L28.5159 65.4553L27.6349 66.0512L26.7455 66.6636L27.4125 65.7863C27.6349 65.505 27.849 65.2153 28.0548 64.9587L29.9158 62.3187L29.0511 61.3587L26.235 62.9229L25.321 63.4774L24.3906 64.0401L25.0906 63.2125C25.3211 62.9394 25.5516 62.6746 25.7904 62.3849L27.816 59.9022L26.7785 58.7435L22.6121 64.1725L23.8636 65.5794L26.5479 64.007L27.2397 63.5849L27.8901 63.1711L27.3961 63.7753C27.2314 63.9905 27.0667 64.1974 26.9103 64.4208L25.0823 66.9532L26.3503 68.3767L32.1142 64.7684L31.1591 63.6925Z" fill="black"/>
<path d="M28.6558 70.4374L29.9815 71.265L31.159 70.1146L32.9046 71.1822L32.427 72.7629L33.8021 73.5905L35.4983 66.7298L33.9421 65.7781L28.6558 70.4374ZM34.1068 67.2264L33.7691 68.3022C33.6484 68.6774 33.5413 69.0333 33.448 69.3698L33.2586 69.9823L32.04 69.2291L32.5012 68.7905C32.7564 68.5505 33.0199 68.294 33.3246 68.0126L34.148 67.185L34.1068 67.2264Z" fill="black"/>
<path d="M41.8305 69.8994C41.6453 69.6647 41.4193 69.4657 41.1635 69.3119C40.872 69.1385 40.5628 68.997 40.2413 68.8898L37.9522 68.1201L35.8113 74.5091L37.2523 74.9891L38.0181 72.6884L38.8415 72.9532L39.2944 75.676L40.9413 76.214L40.3483 73.1684C40.7319 73.1415 41.0989 73.0003 41.4023 72.7629C41.7395 72.4949 41.9843 72.1273 42.1022 71.7119C42.2193 71.3863 42.2616 71.0382 42.2257 70.6939C42.1591 70.4011 42.0235 70.1287 41.8305 69.8994ZM40.6201 71.2318C40.585 71.369 40.5182 71.4959 40.4252 71.6023C40.3322 71.7087 40.2156 71.7916 40.0849 71.8443C39.7752 71.9336 39.4447 71.9162 39.1462 71.7946L38.4051 71.5463L39.0061 69.7505L39.7472 69.9987C40.0606 70.079 40.3457 70.2452 40.5707 70.4787C40.6457 70.5881 40.6899 70.7159 40.6986 70.8485C40.7073 70.981 40.6802 71.1135 40.6201 71.2318Z" fill="black"/>
<path d="M48.7802 72.4071C48.82 72.0627 48.7777 71.7138 48.6568 71.3891C48.5423 71.1232 48.3675 70.888 48.1462 70.7023C47.9004 70.5149 47.6208 70.3772 47.3228 70.2967C46.9981 70.2019 46.6639 70.1436 46.3264 70.1229L43.9221 69.9409L43.428 76.6692L44.9349 76.7768L45.1078 74.3519L45.9312 74.4181L47.0345 76.9009L48.7308 77.025L47.4134 74.2195C47.7741 74.0984 48.0918 73.8741 48.3274 73.574C48.5914 73.2395 48.7492 72.8329 48.7802 72.4071ZM46.9357 73.0195C46.6597 73.1885 46.3327 73.2531 46.0135 73.2016L45.1901 73.1436L45.3301 71.265L46.1535 71.3147C46.4679 71.3235 46.7744 71.4148 47.0428 71.5795C47.1455 71.6659 47.2239 71.7778 47.2702 71.9041C47.3164 72.0305 47.3289 72.1668 47.3063 72.2995C47.3047 72.4402 47.2704 72.5787 47.206 72.7037C47.1417 72.8287 47.0491 72.9369 46.9357 73.0195Z" fill="black"/>
<path d="M51.3904 69.9988L50.4023 76.9919L51.9256 76.7436L52.0738 75.0884L54.0912 74.7574L54.7582 76.2719L56.3391 76.0071L53.1855 69.7008L51.3904 69.9988ZM53.5972 73.6401L52.1809 73.8719L52.2468 73.2346C52.2468 72.887 52.3209 72.5146 52.3456 72.1339C52.3703 71.7532 52.395 71.3726 52.4197 71.0084C52.5679 71.3394 52.7161 71.687 52.8644 72.0429C53.0126 72.3988 53.1607 72.7464 53.3089 73.0608L53.5972 73.6401Z" fill="black"/>
<path d="M59.3774 67.5987L60.3161 69.7753C60.4827 70.1629 60.6697 70.5413 60.8761 70.9091C61.0984 71.2981 61.2877 71.6456 61.4607 71.9601L60.2667 70.8594L57.3271 68.4925L55.9026 69.1132L58.5787 75.2953L59.9044 74.716L58.9574 72.5229C58.7927 72.1587 58.6117 71.7863 58.3976 71.4139L57.813 70.3629L58.9986 71.447L61.9383 73.8305L63.3628 73.2015L60.6867 67.0194L59.3774 67.5987Z" fill="black"/>
<path d="M66.4672 64.3215L65.6849 63.3036L61.5596 66.5064L62.3419 67.516L63.7992 66.3822L67.1259 70.7023L68.328 69.7671L65.0097 65.447L66.4672 64.3215Z" fill="black"/>
<path d="M69.6044 62.1946L69.9996 62.8898L69.2502 62.6249L68.5093 62.3684L66.9365 61.847L65.9072 63.1049L70.5266 64.2966L72.371 65.8194L73.3345 64.6442L71.49 63.1215L69.4397 58.7849L68.4351 60.018L69.2585 61.4746L69.6044 62.1946Z" fill="black"/>
<path d="M93.5987 35.7366H3.37689C1.92521 39.3826 1.12261 43.2568 1.00555 47.1821C0.924365 51.1179 1.73522 55.0205 3.37689 58.5946H93.5987C95.2531 55.0504 96.0731 51.1707 95.9949 47.2566C95.9949 42.0676 93.5987 35.7366 93.5987 35.7366ZM90.9967 56.5753H5.97892C4.45068 53.6777 3.6827 50.4362 3.74749 47.1573C3.86684 43.8903 4.62505 40.6788 5.97892 37.7062H90.9967C90.9967 37.7062 93.2528 42.9366 93.2528 47.2153C93.3138 50.4783 92.5367 53.7021 90.9967 56.5753Z" fill="black"/>
<path fill-rule="evenodd" clip-rule="evenodd" d="M3.03779 35.2366H93.9441L94.0664 35.5596L93.5987 35.7366C94.0664 35.5596 94.0664 35.5596 94.0664 35.5596L94.067 35.5612L94.0685 35.5652L94.074 35.5799L94.0948 35.6361C94.1129 35.6852 94.1392 35.7572 94.1725 35.8504C94.2391 36.0368 94.3339 36.3078 94.4475 36.6489C94.6746 37.3308 94.9771 38.294 95.2797 39.4211C95.8824 41.6659 96.4941 44.5933 96.4949 47.2516C96.5738 51.2404 95.7379 55.194 94.0518 58.8061L93.9171 59.0946H3.05633L2.92253 58.8033C1.2493 55.1605 0.422916 51.183 0.505653 47.1718L0.505748 47.1672C0.624551 43.1836 1.43908 39.2519 2.91236 35.5516L3.03779 35.2366ZM93.2485 36.2366H3.71785C2.36604 39.7354 1.61759 43.4413 1.50539 47.1947C1.42832 50.9476 2.17817 54.6697 3.69965 58.0946H93.2781C94.8114 54.6982 95.5695 50.9984 95.495 47.2666L95.4949 47.2566C95.4949 44.7273 94.909 41.8969 94.3139 39.6804C94.0174 38.5761 93.7209 37.6321 93.4987 36.9648C93.3974 36.6607 93.3117 36.4142 93.2485 36.2366ZM5.65722 37.2062H91.3256L91.4558 37.5082L90.9967 37.7062C91.4558 37.5082 91.4558 37.5082 91.4558 37.5082L91.4565 37.5097L91.4579 37.5131L91.4632 37.5255L91.483 37.5724C91.5002 37.6134 91.5251 37.6733 91.5567 37.7506C91.6197 37.9054 91.7094 38.1302 91.8167 38.4129C92.0312 38.978 92.317 39.7761 92.6029 40.7099C93.1714 42.567 93.7521 44.9984 93.7529 47.2108C93.8145 50.5577 93.0171 53.8642 91.4374 56.8115L91.2794 57.0753H90.9967H5.67734L5.53666 56.8086C3.96889 53.836 3.18113 50.5109 3.24759 47.1474L3.24775 47.1391C3.36949 43.8068 4.14291 40.5311 5.52389 37.499L5.65722 37.2062ZM90.6947 56.0753C92.1021 53.3448 92.8104 50.3027 92.7529 47.2246L92.7529 47.2153C92.7529 45.1502 92.2058 42.8291 91.6467 41.0026C91.3685 40.094 91.0903 39.317 90.8818 38.7678C90.7946 38.5382 90.7198 38.3487 90.6623 38.2062H6.30292C5.0588 41.0356 4.36085 44.078 4.24731 47.1714C4.18689 50.2641 4.88693 53.3223 6.2832 56.0753H90.6947Z" fill="#93C227"/>
<path d="M14.4272 33.56L14.6988 32.8814L14.1472 32.4179L14.8718 32.4676L15.1435 31.7889L15.3164 32.5007L16.041 32.5503L15.4235 32.9393L15.5964 33.6428L15.0447 33.1793L14.4272 33.56ZM15.5059 30.9779L15.827 30.3241L15.3164 29.811L16.0329 29.9186L16.3539 29.2648L16.4775 29.9848L17.1938 30.0924L16.5515 30.4317L16.6668 31.1517L16.1481 30.6386L15.5059 30.9779ZM16.7821 28.4951L17.1527 27.8662L16.6751 27.3117L17.3832 27.4772L17.7538 26.8482L17.8196 27.5765L18.5278 27.742L17.8608 28.0234L17.9267 28.7517L17.4491 28.2055L16.7821 28.4951ZM18.2396 26.1034L18.6595 25.5075L18.2231 24.9199L18.9148 25.1351L19.3347 24.5393V25.2675L20.0347 25.4827L19.3429 25.7227V26.451L18.9066 25.8634L18.2396 26.1034ZM19.8864 23.8275L20.3476 23.273L19.9605 22.6523L20.6275 22.9254L21.0968 22.3627L21.0475 23.091L21.7226 23.3558L21.0227 23.5379L20.9734 24.2661L20.5863 23.6537L19.8864 23.8275ZM21.6897 21.6923L22.192 21.171L21.8544 20.5254L22.5049 20.8482L23.0072 20.3185L22.9084 21.0468L23.5588 21.3613L22.8424 21.4937L22.7436 22.2137L22.3979 21.5682L21.6897 21.6923ZM23.6576 19.6978L24.1929 19.2178L23.9047 18.5475L24.5305 18.9199L25.074 18.4316L24.9175 19.1433L25.5433 19.5158L24.8269 19.5903L24.6623 20.302L24.374 19.6316L23.6576 19.6978ZM25.7574 17.8689L26.3337 17.4303L26.095 16.7433L26.6961 17.1571L27.2724 16.7185L27.0666 17.4137L27.6595 17.8358H26.9349L26.7208 18.5309L26.482 17.844L25.7574 17.8689ZM28.0053 16.2137L28.6146 15.8164L28.4252 15.113L28.9934 15.5764L29.6028 15.1792L29.3392 15.8578L29.8992 16.3213H29.1746L28.911 16.9999L28.7299 16.2964L28.0053 16.2137ZM30.3602 14.724L30.9943 14.3764L30.8625 13.6564L31.3895 14.1613L32.0318 13.8137L31.7189 14.4757L32.2459 14.9723L31.5213 14.8813L31.2084 15.5433L31.0766 14.8233L30.3602 14.724ZM32.8305 13.4164L33.4893 13.1185L33.4152 12.3902L33.901 12.9364L34.5598 12.6385L34.2056 13.2675L34.6914 13.8054L33.9751 13.6564L33.6128 14.2937L33.5386 13.5654L32.8305 13.4164ZM35.3832 12.2992L36.0666 12.0509V11.3226L36.5112 11.9019L37.1946 11.6537L36.7829 12.2578L37.2276 12.8371L36.5276 12.6302L36.1242 13.2344V12.5061L35.3832 12.2992ZM38.0181 11.3888L38.7179 11.1902V10.4619L39.1132 11.0743L39.8131 10.8757L39.3685 11.4468L39.7637 12.0592L39.0803 11.8026L38.6274 12.3737V11.6454L38.0181 11.3888ZM40.7189 10.6771L41.4353 10.5364L41.5176 9.80812L41.8716 10.4536L42.5881 10.313L42.0857 10.8426L42.4398 11.4881L41.781 11.1737L41.287 11.7116L41.3776 10.9833L40.7189 10.6771ZM43.4691 10.1723L44.1854 10.0895L44.3337 9.37778L44.6301 10.0398L45.3547 9.95711L44.8195 10.4536L45.1242 11.1157L44.4901 10.7599L43.9549 11.2481L44.0949 10.5364L43.4691 10.1723ZM46.2357 9.89089H46.9604L47.158 9.18743L47.4133 9.87434H48.1379L47.5697 10.3295L47.8167 11.0164L47.2157 10.6026L46.6392 11.0578L46.8368 10.3543L46.2357 9.89089ZM49.0271 9.81641H49.7518L49.9988 9.12952L50.1964 9.83295H50.921L50.3199 10.2385L50.5175 10.9419L49.9494 10.4868L49.34 10.9005L49.5952 10.2137L49.0271 9.81641ZM51.8103 9.96537L52.5267 10.0481L52.8313 9.37778L52.9713 10.0978L53.6959 10.1805L53.0619 10.5364L53.2101 11.2564L52.6667 10.7599L52.0409 11.1157L52.3373 10.4536L51.8103 9.96537ZM54.5687 10.313L55.2851 10.4536L55.631 9.81641L55.7215 10.5364L56.4379 10.6771L55.7791 10.9916L55.8697 11.7116L55.3756 11.1819L54.717 11.4881L55.0627 10.8509L54.5687 10.313ZM57.3025 10.884L58.0024 11.0743L58.3976 10.4619V11.1902L59.0975 11.3888L58.4141 11.6454V12.3737L57.9612 11.8026L57.286 12.0592L57.6813 11.455L57.3025 10.884ZM59.9868 11.6537L60.6703 11.9019L61.1149 11.3226V12.0509L61.7983 12.2992L61.1067 12.5061V13.2344L60.695 12.6302L60.0033 12.8371L60.4479 12.2578L59.9868 11.6537ZM62.597 12.6302L63.264 12.9282L63.7498 12.3819L63.6758 13.1102L64.3344 13.4081L63.6263 13.5571L63.5522 14.2854L63.1816 13.6482L62.4735 13.8054L62.9594 13.2592L62.597 12.6302ZM65.1331 13.7971L65.7672 14.1447L66.2942 13.6399L66.1624 14.3599L66.8047 14.7075L66.0801 14.8068L65.9565 15.5268L65.6355 14.8647L64.9191 14.964L65.446 14.4592L65.1331 13.7971ZM67.6034 15.1626L68.2128 15.5599L68.7727 15.0964L68.5915 15.7999L69.2009 16.1971L68.4762 16.2385L68.2951 16.942L68.0316 16.2633L67.3069 16.3047L67.8669 15.8413L67.6034 15.1626ZM69.9255 16.7102L70.5018 17.1488L71.1029 16.7351L70.8642 17.422L71.4405 17.8606H70.7159L70.4772 18.5558L70.2631 17.8523H69.5385L70.1313 17.4385L69.9255 16.7102ZM72.1322 18.4316L72.6674 18.9116L73.2932 18.5392L73.005 19.2096L73.5485 19.6978L72.8239 19.6234L72.5357 20.2937L72.3792 19.582L71.6546 19.5075L72.2804 19.1433L72.1322 18.4316ZM74.1907 20.3185L74.7013 20.8399L75.3517 20.5171L75.006 21.1627L75.5165 21.6923L74.8001 21.5599L74.4543 22.2054L74.3554 21.4854L73.6391 21.3613L74.2896 21.0385L74.1907 20.3185ZM76.1011 22.3544L76.5704 22.9172L77.2456 22.6441L76.8504 23.2648L77.3115 23.8275L76.6116 23.6454L76.2246 24.2579L76.1752 23.5296L75.4753 23.3475L76.1504 23.0827L76.1011 22.3544ZM77.855 24.5393L78.2749 25.1351L78.9666 24.9199L78.5301 25.4993L78.9501 26.0951L78.2667 25.8634L77.8302 26.451V25.7144L77.1468 25.4827L77.8385 25.2675L77.855 24.5393ZM79.4277 26.84L79.8065 27.4689L80.5146 27.2951L80.037 27.8496L80.4158 28.4786L79.7488 28.1889L79.2712 28.7434L79.3289 28.0151L78.6619 27.7337L79.37 27.5682L79.4277 26.84ZM80.8357 29.2648L81.1651 29.9186L81.8815 29.8027L81.3627 30.3158L81.6921 30.9696L81.0416 30.6386L80.5311 31.1517L80.6464 30.4317L80.0041 30.0924L80.7204 29.9848L80.8357 29.2648ZM82.0544 31.7476L82.3343 32.4262L83.0589 32.3683L82.4991 32.84L82.779 33.5186L82.1614 33.1379L81.6015 33.6096L81.7744 32.8979L81.1569 32.509L81.8815 32.4593L82.0544 31.7476ZM83.1413 60.0843L82.8778 60.7629L83.4378 61.2263L82.7132 61.1767L82.4414 61.8553L82.2602 61.1519L81.5356 61.1105L82.1532 60.7132L81.9721 60.0098L82.5319 60.4732L83.1413 60.0843ZM82.0873 62.6746L81.7662 63.3367L82.2932 63.8415L81.5686 63.7422L81.2557 64.396L81.1239 63.676L80.4075 63.5767L81.0498 63.2291L80.9263 62.5174L81.4451 63.0222L82.0873 62.6746ZM80.8357 65.1574L80.4652 65.7864L80.951 66.3326L80.2429 66.1836L79.8723 66.8126L79.8065 66.0843L79.0901 65.9271L79.757 65.6374L79.6912 64.9091L80.1687 65.4553L80.8357 65.1574ZM79.3948 67.5657L78.983 68.1616L79.4277 68.7409L78.7277 68.534L78.316 69.1299V68.4016L77.6161 68.1947L78.3078 67.9547V67.2264L78.7442 67.8057L79.3948 67.5657ZM77.7479 69.8416L77.295 70.4126L77.6821 71.025L77.0068 70.7602L76.554 71.3312V70.603L75.8787 70.3381L76.5786 70.1478L76.6198 69.4195L77.0151 70.0319L77.7479 69.8416ZM75.9611 72.0016L75.4588 72.5312L75.8047 73.1685L75.1541 72.854L74.6519 73.3837L74.7507 72.6637L74.0919 72.3492L74.8083 72.2167L74.8989 71.4885L75.2447 72.134L75.9611 72.0016ZM74.0178 74.0043L73.4826 74.4926L73.779 75.163L73.1451 74.7988L72.6098 75.2871L72.758 74.5671L72.1322 74.203L72.8486 74.1285L73.005 73.4168L73.3014 74.0788L74.0178 74.0043ZM71.9263 75.8581L71.35 76.305L71.597 76.992L70.9959 76.5782L70.4195 77.025L70.6253 76.3299L70.0243 75.9161H70.7489L70.9547 75.2209L71.2018 75.9078L71.9263 75.8581ZM69.6949 77.5133L69.0938 77.9106L69.2832 78.614L68.7151 78.1588L68.114 78.5644L68.3692 77.8775L67.8011 77.4223H68.5257L68.7809 76.7354L68.9703 77.4388L69.6949 77.5133ZM67.3482 79.0195L66.7141 79.3754L66.8541 80.0954L66.3189 79.5906L65.6848 79.9464L65.9895 79.2844L65.4625 78.7878L66.1871 78.8789L66.4918 78.2168L66.6318 78.9368L67.3482 79.0195ZM64.8779 80.352L64.2191 80.6499L64.3016 81.3782L63.8074 80.8403L63.1488 81.1465L63.5028 80.5092L63.0087 79.9713L63.7251 80.1203L64.0792 79.483L64.1698 80.203L64.8779 80.352ZM62.3253 81.494L61.6418 81.7423V82.4706L61.189 81.8996L60.5138 82.1561L60.9091 81.5437L60.4644 80.9727L61.1643 81.1713L61.5678 80.5589V81.2954L62.3253 81.494ZM59.6986 82.4292L58.9987 82.6279V83.3561L58.5952 82.752L57.8954 82.9506L58.3399 82.3796L57.9365 81.7754L58.62 82.0237L59.0645 81.4527V82.1809L59.6986 82.4292ZM57.006 83.1658L56.2979 83.3065L56.2156 84.0347L55.8533 83.3975L55.1452 83.5465L55.6392 83.0085L55.2768 82.3713L55.9439 82.6775L56.4296 82.1396L56.3473 82.8596L57.006 83.1658ZM54.2723 83.6872L53.5477 83.7782L53.4159 84.4982L53.103 83.8361L52.3866 83.9189L52.9136 83.4223L52.609 82.7603L53.243 83.1161L53.77 82.6196L53.6383 83.3313L54.2723 83.6872ZM51.4974 84.0017H50.7728L50.5834 84.7051L50.3281 84.0182H49.6035L50.1635 83.563L49.9081 82.8844L50.5175 83.2816L51.0857 82.8265L50.8963 83.5299L51.4974 84.0017ZM48.7142 84.0927H47.9896L47.7426 84.7796L47.5367 84.0761H46.8121L47.4133 83.6706L47.2074 82.9672L47.7838 83.4141L48.3848 83.0003L48.1379 83.6872L48.7142 84.0927ZM45.9311 83.9768L45.2065 83.9023L44.9101 84.5644L44.7618 83.8527L44.0372 83.7782L44.663 83.4141L44.5148 82.6941L45.0583 83.1906L45.684 82.8265L45.3876 83.4885L45.9311 83.9768ZM43.1562 83.6458L42.4398 83.5134L42.0939 84.1589L41.9951 83.4306L41.287 83.2982L41.9375 82.9837L41.847 82.2637L42.341 82.7934L42.9998 82.4789L42.6539 83.1161L43.1562 83.6458ZM40.4225 83.1078L39.7225 82.9175L39.3273 83.5299V82.8016L38.6274 82.6196L39.3025 82.3547V81.6264L39.7637 82.1892L40.4389 81.9244L40.0436 82.5451L40.4225 83.1078ZM37.7299 82.3547L37.0464 82.123L36.6101 82.7023V81.9741L35.9183 81.734L36.6183 81.5189V80.7906L37.03 81.3865L37.7216 81.1796L37.2852 81.7589L37.7299 82.3547ZM35.1114 81.4113L34.4445 81.1216L33.9668 81.6678L34.0328 80.9396L33.3657 80.6499L34.0739 80.4844L34.148 79.7644L34.5185 80.3933L35.2267 80.2361L34.7409 80.7823L35.1114 81.4113ZM32.567 80.2609L31.9248 79.9216L31.406 80.4265L31.5295 79.7065L30.8872 79.3671L31.6119 79.2678L31.7354 78.5478L32.0565 79.2016L32.7729 79.094L32.2541 79.6071L32.567 80.2609ZM30.0968 78.9202L29.4792 78.5313L28.9275 78.9947L29.1005 78.2913L28.4911 77.9023L29.2157 77.8526L29.3887 77.1492L29.6604 77.8196L30.385 77.7782L29.8251 78.2416L30.0968 78.9202ZM27.7583 77.3975L27.1736 76.9589L26.5808 77.3809L26.8114 76.694L26.2267 76.2554H26.9595L27.1901 75.5602L27.4042 76.2637H28.1288L27.536 76.6857L27.7583 77.3975ZM25.5433 75.6926L24.9916 75.2126L24.3658 75.5933L24.654 74.923L24.1105 74.443L24.8269 74.5009L25.1151 73.8306L25.2798 74.5423L26.0044 74.6085L25.3786 74.9809L25.5433 75.6926ZM23.46 73.8306L22.9495 73.3092L22.2991 73.6319L22.6366 72.9864L22.1261 72.465L22.8424 72.5892L23.1801 71.9354L23.2871 72.6637L24.0035 72.7795L23.353 73.1106L23.46 73.8306ZM21.525 71.803L21.0639 71.2485L20.3887 71.5216L20.7675 70.9009L20.3064 70.3464L21.0062 70.5202L21.3932 69.8995L21.4427 70.6278L22.1508 70.8016L21.4756 71.083L21.525 71.803ZM19.7546 69.643L19.3347 69.0471L18.643 69.2705L19.0712 68.6829L18.6513 68.0954L19.3347 68.3188L19.7629 67.7312V68.4595L20.4546 68.6912L19.7629 68.9147L19.7546 69.643ZM18.1573 67.3505L17.7785 66.7216L17.0703 66.8953L17.5397 66.3409L17.1691 65.7202L17.8361 65.9933L18.3054 65.4388L18.2478 66.1671L18.923 66.4484L18.2148 66.6223L18.1573 67.3505ZM16.7328 64.934L16.4034 64.2884L15.687 64.4043L16.1975 63.8912L15.8681 63.2374L16.5104 63.5684L17.0209 63.0471L16.9139 63.7753L17.5644 64.0981L16.8398 64.214L16.7328 64.934ZM15.4894 62.4512L15.2095 61.7726L14.4848 61.8388L15.0365 61.3588L14.7565 60.6884L15.3741 61.0691L15.9258 60.5891L15.7611 61.3008L16.3786 61.6815L15.6623 61.7394L15.4894 62.4512Z" fill="black"/>
<path d="M17.2845 49.9545C17.1556 50.8451 17.095 51.7443 17.1034 52.6442L17.021 52.727L11.1171 52.6773C10.1372 52.6773 9.47036 52.6773 9.03395 52.727L8.95152 52.6442V52.4373V52.338C9.19028 52.2104 9.40943 52.0487 9.60206 51.858C9.68027 51.5023 9.71072 51.1377 9.69262 50.7738V48.9449V44.8069C9.71699 43.9613 9.68122 43.115 9.58557 42.2745C9.5776 42.2009 9.54595 42.132 9.49541 42.0783C9.44487 42.0245 9.37824 41.9887 9.30564 41.9765C8.99196 41.9297 8.67571 41.902 8.35869 41.8938L8.27637 41.811V41.2565L8.35869 41.1821C8.91861 41.1821 9.73379 41.2317 10.8289 41.2317C11.9241 41.2317 12.7886 41.2317 13.365 41.1821L13.4474 41.2565V41.8193L13.365 41.8938C13.048 41.9026 12.7319 41.9302 12.4182 41.9765C12.3471 41.9904 12.2823 42.0268 12.2333 42.0804C12.1844 42.1341 12.1539 42.2021 12.1464 42.2745C12.0507 43.115 12.015 43.9613 12.0393 44.8069V49.6897C12.0393 50.4014 12.0393 51.0883 12.0393 51.7587H13.1428C14.1157 51.8078 15.091 51.7439 16.0494 51.5683C16.1007 51.5551 16.1449 51.5225 16.1729 51.4773C16.2566 51.3265 16.3098 51.1606 16.3294 50.989L16.527 49.9794L16.6093 49.8883H17.1034L17.2845 49.9545Z" fill="black"/>
<path d="M23.707 52.6524L23.6411 52.7352C23.0977 52.7352 22.2578 52.6855 21.1709 52.6855C20.084 52.6855 19.2112 52.6855 18.7006 52.7352L18.6265 52.6524V52.1062L18.7089 52.0235C19.0283 52.0149 19.3471 51.9901 19.664 51.949C19.7346 51.9313 19.7983 51.8926 19.8468 51.838C19.8953 51.7834 19.9263 51.7154 19.9358 51.6428C20.0318 50.8051 20.0675 49.9615 20.0428 49.1186V44.7986C20.0672 43.953 20.0314 43.1067 19.9358 42.2662C19.9283 42.1938 19.8978 42.1257 19.8488 42.0721C19.7999 42.0185 19.7351 41.9821 19.664 41.9682C19.3475 41.922 19.0286 41.8944 18.7089 41.8855L18.6265 41.8027V41.2482L18.7089 41.1738C19.2276 41.1738 20.0675 41.2234 21.1791 41.2234C22.2907 41.2234 23.1471 41.2234 23.6494 41.1738L23.7235 41.2482V41.8027L23.6494 41.8855C23.3297 41.8944 23.0107 41.922 22.6942 41.9682C22.6231 41.9821 22.5583 42.0185 22.5093 42.0721C22.4604 42.1257 22.4299 42.1938 22.4224 42.2662C22.3268 43.1067 22.291 43.953 22.3154 44.7986V49.1269C22.2906 49.9698 22.3264 50.8133 22.4224 51.651C22.4318 51.7236 22.4629 51.7917 22.5114 51.8463C22.5598 51.9009 22.6235 51.9396 22.6942 51.9573C23.0111 51.9984 23.3299 52.0232 23.6494 52.0318L23.7235 52.1145L23.707 52.6524Z" fill="black"/>
<path d="M33.0198 41.24L32.9129 42.1752C32.9129 42.3821 32.9128 42.6469 32.8387 43.0028V43.6566L32.7564 43.7476H32.2788L32.2046 43.6648C32.2316 43.2411 32.1871 42.8158 32.073 42.4069C31.9495 42.2414 31.1919 42.1586 29.8086 42.1586C29.5862 42.1586 29.2322 42.1586 28.7628 42.2083C28.6969 42.7628 28.6723 43.7559 28.6723 45.1876V46.2883H29.5862C29.8662 46.2883 30.4096 46.2883 31.126 46.2883C31.1803 46.2913 31.2345 46.2816 31.2845 46.2601C31.3345 46.2385 31.3789 46.2057 31.4142 46.1642C31.5326 45.8186 31.583 45.4532 31.5625 45.0883L31.6448 45.0055H32.147L32.2294 45.0883C32.2294 45.6924 32.2294 46.2552 32.2294 46.7435C32.2294 47.2318 32.2294 47.8938 32.2294 48.5476L32.147 48.6138H31.6036L31.5212 48.5394C31.5441 48.201 31.5192 47.8611 31.4472 47.5297C31.3566 47.3394 31.0766 47.2318 30.6237 47.1904C30.3108 47.1904 29.9979 47.149 29.685 47.149C29.3721 47.149 28.9769 47.149 28.6887 47.149V49.1269C28.6646 49.9698 28.7003 50.8133 28.7958 51.6511C28.8052 51.7237 28.8362 51.7917 28.8846 51.8463C28.9331 51.9009 28.9968 51.9396 29.0675 51.9573L30.2285 52.0318L30.3108 52.1145V52.6607L30.2203 52.7435L26.9266 52.6939C26.4573 52.6939 25.8149 52.6939 24.9915 52.7435L24.9092 52.669V52.1145L24.9915 52.0318C25.3109 52.0233 25.6298 51.9984 25.9467 51.9573C26.0174 51.9396 26.0811 51.9009 26.1295 51.8463C26.178 51.7917 26.2091 51.7237 26.2185 51.6511C26.3139 50.8133 26.3497 49.9698 26.3255 49.1269V44.8069C26.3499 43.9613 26.3141 43.115 26.2185 42.2745C26.211 42.2021 26.1805 42.1341 26.1315 42.0804C26.0826 42.0268 26.0178 41.9904 25.9467 41.9765C25.6302 41.9303 25.3112 41.9027 24.9915 41.8938L24.9092 41.811V41.2565L24.9915 41.1821C25.5103 41.1821 26.3419 41.2317 27.4618 41.2317L32.9293 41.1821L33.0198 41.24Z" fill="black"/>
<path d="M43.0903 49.9545C42.9685 50.8458 42.9107 51.7446 42.9173 52.6442L42.835 52.727L36.9311 52.6773C35.9512 52.6773 35.2843 52.6773 34.8479 52.727L34.7656 52.6442V52.4373V52.338C35.0043 52.2104 35.2234 52.0487 35.416 51.858C35.489 51.5015 35.5194 51.1376 35.5066 50.7738V48.9449V44.8069C35.5265 43.9613 35.4908 43.1153 35.3995 42.2745C35.3903 42.2014 35.3583 42.1332 35.308 42.0796C35.2576 42.0261 35.1917 41.99 35.1196 41.9765C34.8059 41.9302 34.4896 41.9026 34.1727 41.8938L34.0903 41.811V41.2565L34.1727 41.1821C34.7161 41.1821 35.5643 41.2317 36.7088 41.2317C37.7244 41.2317 39.6457 41.2152 42.4728 41.1821L42.5633 41.2483L42.4563 42.1586C42.4563 42.4483 42.4068 42.6883 42.3903 42.8869L42.3327 43.6483L42.2504 43.7393H41.781L41.6987 43.6566C41.7347 43.2299 41.6899 42.8003 41.5669 42.3903C41.2939 42.2633 40.9947 42.2037 40.6942 42.2166C40.1754 42.1669 39.7142 42.1504 39.319 42.1504C38.9238 42.1504 38.3721 42.1504 37.8863 42.2083C37.8286 42.7793 37.8039 43.5655 37.8039 44.5752V46.2717C38.2239 46.2717 38.578 46.2717 38.8415 46.2717H39.9037C40.3978 46.2717 40.6859 46.2304 40.7271 46.1559C40.867 45.8069 40.9261 45.4305 40.9 45.0552L40.9823 44.9724H41.4846L41.5669 45.0552C41.5669 45.6593 41.5669 46.2221 41.5669 46.7104C41.5669 47.1986 41.5669 47.8607 41.5669 48.5145L41.4846 48.5807H40.9412L40.8588 48.5063C40.9005 48.1286 40.8555 47.7464 40.7271 47.389C40.6448 47.2731 40.3813 47.1987 39.9037 47.1573C39.4261 47.1159 39.2202 47.1159 38.8497 47.1159C38.4792 47.1159 38.084 47.1159 37.7464 47.1573V49.64C37.7464 50.3518 37.7463 51.0387 37.7875 51.709H39.0391C40.0093 51.7583 40.9819 51.6945 41.9375 51.5187C41.9646 51.5136 41.9902 51.5028 42.0129 51.4872C42.0356 51.4715 42.0549 51.4512 42.0693 51.4276C42.153 51.2769 42.2061 51.1109 42.2257 50.9394L42.4233 49.9297L42.5056 49.8387H42.9998L43.0903 49.9545Z" fill="black"/>
<path d="M54.4699 41.2234C54.4006 41.6364 54.3648 42.0543 54.3629 42.4731V43.8386L54.2806 43.9214H53.7701L53.6795 43.8469C53.6783 43.437 53.6481 43.0277 53.5889 42.6221C53.5521 42.5119 53.4827 42.4156 53.39 42.3461C53.2973 42.2766 53.1858 42.2372 53.0702 42.2331C52.9631 42.2331 52.4525 42.2331 51.5468 42.2331H50.4599C50.4599 42.4234 50.4599 43.1765 50.4599 44.5007V49.1269C50.4429 49.956 50.4787 50.7852 50.567 51.6097C50.579 51.6825 50.6119 51.7502 50.6616 51.8046C50.7113 51.859 50.7757 51.8976 50.8469 51.9159C51.161 51.9572 51.4771 51.9821 51.7938 51.9904L51.8762 52.0731V52.6193L51.7938 52.7021C51.2449 52.669 50.4215 52.6525 49.3236 52.6525C48.1626 52.6525 47.3309 52.6525 46.8533 52.7021L46.7793 52.6276V52.0731L46.8616 51.9904C47.1783 51.9825 47.4944 51.9577 47.8085 51.9159C47.8802 51.8986 47.9451 51.8603 47.995 51.8057C48.0449 51.7512 48.0774 51.6829 48.0885 51.6097C48.1453 50.7832 48.148 49.9538 48.0967 49.1269V44.4924C48.0967 43.1434 48.0967 42.3903 48.0967 42.2248H46.9357C46.3689 42.1964 45.8008 42.2242 45.2395 42.3076C45.1675 42.3286 45.1041 42.3721 45.0583 42.4317C44.9893 42.5976 44.9475 42.7737 44.9348 42.9531C44.9019 43.2455 44.8771 43.5434 44.8606 43.8469L44.7866 43.9296H44.2678L44.1855 43.8469V42.4482C44.1758 42.0412 44.1428 41.635 44.0867 41.2317L44.1607 41.1489C44.4736 41.2069 45.6429 41.2317 47.652 41.2317H50.9457C52.7984 41.2317 53.9594 41.2317 54.437 41.1489L54.4699 41.2234Z" fill="black"/>
<path d="M60.6126 52.6524L60.5385 52.7352C59.9951 52.7352 59.1634 52.6855 58.0683 52.6855C56.9731 52.6855 56.1085 52.6855 55.598 52.7352L55.5239 52.6524V52.1062L55.6062 52.0235C55.923 52.0152 56.2391 51.9903 56.5532 51.949C56.6244 51.9307 56.6887 51.8921 56.7384 51.8377C56.7882 51.7833 56.821 51.7156 56.8331 51.6428C56.9204 50.8044 56.9534 49.9613 56.9319 49.1186V44.7986C56.9531 43.9532 56.9201 43.1073 56.8331 42.2662C56.8216 42.194 56.7888 42.127 56.7388 42.0739C56.6889 42.0207 56.6242 41.9839 56.5532 41.9682C56.2395 41.9219 55.9232 41.8942 55.6062 41.8855L55.5239 41.8027V41.2482L55.6062 41.1738C56.1277 41.2069 56.9512 41.2234 58.0765 41.2234C59.2018 41.2234 60.0253 41.2069 60.5467 41.1738L60.6291 41.2482V41.8027L60.5467 41.8855C60.2297 41.8937 59.9135 41.9214 59.5998 41.9682C59.5277 41.9817 59.4619 42.0178 59.4115 42.0713C59.3612 42.1249 59.3291 42.1931 59.3199 42.2662C59.2286 43.107 59.1929 43.953 59.2128 44.7986V49.1269C59.1925 49.9697 59.2283 50.813 59.3199 51.651C59.3309 51.7243 59.3635 51.7925 59.4133 51.8471C59.4632 51.9016 59.5281 51.94 59.5998 51.9573C59.9139 51.999 60.23 52.0239 60.5467 52.0318L60.6291 52.1145L60.6126 52.6524Z" fill="black"/>
<path d="M77.3114 52.6525L77.2291 52.7352C76.6939 52.7352 75.854 52.6856 74.7589 52.6856C73.6637 52.6856 72.7662 52.6856 72.2886 52.7352L72.2145 52.6607V52.1063L72.2886 52.0235C72.6081 52.0154 72.9269 51.9906 73.2438 51.949C73.3145 51.9314 73.3782 51.8927 73.4266 51.8381C73.4751 51.7834 73.5061 51.7154 73.5155 51.6428C73.6115 50.8051 73.6473 49.9615 73.6225 49.1187V43.5986L71.8111 47.3311C71.7122 47.538 71.3582 48.2994 70.7571 49.6152L69.2749 52.8759H68.682C68.4021 52.2056 68.0151 51.3532 67.5375 50.3187L66.4012 47.9021L64.2685 43.4497V49.1269C64.2482 49.9698 64.284 50.813 64.3756 51.6511C64.3877 51.7239 64.4206 51.7916 64.4703 51.846C64.52 51.9004 64.5843 51.9391 64.6555 51.9573C64.9697 51.9986 65.2858 52.0235 65.6025 52.0318L65.6848 52.1145V52.669L65.6025 52.7435C64.9849 52.7435 64.4003 52.6939 63.8651 52.6939C63.3298 52.6939 62.6217 52.6939 61.9877 52.7435L61.9136 52.669V52.1145L61.9877 52.0318C62.3071 52.0233 62.6259 51.9984 62.9428 51.9573C63.0135 51.9396 63.0772 51.9009 63.1257 51.8463C63.1742 51.7917 63.2051 51.7237 63.2145 51.6511C63.3105 50.8134 63.3463 49.9698 63.3216 49.1269V44.8069C63.346 43.9613 63.3102 43.115 63.2145 42.2745C63.207 42.2021 63.1765 42.1341 63.1276 42.0804C63.0787 42.0268 63.0139 41.9904 62.9428 41.9765C62.6263 41.9303 62.3074 41.9027 61.9877 41.8938L61.9136 41.811V41.2565L61.9877 41.1821C62.5558 41.1821 63.2639 41.2317 64.1285 41.2317C64.7873 41.2317 65.3636 41.2152 65.8577 41.1821C66.0306 41.5959 66.2859 42.1835 66.6153 42.9283L67.134 44.0538L69.7195 49.4828L70.9629 46.9504L72.8979 42.8124C73.1285 42.3159 73.3509 41.7779 73.5649 41.2069C74.1743 41.24 74.586 41.2565 74.8001 41.2565C75.8623 41.2565 76.6692 41.2566 77.2703 41.2069L77.3526 41.2814V41.8442L77.2703 41.9186C76.9506 41.9276 76.6316 41.9552 76.3151 42.0014C76.244 42.0152 76.1792 42.0516 76.1303 42.1053C76.0814 42.1589 76.0508 42.2269 76.0433 42.2993C75.9477 43.1398 75.912 43.9861 75.9364 44.8317V49.1269C75.9117 49.9698 75.9473 50.8134 76.0433 51.6511C76.0528 51.7237 76.0838 51.7917 76.1323 51.8463C76.1808 51.9009 76.2445 51.9396 76.3151 51.9573C76.6321 51.9984 76.9509 52.0233 77.2703 52.0318L77.3526 52.1145L77.3114 52.6525Z" fill="black"/>
<path d="M87.3491 49.9545C87.2243 50.8455 87.1637 51.7444 87.1679 52.6442L87.0938 52.727L81.1899 52.6773C80.2018 52.6773 79.5431 52.6773 79.0985 52.727L79.0244 52.6442V52.4373V52.338C79.2598 52.209 79.4759 52.0474 79.6666 51.858C79.7441 51.5022 79.7745 51.1377 79.7571 50.7738V48.9449V44.8069C79.7815 43.9613 79.7457 43.115 79.6501 42.2745C79.6426 42.2021 79.6122 42.1341 79.5632 42.0804C79.5143 42.0268 79.4495 41.9904 79.3784 41.9765C79.0647 41.9302 78.7484 41.9026 78.4314 41.8938L78.3491 41.811V41.2565L78.4314 41.1821C78.9749 41.1821 79.8148 41.2317 80.9594 41.2317C81.9804 41.2317 83.9017 41.2152 86.7233 41.1821L86.8139 41.2483L86.7068 42.1586C86.7068 42.4483 86.6492 42.6883 86.6327 42.8869L86.575 43.6483L86.4927 43.7393H86.0234L85.941 43.6566C85.9775 43.2305 85.9357 42.8012 85.8176 42.3903C85.5441 42.2648 85.2451 42.2053 84.9447 42.2166C84.4177 42.1669 83.9566 42.1504 83.5613 42.1504C83.1661 42.1504 82.6144 42.1504 82.1368 42.2083C82.0792 42.7793 82.0463 43.5655 82.0463 44.5752V46.2717C82.4744 46.2717 82.8203 46.2717 83.0838 46.2717H84.146C84.6483 46.2717 84.9283 46.2304 84.9694 46.1559C85.0999 45.8044 85.1587 45.43 85.1423 45.0552L85.2246 44.9724H85.7269L85.8093 45.0552C85.8093 45.6593 85.8093 46.2221 85.8093 46.7104C85.8093 47.1986 85.8093 47.8607 85.8093 48.5145L85.7269 48.5807H85.1835L85.1011 48.5063C85.1368 48.1287 85.0919 47.7477 84.9694 47.389C84.8788 47.2731 84.6236 47.1987 84.146 47.1573C83.6684 47.1159 83.4708 47.1159 83.092 47.1159C82.7132 47.1159 82.3345 47.1159 81.9887 47.1573V49.64C81.9887 50.3518 81.9886 51.0387 82.0298 51.709H83.1332C84.1062 51.7587 85.0815 51.6948 86.0398 51.5187C86.0934 51.5058 86.1404 51.4734 86.1716 51.4276C86.2516 51.2753 86.3046 51.11 86.3281 50.9394L86.5175 49.9297L86.5998 49.8387H87.0938L87.3491 49.9545Z" fill="black"/>
</svg>
