<svg width="24" height="24" fill="none" xmlns="http://www.w3.org/2000/svg">
<path d="M15.867 19.078a.75.75 0 100-1.5.75.75 0 000 1.5zM18.75 19.078a.75.75 0 100-1.5.75.75 0 000 1.5z" fill="#7B61FF"/>
<path d="M20.097 23.25H14.52a3.214 3.214 0 01-3.21-3.21V12.96a3.214 3.214 0 013.21-3.211h5.578a3.216 3.216 0 013.212 3.211v7.078a3.215 3.215 0 01-3.212 3.212zm-5.578-12a1.712 1.712 0 00-1.71 1.712v7.078a1.713 1.713 0 001.71 1.712h5.578a1.713 1.713 0 001.712-1.712v-7.078a1.713 1.713 0 00-1.712-1.711H14.52z" fill="#7B61FF"/>
<path d="M18.867 14.482h-3a.75.75 0 000 1.5h3a.75.75 0 000-1.5z" fill="#222"/><path d="M8.987 23.25H4.405A3.655 3.655 0 01.75 19.595V4.405A3.655 3.655 0 014.405.75h12.19a3.655 3.655 0 013.655 3.655v2.922a.75.75 0 11-1.5 0V4.406a2.156 2.156 0 00-2.155-2.156H4.405A2.156 2.156 0 002.25 4.405v15.19a2.156 2.156 0 002.155 2.155h4.582a.75.75 0 110 1.5z" fill="#7B61FF"/>
<path d="M5.986 7.248a.75.75 0 100-1.5.75.75 0 000 1.5zM15.014 5.748H9.078a.75.75 0 100 1.5h5.936a.75.75 0 000-1.5zM9.662 16.752v-5.936a.75.75 0 00-1.5 0v5.936a.75.75 0 001.5 0zM6.736 16.75v-5.935a.75.75 0 10-1.5 0v5.935a.75.75 0 001.5 0z" fill="#7B61FF"/></svg>