<svg width="24" height="24" fill="none" xmlns="http://www.w3.org/2000/svg"><path d="M20.648 22.5h-6.046a1.854 1.854 0 01-1.852-1.852v-7.546a1.854 1.854 0 011.852-1.852h6.046a1.854 1.854 0 011.852 1.852v7.546a1.854 1.854 0 01-1.852 1.852zm-6.046-9.75a.352.352 0 00-.352.352v7.546c0 .195.158.352.352.352h6.046a.352.352 0 00.352-.352v-7.546a.352.352 0 00-.352-.352h-6.046zm6.046-3h-6.046a1.854 1.854 0 01-1.852-1.852V3.352A1.854 1.854 0 0114.602 1.5h6.046A1.854 1.854 0 0122.5 3.352v4.546a1.854 1.854 0 01-1.852 1.852zM14.602 3a.352.352 0 00-.352.352v4.546c0 .194.158.352.352.352h6.046A.352.352 0 0021 7.898V3.352A.352.352 0 0020.648 3h-6.046zm-5.204 9.75H3.352A1.854 1.854 0 011.5 10.898V3.352A1.854 1.854 0 013.352 1.5h6.046a1.854 1.854 0 011.852 1.852v7.546a1.854 1.854 0 01-1.852 1.852zM3.352 3A.352.352 0 003 3.352v7.546c0 .194.158.352.352.352h6.046a.352.352 0 00.352-.352V3.352A.352.352 0 009.398 3H3.352zm6.046 19.5H3.352A1.854 1.854 0 011.5 20.648v-4.546a1.854 1.854 0 011.852-1.852h6.046a1.854 1.854 0 011.852 1.852v4.546A1.854 1.854 0 019.398 22.5zm-6.046-6.75a.352.352 0 00-.352.352v4.546c0 .195.158.352.352.352h6.046a.352.352 0 00.352-.352v-4.546a.352.352 0 00-.352-.352H3.352z" fill="#7B61FF"/></svg>