<svg width="24" height="24" viewBox="0 0 24 24" fill="none" xmlns="http://www.w3.org/2000/svg">
<path fill-rule="evenodd" clip-rule="evenodd" d="M2.76923 3C2.97324 3 3.1689 3.08007 3.31316 3.2226C3.45742 3.36513 3.53846 3.55844 3.53846 3.76V18.96C3.53846 19.3631 3.70055 19.7497 3.98907 20.0348C4.27758 20.3199 4.6689 20.48 5.07692 20.48H21.2308C21.4348 20.48 21.6304 20.5601 21.7747 20.7026C21.919 20.8451 22 21.0384 22 21.24C22 21.4416 21.919 21.6349 21.7747 21.7774C21.6304 21.9199 21.4348 22 21.2308 22H5.07692C4.26087 22 3.47824 21.6797 2.90121 21.1096C2.32417 20.5395 2 19.7663 2 18.96V3.76C2 3.55844 2.08104 3.36513 2.2253 3.2226C2.36956 3.08007 2.56522 3 2.76923 3ZM11.2308 6.04C11.4348 6.04 11.6304 6.12007 11.7747 6.2626C11.919 6.40513 12 6.59844 12 6.8V16.68C12 16.8816 11.919 17.0749 11.7747 17.2174C11.6304 17.3599 11.4348 17.44 11.2308 17.44C11.0268 17.44 10.8311 17.3599 10.6868 17.2174C10.5426 17.0749 10.4615 16.8816 10.4615 16.68V6.8C10.4615 6.59844 10.5426 6.40513 10.6868 6.2626C10.8311 6.12007 11.0268 6.04 11.2308 6.04ZM19.6923 9.08C19.6923 8.87844 19.6113 8.68513 19.467 8.5426C19.3227 8.40007 19.1271 8.32 18.9231 8.32C18.7191 8.32 18.5234 8.40007 18.3791 8.5426C18.2349 8.68513 18.1538 8.87844 18.1538 9.08V16.68C18.1538 16.8816 18.2349 17.0749 18.3791 17.2174C18.5234 17.3599 18.7191 17.44 18.9231 17.44C19.1271 17.44 19.3227 17.3599 19.467 17.2174C19.6113 17.0749 19.6923 16.8816 19.6923 16.68V9.08ZM15.0769 11.36C15.2809 11.36 15.4766 11.4401 15.6209 11.5826C15.7651 11.7251 15.8462 11.9184 15.8462 12.12V16.68C15.8462 16.8816 15.7651 17.0749 15.6209 17.2174C15.4766 17.3599 15.2809 17.44 15.0769 17.44C14.8729 17.44 14.6773 17.3599 14.533 17.2174C14.3887 17.0749 14.3077 16.8816 14.3077 16.68V12.12C14.3077 11.9184 14.3887 11.7251 14.533 11.5826C14.6773 11.4401 14.8729 11.36 15.0769 11.36ZM8.15385 12.12C8.15385 11.9184 8.0728 11.7251 7.92854 11.5826C7.78428 11.4401 7.58863 11.36 7.38462 11.36C7.1806 11.36 6.98495 11.4401 6.84069 11.5826C6.69643 11.7251 6.61538 11.9184 6.61538 12.12V16.68C6.61538 16.8816 6.69643 17.0749 6.84069 17.2174C6.98495 17.3599 7.1806 17.44 7.38462 17.44C7.58863 17.44 7.78428 17.3599 7.92854 17.2174C8.0728 17.0749 8.15385 16.8816 8.15385 16.68V12.12Z" fill="#7B61FF"/>
</svg>
