<svg width="60" height="60" viewBox="0 0 60 60" fill="none" xmlns="http://www.w3.org/2000/svg">
<g clip-path="url(#clip0_117_4584)">
<path d="M30 0C18.9719 0 10 9.04529 10 20.1636C10 24.4961 11.3417 28.6237 13.8802 32.1018L29.0331 54.7804C29.2498 55.1046 29.6122 55.299 30 55.299C30.3879 55.299 30.7502 55.1046 30.9669 54.7804L46.1198 32.102C48.6583 28.6237 50 24.4962 50 20.1638C50 9.04529 41.0281 0 30 0ZM44.2239 30.7334C44.2093 30.7535 44.195 30.7743 44.1814 30.7958L30 52.02L15.821 30.7992C15.8069 30.7767 15.7919 30.7549 15.7762 30.7333C13.5227 27.6564 12.3316 24.0016 12.3316 20.1635C12.3316 10.3415 20.2577 2.35068 30 2.35068C39.7423 2.35068 47.6684 10.3416 47.6684 20.1636C47.6684 24.0016 46.4773 27.6565 44.2239 30.7334Z" fill="#DF1F26"/>
<path d="M38.1602 18.864C37.5163 18.864 36.9944 19.3902 36.9944 20.0393C36.9944 23.9277 33.8566 27.0912 29.9998 27.0912C26.1429 27.0912 23.0051 23.9277 23.0051 20.0393C23.0051 16.1508 26.1429 12.9873 29.9998 12.9873C31.4016 12.9873 32.7536 13.4036 33.9099 14.191C34.4434 14.5544 35.168 14.4129 35.5285 13.875C35.8889 13.3373 35.7486 12.6066 35.2151 12.2432C33.6719 11.1922 31.8685 10.6367 29.9996 10.6367C24.8571 10.6367 20.6733 14.8546 20.6733 20.0393C20.6733 25.2239 24.8571 29.4419 29.9996 29.4419C35.1422 29.4419 39.3259 25.2239 39.3259 20.0393C39.3259 19.3902 38.804 18.864 38.1602 18.864Z" fill="#DF1F26"/>
<path d="M43.9693 57.6496H15.9904C15.3466 57.6496 14.8247 58.1758 14.8247 58.8249C14.8247 59.474 15.3466 60.0002 15.9904 60.0002H43.9693C44.6132 60.0002 45.1351 59.474 45.1351 58.8249C45.1352 58.1758 44.6132 57.6496 43.9693 57.6496Z" fill="#DF1F26"/>
<path d="M37.2043 14.8978H37.2277C37.9275 14.8978 38.4935 15.4695 38.4934 16.1731L37.2043 14.8978ZM37.2043 14.8978C36.5045 14.8978 35.9386 15.4695 35.9386 16.1731M37.2043 14.8978L35.9386 16.1731M35.9386 16.1731C35.9386 16.8767 36.5045 17.4484 37.2043 17.4484M35.9386 16.1731L37.2043 17.4484M37.2043 17.4484H37.2277M37.2043 17.4484H37.2277M37.2277 17.4484C37.9275 17.4484 38.4934 16.8767 38.4934 16.1731L37.2277 17.4484Z" fill="#DF1F26" stroke="#DF1F26" stroke-width="0.2"/>
</g>
<defs>
<clipPath id="clip0_117_4584">
<rect width="60" height="60" fill="white"/>
</clipPath>
</defs>
</svg>
