<svg width="60" height="60" viewBox="0 0 60 60" fill="none" xmlns="http://www.w3.org/2000/svg">
<path d="M42.0466 27.7283H20.8872V15.1747C20.8872 10.7883 24.4046 7.18551 28.7282 7.14358C30.8507 7.12614 32.8608 7.93789 34.3759 9.43832C35.8912 10.9391 36.7258 12.9365 36.7258 15.0626V19.5482C36.7258 21.0649 37.9597 22.2987 39.4763 22.2987H41.1184C42.635 22.2987 43.8689 21.0648 43.8689 19.5482V15.0626C43.8689 12.2887 43.108 9.57697 41.6685 7.22064C41.6084 7.12221 41.5295 7.03659 41.4363 6.96867C41.3431 6.90074 41.2374 6.85184 41.1253 6.82476C41.0131 6.79768 40.8968 6.79294 40.7828 6.81083C40.6689 6.82871 40.5596 6.86887 40.4612 6.929C40.3627 6.98912 40.2771 7.06805 40.2092 7.16127C40.1413 7.25449 40.0924 7.36017 40.0653 7.47228C40.0382 7.5844 40.0335 7.70075 40.0514 7.8147C40.0692 7.92864 40.1094 8.03795 40.1695 8.13638C41.4406 10.2168 42.1124 12.6118 42.1124 15.0625V19.5481C42.1124 20.0963 41.6664 20.5421 41.1184 20.5421H39.4763C38.9281 20.5421 38.4823 20.0961 38.4823 19.5481V15.0625C38.4823 12.464 37.4629 10.0234 35.6118 8.19013C33.7839 6.37996 31.3711 5.3867 28.8075 5.3867C28.7756 5.3867 28.7432 5.38682 28.7111 5.38717C23.4286 5.43846 19.1307 9.82909 19.1307 15.1747V27.7283H15.5664C15.5442 27.7283 15.5226 27.7298 15.5005 27.7299V15.0625C15.5005 7.72558 21.4696 1.75653 28.8065 1.75653C32.2183 1.75653 35.4627 3.04665 37.9422 5.38916C38.1123 5.54498 38.3368 5.62766 38.5673 5.61935C38.7978 5.61103 39.0158 5.5124 39.1742 5.34474C39.3326 5.17708 39.4186 4.95385 39.4138 4.72325C39.409 4.49266 39.3137 4.2732 39.1485 4.11228C36.3416 1.4605 32.6687 0 28.8065 0C20.501 0 13.744 6.75703 13.744 15.0625V27.9456C10.3251 28.7685 7.77637 31.8505 7.77637 35.5183V44.9274C7.77637 45.4125 8.16948 45.8057 8.65463 45.8057C9.13979 45.8057 9.5329 45.4125 9.5329 44.9274V35.5183C9.5329 32.1914 12.2395 29.4847 15.5664 29.4847H42.0466C45.3734 29.4847 48.08 32.1914 48.08 35.5183V52.2099C48.08 55.5368 45.3734 58.2433 42.0466 58.2433H15.5664C12.2395 58.2433 9.5329 55.5368 9.5329 52.2099V48.6704C9.5329 48.1853 9.13979 47.7921 8.65463 47.7921C8.16948 47.7921 7.77637 48.1853 7.77637 48.6704V52.2099C7.77637 56.5053 11.2709 59.9999 15.5664 59.9999H42.0466C46.3421 59.9999 49.8365 56.5053 49.8365 52.2099V35.5184C49.8367 31.2228 46.3421 27.7283 42.0466 27.7283Z" fill="#DF1F26"/>
<path d="M45.2112 39.1264C45.4441 39.1264 45.6675 39.0339 45.8322 38.8692C45.9969 38.7045 46.0894 38.4811 46.0894 38.2482V35.5193C46.0894 33.29 44.2759 31.4765 42.0466 31.4765H37.604C37.1188 31.4765 36.7257 31.8697 36.7257 32.3547C36.7257 32.8398 37.1188 33.233 37.604 33.233H42.0466C43.3073 33.233 44.3329 34.2586 44.3329 35.5193V38.2482C44.3329 38.4811 44.4254 38.7045 44.5901 38.8692C44.7548 39.0339 44.9782 39.1264 45.2112 39.1264ZM12.4017 39.1264C12.6346 39.1264 12.858 39.0339 13.0227 38.8692C13.1874 38.7045 13.28 38.4811 13.28 38.2482V35.5193C13.28 34.2586 14.3057 33.233 15.5663 33.233H20.0089C20.4941 33.233 20.8872 32.8398 20.8872 32.3547C20.8872 31.8697 20.4941 31.4765 20.0089 31.4765H15.5663C13.337 31.4765 11.5234 33.29 11.5234 35.5193V38.2482C11.5234 38.4811 11.616 38.7045 11.7807 38.8692C11.9454 39.0339 12.1688 39.1264 12.4017 39.1264ZM11.5234 52.2108C11.5234 54.4401 13.337 56.2537 15.5663 56.2537H20.0089C20.4941 56.2537 20.8872 55.8604 20.8872 55.3754C20.8872 54.8904 20.4941 54.4971 20.0089 54.4971H15.5663C14.3056 54.4971 13.28 53.4716 13.28 52.2108V49.482C13.28 48.997 12.8869 48.6037 12.4017 48.6037C11.9165 48.6037 11.5234 48.997 11.5234 49.482V52.2108ZM37.604 56.2537H42.0466C44.2759 56.2537 46.0894 54.4401 46.0894 52.2108V49.482C46.0894 48.997 45.6963 48.6037 45.2112 48.6037C44.726 48.6037 44.3329 48.997 44.3329 49.482V52.2108C44.3329 53.4716 43.3072 54.4971 42.0466 54.4971H37.604C37.1188 54.4971 36.7257 54.8904 36.7257 55.3754C36.7257 55.8604 37.1188 56.2537 37.604 56.2537ZM28.5323 37.9855C29.2472 37.9358 29.9552 38.0853 30.5798 38.4191C30.6815 38.4735 30.793 38.5073 30.9077 38.5186C31.0225 38.5299 31.1384 38.5185 31.2488 38.4851C31.3591 38.4516 31.4618 38.3967 31.551 38.3235C31.6401 38.2503 31.714 38.1603 31.7683 38.0586C31.8227 37.9568 31.8565 37.8454 31.8678 37.7306C31.8791 37.6159 31.8677 37.5 31.8342 37.3896C31.8007 37.2792 31.7458 37.1765 31.6726 37.0874C31.5995 36.9982 31.5095 36.9243 31.4077 36.87C30.4913 36.38 29.4554 36.1602 28.4092 36.2332C25.6348 36.4279 23.4328 38.6707 23.2874 41.4501C23.2399 42.3488 23.4124 43.2455 23.7898 44.0625C24.1672 44.8795 24.7382 45.5921 25.4532 46.1385C25.5228 46.1917 25.5558 46.2821 25.5374 46.3686L24.7299 50.1573C24.672 50.426 24.6751 50.7042 24.7392 50.9715C24.8032 51.2387 24.9264 51.4882 25.0998 51.7014C25.2722 51.9154 25.4905 52.088 25.7386 52.2063C25.9866 52.3247 26.2581 52.3859 26.5329 52.3853H31.0797C31.6388 52.3853 32.1612 52.1361 32.5128 51.7014C32.6862 51.4882 32.8094 51.2387 32.8735 50.9715C32.9375 50.7042 32.9407 50.426 32.8828 50.1573L32.0755 46.3695C32.0567 46.2815 32.0957 46.1876 32.1775 46.1247C33.5473 45.0689 34.333 43.4729 34.333 41.7459C34.333 41.2914 34.2763 40.8359 34.1643 40.3919C34.1362 40.2801 34.0862 40.1749 34.0174 40.0823C33.9485 39.9898 33.8621 39.9117 33.7631 39.8526C33.6641 39.7934 33.5544 39.7543 33.4403 39.7376C33.3261 39.7209 33.2098 39.7268 33.098 39.755C32.8721 39.812 32.6782 39.9563 32.5588 40.1563C32.4393 40.3563 32.4042 40.5955 32.4612 40.8214C32.5378 41.125 32.5765 41.4361 32.5765 41.7459C32.5765 42.9238 32.0403 44.0127 31.1055 44.7333C30.4832 45.2128 30.1966 45.9801 30.3577 46.7357L31.165 50.5236C31.1681 50.5363 31.1681 50.5495 31.1651 50.5621C31.162 50.5748 31.156 50.5866 31.1475 50.5965C31.1213 50.6288 31.0902 50.6288 31.0799 50.6288H26.533C26.5227 50.6288 26.4916 50.6288 26.4653 50.5965C26.4568 50.5866 26.4508 50.5748 26.4478 50.5621C26.4447 50.5494 26.4448 50.5362 26.4479 50.5235L27.2554 46.7346C27.4143 45.9877 27.1258 45.2059 26.5199 44.7429C26.0317 44.3698 25.6419 43.8833 25.3843 43.3255C25.1267 42.7677 25.009 42.1555 25.0415 41.542C25.1407 39.6472 26.6414 38.1182 28.5323 37.9855ZM48.6418 18.4794C48.7572 18.4796 48.8714 18.4569 48.978 18.4128C49.0846 18.3686 49.1814 18.3038 49.2629 18.2222L51.1128 16.3723C51.2774 16.2076 51.37 15.9842 51.37 15.7513C51.37 15.5184 51.2774 15.295 51.1128 15.1303C51.0312 15.0487 50.9344 14.984 50.8278 14.9399C50.7213 14.8958 50.607 14.873 50.4917 14.873C50.3764 14.873 50.2622 14.8958 50.1556 14.9399C50.049 14.984 49.9522 15.0487 49.8707 15.1303L48.0208 16.9802C47.8561 17.1449 47.7636 17.3683 47.7636 17.6012C47.7636 17.8341 47.8561 18.0575 48.0208 18.2222C48.1022 18.3038 48.199 18.3686 48.3056 18.4128C48.4122 18.4569 48.5264 18.4796 48.6418 18.4794ZM49.2628 24.3799C49.1812 24.2983 49.0844 24.2336 48.9778 24.1895C48.8713 24.1453 48.7571 24.1226 48.6417 24.1226C48.5264 24.1226 48.4122 24.1453 48.3056 24.1895C48.1991 24.2336 48.1022 24.2983 48.0207 24.3799C47.856 24.5446 47.7635 24.7679 47.7635 25.0009C47.7635 25.2338 47.856 25.4571 48.0207 25.6218L49.8705 27.4717C49.952 27.5534 50.0488 27.6182 50.1554 27.6623C50.262 27.7065 50.3763 27.7291 50.4916 27.729C50.6654 27.729 50.8352 27.6775 50.9796 27.581C51.124 27.4845 51.2366 27.3473 51.3031 27.1869C51.3696 27.0264 51.387 26.8498 51.3531 26.6794C51.3192 26.5091 51.2356 26.3526 51.1128 26.2297L49.2628 24.3799ZM51.3454 20.4227H48.9584C48.4733 20.4227 48.0802 20.816 48.0802 21.301C48.0802 21.786 48.4733 22.1793 48.9584 22.1793H51.3454C51.5784 22.1793 51.8018 22.0867 51.9665 21.922C52.1312 21.7573 52.2237 21.5339 52.2237 21.301C52.2237 21.0681 52.1312 20.8447 51.9665 20.68C51.8018 20.5153 51.5784 20.4227 51.3454 20.4227Z" fill="#DF1F26"/>
</svg>
