<svg width="60" height="60" viewBox="0 0 60 60" fill="none" xmlns="http://www.w3.org/2000/svg">
<g clip-path="url(#clip0_2012_25285)">
<path d="M52.1097 45.6958L50.7188 44.5937C54.4488 39.8871 56.4203 34.2164 56.4203 28.1949C56.4203 21.1361 53.6725 14.5009 48.6833 9.51177C43.694 4.5224 37.0588 1.77465 30.0001 1.77465C24.6765 1.77465 19.5459 3.34959 15.163 6.329L14.1653 4.86136C18.8436 1.68095 24.3192 0 30.0001 0C37.5329 0 44.6138 2.93231 49.9383 8.25674C55.2627 13.5812 58.1951 20.662 58.1951 28.1948C58.1951 34.6206 56.0907 40.6724 52.1097 45.6958ZM8.39658 60V46.2991C4.14357 41.2339 1.80518 34.8182 1.80518 28.1948C1.80518 19.9677 5.385 12.1715 11.6267 6.80555L12.7835 8.15133C6.93451 13.1799 3.57983 20.4854 3.57983 28.1948C3.57983 34.5044 5.84452 40.6126 9.95674 45.3945L10.1712 45.644V56.4718C11.3049 55.4751 13.0649 53.7686 15.1888 51.174L15.6146 50.6539L16.2305 50.9228C19.641 52.4118 26.3757 54.6152 30 54.6152C36.8188 54.6152 43.2906 52.027 48.2235 47.327L49.4478 48.6118C44.1834 53.6276 37.2768 56.3898 30.0001 56.3898C26.2907 56.3898 19.9072 54.379 16.1371 52.8116C12.4233 57.2504 9.89143 58.9877 9.78164 59.0622L8.39658 60Z" fill="#7B61FF"/>
<path d="M33.7126 40.382H26.2881V6.59143H33.7126V40.382ZM28.0628 38.6073H31.9379V8.36608H28.0628V38.6073ZM30.0003 49.7984C27.9535 49.7984 26.2881 48.133 26.2881 46.0862C26.2881 44.0392 27.9535 42.374 30.0003 42.374C32.0472 42.374 33.7126 44.0393 33.7126 46.0862C33.7126 48.133 32.0472 49.7984 30.0003 49.7984ZM30.0003 44.1485C28.932 44.1485 28.0628 45.0177 28.0628 46.0861C28.0628 47.1544 28.932 48.0236 30.0003 48.0236C31.0688 48.0236 31.9379 47.1544 31.9379 46.0861C31.9379 45.0177 31.0687 44.1485 30.0003 44.1485ZM44.7039 45.2895L43.5458 43.9448C48.1374 39.9905 50.7706 34.25 50.7706 28.1948H52.5453C52.5454 34.767 49.6873 40.9978 44.7039 45.2895ZM9.22983 28.1948H7.45518C7.45518 19.9391 11.9622 12.3521 19.2173 8.39483L20.0672 9.95274C13.3825 13.5989 9.22983 20.5889 9.22983 28.1948ZM7.40088 30.1325H9.28414V31.9072H7.40088V30.1325ZM7.40088 33.8991H9.28414V35.6737H7.40088V33.8991ZM50.7164 24.4828H52.5997V26.2574H50.7164V24.4828ZM50.7164 20.7161H52.5997V22.4908H50.7164V20.7161Z" fill="#7B61FF"/>
</g>
<defs>
<clipPath id="clip0_2012_25285">
<rect width="60" height="60" fill="white"/>
</clipPath>
</defs>
</svg>
