<svg width="52" height="52" viewBox="0 0 52 52" fill="none" xmlns="http://www.w3.org/2000/svg">
<path d="M28.05 38.4033L22.1449 42.25V40.6614L20.2234 40.5105C16.0255 40.2134 11.8845 39.3837 7.9043 38.0423C6.09291 37.4661 4.38158 36.6228 2.82932 35.5412C2.16866 35.0639 1.5666 34.5132 1.03506 33.9002C-0.618644 31.9309 -0.257099 29.6728 1.87866 28.222C3.27928 27.3189 4.86989 26.7377 6.53176 26.5219C6.20369 26.7188 5.86226 26.9157 5.54759 27.1258C4.50731 27.7244 3.56777 28.4773 2.76238 29.3576C1.72463 30.5852 1.82509 31.4911 3.13065 32.4363C4.27823 33.1935 5.54811 33.755 6.88662 34.0971C9.47856 34.8423 12.1376 35.3414 14.8271 35.5872C17.1436 35.8104 19.4668 35.9482 21.79 36.1255C21.8905 36.1255 21.9909 36.1255 22.1382 36.1255V34.55L28.05 38.4033Z" fill="white"/>
<path d="M27.8626 36.1452C28.6727 36.1452 29.4828 36.1452 30.2929 36.1452C34.3585 36.0113 38.4066 35.5569 42.3978 34.7864C44.1669 34.4702 45.8894 33.9411 47.5262 33.2109C48.0975 32.9385 48.6383 32.6085 49.1398 32.2263C50.0771 31.5173 50.1909 30.769 49.5549 29.7843C48.9446 28.9363 48.1685 28.2156 47.2718 27.664C46.6893 27.2636 46.0801 26.896 45.491 26.4956C47.4995 26.9157 49.5081 27.454 51.0078 28.99C51.5316 29.5145 51.8687 30.1907 51.9688 30.9182C52.0689 31.6456 51.9267 32.3853 51.5634 33.0271C50.8918 34.1918 49.9198 35.1629 48.7448 35.8432C46.7799 37.0547 44.6466 37.9812 42.4111 38.5937C38.3711 39.7452 34.2119 40.4476 30.0118 40.6877C29.215 40.7402 28.4183 40.6877 27.5814 40.6877L31.0696 38.4033L27.8358 36.283L27.8626 36.1452Z" fill="white"/>
<path d="M44.3661 22.6292C44.395 24.0636 44.2101 25.4944 43.8171 26.8763C43.5179 27.9536 42.9548 28.9428 42.1768 29.7581C41.6414 30.283 40.9873 30.6767 40.2676 30.9072C39.5479 31.1377 38.7829 31.1985 38.0347 31.0847C37.2865 30.9708 36.5762 30.6856 35.9616 30.252C35.347 29.8185 34.8454 29.2489 34.4974 28.5896C33.8909 27.476 33.5048 26.2599 33.3593 25.0055C33.0831 23.1683 33.1534 21.2971 33.5668 19.4849C33.8374 17.9968 34.594 16.6352 35.7226 15.6053C36.2805 15.1213 36.9454 14.7709 37.6649 14.5815C38.3844 14.3922 39.1388 14.3691 39.8689 14.5142C40.599 14.6593 41.2848 14.9685 41.8723 15.4176C42.4598 15.8666 42.933 16.4432 43.2547 17.102C44.0675 18.8318 44.4485 20.7264 44.3661 22.6292ZM35.4214 23.2134C35.4682 23.6795 35.5151 24.5263 35.6423 25.3731C35.7579 26.4276 36.1323 27.4389 36.7336 28.3205C36.9551 28.6607 37.2604 28.9407 37.6214 29.1346C37.9824 29.3286 38.3875 29.4303 38.7991 29.4303C39.2107 29.4303 39.6157 29.3286 39.9767 29.1346C40.3377 28.9407 40.643 28.6607 40.8645 28.3205C41.1573 27.9204 41.3833 27.4773 41.534 27.0076C42.2896 24.4291 42.361 21.7042 41.7416 19.091C41.587 18.2466 41.1818 17.4656 40.5766 16.846C40.1892 16.4562 39.6762 16.2098 39.1245 16.1488C38.5729 16.0877 38.0167 16.2158 37.5505 16.5112C36.9664 16.9108 36.5185 17.4735 36.265 18.1261C35.5887 19.6293 35.4682 21.2244 35.4214 23.2134Z" fill="white"/>
<path d="M29.8309 14.4238V16.229C25.8808 16.3406 23.2965 18.0999 22.4663 21.9794L22.58 22.1041C22.6125 22.0314 22.6506 21.9612 22.6939 21.894C23.3166 21.1865 24.1336 20.6693 25.0476 20.404C25.9615 20.1387 26.9339 20.1364 27.8491 20.3974C28.7054 20.5877 29.4865 21.0189 30.0965 21.6381C30.7066 22.2572 31.1192 23.0374 31.2837 23.883C31.5913 25 31.5656 26.1801 31.2096 27.2831C30.8536 28.3862 30.1822 29.3659 29.2752 30.106C28.6014 30.5883 27.8253 30.9151 27.0047 31.062C26.1841 31.2089 25.3402 31.1721 24.5361 30.9543C23.732 30.7365 22.9885 30.3435 22.3612 29.8044C21.7338 29.2654 21.2387 28.5943 20.9129 27.8413C20.1657 26.0023 19.9932 23.987 20.4175 22.0516C20.741 19.856 21.8838 17.8562 23.6245 16.4391C24.9351 15.4288 26.5071 14.7968 28.1638 14.6142C28.6794 14.5354 29.2284 14.4895 29.8309 14.4238ZM25.8875 21.8743C25.2473 21.8727 24.6184 22.0392 24.0662 22.3567C23.5139 22.6742 23.0585 23.131 22.7474 23.6795C22.575 23.9481 22.4653 24.2507 22.426 24.5657C22.3222 25.7305 22.5964 26.8976 23.2094 27.9004C23.5218 28.4319 23.9906 28.8586 24.5545 29.1244C25.1183 29.3903 25.751 29.483 26.3695 29.3905C26.9456 29.334 27.4918 29.112 27.9397 28.7523C28.3875 28.3927 28.717 27.9113 28.8869 27.3687C29.2015 26.5435 29.296 25.6533 29.1614 24.7824C29.1031 23.9774 28.7299 23.2256 28.12 22.6838C27.51 22.142 26.7102 21.852 25.8875 21.8743Z" fill="white"/>
<path d="M9.91283 23.0034V21.3491H11.1715C11.988 21.3524 12.7911 21.1465 13.5014 20.7518C13.9603 20.5103 14.3292 20.1324 14.5554 19.6724C14.7815 19.2125 14.8532 18.6941 14.7601 18.1917C14.6861 17.709 14.454 17.263 14.099 16.9208C13.744 16.5787 13.2852 16.3589 12.7917 16.2946C11.6632 16.1022 10.5016 16.2774 9.48433 16.7935C9.20314 16.9248 8.9353 17.0889 8.62063 17.253C8.43986 16.7672 8.25908 16.2946 8.10509 15.8088C8.10509 15.7366 8.19214 15.5857 8.27917 15.5331C9.00117 15.0963 9.79704 14.7895 10.6292 14.6273C11.8847 14.3208 13.203 14.3686 14.4321 14.7651C15.1365 14.9631 15.7625 15.367 16.2266 15.923C16.6908 16.4789 16.971 17.1605 17.0298 17.8766C17.1261 18.626 16.985 19.3863 16.6257 20.0545C16.2664 20.7226 15.7063 21.2662 15.0212 21.6117C14.7267 21.789 14.4052 21.9202 14.0571 22.0975L14.2914 22.1894C15.1716 22.3767 15.9691 22.8316 16.5702 23.4893C17.1713 24.147 17.5453 24.9739 17.639 25.8523C17.7322 26.7692 17.5388 27.6923 17.0844 28.4989C16.63 29.3055 15.9361 29.9576 15.0949 30.3685C13.4522 31.1553 11.5782 31.3461 9.80569 30.9068C9.06013 30.7068 8.32877 30.459 7.61636 30.165C7.4222 30.0928 7.38204 29.9681 7.46238 29.7646C7.64315 29.3051 7.80382 28.8325 7.94442 28.4517C8.80809 28.7209 9.6182 29.0228 10.4551 29.2263C11.3375 29.4449 12.2643 29.4199 13.1332 29.1541C13.7523 29.0035 14.3047 28.6595 14.7069 28.174C15.1091 27.6885 15.3393 27.0878 15.3627 26.4628C15.4195 25.857 15.2815 25.249 14.9681 24.724C14.6548 24.199 14.1817 23.7832 13.6153 23.5351C12.8355 23.1804 11.9841 23.0032 11.1246 23.0165L9.91283 23.0034Z" fill="white"/>
<path d="M49.421 12.3757C49.421 12.8951 49.2638 13.4027 48.9696 13.8345C48.6753 14.2663 48.257 14.6028 47.7677 14.8016C47.2783 15.0003 46.7399 15.0523 46.2204 14.951C45.7009 14.8497 45.2237 14.5996 44.8492 14.2324C44.4746 13.8652 44.2196 13.3973 44.1162 12.888C44.0129 12.3786 44.066 11.8507 44.2687 11.3709C44.4714 10.8911 44.8146 10.481 45.255 10.1925C45.6954 9.904 46.2132 9.75 46.7429 9.75C47.4532 9.75 48.1343 10.0266 48.6365 10.5191C49.1388 11.0115 49.421 11.6793 49.421 12.3757ZM45.136 12.3757C45.1343 12.5831 45.1746 12.7888 45.2547 12.9807C45.3348 13.1726 45.4531 13.347 45.6027 13.4936C45.7523 13.6403 45.9301 13.7562 46.1259 13.8348C46.3216 13.9134 46.5314 13.9529 46.7429 13.9512C47.1709 13.946 47.5795 13.7756 47.8803 13.4771C48.1811 13.1785 48.3498 12.7757 48.3498 12.356C48.3445 11.9434 48.1735 11.5494 47.874 11.2594C47.5745 10.9694 47.1705 10.8068 46.7496 10.8068C46.5353 10.8014 46.3221 10.8388 46.1231 10.9167C45.924 10.9947 45.7432 11.1115 45.5916 11.2601C45.44 11.4087 45.3209 11.586 45.2414 11.7812C45.1619 11.9763 45.1238 12.1853 45.1293 12.3954L45.136 12.3757Z" fill="white"/>
</svg>
