<svg width="44" height="52" viewBox="0 0 44 52" fill="none" xmlns="http://www.w3.org/2000/svg">
<path d="M33.8067 11.5994V35.9986H5.9021V38.4559H36.3866V11.5994H33.8067Z" fill="white"/>
<path d="M39.9388 17.1435V42.0367H11.5156V44H42V17.1435H39.9388Z" fill="white"/>
<path d="M2 8V32.8438H30.3714V8H2ZM21.4782 12.1736C22.0092 12.1723 22.5287 12.3212 22.9708 12.6013C23.413 12.8815 23.7579 13.2802 23.962 13.7471C24.1661 14.2141 24.2202 14.7282 24.1174 15.2244C24.0146 15.7206 23.7595 16.1766 23.3845 16.5347C23.0095 16.8928 22.5313 17.1369 22.0106 17.236C21.4898 17.3351 20.95 17.2849 20.4592 17.0916C19.9685 16.8983 19.549 16.5707 19.2538 16.1502C18.9587 15.7298 18.8012 15.2354 18.8012 14.7296C18.8012 14.0527 19.083 13.4036 19.5848 12.9244C20.0867 12.4452 20.7676 12.1752 21.4782 12.1736ZM5.17616 30.0779C5.17616 30.0779 5.31876 18.2178 11.1719 18.2178C17.0251 18.2178 17.5955 27.1576 17.5955 27.1576C17.5955 27.1576 19.1512 22.6507 22.8912 22.6507C26.6313 22.6507 27.7656 30.0594 27.7656 30.0594L5.17616 30.0779Z" fill="white"/>
</svg>
