<svg width="60" height="60" viewBox="0 0 60 60" fill="none" xmlns="http://www.w3.org/2000/svg">
<g clip-path="url(#clip0_2012_25196)">
<path d="M0 59C0 58.4477 0.447715 58 1 58H59C59.5523 58 60 58.4477 60 59C60 59.5523 59.5523 60 59 60H0.999999C0.447714 60 0 59.5523 0 59ZM4 56H14C14.2652 56 14.5196 55.8946 14.7071 55.7071C14.8946 55.5196 15 55.2652 15 55V37C15 36.7348 14.8946 36.4804 14.7071 36.2929C14.5196 36.1054 14.2652 36 14 36H4C3.73478 36 3.48043 36.1054 3.29289 36.2929C3.10536 36.4804 3 36.7348 3 37V55C3 55.2652 3.10536 55.5196 3.29289 55.7071C3.48043 55.8946 3.73478 56 4 56ZM5 39C5 38.4477 5.44772 38 6 38H12C12.5523 38 13 38.4477 13 39V53C13 53.5523 12.5523 54 12 54H6C5.44772 54 5 53.5523 5 53V39ZM18 56H28C28.2652 56 28.5196 55.8946 28.7071 55.7071C28.8946 55.5196 29 55.2652 29 55V13C29 12.7348 28.8946 12.4804 28.7071 12.2929C28.5196 12.1054 28.2652 12 28 12H18C17.7348 12 17.4804 12.1054 17.2929 12.2929C17.1054 12.4804 17 12.7348 17 13V55C17 55.2652 17.1054 55.5196 17.2929 55.7071C17.4804 55.8946 17.7348 56 18 56ZM19 15C19 14.4477 19.4477 14 20 14H26C26.5523 14 27 14.4477 27 15V53C27 53.5523 26.5523 54 26 54H20C19.4477 54 19 53.5523 19 53V15Z" fill="#7B61FF"/>
<path d="M32 56H42C42.2652 56 42.5196 55.8946 42.7071 55.7071C42.8946 55.5196 43 55.2652 43 55V49C43 48.6852 42.8518 48.3889 42.6 48.2C41.9408 47.7056 41 48.176 41 49V53C41 53.5523 40.5523 54 40 54H34C33.4477 54 33 53.5523 33 53V27C33 26.4477 33.4477 26 34 26H40C40.5523 26 41 26.4477 41 27V30.5858C41 31.4767 42.0771 31.9229 42.7071 31.2929C42.8946 31.1054 43 30.851 43 30.5858V25C43 24.7348 42.8946 24.4804 42.7071 24.2929C42.5196 24.1054 42.2652 24 42 24H32C31.7348 24 31.4804 24.1054 31.2929 24.2929C31.1054 24.4804 31 24.7348 31 25V55C31 55.2652 31.1054 55.5196 31.2929 55.7071C31.4804 55.8946 31.7348 56 32 56Z" fill="#7B61FF"/>
<path d="M57 1C57 0.734784 56.8946 0.48043 56.7071 0.292893C56.5196 0.105357 56.2652 0 56 0L46 0C45.7348 0 45.4804 0.105357 45.2929 0.292893C45.1054 0.48043 45 0.734784 45 1V27.0858C45 27.9767 46.0771 28.4229 46.7071 27.7929C46.8946 27.6054 47 27.351 47 27.0858V3C47 2.44772 47.4477 2 48 2H54C54.5523 2 55 2.44772 55 3V28.0858C55 28.351 55.1054 28.6054 55.2929 28.7929C55.9229 29.4229 57 28.9767 57 28.0858V1Z" fill="#7B61FF"/>
<path d="M46 56H56C56.2652 56 56.5196 55.8946 56.7071 55.7071C56.8946 55.5196 57 55.2652 57 55V51C57 50.176 56.0592 49.7056 55.4 50.2C55.1482 50.3889 55 50.6852 55 51V53C55 53.5523 54.5523 54 54 54H48C47.4477 54 47 53.5523 47 53V52C47 51.6852 46.8518 51.3889 46.6 51.2C45.9408 50.7056 45 51.176 45 52V55C45 55.2652 45.1054 55.5196 45.2929 55.7071C45.4804 55.8946 45.7348 56 46 56Z" fill="#7B61FF"/>
<path d="M50 50C48.0222 50 46.0888 49.4135 44.4443 48.3147C42.7998 47.2159 41.5181 45.6541 40.7612 43.8268C40.0043 41.9996 39.8063 39.9889 40.1922 38.0491C40.578 36.1093 41.5304 34.3275 42.9289 32.9289C44.3275 31.5304 46.1093 30.578 48.0491 30.1922C49.9889 29.8063 51.9996 30.0043 53.8268 30.7612C55.6541 31.5181 57.2159 32.7998 58.3147 34.4443C59.4135 36.0888 60 38.0222 60 40C59.9968 42.6512 58.9422 45.1928 57.0675 47.0675C55.1928 48.9422 52.6512 49.9968 50 50ZM50 32.2222C48.4617 32.2222 46.9579 32.6784 45.6789 33.533C44.3999 34.3877 43.403 35.6024 42.8143 37.0236C42.2256 38.4448 42.0716 40.0086 42.3717 41.5174C42.6718 43.0261 43.4125 44.412 44.5003 45.4997C45.588 46.5875 46.9739 47.3282 48.4826 47.6283C49.9914 47.9284 51.5552 47.7744 52.9764 47.1857C54.3976 46.597 55.6124 45.6002 56.467 44.3211C57.3216 43.0421 57.7778 41.5383 57.7778 40C57.7754 37.9379 56.9552 35.961 55.4971 34.5029C54.039 33.0448 52.0621 32.2246 50 32.2222Z" fill="#7B61FF"/>
<path d="M53.046 44.2857C52.7298 44.2857 52.4266 44.1726 52.203 43.9713L46.049 37.5328C45.8318 37.3305 45.7116 37.0594 45.7143 36.778C45.717 36.4967 45.8424 36.2275 46.0635 36.0286C46.2846 35.8296 46.5836 35.7168 46.8963 35.7143C47.2089 35.7119 47.5101 35.82 47.735 36.0155L53.889 42.454C54.0557 42.604 54.1692 42.7952 54.2152 43.0034C54.2612 43.2115 54.2376 43.4272 54.1473 43.6233C54.0571 43.8193 53.9043 43.9869 53.7083 44.1048C53.5123 44.2227 53.2818 44.2857 53.046 44.2857Z" fill="#7B61FF"/>
<path d="M46.9064 44.2857C46.6706 44.2857 46.4401 44.2227 46.2441 44.1048C46.048 43.9869 45.8953 43.8193 45.805 43.6233C45.7148 43.4272 45.6912 43.2115 45.7372 43.0034C45.7832 42.7952 45.8967 42.604 46.0634 42.454L52.2174 36.0155C52.4423 35.82 52.7435 35.7119 53.0561 35.7143C53.3687 35.7168 53.6678 35.8296 53.8889 36.0286C54.1099 36.2275 54.2353 36.4967 54.2381 36.778C54.2408 37.0594 54.1206 37.3305 53.9034 37.5328L47.7494 43.9713C47.5258 44.1726 47.2226 44.2857 46.9064 44.2857Z" fill="#7B61FF"/>
</g>
<defs>
<clipPath id="clip0_2012_25196">
<rect width="60" height="60" fill="white"/>
</clipPath>
</defs>
</svg>
