<svg width="60" height="60" viewBox="0 0 60 60" fill="none" xmlns="http://www.w3.org/2000/svg">
<g clip-path="url(#clip0_2012_25223)">
<path d="M30.0036 59C29.698 59.0002 29.4047 58.8777 29.1883 58.6593L4.90208 34.1116C1.66958 30.6045 -0.0872738 25.9627 0.00333871 21.1683C0.0939512 16.374 2.02492 11.8035 5.38757 8.42402C8.8724 4.94652 13.5711 2.99789 18.4659 3.00021C22.6848 2.97984 26.7739 4.47523 30.0048 7.22002C33.2428 4.49729 37.3194 3.00468 41.5298 3.00021C46.4246 2.99789 51.1233 4.94652 54.6082 8.42402C57.9673 11.7963 59.8993 16.3575 59.9962 21.1441C60.093 25.9308 58.3471 30.5681 55.1271 34.0766L53.8943 35.3284C53.7875 35.4393 53.6599 35.5275 53.5189 35.588C53.378 35.6485 53.2266 35.6799 53.0735 35.6806C52.9204 35.6812 52.7688 35.651 52.6273 35.5918C52.4859 35.5325 52.3576 35.4454 52.2498 35.3354C52.142 35.2254 52.057 35.0948 51.9996 34.9513C51.9422 34.8077 51.9137 34.654 51.9156 34.4992C51.9175 34.3443 51.9499 34.1914 52.0109 34.0493C52.0718 33.9073 52.1601 33.7789 52.2706 33.6718L53.4653 32.4584C56.2672 29.391 57.7824 25.3428 57.6916 21.1672C57.6008 16.9916 55.9111 13.0147 52.9787 10.0748C49.927 7.03306 45.8138 5.32968 41.5298 5.33353C37.5374 5.31973 33.692 6.85648 30.7867 9.62685C30.5735 9.82626 30.2939 9.93702 30.0036 9.93702C29.7133 9.93702 29.4337 9.82626 29.2206 9.62685C26.3116 6.85493 22.4621 5.31817 18.4659 5.33353C14.1819 5.32968 10.0687 7.03306 7.01703 10.0748C4.08103 13.0215 2.39225 17.0075 2.30747 21.1906C2.22268 25.3737 3.74854 29.4263 6.56268 32.4923L7.01703 32.9589L29.9979 56.1837L33.7896 52.343C34.0058 52.124 34.2992 52.0008 34.6052 52.0005C34.9112 52.0003 35.2048 52.1231 35.4213 52.3419C35.6379 52.5606 35.7596 52.8574 35.7599 53.167C35.7601 53.4766 35.6387 53.7736 35.4225 53.9927L30.8097 58.6593C30.5956 58.8754 30.3061 58.9978 30.0036 59Z" fill="#7B61FF"/>
<path d="M43.5 54C41.4233 54 39.3932 53.3842 37.6665 52.2304C35.9398 51.0767 34.594 49.4368 33.7993 47.5182C33.0046 45.5996 32.7966 43.4884 33.2018 41.4516C33.6069 39.4148 34.6069 37.5438 36.0754 36.0754C37.5438 34.6069 39.4148 33.6069 41.4516 33.2018C43.4884 32.7966 45.5996 33.0046 47.5182 33.7993C49.4368 34.594 51.0767 35.9398 52.2304 37.6665C53.3842 39.3932 54 41.4233 54 43.5C53.9966 46.2837 52.8893 48.9525 50.9209 50.9209C48.9525 52.8893 46.2837 53.9966 43.5 54ZM43.5 35.3333C41.8848 35.3333 40.3058 35.8123 38.9628 36.7097C37.6198 37.607 36.5731 38.8825 35.955 40.3748C35.3369 41.867 35.1751 43.5091 35.4903 45.0932C35.8054 46.6774 36.5832 48.1326 37.7253 49.2747C38.8674 50.4168 40.3226 51.1946 41.9068 51.5097C43.4909 51.8249 45.133 51.6631 46.6252 51.045C48.1175 50.4269 49.393 49.3802 50.2903 48.0372C51.1877 46.6942 51.6667 45.1152 51.6667 43.5C51.6642 41.3348 50.803 39.259 49.272 37.728C47.741 36.197 45.6652 35.3358 43.5 35.3333Z" fill="#7B61FF"/>
<path d="M46.8735 48C46.5747 47.9999 46.2881 47.8812 46.0769 47.6699L39.3163 40.9095C39.111 40.697 38.9975 40.4124 39 40.1169C39.0026 39.8215 39.1211 39.5389 39.33 39.33C39.5389 39.1211 39.8215 39.0026 40.117 39C40.4124 38.9975 40.697 39.111 40.9095 39.3163L47.6701 46.0767C47.8276 46.2342 47.9349 46.435 47.9784 46.6535C48.0218 46.8721 47.9995 47.0986 47.9142 47.3044C47.829 47.5103 47.6846 47.6862 47.4993 47.81C47.3141 47.9338 47.0963 48 46.8735 48Z" fill="#7B61FF"/>
<path d="M40.1265 48C39.9037 48 39.6859 47.9338 39.5007 47.81C39.3154 47.6862 39.171 47.5103 39.0858 47.3044C39.0005 47.0986 38.9782 46.8721 39.0216 46.6535C39.0651 46.435 39.1724 46.2342 39.3299 46.0767L46.0905 39.3163C46.303 39.111 46.5876 38.9975 46.883 39C47.1785 39.0026 47.4611 39.1211 47.67 39.33C47.8789 39.5389 47.9974 39.8215 48 40.1169C48.0025 40.4124 47.889 40.697 47.6837 40.9095L40.9231 47.6699C40.7119 47.8812 40.4253 47.9999 40.1265 48Z" fill="#7B61FF"/>
</g>
<defs>
<clipPath id="clip0_2012_25223">
<rect width="60" height="60" fill="white"/>
</clipPath>
</defs>
</svg>
