<svg width="48" height="48" viewBox="0 0 48 48" fill="none" xmlns="http://www.w3.org/2000/svg">
<g clip-path="url(#clip0_735_17337)">
<path d="M41.687 36.5567L40.5743 35.6749C43.5582 31.9096 45.1355 27.3732 45.1355 22.556C45.1355 16.9089 42.9373 11.6007 38.9459 7.60942C34.9544 3.61792 29.6463 1.41972 23.9993 1.41972C19.7404 1.41972 15.6359 2.67968 12.1296 5.0632L11.3314 3.88909C15.0741 1.34476 19.4546 0 23.9993 0C30.0256 0 35.6902 2.34585 39.9499 6.60539C44.2094 10.8649 46.5553 16.5296 46.5553 22.5559C46.5553 27.6965 44.8718 32.5379 41.687 36.5567ZM6.71649 48V37.0393C3.31408 32.9871 1.44336 27.8545 1.44336 22.5559C1.44336 15.9741 4.30722 9.7372 9.30057 5.44444L10.226 6.52106C5.54683 10.5439 2.86308 16.3883 2.86308 22.5559C2.86308 27.6035 4.67483 32.4901 7.96461 36.3156L8.13621 36.5152V45.1774C9.04312 44.3801 10.4511 43.0149 12.1502 40.9392L12.4909 40.5231L12.9836 40.7382C15.712 41.9295 21.0998 43.6922 23.9992 43.6922C29.4543 43.6922 34.6317 41.6216 38.578 37.8616L39.5575 38.8895C35.3459 42.9021 29.8206 45.1118 23.9993 45.1118C21.0318 45.1118 15.925 43.5032 12.9089 42.2493C9.93783 45.8003 7.91236 47.1902 7.82453 47.2497L6.71649 48Z" fill="#DF1F26"/>
<path d="M26.9693 32.3059H21.0297V5.27344H26.9693V32.3059ZM22.4494 30.8861H25.5495V6.69316H22.4494V30.8861ZM23.9995 39.839C22.362 39.839 21.0297 38.5067 21.0297 36.8692C21.0297 35.2316 22.362 33.8995 23.9995 33.8995C25.637 33.8995 26.9693 35.2317 26.9693 36.8692C26.9693 38.5067 25.637 39.839 23.9995 39.839ZM23.9995 35.3191C23.1448 35.3191 22.4494 36.0145 22.4494 36.8691C22.4494 37.7238 23.1448 38.4192 23.9995 38.4192C24.8543 38.4192 25.5495 37.7238 25.5495 36.8691C25.5495 36.0145 24.8542 35.3191 23.9995 35.3191ZM35.7624 36.2319L34.8358 35.1561C38.5091 31.9927 40.6157 27.4003 40.6157 22.5562H42.0354C42.0355 27.8139 39.749 32.7985 35.7624 36.2319ZM7.38309 22.5562H5.96337C5.96337 15.9515 9.56898 9.88195 15.3731 6.71616L16.0529 7.96248C10.7052 10.8794 7.38309 16.4714 7.38309 22.5562ZM5.91992 24.1063H7.42653V25.526H5.91992V24.1063ZM5.91992 27.1195H7.42653V28.5393H5.91992V27.1195ZM40.5724 19.5865H42.079V21.0062H40.5724V19.5865ZM40.5724 16.5732H42.079V17.9929H40.5724V16.5732Z" fill="#DF1F26"/>
</g>
<defs>
<clipPath id="clip0_735_17337">
<rect width="48" height="48" fill="white"/>
</clipPath>
</defs>
</svg>
