<svg width="340" height="52" viewBox="0 0 340 52" fill="none" xmlns="http://www.w3.org/2000/svg">
<g clip-path="url(#clip0_834_2502)">
<path d="M112.935 29.6492C110.978 30.8399 110.004 32.5395 109.989 34.7224V47.252H115.355V28.1425L112.935 29.6492Z" fill="#93C227"/>
<path d="M145.984 22.9296L145.434 24.1589C143.692 25.1041 141.736 25.5856 139.755 25.5572C135.571 25.5572 132.711 24.0462 131.173 21.0242C130.457 19.6172 130.09 18.0578 130.103 16.4783C130.103 13.8434 130.976 11.742 132.723 10.174C134.511 8.55826 136.953 7.75039 140.05 7.75039C142.019 7.75166 143.97 8.11538 145.808 8.82346L145.964 9.00721C145.67 10.2861 145.501 11.5908 145.46 12.9026L145.352 13.0221H144.643L144.522 12.8898C144.519 12.2139 144.475 11.5389 144.39 10.8686C143.389 9.73545 141.942 9.16891 140.05 9.16891C138.104 9.16891 136.577 9.78752 135.471 11.0247C134.364 12.262 133.815 13.942 133.822 16.0649C133.822 18.9338 134.807 21.1356 136.779 22.6705C137.828 23.49 139.232 23.9004 140.992 23.9016C142.637 23.89 144.253 23.4628 145.691 22.6595L145.984 22.9296Z" fill="black"/>
<path d="M166.129 16.1292C166.129 19.0948 165.268 21.4223 163.544 23.1115C161.87 24.7505 159.583 25.5706 156.682 25.5719C153.942 25.5719 151.79 24.7977 150.228 23.2493C148.666 21.701 147.885 19.5493 147.884 16.7943C147.884 12.9283 149.354 10.2518 152.295 8.76467C153.638 8.08971 155.287 7.75223 157.241 7.75223C160.036 7.75223 162.212 8.48721 163.768 9.95718C165.341 11.4516 166.128 13.509 166.129 16.1292ZM162.427 16.7558C162.427 14.4283 161.96 12.578 161.027 11.2048C160.094 9.83162 158.726 9.14625 156.922 9.1487C154.543 9.1487 152.965 10.2218 152.187 12.3679C151.771 13.5565 151.568 14.8092 151.586 16.0686C151.586 18.5528 152.043 20.5127 152.956 21.9484C153.901 23.4343 155.316 24.1779 157.199 24.1791C159.482 24.1791 161.017 23.0497 161.802 20.7908C162.235 19.4905 162.446 18.1264 162.427 16.7558Z" fill="black"/>
<path d="M186.971 8.95576L186.839 9.07703C186.369 9.09219 185.9 9.13206 185.434 9.19646C185.328 9.21939 185.231 9.2746 185.158 9.35453C185.085 9.43445 185.038 9.5352 185.023 9.64297C184.921 10.2212 184.869 11.4669 184.868 13.3804V18.2753C184.868 21.8841 184.92 24.2348 185.023 25.3275L184.868 25.4359C183.963 25.284 183.278 25.1756 182.812 25.1107C180.665 22.6926 177.001 18.2827 171.821 11.881V19.7655C171.821 21.6789 171.873 22.9247 171.977 23.5029C171.99 23.6105 172.037 23.7112 172.11 23.7912C172.183 23.8711 172.279 23.9264 172.385 23.9494C172.852 24.0136 173.321 24.0535 173.792 24.0688L173.911 24.1901V25.0096L173.792 25.118C172.87 25.0702 172.015 25.0464 171.227 25.0464C170.304 25.0464 169.378 25.0702 168.45 25.118L168.329 25.0096V24.1901L168.45 24.0688C168.921 24.0535 169.39 24.0136 169.857 23.9494C169.963 23.9261 170.059 23.8708 170.132 23.7909C170.205 23.711 170.252 23.6104 170.266 23.5029C170.368 22.9247 170.42 21.6789 170.421 19.7655V13.3804C170.421 11.4682 170.369 10.2224 170.266 9.64297C170.252 9.53544 170.205 9.43488 170.132 9.35498C170.059 9.27508 169.963 9.21972 169.857 9.19646C169.39 9.13222 168.921 9.09235 168.45 9.07703L168.329 8.95576V8.13625L168.45 8.02784C169.21 8.07562 169.935 8.0995 170.625 8.0995C171.708 8.0995 172.606 8.07562 173.318 8.02784C176.203 11.8865 179.593 16.0214 183.486 20.4325V13.3804C183.486 11.4682 183.434 10.2224 183.331 9.64297C183.317 9.53535 183.27 9.43465 183.197 9.3547C183.124 9.27475 183.028 9.21948 182.922 9.19646C182.456 9.13222 181.986 9.09235 181.515 9.07703L181.394 8.95576V8.13625L181.515 8.02784C182.413 8.07562 183.268 8.0995 184.08 8.0995C185.113 8.0995 186.042 8.07562 186.868 8.02784L186.987 8.13625L186.971 8.95576Z" fill="black"/>
<path d="M201.509 19.477C201.529 20.7394 201.131 21.9729 200.378 22.9847C199.719 23.8774 198.824 24.5667 197.794 24.9747C196.678 25.4006 195.49 25.6053 194.296 25.5774C192.582 25.569 190.891 25.1733 189.35 24.4198L189.206 24.1534C189.429 23.2297 189.541 21.9159 189.543 20.212L189.662 20.0907H190.431L190.539 20.212V20.4895C190.55 21.0866 190.599 21.6825 190.684 22.2736C190.972 22.7881 191.489 23.2303 192.234 23.6003C192.988 23.9792 193.819 24.1768 194.663 24.1772C196.25 24.1772 197.35 23.626 197.96 22.5235C198.265 21.9825 198.427 21.372 198.429 20.7504C198.429 19.7239 198.002 18.9889 197.147 18.5454C196.722 18.3286 196.037 18.1449 195.092 17.9942C192.952 17.6647 191.547 17.2513 190.878 16.7539C189.861 15.9981 189.352 14.8283 189.352 13.2444C189.352 11.598 189.902 10.2842 191.001 9.30304C192.172 8.27407 193.799 7.75958 195.881 7.75958C197.757 7.75958 199.272 8.06092 200.426 8.6636L200.508 8.95393C200.297 10.0913 200.181 11.2443 200.16 12.401L200.028 12.5223H199.272L199.151 12.401C199.152 11.7724 199.111 11.1445 199.03 10.5213C198.786 10.1428 198.354 9.8212 197.733 9.55661C197.082 9.2845 196.383 9.1452 195.678 9.14686C194.604 9.14686 193.755 9.43166 193.13 10.0013C192.841 10.2644 192.614 10.5872 192.462 10.9473C192.311 11.3074 192.239 11.6962 192.252 12.0868C192.252 13.0129 192.584 13.6921 193.249 14.1245C193.682 14.4063 194.704 14.6758 196.313 14.933C196.482 14.9563 196.951 15.0365 197.72 15.1737C198.167 15.2472 198.606 15.3641 199.03 15.5228C199.776 15.7775 200.419 16.269 200.862 16.923C201.293 17.5992 201.509 18.4505 201.509 19.477Z" fill="black"/>
<path d="M218.728 8.0995C218.632 8.70733 218.58 9.32147 218.573 9.93696L218.549 11.9582L218.428 12.0776H217.671L217.54 11.9692C217.535 11.3643 217.491 10.7603 217.408 10.1611C217.311 9.84018 217.055 9.65154 216.638 9.59519C216.477 9.57069 215.724 9.55844 214.378 9.55844H212.767C212.75 9.84018 212.742 10.9574 212.744 12.91V19.7582C212.744 21.6716 212.796 22.9174 212.899 23.4955C212.913 23.6032 212.96 23.7039 213.033 23.7838C213.106 23.8638 213.202 23.919 213.308 23.942C213.774 24.0063 214.244 24.0462 214.715 24.0615L214.836 24.1828V24.9894L214.715 25.1088C213.922 25.0611 212.688 25.0372 211.012 25.0372C209.303 25.0372 208.069 25.0611 207.31 25.1088L207.202 25.0004V24.1809L207.323 24.0596C207.793 24.0445 208.262 24.0046 208.728 23.9402C208.834 23.9174 208.93 23.8622 209.003 23.7823C209.076 23.7023 209.123 23.6014 209.137 23.4937C209.242 22.9155 209.294 21.6697 209.294 19.7563V12.91C209.294 10.9255 209.282 9.80834 209.258 9.55844H207.539C206.104 9.55844 205.267 9.60254 205.028 9.69074C204.922 9.72299 204.83 9.78718 204.762 9.87448C204.659 10.12 204.598 10.3807 204.579 10.6462C204.521 11.0821 204.485 11.5205 204.471 11.96L204.35 12.0794H203.593L203.461 11.96L203.436 9.89837C203.427 9.29691 203.379 8.69665 203.293 8.10134L203.401 7.98191C203.874 8.06153 205.596 8.10134 208.569 8.10134H213.436C216.177 8.10134 217.9 8.06153 218.606 7.98191L218.728 8.0995Z" fill="black"/>
<path d="M236.445 24.9894L236.324 25.1088L235.868 25.0978C234.769 25.0574 234.083 25.0372 233.812 25.0372C233.404 25.0372 232.753 25.0611 231.865 25.1088C231.764 24.765 231.61 24.4394 231.407 24.1442L228.427 19.1536L227.093 17.1159C226.895 16.8364 226.656 16.5886 226.384 16.3809L226.516 15.9712C226.699 15.9712 226.836 15.9822 226.924 15.9822C227.71 15.9822 228.327 15.8597 228.776 15.6147C229.248 15.3253 229.637 14.9182 229.905 14.4332C230.263 13.8215 230.442 13.121 230.421 12.412C230.421 11.0547 229.917 10.136 228.908 9.65583C228.427 9.43166 227.727 9.31774 226.803 9.31774C226.417 9.31689 226.032 9.34947 225.651 9.41512C225.571 10.2028 225.53 11.5447 225.53 13.441V19.7471C225.53 21.6605 225.582 22.9063 225.686 23.4845C225.7 23.592 225.747 23.6926 225.82 23.7725C225.893 23.8524 225.989 23.9078 226.095 23.931C226.561 23.9953 227.031 24.0351 227.501 24.0505L227.622 24.1717V24.9894L227.514 25.1088C226.712 25.0611 225.478 25.0372 223.812 25.0372C222.088 25.0372 220.853 25.0611 220.11 25.1088L219.989 25.0004V24.1809L220.11 24.0596C220.58 24.0443 221.05 24.0045 221.517 23.9402C221.622 23.9169 221.718 23.8616 221.791 23.7817C221.864 23.7018 221.911 23.6012 221.925 23.4937C222.028 22.9155 222.08 21.6697 222.081 19.7563V13.3804C222.081 11.4682 222.029 10.2224 221.925 9.64297C221.911 9.53544 221.864 9.43488 221.791 9.35498C221.718 9.27508 221.622 9.21973 221.517 9.19646C221.05 9.13222 220.58 9.09235 220.11 9.07703L219.989 8.95576V8.13625L220.11 8.02784C220.895 8.07562 222.129 8.0995 223.812 8.0995C224.789 8.0995 225.583 8.08787 226.193 8.0646C227.402 8.0156 228.308 7.99109 228.91 7.99109C230.295 7.99109 231.312 8.11359 231.962 8.35858C232.363 8.49502 232.728 8.71935 233.032 9.01526C233.336 9.31118 233.57 9.67124 233.717 10.0693C233.87 10.519 233.944 10.9923 233.933 11.4676C233.933 13.6541 232.708 15.2056 230.257 16.1218C230.656 16.798 231.08 17.4809 231.53 18.1706L233.384 21.0352C234.472 22.7232 235.197 23.6842 235.558 23.9182C235.792 24.0516 236.059 24.1153 236.327 24.1019L236.448 24.2232L236.445 24.9894Z" fill="black"/>
<path d="M255.302 8.95576L255.183 9.07703C254.236 9.07703 253.705 9.32876 253.584 9.8359C253.491 10.444 253.443 11.0581 253.439 11.6734C253.415 12.374 253.403 13.3828 253.404 14.6996V18.4131C253.404 20.8006 252.935 22.5045 251.998 23.5249C250.756 24.8724 248.985 25.5462 246.685 25.5462C244.586 25.5462 242.947 25.197 241.768 24.4988C241.294 24.226 240.877 23.8619 240.543 23.4274C240.209 22.9929 239.963 22.4966 239.821 21.9668C239.628 21.2673 239.532 19.4427 239.533 16.493V13.3804C239.533 11.4682 239.481 10.2224 239.378 9.64297C239.364 9.53544 239.317 9.43488 239.244 9.35498C239.171 9.27508 239.075 9.21973 238.969 9.19646C238.502 9.13222 238.033 9.09235 237.562 9.07703L237.441 8.95576V8.14728L237.562 8.02784C238.332 8.07562 239.566 8.0995 241.264 8.0995C242.996 8.0995 244.226 8.07562 244.954 8.02784L245.075 8.14728V8.95576L244.954 9.07703C244.483 9.09235 244.014 9.13222 243.547 9.19646C243.441 9.21948 243.345 9.27475 243.272 9.3547C243.199 9.43465 243.152 9.53535 243.138 9.64297C243.033 10.2212 242.982 11.4669 242.983 13.3804V15.8646C242.983 18.9025 243.119 20.7633 243.391 21.4468C243.937 22.7943 245.281 23.468 247.421 23.468C248.825 23.468 249.918 23.1225 250.702 22.4317C251.029 22.1587 251.292 21.8168 251.472 21.4302C251.654 20.9254 251.767 20.3982 251.809 19.8629C251.881 19.1983 251.917 18.5304 251.917 17.8619V15.3575C251.917 13.2517 251.909 11.813 251.893 11.0413C251.877 10.3198 251.829 9.84999 251.748 9.63194C251.707 9.54515 251.649 9.46774 251.577 9.40453C251.504 9.34131 251.42 9.29364 251.329 9.26445C251.144 9.19341 250.652 9.13216 249.851 9.08071L249.73 8.95944V8.15095L249.851 8.03152C250.547 8.07929 251.264 8.10318 252.001 8.10318C252.554 8.10318 253.616 8.07929 255.187 8.03152L255.306 8.15095L255.302 8.95576Z" fill="black"/>
<path d="M272.953 22.9296L272.403 24.1589C270.66 25.1039 268.705 25.5853 266.724 25.5572C262.54 25.5572 259.679 24.0462 258.142 21.0242C257.426 19.6172 257.059 18.0578 257.072 16.4783C257.072 13.8434 257.945 11.742 259.691 10.174C261.479 8.55826 263.922 7.75039 267.019 7.75039C268.985 7.75139 270.934 8.11384 272.769 8.81979L272.925 9.00354C272.63 10.2823 272.462 11.587 272.421 12.8989L272.313 13.0184H271.602L271.483 12.8861C271.481 12.2103 271.437 11.5353 271.351 10.8649C270.35 9.73178 268.903 9.16523 267.012 9.16523C265.065 9.16523 263.538 9.78384 262.432 11.0211C261.326 12.2583 260.776 13.9383 260.783 16.0612C260.783 18.9301 261.769 21.132 263.74 22.6669C264.79 23.4864 266.195 23.8967 267.953 23.898C269.599 23.8863 271.215 23.4591 272.652 22.6558L272.953 22.9296Z" fill="black"/>
<path d="M289.643 8.0995C289.545 8.70722 289.493 9.32143 289.487 9.93696L289.463 11.9582L289.343 12.0776H288.586L288.452 11.9692C288.412 10.9421 288.37 10.3375 288.32 10.1611C288.225 9.84018 287.969 9.65154 287.551 9.59519C287.391 9.57069 286.638 9.55844 285.292 9.55844H283.682C283.666 9.84018 283.658 10.9574 283.656 12.91V19.7582C283.656 21.6716 283.709 22.9174 283.814 23.4955C283.828 23.6032 283.874 23.7039 283.947 23.7838C284.021 23.8638 284.117 23.919 284.222 23.942C284.689 24.0065 285.159 24.0464 285.629 24.0615L285.748 24.1828V24.9894L285.629 25.1088C284.835 25.0611 283.601 25.0372 281.927 25.0372C280.21 25.0372 278.976 25.0611 278.225 25.1088L278.117 25.0004V24.1809L278.236 24.0596C278.706 24.0443 279.176 24.0045 279.643 23.9402C279.748 23.9172 279.844 23.8619 279.918 23.782C279.991 23.702 280.037 23.6013 280.051 23.4937C280.156 22.9155 280.208 21.6697 280.207 19.7563V12.91C280.207 10.9255 280.195 9.80834 280.172 9.55844H278.448C277.014 9.55844 276.177 9.60254 275.937 9.69074C275.832 9.723 275.74 9.78723 275.673 9.87448C275.57 10.1199 275.508 10.3806 275.49 10.6462C275.435 11.0725 275.399 11.5104 275.382 11.96L275.263 12.0794H274.504L274.372 11.96L274.348 9.89837C274.339 9.29687 274.29 8.69662 274.204 8.10134L274.312 7.98191C274.784 8.06153 276.508 8.10134 279.481 8.10134H284.349C287.089 8.10134 288.812 8.06153 289.517 7.98191L289.643 8.0995Z" fill="black"/>
<path d="M298.742 24.9894L298.634 25.1088C297.832 25.0611 296.593 25.0372 294.919 25.0372C293.245 25.0372 292.011 25.0611 291.218 25.1088L291.109 24.9894V24.1809L291.229 24.0596C291.7 24.0443 292.17 24.0045 292.636 23.9402C292.742 23.9172 292.838 23.8619 292.911 23.782C292.984 23.702 293.031 23.6013 293.045 23.4937C293.149 22.9155 293.201 21.6697 293.201 19.7563V13.3804C293.201 11.4682 293.149 10.2224 293.045 9.64297C293.031 9.53535 292.984 9.43465 292.911 9.3547C292.838 9.27475 292.742 9.21948 292.636 9.19646C292.17 9.13222 291.7 9.09235 291.229 9.07703L291.109 8.95576V8.13625L291.229 8.02784C291.999 8.07562 293.233 8.0995 294.932 8.0995C296.63 8.0995 297.86 8.07562 298.621 8.02784L298.742 8.13625V8.95576L298.621 9.07703C298.151 9.09219 297.682 9.13206 297.216 9.19646C297.11 9.21939 297.014 9.2746 296.94 9.35453C296.867 9.43445 296.82 9.5352 296.806 9.64297C296.703 10.2212 296.651 11.4669 296.65 13.3804V19.7582C296.65 21.6716 296.702 22.9174 296.806 23.4955C296.82 23.6033 296.867 23.7041 296.94 23.784C297.014 23.8639 297.11 23.9191 297.216 23.942C297.682 24.0065 298.151 24.0463 298.621 24.0615L298.742 24.1828V24.9894Z" fill="black"/>
<path d="M319.091 16.1292C319.091 19.0948 318.229 21.4223 316.506 23.1115C314.832 24.7505 312.544 25.5706 309.644 25.5719C306.903 25.5719 304.752 24.7977 303.19 23.2493C301.628 21.701 300.846 19.5493 300.845 16.7943C300.845 12.9283 302.315 10.2518 305.256 8.76467C306.6 8.08971 308.248 7.75223 310.202 7.75223C312.998 7.75223 315.174 8.48721 316.729 9.95718C318.304 11.4516 319.091 13.509 319.091 16.1292ZM315.389 16.7558C315.389 14.4283 314.922 12.578 313.989 11.2048C313.056 9.83162 311.687 9.14625 309.884 9.1487C307.503 9.1487 305.925 10.2218 305.148 12.3679C304.733 13.5565 304.529 14.8092 304.547 16.0686C304.547 18.5528 305.004 20.5127 305.918 21.9484C306.863 23.4343 308.277 24.1779 310.16 24.1791C312.445 24.1791 313.98 23.0497 314.764 20.7908C315.196 19.4905 315.407 18.1264 315.389 16.7558Z" fill="black"/>
<path d="M339.932 8.95576L339.8 9.07703C339.33 9.09219 338.861 9.13206 338.395 9.19646C338.289 9.21939 338.193 9.2746 338.12 9.35453C338.046 9.43445 337.999 9.5352 337.985 9.64297C337.882 10.2212 337.83 11.4669 337.829 13.3804V18.2753C337.829 21.8841 337.881 24.2348 337.985 25.3275L337.829 25.4359C336.924 25.284 336.239 25.1756 335.774 25.1107C333.627 22.6926 329.963 18.2827 324.782 11.881V19.7655C324.782 21.6789 324.834 22.9247 324.938 23.5029C324.952 23.6105 324.999 23.7112 325.072 23.7912C325.145 23.8711 325.241 23.9264 325.347 23.9494C325.813 24.0136 326.283 24.0535 326.754 24.0688L326.873 24.1901V25.0096L326.754 25.118C325.833 25.0702 324.978 25.0464 324.189 25.0464C323.266 25.0464 322.34 25.0702 321.412 25.118L321.291 25.0096V24.1901L321.412 24.0688C321.883 24.0535 322.352 24.0136 322.819 23.9494C322.924 23.9261 323.02 23.8708 323.093 23.7909C323.166 23.711 323.213 23.6104 323.227 23.5029C323.33 22.9247 323.382 21.6789 323.383 19.7655V13.3804C323.383 11.4682 323.331 10.2224 323.227 9.64297C323.213 9.53544 323.166 9.43488 323.093 9.35498C323.02 9.27508 322.924 9.21972 322.819 9.19646C322.352 9.13222 321.883 9.09235 321.412 9.07703L321.291 8.95576V8.13625L321.412 8.02784C322.171 8.07562 322.896 8.0995 323.586 8.0995C324.67 8.0995 325.567 8.07562 326.279 8.02784C329.165 11.8865 332.555 16.0214 336.448 20.4325V13.3804C336.448 11.4682 336.396 10.2224 336.292 9.64297C336.278 9.53535 336.232 9.43465 336.159 9.3547C336.086 9.27475 335.99 9.21948 335.884 9.19646C335.417 9.13222 334.948 9.09235 334.477 9.07703L334.356 8.95576V8.13625L334.477 8.02784C335.375 8.07562 336.229 8.0995 337.042 8.0995C338.075 8.0995 339.004 8.07562 339.83 8.02784L339.949 8.13625L339.932 8.95576Z" fill="black"/>
<path d="M139.647 41.5724C139.662 42.4401 139.388 43.288 138.871 43.9832C138.419 44.5971 137.803 45.0709 137.095 45.3502C136.328 45.6435 135.511 45.7845 134.69 45.7655C133.511 45.7596 132.348 45.4877 131.288 44.9699L131.189 44.7861C131.367 43.8949 131.445 42.9864 131.42 42.0777L131.503 41.9951H132.032L132.105 42.0777V42.2615C132.113 42.6717 132.146 43.081 132.204 43.4871C132.459 43.8939 132.831 44.2141 133.27 44.4058C133.788 44.6665 134.36 44.8024 134.939 44.8027C136.029 44.8027 136.783 44.4217 137.202 43.6598C137.411 43.288 137.522 42.8686 137.524 42.4416C137.543 42.1295 137.47 41.8188 137.312 41.5489C137.155 41.279 136.922 41.062 136.641 40.9256C136.19 40.7357 135.715 40.6119 135.229 40.5582C133.763 40.3315 132.797 40.0474 132.329 39.7056C131.629 39.1862 131.279 38.3826 131.279 37.2948C131.279 36.163 131.66 35.2595 132.42 34.5846C133.223 33.879 134.34 33.5256 135.773 33.5244C137.063 33.5244 138.104 33.7314 138.896 34.1454L138.953 34.3457C138.808 35.1272 138.727 35.9194 138.713 36.7142L138.623 36.7969H138.103L138.021 36.7142C138.021 36.2841 137.993 35.8545 137.938 35.428C137.711 35.1249 137.401 34.8945 137.046 34.7647C136.598 34.5782 136.118 34.4826 135.634 34.4835C134.901 34.4835 134.317 34.6795 133.882 35.0715C133.684 35.2521 133.527 35.4739 133.423 35.7214C133.318 35.9688 133.269 36.2362 133.278 36.5047C133.278 37.1405 133.507 37.6072 133.965 37.9049C134.262 38.0972 134.964 38.2809 136.071 38.4561C136.187 38.4726 136.507 38.5278 137.037 38.6215C137.344 38.6724 137.646 38.753 137.938 38.8622C138.449 39.0377 138.89 39.375 139.193 39.8232C139.51 40.3498 139.668 40.9575 139.647 41.5724V41.5724Z" fill="black"/>
<path d="M153.846 39.2775C153.846 41.3146 153.254 42.9138 152.069 44.0751C150.919 45.202 149.347 45.7655 147.354 45.7655C145.471 45.7655 143.993 45.2333 142.919 44.1688C141.846 43.1043 141.308 41.6257 141.307 39.7331C141.307 37.0762 142.318 35.2387 144.339 34.2208C145.258 33.7553 146.39 33.5232 147.733 33.5244C149.654 33.5244 151.15 34.0297 152.22 35.0403C153.289 36.0509 153.832 37.4633 153.846 39.2775ZM151.302 39.7074C151.302 38.1064 150.981 36.8349 150.34 35.8929C149.699 34.9509 148.759 34.4799 147.519 34.4799C145.884 34.4799 144.799 35.2149 144.264 36.6848C143.979 37.5017 143.839 38.3625 143.852 39.2278C143.852 40.9355 144.165 42.2829 144.793 43.2703C145.444 44.2919 146.416 44.8027 147.709 44.8027C149.278 44.8027 150.332 44.0267 150.873 42.4746C151.169 41.5828 151.314 40.6474 151.302 39.7074V39.7074Z" fill="black"/>
<path d="M164.246 42.629C164.117 43.5345 164.056 44.4484 164.063 45.3631L163.98 45.4458L157.975 45.3962C156.974 45.3962 156.267 45.4127 155.854 45.4458L155.77 45.3631V45.1316L155.812 45.0324C156.219 44.7715 156.44 44.6098 156.473 44.5436C156.522 44.4444 156.552 44.0769 156.563 43.4411L156.589 41.5853V37.3885C156.589 36.0754 156.553 35.2179 156.481 34.8161C156.47 34.7425 156.438 34.6738 156.388 34.6191C156.338 34.5643 156.272 34.526 156.2 34.5093C155.88 34.4645 155.557 34.4369 155.233 34.4266L155.151 34.3439V33.7816L155.233 33.7063C155.801 33.7394 156.633 33.7559 157.728 33.7559C158.863 33.7559 159.724 33.7394 160.313 33.7063L160.395 33.7816V34.3604L160.313 34.4339C159.99 34.4443 159.668 34.4719 159.348 34.5166C159.275 34.533 159.209 34.5712 159.159 34.626C159.108 34.6808 159.076 34.7497 159.065 34.8235C158.995 35.2216 158.959 36.0791 158.959 37.3959V42.357C158.959 43.081 158.973 43.7829 158.999 44.4628H160.124C161.73 44.4628 162.716 44.4015 163.081 44.279C163.133 44.2626 163.179 44.2305 163.213 44.1871C163.294 44.0325 163.348 43.8645 163.37 43.691L163.568 42.6639L163.651 42.572H164.154L164.246 42.629Z" fill="black"/>
<path d="M177.593 34.3476L177.511 34.4302C176.861 34.4302 176.495 34.6042 176.412 34.9521C176.348 35.3692 176.315 35.7905 176.313 36.2126C176.296 36.6928 176.288 37.3855 176.289 38.2907V40.843C176.289 42.4844 175.966 43.6555 175.322 44.3562C174.467 45.2847 173.25 45.7483 171.671 45.7471C170.23 45.7471 169.104 45.507 168.293 45.0268C167.966 44.8399 167.68 44.5899 167.45 44.2912C167.221 43.9925 167.053 43.6511 166.955 43.2868C166.821 42.8066 166.754 41.5528 166.756 39.5255V37.3885C166.756 36.0754 166.72 35.2179 166.649 34.8161C166.639 34.7423 166.606 34.6734 166.556 34.6186C166.506 34.5638 166.44 34.5257 166.367 34.5092C166.047 34.4645 165.725 34.4369 165.402 34.4266L165.319 34.3439V33.7926L165.402 33.71C165.93 33.743 166.778 33.7596 167.946 33.7596C169.136 33.7596 169.981 33.743 170.482 33.71L170.564 33.7926V34.3439L170.482 34.4266C170.158 34.4368 169.835 34.4645 169.515 34.5092C169.442 34.526 169.377 34.5643 169.327 34.619C169.277 34.6738 169.245 34.7425 169.234 34.8161C169.163 35.2142 169.127 36.0717 169.126 37.3885V39.0955C169.126 41.178 169.22 42.4562 169.408 42.9303C169.782 43.8588 170.704 44.3231 172.174 44.3231C173.138 44.3231 173.89 44.0855 174.43 43.6102C174.654 43.4223 174.834 43.1878 174.959 42.923C175.084 42.5761 175.161 42.2139 175.19 41.8462C175.24 41.3892 175.265 40.9297 175.265 40.47V38.7464C175.265 37.301 175.259 36.3124 175.248 35.7808C175.257 35.455 175.223 35.1295 175.148 34.8124C175.12 34.752 175.08 34.698 175.031 34.6537C174.981 34.6094 174.923 34.5759 174.86 34.5552C174.527 34.4764 174.186 34.4345 173.843 34.4302L173.761 34.3476V33.7963L173.843 33.7136C174.323 33.7467 174.816 33.7632 175.322 33.7632C175.7 33.7632 176.433 33.7467 177.52 33.7136L177.602 33.7963L177.593 34.3476Z" fill="black"/>
<path d="M188.975 33.7596C188.908 34.179 188.873 34.6028 188.869 35.0274L188.852 36.411L188.77 36.4937H188.249L188.158 36.4184C188.155 36.0028 188.124 35.5878 188.066 35.1763C188.029 35.0645 187.959 34.9669 187.864 34.8971C187.77 34.8274 187.656 34.7888 187.539 34.7867C187.429 34.7696 186.911 34.7616 185.985 34.7628H184.886C184.875 34.9551 184.87 35.7226 184.87 37.0652V41.7709C184.87 43.0865 184.906 43.944 184.978 44.3433C184.988 44.4169 185.02 44.4856 185.07 44.5404C185.12 44.5952 185.186 44.6334 185.258 44.6502C185.578 44.6949 185.9 44.7225 186.223 44.7329L186.308 44.8156V45.3668L186.223 45.4495C185.68 45.4164 184.832 45.3999 183.681 45.3999C182.501 45.3999 181.653 45.4164 181.136 45.4495L181.061 45.376V44.8119L181.143 44.7292C181.467 44.7189 181.79 44.6913 182.111 44.6465C182.183 44.6298 182.248 44.5915 182.298 44.5367C182.348 44.4819 182.381 44.4132 182.391 44.3396C182.463 43.9428 182.499 43.0853 182.499 41.7672V37.0652C182.499 35.7018 182.49 34.9343 182.473 34.7628H181.294C180.307 34.7628 179.731 34.7928 179.566 34.8529C179.494 34.8746 179.43 34.9182 179.383 34.9778C179.313 35.1461 179.271 35.3249 179.258 35.507C179.22 35.801 179.196 36.1023 179.185 36.411L179.103 36.4937H178.582L178.491 36.411L178.474 34.9943C178.468 34.5811 178.435 34.1686 178.375 33.7596L178.451 33.6769C178.774 33.732 179.958 33.7596 182.001 33.7596H185.348C187.231 33.7596 188.414 33.732 188.898 33.6769L188.975 33.7596Z" fill="black"/>
<path d="M195.229 45.3668L195.154 45.4495C194.604 45.4164 193.754 45.3999 192.602 45.3999C191.45 45.3999 190.602 45.4164 190.057 45.4495L189.984 45.3668V44.8156L190.067 44.7329C190.39 44.7225 190.712 44.6949 191.032 44.6502C191.104 44.6338 191.17 44.5956 191.221 44.5408C191.271 44.486 191.304 44.4171 191.314 44.3433C191.386 43.9464 191.422 43.089 191.42 41.7709V37.3885C191.42 36.0754 191.385 35.2179 191.314 34.8161C191.304 34.7423 191.271 34.6734 191.221 34.6186C191.17 34.5638 191.104 34.5257 191.032 34.5093C190.712 34.4645 190.39 34.4369 190.067 34.4266L189.984 34.3439V33.7816L190.067 33.7063C190.594 33.7394 191.442 33.7559 192.609 33.7559C193.777 33.7559 194.623 33.7394 195.146 33.7063L195.229 33.7816V34.3439L195.146 34.4266C194.823 34.4369 194.5 34.4645 194.179 34.5093C194.107 34.526 194.042 34.5643 193.992 34.6191C193.942 34.6738 193.909 34.7425 193.899 34.8161C193.827 35.2142 193.791 36.0717 193.791 37.3885V41.7709C193.791 43.0865 193.827 43.944 193.899 44.3433C193.909 44.4171 193.942 44.486 193.992 44.5408C194.043 44.5956 194.109 44.6338 194.181 44.6502C194.502 44.695 194.825 44.7226 195.148 44.7329L195.231 44.8156L195.229 45.3668Z" fill="black"/>
<path d="M209.212 39.2775C209.212 41.3146 208.62 42.9138 207.437 44.0751C206.286 45.202 204.714 45.7655 202.719 45.7655C200.836 45.7655 199.358 45.2333 198.284 44.1688C197.211 43.1043 196.674 41.6257 196.674 39.7331C196.674 37.0762 197.685 35.2387 199.706 34.2208C200.626 33.7553 201.757 33.5232 203.101 33.5244C205.023 33.5244 206.518 34.0297 207.585 35.0403C208.652 36.0509 209.195 37.4633 209.212 39.2775ZM206.669 39.7074C206.669 38.1064 206.348 36.8349 205.705 35.8929C205.063 34.9509 204.123 34.4799 202.886 34.4799C201.251 34.4799 200.166 35.2149 199.631 36.6848C199.346 37.5017 199.207 38.3625 199.219 39.2278C199.219 40.9355 199.533 42.2829 200.16 43.2703C200.809 44.2919 201.78 44.8027 203.075 44.8027C204.644 44.8027 205.699 44.0267 206.239 42.4746C206.535 41.5829 206.681 40.6475 206.669 39.7074V39.7074Z" fill="black"/>
<path d="M223.535 34.3476L223.444 34.4302C223.121 34.4406 222.798 34.4682 222.478 34.5129C222.406 34.5297 222.341 34.568 222.291 34.6227C222.241 34.6775 222.208 34.7462 222.198 34.8198C222.125 35.2179 222.089 36.0754 222.09 37.3922V40.7566C222.09 43.2359 222.126 44.8511 222.198 45.602L222.09 45.6773C221.467 45.572 220.996 45.4972 220.678 45.4531C219.201 43.7896 216.682 40.7572 213.119 36.3559V41.7746C213.119 43.0902 213.155 43.9477 213.227 44.347C213.238 44.4206 213.27 44.4893 213.32 44.5441C213.37 44.5988 213.435 44.6371 213.508 44.6539C213.828 44.6987 214.151 44.7262 214.475 44.7365L214.557 44.8192V45.3852L214.475 45.4587C213.841 45.4256 213.252 45.409 212.707 45.409C212.073 45.409 211.437 45.4256 210.798 45.4587L210.716 45.3852V44.8211L210.798 44.7384C211.122 44.7263 211.446 44.6969 211.767 44.6502C211.839 44.6334 211.905 44.5952 211.955 44.5404C212.005 44.4856 212.037 44.4169 212.047 44.3433C212.12 43.9464 212.156 43.089 212.156 41.7709V37.3885C212.156 36.0754 212.12 35.2179 212.047 34.8161C212.037 34.7425 212.005 34.6738 211.955 34.6191C211.905 34.5643 211.839 34.526 211.767 34.5093C211.446 34.4645 211.124 34.4369 210.8 34.4266L210.718 34.3439V33.7816L210.8 33.7063C211.324 33.7394 211.822 33.7559 212.295 33.7559C213.039 33.7559 213.655 33.7394 214.145 33.7063C216.127 36.3571 218.457 39.1991 221.134 42.2321V37.3885C221.134 36.0754 221.098 35.2179 221.026 34.8161C221.015 34.7425 220.983 34.6738 220.933 34.6191C220.883 34.5643 220.817 34.526 220.745 34.5093C220.425 34.4645 220.102 34.4369 219.778 34.4266L219.696 34.3439V33.7816L219.778 33.7063C220.395 33.7394 220.982 33.7559 221.539 33.7559C222.249 33.7559 222.887 33.7394 223.455 33.7063L223.537 33.7816L223.535 34.3476Z" fill="black"/>
<path d="M233.53 41.5724C233.544 42.44 233.271 43.2876 232.753 43.9832C232.301 44.5968 231.686 45.0705 230.978 45.3502C230.211 45.6435 229.394 45.7845 228.573 45.7655C227.394 45.7596 226.231 45.4877 225.171 44.9699L225.072 44.7861C225.25 43.8949 225.328 42.9864 225.303 42.0777L225.386 41.9951H225.915L225.988 42.0777V42.2615C225.996 42.6717 226.029 43.081 226.087 43.4871C226.342 43.8939 226.714 44.2141 227.153 44.4058C227.671 44.6667 228.243 44.8026 228.822 44.8027C229.913 44.8027 230.667 44.4217 231.085 43.6598C231.294 43.288 231.405 42.8686 231.407 42.4416C231.426 42.1295 231.353 41.8188 231.195 41.5489C231.038 41.279 230.804 41.062 230.524 40.9256C230.073 40.7357 229.598 40.6119 229.112 40.5582C227.646 40.3315 226.68 40.0474 226.212 39.7056C225.512 39.1862 225.162 38.3826 225.162 37.2948C225.162 36.163 225.542 35.2595 226.302 34.5846C227.106 33.879 228.224 33.5256 229.656 33.5244C230.945 33.5244 231.983 33.7314 232.77 34.1454L232.827 34.3457C232.681 35.1272 232.601 35.9194 232.587 36.7142L232.497 36.7969H231.977L231.894 36.7142C231.894 36.2841 231.866 35.8544 231.81 35.428C231.584 35.1241 231.274 34.8935 230.918 34.7647C230.47 34.5779 229.99 34.4823 229.506 34.4835C228.773 34.4835 228.19 34.6795 227.756 35.0715C227.558 35.2521 227.401 35.4739 227.296 35.7214C227.192 35.9688 227.143 36.2362 227.152 36.5047C227.152 37.1405 227.381 37.6072 227.838 37.9049C228.135 38.0972 228.837 38.2809 229.943 38.4561C230.061 38.4726 230.381 38.5278 230.911 38.6215C231.217 38.6722 231.519 38.7528 231.81 38.8622C232.322 39.0373 232.763 39.3746 233.067 39.8232C233.387 40.3489 233.548 40.9566 233.53 41.5724V41.5724Z" fill="black"/>
<path d="M251.924 41.216L251.842 41.3078C251.501 41.3905 251.303 41.5045 251.248 41.6514C251.193 41.7984 251.166 42.357 251.166 43.329C251.166 43.7976 251.186 44.2625 251.232 44.72C249.393 45.4158 247.724 45.7643 246.225 45.7655C244.254 45.7655 242.659 45.2112 241.438 44.1026C240.218 42.994 239.608 41.4849 239.607 39.5751C239.607 37.086 240.683 35.3098 242.836 34.2465C243.824 33.7565 245.077 33.5115 246.595 33.5115C247.495 33.5138 248.392 33.6111 249.272 33.8018C249.877 33.9192 250.466 34.1041 251.03 34.3531L251.105 34.5019C250.962 34.9919 250.844 35.8371 250.75 37.0376L250.658 37.1203H250.164L250.081 37.0376C250.081 36.931 250.07 36.7142 250.048 36.3871C250.039 36.1545 250.011 35.9229 249.966 35.6944C249.722 35.3637 249.31 35.0807 248.726 34.8492C248.077 34.6014 247.388 34.4768 246.694 34.4817C244.74 34.4817 243.394 35.2712 242.655 36.8502C242.3 37.6472 242.126 38.5132 242.144 39.3859C242.144 40.922 242.551 42.1953 243.366 43.2059C243.756 43.71 244.26 44.1149 244.835 44.3882C245.41 44.6614 246.041 44.7952 246.678 44.7788C247.4 44.7787 248.113 44.6207 248.768 44.3158C248.807 43.9299 248.826 43.3995 248.825 42.7245C248.841 42.3921 248.822 42.0589 248.768 41.7305C248.735 41.6423 248.63 41.5798 248.455 41.5467C248.279 41.5136 247.839 41.4732 247.059 41.4236L246.967 41.3409V40.8191L247.059 40.7364C247.855 40.7584 248.692 40.7664 249.568 40.7603L251.84 40.7364L251.922 40.8191L251.924 41.216Z" fill="black"/>
<path d="M264.572 45.3668L264.487 45.4495H264.174C263.419 45.4225 262.949 45.4084 262.762 45.4072C262.481 45.4072 262.029 45.4237 261.424 45.4568C261.355 45.2205 261.248 44.9967 261.109 44.7935L259.061 41.3648L258.145 39.9647C258.009 39.7723 257.844 39.602 257.656 39.4594L257.748 39.1764C257.874 39.1764 257.968 39.1856 258.028 39.1856C258.47 39.2085 258.911 39.1201 259.31 38.9283C259.635 38.7292 259.902 38.4494 260.087 38.1162C260.332 37.6975 260.456 37.2181 260.443 36.7326C260.443 35.7991 260.095 35.1695 259.4 34.8437C258.94 34.6663 258.447 34.5875 257.955 34.6121C257.689 34.6114 257.424 34.6336 257.162 34.6783C257.107 35.2197 257.079 36.1421 257.079 37.4455V41.7782C257.079 43.0938 257.115 43.9513 257.187 44.3507C257.198 44.4242 257.23 44.4929 257.28 44.5477C257.33 44.6025 257.395 44.6408 257.468 44.6575C257.788 44.7023 258.111 44.7299 258.435 44.7402L258.517 44.8229V45.3741L258.442 45.4568C257.893 45.4237 257.045 45.4072 255.899 45.4072C254.715 45.4072 253.867 45.4237 253.355 45.4568L253.272 45.3833V44.8192L253.355 44.7365C253.678 44.7262 254 44.6986 254.32 44.6538C254.393 44.6374 254.459 44.5993 254.509 44.5445C254.559 44.4897 254.592 44.4208 254.602 44.347C254.674 43.9501 254.71 43.0926 254.709 41.7745V37.3885C254.709 36.0754 254.673 35.2179 254.602 34.8161C254.592 34.7423 254.559 34.6734 254.509 34.6186C254.459 34.5638 254.393 34.5257 254.32 34.5093C254 34.4645 253.678 34.4369 253.355 34.4266L253.272 34.3439V33.7816L253.355 33.7063C253.893 33.7394 254.742 33.7559 255.899 33.7559C256.57 33.7559 257.116 33.7467 257.533 33.7302C258.365 33.6971 258.987 33.6806 259.4 33.6806C260.353 33.6806 261.053 33.7663 261.5 33.9378C261.775 34.032 262.026 34.1863 262.234 34.3897C262.443 34.5931 262.603 34.8404 262.705 35.1138C262.81 35.4236 262.86 35.7494 262.853 36.0766C262.853 37.5772 262.011 38.6429 260.325 39.2738C260.601 39.738 260.893 40.2072 261.201 40.6813L262.483 42.6455C263.231 43.8043 263.729 44.4646 263.978 44.6263C264.139 44.7172 264.322 44.7599 264.506 44.7494L264.59 44.8321L264.572 45.3668Z" fill="black"/>
<path d="M278.126 39.2775C278.126 41.3146 277.534 42.9138 276.349 44.0751C275.199 45.202 273.627 45.7655 271.634 45.7655C269.75 45.7655 268.271 45.2333 267.197 44.1688C266.122 43.1043 265.585 41.6257 265.587 39.7331C265.587 37.0762 266.597 35.2387 268.618 34.2208C269.538 33.7553 270.669 33.5232 272.013 33.5244C273.935 33.5244 275.43 34.0297 276.497 35.0403C277.584 36.0644 278.127 37.4768 278.126 39.2775ZM275.581 39.7074C275.581 38.1064 275.261 36.8349 274.62 35.8929C273.978 34.9509 273.038 34.4799 271.798 34.4799C270.162 34.4799 269.077 35.2149 268.543 36.6848C268.258 37.5017 268.119 38.3625 268.131 39.2278C268.131 40.9355 268.445 42.2829 269.073 43.2703C269.724 44.2919 270.696 44.8027 271.989 44.8027C273.557 44.8027 274.611 44.0267 275.151 42.4746C275.449 41.5831 275.594 40.6475 275.581 39.7074V39.7074Z" fill="black"/>
<path d="M291.621 34.3476L291.539 34.4302C290.891 34.4302 290.524 34.6042 290.44 34.9521C290.374 35.369 290.341 35.7904 290.339 36.2126C290.322 36.6928 290.314 37.3855 290.315 38.2907V40.843C290.315 42.4844 289.993 43.6555 289.348 44.3562C288.493 45.2847 287.276 45.7483 285.697 45.7471C284.256 45.7471 283.13 45.507 282.319 45.0268C281.993 44.8396 281.707 44.5894 281.477 44.2908C281.248 43.9922 281.079 43.6509 280.982 43.2868C280.85 42.8066 280.784 41.5528 280.784 39.5255V37.3885C280.784 36.0754 280.748 35.2179 280.676 34.8161C280.666 34.7425 280.633 34.6738 280.583 34.619C280.533 34.5643 280.468 34.526 280.396 34.5092C280.075 34.4645 279.752 34.4368 279.428 34.4266L279.346 34.3439V33.7926L279.428 33.71C279.958 33.743 280.807 33.7596 281.973 33.7596C283.162 33.7596 284.008 33.743 284.508 33.71L284.591 33.7926V34.3439L284.508 34.4266C284.185 34.4369 283.863 34.4645 283.543 34.5092C283.47 34.5257 283.405 34.5638 283.354 34.6186C283.304 34.6734 283.271 34.7423 283.261 34.8161C283.19 35.2142 283.154 36.0717 283.154 37.3885V39.0955C283.154 41.178 283.248 42.4562 283.435 42.9303C283.808 43.8588 284.73 44.3231 286.201 44.3231C287.164 44.3231 287.916 44.0855 288.456 43.6102C288.681 43.423 288.861 43.1883 288.985 42.923C289.11 42.5761 289.188 42.2139 289.216 41.8462C289.266 41.3892 289.291 40.9297 289.291 40.47V38.7464C289.291 37.301 289.286 36.3124 289.275 35.7808C289.284 35.455 289.251 35.1295 289.176 34.8124C289.148 34.752 289.108 34.6979 289.058 34.6537C289.008 34.6094 288.95 34.5759 288.886 34.5552C288.553 34.4763 288.212 34.4344 287.87 34.4302L287.787 34.3476V33.7963L287.87 33.7136C288.35 33.7467 288.842 33.7632 289.348 33.7632C289.729 33.7632 290.462 33.7467 291.546 33.7136L291.629 33.7963L291.621 34.3476Z" fill="black"/>
<path d="M301.955 36.3026C301.955 37.4418 301.569 38.3299 300.796 38.9669C300.063 39.5893 299.132 39.9288 298.172 39.9242C297.836 39.9234 297.5 39.8846 297.172 39.8085C297.096 39.6006 296.999 39.4006 296.884 39.2113L297.057 39.0276C297.261 39.0998 297.476 39.1389 297.692 39.1433C297.946 39.1527 298.198 39.1042 298.43 39.0013C298.662 38.8985 298.868 38.7441 299.031 38.5498C299.367 38.1566 299.535 37.6017 299.535 36.8961C299.535 35.3563 298.844 34.5858 297.461 34.5846C297.13 34.6002 296.799 34.6339 296.47 34.6857C296.42 34.8179 296.396 35.7208 296.397 37.3941V41.7764C296.397 43.092 296.433 43.9495 296.503 44.3488C296.514 44.4224 296.546 44.4911 296.596 44.5459C296.646 44.6007 296.712 44.639 296.784 44.6557C296.835 44.6667 297.211 44.6943 297.916 44.7384L298.007 44.8284V45.3796L297.925 45.4623C297.17 45.4292 296.267 45.4127 295.216 45.4127C294.03 45.4127 293.184 45.4292 292.671 45.4623L292.589 45.3888V44.8376L292.68 44.7476C293.001 44.737 293.321 44.7094 293.638 44.6649C293.71 44.6481 293.776 44.6098 293.826 44.5551C293.876 44.5003 293.908 44.4316 293.919 44.358C293.989 43.9611 294.025 43.1036 294.027 41.7856V37.3885C294.027 36.0754 293.991 35.2179 293.919 34.8161C293.908 34.7425 293.876 34.6738 293.826 34.619C293.776 34.5643 293.71 34.526 293.638 34.5093C293.318 34.4646 292.995 34.437 292.671 34.4266L292.589 34.3365V33.7853L292.68 33.7026C293.219 33.7357 294.047 33.7522 295.166 33.7522C295.628 33.7522 296.294 33.7436 297.165 33.7265C298.035 33.71 298.535 33.7026 298.669 33.7026C300.176 33.7026 301.153 34.0866 301.6 34.8547C301.846 35.2965 301.968 35.7967 301.955 36.3026Z" fill="black"/>
<path d="M312.522 45.3668L312.446 45.4495C311.894 45.4164 311.044 45.3999 309.895 45.3999C308.745 45.3999 307.897 45.4164 307.35 45.4495L307.275 45.3668V44.8156L307.359 44.7329C307.682 44.7225 308.005 44.6949 308.325 44.6502C308.397 44.6334 308.462 44.5952 308.512 44.5404C308.562 44.4856 308.595 44.4169 308.605 44.3433C308.676 43.9464 308.712 43.089 308.713 41.7709V37.3885C308.713 36.0754 308.677 35.2179 308.605 34.8161C308.595 34.7425 308.562 34.6738 308.512 34.6191C308.462 34.5643 308.397 34.526 308.325 34.5093C308.005 34.4645 307.682 34.4369 307.359 34.4266L307.275 34.3439V33.7816L307.359 33.7063C307.887 33.7394 308.734 33.7559 309.902 33.7559C311.069 33.7559 311.915 33.7394 312.437 33.7063L312.522 33.7816V34.3439L312.437 34.4266C312.114 34.4369 311.792 34.4645 311.472 34.5093C311.4 34.526 311.334 34.5643 311.284 34.6191C311.234 34.6738 311.202 34.7425 311.192 34.8161C311.121 35.2142 311.085 36.0717 311.084 37.3885V41.7709C311.084 43.0865 311.12 43.944 311.192 44.3433C311.202 44.4169 311.234 44.4856 311.284 44.5404C311.334 44.5952 311.4 44.6334 311.472 44.6502C311.792 44.6949 312.114 44.7225 312.437 44.7329L312.522 44.8156V45.3668Z" fill="black"/>
<path d="M326.744 34.3476L326.653 34.4302C326.329 34.4406 326.006 34.4682 325.686 34.5129C325.613 34.5297 325.548 34.568 325.498 34.6227C325.448 34.6775 325.416 34.7462 325.405 34.8198C325.334 35.2179 325.299 36.0754 325.299 37.3922V40.7566C325.299 43.2359 325.334 44.8511 325.405 45.602L325.299 45.6773C324.676 45.572 324.205 45.4972 323.885 45.4531C322.41 43.7896 319.891 40.7572 316.328 36.3559V41.7746C316.328 43.0902 316.364 43.9477 316.434 44.347C316.445 44.4208 316.478 44.4897 316.528 44.5445C316.578 44.5993 316.644 44.6374 316.717 44.6539C317.037 44.6986 317.359 44.7262 317.682 44.7365L317.764 44.8192V45.3852L317.682 45.4587C317.048 45.4256 316.46 45.409 315.914 45.409C315.282 45.409 314.645 45.4256 314.007 45.4587L313.925 45.3852V44.8211L314.007 44.7384C314.33 44.728 314.653 44.7004 314.973 44.6557C315.045 44.6393 315.111 44.6011 315.161 44.5463C315.212 44.4915 315.244 44.4226 315.255 44.3488C315.326 43.9519 315.361 43.0945 315.361 41.7764V37.3885C315.361 36.0754 315.326 35.2179 315.255 34.8161C315.244 34.7423 315.212 34.6734 315.161 34.6186C315.111 34.5638 315.045 34.5257 314.973 34.5093C314.653 34.4645 314.33 34.4369 314.007 34.4266L313.925 34.3439V33.7816L314.007 33.7063C314.53 33.7394 315.028 33.7559 315.502 33.7559C316.246 33.7559 316.861 33.7394 317.352 33.7063C319.334 36.3571 321.663 39.1991 324.339 42.2321V37.3885C324.339 36.0754 324.304 35.2179 324.233 34.8161C324.223 34.7425 324.19 34.6738 324.14 34.6191C324.09 34.5643 324.025 34.526 323.953 34.5093C323.632 34.4646 323.309 34.437 322.985 34.4266L322.903 34.3439V33.7816L322.985 33.7063C323.603 33.7394 324.19 33.7559 324.744 33.7559C325.455 33.7559 326.093 33.7394 326.66 33.7063L326.744 33.7816V34.3476Z" fill="black"/>
<path d="M338.976 43.9501L338.597 44.7953C337.401 45.4448 336.058 45.7757 334.698 45.7563C331.824 45.7563 329.857 44.7182 328.8 42.6418C328.31 41.6745 328.058 40.6032 328.067 39.5182C328.067 37.7064 328.667 36.2622 329.868 35.1854C331.089 34.0744 332.766 33.5189 334.898 33.5189C336.251 33.5186 337.592 33.7677 338.855 34.2538L338.961 34.377C338.759 35.2559 338.643 36.1525 338.615 37.0541L338.54 37.1368H338.053L337.97 37.0449C337.969 36.5799 337.939 36.1154 337.88 35.654C337.192 34.8749 336.198 34.4854 334.898 34.4854C333.555 34.4854 332.506 34.9104 331.751 35.7606C330.996 36.6107 330.616 37.7652 330.612 39.2242C330.612 41.1964 331.289 42.7098 332.643 43.7645C333.365 44.3268 334.331 44.6085 335.543 44.6098C336.674 44.6017 337.785 44.3079 338.773 43.7553L338.976 43.9501Z" fill="black"/>
<path d="M53.931 37.4363C52.6048 39.8142 50.9542 41.9949 49.0271 43.9152C47.5246 45.4182 45.8211 46.7045 43.9655 47.7371C43.4819 48.0017 43.0203 48.2442 42.5147 48.4721C42.2289 48.6044 41.9211 48.7367 41.6134 48.8396C39.4151 49.7216 36.9952 50.1423 34.3334 50.1423C30.6165 50.1423 27.3411 49.2236 24.4815 47.3402C21.6219 45.4568 19.4181 42.73 17.8189 39.1378C16.2196 35.5456 15.4008 31.1302 15.4008 25.9688C15.4008 20.8074 16.2141 16.3956 17.8189 12.7777C19.4236 9.15972 21.6457 6.44763 24.4833 4.57159C27.3209 2.69555 30.6183 1.74742 34.3352 1.74742C36.4313 1.73008 38.517 2.0432 40.5161 2.67534C40.5915 2.69894 40.665 2.72843 40.7359 2.76354H40.7579C41.2735 2.47414 41.8099 2.22355 42.3626 2.01385C42.5458 1.92565 42.729 1.85951 42.9342 1.77131C43.0441 1.74742 43.132 1.70332 43.2419 1.68311C43.154 1.63717 43.0441 1.61512 42.9561 1.57102C40.6919 0.821341 37.3047 0.13781 34.7529 0.13781C29.5851 0.13781 25.4102 0.93159 22.1513 2.54304C18.0827 4.38049 14.8072 7.32961 12.2994 11.4547C9.68341 15.7347 8.37116 20.6316 8.36261 26.1452C8.45054 31.5932 9.77134 36.3577 12.2774 40.4608C14.7834 44.5638 18.0827 47.5423 22.1513 49.3504C25.4066 50.9618 29.5851 51.7777 34.7529 51.7777C37.5246 51.7777 40.0306 51.3808 42.2307 50.565C42.7583 50.3665 43.2859 50.1681 43.7695 49.9476C43.8457 49.9018 43.9268 49.8648 44.0113 49.8373C44.7639 49.494 45.4977 49.1106 46.2096 48.6889C46.2857 48.6497 46.3591 48.6055 46.4294 48.5566C46.979 48.2259 47.4846 47.8731 47.9902 47.4982C49.4983 46.3586 50.8774 45.0566 52.1028 43.6157C53.0706 42.4686 53.9321 41.2355 54.6766 39.9316C55.2921 38.8291 55.6658 37.9912 55.8197 37.44L53.931 37.4363Z" fill="black"/>
<path d="M8.4945 40.1043C6.51605 35.7808 5.50485 31.0604 5.50485 25.9559C5.50485 20.8514 6.51605 16.1182 8.4945 11.7946C10.4729 7.4711 13.1787 3.8311 16.5878 0.918728C13.3732 2.33209 10.4609 4.3548 8.01088 6.87576C5.55863 9.35967 3.59644 12.286 2.22758 15.5008C0.847865 18.8089 0.13736 22.359 0.13736 25.9449C0.13736 29.5308 0.847865 33.0809 2.22758 36.389C5.01429 42.8891 10.1422 48.0961 16.5878 50.971C13.1787 48.0678 10.4748 44.4278 8.4945 40.1043Z" fill="#93C227"/>
<path d="M103.368 29.9505C101.61 30.4136 99.8713 30.8546 98.1127 31.2074C96.3174 31.5707 94.4907 31.7553 92.6592 31.7586C90.4675 31.7395 88.2844 31.4807 86.1486 30.9869V33.0172C88.4239 33.4703 90.7354 33.7163 93.0548 33.7522C95.9859 33.7522 99.2558 33.2671 102.863 32.2951V47.2741C99.7401 49.1924 96.2894 50.1485 92.5108 50.1423C88.7939 50.1423 85.4946 49.2236 82.657 47.3182C80.3928 45.8188 78.5224 43.7884 77.0496 41.1866C77.0276 41.2307 77.0056 41.2527 76.9836 41.2968C76.2524 42.4257 75.3882 43.4622 74.4098 44.3837C74.2266 44.5381 74.0581 44.7145 73.8822 44.8688C75.7118 46.7457 77.885 48.2511 80.2829 49.3026C83.5363 50.9576 87.7442 51.7813 92.9065 51.774C97.5912 51.774 101.755 50.5166 105.396 48.0017C106.407 47.3203 107.363 46.561 108.256 45.7306V35.6044C108.256 32.8923 108.915 30.884 110.28 29.561C110.806 29.0018 111.414 28.526 112.083 28.1498C109.135 28.5173 106.221 29.1194 103.368 29.9505V29.9505ZM111.66 9.92226C111.594 9.83406 111.44 9.55477 111.418 9.52537L110.67 8.48905C110.574 8.38622 110.485 8.2756 110.407 8.1583C110.317 8.05694 110.222 7.96121 110.121 7.87166C107.816 5.40124 105.012 3.45351 101.896 2.15901C98.6403 0.768057 95.5829 0.0845222 92.7251 0.0845222C88.3927 0.0845222 84.7197 0.679861 81.6843 1.85032C76.555 3.85682 72.294 7.25428 69.7861 12.5259C67.324 17.6874 66.9943 20.5336 66.9943 20.5336C67.39 20.6879 67.7857 20.8202 68.1594 20.9966C68.2472 21.0146 68.3299 21.0523 68.4012 21.1069C68.7676 21.2612 69.2145 21.4596 69.6102 21.636C70.0059 21.8124 70.343 21.9668 70.6892 22.1432C71.7441 22.6905 72.7284 23.3649 73.6203 24.1515V23.9531C73.7541 20.586 74.3237 17.2506 75.3148 14.0308C76.8316 10.0154 79.0598 6.96396 81.9994 4.87661C84.9395 2.75619 88.3927 1.7217 92.3276 1.7217C94.6576 1.7068 96.9601 2.2279 99.058 3.24495C101.193 4.27087 103.141 5.65053 104.819 7.32594C107.165 9.61444 109.107 12.2862 110.56 15.227C110.978 15.9987 111.949 17.7278 112.319 19.8206C112.409 20.5671 112.461 21.3178 112.473 22.0697H113.045V13.0165C113.001 12.8401 111.726 10.038 111.66 9.92226Z" fill="black"/>
<path d="M70.2038 46.0613C69.6982 45.3558 69.2365 44.6263 68.7749 43.8766C68.1536 42.8341 67.5886 41.7588 67.0822 40.6556C66.5055 39.3634 66.0058 38.0381 65.5856 36.6866C64.9189 34.4645 64.477 32.1807 64.2666 29.8697C64.1787 28.8334 64.1127 27.7731 64.1127 26.6927V26.4722C64.1044 24.328 64.2883 22.1873 64.6623 20.076C65.1431 17.4037 65.9561 14.8024 67.0822 12.333C69.0826 8.00947 71.7664 4.39152 75.1975 1.4571C72.8631 2.49233 70.6767 3.83509 68.6961 5.44989C68.2345 5.84678 67.7948 6.24551 67.3552 6.66445C67.3099 6.68097 67.2713 6.71196 67.2453 6.75265C67.2233 6.7747 67.1793 6.79675 67.1573 6.81879L66.5858 7.39209C64.1257 9.86996 62.1619 12.7978 60.8006 16.0171C60.4094 16.9124 60.0789 17.8333 59.8114 18.7733C59.7723 18.8579 59.7428 18.9467 59.7235 19.0379C59.1651 20.9927 58.8404 23.0073 58.7562 25.039C58.738 25.126 58.7306 25.2148 58.7343 25.3036C58.7123 25.6711 58.7123 26.0753 58.7123 26.4722C58.7123 27.0235 58.7343 27.5527 58.7562 28.0837C58.7516 28.1652 58.759 28.2469 58.7782 28.3262C58.8864 30.3164 59.2333 32.2863 59.8114 34.1932C59.8334 34.2814 59.8554 34.3476 59.8774 34.4358C60.1406 35.2818 60.4463 36.1141 60.7933 36.9292C62.1608 40.149 64.1231 43.0804 66.5766 45.5689C66.6645 45.6571 66.7598 45.7233 66.8404 45.8115C66.9723 45.9437 67.1042 46.076 67.2361 46.1789C67.6025 46.5464 68.0055 46.8845 68.4012 47.2153C68.5331 47.3476 68.687 47.4578 68.8189 47.5681C70.7615 49.1497 72.9069 50.4629 75.1975 51.4727C73.3067 49.893 71.6281 48.074 70.2038 46.0613V46.0613Z" fill="black"/>
<path d="M59.8023 34.1932C59.6923 34.1491 59.5604 34.1271 59.4505 34.083C58.0876 33.7302 56.547 33.3994 54.8543 33.0687L52.3922 32.6498C50.4578 32.3411 48.3895 31.9423 46.1913 31.5013C43.9967 31.0587 41.8358 30.4619 39.7247 29.7153C37.6681 29.0073 35.7079 28.0437 33.8901 26.8471C32.1913 25.704 30.7585 24.2067 29.6895 22.4574C28.6344 20.7155 28.1068 18.5981 28.1068 16.1053C28.1288 13.9867 28.6124 12.1346 29.5137 10.5231C30.764 8.3181 32.4465 6.38985 34.4598 4.85456C32.9943 7.65668 32.2615 10.1262 32.2615 12.311C32.2615 14.2293 32.7232 15.951 33.6684 17.4558C35.449 20.258 38.5065 22.507 42.8389 24.2544C46.4245 25.7097 50.4272 26.7607 54.847 27.4075C56.056 27.5912 57.2284 27.7603 58.3276 28.0047C58.4688 28.0235 58.6084 28.053 58.7452 28.0929C58.7406 28.1744 58.748 28.2561 58.7672 28.3354C58.8767 30.3226 59.2242 32.2893 59.8023 34.1932V34.1932Z" fill="#93C227"/>
<path d="M75.8534 26.5696C75.1946 25.6875 74.4442 24.8782 73.6148 24.1552C73.6148 24.1552 73.6148 24.1552 73.6056 24.1552C72.7163 23.3756 71.738 22.7045 70.6911 22.156C69.5023 21.5314 68.2692 20.9959 67.0016 20.5538C66.9613 20.7724 66.921 20.9948 66.8862 21.2189C66.8514 21.4431 66.8148 21.6654 66.7836 21.8878C66.7525 22.1101 66.7213 22.3435 66.6994 22.5658C66.6774 22.7881 66.6499 22.9958 66.6316 23.2089C66.6188 23.3302 66.6096 23.4515 66.6004 23.5764C66.5821 23.7601 66.5693 23.9439 66.5602 24.1276C66.5345 24.538 66.5168 24.9502 66.507 25.3642C66.507 25.5994 66.507 25.8365 66.507 26.0772V26.1488C66.507 26.2958 66.507 26.4483 66.507 26.5953C66.507 26.8765 66.507 27.1576 66.529 27.4387C67.1775 27.7162 67.7967 28.0157 68.3884 28.3225C71.3267 29.8464 73.3015 31.7451 74.3127 34.0187C74.8234 35.2075 75.0901 36.4873 75.0968 37.7818C75.0986 37.8148 75.0986 37.8479 75.0968 37.881C75.0968 39.787 74.5362 41.9595 73.4151 44.3985C73.5305 44.5326 73.6551 44.6575 73.7815 44.7862C73.8163 44.8229 73.8474 44.8578 73.8822 44.889C74.0526 44.7384 74.2266 44.5675 74.4171 44.3948C75.3949 43.4772 76.2563 42.4422 76.9818 41.3134C77.0033 41.2822 77.0229 41.2496 77.0404 41.216C77.5127 40.469 77.915 39.6798 78.2421 38.8585C78.7334 37.6077 78.9755 36.2724 78.9548 34.9282C78.9548 32.2222 77.921 29.436 75.8534 26.5696Z" fill="#93C227"/>
<path d="M66.8367 45.8151C66.8266 45.8304 66.8143 45.844 66.8001 45.8556L66.7433 45.9144C65.393 47.2478 63.7562 48.2535 61.9584 48.8543C59.6465 49.6344 57.2221 50.0268 54.7829 50.0156C51.9511 50.0067 49.1363 49.5783 46.4294 48.744L46.2023 48.676C45.4954 49.1011 44.7644 49.4846 44.0131 49.8245L43.7677 49.931L44.0131 50.0247C47.4605 51.3057 51.1066 51.9644 54.7829 51.9706C57.428 51.9784 60.0575 51.5628 62.5721 50.7395C64.2726 50.1649 65.8647 49.3078 67.2819 48.2038C67.6695 47.9037 68.0407 47.5829 68.3938 47.2428C67.9927 46.9139 67.6025 46.5648 67.2196 46.2028C67.095 46.0742 66.965 45.9493 66.8367 45.8151Z" fill="#93C227"/>
<path d="M68.4232 31.8854C67.9432 31.551 67.4297 31.2294 66.8825 30.9207C67.5491 35.0383 69.156 38.9455 71.5777 42.3368C71.9094 41.2857 72.075 40.1889 72.0686 39.0864C72.0686 36.0007 70.8535 33.6003 68.4232 31.8854Z" fill="#93C227"/>
<path d="M68.6961 5.33965V5.4499C68.2345 5.84679 67.7948 6.24551 67.3552 6.66445C67.3099 6.68097 67.2713 6.71196 67.2453 6.75265C66.9595 6.59831 66.7616 6.51011 66.7396 6.48806C64.6253 5.29449 62.3819 4.34696 60.0532 3.66389C57.231 2.75518 54.2864 2.28668 51.3224 2.27477C48.893 2.26686 46.479 2.66172 44.178 3.44339C44.0241 3.50954 43.8483 3.55364 43.6944 3.62714C43.5405 3.70064 43.3646 3.75944 43.2108 3.82559C42.1701 4.26949 41.2171 4.89678 40.397 5.67774C39.4938 6.60565 39.0542 7.59788 39.0542 8.65625C39.0542 10.2659 40.0434 11.8553 42.0237 13.3546C44.3539 15.2742 48.635 16.7962 54.8671 17.9207L57.3512 18.3617C58.0125 18.4499 58.65 18.5822 59.3095 18.6924C59.4927 18.7145 59.6392 18.7586 59.8151 18.7806C59.776 18.8652 59.7465 18.954 59.7271 19.0452C59.1688 21.0001 58.8441 23.0146 58.7599 25.0464C58.606 25.0243 58.4521 24.9802 58.2983 24.9582C57.1991 24.7377 56.0554 24.5392 54.8671 24.3628C48.5984 23.479 43.6724 21.9135 40.0288 19.6645C36.6434 17.5453 34.9501 14.876 34.9489 11.6568C34.9603 10.7386 35.0933 9.82595 35.3446 8.9429C36.1158 6.38516 37.8525 4.37682 40.5362 2.8793C40.6072 2.83816 40.6806 2.80134 40.756 2.76905H40.778C41.2937 2.47965 41.8301 2.22907 42.3827 2.01936C42.5659 1.93117 42.7491 1.86502 42.9543 1.77682C43.0642 1.75294 43.1521 1.70884 43.2621 1.68862H43.284C43.3769 1.63895 43.4723 1.59417 43.5698 1.55449C46.0771 0.739446 48.6978 0.330079 51.3334 0.341766C54.4808 0.355074 57.6086 0.838741 60.6138 1.77682C62.638 2.39421 66.1553 4.00382 68.2894 5.12834C68.4012 5.1853 68.5551 5.2735 68.6961 5.33965Z" fill="#93C227"/>
</g>
<defs>
<clipPath id="clip0_834_2502">
<rect width="340" height="52" fill="white"/>
</clipPath>
</defs>
</svg>
