<svg width="71" height="48" viewBox="0 0 71 48" fill="none" xmlns="http://www.w3.org/2000/svg">
<g clip-path="url(#clip0_834_2341)">
<path d="M59.9929 13.5983C59.0956 14.144 58.6486 14.9229 58.6418 15.9234V21.6657H61.1029V12.9078L59.9929 13.5983Z" fill="#93C227"/>
<path d="M5.41272 39.4712L5.22535 39.8863C4.63731 40.2055 3.97743 40.3681 3.30877 40.3587C1.89549 40.3587 0.928655 39.8484 0.408268 38.8278C0.166932 38.3527 0.0430202 37.8265 0.0469664 37.2935C0.0469664 36.4031 0.34217 35.6935 0.932577 35.1646C1.53643 34.6189 2.36098 34.3461 3.40623 34.3461C4.07133 34.3466 4.73067 34.4696 5.35138 34.709L5.40432 34.7697C5.30544 35.2013 5.24916 35.6416 5.23627 36.0842L5.1993 36.1255H4.95731L4.91698 36.0808C4.91555 35.852 4.90068 35.6233 4.87245 35.3962C4.53635 35.0139 4.04761 34.8227 3.40623 34.8227C2.74861 34.8227 2.2327 35.0316 1.85852 35.4493C1.48433 35.8669 1.29752 36.4342 1.29808 37.1512C1.29808 38.1196 1.63109 38.8632 2.29712 39.3819C2.6517 39.6581 3.12783 39.7965 3.72552 39.7971C4.28176 39.7926 4.82792 39.6478 5.31357 39.376L5.41272 39.4712Z" fill="black"/>
<path d="M12.2197 37.1756C12.2197 38.1771 11.9287 38.9631 11.3467 39.5335C10.7804 40.0865 10.0071 40.3632 9.02678 40.3638C8.10084 40.3638 7.37263 40.1025 6.84216 39.5798C6.31169 39.0571 6.04758 38.3307 6.04982 37.4004C6.04982 36.0952 6.54668 35.1913 7.5404 34.6888C7.99245 34.4643 8.54896 34.3503 9.20995 34.3469C10.1544 34.3469 10.8896 34.5954 11.4156 35.0922C11.9416 35.589 12.2096 36.2835 12.2197 37.1756ZM10.9686 37.3895C10.9686 36.6035 10.8109 35.9787 10.4955 35.5149C10.1801 35.0512 9.71773 34.8199 9.10828 34.8211C8.30445 34.8211 7.7723 35.1834 7.51183 35.9082C7.37143 36.3096 7.3026 36.7326 7.30849 37.1579C7.30849 37.9955 7.46282 38.6574 7.77146 39.1436C8.09075 39.6488 8.56857 39.9015 9.20491 39.9015C9.97681 39.9015 10.4955 39.52 10.761 38.7571C10.9064 38.3161 10.9765 37.8538 10.9686 37.3895Z" fill="black"/>
<path d="M19.2616 34.7537L19.217 34.7941C19.0582 34.7994 18.8998 34.8129 18.7423 34.8345C18.7065 34.8422 18.6739 34.8608 18.6491 34.8878C18.6243 34.9148 18.6084 34.9489 18.6037 34.9853C18.5684 35.1806 18.5507 35.6017 18.5507 36.2484V37.9006C18.5507 39.1194 18.5684 39.9133 18.6037 40.2821L18.5507 40.3183C18.2449 40.2672 18.0135 40.2307 17.8567 40.2088C17.1285 39.392 15.8897 37.902 14.1403 35.7389V38.4C14.1403 39.0456 14.158 39.4667 14.1933 39.6632C14.198 39.6994 14.2137 39.7334 14.2384 39.7604C14.263 39.7874 14.2954 39.806 14.3311 39.8139C14.4887 39.8359 14.6475 39.8494 14.8066 39.8543L14.847 39.8956V40.1684L14.8066 40.2055C14.4946 40.1892 14.2047 40.1811 13.937 40.1811C13.6261 40.1811 13.3135 40.1892 12.9993 40.2055L12.9581 40.1684V39.8922L12.9993 39.8509C13.1581 39.8461 13.3166 39.8327 13.474 39.8105C13.5091 39.8028 13.5411 39.7846 13.5657 39.7582C13.5903 39.7319 13.6064 39.6988 13.6118 39.6632C13.6466 39.4678 13.6639 39.0467 13.6639 38.4V36.2476C13.6639 35.6014 13.6466 35.1803 13.6118 34.9844C13.6068 34.9481 13.5909 34.9142 13.5661 34.8872C13.5413 34.8603 13.5089 34.8416 13.4732 34.8337C13.3157 34.812 13.1573 34.7985 12.9984 34.7933L12.9573 34.7528V34.4758L12.9984 34.4396C13.2556 34.4553 13.5006 34.4634 13.7337 34.464C14.0994 34.464 14.4025 34.4559 14.6428 34.4396C15.6175 35.7415 16.763 37.1374 18.0794 38.6274V36.2476C18.0794 35.6014 18.0617 35.1803 18.0264 34.9844C18.0216 34.9482 18.0058 34.9143 17.9812 34.8873C17.9565 34.8604 17.9242 34.8416 17.8886 34.8337C17.7309 34.8121 17.5722 34.7986 17.4131 34.7933L17.3727 34.7528V34.4758L17.4131 34.4396C17.7167 34.4553 18.0051 34.4634 18.2785 34.464C18.6269 34.464 18.9409 34.4559 19.2204 34.4396L19.2607 34.4758L19.2616 34.7537Z" fill="black"/>
<path d="M24.176 38.3032C24.183 38.7292 24.0489 39.1456 23.7945 39.4872C23.5721 39.7895 23.2693 40.0229 22.9207 40.1608C22.5438 40.3049 22.1426 40.3742 21.7393 40.3646C21.1592 40.3619 20.5872 40.2284 20.0656 39.9739L20.0168 39.8838C20.093 39.5722 20.1311 39.1287 20.1311 38.5533L20.1714 38.512H20.4311L20.4681 38.5533V38.6467C20.4717 38.8483 20.488 39.0494 20.5168 39.2488C20.6426 39.4476 20.8254 39.6037 21.0411 39.6968C21.2956 39.825 21.5764 39.8919 21.8612 39.8922C22.3972 39.8922 22.7681 39.705 22.9736 39.3305C23.0768 39.1479 23.1315 38.9417 23.1324 38.7318C23.1324 38.3848 22.9876 38.1367 22.698 37.9874C22.4766 37.8924 22.2425 37.8305 22.0032 37.8038C21.2806 37.6915 20.8044 37.5512 20.5748 37.3827C20.2314 37.1279 20.0597 36.7332 20.0597 36.1987C20.0597 35.6418 20.2465 35.198 20.6201 34.8674C21.015 34.5204 21.5646 34.3467 22.2687 34.3461C22.9022 34.3461 23.4139 34.448 23.8038 34.6518L23.8324 34.7495C23.7611 35.1335 23.7218 35.5227 23.7147 35.9133L23.6702 35.9545H23.4139L23.3736 35.9133C23.3736 35.7009 23.3599 35.4888 23.3324 35.2783C23.221 35.1294 23.0685 35.0164 22.8938 34.9533C22.674 34.861 22.4381 34.8138 22.1998 34.8143C21.8368 34.8143 21.5497 34.9106 21.3385 35.1032C21.2412 35.1922 21.1643 35.3013 21.1131 35.423C21.0619 35.5446 21.0376 35.676 21.0419 35.808C21.0419 36.1196 21.154 36.3489 21.378 36.496C21.5242 36.5903 21.8696 36.681 22.414 36.768C22.4712 36.7764 22.6291 36.8034 22.8896 36.8522C23.0404 36.877 23.1884 36.9165 23.3316 36.9701C23.5831 37.0564 23.7998 37.2222 23.9492 37.4425C24.1066 37.7012 24.1855 38.0003 24.176 38.3032Z" fill="black"/>
<path d="M29.9964 34.4648C29.9631 34.6707 29.9455 34.8787 29.9434 35.0872L29.935 35.7667L29.8947 35.808H29.6426L29.5972 35.771C29.5962 35.5667 29.5813 35.3627 29.5527 35.1604C29.5345 35.1056 29.4997 35.0577 29.4532 35.0235C29.4067 34.9893 29.3508 34.9703 29.2931 34.9693C29.2371 34.9608 28.9825 34.9566 28.5293 34.9566H27.9798C27.9747 35.0521 27.9722 35.4293 27.9722 36.0884V38.4C27.9722 39.0456 27.9899 39.4667 28.0252 39.6632C28.0296 39.6995 28.0453 39.7336 28.07 39.7606C28.0947 39.7877 28.1272 39.8063 28.163 39.8139C28.3204 39.836 28.4788 39.8495 28.6377 39.8543L28.6789 39.8956V40.1684L28.6377 40.2088C28.3694 40.1926 27.9526 40.1844 27.3874 40.1844C26.8077 40.1844 26.3906 40.1926 26.1363 40.2088L26.0993 40.1718V39.8956L26.1405 39.8543C26.2994 39.8495 26.4578 39.836 26.6152 39.8139C26.651 39.8061 26.6835 39.7874 26.7083 39.7605C26.7331 39.7335 26.749 39.6995 26.7539 39.6632C26.7886 39.4678 26.806 39.0467 26.806 38.4V36.0884C26.806 35.4181 26.8021 35.0408 26.7942 34.9566H26.2153C25.7308 34.9566 25.4476 34.9718 25.3658 35.0021C25.3305 35.0125 25.2994 35.0337 25.2767 35.0627C25.2425 35.1456 25.2221 35.2335 25.2162 35.323C25.1969 35.467 25.1852 35.6152 25.1793 35.7667L25.1389 35.808H24.8827L24.8381 35.7667L24.8297 35.0712C24.8268 34.8682 24.8105 34.6657 24.781 34.4648L24.818 34.4236C24.9776 34.4505 25.5596 34.4643 26.564 34.4648H28.2092C29.1351 34.4648 29.7174 34.4511 29.956 34.4236L29.9964 34.4648Z" fill="black"/>
<path d="M35.9789 40.1684L35.9377 40.2088L35.7839 40.2046C35.4126 40.1912 35.1815 40.1844 35.0891 40.1844C34.9513 40.1844 34.732 40.1926 34.4312 40.2088C34.3972 40.0927 34.345 39.9827 34.2766 39.8829L33.2683 38.1987L32.8171 37.5107C32.7501 37.4164 32.6694 37.3326 32.5776 37.2623L32.6221 37.1242C32.6843 37.1242 32.7305 37.1242 32.7599 37.1242C32.9758 37.1349 33.1909 37.0914 33.3859 36.9979C33.5454 36.9002 33.6769 36.7627 33.7674 36.5987C33.8883 36.3932 33.9489 36.1577 33.9421 35.9192C33.9421 35.4599 33.7716 35.1512 33.4304 34.9928C33.2685 34.9171 33.0316 34.8792 32.7196 34.8792C32.589 34.8789 32.4586 34.8896 32.3297 34.9112C32.3028 35.1773 32.2894 35.6306 32.2894 36.2712V38.4C32.2894 39.0456 32.307 39.4667 32.3423 39.6632C32.3468 39.6995 32.3624 39.7336 32.3871 39.7606C32.4119 39.7877 32.4444 39.8063 32.4801 39.8139C32.6375 39.836 32.796 39.8495 32.9549 39.8543L32.996 39.8956V40.1684L32.9591 40.2088C32.6885 40.1926 32.2717 40.1844 31.7088 40.1844C31.1268 40.1844 30.7097 40.1926 30.4577 40.2088L30.4165 40.1684V39.8922L30.4577 39.8509C30.6165 39.8461 30.775 39.8326 30.9324 39.8105C30.9682 39.8027 31.0007 39.7841 31.0255 39.7571C31.0503 39.7301 31.0662 39.6961 31.071 39.6598C31.1058 39.4644 31.1231 39.0434 31.1231 38.3966V36.2476C31.1231 35.6014 31.1058 35.1804 31.071 34.9844C31.0661 34.9481 31.0501 34.9142 31.0253 34.8872C31.0005 34.8603 30.9681 34.8416 30.9324 34.8337C30.775 34.8121 30.6165 34.7986 30.4577 34.7933L30.4165 34.7528V34.4758L30.4577 34.4396C30.7232 34.4553 31.1402 34.4634 31.7088 34.464C32.0387 34.464 32.3068 34.4598 32.5129 34.4514C32.9213 34.4351 33.2271 34.4269 33.4304 34.4269C33.8987 34.4269 34.2427 34.4691 34.4622 34.5533C34.5976 34.5994 34.721 34.6752 34.8235 34.7751C34.9259 34.875 35.0049 34.9966 35.0546 35.1309C35.1064 35.2829 35.1311 35.4428 35.1277 35.6034C35.1277 36.3422 34.7135 36.866 33.885 37.1747C34.02 37.4027 34.1637 37.6331 34.316 37.8661L34.9412 38.8312C35.3092 39.401 35.5543 39.7252 35.6764 39.8038C35.7551 39.8491 35.8454 39.8705 35.936 39.8653L35.9772 39.9057L35.9789 40.1684Z" fill="black"/>
<path d="M42.3479 34.7537L42.3068 34.7941C41.9875 34.7941 41.8077 34.8797 41.7673 35.0509C41.7354 35.2554 41.7191 35.4621 41.7186 35.6691C41.7102 35.9054 41.706 36.2462 41.706 36.6914V37.9444C41.706 38.75 41.5477 39.3255 41.2312 39.6707C40.8111 40.126 40.2126 40.354 39.4357 40.3545C38.7265 40.3545 38.1728 40.2364 37.7745 40C37.6139 39.9082 37.4731 39.7853 37.3602 39.6386C37.2473 39.4919 37.1645 39.3242 37.1166 39.1453C37.0522 38.9095 37.0197 38.2936 37.0191 37.2977V36.2476C37.0191 35.6014 37.0015 35.1803 36.9662 34.9844C36.9614 34.9482 36.9456 34.9143 36.921 34.8873C36.8963 34.8604 36.864 34.8416 36.8284 34.8337C36.6707 34.8121 36.5119 34.7986 36.3528 34.7933L36.3125 34.7528V34.48L36.3528 34.4396C36.6133 34.4553 37.0303 34.4634 37.6039 34.464C38.1887 34.464 38.6044 34.4559 38.8509 34.4396L38.8912 34.48V34.7528L38.8509 34.7933C38.6917 34.7986 38.533 34.8121 38.3753 34.8337C38.3397 34.8416 38.3074 34.8604 38.2827 34.8873C38.2581 34.9143 38.2423 34.9482 38.2375 34.9844C38.2022 35.1798 38.1845 35.6008 38.1845 36.2476V37.0855C38.1845 38.1123 38.2308 38.7405 38.3232 38.9701C38.5075 39.4265 38.9609 39.6545 39.6835 39.6539C40.1574 39.6539 40.5271 39.5374 40.7926 39.3044C40.9025 39.2123 40.9911 39.0974 41.0523 38.9676C41.1137 38.7969 41.1519 38.6188 41.1657 38.4379C41.1902 38.2142 41.2026 37.9893 41.2027 37.7642V36.9145C41.2027 36.2038 41.1999 35.7182 41.1943 35.4577C41.199 35.2973 41.1826 35.1371 41.1455 34.9811C41.1318 34.9515 41.112 34.9251 41.0876 34.9035C41.0632 34.8819 41.0345 34.8656 41.0035 34.8556C40.8397 34.8165 40.672 34.7959 40.5036 34.7941L40.4633 34.7537V34.4808L40.5036 34.4404C40.7397 34.4564 40.9817 34.4648 41.2312 34.4648C41.4178 34.4648 41.7763 34.4567 42.3068 34.4404L42.3479 34.4808V34.7537Z" fill="black"/>
<path d="M48.3137 39.4712L48.1263 39.8863C47.5393 40.2049 46.8806 40.3676 46.2131 40.3587C44.7998 40.3587 43.8332 39.8484 43.3134 38.8278C43.0714 38.353 42.9472 37.8266 42.9513 37.2935C42.9513 36.4031 43.2465 35.6935 43.8369 35.1646C44.4413 34.6189 45.2658 34.3461 46.3105 34.3461C46.9756 34.3466 47.635 34.4696 48.2557 34.709L48.3086 34.7697C48.2097 35.2013 48.1535 35.6416 48.1406 36.0842L48.1036 36.1255H47.8641L47.8238 36.0808C47.8228 35.8519 47.8079 35.6233 47.7793 35.3962C47.4432 35.0139 46.9544 34.8227 46.3131 34.8227C45.6549 34.8227 45.139 35.0316 44.7653 35.4493C44.3917 35.8669 44.2021 36.4342 44.1965 37.1512C44.1965 38.1196 44.5295 38.8632 45.1955 39.3819C45.5501 39.6581 46.0263 39.7965 46.6239 39.7971C47.1802 39.7926 47.7263 39.6478 48.212 39.376L48.3137 39.4712Z" fill="black"/>
<path d="M53.955 34.4648C53.9218 34.6707 53.9041 34.8787 53.9021 35.0872L53.8937 35.7667L53.8534 35.808H53.6013L53.5568 35.771C53.5553 35.5667 53.5404 35.3627 53.5122 35.1604C53.4939 35.1056 53.4591 35.0579 53.4126 35.0236C53.3662 34.9894 53.3103 34.9704 53.2526 34.9693C53.1966 34.9608 52.942 34.9566 52.4888 34.9566H51.9444C51.9393 35.0521 51.9365 35.4293 51.936 36.0884V38.4C51.936 39.0456 51.9536 39.4667 51.9889 39.6632C51.9935 39.6996 52.0093 39.7337 52.0342 39.7607C52.059 39.7877 52.0917 39.8063 52.1275 39.8139C52.2849 39.836 52.4434 39.8495 52.6023 39.8543L52.6426 39.8956V40.1684L52.6023 40.2088C52.3339 40.1926 51.9169 40.1844 51.3512 40.1844C50.7725 40.1844 50.3558 40.1926 50.1009 40.2088L50.0639 40.1718V39.8956L50.1042 39.8543C50.2634 39.8495 50.4221 39.836 50.5798 39.8139C50.6155 39.806 50.6478 39.7874 50.6725 39.7604C50.6972 39.7334 50.7129 39.6994 50.7176 39.6632C50.7529 39.4678 50.7705 39.0467 50.7705 38.4V36.0884C50.7705 35.4181 50.7666 35.0408 50.7588 34.9566H50.1773C49.6934 34.9566 49.4105 34.9718 49.3287 35.0021C49.2934 35.0125 49.2623 35.0337 49.2396 35.0627C49.2055 35.1456 49.1848 35.2335 49.1783 35.323C49.1598 35.467 49.1472 35.6152 49.1422 35.7667L49.1018 35.808H48.8456L48.801 35.7667L48.7926 35.0712C48.7896 34.8682 48.7734 34.6657 48.7439 34.4648L48.7809 34.4236C48.9405 34.4505 49.5225 34.4643 50.5269 34.4648H52.1721C53.098 34.4648 53.68 34.4511 53.9181 34.4236L53.955 34.4648Z" fill="black"/>
<path d="M57.0293 40.1684L56.9923 40.2088C56.7218 40.1926 56.3036 40.1844 55.7379 40.1844C55.1721 40.1844 54.7551 40.1926 54.4868 40.2088L54.4473 40.1684V39.8956L54.4884 39.8543C54.6473 39.8495 54.8058 39.836 54.9632 39.8139C54.9989 39.8063 55.0314 39.7877 55.0561 39.7606C55.0808 39.7336 55.0965 39.6995 55.101 39.6632C55.1363 39.4678 55.1539 39.0467 55.1539 38.4V36.2476C55.1539 35.6014 55.1363 35.1803 55.101 34.9844C55.0964 34.9481 55.0807 34.9141 55.056 34.8871C55.0313 34.8601 54.9989 34.8414 54.9632 34.8337C54.8057 34.8121 54.6473 34.7986 54.4884 34.7933L54.4473 34.7528V34.4758L54.4884 34.4396C54.7478 34.4553 55.1645 34.4634 55.7387 34.464C56.3129 34.4646 56.7285 34.4564 56.9856 34.4396L57.0268 34.4758V34.7528L56.9856 34.7933C56.8268 34.7986 56.6683 34.8121 56.5109 34.8337C56.4751 34.8414 56.4425 34.86 56.4177 34.887C56.3929 34.914 56.377 34.948 56.3722 34.9844C56.3375 35.1798 56.3202 35.6008 56.3202 36.2476V38.4C56.3202 39.0456 56.3375 39.4667 56.3722 39.6632C56.3769 39.6996 56.3927 39.7337 56.4175 39.7607C56.4424 39.7877 56.475 39.8063 56.5109 39.8139C56.6683 39.836 56.8268 39.8495 56.9856 39.8543L57.0268 39.8956L57.0293 40.1684Z" fill="black"/>
<path d="M63.905 37.1756C63.905 38.1771 63.614 38.9631 63.032 39.5335C62.4657 40.0865 61.6927 40.3632 60.713 40.3638C59.787 40.3638 59.0588 40.1025 58.5283 39.5798C57.9979 39.0571 57.734 38.3307 57.7368 37.4004C57.7368 36.0952 58.2337 35.1913 59.2274 34.6888C59.6795 34.4643 60.2357 34.3503 60.8961 34.3469C61.8417 34.3469 62.5769 34.5954 63.1017 35.0922C63.6378 35.5963 63.9056 36.2908 63.905 37.1756ZM62.6539 37.3895C62.6539 36.6035 62.4962 35.9787 62.1808 35.5149C61.8655 35.0512 61.4033 34.8199 60.7945 34.8211C59.9895 34.8211 59.4574 35.1834 59.198 35.9082C59.0576 36.3096 58.9888 36.7326 58.9947 37.1579C58.9947 37.9955 59.149 38.6574 59.4576 39.1436C59.7775 39.6488 60.2556 39.9015 60.8919 39.9015C61.6633 39.9015 62.1817 39.52 62.4472 38.7571C62.5923 38.3161 62.6621 37.8537 62.6539 37.3895Z" fill="black"/>
<path d="M70.948 34.7537L70.9026 34.7941C70.7438 34.7994 70.5853 34.8129 70.4279 34.8345C70.3922 34.8423 70.3597 34.8609 70.335 34.8879C70.3104 34.9149 70.2947 34.9489 70.2901 34.9853C70.2548 35.1806 70.2371 35.6017 70.2371 36.2484V37.9006C70.2371 39.1194 70.2548 39.9133 70.2901 40.2821L70.2371 40.3183C69.9313 40.2672 69.6997 40.2307 69.5423 40.2088C68.8169 39.392 67.5781 37.902 65.8259 35.7389V38.4C65.8259 39.0456 65.8435 39.4667 65.8788 39.6632C65.8835 39.6996 65.8993 39.7337 65.9241 39.7607C65.949 39.7877 65.9816 39.8063 66.0175 39.8139C66.1749 39.836 66.3333 39.8495 66.4922 39.8543L66.5325 39.8956V40.1684L66.4922 40.2055C66.1813 40.1892 65.8917 40.1811 65.6234 40.1811C65.3114 40.1811 64.9986 40.1892 64.6849 40.2055L64.6445 40.1684V39.8922L64.6849 39.8509C64.844 39.8461 65.0028 39.8326 65.1604 39.8105C65.1961 39.8027 65.2285 39.784 65.2531 39.757C65.2778 39.73 65.2936 39.6961 65.2982 39.6598C65.3335 39.4644 65.3512 39.0434 65.3512 38.3966V36.2476C65.3512 35.6014 65.3335 35.1803 65.2982 34.9844C65.2934 34.9482 65.2776 34.9143 65.253 34.8873C65.2284 34.8604 65.196 34.8416 65.1604 34.8337C65.0027 34.8121 64.844 34.7986 64.6849 34.7933L64.6445 34.7528V34.4758L64.6849 34.4396C64.942 34.4553 65.187 34.4634 65.4201 34.464C65.7853 34.464 66.0886 34.4559 66.33 34.4396C67.3047 35.7415 68.45 37.1374 69.7658 38.6274V36.2476C69.7658 35.6014 69.7481 35.1803 69.7128 34.9844C69.708 34.9482 69.6922 34.9143 69.6676 34.8873C69.643 34.8604 69.6106 34.8416 69.575 34.8337C69.4173 34.8121 69.2586 34.7986 69.0995 34.7933L69.0591 34.7528V34.4758L69.0995 34.4396C69.4031 34.4553 69.6916 34.4634 69.9649 34.464C70.3144 34.464 70.6279 34.4556 70.9068 34.4396L70.948 34.4758V34.7537Z" fill="black"/>
<path d="M0.40594 46.7882L0.431147 46.7638H0.588271L0.612637 46.7882C0.613068 46.9522 0.627121 47.1158 0.654649 47.2775C0.688782 47.3567 0.747783 47.4227 0.822696 47.4653C0.938399 47.54 1.06599 47.5944 1.19996 47.6261C1.35514 47.6673 1.51499 47.6883 1.67554 47.6884C1.88009 47.6918 2.08289 47.6502 2.26958 47.5663C2.43881 47.4907 2.5816 47.366 2.67962 47.2084C2.77771 47.0494 2.82844 46.8656 2.82582 46.6787C2.82863 46.5554 2.80454 46.433 2.75524 46.32C2.7127 46.2222 2.64517 46.1374 2.55947 46.0741C2.47165 46.0111 2.37314 45.9646 2.26874 45.9368C2.10948 45.8958 1.94822 45.8629 1.78561 45.8383C1.57779 45.8058 1.41506 45.7757 1.29743 45.7482C1.17641 45.7193 1.05892 45.6773 0.947052 45.6227C0.836838 45.5712 0.737778 45.4986 0.65549 45.4088C0.5734 45.3153 0.509812 45.207 0.468118 45.0897C0.421053 44.9602 0.397436 44.8233 0.398378 44.6855C0.392932 44.5059 0.426306 44.3273 0.496212 44.1619C0.566118 43.9965 0.670901 43.8482 0.803371 43.7272C1.07393 43.4785 1.43803 43.3541 1.89568 43.3541C2.09351 43.3564 2.29059 43.379 2.48384 43.4215C2.68523 43.4625 2.88061 43.529 3.06529 43.6194L3.08714 43.6573C3.03256 43.9267 3.00442 44.2009 3.00311 44.4758L2.97454 44.501H2.81238L2.78717 44.4792C2.78717 44.2265 2.77709 44.0716 2.76868 44.0076C2.76028 43.9436 2.66618 43.8627 2.48469 43.7667C2.30354 43.6707 2.10144 43.6212 1.89652 43.6227C1.72554 43.6216 1.55637 43.6578 1.40078 43.7288C1.24931 43.7978 1.12595 43.9167 1.05124 44.0657C0.97455 44.2089 0.933885 44.3688 0.932769 44.5314C0.930627 44.6445 0.955397 44.7565 1.00503 44.8581C1.04759 44.9472 1.11136 45.0244 1.19072 45.0829C1.27043 45.1405 1.36021 45.1825 1.4554 45.2067C1.55622 45.2337 1.7408 45.2671 2.00911 45.3069C2.28343 45.3358 2.55302 45.3992 2.81154 45.4956C2.97835 45.5691 3.11878 45.6919 3.21401 45.8476C3.31893 46.0227 3.37143 46.2244 3.36525 46.4286C3.36741 46.6429 3.31962 46.8548 3.22568 47.0473C3.13173 47.2399 2.99424 47.4078 2.82414 47.5377C2.45386 47.8373 1.98907 47.9946 1.51337 47.9815C1.12228 47.9895 0.734363 47.9095 0.378212 47.7474L0.358887 47.7061C0.390195 47.4011 0.4059 47.0948 0.40594 46.7882Z" fill="black"/>
<path d="M3.66099 45.7103C3.65847 45.4133 3.70387 45.1179 3.79543 44.8354C3.8905 44.5544 4.04629 44.2979 4.25167 44.0842C4.46975 43.8521 4.73511 43.6697 5.02973 43.5495C5.35695 43.4187 5.7068 43.3543 6.05902 43.36C6.76706 43.36 7.33142 43.5534 7.7521 43.9402C8.17278 44.327 8.38284 44.8545 8.38228 45.5225C8.38923 45.9651 8.28277 46.402 8.07307 46.7916C7.86986 47.1625 7.56253 47.4656 7.18914 47.6632C6.79155 47.8748 6.34701 47.9823 5.89686 47.9756C5.57726 47.9797 5.25983 47.9226 4.96167 47.8072C4.68276 47.6982 4.43325 47.5251 4.23319 47.3019C4.03214 47.0768 3.88323 46.8099 3.79711 46.5204C3.71184 46.2587 3.66597 45.9856 3.66099 45.7103ZM4.30965 45.504C4.31313 45.7818 4.35469 46.0578 4.43316 46.3242C4.50494 46.5973 4.63003 46.8535 4.80119 47.0779C4.95027 47.2753 5.14334 47.4351 5.36499 47.5444C5.6173 47.656 5.89184 47.7079 6.16737 47.696C6.44289 47.6842 6.71201 47.609 6.95387 47.4762C7.21561 47.3158 7.4173 47.0734 7.52776 46.7865C7.66303 46.4539 7.72991 46.0973 7.72437 45.7381C7.73034 45.3464 7.65361 44.9578 7.49919 44.5979C7.37399 44.2869 7.14941 44.0263 6.86061 43.8568C6.57772 43.7008 6.25919 43.6213 5.93635 43.6261C5.43221 43.6261 5.03421 43.7844 4.74237 44.1011C4.45053 44.4177 4.30629 44.8853 4.30965 45.504Z" fill="black"/>
<path d="M8.64697 43.4695L8.67218 43.4476C9.18696 43.4644 9.48413 43.4728 9.56367 43.4728C9.63425 43.4728 9.93253 43.4644 10.4585 43.4476L10.4837 43.4695V43.6261L10.4585 43.648C10.3148 43.648 10.2065 43.6581 10.1266 43.6665C10.0679 43.6698 10.0105 43.6859 9.95858 43.7137C9.93653 43.7343 9.9189 43.7592 9.90676 43.7868C9.89463 43.8145 9.88824 43.8443 9.888 43.8745C9.87482 43.9911 9.86921 44.1084 9.8712 44.2257L9.86447 44.9448V46.3259C9.86447 46.6723 9.86672 46.914 9.8712 47.0509L9.88632 47.5916H10.5224C11.0299 47.5916 11.3464 47.5854 11.4718 47.573C11.5969 47.5606 11.7195 47.53 11.8357 47.4821C11.8769 47.3648 11.9095 47.2446 11.9331 47.1225C11.976 46.9356 11.9987 46.8269 12.0004 46.7975L12.0289 46.773H12.1835L12.2045 46.7975C12.1886 46.8817 12.1709 47.0425 12.1533 47.2825C12.1356 47.5225 12.1272 47.7154 12.1272 47.8636L12.102 47.8888C11.7099 47.8759 11.1912 47.8695 10.5459 47.8695L9.63593 47.8636C9.42755 47.8636 9.21553 47.872 8.99987 47.8888L8.97466 47.8636V47.76L8.99987 47.7288C9.07391 47.6948 9.14477 47.6542 9.21161 47.6076C9.23803 47.4748 9.25098 47.3396 9.25026 47.2042C9.26371 46.9499 9.27043 46.6436 9.27043 46.2855V44.9448L9.26455 44.3352C9.26455 44.0977 9.25698 43.9444 9.24774 43.8762C9.24501 43.8272 9.22998 43.7797 9.20405 43.7381C9.17196 43.7091 9.13234 43.6899 9.08978 43.6825C8.95284 43.6599 8.81432 43.6484 8.67554 43.648L8.65033 43.6261L8.64697 43.4695Z" fill="black"/>
<path d="M12.5254 43.4695L12.5506 43.4476C13.0665 43.4644 13.3631 43.4728 13.4421 43.4728C13.5211 43.4728 13.8118 43.4644 14.3369 43.4476L14.3621 43.4695V43.6261L14.3369 43.648C14.1941 43.648 14.0849 43.6581 14.005 43.6665C13.9463 43.6698 13.8889 43.6859 13.837 43.7137C13.815 43.7343 13.7974 43.7592 13.7854 43.7868C13.7734 43.8145 13.7672 43.8444 13.7673 43.8745C13.7537 43.9911 13.7478 44.1084 13.7496 44.2257L13.7437 44.9448V45.9385C13.7437 46.2653 13.7505 46.5053 13.7639 46.6585C13.7712 46.7913 13.7996 46.9221 13.8479 47.0459C13.8929 47.1519 13.963 47.2452 14.0521 47.3179C14.1686 47.4065 14.3022 47.4699 14.4445 47.504C14.6339 47.5543 14.8292 47.5783 15.0251 47.5756C15.2422 47.5776 15.4582 47.5455 15.6654 47.4804C15.8392 47.4322 15.9962 47.3365 16.1191 47.2042C16.2302 47.0675 16.3009 46.9024 16.3233 46.7276C16.3603 46.4558 16.3766 46.1816 16.372 45.9074V44.9448C16.372 44.782 16.3692 44.5575 16.3636 44.2712C16.358 43.9848 16.3457 43.8212 16.3266 43.7802C16.3037 43.7352 16.2647 43.7006 16.2174 43.6834C16.0726 43.6517 15.9244 43.6387 15.7763 43.6446L15.7511 43.6194V43.4728L15.7763 43.4442C16.0838 43.4611 16.33 43.4695 16.5148 43.4695C16.6728 43.4695 16.9181 43.4611 17.2509 43.4442L17.2794 43.4695V43.6211L17.2509 43.6463C17.1233 43.6456 16.9959 43.6535 16.8694 43.6699C16.8238 43.6753 16.7805 43.693 16.7442 43.7213C16.7171 43.751 16.6987 43.7877 16.6913 43.8274C16.6735 43.9642 16.6657 44.1021 16.6678 44.24L16.6585 44.9432V45.8947C16.6629 46.1943 16.6483 46.4939 16.6148 46.7916C16.5955 46.9847 16.5285 47.1699 16.4199 47.3305C16.3219 47.4685 16.2004 47.5882 16.0611 47.6842C15.8989 47.7889 15.7189 47.8629 15.5301 47.9023C15.3097 47.9539 15.0842 47.9796 14.8579 47.9789C14.5975 47.983 14.3379 47.9504 14.0865 47.8821C13.8953 47.8343 13.7155 47.7484 13.558 47.6295C13.4417 47.5391 13.3468 47.4241 13.2799 47.2926C13.2203 47.1612 13.1837 47.0205 13.1715 46.8766C13.1547 46.7177 13.1463 46.4747 13.1463 46.1474V44.9448L13.1396 44.3352C13.1396 44.0977 13.132 43.9444 13.1228 43.8762C13.1205 43.8271 13.1054 43.7795 13.0791 43.7381C13.0474 43.7091 13.008 43.6898 12.9657 43.6825C12.8285 43.66 12.6897 43.6484 12.5506 43.648L12.5254 43.6261V43.4695Z" fill="black"/>
<path d="M21.1631 43.4476L21.1908 43.4762C21.1723 43.6632 21.1631 43.9907 21.1631 44.4573L21.1379 44.4825H20.9917L20.9665 44.4539L20.932 44.1667C20.9239 44.0718 20.911 43.9774 20.8934 43.8838C20.8871 43.8544 20.8711 43.828 20.848 43.8088C20.7836 43.7832 20.7148 43.7701 20.6455 43.7701C20.5312 43.7592 20.4027 43.7541 20.2615 43.7541H19.6734C19.6566 44.2246 19.6482 44.4966 19.6482 44.5701V46.3916L19.6549 47.0013C19.6549 47.2362 19.6624 47.3895 19.6717 47.4585C19.6735 47.5077 19.6886 47.5554 19.7154 47.5966C19.7475 47.625 19.7867 47.6442 19.8288 47.6522C19.9676 47.6763 20.1081 47.6884 20.2489 47.6884L20.2708 47.7069V47.8636L20.2489 47.8888C19.7162 47.872 19.4196 47.8636 19.3566 47.8636C19.2936 47.8636 18.9944 47.872 18.4685 47.8888L18.4433 47.8636V47.7069L18.4685 47.6884C18.5984 47.6858 18.728 47.6754 18.8567 47.6573C18.9026 47.6518 18.9465 47.635 18.9844 47.6084C19.0139 47.5722 19.0328 47.5285 19.039 47.4821C19.0583 47.3392 19.0656 47.195 19.0608 47.0509L19.0667 46.3916V44.5701C19.0667 44.5364 19.0586 44.2644 19.0423 43.7541H18.5777C18.3861 43.7541 18.2209 43.7583 18.082 43.7667C17.9425 43.7752 17.8618 43.7962 17.84 43.8307C17.8028 43.9393 17.7824 44.0529 17.7795 44.1676L17.7484 44.4547L17.7198 44.4834H17.5761L17.5518 44.4581C17.5476 43.9528 17.5383 43.6286 17.5232 43.477L17.5518 43.4484C17.9131 43.4653 18.5147 43.4737 19.3566 43.4737C20.2136 43.4731 20.8158 43.4644 21.1631 43.4476Z" fill="black"/>
<path d="M21.4965 43.4476L21.8864 43.4602C22.1418 43.4686 22.3099 43.4728 22.3905 43.4728C22.4712 43.4728 22.7695 43.4644 23.2854 43.4476L23.3106 43.4695V43.6261L23.2854 43.648C23.1417 43.648 23.0333 43.6581 22.9493 43.6665C22.8905 43.6698 22.8332 43.6859 22.7813 43.7137C22.7592 43.7343 22.7416 43.7592 22.7294 43.7868C22.7173 43.8145 22.7109 43.8443 22.7107 43.8745C22.6979 43.9911 22.6923 44.1084 22.6939 44.2257L22.6871 44.9448V46.3916V47.0013C22.6856 47.1533 22.6917 47.3054 22.7056 47.4568C22.7094 47.5059 22.725 47.5533 22.751 47.5949C22.7831 47.6242 22.8226 47.644 22.8653 47.6522C23.0021 47.6762 23.1407 47.6883 23.2795 47.6884L23.3047 47.7069V47.8636L23.2795 47.8888L22.7308 47.8695C22.583 47.8653 22.4678 47.8636 22.3847 47.8636C22.32 47.8636 22.0234 47.872 21.4932 47.8888L21.468 47.8636V47.7069L21.4932 47.6884C21.6225 47.6858 21.7516 47.6753 21.8797 47.6573C21.9262 47.6521 21.9707 47.6353 22.0091 47.6084C22.0385 47.5723 22.0569 47.5285 22.062 47.4821C22.0804 47.3392 22.0882 47.195 22.0855 47.0509V46.3916V44.9448L22.0788 44.3352C22.0788 44.0977 22.0713 43.9444 22.062 43.8762C22.0593 43.8272 22.0442 43.7797 22.0183 43.7381C21.9862 43.7091 21.9466 43.6899 21.904 43.6825C21.7671 43.6599 21.6286 43.6484 21.4898 43.648L21.4646 43.6261V43.4695L21.4965 43.4476Z" fill="black"/>
<path d="M23.6107 45.7103C23.6083 45.4134 23.6534 45.118 23.7443 44.8354C23.8398 44.5544 23.9958 44.2979 24.2014 44.0842C24.4191 43.8517 24.6846 43.6693 24.9794 43.5495C25.3064 43.4187 25.6559 43.3543 26.0079 43.36C26.717 43.36 27.2814 43.5534 27.701 43.9402C28.1205 44.327 28.3306 44.8545 28.3311 45.5225C28.3381 45.9651 28.2316 46.402 28.0219 46.7916C27.8194 47.1624 27.5126 47.4655 27.1397 47.6632C26.7421 47.8748 26.2975 47.9823 25.8474 47.9756C25.5278 47.9797 25.2104 47.9226 24.9122 47.8072C24.6333 47.6982 24.3838 47.5251 24.1837 47.3019C23.9833 47.0764 23.8345 46.8096 23.7476 46.5204C23.662 46.2587 23.6159 45.9857 23.6107 45.7103ZM24.2585 45.504C24.262 45.7818 24.3035 46.0578 24.382 46.3242C24.4545 46.5971 24.5795 46.8531 24.75 47.0779C24.8993 47.2755 25.0926 47.4353 25.3147 47.5444C25.5425 47.6502 25.7913 47.7026 26.0423 47.6977C26.3438 47.7029 26.6411 47.6264 26.9027 47.4762C27.1647 47.316 27.3664 47.0736 27.4766 46.7865C27.6119 46.4539 27.6788 46.0973 27.6732 45.7381C27.679 45.3465 27.6026 44.958 27.4489 44.5979C27.3235 44.2867 27.0986 44.0261 26.8095 43.8568C26.5278 43.7016 26.2108 43.6221 25.8894 43.6261C25.3853 43.6261 24.9873 43.7844 24.6954 44.1011C24.4036 44.4177 24.2591 44.8853 24.2619 45.504H24.2585Z" fill="black"/>
<path d="M28.69 47.8855L28.6622 47.8568V47.7137L28.69 47.6884C28.7917 47.6885 28.8934 47.6812 28.9941 47.6665C29.0487 47.6639 29.1006 47.6418 29.1403 47.6042C29.1664 47.5617 29.1815 47.5134 29.184 47.4636C29.1916 47.3987 29.1983 47.2531 29.2059 47.0257C29.2134 46.7983 29.2168 46.6366 29.2168 46.5381V44.0118C29.2231 43.929 29.2027 43.8464 29.1588 43.776C29.1205 43.725 29.0644 43.6904 29.0017 43.6792C28.8904 43.6624 28.7781 43.6546 28.6656 43.6556L28.6404 43.6303V43.4838L28.6656 43.4552C28.9518 43.4658 29.1398 43.4712 29.2294 43.4712C29.4394 43.4712 29.612 43.4658 29.747 43.4552L30.7418 44.7495L32.2038 46.5869C32.3808 46.8115 32.5606 47.0229 32.7433 47.2211V44.8042C32.7433 44.7293 32.7433 44.5693 32.7323 44.3242C32.7214 44.0792 32.7164 43.9242 32.7063 43.8585C32.7031 43.8096 32.6839 43.7632 32.6517 43.7263C32.6084 43.6964 32.5579 43.6784 32.5055 43.6741C32.4088 43.6614 32.3114 43.6546 32.2139 43.6539L32.1887 43.6295V43.4855L32.2139 43.4568C32.382 43.4675 32.622 43.4728 32.934 43.4728C33.2186 43.4728 33.4253 43.4675 33.5541 43.4568L33.5827 43.4855V43.6295L33.5574 43.6539C33.4509 43.6539 33.3444 43.6618 33.239 43.6775C33.2123 43.6788 33.1862 43.6855 33.1621 43.697C33.138 43.7086 33.1164 43.7249 33.0987 43.7448C33.0769 43.7876 33.0637 43.8342 33.06 43.8821C33.0525 43.9427 33.0457 44.0867 33.0382 44.3133C33.0306 44.5398 33.0273 44.704 33.0273 44.8042V46.2888V47.1478C33.0312 47.4285 33.0354 47.7109 33.0399 47.9949C32.8626 47.9413 32.6825 47.8975 32.5004 47.8636L32.2786 47.6008L31.6148 46.7882L29.5008 44.1415V46.5381C29.5008 46.6341 29.5044 46.805 29.5117 47.0509C29.5122 47.2004 29.5209 47.3496 29.5378 47.4981C29.5431 47.5367 29.5572 47.5736 29.5789 47.6059C29.6094 47.6332 29.6465 47.6521 29.6865 47.6606C29.7987 47.683 29.9132 47.6923 30.0276 47.6884L30.0528 47.7137V47.8602L30.0276 47.8855C29.8535 47.8675 29.6784 47.8602 29.5033 47.8636C29.1941 47.8636 28.9227 47.8703 28.69 47.8855Z" fill="black"/>
<path d="M34.0372 46.7882L34.0624 46.7638H34.2153L34.2397 46.7882C34.2401 46.9522 34.2542 47.1158 34.2817 47.2775C34.3158 47.3567 34.3748 47.4227 34.4497 47.4653C34.5654 47.54 34.693 47.5944 34.827 47.6261C34.9822 47.6673 35.142 47.6882 35.3026 47.6884C35.5071 47.6918 35.7099 47.6502 35.8966 47.5663C36.0658 47.4907 36.2086 47.366 36.3067 47.2084C36.4047 47.0494 36.4555 46.8656 36.4529 46.6787C36.4555 46.5555 36.4318 46.4332 36.3831 46.32C36.34 46.2223 36.2722 46.1376 36.1865 46.0741C36.0994 46.0114 36.0018 45.9649 35.8983 45.9368C35.7387 45.8959 35.5772 45.863 35.4143 45.8383C35.2068 45.8055 35.0438 45.7752 34.927 45.7482C34.8057 45.7193 34.6879 45.6773 34.5758 45.6227C34.4657 45.571 34.3667 45.4984 34.2842 45.4088C34.2021 45.3155 34.1387 45.2071 34.0977 45.0897C34.0499 44.9603 34.026 44.8234 34.0271 44.6855C34.0217 44.5059 34.055 44.3273 34.1249 44.1619C34.1948 43.9965 34.2996 43.8482 34.4321 43.7272C34.7026 43.4785 35.0667 43.3541 35.5244 43.3541C35.7222 43.3564 35.9193 43.379 36.1126 43.4215C36.314 43.4625 36.5093 43.529 36.694 43.6194L36.7159 43.6573C36.6613 43.9267 36.6331 44.2009 36.6318 44.4758L36.6033 44.501H36.4411L36.4167 44.4792C36.4167 44.2265 36.4058 44.0716 36.3974 44.0076C36.389 43.9436 36.2949 43.8627 36.1142 43.7667C35.933 43.6708 35.731 43.6214 35.5261 43.6227C35.3551 43.6216 35.1859 43.6578 35.0303 43.7288C34.8791 43.7978 34.756 43.9167 34.6816 44.0657C34.605 44.2089 34.5643 44.3688 34.5632 44.5314C34.5608 44.6444 34.5852 44.7564 34.6346 44.8581C34.6772 44.9472 34.7409 45.0244 34.8203 45.0829C34.9 45.1405 34.9898 45.1825 35.085 45.2067C35.1858 45.2337 35.3704 45.2671 35.6387 45.3069C35.913 45.3358 36.1826 45.3992 36.4411 45.4956C36.6081 45.5688 36.7485 45.6917 36.8436 45.8476C36.9485 46.0227 37.001 46.2244 36.9948 46.4286C36.997 46.6429 36.9492 46.8548 36.8552 47.0473C36.7613 47.2399 36.6238 47.4078 36.4537 47.5377C36.0834 47.8373 35.6186 47.9946 35.1429 47.9815C34.7524 47.9893 34.3651 47.9093 34.0095 47.7474L33.991 47.7061C34.0111 47.5789 34.0296 47.2699 34.0372 46.7882Z" fill="black"/>
<path d="M43.4099 46.16V46.2543L43.3973 46.2914L43.2452 46.3823C43.2195 46.3946 43.197 46.4128 43.1797 46.4354C43.166 46.4965 43.1581 46.5588 43.1561 46.6215C43.1469 46.7326 43.1418 46.869 43.1418 47.029C43.1429 47.226 43.1544 47.4228 43.1763 47.6185L43.1578 47.6505C42.5975 47.867 42.0022 47.978 41.4017 47.9781C40.9707 47.9845 40.5436 47.8948 40.1514 47.7154C39.787 47.5478 39.4793 47.2774 39.2658 46.9373C39.0414 46.5692 38.9279 46.144 38.939 45.7128C38.939 44.992 39.1846 44.4191 39.6759 43.9941C40.1671 43.5691 40.8091 43.3566 41.6017 43.3566C42.1392 43.3479 42.6729 43.4487 43.1704 43.6531L43.1914 43.6876C43.1308 43.9775 43.0873 44.2708 43.0612 44.5659L43.036 44.5878H42.8923L42.8679 44.5625L42.852 44.2316C42.851 44.1674 42.8443 44.1034 42.8318 44.0404C42.8152 44.0112 42.7922 43.9862 42.7646 43.9672C42.6739 43.9092 42.5773 43.8612 42.4764 43.824C42.3264 43.7599 42.1701 43.7116 42.01 43.68C41.8438 43.6487 41.675 43.6335 41.5059 43.6345C41.1557 43.6289 40.8097 43.7111 40.4993 43.8737C40.2105 44.0276 39.9785 44.2702 39.8372 44.5659C39.6857 44.8809 39.6092 45.2268 39.6137 45.5764C39.611 45.9469 39.6932 46.3131 39.854 46.6467C40.0041 46.9661 40.2434 47.2349 40.543 47.4206C40.858 47.6101 41.2201 47.7065 41.5874 47.6985C41.7648 47.6982 41.9418 47.681 42.1159 47.6472C42.2706 47.6214 42.4204 47.5723 42.5604 47.5015C42.5848 47.3688 42.5944 47.2338 42.589 47.0989V46.752C42.5967 46.6482 42.5859 46.5438 42.557 46.4438C42.539 46.4194 42.516 46.3992 42.4894 46.3847C42.4629 46.3702 42.4335 46.3616 42.4033 46.3596C42.2269 46.3365 42.0492 46.3261 41.8714 46.3284L41.8437 46.3006V46.1625L41.8714 46.1347L42.0613 46.1406C42.3881 46.1516 42.6495 46.1566 42.8595 46.1566C42.9777 46.1566 43.1514 46.1505 43.3805 46.1381L43.4099 46.16Z" fill="black"/>
<path d="M43.7436 43.4695L43.7688 43.4476C44.1495 43.4644 44.4452 43.4728 44.6578 43.4728C44.8919 43.4728 45.2087 43.4655 45.6081 43.4509C45.756 43.4467 45.8602 43.445 45.9299 43.445C46.4559 43.445 46.8124 43.5408 46.9995 43.7322C47.0895 43.8211 47.1607 43.9272 47.2089 44.0443C47.2572 44.1613 47.2814 44.2869 47.2802 44.4135C47.2786 44.5942 47.2312 44.7715 47.1424 44.9288C47.0451 45.1044 46.906 45.2531 46.7374 45.3617C46.5112 45.5 46.2599 45.5919 45.998 45.632C46.0568 45.7162 46.161 45.8543 46.3131 46.0531L46.7559 46.6425C46.8993 46.8362 47.053 47.0408 47.2172 47.2564C47.3813 47.472 47.4874 47.5938 47.5356 47.6219C47.5733 47.646 47.6148 47.6636 47.6583 47.6741C47.7126 47.6814 47.7674 47.6845 47.8221 47.6834L47.8473 47.7078V47.8552L47.8196 47.8829C47.7013 47.8695 47.5824 47.8633 47.4633 47.8644C47.3163 47.8644 47.155 47.8703 46.9802 47.8829C46.8374 47.7078 46.6133 47.4046 46.308 46.9735C45.9501 46.4744 45.5843 46.0109 45.2107 45.5832L45.2418 45.4863C45.3493 45.4922 45.4342 45.4956 45.4938 45.4956C45.8535 45.4956 46.1352 45.4091 46.3391 45.2362C46.4413 45.1476 46.522 45.0367 46.575 44.9121C46.628 44.7875 46.6519 44.6523 46.645 44.5171C46.645 44.2425 46.5534 44.0348 46.3702 43.8939C46.187 43.753 45.9397 43.6828 45.6283 43.6834C45.4191 43.6821 45.2109 43.7125 45.0107 43.7735C44.9799 43.8201 44.9645 44.2108 44.9645 44.9457V46.3916V47.0013C44.9626 47.1534 44.969 47.3055 44.9838 47.4568C44.987 47.5059 45.0023 47.5533 45.0283 47.5949C45.0604 47.6242 45.1 47.6441 45.1426 47.6522C45.2794 47.6761 45.418 47.6883 45.5569 47.6884L45.5821 47.7069V47.8636L45.5569 47.8888L45.0082 47.8695C44.8611 47.8653 44.7452 47.8636 44.662 47.8636C44.5981 47.8636 44.301 47.872 43.7705 47.8888L43.7453 47.8636V47.7069L43.7705 47.6884C43.8998 47.6858 44.0289 47.6753 44.157 47.6573C44.2036 47.6521 44.248 47.6353 44.2864 47.6084C44.3159 47.5723 44.3343 47.5285 44.3394 47.4821C44.3582 47.3392 44.366 47.1951 44.3629 47.0509V46.3916V44.9448L44.3562 44.3352C44.3562 44.0977 44.3486 43.9444 44.3394 43.8762C44.3366 43.8272 44.3216 43.7797 44.2957 43.7381C44.2638 43.7093 44.2245 43.69 44.1822 43.6825C44.045 43.66 43.9062 43.6484 43.7671 43.648L43.7419 43.6261L43.7436 43.4695Z" fill="black"/>
<path d="M48.0279 45.7103C48.0254 45.4133 48.0708 45.1179 48.1624 44.8354C48.2574 44.5544 48.4132 44.2979 48.6186 44.0842C48.8365 43.8519 49.1019 43.6695 49.3967 43.5495C49.7239 43.4187 50.0737 43.3543 50.426 43.36C51.1346 43.36 51.6989 43.5534 52.119 43.9402C52.5392 44.327 52.7492 44.8545 52.7492 45.5225C52.7562 45.9651 52.6497 46.402 52.44 46.7916C52.2368 47.1625 51.9295 47.4656 51.5561 47.6632C51.1585 47.8748 50.714 47.9823 50.2638 47.9756C49.9442 47.9798 49.6268 47.9226 49.3286 47.8072C49.0497 47.6982 48.8002 47.5251 48.6001 47.3019C48.3991 47.0768 48.2502 46.8099 48.164 46.5204C48.0788 46.2587 48.0329 45.9856 48.0279 45.7103ZM48.6766 45.504C48.6801 45.7818 48.7216 46.0578 48.8001 46.3242C48.8719 46.5973 48.997 46.8535 49.1681 47.0779C49.3172 47.2753 49.5103 47.4351 49.7319 47.5444C49.9842 47.656 50.2588 47.7079 50.5343 47.696C50.8098 47.6842 51.079 47.609 51.3208 47.4762C51.5826 47.3158 51.7842 47.0734 51.8947 46.7865C52.0311 46.4541 52.0991 46.0975 52.0947 45.7381C52.1002 45.3464 52.0235 44.9579 51.8695 44.5979C51.7443 44.2869 51.5197 44.0263 51.2309 43.8568C50.9492 43.7017 50.6323 43.6222 50.3109 43.6261C49.8067 43.6261 49.4087 43.7844 49.1169 44.1011C48.825 44.4177 48.6783 44.8853 48.6766 45.504Z" fill="black"/>
<path d="M52.9921 43.4695L53.0173 43.4476C53.5321 43.4644 53.8293 43.4728 53.9088 43.4728C53.9794 43.4728 54.2777 43.4644 54.8037 43.4476L54.8289 43.4695V43.6261L54.8037 43.648C54.66 43.648 54.5516 43.6581 54.4676 43.6665C54.4088 43.6698 54.3514 43.6859 54.2995 43.7137C54.2773 43.7342 54.2596 43.7591 54.2475 43.7867C54.2353 43.8144 54.229 43.8443 54.2289 43.8745C54.2158 43.9911 54.2101 44.1084 54.2121 44.2257L54.2054 44.9448V45.9385C54.2054 46.2653 54.2121 46.5053 54.2256 46.6585C54.2333 46.7912 54.2616 46.9219 54.3096 47.0459C54.3545 47.1519 54.4246 47.2452 54.5138 47.3179C54.6306 47.4065 54.7645 47.4699 54.907 47.504C55.0961 47.5542 55.2912 47.5783 55.4868 47.5756C55.7041 47.5775 55.9204 47.5454 56.1279 47.4804C56.3017 47.4322 56.4587 47.3365 56.5816 47.2042C56.692 47.0671 56.7627 46.9022 56.7858 46.7276C56.8224 46.4558 56.8385 46.1816 56.8337 45.9074V44.9448C56.8337 44.782 56.8311 44.5575 56.8261 44.2712C56.8211 43.9848 56.8085 43.8212 56.7883 43.7802C56.766 43.7351 56.7272 43.7004 56.6799 43.6834C56.5348 43.6518 56.3863 43.6387 56.2379 43.6446L56.2136 43.6194V43.4728L56.2379 43.4442C56.546 43.4611 56.7925 43.4695 56.9773 43.4695C57.1353 43.4695 57.3807 43.4611 57.7134 43.4442L57.7411 43.4695V43.6211L57.7134 43.6463C57.5856 43.6456 57.4579 43.6535 57.3311 43.6699C57.2857 43.6751 57.2426 43.6929 57.2067 43.7213C57.1789 43.7506 57.1605 43.7875 57.1538 43.8274C57.136 43.9642 57.1282 44.1021 57.1303 44.24L57.121 44.9432V45.8947C57.1249 46.1943 57.1103 46.4938 57.0773 46.7916C57.0576 46.9846 56.9906 47.1697 56.8824 47.3305C56.7841 47.4683 56.6627 47.588 56.5236 47.6842C56.3612 47.7889 56.1809 47.8629 55.9917 47.9023C55.7714 47.954 55.5458 47.9797 55.3196 47.9789C55.0589 47.9831 54.799 47.9505 54.5474 47.8821C54.3561 47.8341 54.1764 47.7482 54.0189 47.6295C53.9031 47.5388 53.8084 47.4238 53.7416 47.2926C53.6817 47.1612 53.6448 47.0205 53.6324 46.8766C53.6156 46.7178 53.6072 46.4747 53.6072 46.1474V44.9448L53.6013 44.3352C53.6013 44.0977 53.5937 43.9444 53.5845 43.8762C53.5814 43.8273 53.5664 43.7799 53.5408 43.7381C53.5087 43.7091 53.4691 43.6899 53.4265 43.6825C53.2896 43.66 53.151 43.6484 53.0123 43.648L52.9871 43.6261L52.9921 43.4695Z" fill="black"/>
<path d="M58.0493 43.4476C58.5737 43.4644 58.9072 43.4728 59.0501 43.4728C59.2461 43.4728 59.4654 43.4675 59.708 43.4568C59.9659 43.4493 60.1281 43.4451 60.1852 43.4451C60.4289 43.439 60.6722 43.4693 60.907 43.5352C61.095 43.5938 61.2601 43.7098 61.3792 43.8669C61.5064 44.0333 61.5725 44.2385 61.5666 44.448C61.5661 44.6371 61.5212 44.8235 61.4355 44.992C61.3487 45.1662 61.2241 45.3186 61.0708 45.4383C60.7972 45.6645 60.4525 45.7863 60.0978 45.7819C59.9534 45.7805 59.8094 45.7658 59.6676 45.7381L59.6147 45.5478L59.6424 45.5166C59.7671 45.5478 59.8947 45.5656 60.0231 45.5697C60.1454 45.5748 60.2675 45.5533 60.3807 45.5066C60.494 45.46 60.5959 45.3893 60.6793 45.2994C60.8498 45.1102 60.9402 44.8619 60.9314 44.6072C60.9373 44.4825 60.9176 44.358 60.8734 44.2413C60.8291 44.1247 60.7613 44.0184 60.6742 43.9293C60.5028 43.7608 60.2435 43.6766 59.8962 43.6766C59.6842 43.6804 59.4741 43.7162 59.2727 43.7827C59.2542 43.9439 59.245 44.3315 59.245 44.9457V46.3916V47.0013C59.2431 47.1534 59.2495 47.3055 59.2643 47.4568C59.2675 47.5059 59.2828 47.5533 59.3089 47.5949C59.341 47.6242 59.3805 47.6441 59.4231 47.6522C59.5599 47.6761 59.6985 47.6883 59.8374 47.6884L59.8626 47.707V47.8636L59.8374 47.8888C59.308 47.872 59.0097 47.8636 58.9425 47.8636C58.8719 47.8636 58.5753 47.872 58.051 47.8888L58.0258 47.8636V47.707L58.051 47.6884C58.1804 47.6858 58.3094 47.6754 58.4375 47.6573C58.4841 47.6521 58.5286 47.6353 58.5669 47.6084C58.5964 47.5723 58.6148 47.5285 58.6199 47.4821C58.6387 47.3392 58.6466 47.1951 58.6434 47.0509V46.3916V44.9448L58.6367 44.3352C58.6367 44.0977 58.6291 43.9444 58.6199 43.8762C58.6175 43.8272 58.6025 43.7795 58.5762 43.7381C58.5444 43.7091 58.5051 43.6898 58.4627 43.6825C58.3255 43.66 58.1867 43.6484 58.0477 43.648L58.0225 43.6261V43.4695L58.0493 43.4476Z" fill="black"/>
<path d="M63.2698 45.0745L63.516 45.0829C63.6774 45.088 63.7832 45.0905 63.8328 45.0905C63.8824 45.0905 64.0655 45.0855 64.3983 45.0745L64.4134 45.0888V45.1874L64.3983 45.2008C64.3075 45.2008 64.2378 45.2076 64.1882 45.2126C64.1506 45.2143 64.1139 45.2244 64.0807 45.2421C64.067 45.2553 64.056 45.2711 64.0485 45.2886C64.041 45.3061 64.0371 45.325 64.037 45.344C64.0285 45.4178 64.0248 45.492 64.0261 45.5663L64.0219 46.0202V46.9339V47.3187C64.0219 47.4678 64.0277 47.5638 64.0336 47.6067C64.0364 47.6367 64.0462 47.6655 64.0622 47.6909C64.0823 47.7099 64.1074 47.7227 64.1344 47.728C64.2211 47.7423 64.3088 47.7499 64.3966 47.7507L64.4117 47.7625V47.8611L64.3966 47.8771L64.0496 47.8653C63.9563 47.8653 63.8815 47.8653 63.8311 47.8653C63.7807 47.8653 63.6026 47.8703 63.2682 47.8813L63.2522 47.8653V47.7667L63.2682 47.755C63.3497 47.7531 63.4311 47.7464 63.5118 47.7347C63.5419 47.7319 63.5709 47.7215 63.5959 47.7044C63.6146 47.6801 63.626 47.6509 63.6286 47.6202C63.6407 47.5301 63.6458 47.4391 63.6438 47.3482V46.9314V46.0202V45.6354C63.6438 45.4855 63.6387 45.3886 63.6328 45.3448C63.6308 45.3149 63.6213 45.2859 63.6051 45.2606C63.5849 45.2422 63.5598 45.2299 63.5328 45.2253C63.4465 45.211 63.3591 45.2037 63.2715 45.2034L63.2556 45.1899V45.0914L63.2698 45.0745Z" fill="black"/>
<path d="M64.6403 47.877L64.6227 47.8594V47.7684L64.6403 47.7533C64.7047 47.7531 64.769 47.7484 64.8327 47.7389C64.8673 47.7375 64.9002 47.7234 64.9251 47.6994C64.9407 47.6738 64.9502 47.645 64.9529 47.6152C64.9571 47.5739 64.9621 47.4821 64.9663 47.3389C64.9705 47.1958 64.973 47.0931 64.973 47.0307V45.4316C64.9767 45.3793 64.9641 45.3273 64.9369 45.2825C64.9127 45.2505 64.8773 45.2288 64.8378 45.2219C64.7666 45.2112 64.6946 45.2061 64.6227 45.2067L64.6067 45.1907V45.0981L64.6227 45.0804C64.8041 45.0872 64.9226 45.0905 64.9789 45.0905C65.1117 45.0905 65.2209 45.0905 65.3058 45.0804L65.9343 45.8981L66.8585 47.0585C66.9706 47.1989 67.0843 47.3322 67.1997 47.4585V45.9309C67.1997 45.8838 67.1997 45.7827 67.1929 45.6286C67.1862 45.4745 67.182 45.376 67.1761 45.3339C67.1741 45.3028 67.162 45.2733 67.1417 45.2497C67.1141 45.233 67.083 45.2232 67.0509 45.2211C66.99 45.2127 66.9285 45.2085 66.8669 45.2084L66.8518 45.1924V45.1015L66.8669 45.0838C66.9736 45.0905 67.1249 45.0939 67.3223 45.0939C67.5021 45.0939 67.6324 45.0939 67.7139 45.0838L67.7315 45.1015V45.1924L67.7164 45.2084C67.6489 45.2079 67.5815 45.2127 67.5148 45.2227C67.4677 45.232 67.4383 45.2455 67.4265 45.2657C67.4128 45.2918 67.4045 45.3205 67.4022 45.3499C67.3971 45.3878 67.3929 45.4787 67.3879 45.6219C67.3828 45.7651 67.3812 45.8686 67.3812 45.9318V46.8699V47.4122C67.3845 47.5896 67.3873 47.7679 67.3896 47.9469C67.2774 47.9128 67.1636 47.8846 67.0484 47.8627L66.9089 47.6943L66.4888 47.1815L65.1537 45.5091V47.0248C65.1537 47.0855 65.1537 47.1933 65.1604 47.3491C65.1606 47.4433 65.1662 47.5375 65.1772 47.6312C65.1806 47.6555 65.1892 47.6787 65.2024 47.6994C65.2222 47.716 65.2455 47.7278 65.2705 47.7339C65.3416 47.7475 65.414 47.7534 65.4864 47.7516L65.5015 47.7667V47.8602L65.4864 47.8754C65.3764 47.8643 65.2659 47.8598 65.1554 47.8619C64.9593 47.863 64.7876 47.8681 64.6403 47.877Z" fill="black"/>
<path d="M70.6092 47.5301L70.5344 47.7137C70.2454 47.8616 69.9253 47.9381 69.6009 47.9368C69.127 47.9368 68.7421 47.8018 68.4464 47.5318C68.2999 47.3986 68.1842 47.2349 68.1074 47.0522C68.0306 46.8695 67.9946 46.6722 68.0019 46.4741C67.9958 46.1956 68.073 45.9216 68.2237 45.6876C68.3673 45.4661 68.5715 45.2907 68.8119 45.1823C69.0684 45.0675 69.3468 45.0101 69.6278 45.0139C69.8021 45.0138 69.9759 45.0325 70.1462 45.0695C70.2926 45.0988 70.4356 45.1431 70.573 45.2017L70.5873 45.2211C70.5392 45.3998 70.511 45.5834 70.5033 45.7684L70.4898 45.7836H70.3966L70.3815 45.7684L70.3613 45.4316C70.2574 45.351 70.1394 45.2905 70.0134 45.2531C69.8761 45.21 69.733 45.1884 69.5891 45.1891C69.3814 45.1854 69.1761 45.2347 68.9925 45.3322C68.8178 45.4262 68.6753 45.5705 68.5833 45.7465C68.4802 45.9524 68.4299 46.1807 68.4371 46.4109C68.4309 46.6525 68.4889 46.8915 68.6052 47.1032C68.7148 47.2971 68.8771 47.456 69.0732 47.5613C69.287 47.6719 69.525 47.7269 69.7656 47.7213C69.8785 47.7218 69.9911 47.7105 70.1017 47.6876C70.1941 47.6695 70.2843 47.6412 70.3705 47.6034C70.4428 47.5698 70.5117 47.5295 70.5764 47.4829L70.6092 47.5301Z" fill="black"/>
<path d="M34.2464 28.0657C34.4144 28.2594 34.5548 28.4362 34.7119 28.5996C34.7752 28.6458 34.846 28.6809 34.9211 28.7032C34.947 28.6324 34.9609 28.5579 34.9623 28.4825C34.9009 28.1086 34.8278 27.7364 34.7598 27.3642C34.7584 27.3381 34.7584 27.312 34.7598 27.2859C34.8514 27.3331 34.9278 27.3701 35.0119 27.4139C35.1455 27.4872 35.2396 27.4619 35.3085 27.3187C35.4236 27.0821 35.5479 26.8497 35.6849 26.5836C35.7992 26.8034 35.9025 26.9987 36.0025 27.1949C36.1705 27.5158 36.1705 27.5158 36.4806 27.3491C36.5117 27.3322 36.5444 27.3187 36.6167 27.2842C36.5663 27.5714 36.5226 27.8257 36.4772 28.08C36.4503 28.2307 36.4134 28.3798 36.3932 28.5314C36.3989 28.5947 36.4156 28.6566 36.4428 28.7141C36.5008 28.6931 36.5764 28.6888 36.6108 28.6484C36.7789 28.4699 36.9318 28.2813 37.0881 28.0994C37.1124 28.1095 37.1301 28.112 37.1326 28.1187C37.2469 28.5011 37.2166 28.4556 37.6006 28.3781L37.9922 28.2939C37.946 28.4766 37.9082 28.6383 37.8645 28.7992C37.7737 29.136 37.7729 29.136 38.0636 29.3297C38.0354 29.366 38.0045 29.4 37.9712 29.4316C37.6737 29.6842 37.383 29.952 37.073 30.1895C36.9049 30.3234 36.8427 30.4615 36.9284 30.6619C36.9467 30.719 36.9613 30.7772 36.9721 30.8362C36.1263 30.6497 35.2502 30.6497 34.4044 30.8362C34.4018 30.7884 34.4063 30.7404 34.4178 30.6939C34.5489 30.4522 34.4363 30.3032 34.2498 30.1541C33.9237 29.8964 33.6137 29.6185 33.3003 29.3533C33.3053 29.3305 33.3003 29.3137 33.3104 29.3095C33.5851 29.136 33.5843 29.136 33.5003 28.8135C33.4583 28.6509 33.4162 28.4867 33.3709 28.288L33.8624 28.3975C34.1145 28.4522 34.1288 28.4413 34.1985 28.2004C34.2086 28.1684 34.2246 28.1263 34.2464 28.0657Z" fill="#93C227"/>
<path d="M62.5439 29.6034H39.7734C40.0742 29.4164 40.3616 29.2337 40.6557 29.0568C40.7015 29.0396 40.751 29.0344 40.7994 29.0417C42.3796 29.0535 43.9603 29.0664 45.5417 29.0804C46.2643 29.0872 46.9877 29.1023 47.7103 29.1166C48.867 29.1402 50.024 29.1649 51.1813 29.1907C52.0776 29.2121 52.9713 29.2365 53.8625 29.264C54.994 29.2994 56.1261 29.3364 57.2588 29.3752C58.201 29.4088 59.1429 29.4459 60.0845 29.4863C60.9298 29.5225 61.7717 29.5663 62.5439 29.6034Z" fill="black"/>
<path d="M30.8509 29.6025H7.36377L9.96346 29.5082C10.997 29.4712 12.0307 29.4344 13.0648 29.3979C13.8423 29.3715 14.6195 29.3471 15.3964 29.3246C16.3022 29.2977 17.208 29.273 18.1138 29.2505C19.1607 29.2236 20.2073 29.1992 21.2537 29.1773C22.6687 29.1492 24.0834 29.1245 25.4978 29.1032C26.5212 29.0872 27.5437 29.0787 28.5671 29.0653C28.9873 29.0602 29.4116 29.0476 29.8342 29.045C29.9062 29.0439 29.9773 29.0619 30.0401 29.0973C30.3073 29.2564 30.5686 29.4257 30.8509 29.6025Z" fill="black"/>
<path d="M32.9305 17.1672C32.3226 18.258 31.5655 19.2583 30.6812 20.1389C29.9922 20.8268 29.2111 21.4155 28.3605 21.888C28.1387 22.0093 27.9269 22.1204 27.695 22.2248C27.5639 22.2855 27.4228 22.3461 27.2816 22.3933C26.2733 22.7983 25.1634 22.9903 23.9425 22.9903C22.2377 22.9903 20.7353 22.5693 19.4237 21.7061C18.1121 20.8429 17.1038 19.5933 16.367 17.9453C15.6301 16.2973 15.2578 14.2754 15.2578 11.9099C15.2578 9.54442 15.6309 7.52252 16.367 5.86442C17.103 4.20631 18.1222 2.96336 19.4237 2.10357C20.7253 1.24379 22.2377 0.810101 23.9425 0.810101C24.9037 0.80079 25.8603 0.942873 26.7775 1.23115C26.8121 1.24197 26.8458 1.25549 26.8783 1.27158H26.8876C27.1241 1.13895 27.3701 1.0241 27.6236 0.927997C27.7076 0.887576 27.7917 0.857259 27.8858 0.816838C27.9362 0.806733 27.9765 0.786523 28.0269 0.776418C27.9866 0.756207 27.9362 0.746101 27.8958 0.725891C26.8573 0.382312 25.3037 0.0682068 24.1333 0.0682068C21.763 0.0682068 19.8481 0.432838 18.3533 1.17052C16.4871 2.01263 14.9848 3.36421 13.8345 5.25473C12.6346 7.21628 12.0327 9.46049 12.0288 11.9874C12.0691 14.485 12.675 16.6686 13.8244 18.549C14.9738 20.4295 16.4871 21.7937 18.3533 22.6231C19.8464 23.3608 21.763 23.7347 24.1333 23.7347C25.4045 23.7347 26.554 23.5528 27.5631 23.1789C27.8051 23.088 28.0471 22.997 28.2689 22.896C28.3039 22.875 28.3411 22.8581 28.3798 22.8455C28.7252 22.6887 29.0617 22.5133 29.3881 22.32C29.4229 22.3015 29.4565 22.2809 29.4889 22.2585C29.741 22.1069 29.9729 21.9453 30.2048 21.7735C30.8986 21.2528 31.5332 20.6572 32.097 19.9975C32.5397 19.4718 32.9335 18.9067 33.2734 18.309C33.5557 17.8038 33.7271 17.4198 33.7977 17.1672H32.9305Z" fill="black"/>
<path d="M12.0902 18.3907C11.1828 16.4093 10.719 14.2451 10.719 11.9065C10.719 9.568 11.1828 7.39789 12.0902 5.41642C12.9977 3.43494 14.2387 1.76673 15.8024 0.432838C14.3278 1.07998 12.992 2.00674 11.8684 3.1621C10.7437 4.30057 9.84375 5.64169 9.21577 7.11494C8.58295 8.63119 8.25708 10.2583 8.25708 11.9019C8.25708 13.5454 8.58295 15.1726 9.21577 16.6888C10.4941 19.6675 12.8461 22.0536 15.8024 23.3709C14.2387 22.0396 12.9985 20.3714 12.0902 18.3907Z" fill="#93C227"/>
<path d="M55.6061 13.7398C54.7995 13.952 54.0021 14.1541 53.1955 14.3158C52.3721 14.4827 51.5342 14.5674 50.6941 14.5684C49.6888 14.5598 48.6874 14.4409 47.7079 14.2139V15.1444C48.7515 15.3521 49.8117 15.4648 50.8756 15.4813C52.22 15.4813 53.7198 15.259 55.3742 14.8143V21.6758C53.9433 22.5558 52.3577 22.9895 50.6235 22.9895C48.9187 22.9895 47.4054 22.5684 46.1039 21.6952C45.0653 21.008 44.2075 20.0775 43.5319 18.8851C43.5218 18.9053 43.5117 18.9154 43.5017 18.9356C43.1661 19.4531 42.7697 19.9283 42.3211 20.3512C42.2371 20.4219 42.1598 20.5027 42.0791 20.5735C42.9188 21.4331 43.9154 22.1229 45.0149 22.6055C46.5072 23.3634 48.4372 23.7406 50.805 23.7373C52.9538 23.7373 54.8633 23.161 56.5337 22.0084C56.9972 21.6964 57.4357 21.3487 57.8453 20.9684V16.3276C57.8453 15.0846 58.1478 14.1642 58.7696 13.5579C59.011 13.3016 59.2897 13.0836 59.5964 12.9112C58.2465 13.081 56.9122 13.3581 55.6061 13.7398ZM59.409 4.56085C59.3788 4.52042 59.3082 4.38821 59.2981 4.37895L58.9553 3.90316C58.9109 3.85604 58.8704 3.80534 58.8343 3.75158C58.7934 3.70513 58.7496 3.66125 58.7032 3.62021C57.646 2.48828 56.3597 1.59567 54.9306 1.00211C53.4377 0.365477 52.0357 0.0485649 50.7243 0.0513719C48.7372 0.0513719 47.0525 0.325056 45.6602 0.860635C43.3076 1.78021 41.3532 3.33727 40.2029 5.75327C39.0711 8.11874 38.9224 9.42316 38.9224 9.42316C39.1039 9.4939 39.2853 9.55453 39.4568 9.63537C39.4971 9.6436 39.535 9.66087 39.5677 9.6859C39.7357 9.75663 39.9407 9.84758 40.1222 9.92842C40.3037 10.0093 40.4583 10.08 40.6171 10.1608C41.1006 10.4123 41.552 10.7213 41.9615 11.0813V10.9903C42.0228 9.44717 42.284 7.91856 42.7387 6.44295C43.4305 4.60155 44.4514 3.20225 45.8014 2.24506C47.1533 1.27495 48.7372 0.800003 50.542 0.800003C51.6107 0.792916 52.6667 1.03145 53.629 1.49727C54.6084 1.96798 55.5017 2.60053 56.2716 3.36842C57.3475 4.41741 58.2379 5.64182 58.9049 6.98948C59.0964 7.34316 59.5418 8.13558 59.7115 9.09474C59.7528 9.43686 59.7764 9.7809 59.7821 10.1255H60.0442V5.97895C60.0241 5.89474 59.4393 4.61137 59.409 4.56085Z" fill="black"/>
<path d="M40.3943 21.12C40.1633 20.8 39.9507 20.4632 39.7432 20.1187C39.4584 19.6411 39.1992 19.1486 38.9668 18.6434C38.7024 18.0508 38.4732 17.4432 38.2803 16.8236C37.9745 15.8052 37.7718 14.7585 37.6753 13.6994C37.635 13.2244 37.6048 12.7394 37.6048 12.2434V12.1423C37.6009 11.1596 37.6853 10.1785 37.8568 9.21095C38.0775 7.98625 38.4504 6.79408 38.9668 5.66231C39.8843 3.68084 41.1153 2.02273 42.689 0.678734C41.6166 1.1524 40.6123 1.76783 39.7028 2.50863C39.4911 2.69052 39.2894 2.87242 39.0878 3.06442C39.067 3.07199 39.0493 3.08619 39.0374 3.10484C39.0273 3.11494 39.0071 3.12505 38.997 3.13515L38.7349 3.39789C37.6067 4.53366 36.706 5.87544 36.0814 7.35074C35.9018 7.76103 35.7503 8.18305 35.6277 8.61389C35.6097 8.65267 35.5962 8.69335 35.5873 8.73516C35.3312 9.63078 35.1823 10.5538 35.1437 11.4846C35.1353 11.5245 35.132 11.5652 35.1336 11.6059C35.1235 11.7743 35.1235 11.9596 35.1235 12.1415C35.1235 12.3941 35.1336 12.6375 35.1437 12.88C35.1416 12.9173 35.145 12.9548 35.1538 12.9912C35.2027 13.9035 35.3613 14.8066 35.626 15.6808C35.6361 15.7213 35.6462 15.7516 35.6562 15.792C35.7768 16.1798 35.9171 16.5612 36.0764 16.9347C36.7049 18.4121 37.6069 19.7568 38.7349 20.8977C38.7752 20.9381 38.8189 20.9684 38.8559 21.0088C38.9164 21.0695 38.9769 21.1301 39.0374 21.1773C39.2054 21.3457 39.3903 21.5006 39.5717 21.6522C39.6322 21.7128 39.7028 21.7634 39.7633 21.8139C40.6524 22.5398 41.6347 23.1428 42.684 23.6067C41.8166 22.8806 41.0469 22.0447 40.3943 21.12Z" fill="black"/>
<path d="M35.6259 15.6808C35.5755 15.6606 35.515 15.6505 35.4646 15.6303C34.8395 15.4686 34.1328 15.3171 33.3565 15.1655L32.2263 14.9735C31.3391 14.832 30.3904 14.6501 29.3821 14.448C28.3756 14.2444 27.3845 13.9707 26.4161 13.6286C25.474 13.3037 24.5762 12.8621 23.7433 12.3141C22.9641 11.7902 22.307 11.104 21.8166 10.3023C21.3321 9.504 21.0898 8.53361 21.0898 7.39116C21.0999 6.42105 21.3217 5.57137 21.7351 4.83368C22.3084 3.82271 23.0801 2.93866 24.0038 2.23495C23.3316 3.51916 22.9955 4.65179 22.9955 5.65221C22.9955 6.53221 23.2072 7.32042 23.6408 8.01011C24.4575 9.29432 25.8599 10.3259 27.847 11.1259C29.4911 11.7928 31.3278 12.2734 33.3573 12.5676C33.9119 12.6518 34.4496 12.7293 34.9537 12.8404C35.0185 12.849 35.0826 12.8625 35.1453 12.8808C35.1432 12.9182 35.1466 12.9556 35.1554 12.992C35.2039 13.904 35.3618 14.8068 35.6259 15.6808Z" fill="#93C227"/>
<path d="M42.9857 12.1869C42.6833 11.7829 42.3391 11.412 41.9589 11.0804C41.5512 10.7226 41.1025 10.4147 40.6221 10.1634C40.0752 9.87813 39.5082 9.63354 38.9256 9.43158C38.9072 9.53179 38.8887 9.63368 38.8727 9.73642C38.8567 9.83916 38.8399 9.94105 38.8257 10.0429C38.8114 10.1448 38.7971 10.2518 38.787 10.3545C38.7769 10.4573 38.7643 10.5507 38.7559 10.6493C38.75 10.704 38.7458 10.7596 38.7416 10.8177C38.7332 10.9019 38.7273 10.9861 38.7231 11.0703C38.7114 11.2584 38.7033 11.4473 38.6988 11.6371C38.6988 11.7457 38.6946 11.8535 38.6946 11.9646V11.9966C38.6946 12.0648 38.6946 12.1339 38.6946 12.2013C38.6946 12.3301 38.6988 12.4598 38.7047 12.5886C39.0021 12.7149 39.2861 12.8522 39.5575 12.9937C40.9052 13.6909 41.811 14.5611 42.2748 15.6042C42.5092 16.1493 42.6315 16.7362 42.6344 17.3297C42.6353 17.3446 42.6353 17.3595 42.6344 17.3743C42.6344 18.2479 42.3773 19.2435 41.8631 20.3613C41.916 20.4227 41.9732 20.48 42.0312 20.5398C42.0471 20.5558 42.0614 20.5726 42.0782 20.5869C42.1555 20.5171 42.2353 20.4387 42.3227 20.3596C42.771 19.9388 43.166 19.4645 43.4991 18.9474C43.5091 18.9331 43.5167 18.9171 43.5251 18.9027C43.7419 18.5605 43.9264 18.1988 44.0763 17.8223C44.3019 17.2522 44.4143 16.6435 44.4073 16.0303C44.4085 14.784 43.9346 13.5029 42.9857 12.1869Z" fill="#93C227"/>
<path d="M38.8499 21.008C38.845 21.0145 38.8394 21.0204 38.8331 21.0257L38.8071 21.0526C38.1875 21.6634 37.4368 22.1243 36.6124 22.4C35.5518 22.7569 34.4399 22.9364 33.3212 22.9314C32.0224 22.9273 30.7313 22.731 29.4897 22.3486L29.3855 22.3175C29.0599 22.5124 28.7233 22.6882 28.3772 22.8438L28.2646 22.8926L28.3772 22.9356C29.9594 23.525 31.6333 23.8283 33.3212 23.8316C34.5345 23.8352 35.7405 23.6447 36.8939 23.2674C37.6738 23.004 38.4041 22.6112 39.0541 22.1053C39.2321 21.968 39.4024 21.821 39.5641 21.6648C39.3801 21.5133 39.2012 21.3533 39.0256 21.1882C38.9684 21.1259 38.9088 21.0686 38.8499 21.008Z" fill="#93C227"/>
<path d="M39.575 14.6232C39.3549 14.4699 39.1194 14.3228 38.8684 14.1819C39.1743 16.0687 39.9114 17.859 41.0219 19.413C41.1741 18.9313 41.2501 18.4287 41.2471 17.9234C41.2488 16.5098 40.6914 15.4097 39.575 14.6232Z" fill="#93C227"/>
<path d="M39.6988 2.45811V2.50863C39.487 2.69053 39.2854 2.87242 39.0837 3.06442C39.063 3.07199 39.0452 3.08619 39.0333 3.10484C38.9022 3.0341 38.8115 2.99368 38.8014 2.98358C37.8314 2.43695 36.8025 2.00272 35.7345 1.68926C34.4401 1.2728 33.0895 1.05809 31.73 1.05263C30.6157 1.04908 29.5085 1.23005 28.4531 1.58821C28.3825 1.61853 28.3018 1.63874 28.2312 1.67242C28.1607 1.70611 28.08 1.73305 28.0094 1.76337C27.5324 1.9661 27.0955 2.25304 26.7196 2.61053C26.3054 3.03158 26.1038 3.48969 26.1038 3.97474C26.1038 4.71326 26.5575 5.44084 27.4658 6.128C28.5351 7.00772 30.4987 7.70526 33.3567 8.22063L34.4935 8.42105C34.7968 8.46147 35.0892 8.5221 35.3917 8.57263C35.4758 8.58274 35.543 8.60295 35.6236 8.61305C35.6057 8.65183 35.5922 8.69251 35.5833 8.73431C35.3272 9.62994 35.1783 10.5529 35.1397 11.4838C35.0691 11.4737 34.9985 11.4535 34.9279 11.4434C34.4238 11.3423 33.8992 11.2514 33.3542 11.1705C30.4789 10.7663 28.2195 10.048 26.5482 9.01726C24.9955 8.04603 24.2188 6.82274 24.2183 5.34737C24.2235 4.92655 24.2846 4.50829 24.3998 4.10358C24.7535 2.93137 25.55 2.01095 26.781 1.32463C26.8136 1.30578 26.8472 1.2889 26.8818 1.27411H26.8877C27.1242 1.14148 27.3702 1.02663 27.6237 0.930527C27.7078 0.890106 27.7918 0.859789 27.8859 0.819368C27.9363 0.809263 27.9766 0.789053 28.0271 0.778948H28.0371C28.0775 0.758737 28.1212 0.738527 28.1682 0.718316C29.3181 0.344105 30.5202 0.156198 31.7291 0.161684C33.1727 0.168146 34.6073 0.3898 35.9858 0.819368C36.9142 1.10232 38.5275 1.84 39.5064 2.35621C39.5677 2.38737 39.6383 2.42779 39.6988 2.45811Z" fill="#93C227"/>
</g>
<defs>
<clipPath id="clip0_834_2341">
<rect width="71" height="48" fill="white"/>
</clipPath>
</defs>
</svg>
