<svg width="144" height="14" viewBox="0 0 144 14" fill="none" xmlns="http://www.w3.org/2000/svg">
<path d="M73.8138 0C74.246 0 74.5964 0.348223 74.5964 0.777778V13.2222C74.5964 13.6518 74.246 14 73.8138 14H72.7349C72.3027 14 71.9523 13.6518 71.9523 13.2222V5.94784C71.9523 5.76207 71.9553 5.56028 71.9612 5.34248C71.9681 5.21489 71.7828 5.16506 71.7277 5.28052L68.5807 11.8765C68.4743 12.1007 68.3294 12.2704 68.146 12.3857C67.9685 12.501 67.7645 12.5587 67.5338 12.5587H67.1256C66.8949 12.5587 66.6879 12.501 66.5046 12.3857C66.3271 12.2704 66.1851 12.1007 66.0787 11.8765L62.9391 5.2783C62.8788 5.1516 62.6819 5.20252 62.6893 5.34248C62.7012 5.56028 62.7071 5.76207 62.7071 5.94784V13.2222C62.7071 13.6518 62.3567 14 61.9245 14H60.8456C60.4134 14 60.063 13.6518 60.063 13.2222V0.777778C60.063 0.348223 60.4134 0 60.8456 0H62.3522C62.4823 0 62.5947 0.00320269 62.6893 0.00960809C62.7899 0.0160142 62.8786 0.0352319 62.9555 0.0672612C63.0324 0.0992904 63.1004 0.150537 63.1596 0.221002C63.2246 0.285061 63.2868 0.377945 63.3459 0.499656L66.6731 7.60055C66.7914 7.84397 66.9038 8.097 67.0103 8.35964C67.1252 8.62828 67.5275 8.62585 67.6348 8.35413C67.6366 8.34956 67.6384 8.34499 67.6402 8.34042C67.7526 8.07138 67.8709 7.81514 67.9952 7.57172L71.3135 0.499656C71.3727 0.377945 71.4318 0.285061 71.491 0.221002C71.556 0.150537 71.627 0.0992904 71.7039 0.0672612C71.7808 0.0352319 71.8666 0.0160142 71.9612 0.00960809C72.0618 0.00320269 72.1771 0 72.3072 0H73.8138Z" fill="url(#paint0_linear_4116_26372)"/>
<path d="M96.8516 6.58202C97.2581 6.58202 97.6028 6.52757 97.8855 6.41867C98.1742 6.30336 98.4098 6.14642 98.5925 5.94784C98.7751 5.74926 98.9076 5.51865 98.9901 5.256C99.0726 4.98696 99.1138 4.6987 99.1138 4.39122C99.1138 3.77625 98.9283 3.29581 98.5571 2.9499C98.1919 2.60398 97.6234 2.43102 96.8516 2.43102H96.4325C96.0002 2.43102 95.6498 2.77924 95.6498 3.2088V5.80424C95.6498 6.23379 96.0002 6.58202 96.4325 6.58202H96.8516ZM102.546 12.8428C102.837 13.3612 102.46 14 101.863 14H100.492C99.9916 14 99.6322 13.795 99.4143 13.385L97.2758 9.32052C97.1756 9.14756 97.0637 9.02265 96.94 8.94578C96.8163 8.8625 96.6396 8.82086 96.4098 8.82086C95.9901 8.82086 95.6498 9.15901 95.6498 9.57613V13.2222C95.6498 13.6518 95.2995 14 94.8672 14H93.4457C93.0134 14 92.663 13.6518 92.663 13.2222V0.777778C92.663 0.348223 93.0134 0 93.4457 0H96.8516C97.7824 0 98.5748 0.105697 99.2287 0.31709C99.8885 0.522077 100.425 0.81034 100.837 1.18188C101.255 1.55342 101.559 1.99222 101.747 2.49828C101.936 3.00435 102.03 3.55525 102.03 4.15099C102.03 4.60581 101.974 5.035 101.862 5.43857C101.75 5.84214 101.585 6.21688 101.367 6.5628C101.149 6.90231 100.878 7.20659 100.554 7.47563C100.402 7.60419 100.239 7.72177 100.064 7.82839C99.825 7.97405 99.7974 8.35676 99.9975 8.55182C100.168 8.71196 100.322 8.90414 100.457 9.12835L102.546 12.8428Z" fill="url(#paint1_linear_4116_26372)"/>
<path d="M125.666 2.49828C125.234 2.49828 124.884 2.84651 124.884 3.27606V4.98749C124.884 5.41705 125.234 5.76527 125.666 5.76527H128.17C128.602 5.76527 128.953 6.11349 128.953 6.54305V7.38969C128.953 7.81924 128.602 8.16747 128.17 8.16747H125.666C125.234 8.16747 124.884 8.51569 124.884 8.94524V10.7239C124.884 11.1535 125.234 11.5017 125.666 11.5017H129.414C129.846 11.5017 130.196 11.8499 130.196 12.2795V13.2222C130.196 13.6518 129.846 14 129.414 14H122.646C122.213 14 121.863 13.6518 121.863 13.2222V0.777778C121.863 0.348223 122.213 0 122.646 0H129.414C129.846 0 130.196 0.348223 130.196 0.777778V1.72051C130.196 2.15006 129.846 2.49828 129.414 2.49828H125.666Z" fill="url(#paint2_linear_4116_26372)"/>
<path d="M141.144 2.57515H143.214C143.646 2.57515 143.996 2.22693 143.996 1.79738V0.777778C143.996 0.348223 143.646 0 143.214 0H134.512C134.08 0 133.73 0.348223 133.73 0.777778V1.79738C133.73 2.22693 134.08 2.57515 134.512 2.57515H136.582C137.014 2.57515 137.365 2.92338 137.365 3.35293V13.2222C137.365 13.6518 137.715 14 138.147 14H139.579C140.011 14 140.361 13.6518 140.361 13.2222V3.35293C140.361 2.92338 140.712 2.57515 141.144 2.57515Z" fill="url(#paint3_linear_4116_26372)"/>
<path d="M80.76 13.447L82.1783 8.77885L83.0192 6.00071C83.2423 5.26359 84.292 5.262 84.5174 5.99844L85.772 10.1003C85.9246 10.5999 85.5485 11.1041 85.0232 11.1041H83.8161C83.4749 11.1041 83.1731 11.3235 83.0701 11.6468L82.5779 13.1923C82.4858 13.4615 82.435 14 82.9683 14H88.7621C89.5596 14 89.5141 13.2821 89.3916 12.9231L85.1624 0.526818C85.0548 0.211161 84.7571 0 84.4217 0H83.1084C82.7725 0 82.4741 0.212976 82.3668 0.529266L78.1446 12.9737C77.9735 13.4778 78.3508 14 78.8862 14H80.0108C80.3559 14 80.6603 13.7754 80.76 13.447Z" fill="url(#paint4_linear_4116_26372)"/>
<path d="M57.063 12.8454C57.063 13.483 56.5855 14 55.9964 14C55.4073 14 54.9297 13.483 54.9297 12.8454C54.9297 12.2077 55.4073 11.6907 55.9964 11.6907C56.5855 11.6907 57.063 12.2077 57.063 12.8454Z" fill="url(#paint5_linear_4116_26372)"/>
<path d="M53.3297 7.30882C53.3297 8.65018 53.1057 9.8262 52.6576 10.8369C52.2095 11.8476 51.5669 12.6275 50.7298 13.1765C49.8985 13.7255 48.9434 14 47.8645 14C46.7974 14 45.8453 13.7286 45.0081 13.1858C44.171 12.643 43.5224 11.8694 43.0626 10.865C42.6027 9.85428 42.3699 8.69385 42.364 7.38369V6.70989C42.364 5.36854 42.5909 4.18939 43.0449 3.17246C43.5048 2.14929 44.1503 1.36631 44.9816 0.823529C45.8188 0.27451 46.7738 0 47.8468 0C48.9198 0 49.8719 0.27451 50.7032 0.823529C51.5404 1.36631 52.186 2.14929 52.6399 3.17246C53.0998 4.18939 53.3297 5.36542 53.3297 6.70053V7.30882ZM50.6413 6.69118C50.6413 5.26248 50.3996 4.17692 49.9162 3.43449C49.4327 2.69207 48.743 2.32086 47.8468 2.32086C46.9566 2.32086 46.2698 2.68895 45.7863 3.42513C45.3029 4.15508 45.0582 5.22816 45.0523 6.64439V7.30882C45.0523 8.70009 45.2941 9.77941 45.7775 10.5468C46.2609 11.3142 46.9566 11.6979 47.8645 11.6979C48.7547 11.6979 49.4386 11.3298 49.9162 10.5936C50.3937 9.85116 50.6354 8.77184 50.6413 7.35561V6.69118Z" fill="url(#paint6_linear_4116_26372)"/>
<path d="M33.6703 9.28124C33.396 8.83533 32.766 8.77992 32.4171 9.171L31.8745 9.77916C31.7476 9.92144 31.6775 10.105 31.6775 10.2952V13.2222C31.6775 13.6518 31.3271 14 30.8949 14H29.6886C29.2564 14 28.906 13.6518 28.906 13.2222V0.777778C28.906 0.348223 29.2564 0 29.6886 0H30.8949C31.3271 0 31.6775 0.348223 31.6775 0.777778V4.22538C31.6775 4.87704 32.5222 5.14054 32.8969 4.60577L36.0897 0.315303C36.2372 0.116992 36.4707 0 36.7189 0H38.1517C38.7996 0 39.1669 0.737667 38.7739 1.24957L35.2862 5.79245C35.0882 6.0503 35.072 6.40316 35.2456 6.67783L39.1191 12.8086C39.4463 13.3266 39.0717 14 38.4563 14H37.0125C36.7399 14 36.487 13.8591 36.3448 13.628L33.6703 9.28124Z" fill="url(#paint7_linear_4116_26372)"/>
<path d="M111.827 9.28124C111.553 8.83533 110.923 8.77992 110.574 9.171L110.032 9.77916C109.905 9.92144 109.834 10.105 109.834 10.2952V13.2222C109.834 13.6518 109.484 14 109.052 14H107.846C107.413 14 107.063 13.6518 107.063 13.2222V0.777778C107.063 0.348223 107.413 0 107.846 0H109.052C109.484 0 109.834 0.348223 109.834 0.777778V4.22538C109.834 4.87704 110.679 5.14054 111.054 4.60577L114.247 0.315303C114.394 0.116992 114.628 0 114.876 0H116.309C116.957 0 117.324 0.737667 116.931 1.24957L113.443 5.79245C113.245 6.0503 113.229 6.40316 113.403 6.67783L117.276 12.8086C117.603 13.3266 117.229 14 116.613 14H115.17C114.897 14 114.644 13.8591 114.502 13.628L111.827 9.28124Z" fill="url(#paint8_linear_4116_26372)"/>
<path d="M16.9164 13.447L18.3347 8.77885L19.1756 6.00071C19.3987 5.26359 20.4484 5.262 20.6738 5.99844L21.9284 10.1003C22.081 10.5999 21.7049 11.1041 21.1795 11.1041H19.9725C19.6313 11.1041 19.3295 11.3235 19.2265 11.6468L18.7343 13.1923C18.6422 13.4615 18.5914 14 19.1247 14H24.9185C25.716 14 25.6704 13.2821 25.548 12.9231L21.3188 0.526818C21.2111 0.211161 20.9134 0 20.5781 0H19.2648C18.9289 0 18.6305 0.212976 18.5232 0.529266L14.301 12.9737C14.1299 13.4778 14.5072 14 15.0425 14H16.1672C16.5123 14 16.8167 13.7754 16.9164 13.447Z" fill="url(#paint9_linear_4116_26372)"/>
<path d="M5.21271 7.85717C5.42569 8.61441 6.50563 8.61526 6.71981 7.85836L8.783 0.567215C8.87792 0.231766 9.18576 0 9.53638 0H10.8818C11.4135 0 11.7904 0.515599 11.6261 1.01814L7.55731 13.4626C7.45253 13.783 7.15205 14 6.81301 14H5.12499C4.78561 14 4.48491 13.7826 4.38041 13.4617L0.327665 1.01728C0.164061 0.514912 0.540943 0 1.07225 0H2.40897C2.76006 0 3.06818 0.232362 3.16269 0.568398L5.21271 7.85717Z" fill="url(#paint10_linear_4116_26372)"/>
<defs>
<linearGradient id="paint0_linear_4116_26372" x1="-0.00441575" y1="7" x2="143.996" y2="7" gradientUnits="userSpaceOnUse">
<stop/>
<stop offset="1" stop-color="#5442AD"/>
</linearGradient>
<linearGradient id="paint1_linear_4116_26372" x1="-0.00441575" y1="7" x2="143.996" y2="7" gradientUnits="userSpaceOnUse">
<stop/>
<stop offset="1" stop-color="#5442AD"/>
</linearGradient>
<linearGradient id="paint2_linear_4116_26372" x1="-0.00441575" y1="7" x2="143.996" y2="7" gradientUnits="userSpaceOnUse">
<stop/>
<stop offset="1" stop-color="#5442AD"/>
</linearGradient>
<linearGradient id="paint3_linear_4116_26372" x1="-0.00441575" y1="7" x2="143.996" y2="7" gradientUnits="userSpaceOnUse">
<stop/>
<stop offset="1" stop-color="#5442AD"/>
</linearGradient>
<linearGradient id="paint4_linear_4116_26372" x1="-0.00441575" y1="7" x2="143.996" y2="7" gradientUnits="userSpaceOnUse">
<stop/>
<stop offset="1" stop-color="#5442AD"/>
</linearGradient>
<linearGradient id="paint5_linear_4116_26372" x1="-0.00441575" y1="7" x2="143.996" y2="7" gradientUnits="userSpaceOnUse">
<stop/>
<stop offset="1" stop-color="#5442AD"/>
</linearGradient>
<linearGradient id="paint6_linear_4116_26372" x1="-0.00441575" y1="7" x2="143.996" y2="7" gradientUnits="userSpaceOnUse">
<stop/>
<stop offset="1" stop-color="#5442AD"/>
</linearGradient>
<linearGradient id="paint7_linear_4116_26372" x1="-0.00441575" y1="7" x2="143.996" y2="7" gradientUnits="userSpaceOnUse">
<stop/>
<stop offset="1" stop-color="#5442AD"/>
</linearGradient>
<linearGradient id="paint8_linear_4116_26372" x1="-0.00441575" y1="7" x2="143.996" y2="7" gradientUnits="userSpaceOnUse">
<stop/>
<stop offset="1" stop-color="#5442AD"/>
</linearGradient>
<linearGradient id="paint9_linear_4116_26372" x1="-0.00441575" y1="7" x2="143.996" y2="7" gradientUnits="userSpaceOnUse">
<stop/>
<stop offset="1" stop-color="#5442AD"/>
</linearGradient>
<linearGradient id="paint10_linear_4116_26372" x1="-0.00441575" y1="7" x2="143.996" y2="7" gradientUnits="userSpaceOnUse">
<stop/>
<stop offset="1" stop-color="#5442AD"/>
</linearGradient>
</defs>
</svg>
