<svg width="108" height="40" viewBox="0 0 108 40" fill="none" xmlns="http://www.w3.org/2000/svg">
<g clip-path="url(#clip0_474_2109)">
<path d="M28 38.5C28 37.6716 28.6716 37 29.5 37H50.5C51.3284 37 52 37.6716 52 38.5C52 39.3284 51.3284 40 50.5 40H29.5C28.6716 40 28 39.3284 28 38.5Z" fill="#493A6C"/>
<path d="M56 38.5C56 37.6716 56.6716 37 57.5 37H78.5C79.3284 37 80 37.6716 80 38.5C80 39.3284 79.3284 40 78.5 40H57.5C56.6716 40 56 39.3284 56 38.5Z" fill="#493A6C"/>
<path d="M84 38.5C84 37.6716 84.6716 37 85.5 37H106.5C107.328 37 108 37.6716 108 38.5C108 39.3284 107.328 40 106.5 40H85.5C84.6716 40 84 39.3284 84 38.5Z" fill="#493A6C"/>
<rect y="37" width="24" height="3" rx="1.5" fill="#DF1F26"/>
<path d="M107 13.5735C107 16.0646 106.551 18.2487 105.652 20.1257C104.753 22.0027 103.463 23.451 101.784 24.4706C100.116 25.4902 98.2 26 96.0355 26C93.8946 26 91.9844 25.496 90.3048 24.488C88.6253 23.4799 87.3242 22.0432 86.4016 20.1778C85.479 18.3008 85.0118 16.1457 85 13.7126V12.4612C85 9.97014 85.4554 7.7803 86.3661 5.89171C87.2887 3.99153 88.5839 2.53743 90.2516 1.52941C91.9312 0.509804 93.8473 0 96 0C98.1527 0 100.063 0.509804 101.731 1.52941C103.41 2.53743 104.705 3.99153 105.616 5.89171C106.539 7.7803 107 9.96435 107 12.4438V13.5735ZM101.606 12.4265C101.606 9.77317 101.122 7.75713 100.152 6.37834C99.1817 4.99955 97.7978 4.31016 96 4.31016C94.214 4.31016 92.836 4.99376 91.8661 6.36096C90.8962 7.71658 90.4054 9.70945 90.3935 12.3396V13.5735C90.3935 16.1573 90.8785 18.1618 91.8484 19.5869C92.8183 21.012 94.214 21.7246 96.0355 21.7246C97.8215 21.7246 99.1936 21.041 100.152 19.6738C101.11 18.295 101.595 16.2906 101.606 13.6604V12.4265Z" fill="white"/>
<path d="M66.4516 15.5714L63.5602 18.5714V26H58V0H63.5602V11.7857L66.0067 8.55357L72.8829 0H79.722L70.1399 11.5536L80 26H73.3833L66.4516 15.5714Z" fill="white"/>
<path d="M47.2111 26H46.3912H37.0768L38.9273 20.6218H44.6163L43.1912 16.3036L39.9736 6.57143L36.7912 16.3036L33.6088 26H28L37.5297 0H42.4176L52 26H47.2111Z" fill="white"/>
<path d="M11.9728 19.5536L17.9502 0H24L14.8166 26H9.14717L0 0H6.0317L11.9728 19.5536Z" fill="white"/>
</g>
<defs>
<clipPath id="clip0_474_2109">
<rect width="108" height="40" fill="white"/>
</clipPath>
</defs>
</svg>
