<svg width="160" height="160" viewBox="0 0 160 160" fill="none" xmlns="http://www.w3.org/2000/svg">
<rect width="160" height="160" rx="80" fill="#F5F5F5"/>
<path fill-rule="evenodd" clip-rule="evenodd" d="M104.554 86.3253C104.741 86.513 104.847 86.7674 104.847 87.0327C104.846 87.298 104.741 87.5523 104.553 87.7398C104.365 87.9272 104.111 88.0325 103.846 88.0323C103.58 88.0321 103.326 87.9266 103.139 87.7389L100.6 85.2003V93.2354C100.6 93.5006 100.495 93.755 100.307 93.9425C100.12 94.1301 99.8652 94.2354 99.6 94.2354C99.3348 94.2354 99.0804 94.1301 98.8929 93.9425C98.7054 93.755 98.6 93.5006 98.6 93.2354V85.2003L96.0612 87.7385C95.8717 87.9155 95.6209 88.0119 95.3617 88.0074C95.1025 88.003 94.8551 87.898 94.6718 87.7147C94.4885 87.5314 94.3835 87.2841 94.379 87.0249C94.3745 86.7656 94.4709 86.5148 94.6478 86.3253L98.8926 82.0793C99.0804 81.8918 99.3349 81.7865 99.6003 81.7865C99.8657 81.7865 100.12 81.8918 100.308 82.0793L104.554 86.3253ZM109.923 89.2639C110.087 87.9083 109.983 86.5336 109.617 85.2182C109.25 83.9029 108.628 82.6726 107.785 81.5978C106.943 80.5229 105.897 79.6245 104.708 78.9538C103.518 78.2831 102.208 77.8533 100.853 77.6889C100.43 77.6375 100.005 77.6115 99.5791 77.611C97.5769 77.6151 95.6185 78.1972 93.9391 79.2873C92.2596 80.3773 90.9306 81.9291 90.1116 83.7562C89.2927 85.5832 89.0186 87.6079 89.3224 89.5869C89.6261 91.5659 90.4948 93.4151 91.8239 94.9125C93.1531 96.4098 94.8863 97.4916 96.8154 98.0279C98.7444 98.5641 100.787 98.532 102.699 97.9355C104.61 97.3389 106.308 96.2033 107.59 94.6649C108.871 93.1266 109.681 91.251 109.923 89.2634V89.2639ZM55.8665 93.3764H88.4204C87.4111 91.274 87.0154 88.9295 87.2788 86.6123C87.5422 84.2951 88.454 82.0992 89.9094 80.277C91.3648 78.4547 93.3048 77.08 95.5064 76.3108C97.708 75.5416 100.082 75.4092 102.355 75.9287V68.0477L95.7701 61.461L82.1091 71.3088L86.1818 74.1637C86.2921 74.2378 86.3866 74.3333 86.4597 74.4444C86.5327 74.5555 86.5829 74.6801 86.6072 74.8108C86.6315 74.9415 86.6295 75.0758 86.6013 75.2058C86.5731 75.3357 86.5193 75.4587 86.443 75.5676C86.3666 75.6765 86.2694 75.7691 86.1568 75.84C86.0443 75.9108 85.9188 75.9585 85.7876 75.9802C85.6564 76.002 85.5222 75.9974 85.3928 75.9666C85.2634 75.9359 85.1415 75.8796 85.0341 75.8012L64.5091 61.4137L50 73.6837V87.5087C50.0017 89.064 50.6202 90.5552 51.7199 91.6551C52.8196 92.755 54.3106 93.3738 55.866 93.3758L55.8665 93.3764ZM55.8665 45.5977H96.489C98.0444 45.5993 99.5356 46.2179 100.635 47.3177C101.735 48.4175 102.354 49.9087 102.355 51.464V65.2188L96.5827 59.4465C96.4148 59.2784 96.1925 59.1756 95.9557 59.1563C95.7188 59.1371 95.4829 59.2027 95.29 59.3415L80.375 70.094L65.0263 59.3339C64.8452 59.2073 64.6274 59.1441 64.4067 59.1543C64.186 59.1644 63.9748 59.2473 63.8061 59.3899L50 71.0653V51.464C50.0016 49.9086 50.6202 48.4174 51.72 47.3175C52.8199 46.2177 54.3111 45.5992 55.8665 45.5977ZM109.359 80.3652C108.048 78.6871 106.324 77.3779 104.355 76.5652V51.464C104.353 49.3785 103.523 47.379 102.049 45.9042C100.574 44.4295 98.5746 43.6 96.489 43.5977H55.8665C53.7809 43.5999 51.7813 44.4294 50.3066 45.9041C48.8318 47.3789 48.0023 49.3784 48 51.464V87.5092C48.0023 89.5948 48.8318 91.5944 50.3065 93.0693C51.7812 94.5442 53.7807 95.374 55.8664 95.3767H89.6289C89.6979 95.4704 89.7692 95.5642 89.8414 95.6562C91.8691 98.2444 94.8419 99.9211 98.1059 100.317C101.37 100.714 104.658 99.7972 107.246 97.7695C109.834 95.7418 111.511 92.769 111.907 89.505C112.303 86.2411 111.387 82.9534 109.359 80.3652ZM79.5303 52.7037C80.4369 52.7036 81.3232 52.9725 82.077 53.4761C82.8309 53.9798 83.4184 54.6957 83.7654 55.5333C84.1124 56.3709 84.2032 57.2926 84.0263 58.1818C83.8495 59.071 83.4129 59.8878 82.7718 60.5289C82.1308 61.17 81.314 61.6067 80.4248 61.7836C79.5356 61.9604 78.6139 61.8697 77.7763 61.5228C76.9386 61.1758 76.2227 60.5883 75.719 59.8345C75.2153 59.0807 74.9464 58.1944 74.9464 57.2878C74.9481 56.0726 75.4315 54.9076 76.2908 54.0484C77.1501 53.1891 78.315 52.7056 79.5303 52.7039V52.7037ZM79.5303 63.8713C78.2281 63.8713 76.9552 63.4852 75.8725 62.7618C74.7898 62.0384 73.9459 61.0101 73.4476 59.8071C72.9492 58.6041 72.8188 57.2803 73.0729 56.0032C73.3269 54.7261 73.9539 53.5529 74.8747 52.6322C75.7954 51.7114 76.9685 51.0843 78.2457 50.8303C79.5228 50.5763 80.8466 50.7066 82.0496 51.2049C83.2526 51.7032 84.2809 52.5471 85.0043 53.6298C85.7277 54.7125 86.1139 55.9854 86.1139 57.2875C86.1119 59.033 85.4176 60.7064 84.1834 61.9407C82.9491 63.1749 81.2757 63.8692 79.5303 63.8713Z" fill="#CCCCCC"/>
<path d="M58.8299 112.878V123H56.9399V118.576H52.1869V123H50.2969V112.878H52.1869V117.232H56.9399V112.878H58.8299ZM65.2193 118.583C65.2193 118.359 65.1866 118.149 65.1213 117.953C65.0606 117.752 64.9673 117.577 64.8413 117.428C64.7153 117.279 64.5543 117.162 64.3583 117.078C64.1669 116.989 63.9429 116.945 63.6863 116.945C63.1869 116.945 62.7926 117.087 62.5033 117.372C62.2186 117.657 62.0366 118.06 61.9573 118.583H65.2193ZM61.9223 119.626C61.9503 119.995 62.0156 120.314 62.1183 120.585C62.2209 120.851 62.3563 121.073 62.5243 121.25C62.6923 121.423 62.8906 121.553 63.1193 121.642C63.3526 121.726 63.6093 121.768 63.8893 121.768C64.1693 121.768 64.4096 121.735 64.6103 121.67C64.8156 121.605 64.9929 121.532 65.1423 121.453C65.2963 121.374 65.4293 121.301 65.5413 121.236C65.6579 121.171 65.7699 121.138 65.8773 121.138C66.0219 121.138 66.1293 121.192 66.1993 121.299L66.6963 121.929C66.5049 122.153 66.2903 122.342 66.0523 122.496C65.8143 122.645 65.5646 122.767 65.3033 122.86C65.0466 122.949 64.7829 123.012 64.5123 123.049C64.2463 123.086 63.9873 123.105 63.7353 123.105C63.2359 123.105 62.7716 123.023 62.3423 122.86C61.9129 122.692 61.5396 122.447 61.2223 122.125C60.9049 121.798 60.6553 121.397 60.4733 120.921C60.2913 120.44 60.2003 119.885 60.2003 119.255C60.2003 118.765 60.2796 118.305 60.4383 117.876C60.5969 117.442 60.8233 117.066 61.1173 116.749C61.4159 116.427 61.7776 116.173 62.2023 115.986C62.6316 115.799 63.1146 115.706 63.6513 115.706C64.1039 115.706 64.5216 115.778 64.9043 115.923C65.2869 116.068 65.6159 116.28 65.8913 116.56C66.1666 116.835 66.3813 117.176 66.5353 117.582C66.6939 117.983 66.7733 118.443 66.7733 118.961C66.7733 119.222 66.7453 119.4 66.6893 119.493C66.6333 119.582 66.5259 119.626 66.3673 119.626H61.9223ZM74.1761 117.099H71.6141V123H69.8851V117.099H67.3301V115.818H74.1761V117.099ZM83.6171 121.817C84.3125 121.766 84.8491 121.532 85.2271 121.117C85.6098 120.702 85.8011 120.132 85.8011 119.409C85.8011 118.686 85.6098 118.116 85.2271 117.701C84.8491 117.281 84.3125 117.045 83.6171 116.994V121.817ZM82.1051 116.994C81.7598 117.022 81.4518 117.097 81.1811 117.218C80.9151 117.335 80.6865 117.496 80.4951 117.701C80.3085 117.906 80.1661 118.154 80.0681 118.443C79.9701 118.728 79.9211 119.05 79.9211 119.409C79.9211 119.768 79.9701 120.093 80.0681 120.382C80.1661 120.667 80.3085 120.912 80.4951 121.117C80.6865 121.318 80.9151 121.479 81.1811 121.6C81.4518 121.717 81.7598 121.789 82.1051 121.817V116.994ZM83.6731 115.713C84.2471 115.746 84.7698 115.855 85.2411 116.042C85.7171 116.224 86.1231 116.474 86.4591 116.791C86.7998 117.108 87.0635 117.486 87.2501 117.925C87.4368 118.364 87.5301 118.854 87.5301 119.395C87.5301 119.941 87.4368 120.436 87.2501 120.879C87.0635 121.318 86.7998 121.696 86.4591 122.013C86.1231 122.33 85.7171 122.582 85.2411 122.769C84.7698 122.956 84.2471 123.065 83.6731 123.098V125.408H82.0491V123.098C81.4751 123.065 80.9501 122.956 80.4741 122.769C80.0028 122.582 79.5968 122.33 79.2561 122.013C78.9201 121.696 78.6588 121.318 78.4721 120.879C78.2855 120.436 78.1921 119.941 78.1921 119.395C78.1921 118.854 78.2855 118.364 78.4721 117.925C78.6588 117.486 78.9201 117.108 79.2561 116.791C79.5968 116.474 80.0028 116.224 80.4741 116.042C80.9501 115.855 81.4751 115.746 82.0491 115.713V112.878H83.6731V115.713ZM92.0164 115.706C92.5484 115.706 93.0314 115.792 93.4654 115.965C93.904 116.138 94.2774 116.383 94.5854 116.7C94.898 117.017 95.1384 117.405 95.3064 117.862C95.4744 118.319 95.5584 118.83 95.5584 119.395C95.5584 119.964 95.4744 120.478 95.3064 120.935C95.1384 121.392 94.898 121.782 94.5854 122.104C94.2774 122.426 93.904 122.673 93.4654 122.846C93.0314 123.019 92.5484 123.105 92.0164 123.105C91.4797 123.105 90.992 123.019 90.5534 122.846C90.1147 122.673 89.739 122.426 89.4264 122.104C89.1184 121.782 88.878 121.392 88.7054 120.935C88.5374 120.478 88.4534 119.964 88.4534 119.395C88.4534 118.83 88.5374 118.319 88.7054 117.862C88.878 117.405 89.1184 117.017 89.4264 116.7C89.739 116.383 90.1147 116.138 90.5534 115.965C90.992 115.792 91.4797 115.706 92.0164 115.706ZM92.0164 121.775C92.6137 121.775 93.0547 121.574 93.3394 121.173C93.6287 120.772 93.7734 120.184 93.7734 119.409C93.7734 118.634 93.6287 118.044 93.3394 117.638C93.0547 117.232 92.6137 117.029 92.0164 117.029C91.4097 117.029 90.9594 117.234 90.6654 117.645C90.376 118.051 90.2314 118.639 90.2314 119.409C90.2314 120.179 90.376 120.767 90.6654 121.173C90.9594 121.574 91.4097 121.775 92.0164 121.775ZM102.832 117.099H100.27V123H98.5414V117.099H95.9864V115.818H102.832V117.099ZM106.823 115.706C107.355 115.706 107.838 115.792 108.272 115.965C108.711 116.138 109.084 116.383 109.392 116.7C109.705 117.017 109.945 117.405 110.113 117.862C110.281 118.319 110.365 118.83 110.365 119.395C110.365 119.964 110.281 120.478 110.113 120.935C109.945 121.392 109.705 121.782 109.392 122.104C109.084 122.426 108.711 122.673 108.272 122.846C107.838 123.019 107.355 123.105 106.823 123.105C106.286 123.105 105.799 123.019 105.36 122.846C104.921 122.673 104.546 122.426 104.233 122.104C103.925 121.782 103.685 121.392 103.512 120.935C103.344 120.478 103.26 119.964 103.26 119.395C103.26 118.83 103.344 118.319 103.512 117.862C103.685 117.405 103.925 117.017 104.233 116.7C104.546 116.383 104.921 116.138 105.36 115.965C105.799 115.792 106.286 115.706 106.823 115.706ZM106.823 121.775C107.42 121.775 107.861 121.574 108.146 121.173C108.435 120.772 108.58 120.184 108.58 119.409C108.58 118.634 108.435 118.044 108.146 117.638C107.861 117.232 107.42 117.029 106.823 117.029C106.216 117.029 105.766 117.234 105.472 117.645C105.183 118.051 105.038 118.639 105.038 119.409C105.038 120.179 105.183 120.767 105.472 121.173C105.766 121.574 106.216 121.775 106.823 121.775Z" fill="#ADADAD"/>
</svg>
