<svg width="120" height="120" fill="none" xmlns="http://www.w3.org/2000/svg">
<rect width="120" height="120" rx="6" fill="#F5F5F5"/>
<path d="M40.32 92.878V103h-1.89v-4.424h-4.753V103h-1.89V92.878h1.89v4.354h4.753v-4.354h1.89zm6.39 5.705a1.98 1.98 0 00-.099-.63c-.06-.2-.153-.376-.28-.525a1.28 1.28 0 00-.483-.35 1.583 1.583 0 00-.672-.133c-.499 0-.893.142-1.183.427-.284.285-.466.688-.546 1.211h3.262zm-3.297 1.043c.028.369.093.688.196.959.102.266.237.488.405.665.168.173.367.303.595.392.234.084.49.126.77.126s.52-.033.721-.098a3.22 3.22 0 00.532-.217c.154-.079.288-.152.4-.217a.692.692 0 01.336-.098c.144 0 .252.054.322.161l.497.63a2.958 2.958 0 01-.645.567 3.829 3.829 0 01-.748.364c-.257.089-.52.152-.791.189a5.64 5.64 0 01-.778.056c-.499 0-.963-.082-1.392-.245a3.18 3.18 0 01-1.12-.735 3.495 3.495 0 01-.75-1.204c-.181-.481-.273-1.036-.273-1.666 0-.49.08-.95.239-1.379.158-.434.384-.81.678-1.127.3-.322.66-.576 1.086-.763.429-.187.912-.28 1.449-.28.452 0 .87.072 1.252.217.383.145.712.357.988.637.275.275.49.616.644 1.022.158.401.237.861.237 1.379 0 .261-.027.439-.084.532-.056.089-.163.133-.322.133h-4.444zm12.253-2.527h-2.562V103h-1.729v-5.901H48.82v-1.281h6.846v1.281zM66.752 103h-1.729v-5.859H63.26A19.974 19.974 0 0163 99.423a9.92 9.92 0 01-.42 1.617c-.158.443-.338.8-.539 1.071a2.556 2.556 0 01-.63.623 1.918 1.918 0 01-.693.294 3.433 3.433 0 01-.72.077c-.257 0-.446-.023-.568-.07-.116-.042-.175-.103-.175-.182v-1.078h.413c.154 0 .308-.023.462-.07a1.09 1.09 0 00.448-.287c.145-.145.283-.35.413-.616.131-.271.25-.625.357-1.064.112-.443.21-.985.294-1.624.084-.64.15-1.405.196-2.296h4.914V103zm4.882-7.294c.532 0 1.015.086 1.449.259.438.173.812.418 1.12.735.312.317.553.705.72 1.162.169.457.253.968.253 1.533a4.44 4.44 0 01-.252 1.54 3.277 3.277 0 01-.721 1.169 3.1 3.1 0 01-1.12.742 3.882 3.882 0 01-1.45.259 3.956 3.956 0 01-1.462-.259 3.168 3.168 0 01-1.127-.742 3.412 3.412 0 01-.721-1.169 4.44 4.44 0 01-.252-1.54c0-.565.084-1.076.252-1.533.172-.457.413-.845.72-1.162a3.211 3.211 0 011.128-.735 3.962 3.962 0 011.463-.259zm0 6.069c.597 0 1.038-.201 1.323-.602.289-.401.434-.989.434-1.764s-.145-1.365-.434-1.771c-.285-.406-.726-.609-1.323-.609-.607 0-1.057.205-1.351.616-.29.406-.434.994-.434 1.764s.144 1.358.434 1.764c.294.401.744.602 1.35.602zm9.726-4.676h-3.136V103h-1.73v-7.182h4.866v1.281zm3.973-1.393c.532 0 1.015.086 1.449.259.438.173.812.418 1.12.735.312.317.553.705.72 1.162.169.457.253.968.253 1.533a4.44 4.44 0 01-.252 1.54 3.277 3.277 0 01-.721 1.169 3.1 3.1 0 01-1.12.742 3.882 3.882 0 01-1.45.259 3.956 3.956 0 01-1.462-.259 3.168 3.168 0 01-1.127-.742 3.412 3.412 0 01-.721-1.169 4.44 4.44 0 01-.252-1.54c0-.565.084-1.076.252-1.533.172-.457.413-.845.72-1.162a3.211 3.211 0 011.128-.735 3.962 3.962 0 011.463-.259zm0 6.069c.597 0 1.038-.201 1.323-.602.29-.401.434-.989.434-1.764s-.145-1.365-.434-1.771c-.285-.406-.726-.609-1.323-.609-.607 0-1.057.205-1.351.616-.29.406-.434.994-.434 1.764s.144 1.358.434 1.764c.294.401.744.602 1.35.602z" fill="#ADADAD"/><path fill-rule="evenodd" clip-rule="evenodd" d="M84.554 66.325a1 1 0 11-1.415 1.414L80.6 65.2v8.035a1 1 0 01-2 0V65.2l-2.539 2.538a1 1 0 01-1.413-1.413l4.245-4.246a1.002 1.002 0 011.415 0l4.246 4.246zm5.369 2.939a10.396 10.396 0 00-9.07-11.575 10.398 10.398 0 109.07 11.575zm-54.056 4.112H68.42A12.395 12.395 0 0182.356 55.93v-7.881L75.77 41.46l-13.66 9.848 4.072 2.855a1.001 1.001 0 11-1.148 1.637L44.51 41.414 30 53.684v13.825a5.874 5.874 0 005.866 5.867zm0-47.778h40.622a5.872 5.872 0 015.867 5.866v13.755l-5.773-5.773a1.001 1.001 0 00-1.293-.104L60.375 50.094l-15.349-10.76a1 1 0 00-1.22.056L30 51.065V31.464a5.873 5.873 0 015.867-5.866zm53.492 34.767a12.314 12.314 0 00-5.004-3.8V31.464a7.875 7.875 0 00-7.866-7.866H35.866A7.875 7.875 0 0028 31.464v36.045a7.876 7.876 0 007.866 7.868H69.63a12.397 12.397 0 1019.73-15.011zM59.53 32.704a4.584 4.584 0 11-4.584 4.584 4.59 4.59 0 014.584-4.584zm0 11.167a6.584 6.584 0 116.584-6.584 6.592 6.592 0 01-6.584 6.584z" fill="#CCC"/></svg>