<svg width="18" height="20" viewBox="0 0 18 20"  xmlns="http://www.w3.org/2000/svg">
<path fill-rule="evenodd" clip-rule="evenodd" d="M10.832 1.8335V18.1668H16.332V1.8335H10.832ZM10.332 0.833496C10.0559 0.833496 9.83203 1.05735 9.83203 1.3335V18.6668C9.83203 18.943 10.0559 19.1668 10.332 19.1668H16.832C17.1082 19.1668 17.332 18.943 17.332 18.6668V1.3335C17.332 1.05735 17.1082 0.833496 16.832 0.833496H10.332Z"  />
<path fill-rule="evenodd" clip-rule="evenodd" d="M1.66602 5.16699V18.167H7.16602V5.16699H1.66602ZM1.16602 4.16699C0.889873 4.16699 0.666016 4.39085 0.666016 4.66699V18.667C0.666016 18.9431 0.889873 19.167 1.16602 19.167H7.66602C7.94216 19.167 8.16602 18.9431 8.16602 18.667V4.66699C8.16602 4.39085 7.94216 4.16699 7.66602 4.16699H1.16602Z"  />
</svg>
