<svg width="16" height="12"   xmlns="http://www.w3.org/2000/svg"><path fill-rule="evenodd" clip-rule="evenodd" d="M1.571 6a11.828 11.828 0 001.62 2.155C4.341 9.359 5.969 10.5 8 10.5c2.03 0 3.659-1.14 4.809-2.345A11.829 11.829 0 0014.429 6a11.83 11.83 0 00-1.62-2.155C11.659 2.641 10.03 1.5 7.999 1.5c-2.03 0-3.658 1.14-4.808 2.345A11.828 11.828 0 001.571 6zM15 6l.445-.227V5.77l-.003-.004-.007-.013a4.155 4.155 0 00-.12-.217 12.818 12.818 0 00-1.784-2.382C12.297 1.859 10.424.5 8 .5 5.576.5 3.704 1.86 2.468 3.155A12.828 12.828 0 00.684 5.537a7.552 7.552 0 00-.12.217l-.007.013-.002.004v.001L1 6l-.445-.228a.502.502 0 000 .455L1 6l-.446.227.001.002.002.004.007.013a4.608 4.608 0 00.12.217 12.828 12.828 0 001.784 2.382C3.704 10.14 5.576 11.5 8 11.5c2.423 0 4.296-1.36 5.532-2.655a12.818 12.818 0 001.784-2.382 7.744 7.744 0 00.12-.217l.006-.013.002-.004v-.001c.001 0 .001-.001-.444-.228zm0 0l.445.228a.503.503 0 000-.455L15 6zM8 4.625c-.787 0-1.41.624-1.41 1.375 0 .75.623 1.375 1.41 1.375.787 0 1.409-.624 1.409-1.375 0-.75-.622-1.375-1.41-1.375zM5.59 6c0-1.32 1.088-2.375 2.41-2.375S10.409 4.68 10.409 6s-1.087 2.375-2.41 2.375C6.679 8.375 5.592 7.32 5.592 6z" /></svg>