<svg width="20" height="19" viewBox="0 0 20 19" xmlns="http://www.w3.org/2000/svg">
<path d="M11.8077 1.425C12.4391 1.14485 13.1188 1.00041 13.8056 1.00041C14.4925 1.00041 15.1722 1.14485 15.8036 1.425C16.4352 1.705 17.009 2.115 17.4892 2.63C17.9706 3.14646 18.3505 3.7551 18.6078 4.42201C19.1307 5.77294 19.1307 7.28109 18.6078 8.63202C18.3503 9.29823 17.9704 9.90618 17.4892 10.422L10.692 17.696C10.6021 17.7922 10.4945 17.8687 10.3756 17.9209C10.2566 17.9731 10.1288 18 9.99963 18C9.87048 18 9.74265 17.9731 9.62372 17.9209C9.50478 17.8687 9.39718 17.7922 9.30728 17.696L2.51104 10.423C1.53913 9.37678 0.997317 7.97978 1.00001 6.52701C0.997067 5.0739 1.5389 3.6765 2.51104 2.63C2.98822 2.11598 3.56024 1.70678 4.19306 1.42675C4.82588 1.14672 5.50656 1.00159 6.19459 1C7.58122 1 9.0286 1.59 9.99963 2.63C10.4808 2.116 11.1761 1.706 11.8077 1.425ZM13.8056 3.00001C13.3814 3.00001 12.96 3.09001 12.5656 3.26401C12.1679 3.44128 11.8083 3.69896 11.5078 4.02201L10.692 4.89401C10.6021 4.99018 10.4945 5.06663 10.3756 5.11885C10.2566 5.17106 10.1288 5.19797 9.99963 5.19797C9.87048 5.19797 9.74265 5.17106 9.62372 5.11885C9.50478 5.06663 9.39718 4.99018 9.30728 4.89401L8.49247 4.02201C8.19507 3.70033 7.83826 3.44406 7.4433 3.26848C7.04835 3.09289 6.62334 3.00158 6.19362 3.00001C5.33831 3.00001 4.51095 3.36401 3.89574 4.02201C3.27238 4.69539 2.9256 5.59355 2.92857 6.52701C2.9261 7.45978 3.27284 8.35713 3.89574 9.03002L9.99963 15.562L16.1035 9.03002C16.4082 8.70402 16.6522 8.31502 16.819 7.88502C17.1567 7.01251 17.1567 6.03852 16.819 5.16601C16.6547 4.73989 16.412 4.35099 16.1045 4.02101C15.8034 3.69779 15.4431 3.44009 15.0447 3.26301C14.6532 3.08903 14.2316 3.00022 13.8056 3.00001Z" />
</svg>
