<svg width="20" height="18" viewBox="0 0 20 18" fill="none" xmlns="http://www.w3.org/2000/svg">
<path d="M17.0482 2.82611C16.641 2.40569 16.1574 2.07219 15.6252 1.84465C15.0931 1.61711 14.5226 1.5 13.9466 1.5C13.3705 1.5 12.8001 1.61711 12.2679 1.84465C11.7357 2.07219 11.2522 2.40569 10.845 2.82611L9.99981 3.69821L9.15464 2.82611C8.33204 1.9773 7.21636 1.50044 6.05303 1.50044C4.8897 1.50044 3.77401 1.9773 2.95142 2.82611C2.12882 3.67492 1.66669 4.82616 1.66669 6.02656C1.66669 7.22696 2.12882 8.37819 2.95142 9.227L3.79659 10.0991L9.99981 16.5L16.203 10.0991L17.0482 9.227C17.4556 8.80679 17.7788 8.30785 17.9993 7.75871C18.2199 7.20957 18.3334 6.62097 18.3334 6.02656C18.3334 5.43214 18.2199 4.84355 17.9993 4.2944C17.7788 3.74526 17.4556 3.24633 17.0482 2.82611V2.82611Z" fill="#DF1F26" stroke="#DF1F26" stroke-width="2" stroke-linecap="round" stroke-linejoin="round"/>
</svg>
