<svg width="19" height="17" viewBox="0 0 19 17"   xmlns="http://www.w3.org/2000/svg">
<path fill-rule="evenodd" clip-rule="evenodd" d="M11.4047 0.884911C11.9987 0.630939 12.6359 0.5 13.2799 0.5C13.9239 0.5 14.5611 0.630939 15.1551 0.884911C15.7491 1.13887 16.2877 1.51065 16.7406 1.97823C17.1937 2.44552 17.5523 2.99948 17.7966 3.60809C18.0411 4.21674 18.1667 4.8686 18.1667 5.52656C18.1667 6.18451 18.0411 6.83637 17.7966 7.44503C17.5522 8.0537 17.1936 8.60773 16.7405 9.07505L9.69217 16.348C9.598 16.4451 9.46845 16.5 9.33312 16.5C9.19779 16.5 9.06825 16.4451 8.97407 16.348L1.92568 9.07497C1.01112 8.13127 0.5 6.85459 0.5 5.52656C0.5 4.19852 1.01112 2.92184 1.92568 1.97814C2.84075 1.03391 4.08525 0.50044 5.38634 0.50044C6.68743 0.50044 7.93193 1.03391 8.84701 1.97814L9.33312 2.47975L9.81915 1.97823C10.2721 1.51065 10.8107 1.13887 11.4047 0.884911ZM13.2799 1.5C12.7717 1.5 12.2682 1.60329 11.7978 1.80439C11.3274 2.00551 10.899 2.30074 10.5374 2.67399L9.69217 3.54618C9.598 3.64336 9.46845 3.69821 9.33312 3.69821C9.19779 3.69821 9.06825 3.64336 8.97407 3.54618L8.1289 2.67407C7.39877 1.92068 6.41191 1.50044 5.38634 1.50044C4.36077 1.50044 3.37391 1.92068 2.64378 2.67407C1.91314 3.428 1.5 4.45379 1.5 5.52656C1.5 6.59932 1.91314 7.62511 2.64378 8.37904L9.33312 15.2815L16.0225 8.37904C16.3842 8.00593 16.6721 7.562 16.8687 7.07239C17.0653 6.58276 17.1667 6.05743 17.1667 5.52656C17.1667 4.99568 17.0653 4.47035 16.8687 3.98072C16.6721 3.49111 16.3843 3.04727 16.0225 2.67416C15.661 2.30091 15.2324 2.00551 14.762 1.80439C14.2916 1.60329 13.7881 1.5 13.2799 1.5Z" />
</svg>
