<svg width="24" height="24" viewBox="0 0 24 24" fill="none" xmlns="http://www.w3.org/2000/svg">
<path d="M12 11C12.9889 11 13.9556 10.7068 14.7778 10.1573C15.6001 9.60794 16.241 8.82705 16.6194 7.91342C16.9978 6.99979 17.0969 5.99445 16.9039 5.02455C16.711 4.05465 16.2348 3.16373 15.5355 2.46447C14.8363 1.76521 13.9454 1.289 12.9755 1.09608C12.0055 0.90315 11.0002 1.00217 10.0866 1.3806C9.17295 1.75904 8.39206 2.3999 7.84265 3.22215C7.29325 4.0444 7 5.01109 7 6C7.00132 7.32568 7.52853 8.59668 8.46593 9.53407C9.40332 10.4715 10.6743 10.9987 12 11ZM12 2.66667C12.6593 2.66667 13.3037 2.86217 13.8519 3.22844C14.4001 3.59471 14.8273 4.1153 15.0796 4.72439C15.3319 5.33348 15.3979 6.0037 15.2693 6.6503C15.1407 7.29691 14.8232 7.89085 14.357 8.35702C13.8908 8.8232 13.2969 9.14067 12.6503 9.26928C12.0037 9.3979 11.3335 9.33189 10.7244 9.0796C10.1153 8.82731 9.59471 8.40006 9.22843 7.8519C8.86216 7.30374 8.66667 6.65927 8.66667 6C8.66667 5.11595 9.01786 4.2681 9.64298 3.64298C10.2681 3.01786 11.1159 2.66667 12 2.66667V2.66667Z" fill="#DF1F26"/>
<circle cx="12" cy="6" r="4" stroke="#DF1F26" stroke-width="2"/>
<path d="M3 17.9588C3 17.4226 3.29658 16.772 4.04355 16.1079C4.78355 15.45 5.89001 14.8546 7.27573 14.4571C8.59978 14.0773 10.1835 14 12 14C13.8165 14 15.4002 14.0773 16.7243 14.4571C18.11 14.8546 19.2164 15.45 19.9565 16.1079C20.7034 16.772 21 17.4226 21 17.9588C21 18.4133 20.797 19.1217 20.3462 19.843C19.9031 20.5521 19.2829 21.1723 18.5628 21.5224C17.8642 21.862 16.9767 21.9847 15.8335 21.9986C15.2684 22.0055 14.6704 21.9862 14.0241 21.9641L13.941 21.9612C13.3259 21.9401 12.6713 21.9176 12 21.9176C11.3287 21.9176 10.6741 21.9401 10.059 21.9612C10.0312 21.9622 10.0035 21.9631 9.97589 21.9641C9.32957 21.9862 8.73159 22.0055 8.16649 21.9986C7.0233 21.9847 6.13583 21.862 5.4372 21.5224C4.7171 21.1723 4.09689 20.5521 3.65377 19.843C3.20297 19.1217 3 18.4133 3 17.9588Z" stroke="#DF1F26" stroke-width="2"/>
</svg>
