<svg width="24" height="24" viewBox="0 0 24 24" fill="none" xmlns="http://www.w3.org/2000/svg">
<path d="M12 11C12.9889 11 13.9556 10.7067 14.7778 10.1573C15.6001 9.60793 16.241 8.82704 16.6194 7.91341C16.9978 6.99978 17.0969 5.99445 16.9039 5.02454C16.711 4.05464 16.2348 3.16372 15.5355 2.46446C14.8363 1.7652 13.9454 1.28899 12.9755 1.09607C12.0055 0.903142 11.0002 1.00216 10.0866 1.3806C9.17295 1.75903 8.39206 2.3999 7.84265 3.22214C7.29325 4.04439 7 5.01109 7 5.99999C7.00132 7.32567 7.52853 8.59667 8.46593 9.53407C9.40332 10.4715 10.6743 10.9987 12 11ZM12 2.66666C12.6593 2.66666 13.3037 2.86216 13.8519 3.22843C14.4001 3.5947 14.8273 4.1153 15.0796 4.72438C15.3319 5.33347 15.3979 6.00369 15.2693 6.65029C15.1407 7.2969 14.8232 7.89084 14.357 8.35702C13.8908 8.82319 13.2969 9.14066 12.6503 9.26928C12.0037 9.39789 11.3335 9.33188 10.7244 9.07959C10.1153 8.8273 9.59471 8.40006 9.22843 7.85189C8.86216 7.30373 8.66667 6.65926 8.66667 5.99999C8.66667 5.11594 9.01786 4.26809 9.64298 3.64297C10.2681 3.01785 11.1159 2.66666 12 2.66666Z" fill="#222222"/>
<circle cx="12" cy="5.99999" r="4" stroke="#222222" stroke-width="2"/>
<path d="M21 17.9588C21 18.4133 20.797 19.1217 20.3462 19.843C19.9031 20.5521 19.2829 21.1723 18.5628 21.5224C17.8642 21.862 16.9767 21.9847 15.8335 21.9986C15.2684 22.0054 14.6704 21.9862 14.0241 21.9641L13.941 21.9612C13.3259 21.9401 12.6713 21.9176 12 21.9176C11.3287 21.9176 10.6741 21.9401 10.059 21.9612C10.0312 21.9622 10.0035 21.9631 9.97589 21.9641C9.32957 21.9862 8.73159 22.0054 8.16649 21.9986C7.0233 21.9847 6.13583 21.862 5.4372 21.5224C4.7171 21.1723 4.09689 20.5521 3.65377 19.843C3.20297 19.1217 3 18.4133 3 17.9588C3 17.4226 3.29658 16.772 4.04355 16.1079C4.78355 15.45 5.89001 14.8546 7.27573 14.4571C8.59978 14.0773 10.1835 14 12 14C13.8165 14 15.4002 14.0773 16.7243 14.4571C18.11 14.8546 19.2164 15.45 19.9565 16.1079C20.7034 16.772 21 17.4226 21 17.9588Z" stroke="#222222" stroke-width="2"/>
</svg>
