<svg width="24" height="26" xmlns="http://www.w3.org/2000/svg">
<path fill-rule="evenodd" clip-rule="evenodd" d="M5.927 2.407A8.066 8.066 0 0111.667 0c2.155 0 4.22.867 5.74 2.407a8.248 8.248 0 012.37 5.794c0 4.056.858 6.59 1.659 8.078.402.746.795 1.239 1.072 1.535a3.781 3.781 0 00.395.367 1 1 0 01-.57 1.822H1a1 1 0 01-.562-1.827c.012-.01.036-.028.07-.057.068-.057.179-.157.317-.305.277-.296.67-.79 1.072-1.535C2.7 14.79 3.556 12.257 3.556 8.2c0-2.17.851-4.255 2.37-5.794zm14.208 15.596a10.832 10.832 0 01-.46-.776c-.976-1.813-1.897-4.68-1.897-9.026a6.248 6.248 0 00-1.794-4.39A6.066 6.066 0 0011.666 2c-1.617 0-3.17.65-4.317 1.812a6.248 6.248 0 00-1.794 4.39c0 4.345-.921 7.212-1.898 9.025-.153.285-.308.543-.46.776h16.937zM9.119 22.936a1 1 0 011.365.371c.122.213.296.388.504.509a1.347 1.347 0 001.358 0c.207-.121.381-.296.503-.509a1 1 0 011.736.994 3.385 3.385 0 01-1.231 1.242 3.348 3.348 0 01-3.374 0 3.386 3.386 0 01-1.231-1.242 1 1 0 01.37-1.365z" />
</svg>