<svg width="14" height="14" xmlns="http://www.w3.org/2000/svg"><path fill-rule="evenodd" clip-rule="evenodd" d="M9.752.729a2.489 2.489 0 113.519 3.52l-1.304 1.304a.712.712 0 01-.132.132l-6.95 6.95c-.228.229-.51.397-.819.491l-2.735.83h-.002a1.033 1.033 0 01-1.286-1.284l.001-.003.83-2.734v-.001c.095-.31.265-.59.494-.82 0 .001 0 0 0 0l6.947-6.949a.724.724 0 01.132-.131L9.752.729zm-.863 2.893L2.383 10.13l-.001.001a.538.538 0 00-.134.223l-.61 2.008 2.01-.61a.538.538 0 00.223-.133l6.507-6.508-1.49-1.489zm2.504.474L9.904 2.607l.863-.863a1.053 1.053 0 011.489 1.49l-.863.862z"/></svg>