<svg width="24" height="24" viewBox="0 0 24 24" fill="none" xmlns="http://www.w3.org/2000/svg">
<path d="M21 10C21 17 12 23 12 23C12 23 3 17 3 10C3 7.61305 3.94821 5.32387 5.63604 3.63604C7.32387 1.94821 9.61305 1 12 1C14.3869 1 16.6761 1.94821 18.364 3.63604C20.0518 5.32387 21 7.61305 21 10Z" stroke="#DF1F26" stroke-width="2" stroke-linecap="round" stroke-linejoin="round"/>
<path d="M11.999 12.5789C13.6559 12.5789 14.999 11.2829 14.999 9.68421C14.999 8.08549 13.6559 6.78947 11.999 6.78947C10.3422 6.78947 8.99902 8.08549 8.99902 9.68421C8.99902 11.2829 10.3422 12.5789 11.999 12.5789Z" stroke="#DF1F26" stroke-width="2" stroke-linecap="round" stroke-linejoin="round"/>
</svg>
