<svg width="24" height="24" viewBox="0 0 24 24" xmlns="http://www.w3.org/2000/svg">
<path fill-rule="evenodd" clip-rule="evenodd" d="M1 5C1 4.44772 1.44772 4 2 4H6C6.55228 4 7 4.44772 7 5V9C7 9.55228 6.55228 10 6 10H2C1.44772 10 1 9.55228 1 9V5ZM6 5V9H2V5H6Z" />
<path fill-rule="evenodd" clip-rule="evenodd" d="M1 15C1 14.4477 1.44772 14 2 14H6C6.55228 14 7 14.4477 7 15V19C7 19.5523 6.55228 20 6 20H2C1.44772 20 1 19.5523 1 19V15ZM6 15V19H2V15H6Z" />
<path fill-rule="evenodd" clip-rule="evenodd" d="M9 15C9 14.4477 9.44772 14 10 14H22C22.5523 14 23 14.4477 23 15V19C23 19.5523 22.5523 20 22 20H10C9.44772 20 9 19.5523 9 19V15ZM22 15V19H10V15H22Z" />
<path fill-rule="evenodd" clip-rule="evenodd" d="M9 5C9 4.44772 9.44772 4 10 4H22C22.5523 4 23 4.44772 23 5V9C23 9.55228 22.5523 10 22 10H10C9.44772 10 9 9.55228 9 9V5ZM22 5V9H10V5H22Z" />
</svg>
