<svg width="20" height="20" viewBox="0 0 20 20" fill="none" xmlns="http://www.w3.org/2000/svg">
<path d="M13.334 13.3333V2.5H0.833984V13.3333H13.334ZM13.334 13.3333L19.1673 13.3332V9.1665L16.6673 6.6665H13.334V13.3333ZM6.66667 15.4168C6.66667 16.5674 5.73393 17.5002 4.58333 17.5002C3.43274 17.5002 2.5 16.5674 2.5 15.4168C2.5 14.2662 3.43274 13.3335 4.58333 13.3335C5.73393 13.3335 6.66667 14.2662 6.66667 15.4168ZM17.5007 15.4168C17.5007 16.5674 16.5679 17.5002 15.4173 17.5002C14.2667 17.5002 13.334 16.5674 13.334 15.4168C13.334 14.2662 14.2667 13.3335 15.4173 13.3335C16.5679 13.3335 17.5007 14.2662 17.5007 15.4168Z" stroke="#222222" stroke-linecap="round" stroke-linejoin="round"/>
</svg>
