<svg width="20" height="12" xmlns="http://www.w3.org/2000/svg"><path d="M16.596 6.881c-.323-.42-.23-.607 0-.982.005-.004 2.674-3.798 2.949-5.085h.002c.136-.47 0-.814-.661-.814h-2.187c-.557 0-.813.296-.951.627 0 0-1.113 2.74-2.688 4.518-.509.513-.744.678-1.021.678-.137 0-.35-.165-.35-.634V.813c0-.562-.155-.813-.616-.813H7.634c-.349 0-.556.262-.556.507 0 .533.787.655.869 2.155v3.255c0 .713-.126.844-.405.844-.743 0-2.548-2.752-3.617-5.902C3.71.248 3.498 0 2.938 0H.75C.126 0 0 .297 0 .627 0 1.212.743 4.12 3.457 7.96 5.265 10.579 7.812 12 10.129 12c1.392 0 1.562-.315 1.562-.858 0-2.505-.126-2.741.572-2.741.323 0 .88.164 2.18 1.429 1.486 1.499 1.73 2.17 2.562 2.17h2.187c.623 0 .939-.315.757-.938-.416-1.309-3.226-4-3.353-4.18z"  /></svg>