<?xml version="1.0" encoding="utf-8"?><svg width="20" height="18" fill="none" xmlns="http://www.w3.org/2000/svg" viewBox="0 0 20 18"><path d="M17.048 2.826a4.379 4.379 0 00-1.423-.981 4.268 4.268 0 00-3.357 0 4.378 4.378 0 00-1.423.981L10 3.698l-.845-.872A4.319 4.319 0 006.053 1.5a4.319 4.319 0 00-3.102 1.326 4.6 4.6 0 00-1.284 3.2A4.6 4.6 0 002.95 9.228l.846.872L10 16.5l6.203-6.4.845-.873c.408-.42.73-.92.951-1.468a4.649 4.649 0 000-3.465 4.537 4.537 0 00-.95-1.468v0z" fill="#DF1F26" stroke="#DF1F26" stroke-width="2" stroke-linecap="round" stroke-linejoin="round"/></svg>