<?xml version="1.0" encoding="utf-8"?><svg width="19" height="17" xmlns="http://www.w3.org/2000/svg" viewBox="0 0 19 17"><path fill-rule="evenodd" clip-rule="evenodd" d="M11.405.885a4.768 4.768 0 013.75 0 4.878 4.878 0 011.586 1.093 5.035 5.035 0 011.056 1.63 5.149 5.149 0 010 3.837 5.037 5.037 0 01-1.056 1.63l-7.049 7.273a.5.5 0 01-.718 0L1.926 9.075A5.1 5.1 0 01.5 5.527a5.1 5.1 0 011.426-3.549A4.819 4.819 0 015.386.5c1.301 0 2.546.534 3.461 1.478l.486.502.486-.502c.453-.467.992-.84 1.586-1.093zm1.875.615c-.508 0-1.012.103-1.482.304a3.88 3.88 0 00-1.26.87l-.846.872a.5.5 0 01-.718 0l-.845-.872A3.819 3.819 0 005.386 1.5c-1.025 0-2.012.42-2.742 1.174A4.1 4.1 0 001.5 5.527a4.1 4.1 0 001.144 2.852l6.69 6.902 6.689-6.902c.361-.373.65-.817.846-1.307a4.15 4.15 0 000-3.091 4.037 4.037 0 00-.846-1.307 3.88 3.88 0 00-1.261-.87A3.768 3.768 0 0013.28 1.5z"/></svg>