<?xml version="1.0" encoding="utf-8"?><svg width="20" height="19" xmlns="http://www.w3.org/2000/svg" viewBox="0 0 20 19"><path d="M11.808 1.425a4.924 4.924 0 013.996 0c.631.28 1.205.69 1.685 1.205a5.565 5.565 0 011.119 1.792 5.845 5.845 0 010 4.21 5.563 5.563 0 01-1.119 1.79l-6.797 7.274a.935.935 0 01-1.385 0l-6.796-7.273A5.712 5.712 0 011 6.527 5.712 5.712 0 012.511 2.63a5.129 5.129 0 011.682-1.203A4.972 4.972 0 016.195 1C7.58 1 9.029 1.59 10 2.63c.48-.514 1.176-.924 1.808-1.205zM13.806 3c-.425 0-.846.09-1.24.264a3.256 3.256 0 00-1.058.758l-.816.872a.935.935 0 01-1.385 0l-.815-.872a3.2 3.2 0 00-1.049-.754A3.102 3.102 0 006.193 3c-.855 0-1.682.364-2.297 1.022a3.672 3.672 0 00-.967 2.505c-.003.933.344 1.83.967 2.503L10 15.562l6.104-6.532c.304-.326.548-.715.715-1.145a3.775 3.775 0 000-2.719 3.555 3.555 0 00-.714-1.145 3.258 3.258 0 00-1.06-.758A3.052 3.052 0 0013.805 3z"/></svg>