<?xml version="1.0" encoding="utf-8"?><svg width="16" height="16" xmlns="http://www.w3.org/2000/svg" viewBox="0 0 16 16"><path d="M11.669 0H4.33A4.336 4.336 0 000 4.331v7.338A4.336 4.336 0 004.331 16h7.338A4.336 4.336 0 0016 11.669V4.331A4.336 4.336 0 0011.669 0zM8 12.375A4.38 4.38 0 013.625 8 4.38 4.38 0 018 3.625 4.38 4.38 0 0112.375 8 4.38 4.38 0 018 12.375zm4.48-7.718c-.713 0-1.293-.58-1.293-1.293s.58-1.293 1.293-1.293c.712 0 1.292.58 1.292 1.293s-.58 1.293-1.293 1.293z"/><path d="M8 5C6.346 5 5 6.346 5 8s1.346 3 3 3 3-1.346 3-3-1.346-3-3-3z"/></svg>