<?xml version="1.0" encoding="utf-8"?><svg width="24" height="24" fill="none" xmlns="http://www.w3.org/2000/svg" viewBox="0 0 24 24"><path d="M12 11a4.999 4.999 0 100-9.998A4.999 4.999 0 0012 11zm0-8.333a3.333 3.333 0 110 6.666 3.333 3.333 0 010-6.666z" fill="#DF1F26"/><circle cx="12" cy="6" r="4" stroke="#DF1F26" stroke-width="2"/><path d="M3 17.959c0-.536.297-1.187 1.044-1.851.74-.658 1.846-1.253 3.232-1.65C8.6 14.077 10.184 14 12 14c1.816 0 3.4.077 4.724.457 1.386.398 2.492.993 3.232 1.65.747.665 1.044 1.316 1.044 1.852 0 .454-.203 1.163-.654 1.884-.443.71-1.063 1.33-1.783 1.68-.699.339-1.586.462-2.73.476a39.735 39.735 0 01-1.809-.035l-.083-.003c-.615-.02-1.27-.043-1.941-.043s-1.326.022-1.941.043l-.083.003c-.646.022-1.244.042-1.81.035-1.143-.014-2.03-.137-2.729-.477-.72-.35-1.34-.97-1.783-1.679-.451-.721-.654-1.43-.654-1.884z" stroke="#DF1F26" stroke-width="2"/></svg>