<?xml version="1.0" encoding="utf-8"?><svg width="20" height="20" fill="none" xmlns="http://www.w3.org/2000/svg" viewBox="0 0 20 20"><path d="M16.832 3.51a.437.437 0 00-.343-.343 8.676 8.676 0 00-6.815 1.506.448.448 0 00-.105.11c-.098.146-.074.235-.074.777l-.115-.115a.437.437 0 00-.612-.007c-.057.055.16-.162-3.132 3.13a3.006 3.006 0 00-.886 2.14v3.923l-1.622 1.622a.437.437 0 10.619.619l1.622-1.622h3.923c.808 0 1.568-.315 2.14-.886l.608-.61a.438.438 0 00.183-.728l-.35-.351c1.144 0 1.13.015 1.25-.041a.437.437 0 00.363-.325c1.09-1.09 2.105-1.967 2.86-3.802a8.653 8.653 0 00.486-4.997zm-2.987 7.202l-1.051 1.051h-1.922a.437.437 0 00-.405.105.438.438 0 00-.076.679l.81.81-.389.388c-.406.406-.946.63-1.52.63H6.244l7.565-7.566a.437.437 0 10-.618-.62l-7.566 7.567v-3.048c0-.575.224-1.115.63-1.521L9.07 6.372c.588.589.622.663.825.68a.437.437 0 00.467-.357c.011-.058.008.03.008-1.443a7.802 7.802 0 015.656-1.279 7.752 7.752 0 01-2.18 6.739z" fill="#8F8F8F"/></svg>