<?xml version="1.0" encoding="utf-8"?><svg width="20" height="20" xmlns="http://www.w3.org/2000/svg" viewBox="0 0 20 20"><path fill-rule="evenodd" clip-rule="evenodd" d="M10.5 1.947a6.56 6.56 0 00-4.623 1.904A6.484 6.484 0 003.96 8.45c0 2.524 1.644 4.928 3.38 6.748a23.193 23.193 0 003.14 2.735l.02.014.02-.014a23.189 23.189 0 003.141-2.735c1.735-1.82 3.379-4.224 3.379-6.748 0-1.726-.69-3.38-1.917-4.6A6.56 6.56 0 0010.5 1.948zm0 16.58l-.268.393-.002-.002-.004-.003-.017-.01a21.882 21.882 0 01-1.106-.82 24.148 24.148 0 01-2.463-2.237C4.866 13.986 3 11.352 3 8.45c0-1.975.79-3.87 2.196-5.267A7.526 7.526 0 0110.5 1a7.53 7.53 0 015.305 2.183A7.425 7.425 0 0118 8.45c0 2.902-1.866 5.536-3.64 7.398a24.158 24.158 0 01-3.507 3.014 5.085 5.085 0 01-.062.042l-.017.011-.004.004h-.002l-.268-.392zm0 0l.268.392a.487.487 0 01-.536 0l.268-.392z"/><path fill-rule="evenodd" clip-rule="evenodd" d="M10.5 6.872c-.922 0-1.649.74-1.649 1.628 0 .888.727 1.628 1.649 1.628s1.649-.74 1.649-1.628c0-.888-.727-1.628-1.649-1.628zM8 8.5a2.5 2.5 0 115 0 2.5 2.5 0 01-5 0z"/></svg>