<?xml version="1.0" encoding="utf-8"?><svg width="15" height="19" xmlns="http://www.w3.org/2000/svg" viewBox="0 0 15 19"><path fill-rule="evenodd" clip-rule="evenodd" d="M7.5 1.5c-1.641 0-3.22.676-4.385 1.884a6.585 6.585 0 00-1.826 4.57c0 2.51 1.568 4.902 3.225 6.714A22.501 22.501 0 007.5 17.381a22.499 22.499 0 002.986-2.713c1.657-1.812 3.224-4.203 3.224-6.713a6.585 6.585 0 00-1.825-4.57A6.093 6.093 0 007.5 1.5zm0 16.5l.284.411a.5.5 0 01-.568 0L7.5 18zM2.395 2.69A7.093 7.093 0 017.5.5c1.918 0 3.754.79 5.105 2.19a7.585 7.585 0 012.105 5.265c0 2.898-1.787 5.53-3.486 7.388a23.502 23.502 0 01-3.136 2.848 13.593 13.593 0 01-.28.204l-.017.012-.005.003-.002.001L7.5 18l-.284.411-.002-.001-.005-.003-.016-.012a21.062 21.062 0 01-1.06-.819 23.5 23.5 0 01-2.357-2.233c-1.7-1.858-3.487-4.49-3.487-7.388 0-1.972.756-3.866 2.106-5.265zM7.5 5.974a1.737 1.737 0 100 3.473 1.737 1.737 0 000-3.473zM4.763 7.71a2.737 2.737 0 115.474 0 2.737 2.737 0 01-5.474 0z"/></svg>