<?xml version="1.0" encoding="utf-8"?><svg width="21" height="21" xmlns="http://www.w3.org/2000/svg" viewBox="0 0 21 21"><path fill-rule="evenodd" clip-rule="evenodd" d="M10.5 4a6.5 6.5 0 100 13 6.5 6.5 0 000-13zM3 10.5a7.5 7.5 0 1115 0 7.5 7.5 0 01-15 0zm7.714-2.98a1.6 1.6 0 00-1.78 1.046.5.5 0 01-.943-.332 2.6 2.6 0 015.053.867c0 .965-.718 1.62-1.273 1.99a5.438 5.438 0 01-1.136.572l-.022.008-.007.002h-.002l-.002.001-.158-.474.158.474a.5.5 0 01-.317-.948l.15.448-.15-.448h.002l.013-.005.056-.021c.05-.02.124-.048.213-.088.18-.08.415-.198.648-.353.494-.33.827-.724.827-1.159a1.601 1.601 0 00-1.33-1.58zM10 14a.5.5 0 01.5-.5h.007a.5.5 0 010 1H10.5a.5.5 0 01-.5-.5z"/></svg>