<?xml version="1.0" encoding="utf-8"?><svg width="24" height="24" fill="none" xmlns="http://www.w3.org/2000/svg" viewBox="0 0 24 24"><path d="M22.832 15.266a1.167 1.167 0 00-.524.14c-.16.087-.296.21-.396.359l-3.903 5.631-2.449-1.578a1.16 1.16 0 00-.872-.198c-.152.026-.296.081-.425.162-.13.08-.24.186-.326.31a1.074 1.074 0 00-.164.848c.034.144.098.28.188.401.09.12.205.222.337.298l3.402 2.18c.25.159.557.217.851.16.295-.058.554-.225.72-.466l4.532-6.541a1.064 1.064 0 00.057-1.14c-.1-.176-.25-.322-.431-.422a1.17 1.17 0 00-.597-.144z" fill="#DF1F26"/><path fill-rule="evenodd" clip-rule="evenodd" d="M11.952 8.727a3.28 3.28 0 003.286-3.272 3.28 3.28 0 00-3.286-3.273 3.28 3.28 0 00-3.285 3.273 3.28 3.28 0 003.285 3.272zm0 2.182c3.025 0 5.477-2.442 5.477-5.454C17.429 2.442 14.977 0 11.952 0 8.928 0 6.476 2.442 6.476 5.455c0 3.012 2.452 5.454 5.476 5.454z" fill="#DF1F26"/><path d="M3.966 17.297c-.677.599-.776 1.035-.776 1.203 0 .235.13.81.55 1.478.403.642.94 1.156 1.503 1.429.543.263 1.317.395 2.524.41.59.007 1.22-.013 1.931-.037l.096-.004c.34-.011.696-.023 1.063-.033a1.071 1.071 0 011.095 1.076c0 .603-.49 1.091-1.095 1.107-.337.009-.67.02-.998.031-2.148.074-4.072.14-5.573-.588C2.258 22.387 1 20.014 1 18.5c0-2.002 2.203-3.933 5.476-4.868 1.611-.46 3.481-.541 5.476-.541s3.866.08 5.477.54c.509.146.654.772.29 1.155l-.415.438c-.295.31-.737.426-1.157.342-1.16-.232-2.544-.293-4.195-.293-1.984 0-3.582.088-4.872.456-1.398.4-2.453.982-3.114 1.568z" fill="#DF1F26"/></svg>