<?xml version="1.0" encoding="utf-8"?><svg width="22" height="20" xmlns="http://www.w3.org/2000/svg" viewBox="0 0 22 20"><path fill-rule="evenodd" clip-rule="evenodd" d="M9.556.393a2.859 2.859 0 012.888 0c.438.256.8.622 1.056 1.06l.003.005 8.107 14.06.008.013a3.048 3.048 0 01.008 2.946 2.954 2.954 0 01-1.048 1.102 2.86 2.86 0 01-1.46.42l-.011.001H2.882a2.86 2.86 0 01-1.46-.421c-.44-.27-.8-.65-1.048-1.102a3.049 3.049 0 01.008-2.946l.008-.014L8.5 1.454A2.95 2.95 0 019.556.393zM11 2c-.15 0-.3.04-.434.119a.949.949 0 00-.338.34l-8.1 14.05a1.049 1.049 0 000 1.006c.083.152.2.274.337.357A.86.86 0 002.9 18h16.2a.86.86 0 00.435-.128.954.954 0 00.337-.357 1.049 1.049 0 000-1.006L11.774 2.462l-.001-.002a.949.949 0 00-.338-.341A.859.859 0 0011 2zm0 4.068a1 1 0 011 1v3.977a1 1 0 11-2 0V7.068a1 1 0 011-1zm-1 8.955a1 1 0 011-1h.01a1 1 0 110 2H11a1 1 0 01-1-1z"/></svg>