<?xml version="1.0" encoding="utf-8"?><svg width="24" height="24" xmlns="http://www.w3.org/2000/svg" viewBox="0 0 24 24"><path d="M17.82 12.04a2.346 2.346 0 00-2.343 2.343 2.346 2.346 0 002.343 2.344h3.32l.04-.002.039.002c.431 0 .781-.35.781-.782V9.812a3.12 3.12 0 00-1.295-2.53l-2.658-4.36a.782.782 0 00-1.079-.258l-1.96 1.216-.884-1.496a.78.78 0 00-1.078-.27L5.52 6.687H4.344a.782.782 0 01-.781-.761.782.782 0 01.78-.762H5.79a.781.781 0 100-1.562H4.344a2.346 2.346 0 00-2.28 1.8.778.778 0 00-.064.309v13.164A3.129 3.129 0 005.125 22h13.75a3.121 3.121 0 002.965-2.136.781.781 0 00-1.482-.494 1.56 1.56 0 01-1.483 1.067H5.125c-.862 0-1.563-.7-1.563-1.562V8.116c.251.089.516.134.782.134h14.531c.862 0 1.563.7 1.563 1.562v2.227H17.82zm2.617 3.124H17.82a.782.782 0 010-1.562h2.617v1.562zM8.528 6.688l4.653-2.828.832 1.408a.791.791 0 00.113.19l.726 1.23H8.528zm8.14 0l-.865-1.463 1.32-.818 1.39 2.28h-1.846z"/></svg>