<?xml version="1.0" encoding="utf-8"?><svg width="22" height="20" fill="none" xmlns="http://www.w3.org/2000/svg" viewBox="0 0 22 20"><path d="M11 7.068v3.977m0 3.978h.01M9.363 1.957l-8.106 14.06a2.048 2.048 0 00-.006 1.98c.166.3.404.552.692.728.289.176.616.271.95.275h16.214a1.86 1.86 0 00.95-.275c.288-.176.526-.427.692-.729a2.05 2.05 0 00-.005-1.979l-8.107-14.06a1.95 1.95 0 00-.698-.701 1.859 1.859 0 00-1.878 0 1.95 1.95 0 00-.698.701z" stroke="#8F8F8F" stroke-width="2" stroke-linecap="round" stroke-linejoin="round"/></svg>