<?xml version="1.0" encoding="utf-8"?><svg viewBox="0 0 28 30" xmlns="http://www.w3.org/2000/svg" xmlns:xlink="http://www.w3.org/1999/xlink"><style>:root>svg{display:none}:root>svg:target{display:block}</style><svg fill="none" viewBox="0 0 6 10" id="ic_arr-back" xmlns="http://www.w3.org/2000/svg"><path d="M5 9L1 5l4-4" stroke="#525166" stroke-linecap="round" stroke-linejoin="round"/></svg><svg fill="none" viewBox="0 0 12 12" id="ic_arr-back-popup" xmlns="http://www.w3.org/2000/svg"><path d="M11 6H1m5 5L1 6l5-5" stroke="#92919F" stroke-linecap="round" stroke-linejoin="round"/></svg><svg fill="none" viewBox="0 0 24 24" id="ic_arr-left" xmlns="http://www.w3.org/2000/svg"><path d="M19 12H5M12 19l-7-7 7-7" stroke="#222" stroke-width="2" stroke-linecap="round" stroke-linejoin="round"/></svg><svg fill="none" viewBox="0 0 6 10" id="ic_arr-next" xmlns="http://www.w3.org/2000/svg"><g clip-path="url(#adclip0_1730_10779)"><path d="M1 1l4 4-4 4" stroke="#525166" stroke-linecap="round" stroke-linejoin="round"/></g><defs><clipPath id="adclip0_1730_10779"><path fill="#fff" transform="rotate(-180 3 5)" d="M0 0h6v10H0z"/></clipPath></defs></svg><svg fill="none" viewBox="0 0 24 24" id="ic_arr-right" xmlns="http://www.w3.org/2000/svg"><path d="M5 12h14M12 5l7 7-7 7" stroke="#222" stroke-width="2" stroke-linecap="round" stroke-linejoin="round"/></svg><svg viewBox="0 0 24 24" id="ic_arrow-left" xmlns="http://www.w3.org/2000/svg"><path fill-rule="evenodd" clip-rule="evenodd" d="M9.854 5.146a.5.5 0 010 .708L3.707 12H22.5a.5.5 0 010 1H3.707l6.147 6.146a.5.5 0 01-.708.708l-7-7a.5.5 0 010-.708l7-7a.5.5 0 01.708 0z"/></svg><svg viewBox="0 0 24 24" id="ic_arrow-right" xmlns="http://www.w3.org/2000/svg"><path fill-rule="evenodd" clip-rule="evenodd" d="M15.146 5.146a.5.5 0 01.708 0l7 7a.5.5 0 010 .708l-7 7a.5.5 0 01-.708-.708L21.293 13H2.5a.5.5 0 010-1h18.793l-6.147-6.146a.5.5 0 010-.708z"/></svg><svg fill="none" viewBox="0 0 8 14" id="ic_back" xmlns="http://www.w3.org/2000/svg"><path d="M7 13L1 7l6-6" stroke="#CCC" stroke-width="2" stroke-linecap="round" stroke-linejoin="round"/></svg><svg viewBox="0 0 24 24" id="ic_calendar" xmlns="http://www.w3.org/2000/svg"><path fill-rule="evenodd" clip-rule="evenodd" d="M8.889 4.5a.5.5 0 01.5.5v.9h5.222V5a.5.5 0 011 0v.9h1.833c1.085 0 2.056.802 2.056 1.9v9.8c0 1.098-.971 1.9-2.056 1.9H6.556c-1.085 0-2.056-.802-2.056-1.9V7.8c0-1.098.971-1.9 2.056-1.9h1.833V5a.5.5 0 01.5-.5zm-.5 2.4H6.556c-.634 0-1.056.451-1.056.9v2.3h13V7.8c0-.449-.422-.9-1.056-.9h-1.833v.9a.5.5 0 11-1 0v-.9H9.39v.9a.5.5 0 01-1 0v-.9zM18.5 11.1h-13v6.5c0 .449.422.9 1.056.9h10.888c.634 0 1.056-.451 1.056-.9v-6.5z"/></svg><svg fill="none" viewBox="0 0 13 13" id="ic_catalog" xmlns="http://www.w3.org/2000/svg"><g fill="#1C1C1E"><rect width="6" height="6" rx="2"/><rect x="7" width="6" height="6" rx="2"/><rect y="7" width="6" height="6" rx="2"/><rect x="7" y="7" width="6" height="6" rx="2"/></g></svg><svg fill="none" viewBox="0 0 20 20" id="ic_comment" xmlns="http://www.w3.org/2000/svg"><path d="M16 9.667a5.587 5.587 0 01-.6 2.533 5.666 5.666 0 01-5.067 3.133 5.587 5.587 0 01-2.533-.6L4 16l1.267-3.8a5.587 5.587 0 01-.6-2.533A5.667 5.667 0 017.8 4.6a5.587 5.587 0 012.533-.6h.334A5.653 5.653 0 0116 9.333v.334z" stroke="#7B61FF" stroke-linecap="round" stroke-linejoin="round"/></svg><svg viewBox="0 0 24 24" id="ic_compare" xmlns="http://www.w3.org/2000/svg"><path d="M10 22H3V6h7v16zM21 22h-7V2h7v20z"/></svg><svg viewBox="0 0 24 24" id="ic_compare-default" xmlns="http://www.w3.org/2000/svg"><path d="M10 22H3V6h7v16zM21 22h-7V2h7v20z"/></svg><svg fill="none" viewBox="0 0 24 24" id="ic_compare-header" xmlns="http://www.w3.org/2000/svg"><path fill-rule="evenodd" clip-rule="evenodd" d="M15 3v18h5V3h-5zm-1.5-2a.5.5 0 00-.5.5v21a.5.5 0 00.5.5h8a.5.5 0 00.5-.5v-21a.5.5 0 00-.5-.5h-8zM4 7v14h5V7H4zM2.5 5a.5.5 0 00-.5.5v17a.5.5 0 00.5.5h8a.5.5 0 00.5-.5v-17a.5.5 0 00-.5-.5h-8z" fill="#DF1F26"/></svg><svg viewBox="0 0 18 20" id="ic_compare-thin" xmlns="http://www.w3.org/2000/svg"><path fill-rule="evenodd" clip-rule="evenodd" d="M10.832 1.833v16.334h5.5V1.833h-5.5zm-.5-1a.5.5 0 00-.5.5v17.334a.5.5 0 00.5.5h6.5a.5.5 0 00.5-.5V1.333a.5.5 0 00-.5-.5h-6.5zM1.666 5.167v13h5.5v-13h-5.5zm-.5-1a.5.5 0 00-.5.5v14a.5.5 0 00.5.5h6.5a.5.5 0 00.5-.5v-14a.5.5 0 00-.5-.5h-6.5z"/></svg><svg fill="none" viewBox="0 0 14 14" id="ic_cross" xmlns="http://www.w3.org/2000/svg"><path fill-rule="evenodd" clip-rule="evenodd" d="M.293.293a1 1 0 011.414 0L7 5.586 12.293.293a1 1 0 111.414 1.414L8.414 7l5.293 5.293a1 1 0 01-1.414 1.414L7 8.414l-5.293 5.293a1 1 0 01-1.414-1.414L5.586 7 .293 1.707a1 1 0 010-1.414z" fill="#222"/></svg><svg fill="none" viewBox="0 0 14 14" id="ic_cross-2" xmlns="http://www.w3.org/2000/svg"><path fill-rule="evenodd" clip-rule="evenodd" d="M.293.293a1 1 0 011.414 0L7 5.586 12.293.293a1 1 0 111.414 1.414L8.414 7l5.293 5.293a1 1 0 01-1.414 1.414L7 8.414l-5.293 5.293a1 1 0 01-1.414-1.414L5.586 7 .293 1.707a1 1 0 010-1.414z" fill="#DF1F26"/></svg><svg viewBox="0 0 20 20" id="ic_dislike" xmlns="http://www.w3.org/2000/svg"><path d="M11.536 13.1v2.8c0 .557-.225 1.091-.625 1.485A2.15 2.15 0 019.4 18l-2.844-7V4h8.023c.343-.004.676.115.937.333.261.219.434.523.485.857l.982 6.3a1.378 1.378 0 01-.333 1.129 1.422 1.422 0 01-1.09.481h-4.025zM2 9a2 2 0 002 2h1V4H4a2 2 0 00-2 2v3z"/></svg><svg fill="none" viewBox="0 0 24 24" id="ic_eye" xmlns="http://www.w3.org/2000/svg"><path fill="#fff" d="M0 0h24v24H0z"/><path d="M2 12s3.636-7 10-7 10 7 10 7-3.636 7-10 7-10-7-10-7z" stroke="#222" stroke-width="2" stroke-linecap="round" stroke-linejoin="round"/><path d="M12 14.625c1.506 0 2.727-1.175 2.727-2.625S13.507 9.375 12 9.375c-1.506 0-2.727 1.175-2.727 2.625s1.22 2.625 2.727 2.625z" stroke="#222" stroke-width="2" stroke-linecap="round" stroke-linejoin="round"/></svg><svg viewBox="0 0 16 12" id="ic_eye2" xmlns="http://www.w3.org/2000/svg"><path fill-rule="evenodd" clip-rule="evenodd" d="M1.571 6a11.828 11.828 0 001.62 2.155C4.341 9.359 5.969 10.5 8 10.5c2.03 0 3.659-1.14 4.809-2.345A11.829 11.829 0 0014.429 6a11.83 11.83 0 00-1.62-2.155C11.659 2.641 10.03 1.5 7.999 1.5c-2.03 0-3.658 1.14-4.808 2.345A11.828 11.828 0 001.571 6zM15 6l.445-.227V5.77l-.003-.004-.007-.013a4.155 4.155 0 00-.12-.217 12.818 12.818 0 00-1.784-2.382C12.297 1.859 10.424.5 8 .5 5.576.5 3.704 1.86 2.468 3.155A12.828 12.828 0 00.684 5.537a7.552 7.552 0 00-.12.217l-.007.013-.002.004v.001L1 6l-.445-.228a.502.502 0 000 .455L1 6l-.446.227.001.002.002.004.007.013a4.608 4.608 0 00.12.217 12.828 12.828 0 001.784 2.382C3.704 10.14 5.576 11.5 8 11.5c2.423 0 4.296-1.36 5.532-2.655a12.818 12.818 0 001.784-2.382 7.744 7.744 0 00.12-.217l.006-.013.002-.004v-.001c.001 0 .001-.001-.444-.228zm0 0l.445.228a.503.503 0 000-.455L15 6zM8 4.625c-.787 0-1.41.624-1.41 1.375 0 .75.623 1.375 1.41 1.375.787 0 1.409-.624 1.409-1.375 0-.75-.622-1.375-1.41-1.375zM5.59 6c0-1.32 1.088-2.375 2.41-2.375S10.409 4.68 10.409 6s-1.087 2.375-2.41 2.375C6.679 8.375 5.592 7.32 5.592 6z"/></svg><svg viewBox="0 0 9 16" id="ic_fb" xmlns="http://www.w3.org/2000/svg"><path d="M7.332 2.657h1.552V.113A21.278 21.278 0 006.623 0c-2.238 0-3.77 1.325-3.77 3.76V6H.382v2.844h2.47V16h3.026V8.845h2.37L8.625 6H5.879V4.04c0-.822.236-1.384 1.453-1.384z"/></svg><svg viewBox="0 0 17 15" id="ic_filter" xmlns="http://www.w3.org/2000/svg"><path fill-rule="evenodd" clip-rule="evenodd" d="M2.5 0a.5.5 0 01.5.5v6a.5.5 0 11-1 0v-6a.5.5 0 01.5-.5zm6 7a.5.5 0 01.5.5v7a.5.5 0 01-1 0v-7a.5.5 0 01.5-.5zm0-7a.5.5 0 01.5.5v4a.5.5 0 11-1 0v-4a.5.5 0 01.5-.5zm6 9a.5.5 0 01.5.5v5a.5.5 0 11-1 0v-5a.5.5 0 01.5-.5zm0-9a.5.5 0 01.5.5v6a.5.5 0 11-1 0v-6a.5.5 0 01.5-.5zm-12 9a.5.5 0 01.5.5v5a.5.5 0 01-1 0v-5a.5.5 0 01.5-.5z"/><path fill-rule="evenodd" clip-rule="evenodd" d="M0 9.5A.5.5 0 01.5 9h4a.5.5 0 010 1h-4a.5.5 0 01-.5-.5zm6-5a.5.5 0 01.5-.5h4a.5.5 0 110 1h-4a.5.5 0 01-.5-.5zm6 5a.5.5 0 01.5-.5h4a.5.5 0 110 1h-4a.5.5 0 01-.5-.5z"/></svg><svg fill="none" viewBox="0 0 24 24" id="ic_gps" xmlns="http://www.w3.org/2000/svg"><path d="M11.25 22.2v-1.73c-2.083-.214-3.836-1.033-5.26-2.458-1.425-1.424-2.244-3.178-2.458-5.261H1.8v-1.5h1.73c.215-2.084 1.034-3.837 2.458-5.262 1.425-1.424 3.178-2.243 5.262-2.457V1.8h1.5v1.73c2.083.215 3.837 1.034 5.261 2.458 1.425 1.425 2.244 3.178 2.458 5.262h1.73v1.5h-1.73c-.214 2.083-1.033 3.837-2.458 5.261-1.424 1.425-3.178 2.244-5.261 2.458v1.73h-1.5zM12 19c1.934 0 3.584-.683 4.95-2.05C18.318 15.585 19 13.935 19 12c0-1.933-.683-3.583-2.05-4.95C15.585 5.685 13.935 5 12 5c-1.933 0-3.583.684-4.95 2.05C5.685 8.418 5 10.068 5 12c0 1.934.684 3.584 2.05 4.95C8.418 18.318 10.068 19 12 19zm0-3.5c-.962 0-1.786-.342-2.471-1.027C8.843 13.787 8.5 12.963 8.5 12c0-.963.342-1.787 1.028-2.472C10.214 8.843 11.039 8.5 12 8.5s1.786.342 2.472 1.028c.685.685 1.028 1.51 1.028 2.472s-.343 1.786-1.028 2.472c-.686.685-1.51 1.028-2.472 1.028z" fill="#7B61FF"/></svg><svg fill="none" viewBox="0 0 24 24" id="ic_heart" xmlns="http://www.w3.org/2000/svg"><path d="M20.458 4.591a5.255 5.255 0 00-1.708-1.177 5.122 5.122 0 00-4.028 0 5.255 5.255 0 00-1.708 1.177L12 5.638 10.986 4.59a5.182 5.182 0 00-3.722-1.59 5.183 5.183 0 00-3.722 1.59A5.52 5.52 0 002 8.431a5.52 5.52 0 001.542 3.841l1.014 1.047L12 21l7.444-7.681 1.014-1.047a5.446 5.446 0 001.141-1.761 5.581 5.581 0 000-4.158 5.445 5.445 0 00-1.141-1.762v0z" stroke="#DF1F26" stroke-width="2" stroke-linecap="round" stroke-linejoin="round"/></svg><svg fill="none" viewBox="0 0 20 18" id="ic_heart-color" xmlns="http://www.w3.org/2000/svg"><path d="M17.048 2.826a4.379 4.379 0 00-1.423-.981 4.268 4.268 0 00-3.357 0 4.378 4.378 0 00-1.423.981L10 3.698l-.845-.872A4.319 4.319 0 006.053 1.5a4.319 4.319 0 00-3.102 1.326 4.6 4.6 0 00-1.284 3.2A4.6 4.6 0 002.95 9.228l.846.872L10 16.5l6.203-6.4.845-.873c.408-.42.73-.92.951-1.468a4.649 4.649 0 000-3.465 4.537 4.537 0 00-.95-1.468v0z" fill="#DF1F26" stroke="#DF1F26" stroke-width="2" stroke-linecap="round" stroke-linejoin="round"/></svg><svg viewBox="0 0 21 19" id="ic_heart-default" xmlns="http://www.w3.org/2000/svg"><path d="M17.69 3.326a4.468 4.468 0 00-1.452-.981 4.428 4.428 0 00-4.876.981l-.862.872-.862-.872A4.448 4.448 0 006.474 2 4.448 4.448 0 003.31 3.326c-.839.849-1.31 2-1.31 3.2 0 1.201.471 2.352 1.31 3.201l.863.872L10.5 17l6.327-6.4.862-.873c.416-.42.745-.92.97-1.468a4.571 4.571 0 00-.97-4.933z"/></svg><svg viewBox="0 0 20 19" id="ic_heart-default_copy" xmlns="http://www.w3.org/2000/svg"><path d="M11.808 1.425a4.924 4.924 0 013.996 0c.631.28 1.205.69 1.685 1.205a5.565 5.565 0 011.119 1.792 5.845 5.845 0 010 4.21 5.563 5.563 0 01-1.119 1.79l-6.797 7.274a.935.935 0 01-1.385 0l-6.796-7.273A5.712 5.712 0 011 6.527 5.712 5.712 0 012.511 2.63a5.129 5.129 0 011.682-1.203A4.972 4.972 0 016.195 1C7.58 1 9.029 1.59 10 2.63c.48-.514 1.176-.924 1.808-1.205zM13.806 3c-.425 0-.846.09-1.24.264a3.256 3.256 0 00-1.058.758l-.816.872a.935.935 0 01-1.385 0l-.815-.872a3.2 3.2 0 00-1.049-.754A3.102 3.102 0 006.193 3c-.855 0-1.682.364-2.297 1.022a3.672 3.672 0 00-.967 2.505c-.003.933.344 1.83.967 2.503L10 15.562l6.104-6.532c.304-.326.548-.715.715-1.145a3.775 3.775 0 000-2.719 3.555 3.555 0 00-.714-1.145 3.258 3.258 0 00-1.06-.758A3.052 3.052 0 0013.805 3z"/></svg><svg viewBox="0 0 19 17" id="ic_heart-thin" xmlns="http://www.w3.org/2000/svg"><path fill-rule="evenodd" clip-rule="evenodd" d="M11.405.885a4.768 4.768 0 013.75 0 4.878 4.878 0 011.586 1.093 5.035 5.035 0 011.056 1.63 5.149 5.149 0 010 3.837 5.037 5.037 0 01-1.056 1.63l-7.049 7.273a.5.5 0 01-.718 0L1.926 9.075A5.1 5.1 0 01.5 5.527a5.1 5.1 0 011.426-3.549A4.819 4.819 0 015.386.5c1.301 0 2.546.534 3.461 1.478l.486.502.486-.502c.453-.467.992-.84 1.586-1.093zm1.875.615c-.508 0-1.012.103-1.482.304a3.88 3.88 0 00-1.26.87l-.846.872a.5.5 0 01-.718 0l-.845-.872A3.819 3.819 0 005.386 1.5c-1.025 0-2.012.42-2.742 1.174A4.1 4.1 0 001.5 5.527a4.1 4.1 0 001.144 2.852l6.69 6.902 6.689-6.902c.361-.373.65-.817.846-1.307a4.15 4.15 0 000-3.091 4.037 4.037 0 00-.846-1.307 3.88 3.88 0 00-1.261-.87A3.768 3.768 0 0013.28 1.5z"/></svg><svg fill="none" viewBox="0 0 20 20" id="ic_info" xmlns="http://www.w3.org/2000/svg"><path fill-rule="evenodd" clip-rule="evenodd" d="M10 2a8 8 0 100 16 8 8 0 000-16zM0 10C0 4.477 4.477 0 10 0s10 4.477 10 10-4.477 10-10 10S0 15.523 0 10zm9-4a1 1 0 112 0 1 1 0 01-2 0zm1 3a1 1 0 011 1v4a1 1 0 11-2 0v-4a1 1 0 011-1z" fill="#7B61FF"/></svg><svg viewBox="0 0 16 16" id="ic_inst" xmlns="http://www.w3.org/2000/svg"><path d="M11.669 0H4.33A4.336 4.336 0 000 4.331v7.338A4.336 4.336 0 004.331 16h7.338A4.336 4.336 0 0016 11.669V4.331A4.336 4.336 0 0011.669 0zM8 12.375A4.38 4.38 0 013.625 8 4.38 4.38 0 018 3.625 4.38 4.38 0 0112.375 8 4.38 4.38 0 018 12.375zm4.48-7.718c-.713 0-1.293-.58-1.293-1.293s.58-1.293 1.293-1.293c.712 0 1.292.58 1.292 1.293s-.58 1.293-1.293 1.293z"/><path d="M8 5C6.346 5 5 6.346 5 8s1.346 3 3 3 3-1.346 3-3-1.346-3-3-3z"/></svg><svg viewBox="0 0 20 20" id="ic_like" xmlns="http://www.w3.org/2000/svg"><path d="M11.536 7.9V5.1c0-.557-.225-1.091-.625-1.485A2.152 2.152 0 009.4 3l-2.844 7v7h8.023c.343.004.676-.115.937-.333.262-.219.434-.523.486-.857l.981-6.3a1.38 1.38 0 00-.333-1.129 1.42 1.42 0 00-1.09-.481h-4.025zM2 12a2 2 0 012-2h1v7H4a2 2 0 01-2-2v-3z"/></svg><svg fill="#7B61FF" viewBox="0 0 5 8" id="ic_link-back" xmlns="http://www.w3.org/2000/svg"><path fill-rule="evenodd" clip-rule="evenodd" d="M4.354.646a.5.5 0 010 .708L1.707 4l2.647 2.646a.5.5 0 11-.708.708l-3-3a.5.5 0 010-.708l3-3a.5.5 0 01.708 0z"/></svg><svg fill="none" viewBox="0 0 24 24" id="ic_login" xmlns="http://www.w3.org/2000/svg"><path d="M12 11a4.999 4.999 0 100-9.998A4.999 4.999 0 0012 11zm0-8.333a3.333 3.333 0 110 6.666 3.333 3.333 0 010-6.666z" fill="#DF1F26"/><circle cx="12" cy="6" r="4" stroke="#DF1F26" stroke-width="2"/><path d="M3 17.959c0-.536.297-1.187 1.044-1.851.74-.658 1.846-1.253 3.232-1.65C8.6 14.077 10.184 14 12 14c1.816 0 3.4.077 4.724.457 1.386.398 2.492.993 3.232 1.65.747.665 1.044 1.316 1.044 1.852 0 .454-.203 1.163-.654 1.884-.443.71-1.063 1.33-1.783 1.68-.699.339-1.586.462-2.73.476a39.735 39.735 0 01-1.809-.035l-.083-.003c-.615-.02-1.27-.043-1.941-.043s-1.326.022-1.941.043l-.083.003c-.646.022-1.244.042-1.81.035-1.143-.014-2.03-.137-2.729-.477-.72-.35-1.34-.97-1.783-1.679-.451-.721-.654-1.43-.654-1.884z" stroke="#DF1F26" stroke-width="2"/></svg><svg fill="none" viewBox="0 0 18 18" id="ic_loupe" xmlns="http://www.w3.org/2000/svg"><path fill-rule="evenodd" clip-rule="evenodd" d="M2.376 2.376A8.111 8.111 0 0114.51 13.095l3.197 3.198a1 1 0 11-1.414 1.414l-3.197-3.198A8.111 8.111 0 012.376 2.376zm10.14 9.971a1.007 1.007 0 00-.168.168 6.111 6.111 0 11.168-.168z" fill="#CCC"/></svg><svg viewBox="0 0 12 14" id="ic_more" xmlns="http://www.w3.org/2000/svg"><path fill-rule="evenodd" clip-rule="evenodd" d="M.293 7.293a1 1 0 011.414 0L6 11.586l4.293-4.293a1 1 0 111.414 1.414l-5 5a1 1 0 01-1.414 0l-5-5a1 1 0 010-1.414z"/><path fill-rule="evenodd" clip-rule="evenodd" d="M.293.293a1 1 0 011.414 0L6 4.586 10.293.293a1 1 0 111.414 1.414l-5 5a1 1 0 01-1.414 0l-5-5a1 1 0 010-1.414z"/></svg><svg viewBox="0 0 6 10" id="ic_next-pagination" xmlns="http://www.w3.org/2000/svg"><path fill-rule="evenodd" clip-rule="evenodd" d="M.293.293a1 1 0 011.414 0l4 4a1 1 0 010 1.414l-4 4A1 1 0 01.293 8.293L3.586 5 .293 1.707a1 1 0 010-1.414z"/></svg><svg viewBox="0 0 24 26" id="ic_notifications" xmlns="http://www.w3.org/2000/svg"><path fill-rule="evenodd" clip-rule="evenodd" d="M5.927 2.407A8.066 8.066 0 0111.667 0c2.155 0 4.22.867 5.74 2.407a8.248 8.248 0 012.37 5.794c0 4.056.858 6.59 1.659 8.078.402.746.795 1.239 1.072 1.535a3.781 3.781 0 00.395.367 1 1 0 01-.57 1.822H1a1 1 0 01-.562-1.827c.012-.01.036-.028.07-.057.068-.057.179-.157.317-.305.277-.296.67-.79 1.072-1.535C2.7 14.79 3.556 12.257 3.556 8.2a8.25 8.25 0 012.37-5.794zm14.208 15.596a10.832 10.832 0 01-.46-.776c-.976-1.813-1.897-4.68-1.897-9.026a6.248 6.248 0 00-1.794-4.39A6.066 6.066 0 0011.666 2c-1.617 0-3.17.65-4.317 1.812a6.248 6.248 0 00-1.794 4.39c0 4.345-.921 7.212-1.898 9.025-.153.285-.308.543-.46.776h16.937zM9.119 22.936a1 1 0 011.365.371c.122.213.296.388.504.509a1.347 1.347 0 001.358 0c.207-.121.381-.296.503-.509a1 1 0 011.736.994 3.385 3.385 0 01-1.231 1.242 3.348 3.348 0 01-3.374 0 3.386 3.386 0 01-1.231-1.242 1 1 0 01.37-1.365z"/></svg><svg fill="#fff" viewBox="0 0 8 6" id="ic_ok" xmlns="http://www.w3.org/2000/svg"><path fill-rule="evenodd" clip-rule="evenodd" d="M7.707.293a1 1 0 010 1.414l-4 4a1 1 0 01-1.414 0l-2-2a1 1 0 011.414-1.414L3 3.586 6.293.293a1 1 0 011.414 0z"/></svg><svg fill="none" viewBox="0 0 20 20" id="ic_pen" xmlns="http://www.w3.org/2000/svg"><path d="M16.832 3.51a.437.437 0 00-.343-.343 8.676 8.676 0 00-6.815 1.506.448.448 0 00-.105.11c-.098.146-.074.235-.074.777l-.115-.115a.437.437 0 00-.612-.007c-.057.055.16-.162-3.132 3.13a3.006 3.006 0 00-.886 2.14v3.923l-1.622 1.622a.437.437 0 10.619.619l1.622-1.622h3.923c.808 0 1.568-.315 2.14-.886l.608-.61a.438.438 0 00.183-.728l-.35-.351c1.144 0 1.13.015 1.25-.041a.437.437 0 00.363-.325c1.09-1.09 2.105-1.967 2.86-3.802a8.653 8.653 0 00.486-4.997zm-2.987 7.202l-1.051 1.051h-1.922a.437.437 0 00-.405.105.438.438 0 00-.076.679l.81.81-.389.388c-.406.406-.946.63-1.52.63H6.244l7.565-7.566a.437.437 0 10-.618-.62l-7.566 7.567v-3.048c0-.575.224-1.115.63-1.521L9.07 6.372c.588.589.622.663.825.68a.437.437 0 00.467-.357c.011-.058.008.03.008-1.443a7.802 7.802 0 015.656-1.279 7.752 7.752 0 01-2.18 6.739z" fill="#8F8F8F"/></svg><svg viewBox="0 0 15 19" id="ic_pin" xmlns="http://www.w3.org/2000/svg"><path fill-rule="evenodd" clip-rule="evenodd" d="M7.5 1.5c-1.641 0-3.22.676-4.385 1.884a6.585 6.585 0 00-1.826 4.57c0 2.51 1.568 4.902 3.225 6.714A22.501 22.501 0 007.5 17.381a22.499 22.499 0 002.986-2.713c1.657-1.812 3.224-4.203 3.224-6.713a6.585 6.585 0 00-1.825-4.57A6.093 6.093 0 007.5 1.5zm0 16.5l.284.411a.5.5 0 01-.568 0L7.5 18zM2.395 2.69A7.093 7.093 0 017.5.5c1.918 0 3.754.79 5.105 2.19a7.585 7.585 0 012.105 5.265c0 2.898-1.787 5.53-3.486 7.388a23.502 23.502 0 01-3.136 2.848 13.593 13.593 0 01-.28.204l-.017.012-.005.003-.002.001L7.5 18l-.284.411-.002-.001-.005-.003-.016-.012a21.062 21.062 0 01-1.06-.819 23.5 23.5 0 01-2.357-2.233c-1.7-1.858-3.487-4.49-3.487-7.388 0-1.972.756-3.866 2.106-5.265zM7.5 5.974a1.737 1.737 0 100 3.473 1.737 1.737 0 000-3.473zM4.763 7.71a2.737 2.737 0 115.474 0 2.737 2.737 0 01-5.474 0z"/></svg><svg viewBox="0 0 20 20" id="ic_pin-default" xmlns="http://www.w3.org/2000/svg"><path fill-rule="evenodd" clip-rule="evenodd" d="M10.5 1.947a6.56 6.56 0 00-4.623 1.904A6.484 6.484 0 003.96 8.45c0 2.524 1.644 4.928 3.38 6.748a23.193 23.193 0 003.14 2.735l.02.014.02-.014a23.189 23.189 0 003.141-2.735c1.735-1.82 3.379-4.224 3.379-6.748 0-1.726-.69-3.38-1.917-4.6A6.56 6.56 0 0010.5 1.948zm0 16.58l-.268.393-.002-.002-.004-.003-.017-.01a21.882 21.882 0 01-1.106-.82 24.148 24.148 0 01-2.463-2.237C4.866 13.986 3 11.352 3 8.45c0-1.975.79-3.87 2.196-5.267A7.526 7.526 0 0110.5 1a7.53 7.53 0 015.305 2.183A7.425 7.425 0 0118 8.45c0 2.902-1.866 5.536-3.64 7.398a24.158 24.158 0 01-3.507 3.014 5.085 5.085 0 01-.062.042l-.017.011-.004.004h-.002l-.268-.392zm0 0l.268.392a.487.487 0 01-.536 0l.268-.392z"/><path fill-rule="evenodd" clip-rule="evenodd" d="M10.5 6.872c-.922 0-1.649.74-1.649 1.628 0 .888.727 1.628 1.649 1.628s1.649-.74 1.649-1.628c0-.888-.727-1.628-1.649-1.628zM8 8.5a2.5 2.5 0 115 0 2.5 2.5 0 01-5 0z"/></svg><svg fill="none" viewBox="0 0 27 30" id="ic_play" xmlns="http://www.w3.org/2000/svg"><path d="M26.864 15L.918 29.384V.616L26.864 15z" fill="#fff"/></svg><svg fill="none" viewBox="0 0 14 14" id="ic_plus" xmlns="http://www.w3.org/2000/svg"><path fill-rule="evenodd" clip-rule="evenodd" d="M7 0a1 1 0 011 1v5h5a1 1 0 110 2H8v5a1 1 0 11-2 0V8H1a1 1 0 010-2h5V1a1 1 0 011-1z" fill="#fff"/></svg><svg viewBox="0 0 6 10" id="ic_prev-pagination" xmlns="http://www.w3.org/2000/svg"><path fill-rule="evenodd" clip-rule="evenodd" d="M5.707 9.695a1 1 0 01-1.414 0l-4-4a1 1 0 010-1.413l4-4a1 1 0 011.414 1.413L2.414 4.988l3.293 3.293a1 1 0 010 1.414z"/></svg><svg viewBox="0 0 24 24" id="ic_share" xmlns="http://www.w3.org/2000/svg"><path fill-rule="evenodd" clip-rule="evenodd" d="M12 2a1 1 0 01.717.303l3.5 3.6a1 1 0 11-1.434 1.394L13 5.463V14.7a1 1 0 11-2 0V5.463L9.217 7.297a1 1 0 01-1.434-1.394l3.5-3.6A1 1 0 0112 2zm-7 9a1 1 0 011 1v7.2c0 .221.086.428.23.576.143.147.33.224.52.224h10.5c.19 0 .378-.077.52-.224A.827.827 0 0018 19.2V12a1 1 0 112 0v7.2c0 .734-.283 1.443-.796 1.97a2.725 2.725 0 01-1.954.83H6.75a2.726 2.726 0 01-1.954-.83A2.826 2.826 0 014 19.2V12a1 1 0 011-1z"/></svg><svg fill="none" viewBox="0 0 20 20" id="ic_shop" xmlns="http://www.w3.org/2000/svg"><path d="M14 10.667v4A1.334 1.334 0 0112.667 16H5.333A1.334 1.334 0 014 14.667V7.333A1.333 1.333 0 015.333 6h4M12 4h4m0 0v4m0-4l-7.333 7.333" stroke="#7B61FF" stroke-linecap="round" stroke-linejoin="round"/></svg><svg viewBox="0 0 24 24" id="ic_sort-grid" xmlns="http://www.w3.org/2000/svg"><path fill-rule="evenodd" clip-rule="evenodd" d="M4 5a1 1 0 011-1h5a1 1 0 011 1v5a1 1 0 01-1 1H5a1 1 0 01-1-1V5zm6 0v5H5V5h5zM4 14a1 1 0 011-1h5a1 1 0 011 1v5a1 1 0 01-1 1H5a1 1 0 01-1-1v-5zm6 0v5H5v-5h5zM13 5a1 1 0 011-1h5a1 1 0 011 1v5a1 1 0 01-1 1h-5a1 1 0 01-1-1V5zm6 0v5h-5V5h5zM13 14a1 1 0 011-1h5a1 1 0 011 1v5a1 1 0 01-1 1h-5a1 1 0 01-1-1v-5zm6 0v5h-5v-5h5z"/></svg><svg viewBox="0 0 24 24" id="ic_sort-list" xmlns="http://www.w3.org/2000/svg"><path fill-rule="evenodd" clip-rule="evenodd" d="M1 5a1 1 0 011-1h4a1 1 0 011 1v4a1 1 0 01-1 1H2a1 1 0 01-1-1V5zm5 0v4H2V5h4zM1 15a1 1 0 011-1h4a1 1 0 011 1v4a1 1 0 01-1 1H2a1 1 0 01-1-1v-4zm5 0v4H2v-4h4zM9 15a1 1 0 011-1h12a1 1 0 011 1v4a1 1 0 01-1 1H10a1 1 0 01-1-1v-4zm13 0v4H10v-4h12zM9 5a1 1 0 011-1h12a1 1 0 011 1v4a1 1 0 01-1 1H10a1 1 0 01-1-1V5zm13 0v4H10V5h12z"/></svg><svg fill="none" viewBox="0 0 18 18" id="ic_status-green" xmlns="http://www.w3.org/2000/svg"><rect width="18" height="18" rx="9" fill="#37A735"/><path d="M6 9l2 2 4-4" stroke="#fff" stroke-width="2" stroke-linecap="round" stroke-linejoin="round"/></svg><svg fill="none" viewBox="0 0 18 18" id="ic_status-orange" xmlns="http://www.w3.org/2000/svg"><rect width="18" height="18" rx="9" fill="#F80"/><path d="M7 6v6m4-6v6" stroke="#fff" stroke-width="2" stroke-linecap="round" stroke-linejoin="round"/></svg><svg fill="none" viewBox="0 0 18 18" id="ic_status-red" xmlns="http://www.w3.org/2000/svg"><rect width="18" height="18" rx="9" fill="#DF1F26"/><path d="M6 6l3 3m0 0l3 3M9 9l3-3M9 9l-3 3" stroke="#fff" stroke-width="2" stroke-linecap="round" stroke-linejoin="round"/></svg><svg fill="#fff" viewBox="0 0 24 24" id="ic_store-menu" xmlns="http://www.w3.org/2000/svg"><path fill-rule="evenodd" clip-rule="evenodd" d="M3 4a1 1 0 011-1h12a1 1 0 110 2H4a1 1 0 01-1-1zm0 16a1 1 0 011-1h12a1 1 0 110 2H4a1 1 0 01-1-1zm8-8a1 1 0 011-1h8a1 1 0 110 2h-8a1 1 0 01-1-1zM3.293 9.293a1 1 0 011.414 0l2 2a1 1 0 010 1.414l-2 2a1 1 0 01-1.414-1.414L4.586 12l-1.293-1.293a1 1 0 010-1.414z"/></svg><svg viewBox="0 0 16 14" id="ic_tg" xmlns="http://www.w3.org/2000/svg"><path d="M6.279 9.096l-.265 3.723c.379 0 .543-.163.74-.358l1.775-1.697 3.679 2.695c.674.376 1.15.178 1.332-.621l2.415-11.316c.214-.997-.36-1.388-1.018-1.143L.743 5.813c-.969.376-.954.916-.165 1.161l3.629 1.129 8.43-5.274c.396-.263.757-.118.46.145L6.279 9.096z"/></svg><svg viewBox="0 0 21 21" id="ic_tooltip" xmlns="http://www.w3.org/2000/svg"><path fill-rule="evenodd" clip-rule="evenodd" d="M10.5 4a6.5 6.5 0 100 13 6.5 6.5 0 000-13zM3 10.5a7.5 7.5 0 1115 0 7.5 7.5 0 01-15 0zm7.714-2.98a1.6 1.6 0 00-1.78 1.046.5.5 0 01-.943-.332 2.6 2.6 0 015.053.867c0 .965-.718 1.62-1.273 1.99a5.438 5.438 0 01-1.136.572l-.022.008-.007.002h-.002l-.002.001-.158-.474.158.474a.5.5 0 01-.317-.948l.15.448-.15-.448h.002l.013-.005.056-.021c.05-.02.124-.048.213-.088.18-.08.415-.198.648-.353.494-.33.827-.724.827-1.159a1.601 1.601 0 00-1.33-1.58zM10 14a.5.5 0 01.5-.5h.007a.5.5 0 010 1H10.5a.5.5 0 01-.5-.5z"/></svg><svg fill="none" viewBox="0 0 18 20" id="ic_trash" xmlns="http://www.w3.org/2000/svg"><path d="M1 4.6h1.778m0 0H17m-14.222 0v12.6c0 .477.187.935.52 1.273.334.337.786.527 1.258.527h8.888c.472 0 .924-.19 1.257-.527.334-.338.521-.796.521-1.273V4.6m-9.778 0V2.8c0-.477.188-.935.521-1.273A1.767 1.767 0 017.222 1h3.556c.471 0 .923.19 1.257.527.333.338.52.796.52 1.273v1.8M7.223 9.1v5.4m3.556-5.4v5.4"/></svg><svg fill="none" viewBox="0 0 28 28" id="ic_trash-strong" xmlns="http://www.w3.org/2000/svg"><path d="M5 8h2m0 0h16M7 8v14a2 2 0 002 2h10a2 2 0 002-2V8M10 8V6a2 2 0 012-2h4a2 2 0 012 2v2m-6 5v6m4-6v6"/></svg><svg fill="none" viewBox="0 0 20 20" id="ic_truck" xmlns="http://www.w3.org/2000/svg"><path d="M13.334 13.333V2.5H.834v10.833h12.5zm0 0h5.833V9.166l-2.5-2.5h-3.333v6.667zm-6.667 2.084a2.083 2.083 0 11-4.167 0 2.083 2.083 0 014.167 0zm10.834 0a2.083 2.083 0 11-4.167 0 2.083 2.083 0 014.167 0z" stroke="#222" stroke-linecap="round" stroke-linejoin="round"/></svg><svg viewBox="0 0 16 13" id="ic_tw" xmlns="http://www.w3.org/2000/svg"><path d="M16 1.543a6.872 6.872 0 01-1.645 1.696 9.368 9.368 0 01-.376 3.066 9.453 9.453 0 01-1.177 2.517 9.91 9.91 0 01-1.868 2.143c-.724.615-1.597 1.11-2.62 1.482a9.666 9.666 0 01-3.278.548A9.106 9.106 0 010 11.523c.237.027.5.04.792.04a6.42 6.42 0 004.07-1.4 3.214 3.214 0 01-1.908-.65 3.235 3.235 0 01-1.157-1.625c.223.034.43.051.62.051.29 0 .578-.037.862-.112a3.259 3.259 0 01-1.888-1.126A3.201 3.201 0 01.65 4.609v-.04c.46.257.954.395 1.482.416a3.275 3.275 0 01-1.066-1.168A3.195 3.195 0 01.67 2.254c0-.596.149-1.147.447-1.655a9.373 9.373 0 002.985 2.426A9.22 9.22 0 007.878 4.03a3.643 3.643 0 01-.081-.75c0-.908.318-1.68.954-2.316A3.169 3.169 0 0111.076 0c.948 0 1.746.345 2.396 1.036a6.43 6.43 0 002.081-.792 3.184 3.184 0 01-1.441 1.807A6.534 6.534 0 0016 1.543z"/></svg><svg viewBox="0 0 24 24" id="ic_upload_24" xmlns="http://www.w3.org/2000/svg"><path d="M3 14a1 1 0 011 1v4a1 1 0 001 1h14a1 1 0 001-1v-4a1 1 0 112 0v4a3 3 0 01-3 3H5a3 3 0 01-3-3v-4a1 1 0 011-1z"/><path d="M11.293 2.293a1 1 0 011.414 0l5 5a1 1 0 01-1.414 1.414L13 5.414V15a1 1 0 11-2 0V5.414L7.707 8.707a1 1 0 01-1.414-1.414l5-5z"/></svg><svg fill="none" viewBox="0 0 24 24" id="ic_user-login" xmlns="http://www.w3.org/2000/svg"><path d="M22.832 15.266a1.167 1.167 0 00-.524.14c-.16.087-.296.21-.396.359l-3.903 5.631-2.449-1.578a1.16 1.16 0 00-.872-.198c-.152.026-.296.081-.425.162-.13.08-.24.186-.326.31a1.074 1.074 0 00-.164.848c.034.144.098.28.188.401.09.12.205.222.337.298l3.402 2.18c.25.159.557.217.851.16.295-.058.554-.225.72-.466l4.532-6.541a1.064 1.064 0 00.057-1.14c-.1-.176-.25-.322-.431-.422a1.17 1.17 0 00-.597-.144z" fill="#DF1F26"/><path fill-rule="evenodd" clip-rule="evenodd" d="M11.952 8.727a3.28 3.28 0 003.286-3.272 3.28 3.28 0 00-3.286-3.273 3.28 3.28 0 00-3.285 3.273 3.28 3.28 0 003.285 3.272zm0 2.182c3.025 0 5.477-2.442 5.477-5.454C17.429 2.442 14.977 0 11.952 0 8.928 0 6.476 2.442 6.476 5.455c0 3.012 2.452 5.454 5.476 5.454z" fill="#DF1F26"/><path d="M3.966 17.297c-.677.599-.776 1.035-.776 1.203 0 .235.13.81.55 1.478.403.642.94 1.156 1.503 1.429.543.263 1.317.395 2.524.41.59.007 1.22-.013 1.931-.037l.096-.004c.34-.011.696-.023 1.063-.033a1.071 1.071 0 011.095 1.076c0 .603-.49 1.091-1.095 1.107-.337.009-.67.02-.998.031-2.148.074-4.072.14-5.573-.588C2.258 22.387 1 20.014 1 18.5c0-2.002 2.203-3.933 5.476-4.868 1.611-.46 3.481-.541 5.476-.541s3.866.08 5.477.54c.509.146.654.772.29 1.155l-.415.438c-.295.31-.737.426-1.157.342-1.16-.232-2.544-.293-4.195-.293-1.984 0-3.582.088-4.872.456-1.398.4-2.453.982-3.114 1.568z" fill="#DF1F26"/></svg><svg viewBox="0 0 20 20" id="ic_vb" xmlns="http://www.w3.org/2000/svg"><path d="M17.745 1.948c-.524-.457-2.64-1.914-7.36-1.934 0 0-5.565-.316-8.276 2.043C.602 3.487.07 5.584.013 8.18c-.058 2.597-.128 7.464 4.819 8.784h.004l-.004 2.015s-.033.817.535.98c.684.204 1.088-.417 1.743-1.085.358-.367.852-.906 1.227-1.316 3.386.27 5.985-.348 6.281-.438.684-.21 4.552-.68 5.178-5.546.65-5.023-.313-8.194-2.051-9.627zm.572 9.26c-.531 4.062-3.666 4.32-4.242 4.496-.247.074-2.534.613-5.404.437 0 0-2.142 2.449-2.81 3.086-.218.207-.457.187-.452-.223 0-.27.016-3.347.016-3.347-.004 0-.004 0 0 0-4.193-1.102-3.946-5.246-3.9-7.413.045-2.168.477-3.945 1.754-5.14 2.294-1.973 7.019-1.68 7.019-1.68 3.99.016 5.902 1.156 6.347 1.539 1.47 1.195 2.22 4.054 1.672 8.245zm-5.725-3.156c.016.336-.515.36-.532.024-.045-.86-.469-1.278-1.342-1.324-.354-.02-.322-.524.029-.504 1.149.058 1.787.683 1.845 1.804zm.836.442c.041-1.656-1.05-2.953-3.122-3.098-.35-.023-.313-.527.037-.504 2.389.164 3.662 1.723 3.616 3.613-.004.336-.54.32-.531-.011zm1.936.523c.004.336-.532.34-.532.004-.024-3.183-2.26-4.918-4.975-4.937-.35-.004-.35-.504 0-.504 3.036.02 5.478 2.008 5.507 5.437zm-.466 3.832v.007c-.444.742-1.276 1.563-2.133 1.3l-.008-.01c-.87-.231-2.917-1.231-4.21-2.208-.667-.5-1.277-1.09-1.746-1.656a12.643 12.643 0 01-1.269-1.82c-.877-1.503-1.07-2.175-1.07-2.175-.277-.813.584-1.602 1.37-2.023h.009c.379-.188.741-.125.984.152 0 0 .511.578.73.863.205.266.481.691.626.93.25.425.094.859-.153 1.039l-.494.375c-.251.19-.218.546-.218.546s.733 2.629 3.472 3.293c0 0 .375.031.576-.207l.396-.469c.19-.234.646-.383 1.095-.144.606.324 1.376.828 1.887 1.285.288.222.354.562.156.921z"/></svg><svg viewBox="0 0 19 11" id="ic_vk" xmlns="http://www.w3.org/2000/svg"><path d="M17.57 8.059c-.393-.414-.84-.785-1.27-1.143-.154-.128-.313-.26-.466-.39-.438-.377-.454-.519-.107-.947.24-.295.495-.59.742-.876.224-.26.455-.527.677-.796l.045-.055c.424-.515.862-1.047 1.095-1.689.06-.17.124-.418-.021-.627-.145-.208-.427-.272-.627-.301a1.946 1.946 0 00-.287-.017l-2.774-.002h-.023c-.42 0-.702.174-.864.53a13.74 13.74 0 01-.519 1.05c-.385.688-.875 1.48-1.584 2.141l-.03.028c-.084.08-.179.169-.248.169a.133.133 0 01-.035-.006c-.147-.05-.246-.362-.241-.507v-.006L11.03 1.8l-.003-.03c-.07-.457-.226-.742-.817-.843a.278.278 0 00-.048-.004H7.278c-.47 0-.729.168-.972.419-.066.067-.202.206-.135.376.07.172.292.208.365.22.361.06.564.254.622.593.1.588.113 1.216.039 1.975a1.49 1.49 0 01-.129.514c-.015.032-.07.138-.127.138-.018 0-.07-.006-.165-.063-.224-.135-.387-.327-.578-.564A12.863 12.863 0 014.53 1.817a.986.986 0 00-.92-.592c-.46-.006-.878-.01-1.276-.01-.435 0-.839.004-1.232.012-.337.005-.57.093-.693.263s-.115.394.024.664C1.544 4.32 2.55 5.896 3.697 7.261c.804.956 1.61 1.618 2.536 2.082.977.49 2.071.729 3.345.729.145 0 .294-.003.445-.01.74-.031 1.015-.266 1.05-.9.016-.323.057-.662.238-.951.114-.183.22-.183.256-.183.067 0 .151.028.241.079.161.092.3.216.413.324l.317.31c.228.224.464.456.71.675.538.481 1.132.693 1.813.647h2.56a.755.755 0 00.602-.34c.16-.248.157-.564-.008-.847a4.587 4.587 0 00-.645-.817z"/></svg><svg viewBox="0 0 16 17" id="ic_wa" xmlns="http://www.w3.org/2000/svg"><path d="M9.719 9.385c.27-.34.451-.51.541-.51.09 0 .428.153 1.01.458.591.306.904.49.938.552.014.035.021.087.021.157 0 .229-.059.493-.177.791-.111.271-.358.5-.74.688-.381.18-.736.27-1.062.27-.396 0-1.056-.215-1.98-.645a5.945 5.945 0 01-1.77-1.23C6 9.41 5.486 8.768 4.958 7.99c-.5-.743-.746-1.417-.74-2.021v-.084c.022-.632.279-1.18.772-1.645a.788.788 0 01.541-.23c.042 0 .104.007.188.021.083.007.15.01.198.01.132 0 .222.025.27.074.056.041.112.135.167.28.056.14.17.445.344.918.174.472.26.732.26.78 0 .147-.121.348-.364.605-.236.25-.354.41-.354.48 0 .048.017.1.052.155.236.507.59.983 1.062 1.427.39.368.913.72 1.573 1.053.083.048.16.072.23.072.103 0 .29-.166.562-.5zm-1.573 5.01a6.33 6.33 0 002.531-.52 6.581 6.581 0 002.094-1.396 6.613 6.613 0 001.396-2.083c.347-.813.52-1.66.52-2.542a6.33 6.33 0 00-.52-2.531 6.582 6.582 0 00-1.396-2.094 6.581 6.581 0 00-2.094-1.396 6.329 6.329 0 00-2.531-.52c-.882 0-1.73.173-2.542.52-.805.348-1.5.813-2.083 1.396a6.582 6.582 0 00-1.396 2.094 6.329 6.329 0 00-.52 2.531c0 1.41.416 2.688 1.25 3.833l-.824 2.428 2.521-.803a6.406 6.406 0 003.594 1.084zM5.094.626A7.669 7.669 0 018.146 0c1.062 0 2.076.208 3.041.625a7.918 7.918 0 012.51 1.677 7.918 7.918 0 011.678 2.51c.417.966.625 1.98.625 3.042 0 1.063-.208 2.08-.625 3.052a7.947 7.947 0 01-1.677 2.5 7.916 7.916 0 01-2.51 1.677 7.594 7.594 0 01-3.042.625 7.735 7.735 0 01-3.802-.979L0 16.125l1.417-4.219A7.666 7.666 0 01.292 7.854c0-1.062.208-2.076.625-3.042a7.917 7.917 0 011.677-2.51 7.948 7.948 0 012.5-1.677z"/></svg><svg viewBox="0 0 24 24" id="ic_wallet" xmlns="http://www.w3.org/2000/svg"><path d="M17.82 12.04a2.346 2.346 0 00-2.343 2.343 2.346 2.346 0 002.343 2.344h3.32l.04-.002.039.002c.431 0 .781-.35.781-.782V9.812a3.12 3.12 0 00-1.295-2.53l-2.658-4.36a.782.782 0 00-1.079-.258l-1.96 1.216-.884-1.496a.78.78 0 00-1.078-.27L5.52 6.687H4.344a.782.782 0 01-.781-.761.782.782 0 01.78-.762H5.79a.781.781 0 100-1.562H4.344a2.346 2.346 0 00-2.28 1.8.778.778 0 00-.064.309v13.164A3.129 3.129 0 005.125 22h13.75a3.121 3.121 0 002.965-2.136.781.781 0 00-1.482-.494 1.56 1.56 0 01-1.483 1.067H5.125c-.862 0-1.563-.7-1.563-1.562V8.116c.251.089.516.134.782.134h14.531c.862 0 1.563.7 1.563 1.562v2.227H17.82zm2.617 3.124H17.82a.782.782 0 010-1.562h2.617v1.562zM8.528 6.688l4.653-2.828.832 1.408a.791.791 0 00.113.19l.726 1.23H8.528zm8.14 0l-.865-1.463 1.32-.818 1.39 2.28h-1.846z"/></svg><svg fill="none" viewBox="0 0 22 20" id="ic_warning" xmlns="http://www.w3.org/2000/svg"><path d="M11 7.068v3.977m0 3.978h.01M9.363 1.957l-8.106 14.06a2.048 2.048 0 00-.006 1.98c.166.3.404.552.692.728.289.176.616.271.95.275h16.214a1.86 1.86 0 00.95-.275c.288-.176.526-.427.692-.729a2.05 2.05 0 00-.005-1.979l-8.107-14.06a1.95 1.95 0 00-.698-.701 1.859 1.859 0 00-1.878 0 1.95 1.95 0 00-.698.701z" stroke="#8F8F8F" stroke-width="2" stroke-linecap="round" stroke-linejoin="round"/></svg><svg fill="none" viewBox="0 0 20 14" id="ic_yt" xmlns="http://www.w3.org/2000/svg"><path d="M19.721 2.291c-.105-.865-.93-1.695-1.794-1.806a65.04 65.04 0 00-15.854 0C1.21.595.383 1.425.28 2.29a39.904 39.904 0 000 9.418c.105.865.93 1.696 1.794 1.806a65.04 65.04 0 0015.854 0c.864-.11 1.69-.94 1.794-1.806.372-3.17.372-6.246 0-9.418zM8.333 10.294V3.707l5 3.294-5 3.293z" fill="#fff"/></svg></svg>