<?xml version="1.0" encoding="utf-8"?><svg viewBox="0 0 100 100" xmlns="http://www.w3.org/2000/svg" xmlns:xlink="http://www.w3.org/1999/xlink"><style>:root>svg{display:none}:root>svg:target{display:block}</style><svg fill="none" viewBox="0 0 6 10" id="ic_arr-back" xmlns="http://www.w3.org/2000/svg"><path d="M5 9L1 5l4-4" stroke="#525166" stroke-linecap="round" stroke-linejoin="round"/></svg><svg fill="none" viewBox="0 0 12 12" id="ic_arr-back-popup" xmlns="http://www.w3.org/2000/svg"><path d="M11 6H1m5 5L1 6l5-5" stroke="#92919F" stroke-linecap="round" stroke-linejoin="round"/></svg><svg fill="none" viewBox="0 0 24 24" id="ic_arr-left" xmlns="http://www.w3.org/2000/svg"><path d="M19 12H5M12 19l-7-7 7-7" stroke="#93C227" stroke-width="2" stroke-linecap="round" stroke-linejoin="round"/></svg><svg fill="none" viewBox="0 0 6 10" id="ic_arr-next" xmlns="http://www.w3.org/2000/svg"><g clip-path="url(#dclip0_1730_10779)"><path d="M1 1l4 4-4 4" stroke="#525166" stroke-linecap="round" stroke-linejoin="round"/></g><defs><clipPath id="dclip0_1730_10779"><path fill="#fff" transform="rotate(-180 3 5)" d="M0 0h6v10H0z"/></clipPath></defs></svg><svg fill="none" viewBox="0 0 24 24" id="ic_arr-right" xmlns="http://www.w3.org/2000/svg"><path d="M5 12h14M12 5l7 7-7 7" stroke="#93C227" stroke-width="2" stroke-linecap="round" stroke-linejoin="round"/></svg><svg fill="none" viewBox="0 0 8 14" id="ic_back" xmlns="http://www.w3.org/2000/svg"><path d="M7 13L1 7l6-6" stroke="#CCC" stroke-width="2" stroke-linecap="round" stroke-linejoin="round"/></svg><svg fill="none" viewBox="0 0 24 24" id="ic_compare" xmlns="http://www.w3.org/2000/svg"><path fill-rule="evenodd" clip-rule="evenodd" d="M15 3v18h5V3h-5zm-1.5-2a.5.5 0 00-.5.5v21a.5.5 0 00.5.5h8a.5.5 0 00.5-.5v-21a.5.5 0 00-.5-.5h-8zM4 7v14h5V7H4zM2.5 5a.5.5 0 00-.5.5v17a.5.5 0 00.5.5h8a.5.5 0 00.5-.5v-17a.5.5 0 00-.5-.5h-8z" fill="#DF1F26"/></svg><svg fill="none" viewBox="0 0 14 14" id="ic_cross" xmlns="http://www.w3.org/2000/svg"><path fill-rule="evenodd" clip-rule="evenodd" d="M.293.293a1 1 0 011.414 0L7 5.586 12.293.293a1 1 0 111.414 1.414L8.414 7l5.293 5.293a1 1 0 01-1.414 1.414L7 8.414l-5.293 5.293a1 1 0 01-1.414-1.414L5.586 7 .293 1.707a1 1 0 010-1.414z" fill="#222"/></svg><svg viewBox="0 0 9 16" id="ic_fb" xmlns="http://www.w3.org/2000/svg"><path d="M7.332 2.657h1.552V.113A21.278 21.278 0 006.623 0c-2.238 0-3.77 1.325-3.77 3.76V6H.382v2.844h2.47V16h3.026V8.845h2.37L8.625 6H5.879V4.04c0-.822.236-1.384 1.453-1.384z"/></svg><svg fill="none" viewBox="0 0 24 24" id="ic_heart" xmlns="http://www.w3.org/2000/svg"><path d="M20.458 4.591a5.255 5.255 0 00-1.708-1.177 5.122 5.122 0 00-4.028 0 5.255 5.255 0 00-1.708 1.177L12 5.638 10.986 4.59a5.182 5.182 0 00-3.722-1.59 5.183 5.183 0 00-3.722 1.59A5.52 5.52 0 002 8.431a5.52 5.52 0 001.542 3.841l1.014 1.047L12 21l7.444-7.681 1.014-1.047a5.446 5.446 0 001.141-1.761 5.581 5.581 0 000-4.158 5.445 5.445 0 00-1.141-1.762v0z" stroke="#DF1F26" stroke-width="2" stroke-linecap="round" stroke-linejoin="round"/></svg><svg viewBox="0 0 16 16" id="ic_inst" xmlns="http://www.w3.org/2000/svg"><path d="M11.669 0H4.33A4.336 4.336 0 000 4.331v7.338A4.336 4.336 0 004.331 16h7.338A4.336 4.336 0 0016 11.669V4.331A4.336 4.336 0 0011.669 0zM8 12.375A4.38 4.38 0 013.625 8 4.38 4.38 0 018 3.625 4.38 4.38 0 0112.375 8 4.38 4.38 0 018 12.375zm4.48-7.718c-.713 0-1.293-.58-1.293-1.293s.58-1.293 1.293-1.293c.712 0 1.292.58 1.292 1.293s-.58 1.293-1.293 1.293z"/><path d="M8 5C6.346 5 5 6.346 5 8s1.346 3 3 3 3-1.346 3-3-1.346-3-3-3z"/></svg><svg fill="none" viewBox="0 0 5 8" id="ic_link-back" xmlns="http://www.w3.org/2000/svg"><path fill-rule="evenodd" clip-rule="evenodd" d="M4.354.646a.5.5 0 010 .708L1.707 4l2.647 2.646a.5.5 0 11-.708.708l-3-3a.5.5 0 010-.708l3-3a.5.5 0 01.708 0z" fill="#8F8F8F"/></svg><svg fill="none" viewBox="0 0 24 24" id="ic_login" xmlns="http://www.w3.org/2000/svg"><path d="M12 11a4.999 4.999 0 100-9.998A4.999 4.999 0 0012 11zm0-8.333a3.333 3.333 0 110 6.666 3.333 3.333 0 010-6.666z" fill="#DF1F26"/><circle cx="12" cy="6" r="4" stroke="#DF1F26" stroke-width="2"/><path d="M3 17.959c0-.536.297-1.187 1.044-1.851.74-.658 1.846-1.253 3.232-1.65C8.6 14.077 10.184 14 12 14c1.816 0 3.4.077 4.724.457 1.386.398 2.492.993 3.232 1.65.747.665 1.044 1.316 1.044 1.852 0 .454-.203 1.163-.654 1.884-.443.71-1.063 1.33-1.783 1.68-.699.339-1.586.462-2.73.476a39.735 39.735 0 01-1.809-.035l-.083-.003c-.615-.02-1.27-.043-1.941-.043s-1.326.022-1.941.043l-.083.003c-.646.022-1.244.042-1.81.035-1.143-.014-2.03-.137-2.729-.477-.72-.35-1.34-.97-1.783-1.679-.451-.721-.654-1.43-.654-1.884z" stroke="#DF1F26" stroke-width="2"/></svg><svg fill="none" viewBox="0 0 18 18" id="ic_loupe" xmlns="http://www.w3.org/2000/svg"><path fill-rule="evenodd" clip-rule="evenodd" d="M2.376 2.376A8.111 8.111 0 0114.51 13.095l3.197 3.198a1 1 0 11-1.414 1.414l-3.197-3.198A8.111 8.111 0 012.376 2.376zm10.14 9.971a1.007 1.007 0 00-.168.168 6.111 6.111 0 11.168-.168z" fill="#CCC"/></svg><svg fill="none" viewBox="0 0 20 20" id="ic_mail" xmlns="http://www.w3.org/2000/svg"><path d="M17.2 3H2.8C1.81 3 1 3.788 1 4.75c.178 0 .359.051.516.158L10 10.682l8.484-5.774A.913.913 0 0119 4.75C19 3.788 18.19 3 17.2 3z" fill="#93C227"/><path d="M19 6.693l-8.484 5.774a.921.921 0 01-1.032 0L1 6.693v8.557c0 .962.81 1.75 1.8 1.75h14.4c.99 0 1.8-.788 1.8-1.75V6.693z" fill="#93C227"/></svg><svg fill="none" viewBox="0 0 20 20" id="ic_phone" xmlns="http://www.w3.org/2000/svg"><path d="M18.333 14.1v2.5a1.666 1.666 0 01-1.816 1.667 16.492 16.492 0 01-7.192-2.559 16.25 16.25 0 01-5-5 16.491 16.491 0 01-2.558-7.225 1.667 1.667 0 011.658-1.816h2.5A1.667 1.667 0 017.592 3.1c.105.8.3 1.586.583 2.342A1.667 1.667 0 017.8 7.2L6.742 8.258a13.333 13.333 0 005 5L12.8 12.2a1.666 1.666 0 011.758-.375 10.7 10.7 0 002.342.583 1.667 1.667 0 011.433 1.692z" fill="#93C227"/></svg><svg viewBox="0 0 15 19" id="ic_pin" xmlns="http://www.w3.org/2000/svg"><path fill-rule="evenodd" clip-rule="evenodd" d="M7.5 1.5c-1.641 0-3.22.676-4.385 1.884a6.585 6.585 0 00-1.826 4.57c0 2.51 1.568 4.902 3.225 6.714A22.501 22.501 0 007.5 17.381a22.499 22.499 0 002.986-2.713c1.657-1.812 3.224-4.203 3.224-6.713a6.585 6.585 0 00-1.825-4.57A6.093 6.093 0 007.5 1.5zm0 16.5l.284.411a.5.5 0 01-.568 0L7.5 18zM2.395 2.69A7.093 7.093 0 017.5.5c1.918 0 3.754.79 5.105 2.19a7.585 7.585 0 012.105 5.265c0 2.898-1.787 5.53-3.486 7.388a23.502 23.502 0 01-3.136 2.848 13.593 13.593 0 01-.28.204l-.017.012-.005.003-.002.001L7.5 18l-.284.411-.002-.001-.005-.003-.016-.012a21.062 21.062 0 01-1.06-.819 23.5 23.5 0 01-2.357-2.233c-1.7-1.858-3.487-4.49-3.487-7.388 0-1.972.756-3.866 2.106-5.265zM7.5 5.974a1.737 1.737 0 100 3.473 1.737 1.737 0 000-3.473zM4.763 7.71a2.737 2.737 0 115.474 0 2.737 2.737 0 01-5.474 0z"/></svg><svg fill="none" viewBox="0 0 100 100" id="ic_play" xmlns="http://www.w3.org/2000/svg"><rect width="100" height="100" rx="50" fill="#93C227"/><path d="M63.232 48.297a2 2 0 010 3.406L43.048 64.124c-1.332.82-3.048-.138-3.048-1.703V37.579c0-1.565 1.716-2.523 3.048-1.703l20.184 12.42z" fill="#fff"/></svg><svg viewBox="0 0 16 14" id="ic_tg" xmlns="http://www.w3.org/2000/svg"><path d="M6.279 9.096l-.265 3.723c.379 0 .543-.163.74-.358l1.775-1.697 3.679 2.695c.674.376 1.15.178 1.332-.621l2.415-11.316c.214-.997-.36-1.388-1.018-1.143L.743 5.813c-.969.376-.954.916-.165 1.161l3.629 1.129 8.43-5.274c.396-.263.757-.118.46.145L6.279 9.096z"/></svg><svg viewBox="0 0 16 13" id="ic_tw" xmlns="http://www.w3.org/2000/svg"><path d="M16 1.543a6.872 6.872 0 01-1.645 1.696 9.368 9.368 0 01-.376 3.066 9.453 9.453 0 01-1.177 2.517 9.91 9.91 0 01-1.868 2.143c-.724.615-1.597 1.11-2.62 1.482a9.666 9.666 0 01-3.278.548A9.106 9.106 0 010 11.523c.237.027.5.04.792.04a6.42 6.42 0 004.07-1.4 3.214 3.214 0 01-1.908-.65 3.235 3.235 0 01-1.157-1.625c.223.034.43.051.62.051.29 0 .578-.037.862-.112a3.259 3.259 0 01-1.888-1.126A3.201 3.201 0 01.65 4.609v-.04c.46.257.954.395 1.482.416a3.275 3.275 0 01-1.066-1.168A3.195 3.195 0 01.67 2.254c0-.596.149-1.147.447-1.655a9.373 9.373 0 002.985 2.426A9.22 9.22 0 007.878 4.03a3.643 3.643 0 01-.081-.75c0-.908.318-1.68.954-2.316A3.169 3.169 0 0111.076 0c.948 0 1.746.345 2.396 1.036a6.43 6.43 0 002.081-.792 3.184 3.184 0 01-1.441 1.807A6.534 6.534 0 0016 1.543z"/></svg><svg viewBox="0 0 20 20" id="ic_vb" xmlns="http://www.w3.org/2000/svg"><path d="M17.745 1.948c-.524-.457-2.64-1.914-7.36-1.934 0 0-5.565-.316-8.276 2.043C.602 3.487.07 5.584.013 8.18c-.058 2.597-.128 7.464 4.819 8.784h.004l-.004 2.015s-.033.817.535.98c.684.204 1.088-.417 1.743-1.085.358-.367.852-.906 1.227-1.316 3.386.27 5.985-.348 6.281-.438.684-.21 4.552-.68 5.178-5.546.65-5.023-.313-8.194-2.051-9.627zm.572 9.26c-.531 4.062-3.666 4.32-4.242 4.496-.247.074-2.534.613-5.404.437 0 0-2.142 2.449-2.81 3.086-.218.207-.457.187-.452-.223 0-.27.016-3.347.016-3.347-.004 0-.004 0 0 0-4.193-1.102-3.946-5.246-3.9-7.413.045-2.168.477-3.945 1.754-5.14 2.294-1.973 7.019-1.68 7.019-1.68 3.99.016 5.902 1.156 6.347 1.539 1.47 1.195 2.22 4.054 1.672 8.245zm-5.725-3.156c.016.336-.515.36-.532.024-.045-.86-.469-1.278-1.342-1.324-.354-.02-.322-.524.029-.504 1.149.058 1.787.683 1.845 1.804zm.836.442c.041-1.656-1.05-2.953-3.122-3.098-.35-.023-.313-.527.037-.504 2.389.164 3.662 1.723 3.616 3.613-.004.336-.54.32-.531-.011zm1.936.523c.004.336-.532.34-.532.004-.024-3.183-2.26-4.918-4.975-4.937-.35-.004-.35-.504 0-.504 3.036.02 5.478 2.008 5.507 5.437zm-.466 3.832v.007c-.444.742-1.276 1.563-2.133 1.3l-.008-.01c-.87-.231-2.917-1.231-4.21-2.208-.667-.5-1.277-1.09-1.746-1.656a12.643 12.643 0 01-1.269-1.82c-.877-1.503-1.07-2.175-1.07-2.175-.277-.813.584-1.602 1.37-2.023h.009c.379-.188.741-.125.984.152 0 0 .511.578.73.863.205.266.481.691.626.93.25.425.094.859-.153 1.039l-.494.375c-.251.19-.218.546-.218.546s.733 2.629 3.472 3.293c0 0 .375.031.576-.207l.396-.469c.19-.234.646-.383 1.095-.144.606.324 1.376.828 1.887 1.285.288.222.354.562.156.921z"/></svg><svg viewBox="0 0 19 11" id="ic_vk" xmlns="http://www.w3.org/2000/svg"><path d="M17.57 8.059c-.393-.414-.84-.785-1.27-1.143-.154-.128-.313-.26-.466-.39-.438-.377-.454-.519-.107-.947.24-.295.495-.59.742-.876.224-.26.455-.527.677-.796l.045-.055c.424-.515.862-1.047 1.095-1.689.06-.17.124-.418-.021-.627-.145-.208-.427-.272-.627-.301a1.946 1.946 0 00-.287-.017l-2.774-.002h-.023c-.42 0-.702.174-.864.53a13.74 13.74 0 01-.519 1.05c-.385.688-.875 1.48-1.584 2.141l-.03.028c-.084.08-.179.169-.248.169a.133.133 0 01-.035-.006c-.147-.05-.246-.362-.241-.507v-.006L11.03 1.8l-.003-.03c-.07-.457-.226-.742-.817-.843a.278.278 0 00-.048-.004H7.278c-.47 0-.729.168-.972.419-.066.067-.202.206-.135.376.07.172.292.208.365.22.361.06.564.254.622.593.1.588.113 1.216.039 1.975a1.49 1.49 0 01-.129.514c-.015.032-.07.138-.127.138-.018 0-.07-.006-.165-.063-.224-.135-.387-.327-.578-.564A12.863 12.863 0 014.53 1.817a.986.986 0 00-.92-.592c-.46-.006-.878-.01-1.276-.01-.435 0-.839.004-1.232.012-.337.005-.57.093-.693.263s-.115.394.024.664C1.544 4.32 2.55 5.896 3.697 7.261c.804.956 1.61 1.618 2.536 2.082.977.49 2.071.729 3.345.729.145 0 .294-.003.445-.01.74-.031 1.015-.266 1.05-.9.016-.323.057-.662.238-.951.114-.183.22-.183.256-.183.067 0 .151.028.241.079.161.092.3.216.413.324l.317.31c.228.224.464.456.71.675.538.481 1.132.693 1.813.647h2.56a.755.755 0 00.602-.34c.16-.248.157-.564-.008-.847a4.587 4.587 0 00-.645-.817z"/></svg><svg viewBox="0 0 16 17" id="ic_wa" xmlns="http://www.w3.org/2000/svg"><path d="M9.719 9.385c.27-.34.451-.51.541-.51.09 0 .428.153 1.01.458.591.306.904.49.938.552.014.035.021.087.021.157 0 .229-.059.493-.177.791-.111.271-.358.5-.74.688-.381.18-.736.27-1.062.27-.396 0-1.056-.215-1.98-.645a5.945 5.945 0 01-1.77-1.23C6 9.41 5.486 8.768 4.958 7.99c-.5-.743-.746-1.417-.74-2.021v-.084c.022-.632.279-1.18.772-1.645a.788.788 0 01.541-.23c.042 0 .104.007.188.021.083.007.15.01.198.01.132 0 .222.025.27.074.056.041.112.135.167.28.056.14.17.445.344.918.174.472.26.732.26.78 0 .147-.121.348-.364.605-.236.25-.354.41-.354.48 0 .048.017.1.052.155.236.507.59.983 1.062 1.427.39.368.913.72 1.573 1.053.083.048.16.072.23.072.103 0 .29-.166.562-.5zm-1.573 5.01a6.33 6.33 0 002.531-.52 6.581 6.581 0 002.094-1.396 6.613 6.613 0 001.396-2.083c.347-.813.52-1.66.52-2.542a6.33 6.33 0 00-.52-2.531 6.582 6.582 0 00-1.396-2.094 6.581 6.581 0 00-2.094-1.396 6.329 6.329 0 00-2.531-.52c-.882 0-1.73.173-2.542.52-.805.348-1.5.813-2.083 1.396a6.582 6.582 0 00-1.396 2.094 6.329 6.329 0 00-.52 2.531c0 1.41.416 2.688 1.25 3.833l-.824 2.428 2.521-.803a6.406 6.406 0 003.594 1.084zM5.094.626A7.669 7.669 0 018.146 0c1.062 0 2.076.208 3.041.625a7.918 7.918 0 012.51 1.677 7.918 7.918 0 011.678 2.51c.417.966.625 1.98.625 3.042 0 1.063-.208 2.08-.625 3.052a7.947 7.947 0 01-1.677 2.5 7.916 7.916 0 01-2.51 1.677 7.594 7.594 0 01-3.042.625 7.735 7.735 0 01-3.802-.979L0 16.125l1.417-4.219A7.666 7.666 0 01.292 7.854c0-1.062.208-2.076.625-3.042a7.917 7.917 0 011.677-2.51 7.948 7.948 0 012.5-1.677z"/></svg></svg>