<svg width="360" height="190" viewBox="0 0 360 190" fill="none" xmlns="http://www.w3.org/2000/svg">
<g opacity="0.12">
<g clip-path="url(#clip0_6901_39323)">
<path d="M140.145 20.4888L150.769 26.5858C152.133 27.3661 153.73 27.6401 155.278 27.3589C156.825 27.0777 158.222 26.2596 159.22 25.0504L137.258 12.447C136.703 13.9102 136.688 15.5217 137.217 16.9944C137.746 18.4671 138.783 19.7054 140.145 20.4888Z" fill="#DF1F26"/>
<path d="M163.044 27.3109C161.439 29.5129 159.071 31.0462 156.396 31.615C153.721 32.1839 150.929 31.7479 148.559 30.3913L137.934 24.2943C135.567 22.9321 133.791 20.7467 132.95 18.1597C132.108 15.5728 132.26 12.7676 133.376 10.2855C131.926 9.69294 130.309 9.64275 128.824 10.1442C127.34 10.6456 126.089 11.6647 125.302 13.0127L94.048 66.8202C93.1935 68.2982 92.963 70.0526 93.4069 71.6993C93.8508 73.3459 94.9329 74.7506 96.4164 75.606L124.611 91.7863C126.098 92.6357 127.863 92.8648 129.52 92.4236C131.177 91.9824 132.59 90.9067 133.45 89.4322L164.704 35.6247C165.486 34.2735 165.748 32.6868 165.442 31.1582C165.137 29.6297 164.285 28.2629 163.044 27.3109ZM119.78 82.6291L106.81 75.186C106.303 74.8947 105.932 74.4148 105.78 73.8519C105.629 73.2891 105.708 72.6893 106.001 72.1847C106.294 71.6801 106.777 71.3118 107.343 71.161C107.91 71.0102 108.513 71.0891 109.021 71.3805L121.991 78.8236C122.498 79.115 122.869 79.5948 123.021 80.1577C123.172 80.7206 123.093 81.3203 122.8 81.8249C122.507 82.3296 122.024 82.6978 121.458 82.8486C120.891 82.9994 120.288 82.9205 119.78 82.6291Z" fill="white"/>
</g>
<g clip-path="url(#clip1_6901_39323)">
<path d="M273.438 136.484C273.36 136.378 274.408 137.63 259.537 119.923L180.646 140.935L176.957 162.003C176.634 163.853 177.345 166.161 179.109 167.665C179.892 168.333 180.828 168.802 181.835 169.029C182.842 169.257 183.889 169.237 184.887 168.971L209.861 162.319L210.568 145.224C210.593 144.6 210.819 143.999 211.213 143.511C211.606 143.023 212.146 142.672 212.753 142.51L232.525 137.244C233.133 137.083 233.777 137.118 234.363 137.345C234.949 137.573 235.447 137.98 235.783 138.509L244.995 152.962L269.96 146.313C274.265 145.166 276.082 140.067 273.438 136.484ZM256.397 114.684L244.884 71.9764C244.042 68.8504 240.798 66.9887 237.653 67.8263L173.394 84.9407C170.249 85.7783 168.376 89.0029 169.219 92.1289L180.731 134.836L256.397 114.684Z" fill="white"/>
<path d="M216.378 147.621L215.836 160.728L239.019 154.553L231.957 143.472L216.378 147.621Z" fill="#DF1F26"/>
</g>
<g clip-path="url(#clip2_6901_39323)">
<path d="M30.3828 167.723C35.3673 174.425 39.0977 178.592 39.7005 179.098C40.6935 179.93 42.3399 180.158 43.453 179.593C44.3784 179.104 45.2483 178.517 46.0476 177.843C46.8544 177.177 47.589 176.43 48.2394 175.613C48.9974 174.627 49.0955 173.01 48.5031 171.922C48.1524 171.248 44.8352 167.046 40.0616 160.626C35.288 154.206 32.2359 149.809 31.6909 149.279C30.8177 148.397 29.2376 148.013 28.0656 148.441C27.0883 148.819 26.1531 149.297 25.2751 149.866C24.3894 150.427 23.567 151.081 22.822 151.816C21.9503 152.707 21.6854 154.337 22.1916 155.526C22.5035 156.244 25.4095 161.014 30.3828 167.723ZM84.5073 138.929C84.3478 137.648 83.2981 136.368 82.0952 136.03C81.0817 135.763 80.0422 135.605 78.9947 135.559C77.9477 135.502 76.8976 135.553 75.8612 135.712C74.6309 135.923 73.4555 137.041 73.1432 138.239C72.937 138.966 72.495 144.29 71.6017 152.226C70.7083 160.162 69.9363 165.446 69.9742 166.207C70.0101 167.443 70.9067 168.795 72.0592 169.272C73.0335 169.657 74.0456 169.939 75.0789 170.114C76.1103 170.3 77.1588 170.376 78.2065 170.34C79.4548 170.277 80.7658 169.261 81.2072 168.047C81.467 167.306 82.6026 161.848 83.5547 153.565C84.5067 145.282 84.6047 139.704 84.5073 138.929Z" fill="#DF1F26"/>
<path d="M91.945 136.223L90.6547 131.436C91.0628 131.054 91.3592 130.569 91.5122 130.033C91.6652 129.497 91.6691 128.93 91.5235 128.392C89.3839 120.46 84.9262 113.336 78.7139 107.922C72.5016 102.507 64.8138 99.0456 56.6223 97.9739C48.4308 96.9021 40.1036 98.2686 32.6933 101.901C25.2831 105.532 19.1226 111.267 14.9908 118.378C12.2335 123.095 10.4446 128.309 9.72749 133.717C9.01042 139.126 9.37943 144.622 10.8132 149.888C10.9582 150.426 11.2471 150.914 11.6491 151.302C12.051 151.689 12.5511 151.962 13.0962 152.089L14.3875 156.879C13.8779 157.501 13.5741 158.265 13.5177 159.065C13.4612 159.865 13.6548 160.663 14.072 161.35C19.1931 169.796 25.0976 177.748 31.7086 185.101C32.0511 185.484 32.4661 185.795 32.93 186.018C33.3938 186.241 33.8972 186.37 34.4115 186.399C34.9258 186.428 35.4408 186.356 35.927 186.187C36.4132 186.018 36.8611 185.756 37.245 185.414C37.629 185.073 37.9414 184.66 38.1644 184.198C38.3875 183.737 38.5167 183.236 38.5448 182.725C38.5729 182.213 38.4992 181.702 38.328 181.219C38.1569 180.736 37.8916 180.291 37.5473 179.91C31.2637 172.922 25.6516 165.365 20.7841 157.337C20.4027 156.709 19.8506 156.201 19.1914 155.872C18.5322 155.542 17.7928 155.405 17.0584 155.474L15.9424 151.335C16.3488 150.952 16.6435 150.467 16.7951 149.932C16.9467 149.396 16.9495 148.83 16.8034 148.292C14.9814 141.536 15.2161 134.394 17.4779 127.771C19.7396 121.147 23.9269 115.339 29.5099 111.081C35.093 106.823 41.8211 104.306 48.8433 103.849C55.8655 103.392 62.8663 105.015 68.9602 108.514C73.0135 110.826 76.5653 113.915 79.41 117.601C82.2547 121.287 84.336 125.497 85.5333 129.987C85.6784 130.525 85.9672 131.013 86.3692 131.401C86.7711 131.789 87.2712 132.061 87.8163 132.189L88.9302 136.321C88.2589 136.625 87.6879 137.112 87.2828 137.725C86.8777 138.338 86.6551 139.052 86.6405 139.785C86.4633 149.156 85.4046 158.491 83.4783 167.666C83.373 168.166 83.368 168.682 83.4635 169.185C83.5589 169.687 83.753 170.166 84.0347 170.594C84.3164 171.022 84.68 171.391 85.105 171.679C85.53 171.967 86.0079 172.169 86.5114 172.274C87.015 172.378 87.5344 172.383 88.0399 172.288C88.5454 172.194 89.0272 172.001 89.4577 171.721C89.8882 171.441 90.259 171.079 90.5489 170.657C90.8389 170.234 91.0423 169.759 91.1475 169.259C93.1725 159.605 94.2855 149.784 94.472 139.925C94.4848 139.124 94.249 138.339 93.7968 137.677C93.3446 137.015 92.698 136.507 91.945 136.223Z" fill="white"/>
</g>
<g clip-path="url(#clip3_6901_39323)">
<path fill-rule="evenodd" clip-rule="evenodd" d="M341.408 57.0927C341.945 55.0996 341.663 52.9734 340.627 51.1855C339.587 49.3988 337.876 48.0949 335.871 47.5598L311.116 40.9668C309.111 40.4328 306.972 40.7129 305.173 41.7428C303.376 42.7767 302.064 44.4769 301.525 46.4706L294.893 71.076C294.355 73.0691 294.637 75.1952 295.673 76.9832C296.713 78.7699 298.424 80.0738 300.43 80.6089L325.184 87.2019C327.189 87.7359 329.328 87.4558 331.127 86.4259C332.925 85.392 334.236 83.6918 334.775 81.6981L341.408 57.0927ZM320.019 57.1511C321.322 56.439 322.854 56.2616 324.287 56.6569C325.721 57.0523 326.941 57.9889 327.689 59.2669C328.437 60.5448 328.652 62.0627 328.289 63.4964C327.926 64.9301 327.014 66.1658 325.747 66.9398L315.85 72.617L310.135 62.7818C309.427 61.4818 309.258 59.958 309.665 58.536C310.072 57.114 311.022 55.9065 312.312 55.1714C313.603 54.4363 315.131 54.2319 316.571 54.6018C318.011 54.9717 319.249 55.8866 320.019 57.1511ZM309.575 37.881C310.337 37.9171 311.102 38.0329 311.853 38.2329L336.607 44.8259C337.358 45.0259 338.079 45.3057 338.758 45.6535L338.692 41.774C338.674 40.698 338.305 39.6571 337.639 38.8087C336.973 37.9604 336.047 37.3509 335.001 37.0724L317.145 32.3167C314.997 31.7446 312.725 32.6575 311.583 34.5539L309.575 37.881Z" fill="white"/>
<path d="M297.553 86.5997L297.487 82.7202C298.166 83.068 298.887 83.3478 299.637 83.5478L324.392 90.1408C325.136 90.3386 325.9 90.4566 326.67 90.4926L324.662 93.8198C323.52 95.7162 321.248 96.6291 319.1 96.057L301.244 91.3012C300.198 91.0228 299.272 90.4133 298.606 89.5649C297.94 88.7166 297.571 87.6757 297.553 86.5997Z" fill="#DF1F26"/>
</g>
</g>
<defs>
<clipPath id="clip0_6901_39323">
<rect width="75.3359" height="75.1087" fill="white" transform="matrix(0.867328 0.497737 -0.502267 0.864713 115.568 0)"/>
</clipPath>
<clipPath id="clip1_6901_39323">
<rect width="100.744" height="100.218" fill="white" transform="matrix(0.966315 -0.257364 0.260281 0.965533 154.754 81.5947)"/>
</clipPath>
<clipPath id="clip2_6901_39323">
<rect width="83.5239" height="83.0881" fill="white" transform="matrix(0.966315 -0.257364 0.260281 0.965533 0 109.775)"/>
</clipPath>
<clipPath id="clip3_6901_39323">
<rect width="68.3131" height="67.9567" fill="white" transform="matrix(0.966315 0.257364 -0.260281 0.965533 293.988 22.4866)"/>
</clipPath>
</defs>
</svg>
