<svg width="56" height="56" viewBox="0 0 56 56" fill="none" xmlns="http://www.w3.org/2000/svg">
<path d="M39.4286 52H9.71429C8.19932 51.9982 6.74692 51.3956 5.67568 50.3243C4.60444 49.2531 4.00181 47.8007 4 46.2857V9.71429C4.00181 8.19932 4.60444 6.74692 5.67568 5.67568C6.74692 4.60444 8.19932 4.00181 9.71429 4H30.5486C31.3444 4.00174 32.1311 4.16873 32.859 4.49038C33.5869 4.81203 34.2401 5.28134 34.7771 5.86857L43.6571 15.6434C44.6169 16.6924 45.1472 18.0639 45.1429 19.4857V30.88C45.1429 31.1831 45.0224 31.4738 44.8081 31.6881C44.5938 31.9024 44.3031 32.0229 44 32.0229C43.6969 32.0229 43.4062 31.9024 43.1919 31.6881C42.9776 31.4738 42.8571 31.1831 42.8571 30.88V19.4857C42.8605 18.6342 42.5436 17.8126 41.9691 17.184L33.0857 7.408C32.7633 7.05581 32.3714 6.77426 31.9347 6.5811C31.498 6.38794 31.0261 6.28736 30.5486 6.28571H9.71429C8.80497 6.28571 7.9329 6.64694 7.28992 7.28992C6.64694 7.9329 6.28571 8.80497 6.28571 9.71429V46.2857C6.28571 47.195 6.64694 48.0671 7.28992 48.7101C7.9329 49.3531 8.80497 49.7143 9.71429 49.7143H39.4286C39.7317 49.7143 40.0224 49.8347 40.2367 50.049C40.451 50.2633 40.5714 50.554 40.5714 50.8571C40.5714 51.1602 40.451 51.4509 40.2367 51.6653C40.0224 51.8796 39.7317 52 39.4286 52Z" fill="#7B61FF"/>
<path d="M39.4286 20H34.8571C33.9478 20 33.0758 19.6388 32.4328 18.9958C31.7898 18.3528 31.4286 17.4807 31.4286 16.5714V5.62286C31.4286 5.31975 31.549 5.02906 31.7633 4.81474C31.9776 4.60041 32.2683 4.48 32.5714 4.48C32.8745 4.48 33.1652 4.60041 33.3796 4.81474C33.5939 5.02906 33.7143 5.31975 33.7143 5.62286V16.5714C33.7143 16.8745 33.8347 17.1652 34.049 17.3795C34.2633 17.5939 34.554 17.7143 34.8571 17.7143H39.4286C39.7317 17.7143 40.0224 17.8347 40.2367 18.049C40.451 18.2633 40.5714 18.554 40.5714 18.8571C40.5714 19.1602 40.451 19.4509 40.2367 19.6653C40.0224 19.8796 39.7317 20 39.4286 20ZM16 20.5714H12.5714C11.9652 20.5714 11.3838 20.3306 10.9552 19.902C10.5265 19.4733 10.2857 18.8919 10.2857 18.2857V14.8571C10.2857 14.2509 10.5265 13.6696 10.9552 13.2409C11.3838 12.8122 11.9652 12.5714 12.5714 12.5714H16C16.6062 12.5714 17.1876 12.8122 17.6162 13.2409C18.0449 13.6696 18.2857 14.2509 18.2857 14.8571V18.2857C18.2857 18.8919 18.0449 19.4733 17.6162 19.902C17.1876 20.3306 16.6062 20.5714 16 20.5714ZM12.5714 14.8571V18.2857H16V14.8571H12.5714ZM16 32H12.5714C11.9652 32 11.3838 31.7592 10.9552 31.3305C10.5265 30.9019 10.2857 30.3205 10.2857 29.7143V26.2857C10.2857 25.6795 10.5265 25.0981 10.9552 24.6695C11.3838 24.2408 11.9652 24 12.5714 24H16C16.6062 24 17.1876 24.2408 17.6162 24.6695C18.0449 25.0981 18.2857 25.6795 18.2857 26.2857V29.7143C18.2857 30.3205 18.0449 30.9019 17.6162 31.3305C17.1876 31.7592 16.6062 32 16 32ZM12.5714 26.2857V29.7143H16V26.2857H12.5714ZM29.1429 31.4286H21.1429C20.8398 31.4286 20.5491 31.3082 20.3347 31.0938C20.1204 30.8795 20 30.5888 20 30.2857C20 29.9826 20.1204 29.6919 20.3347 29.4776C20.5491 29.2633 20.8398 29.1429 21.1429 29.1429H29.1429C29.446 29.1429 29.7367 29.2633 29.951 29.4776C30.1653 29.6919 30.2857 29.9826 30.2857 30.2857C30.2857 30.5888 30.1653 30.8795 29.951 31.0938C29.7367 31.3082 29.446 31.4286 29.1429 31.4286ZM26.8571 26.8571H21.1429C20.8398 26.8571 20.5491 26.7367 20.3347 26.5224C20.1204 26.3081 20 26.0174 20 25.7143C20 25.4112 20.1204 25.1205 20.3347 24.9062C20.5491 24.6918 20.8398 24.5714 21.1429 24.5714H26.8571C27.1602 24.5714 27.4509 24.6918 27.6653 24.9062C27.8796 25.1205 28 25.4112 28 25.7143C28 26.0174 27.8796 26.3081 27.6653 26.5224C27.4509 26.7367 27.1602 26.8571 26.8571 26.8571ZM16 43.4286H12.5714C11.9652 43.4286 11.3838 43.1878 10.9552 42.7591C10.5265 42.3304 10.2857 41.7491 10.2857 41.1429V37.7143C10.2857 37.1081 10.5265 36.5267 10.9552 36.098C11.3838 35.6694 11.9652 35.4286 12.5714 35.4286H16C16.6062 35.4286 17.1876 35.6694 17.6162 36.098C18.0449 36.5267 18.2857 37.1081 18.2857 37.7143V41.1429C18.2857 41.7491 18.0449 42.3304 17.6162 42.7591C17.1876 43.1878 16.6062 43.4286 16 43.4286ZM12.5714 37.7143V41.1429H16V37.7143H12.5714ZM29.1429 42.8571H21.1429C20.8398 42.8571 20.5491 42.7367 20.3347 42.5224C20.1204 42.3081 20 42.0174 20 41.7143C20 41.4112 20.1204 41.1205 20.3347 40.9062C20.5491 40.6918 20.8398 40.5714 21.1429 40.5714H29.1429C29.446 40.5714 29.7367 40.6918 29.951 40.9062C30.1653 41.1205 30.2857 41.4112 30.2857 41.7143C30.2857 42.0174 30.1653 42.3081 29.951 42.5224C29.7367 42.7367 29.446 42.8571 29.1429 42.8571ZM26.8571 38.2857H21.1429C20.8398 38.2857 20.5491 38.1653 20.3347 37.951C20.1204 37.7367 20 37.446 20 37.1429C20 36.8398 20.1204 36.5491 20.3347 36.3347C20.5491 36.1204 20.8398 36 21.1429 36H26.8571C27.1602 36 27.4509 36.1204 27.6653 36.3347C27.8796 36.5491 28 36.8398 28 37.1429C28 37.446 27.8796 37.7367 27.6653 37.951C27.4509 38.1653 27.1602 38.2857 26.8571 38.2857ZM29.1429 20H21.1429C20.8398 20 20.5491 19.8796 20.3347 19.6653C20.1204 19.4509 20 19.1602 20 18.8571C20 18.554 20.1204 18.2633 20.3347 18.049C20.5491 17.8347 20.8398 17.7143 21.1429 17.7143H29.1429C29.446 17.7143 29.7367 17.8347 29.951 18.049C30.1653 18.2633 30.2857 18.554 30.2857 18.8571C30.2857 19.1602 30.1653 19.4509 29.951 19.6653C29.7367 19.8796 29.446 20 29.1429 20ZM26.8571 15.4286H21.1429C20.8398 15.4286 20.5491 15.3082 20.3347 15.0938C20.1204 14.8795 20 14.5888 20 14.2857C20 13.9826 20.1204 13.6919 20.3347 13.4776C20.5491 13.2633 20.8398 13.1429 21.1429 13.1429H26.8571C27.1602 13.1429 27.4509 13.2633 27.6653 13.4776C27.8796 13.6919 28 13.9826 28 14.2857C28 14.5888 27.8796 14.8795 27.6653 15.0938C27.4509 15.3082 27.1602 15.4286 26.8571 15.4286ZM39.4286 45.1429C39.1255 45.1428 38.8349 45.0223 38.6206 44.808L35.192 41.3794C34.9838 41.1639 34.8686 40.8752 34.8712 40.5755C34.8738 40.2759 34.994 39.9892 35.2059 39.7773C35.4178 39.5655 35.7045 39.4453 36.0041 39.4427C36.3038 39.4401 36.5925 39.5552 36.808 39.7634L39.352 42.3074L44.2663 36.4114C44.361 36.292 44.4786 36.1928 44.6123 36.1196C44.7459 36.0463 44.8929 36.0006 45.0444 35.9849C45.196 35.9693 45.3492 35.9842 45.495 36.0286C45.6407 36.0731 45.7761 36.1463 45.8932 36.2438C46.0103 36.3414 46.1066 36.4614 46.1767 36.5967C46.2467 36.7321 46.2889 36.8801 46.3009 37.032C46.3129 37.1839 46.2943 37.3367 46.2464 37.4813C46.1984 37.626 46.1221 37.7596 46.0217 37.8743L40.3074 44.7314C40.2058 44.8535 40.0798 44.953 39.9375 45.0236C39.7953 45.0943 39.6398 45.1345 39.4811 45.1417L39.4286 45.1429Z" fill="#7B61FF"/>
<path d="M40.5714 52C38.3111 52 36.1015 51.3297 34.2221 50.0739C32.3426 48.8182 30.8778 47.0333 30.0128 44.945C29.1478 42.8567 28.9215 40.5588 29.3625 38.3418C29.8034 36.1249 30.8919 34.0885 32.4902 32.4902C34.0885 30.8919 36.1249 29.8034 38.3418 29.3625C40.5588 28.9215 42.8567 29.1478 44.945 30.0128C47.0333 30.8778 48.8182 32.3426 50.0739 34.2221C51.3297 36.1015 52 38.3111 52 40.5714C51.9967 43.6015 50.7915 46.5064 48.649 48.649C46.5064 50.7915 43.6015 51.9967 40.5714 52ZM40.5714 31.4286C38.7631 31.4286 36.9955 31.9648 35.4919 32.9694C33.9884 33.974 32.8165 35.402 32.1245 37.0726C31.4325 38.7432 31.2515 40.5816 31.6042 42.3551C31.957 44.1287 32.8278 45.7578 34.1064 47.0364C35.3851 48.3151 37.0142 49.1858 38.7877 49.5386C40.5613 49.8914 42.3996 49.7103 44.0702 49.0183C45.7409 48.3263 47.1688 47.1545 48.1734 45.6509C49.1781 44.1474 49.7143 42.3797 49.7143 40.5714C49.7116 38.1474 48.7474 35.8235 47.0334 34.1095C45.3194 32.3954 42.9954 31.4313 40.5714 31.4286Z" fill="#7B61FF"/>
</svg>
