<svg width="24" height="24" viewBox="0 0 24 24" fill="none" xmlns="http://www.w3.org/2000/svg">
<path fill-rule="evenodd" clip-rule="evenodd" d="M12.8066 4.94231C12.7669 4.86435 12.7094 4.79677 12.6388 4.74501C12.5681 4.69325 12.4863 4.65874 12.3999 4.64428C12.3134 4.62981 12.2248 4.63578 12.1411 4.6617C12.0574 4.68762 11.981 4.73278 11.9179 4.79354L7.26663 9.2818L10.502 15.6397L16.8937 14.5799C16.9806 14.5655 17.0628 14.5309 17.1338 14.4789C17.2048 14.4269 17.2625 14.3589 17.3022 14.2804C17.342 14.202 17.3626 14.1153 17.3625 14.0274C17.3624 13.9395 17.3415 13.8529 17.3016 13.7745L12.8066 4.94231ZM11.0337 16.685L17.0775 15.6828C17.3379 15.6396 17.5845 15.5358 17.7973 15.3797C18.01 15.2237 18.183 15.0198 18.3021 14.7846C18.4212 14.5495 18.4832 14.2896 18.4829 14.0261C18.4827 13.7625 18.4202 13.5028 18.3007 13.2678L13.8063 4.43616C13.6871 4.20206 13.5146 3.99914 13.3026 3.84372C13.0905 3.6883 12.8449 3.58472 12.5855 3.54131C12.326 3.4979 12.06 3.51586 11.8088 3.59377C11.5576 3.67167 11.3282 3.80734 11.1391 3.98985L6.25076 8.70629L2.91959 10.3953C2.52217 10.5969 2.22121 10.9477 2.08293 11.3707C1.94464 11.7937 1.98035 12.2542 2.1822 12.6509L4.80286 17.8019C4.90289 17.9984 5.0407 18.1732 5.20843 18.3165C5.37617 18.4598 5.57053 18.5687 5.78043 18.637C5.99033 18.7053 6.21165 18.7316 6.43176 18.7145C6.65186 18.6974 6.86644 18.6372 7.06323 18.5374L7.76701 18.1806L9.24348 21.0821C9.44539 21.4788 9.7969 21.7792 10.2207 21.9172C10.6445 22.0553 11.1058 22.0196 11.5033 21.8181L11.7078 21.7147C11.9047 21.6149 12.0799 21.4774 12.2235 21.31C12.3671 21.1426 12.4763 20.9486 12.5447 20.7391C12.6132 20.5296 12.6397 20.3086 12.6226 20.0889C12.6055 19.8692 12.5452 19.655 12.4452 19.4585L11.0337 16.685ZM9.96967 17.0637L8.76608 17.6744L10.2425 20.5754C10.3098 20.7076 10.4269 20.8078 10.5682 20.8538C10.7094 20.8998 10.8631 20.888 10.9956 20.8209L11.2002 20.7169C11.3326 20.6498 11.4329 20.5329 11.4791 20.3919C11.5252 20.2509 11.5133 20.0975 11.4461 19.9652L9.96967 17.0637ZM9.46201 16.0665L6.33368 9.91882L3.42669 11.392C3.36108 11.4253 3.30268 11.4711 3.25484 11.527C3.20699 11.5828 3.17064 11.6475 3.14785 11.7173C3.12505 11.7872 3.11628 11.8609 3.12201 11.9341C3.12774 12.0073 3.14788 12.0787 3.18127 12.1442L5.80249 17.2952C5.86986 17.4273 5.98703 17.5273 6.12824 17.5733C6.26945 17.6192 6.42315 17.6073 6.55558 17.5402L9.46201 16.0665ZM18.4626 2.1677C18.5667 2.27355 18.6244 2.41632 18.623 2.56462C18.6217 2.71293 18.5613 2.85462 18.4553 2.95853L16.0196 5.34611C15.9135 5.45009 15.7705 5.50777 15.6218 5.50646C15.4732 5.50515 15.3311 5.44496 15.227 5.33912C15.1228 5.23329 15.065 5.09048 15.0663 4.94212C15.0676 4.79376 15.1279 4.652 15.234 4.54802L17.6703 2.15987C17.7764 2.05606 17.9195 1.99856 18.0681 2.00003C18.2166 2.0015 18.3586 2.06181 18.4626 2.1677ZM21.3292 5.41211C21.4012 5.5419 21.4185 5.69489 21.3774 5.83743C21.3363 5.97997 21.2402 6.10038 21.1102 6.17218L17.4338 8.20405C17.3694 8.23968 17.2987 8.26229 17.2255 8.27061C17.1524 8.27892 17.0783 8.27278 17.0075 8.25253C16.9368 8.23227 16.8707 8.1983 16.8131 8.15256C16.7555 8.10682 16.7075 8.0502 16.6718 7.98593C16.6361 7.92167 16.6134 7.85102 16.6051 7.77801C16.5968 7.70501 16.6029 7.63108 16.6232 7.56045C16.6435 7.48982 16.6775 7.42387 16.7234 7.36636C16.7692 7.30886 16.8259 7.26093 16.8903 7.22531L20.5672 5.19343C20.6316 5.15778 20.7024 5.13514 20.7755 5.1268C20.8487 5.11847 20.9227 5.12461 20.9935 5.14487C21.0643 5.16512 21.1304 5.1991 21.188 5.24486C21.2456 5.29062 21.2936 5.34726 21.3292 5.41155V5.41211ZM22.9861 9.50942C23.019 9.65396 22.993 9.8056 22.9138 9.93102C22.8347 10.0564 22.709 10.1454 22.5642 10.1783L18.8218 11.0284C18.6768 11.0613 18.5247 11.0353 18.3989 10.9562C18.2731 10.8772 18.184 10.7514 18.1511 10.6067C18.1181 10.462 18.1442 10.3102 18.2234 10.1847C18.3026 10.0591 18.4286 9.97013 18.5735 9.93728L22.316 9.08772C22.4609 9.05498 22.6129 9.08101 22.7385 9.16009C22.8642 9.23917 22.9533 9.36482 22.9861 9.50942Z" fill="#222222"/>
</svg>
