<svg width="56" height="56" viewBox="0 0 56 56" fill="none" xmlns="http://www.w3.org/2000/svg">
<rect width="56" height="56" rx="6" fill="white"/>
<path d="M27.6444 48C27.5308 48.0002 27.419 47.9713 27.3197 47.916C27.2204 47.8607 27.1369 47.7809 27.0771 47.6841C27.0173 47.5874 26.9833 47.4769 26.9782 47.3632C26.9731 47.2495 26.9971 47.1364 27.048 47.0347L28.3792 44.368C28.435 44.2575 28.5203 44.1646 28.6256 44.0997C28.7308 44.0347 28.852 44.0002 28.9756 44C32.0174 44 32.868 43.024 33.7373 41.644C33.834 41.5 33.9829 41.3995 34.1524 41.3638C34.3219 41.328 34.4987 41.3599 34.6451 41.4526C34.7916 41.5452 34.8961 41.6915 34.9367 41.8602C34.9772 42.0289 34.9505 42.2067 34.8621 42.356C33.724 44.1613 32.442 45.24 29.3896 45.328L28.2395 47.632C28.1841 47.7426 28.0992 47.8356 27.9941 47.9006C27.889 47.9656 27.7679 48 27.6444 48ZM42.0666 11.3333C41.5297 10.8744 40.8335 10.6467 40.1297 10.7C39.7806 10.7261 39.4402 10.8215 39.1283 10.9806C38.8163 11.1397 38.539 11.3593 38.3126 11.6267L37.6284 12.4267V14.4787L39.3243 12.492C39.4375 12.3585 39.576 12.2488 39.7319 12.1694C39.8877 12.0899 40.0578 12.0423 40.2322 12.0293C40.4064 12.0154 40.5817 12.0363 40.7478 12.0908C40.914 12.1453 41.0676 12.2322 41.2 12.3467C41.3336 12.4598 41.4436 12.5983 41.5235 12.7542C41.6033 12.9101 41.6515 13.0804 41.6653 13.2551C41.679 13.4298 41.658 13.6055 41.6035 13.7721C41.549 13.9386 41.4621 14.0927 41.3477 14.2253L39.6038 16.2693C39.5435 16.3353 39.4971 16.4128 39.4673 16.4972C39.4375 16.5816 39.4249 16.6711 39.4304 16.7604C39.4359 16.8497 39.4592 16.937 39.4991 17.0171C39.539 17.0972 39.5946 17.1684 39.6625 17.2265C39.7305 17.2846 39.8094 17.3285 39.8946 17.3554C39.9798 17.3823 40.0696 17.3917 40.1585 17.3832C40.2474 17.3746 40.3337 17.3482 40.4123 17.3055C40.4908 17.2628 40.5599 17.2047 40.6156 17.1347L42.3594 15.0907C42.5871 14.825 42.7602 14.5169 42.8687 14.184C42.9773 13.8512 43.0192 13.5002 42.9919 13.1511C42.9647 12.802 42.869 12.4617 42.7102 12.1498C42.5514 11.8379 42.3327 11.5604 42.0666 11.3333ZM26.9788 12H30.9724C31.1489 12 31.3182 11.9298 31.4431 11.8047C31.5679 11.6797 31.638 11.5101 31.638 11.3333C31.638 11.1565 31.5679 10.987 31.4431 10.8619C31.3182 10.7369 31.1489 10.6667 30.9724 10.6667H26.9788C26.8023 10.6667 26.633 10.7369 26.5082 10.8619C26.3834 10.987 26.3132 11.1565 26.3132 11.3333C26.3132 11.5101 26.3834 11.6797 26.5082 11.8047C26.633 11.9298 26.8023 12 26.9788 12ZM38.045 24.8267C37.41 24.8267 36.7964 24.5987 36.3158 24.1853C36.0494 23.9587 35.8306 23.6814 35.672 23.3694C35.5134 23.0575 35.4182 22.7171 35.392 22.368C35.3641 22.0186 35.4057 21.6672 35.5142 21.334C35.6227 21.0008 35.7961 20.6924 36.0243 20.4267L36.2346 20.156C37.1811 19.044 38.9343 18.9213 40.0072 19.8427C40.5463 20.304 40.8738 20.9507 40.9297 21.66C40.9576 22.0094 40.916 22.3608 40.8075 22.694C40.699 23.0272 40.5256 23.3356 40.2974 23.6013L40.0871 23.872C39.8366 24.1704 39.5241 24.4105 39.1714 24.5754C38.8187 24.7403 38.4343 24.8261 38.045 24.8267ZM38.2753 20.5347C38.083 20.5343 37.8929 20.5758 37.7182 20.6564C37.5435 20.737 37.3884 20.8547 37.2636 21.0013L37.052 21.2733C36.9328 21.4079 36.8419 21.565 36.7845 21.7354C36.7271 21.9058 36.7044 22.086 36.7178 22.2653C36.7312 22.4399 36.7791 22.61 36.8586 22.7658C36.9381 22.9217 37.0477 23.0602 37.1811 23.1733C37.7176 23.6373 38.5988 23.5653 39.0567 23.028L39.2671 22.7573C39.5173 22.4653 39.6278 22.12 39.6012 21.7653C39.5878 21.5908 39.54 21.4207 39.4604 21.2648C39.3809 21.109 39.2713 20.9704 39.1379 20.8573C38.8989 20.6488 38.5924 20.5341 38.2753 20.5347Z" fill="#7B61FF"/>
<path d="M37.7202 30.188C37.0852 30.188 36.4716 29.96 35.991 29.5467C35.7246 29.32 35.5058 29.0427 35.3472 28.7308C35.1886 28.4188 35.0934 28.0784 35.0671 27.7293C35.0393 27.3799 35.0809 27.0285 35.1894 26.6953C35.2979 26.3621 35.4713 26.0537 35.6995 25.788L36.7112 24.6187C37.6217 23.548 39.3909 23.4067 40.4625 24.3293C41.0016 24.7907 41.3291 25.4373 41.385 26.1467C41.4128 26.496 41.3713 26.8475 41.2628 27.1807C41.1542 27.5139 40.9809 27.8223 40.7527 28.088L39.741 29.2573C39.4915 29.5497 39.1815 29.7843 38.8327 29.945C38.4838 30.1057 38.1042 30.1886 37.7202 30.188ZM38.7319 25.0213C38.5396 25.021 38.3495 25.0625 38.1748 25.1431C38.0001 25.2237 37.845 25.3414 37.7202 25.488L36.7072 26.6587C36.5937 26.7913 36.5076 26.9451 36.4539 27.1113C36.4002 27.2774 36.38 27.4526 36.3943 27.6267C36.4077 27.8012 36.4556 27.9713 36.5351 28.1272C36.6146 28.283 36.7242 28.4215 36.8576 28.5347C37.3941 29 38.274 28.9253 38.7332 28.3893L39.745 27.22C39.8584 27.0874 39.9445 26.9336 39.9982 26.7674C40.0519 26.6012 40.0722 26.4261 40.0578 26.252C40.0444 26.0775 39.9966 25.9074 39.917 25.7515C39.8375 25.5956 39.7279 25.4571 39.5945 25.344C39.3553 25.1356 39.0489 25.021 38.7319 25.0213ZM38.294 19.8773V11.3333C38.294 9.496 36.8017 8 34.966 8H22.9852C22.1029 8.00106 21.2571 8.35259 20.6332 8.97748C20.0093 9.60237 19.6583 10.4496 19.6573 11.3333V26C19.6573 26.1768 19.7274 26.3464 19.8522 26.4714C19.977 26.5964 20.1463 26.6667 20.3229 26.6667C20.4994 26.6667 20.6687 26.5964 20.7935 26.4714C20.9183 26.3464 20.9885 26.1768 20.9885 26V11.3333C20.9885 10.2307 21.8844 9.33333 22.9852 9.33333H34.966C36.0669 9.33333 36.9628 10.2307 36.9628 11.3333V20.372C37.3304 20.0482 37.8045 19.872 38.294 19.8773ZM36.9628 34.88V36.6667C36.9628 37.7693 36.0669 38.6667 34.966 38.6667H28.3087C28.1322 38.6667 27.9629 38.7369 27.838 38.8619C27.7132 38.9869 27.6431 39.1565 27.6431 39.3333C27.6431 39.5101 27.7132 39.6797 27.838 39.8047C27.9629 39.9298 28.1322 40 28.3087 40H34.966C36.8017 40 38.294 38.504 38.294 36.6667V34.8933C38.0895 34.9659 37.8746 35.0047 37.6576 35.008C37.4201 35.0085 37.1846 34.9651 36.9628 34.88Z" fill="#7B61FF"/>
<path d="M37.6576 35.676C37.0227 35.676 36.409 35.448 35.9284 35.0347C35.662 34.808 35.4432 34.5307 35.2846 34.2188C35.126 33.9068 35.0309 33.5664 35.0046 33.2173C34.9767 32.8679 35.0183 32.5165 35.1268 32.1833C35.2353 31.8501 35.4087 31.5417 35.6369 31.276L36.6486 30.1067C37.5591 29.0373 39.3283 28.8947 40.3999 29.8173C40.939 30.2787 41.2665 30.9253 41.3224 31.6347C41.3503 31.984 41.3087 32.3355 41.2002 32.6687C41.0917 33.0019 40.9183 33.3103 40.6901 33.576L39.6784 34.7453C39.4289 35.0377 39.119 35.2723 38.7701 35.433C38.4212 35.5937 38.0417 35.6766 37.6576 35.676ZM38.6694 30.5093C38.477 30.509 38.2869 30.5505 38.1122 30.6311C37.9375 30.7117 37.7824 30.8294 37.6576 30.976L36.6446 32.1467C36.5311 32.2793 36.445 32.4331 36.3913 32.5993C36.3376 32.7654 36.3174 32.9406 36.3318 33.1147C36.3452 33.2892 36.393 33.4593 36.4725 33.6152C36.5521 33.771 36.6617 33.9095 36.795 34.0227C37.3315 34.4867 38.2114 34.4133 38.6707 33.8773L39.6824 32.708C39.7959 32.5754 39.882 32.4216 39.9357 32.2554C39.9894 32.0892 40.0096 31.9141 39.9952 31.74C39.9818 31.5655 39.934 31.3954 39.8545 31.2395C39.7749 31.0836 39.6653 30.9451 39.532 30.832C39.2929 30.6234 38.9864 30.5088 38.6694 30.5093ZM13.6669 48C13.5533 48.0002 13.4415 47.9713 13.3422 47.916C13.2429 47.8607 13.1594 47.7809 13.0996 47.6841C13.0398 47.5874 13.0058 47.4769 13.0007 47.3632C12.9956 47.2495 13.0196 47.1364 13.0705 47.0347L16.2774 40.6093L14.6959 35.5693C14.3312 34.404 14.2446 32.5587 14.5002 31.3653L15.6637 25.9427V19.3827C15.6637 19.2059 15.7338 19.0363 15.8586 18.9113C15.9835 18.7862 16.1528 18.716 16.3293 18.716L16.5183 18.7067C17.144 18.664 18.6043 18.5707 19.7065 19.6053C20.5572 20.4027 20.9885 21.688 20.9885 23.424V29.388C22.0973 30.212 25.7834 33.372 26.2467 39.2827C26.2536 39.3699 26.2433 39.4577 26.2163 39.541C26.1893 39.6243 26.1463 39.7015 26.0895 39.7681C26.0328 39.8347 25.9635 39.8895 25.8856 39.9293C25.8077 39.9691 25.7228 39.9931 25.6357 40C25.461 40.0088 25.2896 39.9503 25.1566 39.8365C25.0237 39.7227 24.9393 39.5622 24.9208 39.388C24.4389 33.252 20.0087 30.3253 19.9634 30.2973C19.8698 30.2363 19.7929 30.153 19.7394 30.0547C19.686 29.9565 19.6577 29.8465 19.6573 29.7347V23.424C19.6573 22.072 19.3671 21.1147 18.796 20.5773C18.2608 20.0747 17.5447 20.0147 16.9962 20.0187L16.9949 26.0133C16.9949 26.06 16.9882 26.1067 16.9789 26.1533L15.8021 31.6453C15.5945 32.612 15.669 34.2253 15.9659 35.1693L17.6285 40.4667C17.6801 40.6317 17.6662 40.8102 17.5899 40.9653L14.2619 47.632C14.2066 47.7426 14.1217 47.8356 14.0166 47.9006C13.9115 47.9656 13.7904 48 13.6669 48Z" fill="#7B61FF"/>
</svg>
