<svg width="56" height="56" viewBox="0 0 56 56" fill="none" xmlns="http://www.w3.org/2000/svg">
<rect width="56" height="56" rx="6" fill="white"/>
<path d="M33.7303 20.7209C29.8146 14.9779 24.5847 11.9256 21.846 13.7958C21.5444 14.0075 21.2823 14.2703 21.0717 14.5721C21.0717 14.5942 14.7313 27.3858 14.7313 27.3858L11.1916 29.7765C10.6483 30.1442 10.1829 30.6151 9.82207 31.1622C9.46127 31.7092 9.21212 32.3218 9.08885 32.9649C8.96559 33.608 8.97062 34.269 9.10367 34.9102C9.23673 35.5513 9.49518 36.1601 9.86428 36.7016L10.0236 36.9354C10.7696 38.0189 11.9141 38.7654 13.2087 39.0131C14.5033 39.2609 15.8437 38.9898 16.9391 38.2587L22.6247 46.6085C23.4609 47.6363 25.067 48.6596 27.0492 47.4554C27.4004 47.2284 27.6999 46.9306 27.9285 46.5811C28.1572 46.2316 28.3098 45.8383 28.3766 45.4264C28.4567 45.0167 28.4545 44.5953 28.3702 44.1864C28.2859 43.7776 28.1211 43.3895 27.8855 43.0445L22.8769 35.6783C22.8769 35.6783 34.717 34.7388 34.7612 34.7211C35.1309 34.644 35.4814 34.494 35.7921 34.28C37.1991 33.3273 37.7035 31.3291 37.2168 28.6517C36.7788 26.186 35.5355 23.3939 33.7303 20.7209ZM11.3111 36.0665L11.1518 35.8327C10.8972 35.4589 10.7189 35.0388 10.6274 34.5963C10.5358 34.1538 10.5327 33.6976 10.6181 33.2539C10.7036 32.8102 10.876 32.3876 11.1255 32.0104C11.375 31.6332 11.6967 31.3088 12.0721 31.0557L15.1295 28.9825L19.1647 34.9064L16.1073 36.9795C15.7323 37.2337 15.3108 37.4118 14.8667 37.5034C14.4227 37.5951 13.9648 37.5987 13.5194 37.5139C13.074 37.4291 12.6497 37.2576 12.2708 37.0093C11.8919 36.7609 11.5658 36.4405 11.3111 36.0665ZM26.6112 43.9135C26.853 44.2722 26.9422 44.7119 26.8593 45.1361C26.7763 45.5603 26.528 45.9343 26.1687 46.1763C25.8082 46.4176 25.3665 46.5066 24.9402 46.424C24.514 46.3413 24.138 46.0936 23.8945 45.7352L18.2267 37.4118L20.5053 35.868L21.1071 35.8194L26.6112 43.9135ZM20.6292 34.3065L16.2312 27.8489L20.4257 19.3227C20.8327 21.7178 22.0229 24.5628 23.9255 27.3549C25.828 30.147 28.0403 32.2995 30.1199 33.5611L20.6292 34.3065ZM33.6816 33.2788C31.5667 33.142 28.1244 30.7646 25.2086 26.4816C22.2928 22.1986 21.346 18.145 21.9964 16.1292C22.1138 15.7508 22.3482 15.4191 22.6661 15.1815C22.9839 14.9438 23.369 14.8124 23.7662 14.8059C25.8634 14.8059 29.4341 17.1966 32.4339 21.6031C34.1241 24.082 35.3541 26.6756 35.6904 28.9429C36.3496 33.2788 33.6816 33.2788 33.6816 33.2788Z" fill="#7B61FF"/>
<path d="M28.1996 20.8841C27.6576 20.778 27.0999 20.7807 26.559 20.8921C26.018 21.0034 25.5048 21.2211 25.0493 21.5325C24.9654 21.5905 24.8937 21.6643 24.8383 21.7498C24.783 21.8354 24.7451 21.931 24.7268 22.0311C24.7085 22.1313 24.7102 22.234 24.7318 22.3335C24.7533 22.433 24.7943 22.5273 24.8524 22.611C24.9105 22.6947 24.9846 22.7662 25.0704 22.8213C25.1562 22.8765 25.2521 22.9143 25.3526 22.9325C25.453 22.9507 25.5561 22.949 25.6559 22.9276C25.7557 22.9061 25.8503 22.8652 25.9342 22.8073C26.2227 22.6121 26.5469 22.4754 26.8884 22.4051C27.2299 22.3348 27.5819 22.3323 27.9243 22.3976C28.2668 22.463 28.593 22.5949 28.8843 22.7859C29.1756 22.9769 29.4263 23.2232 29.6221 23.5108C29.8179 23.7984 29.955 24.1216 30.0255 24.4621C30.096 24.8025 30.0985 25.1534 30.033 25.4948C29.9675 25.8362 29.8351 26.1614 29.6436 26.4518C29.452 26.7422 29.2049 26.9921 28.9164 27.1873C28.7803 27.281 28.678 27.4155 28.6242 27.5714C28.5704 27.7272 28.5681 27.8961 28.6175 28.0534C28.667 28.2106 28.7656 28.348 28.899 28.4453C29.0324 28.5427 29.1935 28.5949 29.3588 28.5944C29.5166 28.5973 29.6712 28.5511 29.8013 28.4621C30.4895 27.9973 31.0238 27.3394 31.3366 26.5716C31.6494 25.8039 31.7266 24.9609 31.5584 24.1494C31.3902 23.3378 30.9842 22.5943 30.3917 22.0131C29.7993 21.4318 29.0472 21.0389 28.2306 20.8841H28.1996ZM34.686 15.3529H34.7612C34.9527 15.3528 35.1374 15.2819 35.2796 15.154C35.4218 15.0261 35.5114 14.8503 35.5311 14.6603L36.1284 8.87324C36.142 8.77091 36.1348 8.6669 36.1074 8.56737C36.08 8.46783 36.0328 8.37479 35.9686 8.29376C35.9045 8.21272 35.8247 8.14533 35.734 8.09558C35.6433 8.04583 35.5435 8.01472 35.4405 8.0041C35.3375 7.99348 35.2334 8.00356 35.1344 8.03374C35.0354 8.06393 34.9434 8.1136 34.864 8.17984C34.7846 8.24607 34.7193 8.3275 34.672 8.41933C34.6247 8.51116 34.5964 8.61151 34.5886 8.71445L33.9958 14.506C33.9747 14.7095 34.0356 14.913 34.165 15.0718C34.2945 15.2306 34.4818 15.3317 34.686 15.3529ZM44.6943 14.1619C44.5806 13.9911 44.4038 13.872 44.2023 13.8307C44.0009 13.7894 43.7913 13.8291 43.6191 13.9414L38.2256 17.4701C38.0856 17.5623 37.9794 17.6973 37.923 17.8549C37.8666 18.0125 37.8631 18.1841 37.913 18.3438C37.9629 18.5036 38.0636 18.6428 38.1997 18.7406C38.3359 18.8384 38.5003 18.8894 38.6681 18.886C38.8246 18.8896 38.9786 18.8466 39.1105 18.7625L44.5041 15.2338C44.6714 15.1164 44.7853 14.9378 44.821 14.737C44.8566 14.5361 44.8111 14.3294 44.6943 14.1619ZM46.3447 23.5836L40.0707 22.4588C39.8682 22.4226 39.6597 22.4679 39.4908 22.585C39.3219 22.702 39.2066 22.8812 39.1703 23.083C39.1339 23.2848 39.1794 23.4927 39.2968 23.661C39.4142 23.8294 39.5939 23.9443 39.7963 23.9806L46.0659 25.1054H46.2031C46.4004 25.1111 46.5924 25.0415 46.74 24.9109C46.8875 24.7802 46.9794 24.5983 46.9969 24.4023C47.0145 24.2063 46.9562 24.011 46.8342 23.8564C46.7121 23.7018 46.5354 23.5995 46.3402 23.5704L46.3447 23.5836Z" fill="#7B61FF"/>
</svg>
