<svg width="24" height="24" viewBox="0 0 24 24" fill="none" xmlns="http://www.w3.org/2000/svg">
<path fill-rule="evenodd" clip-rule="evenodd" d="M12 21C16.9706 21 21 16.9707 21 12C21 7.02944 16.9707 2.99998 12 2.99998C7.02944 2.99998 2.99998 7.02944 2.99998 12C2.99998 16.9706 7.02944 21 12 21ZM12 22C17.5228 22 22 17.5228 22 12C22 6.47711 17.5228 2 12 2C6.47711 2 2 6.47711 2 12C2 17.5228 6.47711 22 12 22Z" fill="#222222"/>
<path fill-rule="evenodd" clip-rule="evenodd" d="M14.5985 12L9.99994 8.93432V15.0658L14.5985 12ZM15.5276 11.4176C15.9432 11.6947 15.9432 12.3054 15.5276 12.5825L10.0882 16.2089C9.62299 16.519 8.99985 16.1854 8.99985 15.6263V8.37376C8.99985 7.81467 9.62299 7.48121 10.0882 7.79135L15.5276 11.4176Z" fill="#222222"/>
</svg>
